<svg width="16" height="16" viewBox="0 0 16 16" fill="none" xmlns="http://www.w3.org/2000/svg">
<path d="M10 1C8.93913 1 7.92172 1.42143 7.17157 2.17157C6.42143 2.92172 6 3.93913 6 5H14C14 3.93913 13.5786 2.92172 12.8284 2.17157C12.0783 1.42143 11.0609 1 10 1Z" fill="#FB775A"/>
<path d="M15 7H1C0.734784 7 0.48043 7.10536 0.292893 7.29289C0.105357 7.48043 0 7.73478 0 8C0 10.1217 0.842855 12.1566 2.34315 13.6569C3.84344 15.1571 5.87827 16 8 16C10.1217 16 12.1566 15.1571 13.6569 13.6569C15.1571 12.1566 16 10.1217 16 8C16 7.73478 15.8946 7.48043 15.7071 7.29289C15.5196 7.10536 15.2652 7 15 7Z" fill="#FB775A"/>
<path d="M4 5V4C4 2.93913 3.57857 1.92172 2.82843 1.17157C2.07828 0.421427 1.06087 0 0 0L0 1C0 2.06087 0.421427 3.07828 1.17157 3.82843C1.92172 4.57857 2.93913 5 4 5Z" fill="#FB775A"/>
</svg>
