<svg width="16" height="16" viewBox="0 0 16 16" fill="none" xmlns="http://www.w3.org/2000/svg">
<path d="M10.6863 0.72337C11.4329 0.168782 12.3623 -0.0814357 13.2863 0.0233702C13.2076 0.975974 12.7803 1.86609 12.0863 2.52337C11.3364 3.07097 10.4098 3.32044 9.48633 3.22337C9.56508 2.27077 9.99233 1.38065 10.6863 0.72337Z" fill="#FB775A"/>
<path d="M14.1868 5.42359C12.7868 4.42359 11.1868 4.32359 8.98678 5.02359C6.88678 4.32359 5.18678 4.42359 3.78678 5.42359C3.26539 5.81666 2.8423 6.32533 2.55078 6.90959H10.9998C11.265 6.90959 11.5194 7.01495 11.7069 7.20249C11.8944 7.39002 11.9998 7.64438 11.9998 7.90959V11.9096C11.9998 12.1748 11.8944 12.4292 11.7069 12.6167C11.5194 12.8042 11.265 12.9096 10.9998 12.9096H3.23078C3.94512 13.9056 4.80701 14.7871 5.78678 15.5236C7.08678 16.6236 8.98678 15.0236 8.98678 15.0236C8.98678 15.0236 10.8868 16.6236 12.1868 15.5236C17.9868 11.0236 15.8868 6.62359 14.1868 5.42359Z" fill="#FB775A"/>
<path d="M9 7.91016V9.91016H8V7.91016H6V9.91016H5V7.91016H3V9.91016H2V7.91016H0V11.9102H11V7.91016H9Z" fill="#FB775A"/>
</svg>
