<svg width="35" height="44" viewBox="0 0 35 44" fill="none" xmlns="http://www.w3.org/2000/svg">
<path d="M21.1615 2.41666H5.49479C4.45603 2.41666 3.45981 2.8293 2.72529 3.56382C1.99077 4.29834 1.57813 5.29456 1.57812 6.33332V37.6667C1.57813 38.7054 1.99077 39.7016 2.72529 40.4362C3.45981 41.1707 4.45603 41.5833 5.49479 41.5833H28.9948C30.0336 41.5833 31.0298 41.1707 31.7643 40.4362C32.4988 39.7016 32.9115 38.7054 32.9115 37.6667V14.1667L21.1615 2.41666Z" stroke="#2A7AC3" stroke-width="3" stroke-linecap="round" stroke-linejoin="round"/>
<path d="M21.1614 2.41666V14.1667H32.9114" stroke="#2A7AC3" stroke-width="3" stroke-linecap="round" stroke-linejoin="round"/>
<path d="M25.078 23.9583H9.41138" stroke="#2A7AC3" stroke-width="3" stroke-linecap="round" stroke-linejoin="round"/>
<path d="M25.078 31.7916H9.41138" stroke="##2A7AC3" stroke-width="3" stroke-linecap="round" stroke-linejoin="round"/>
<path d="M13.328 16.125H11.3697H9.41138" stroke="#2A7AC3" stroke-width="3" stroke-linecap="round" stroke-linejoin="round"/>
</svg>
