<svg width="41" height="40" viewBox="0 0 41 40" fill="none" xmlns="http://www.w3.org/2000/svg">
<path d="M35.3 1.82446H5.7C3.65655 1.82446 2 3.45195 2 5.45955V12.7297C2 14.7373 3.65655 16.3648 5.7 16.3648H35.3C37.3435 16.3648 39 14.7373 39 12.7297V5.45955C39 3.45195 37.3435 1.82446 35.3 1.82446Z" stroke="#F68B48" stroke-width="3" stroke-linecap="round" stroke-linejoin="round"/>
<path d="M35.3 23.635H5.7C3.65655 23.635 2 25.2625 2 27.2701V34.5403C2 36.5479 3.65655 38.1754 5.7 38.1754H35.3C37.3435 38.1754 39 36.5479 39 34.5403V27.2701C39 25.2625 37.3435 23.635 35.3 23.635Z" stroke="#F68B48" stroke-width="3" stroke-linecap="round" stroke-linejoin="round"/>
<path d="M9.40002 9.09448H9.41722" stroke="#235C48" stroke-width="3" stroke-linecap="round" stroke-linejoin="round"/>
<path d="M9.40002 30.905H9.41722" stroke="#F68B48" stroke-width="3" stroke-linecap="round" stroke-linejoin="round"/>
</svg>
