<svg width="50" height="50" viewBox="0 0 50 50" fill="none" xmlns="http://www.w3.org/2000/svg">
<rect width="50" height="50" rx="25" fill="#F6F8FA"/>
<path opacity="0.4" d="M29.9971 20.0845C29.9971 21.087 29.6998 22.067 29.1429 22.9006C28.5859 23.7342 27.7942 24.3839 26.868 24.7675C25.9418 25.1512 24.9226 25.2516 23.9394 25.056C22.9561 24.8604 22.0529 24.3776 21.344 23.6687C20.6351 22.9598 20.1524 22.0566 19.9568 21.0734C19.7612 20.0901 19.8616 19.0709 20.2452 18.1447C20.6289 17.2185 21.2786 16.4269 22.1121 15.8699C22.9457 15.3129 23.9257 15.0156 24.9282 15.0156C26.2726 15.0156 27.5619 15.5497 28.5125 16.5003C29.4631 17.4509 29.9971 18.7401 29.9971 20.0845Z" fill="#D2D9E1"/>
<path d="M28.4754 26.4199H27.814C26.9089 26.8373 25.9239 27.0534 24.9272 27.0534C23.9304 27.0534 22.9455 26.8373 22.0403 26.4199H21.379C19.9675 26.4202 18.6139 26.9811 17.6159 27.9791C16.6178 28.9772 16.057 30.3308 16.0566 31.7422V33.3896C16.0566 33.8938 16.2569 34.3772 16.6134 34.7337C16.9699 35.0902 17.4533 35.2904 17.9575 35.2904H31.8969C32.401 35.2904 32.8845 35.0902 33.2409 34.7337C33.5974 34.3772 33.7977 33.8938 33.7977 33.3896V31.7422C33.7974 30.3308 33.2365 28.9772 32.2385 27.9791C31.2404 26.9811 29.8868 26.4202 28.4754 26.4199Z" fill="#D2D9E1"/>
</svg>
