<svg width="120" height="120" viewBox="0 0 120 120" fill="none" xmlns="http://www.w3.org/2000/svg">
<rect width="120" height="120" rx="3.33333" fill="#F6F8FA"/>
<path d="M72.1494 52.7387L78.6667 41.3333" stroke="#D2D9E1" stroke-width="2.66667" stroke-miterlimit="10"/>
<path d="M67.7402 53.6667L70.6669 42.6667" stroke="#D2D9E1" stroke-width="2.66667" stroke-miterlimit="10"/>
<path d="M47.667 48.6667C48.2193 48.6667 48.667 48.2189 48.667 47.6667C48.667 47.1144 48.2193 46.6667 47.667 46.6667C47.1147 46.6667 46.667 47.1144 46.667 47.6667C46.667 48.2189 47.1147 48.6667 47.667 48.6667Z" fill="#D2D9E1"/>
<path d="M56.3335 57.3333C56.8858 57.3333 57.3335 56.8856 57.3335 56.3333C57.3335 55.7811 56.8858 55.3333 56.3335 55.3333C55.7812 55.3333 55.3335 55.7811 55.3335 56.3333C55.3335 56.8856 55.7812 57.3333 56.3335 57.3333Z" fill="#D2D9E1"/>
<path d="M61.0005 46.6667C61.5528 46.6667 62.0005 46.2189 62.0005 45.6667C62.0005 45.1144 61.5528 44.6667 61.0005 44.6667C60.4482 44.6667 60.0005 45.1144 60.0005 45.6667C60.0005 46.2189 60.4482 46.6667 61.0005 46.6667Z" fill="#D2D9E1"/>
<path d="M51.5962 78H68.4042C71.4902 76.4446 74.0838 74.0628 75.8958 71.1201C77.7078 68.1773 78.6671 64.7892 78.6668 61.3333H41.3335C41.3332 64.7892 42.2925 68.1773 44.1045 71.1201C45.9165 74.0628 48.5101 76.4446 51.5962 78V78Z" stroke="#D2D9E1" stroke-width="2.66667" stroke-miterlimit="10" stroke-linecap="square"/>
<path d="M76.0005 57.3333C75.9999 56.4058 75.7229 55.4996 75.2049 54.7302C74.6869 53.9608 73.9514 53.3633 73.0922 53.0138C72.2331 52.6643 71.2893 52.5788 70.3813 52.7681C69.4734 52.9574 68.6424 53.413 67.9945 54.0767C67.6235 53.407 67.1124 52.8253 66.496 52.3711C65.8797 51.917 65.1727 51.6012 64.4232 51.4452C63.6737 51.2892 62.8993 51.2967 62.153 51.4672C61.4066 51.6378 60.7059 51.9673 60.0985 52.4333C59.6458 51.6044 58.9522 50.9323 58.1094 50.506C57.2666 50.0796 56.3142 49.919 55.3782 50.0454C54.4422 50.1719 53.5665 50.5793 52.867 51.214C52.1675 51.8487 51.6771 52.6807 51.4605 53.6C50.7677 53.0796 49.9436 52.7626 49.0807 52.6846C48.2178 52.6066 47.3502 52.7707 46.5754 53.1585C45.8005 53.5462 45.1491 54.1423 44.6943 54.8798C44.2394 55.6172 43.9992 56.4669 44.0005 57.3333" stroke="#D2D9E1" stroke-width="2.66667" stroke-miterlimit="10" stroke-linecap="square"/>
</svg>
