<svg width="26" height="21" viewBox="0 0 26 21" fill="none" xmlns="http://www.w3.org/2000/svg">
<path opacity="0.4" d="M16.8595 20.335H21.1251C22.418 20.335 23.6579 19.8082 24.5722 18.8705C25.4864 17.9328 26 16.661 26 15.335V5.33496C26 4.00888 25.4864 2.73711 24.5722 1.79943C23.6579 0.861745 22.418 0.334961 21.1251 0.334961H16.8595C16.6979 0.334961 16.5429 0.400809 16.4286 0.518019C16.3143 0.635229 16.2501 0.794201 16.2501 0.959961V3.04329C16.2501 3.20905 16.3143 3.36803 16.4286 3.48524C16.5429 3.60245 16.6979 3.66829 16.8595 3.66829H21.1251C21.556 3.66829 21.9694 3.84389 22.2741 4.15645C22.5788 4.46901 22.75 4.89293 22.75 5.33496V15.335C22.75 15.777 22.5788 16.2009 22.2741 16.5135C21.9694 16.826 21.556 17.0016 21.1251 17.0016H16.8595C16.6979 17.0016 16.5429 17.0675 16.4286 17.1847C16.3143 17.3019 16.2501 17.4609 16.2501 17.6266V19.71C16.2501 19.8757 16.3143 20.0347 16.4286 20.1519C16.5429 20.2691 16.6979 20.335 16.8595 20.335Z" fill="#A6B4C4"/>
<path d="M8.07434 1.60024L0.360777 9.44399C0.246393 9.56021 0.155598 9.69853 0.0936337 9.85095C0.0316696 10.0034 -0.000236511 10.1669 -0.000236511 10.332C-0.000236511 10.4972 0.0316696 10.6607 0.0936337 10.8131C0.155598 10.9655 0.246393 11.1038 0.360777 11.22L8.07942 19.0742C8.30908 19.3063 8.61881 19.4359 8.9412 19.4349C9.26359 19.434 9.57256 19.3024 9.80088 19.069L10.913 17.9284C11.029 17.8086 11.1202 17.6661 11.1812 17.5093C11.2422 17.3524 11.2717 17.1846 11.2679 17.0158C11.2641 16.8471 11.2271 16.6808 11.1591 16.5271C11.0912 16.3733 10.9936 16.2352 10.8724 16.1211L6.93178 12.418H16.6563C16.8164 12.4184 16.9751 12.3863 17.1231 12.3236C17.2712 12.261 17.4057 12.1689 17.5189 12.0528C17.6322 11.9366 17.7219 11.7986 17.783 11.6468C17.8441 11.4949 17.8754 11.3322 17.875 11.168V9.50128C17.8754 9.33702 17.8441 9.17429 17.783 9.02244C17.7219 8.8706 17.6322 8.73264 17.5189 8.61648C17.4057 8.50033 17.2712 8.40827 17.1231 8.3456C16.9751 8.28292 16.8164 8.25087 16.6563 8.25128H6.93178L10.8724 4.54816C10.993 4.434 11.0898 4.29603 11.1572 4.14253C11.2245 3.98904 11.2609 3.82317 11.2643 3.65488C11.2676 3.48659 11.2377 3.31935 11.1765 3.16319C11.1153 3.00702 11.0239 2.86515 10.9079 2.74608L9.79581 1.60545C9.56801 1.37099 9.25884 1.23877 8.93613 1.2378C8.61341 1.23682 8.30349 1.36717 8.07434 1.60024Z" fill="#A6B4C4"/>
</svg>
