<svg width="22" height="30" viewBox="0 0 22 30" fill="none" xmlns="http://www.w3.org/2000/svg">
<path opacity="0.4" d="M20.5333 0.327601L18.3333 2.89255L15.2167 0.327601C15.0584 0.207708 14.8652 0.142822 14.6667 0.142822C14.4681 0.142822 14.275 0.207708 14.1167 0.327601L11 2.89255L7.88333 0.327601C7.72504 0.207708 7.53191 0.142822 7.33333 0.142822C7.13476 0.142822 6.94163 0.207708 6.78333 0.327601L3.66667 2.89255L1.46667 0.327601C1.33059 0.225546 1.16881 0.163364 0.999416 0.148009C0.83002 0.132654 0.659693 0.164733 0.507488 0.240657C0.355284 0.316581 0.227205 0.433355 0.13758 0.577917C0.047955 0.722478 0.000318695 0.889125 0 1.05922L0 28.5592C0 28.7295 0.0474051 28.8963 0.136903 29.0411C0.226402 29.1859 0.354457 29.303 0.506721 29.3791C0.658985 29.4552 0.82944 29.4875 0.998989 29.4722C1.16854 29.4569 1.33048 29.3947 1.46667 29.2925L3.66667 26.7259L6.78333 29.2925C6.94163 29.4124 7.13476 29.4773 7.33333 29.4773C7.53191 29.4773 7.72504 29.4124 7.88333 29.2925L11 26.7259L14.1167 29.2925C14.275 29.4124 14.4681 29.4773 14.6667 29.4773C14.8652 29.4773 15.0584 29.4124 15.2167 29.2925L18.3333 26.7259L20.5333 29.2925C20.6695 29.3947 20.8315 29.4569 21.001 29.4722C21.1706 29.4875 21.341 29.4552 21.4933 29.3791C21.6455 29.303 21.7736 29.1859 21.8631 29.0411C21.9526 28.8963 22 28.7295 22 28.5592V1.05922C21.9997 0.889125 21.952 0.722478 21.8624 0.577917C21.7728 0.433355 21.6447 0.316581 21.4925 0.240657C21.3403 0.164733 21.17 0.132654 21.0006 0.148009C20.8312 0.163364 20.6694 0.225546 20.5333 0.327601ZM18.3333 20.7675C18.3333 20.8891 18.285 21.0057 18.1991 21.0916C18.1131 21.1776 17.9966 21.2259 17.875 21.2259H4.125C4.00344 21.2259 3.88686 21.1776 3.80091 21.0916C3.71496 21.0057 3.66667 20.8891 3.66667 20.7675V19.8509C3.66667 19.7293 3.71496 19.6127 3.80091 19.5268C3.88686 19.4408 4.00344 19.3925 4.125 19.3925H17.875C17.9966 19.3925 18.1131 19.4408 18.1991 19.5268C18.285 19.6127 18.3333 19.7293 18.3333 19.8509V20.7675ZM18.3333 15.2675C18.3333 15.3891 18.285 15.5057 18.1991 15.5916C18.1131 15.6776 17.9966 15.7259 17.875 15.7259H4.125C4.00344 15.7259 3.88686 15.6776 3.80091 15.5916C3.71496 15.5057 3.66667 15.3891 3.66667 15.2675V14.3509C3.66667 14.2293 3.71496 14.1127 3.80091 14.0268C3.88686 13.9408 4.00344 13.8925 4.125 13.8925H17.875C17.9966 13.8925 18.1131 13.9408 18.1991 14.0268C18.285 14.1127 18.3333 14.2293 18.3333 14.3509V15.2675ZM18.3333 9.76755C18.3333 9.88911 18.285 10.0057 18.1991 10.0916C18.1131 10.1776 17.9966 10.2259 17.875 10.2259H4.125C4.00344 10.2259 3.88686 10.1776 3.80091 10.0916C3.71496 10.0057 3.66667 9.88911 3.66667 9.76755V8.85088C3.66667 8.72933 3.71496 8.61275 3.80091 8.52679C3.88686 8.44084 4.00344 8.39255 4.125 8.39255H17.875C17.9966 8.39255 18.1131 8.44084 18.1991 8.52679C18.285 8.61275 18.3333 8.72933 18.3333 8.85088V9.76755Z" fill="#A6B4C4"/>
<path d="M17.8763 8.39282H4.1263C4.00474 8.39282 3.88817 8.44111 3.80221 8.52706C3.71626 8.61302 3.66797 8.7296 3.66797 8.85116V9.76782C3.66797 9.88938 3.71626 10.006 3.80221 10.0919C3.88817 10.1779 4.00474 10.2262 4.1263 10.2262H17.8763C17.9979 10.2262 18.1144 10.1779 18.2004 10.0919C18.2863 10.006 18.3346 9.88938 18.3346 9.76782V8.85116C18.3346 8.7296 18.2863 8.61302 18.2004 8.52706C18.1144 8.44111 17.9979 8.39282 17.8763 8.39282ZM17.8763 13.8928H4.1263C4.00474 13.8928 3.88817 13.9411 3.80221 14.0271C3.71626 14.113 3.66797 14.2296 3.66797 14.3512V15.2678C3.66797 15.3894 3.71626 15.506 3.80221 15.5919C3.88817 15.6779 4.00474 15.7262 4.1263 15.7262H17.8763C17.9979 15.7262 18.1144 15.6779 18.2004 15.5919C18.2863 15.506 18.3346 15.3894 18.3346 15.2678V14.3512C18.3346 14.2296 18.2863 14.113 18.2004 14.0271C18.1144 13.9411 17.9979 13.8928 17.8763 13.8928ZM17.8763 19.3928H4.1263C4.00474 19.3928 3.88817 19.4411 3.80221 19.5271C3.71626 19.613 3.66797 19.7296 3.66797 19.8512V20.7678C3.66797 20.8894 3.71626 21.006 3.80221 21.0919C3.88817 21.1779 4.00474 21.2262 4.1263 21.2262H17.8763C17.9979 21.2262 18.1144 21.1779 18.2004 21.0919C18.2863 21.006 18.3346 20.8894 18.3346 20.7678V19.8512C18.3346 19.7296 18.2863 19.613 18.2004 19.5271C18.1144 19.4411 17.9979 19.3928 17.8763 19.3928Z" fill="#A6B4C4"/>
</svg>
