<svg width="22" height="26" viewBox="0 0 22 26" fill="none" xmlns="http://www.w3.org/2000/svg">
<path opacity="0.4" d="M17.2863 6.28571C17.2863 7.52891 16.9176 8.74419 16.2269 9.77787C15.5363 10.8116 14.5546 11.6172 13.406 12.093C12.2574 12.5687 10.9936 12.6932 9.77428 12.4507C8.55497 12.2081 7.43496 11.6095 6.55589 10.7304C5.67682 9.85131 5.07816 8.73131 4.83562 7.512C4.59309 6.29269 4.71757 5.02884 5.19332 3.88028C5.66907 2.73171 6.47472 1.75002 7.5084 1.05933C8.54209 0.368651 9.75736 0 11.0006 0C12.6676 0 14.2664 0.662243 15.4452 1.84104C16.624 3.01984 17.2863 4.61864 17.2863 6.28571Z" fill="#192E46"/>
<path d="M15.4 14.1428H14.5799C13.4574 14.6604 12.2361 14.9284 11 14.9284C9.76394 14.9284 8.54257 14.6604 7.42009 14.1428H6.6C4.84969 14.1432 3.17118 14.8387 1.93353 16.0763C0.695871 17.314 0.000390563 18.9925 0 20.7428L0 22.7857C0 23.4108 0.248341 24.0104 0.690391 24.4524C1.13244 24.8945 1.73199 25.1428 2.35714 25.1428H19.6429C20.268 25.1428 20.8676 24.8945 21.3096 24.4524C21.7517 24.0104 22 23.4108 22 22.7857V20.7428C21.9996 18.9925 21.3041 17.314 20.0665 16.0763C18.8288 14.8387 17.1503 14.1432 15.4 14.1428Z" fill="#192E46"/>
</svg>
