<svg width="788" height="707" viewBox="0 0 788 707" fill="none" xmlns="http://www.w3.org/2000/svg">
<rect width="788" height="707" fill="#FEF9F5"/>
<path d="M20 415L125 415" stroke="black"/>
<path d="M312 415L385 415" stroke="black"/>
<path d="M502 415L645 415" stroke="black"/>
<path d="M129 253H312V391C312 426.346 283.346 455 248 455H193C157.654 455 129 426.346 129 391V253Z" stroke="#294D3B"/>
<path d="M165.5 413C138 390.5 133.5 371.5 129.5 312V391C129.5 426.899 158.601 456 194.5 456H250C284.518 456 312.5 428.018 312.5 393.5C305 411.5 280.406 419.337 262.5 426C241 434 190.133 433.154 165.5 413Z" fill="#294D3B"/>
<path d="M148.5 525.769C148.5 535.483 144.552 541.877 138.19 545.869C131.791 549.885 122.902 551.5 113 551.5C103.098 551.5 94.2086 549.885 87.8099 545.869C81.4483 541.877 77.5 535.483 77.5 525.769C77.5 520.96 79.0997 517.531 81.6419 514.785C84.204 512.017 87.7354 509.929 91.6354 507.848C92.3813 507.45 93.1405 507.052 93.9078 506.651C100.911 502.983 108.593 498.96 113.072 490.92C118.945 498.485 126.233 502.49 132.624 506.002C133.758 506.625 134.863 507.232 135.927 507.841C139.557 509.918 142.693 512.001 144.927 514.76C147.147 517.5 148.5 520.937 148.5 525.769Z" stroke="#C4C4C4"/>
<path d="M380.5 96.5H612.5V312.5H380.5V96.5Z" stroke="#C4C4C4"/>
<path d="M357.5 326.5H624.5V313.5H357.5V326.5Z" stroke="#C4C4C4"/>
<path d="M181.894 188.634L208 252.5H220.5L191.652 184.568C190.478 181.803 187.239 180.571 184.524 181.857C181.987 183.059 180.832 186.035 181.894 188.634Z" fill="#F68B48"/>
<path d="M28 117L159.5 154C149.5 161 136 196.5 146.5 214C122.9 216.8 57.8333 217 28 214" stroke="#F5D668"/>
<path d="M146.5 214C148.167 212.833 153.9 205 155.5 193L142.5 193C141.3 202.2 144.667 211 146.5 214Z" fill="#F5D668"/>
<path d="M286 301H278.5V307.5H289C289 307.5 301 292 309 292H332V286H309C300.6 286 290.167 295.667 286 301Z" fill="#FEF9F5" stroke="#294D3B"/>
<path d="M332 292C324 292 315.333 300.333 312 304.5V297C314 295 316.3 292.4 319.5 292" stroke="#294D3B"/>
<path d="M109 286V292C117 292 125.667 300.333 129 304.5V297C128.165 296.165 126.285 294.111 123.65 292M109 286H129V292H123.65M109 286C114.826 286 119.973 289.054 123.65 292" stroke="#294D3B"/>
<path d="M380.5 152H427C430.038 152 432.5 149.538 432.5 146.5V146.5C432.5 143.462 430.038 141 427 141H424.5V135.75C424.5 130.089 419.911 125.5 414.25 125.5V125.5C408.589 125.5 404 130.089 404 135.75V137H394C391.791 137 390 138.791 390 141V141H380.5" stroke="#BFD8ED"/>
<path d="M612 185H529.547C524.274 185 520 180.726 520 175.453V175.453C520 170.18 524.274 165.906 529.547 165.906H534.154V157.135C534.154 147.119 542.273 139 552.288 139V139C562.304 139 570.423 147.119 570.423 157.135V158.962H588.249C592.084 158.962 595.192 162.071 595.192 165.906V165.906H612" stroke="#BFD8ED"/>
<path d="M229.404 71.9986C238.701 82.8978 246.654 92.5285 250.783 103.365C255.228 115.034 255.25 128.146 247.542 145.8C243.643 154.729 242.189 162.044 242.086 168.821C241.983 175.588 243.23 181.795 244.699 188.482C244.827 189.066 244.957 189.653 245.088 190.245C247.718 202.138 250.763 215.908 248.31 237.403C247.334 222.177 242.755 212.579 238.192 203.954C237.819 203.249 237.447 202.552 237.077 201.858C232.35 193.002 228 184.851 228 172C228 165.065 229.432 158.272 231.237 151.178C231.678 149.443 232.142 147.689 232.613 145.911C234.062 140.435 235.571 134.732 236.665 128.651C239.445 113.203 239.561 95.2794 229.404 71.9986Z" stroke="#C2DFED"/>
<path d="M304 520L464.461 502.071C474.349 500.967 483 508.705 483 518.654C483 528.493 474.531 536.196 464.737 535.265L304 520Z" fill="#F59914"/>
<path d="M483 519L597 519" stroke="#235C48"/>
<path d="M482.5 519C513.7 519 536 510.5 547.5 503.5" stroke="#235C48"/>
<path d="M524 513.5C526.8 510.7 527.833 507.667 528 506.5" stroke="#235C48"/>
<path d="M531.5 511C534.3 508.2 535.333 505.167 535.5 504" stroke="#235C48"/>
<path d="M538.5 508C541.3 505.2 542.333 502.167 542.5 501" stroke="#235C48"/>
<path d="M539 508C543.5 507.5 545 508.5 547 509.5" stroke="#235C48"/>
<path d="M531.5 511.133C536 510.633 537.5 511.633 539.5 512.633" stroke="#235C48"/>
<path d="M524.5 513.133C529 512.633 530.5 513.633 532.5 514.633" stroke="#235C48"/>
<path d="M482.5 519C513.7 519 536 527.5 547.5 534.5" stroke="#235C48"/>
<path d="M524 524.5C526.8 527.3 527.833 530.333 528 531.5" stroke="#235C48"/>
<path d="M531.5 527C534.3 529.8 535.333 532.833 535.5 534" stroke="#235C48"/>
<path d="M538.5 530C541.3 532.8 542.333 535.833 542.5 537" stroke="#235C48"/>
<path d="M539 530C543.5 530.5 545 529.5 547 528.5" stroke="#235C48"/>
<path d="M531.5 526.867C536 527.367 537.5 526.367 539.5 525.367" stroke="#235C48"/>
<path d="M524.5 524.867C529 525.367 530.5 524.367 532.5 523.367" stroke="#235C48"/>
<path d="M587.493 519C590.64 517.6 592.476 515.695 593 514.917" stroke="#235C48"/>
<path d="M574.907 519C580.301 517 583.448 514.278 584.347 513.167" stroke="#235C48"/>
<path d="M562.32 519C568.613 516.6 572.285 513.333 573.333 512" stroke="#235C48"/>
<path d="M548.16 519C554.453 516.6 558.125 513.333 559.173 512" stroke="#235C48"/>
<path d="M534 519C540.294 517 543.965 514.278 545.014 513.167" stroke="#235C48"/>
<path d="M587.493 519C590.64 520.4 592.476 522.305 593 523.083" stroke="#235C48"/>
<path d="M574.907 519C580.301 521 583.448 523.722 584.347 524.833" stroke="#235C48"/>
<path d="M562.32 519C568.613 521.4 572.285 524.667 573.333 526" stroke="#235C48"/>
<path d="M548.16 519C554.453 521.4 558.125 524.667 559.173 526" stroke="#235C48"/>
<path d="M534 519C540.294 521 543.965 523.722 545.014 524.833" stroke="#235C48"/>
<path d="M374.008 518.366L506.868 476.113C515.055 473.51 523.687 478.603 525.365 487.029C527.025 495.361 521.153 503.312 512.701 504.177L374.008 518.366Z" stroke="#F59914"/>
<path d="M525.424 487.322L621.963 468.09" stroke="#235C48"/>
<path d="M525 487.406C551.422 482.143 568.872 471.183 577.43 463.315" stroke="#235C48"/>
<path d="M559.216 475.747C561.115 472.904 561.478 470.161 561.423 469.145" stroke="#235C48"/>
<path d="M565.146 472.365C567.044 469.522 567.408 466.779 567.352 465.762" stroke="#235C48"/>
<path d="M570.567 468.644C572.466 465.8 572.83 463.057 572.774 462.041" stroke="#235C48"/>
<path d="M570.991 468.559C574.717 467.377 576.156 467.971 578.019 468.48" stroke="#235C48"/>
<path d="M565.168 472.478C568.895 471.295 570.333 471.889 572.196 472.399" stroke="#235C48"/>
<path d="M559.578 475.352C563.304 474.17 564.743 474.763 566.605 475.273" stroke="#235C48"/>
<path d="M525 487.406C551.422 482.142 571.74 485.579 582.659 489.566" stroke="#235C48"/>
<path d="M561.072 485.063C563.915 486.961 565.302 489.356 565.64 490.316" stroke="#235C48"/>
<path d="M567.845 485.914C570.688 487.813 572.075 490.208 572.413 491.167" stroke="#235C48"/>
<path d="M574.279 487.274C577.122 489.173 578.509 491.567 578.847 492.527" stroke="#235C48"/>
<path d="M574.702 487.19C578.597 486.854 579.699 485.754 581.224 484.57" stroke="#235C48"/>
<path d="M567.822 485.802C571.718 485.466 572.819 484.366 574.344 483.182" stroke="#235C48"/>
<path d="M561.557 485.289C565.452 484.953 566.554 483.853 568.079 482.669" stroke="#235C48"/>
<path d="M613.913 469.694C616.341 467.977 617.574 466.054 617.887 465.307" stroke="#235C48"/>
<path d="M603.254 471.817C607.485 469.213 609.69 466.377 610.264 465.285" stroke="#235C48"/>
<path d="M592.595 473.941C597.52 470.846 600.077 467.461 600.741 466.155" stroke="#235C48"/>
<path d="M580.604 476.329C585.528 473.235 588.086 469.85 588.749 468.543" stroke="#235C48"/>
<path d="M568.613 478.718C573.605 475.963 576.254 473.038 576.955 471.92" stroke="#235C48"/>
<path d="M613.913 469.694C616.814 470.348 618.69 471.652 619.265 472.223" stroke="#235C48"/>
<path d="M603.254 471.817C608.159 472.601 611.283 474.375 612.232 475.164" stroke="#235C48"/>
<path d="M592.595 473.94C598.329 474.911 601.989 477.058 603.103 478.01" stroke="#235C48"/>
<path d="M580.604 476.329C586.338 477.3 589.998 479.447 591.111 480.399" stroke="#235C48"/>
<path d="M568.613 478.718C574.28 479.35 577.848 481.036 578.923 481.8" stroke="#235C48"/>
<path d="M313.808 592.077C324.863 573.556 287.142 566.826 261.535 566.355C238.586 565.933 215.326 566.429 198.234 565.826C196.889 566.656 196.516 567.257 196.258 568.345C202.338 568.717 220.221 574.037 231.012 580.721C253.255 594.497 302.752 610.598 313.808 592.077Z" stroke="#4EA241"/>
<path d="M328.239 583.548C339.294 565.027 301.574 558.297 275.966 557.827C253.018 557.405 229.757 557.901 212.666 557.297C211.32 558.127 210.948 558.728 210.69 559.816C216.769 560.188 234.652 565.508 245.444 572.192C267.686 585.968 317.184 602.069 328.239 583.548Z" fill="#4EA241"/>
<path d="M227.277 560.026C262.273 562.073 305.051 574.788 322.066 580.89" stroke="#FEF9F5"/>
<path d="M629 205.988H469.042L453.221 307.06H613.18L629 205.988Z" fill="#FEF9F5" stroke="#4EA241"/>
<path d="M613.18 307.061H534.958H375H453.221" stroke="#4EA241"/>
<path d="M502.439 227.96H610.543L607.907 246.417H499.803L502.439 227.96Z" fill="#C2DFED"/>
<path d="M496.864 267.889L499.358 250.433H606.451L603.957 267.889H496.864Z" stroke="#C2DFED"/>
<path d="M493.348 289.862L495.842 272.405H602.936L600.442 289.862H493.348Z" stroke="#C2DFED"/>
<path d="M454.1 307.5H498.045" stroke="#4EA241"/>
<path d="M472.557 220.929H492.772" stroke="#4EA141"/>
<path d="M466.405 264.874H486.619" stroke="#4EA141"/>
<path d="M471.532 228.253H491.746" stroke="#4EA141"/>
<path d="M470.506 235.577H490.721" stroke="#4EA141"/>
<path d="M469.481 242.901H489.695" stroke="#4EA141"/>
<path d="M468.456 250.225H488.67" stroke="#4EA141"/>
<path d="M467.43 257.55H487.645" stroke="#4EA141"/>
<path d="M505.516 213.019H559.128L557.81 220.929H504.197L505.516 213.019Z" fill="#4EA141"/>
<rect x="375" y="307" width="238" height="6" fill="#4EA141"/>
<path d="M500 403C500 405.209 474.704 407 443.5 407C412.296 407 387 405.209 387 403" stroke="#C2DFED"/>
<path d="M160 153L199.183 159.201C211.84 160.918 223.014 176.619 227.314 185.336C234.108 199.105 227.625 208.693 212.244 219" stroke="black"/>
<path d="M142.5 193.5C156.167 196.833 186.2 204.6 197 209C210.5 214.5 211 208.5 210.5 204C210 199.5 184 186.5 177.5 181" stroke="black"/>
<path d="M190.333 214C180.333 218 179.333 223.5 182.833 224.5C185.633 225.3 192.333 224.833 195.333 224.5" stroke="black"/>
<ellipse cx="443.5" cy="387" rx="58.5" ry="4" fill="#F5D668"/>
<path d="M500.5 387V403.5L496 404.5L491 440C491 442.209 469.734 444 443.5 444C417.266 444 396 442.209 396 440L392 404.5L387 403.5V387" stroke="#F5D668"/>
<path d="M494.5 413C486.5 413.5 439 413 394 405C405 405.667 420 407 446.5 407C471 407 486 405.333 496 404.5C495.833 405.333 495.3 408.2 494.5 413Z" fill="#F5D668"/>
</svg>
