<svg width="55" height="60" viewBox="0 0 55 60" fill="none" xmlns="http://www.w3.org/2000/svg">
<path d="M21.642 44.6137H2.27698V2H48.1686V32.4786" stroke="#FDE1D8" stroke-width="3" stroke-linecap="round" stroke-linejoin="round"/>
<path d="M2.27698 11.834H48.1686" stroke="#FDE1D8" stroke-width="3" stroke-linecap="round" stroke-linejoin="round"/>
<path d="M8.83292 18.3896H15.3889V24.9456H8.83292V18.3896Z" stroke="#FDE1D8" stroke-width="3" stroke-linecap="round" stroke-linejoin="round"/>
<path d="M8.83292 31.502H15.3889V38.0579H8.83292V31.502Z" stroke="#FDE1D8" stroke-width="3" stroke-linecap="round" stroke-linejoin="round"/>
<path d="M21.9448 18.3896H28.5008V24.9456H21.9448V18.3896Z" stroke="#FDE1D8" stroke-width="3" stroke-linecap="round" stroke-linejoin="round"/>
<path d="M21.9448 31.502H28.5008V38.0579H21.9448V31.502Z" stroke="#FDE1D8" stroke-width="3" stroke-linecap="round" stroke-linejoin="round"/>
<path d="M35.0567 18.3896H41.6127V24.9456H35.0567V18.3896Z" stroke="#FDE1D8" stroke-width="3" stroke-linecap="round" stroke-linejoin="round"/>
<path d="M36.3172 57.9999L29.9164 52.8775C29.3811 52.4496 28.9799 51.8769 28.7606 51.2276C28.5414 50.5783 28.5132 49.8797 28.6795 49.2149V49.2149C28.8094 48.695 29.0545 48.2109 29.3966 47.7984C29.7386 47.3859 30.169 47.0555 30.6559 46.8317C31.1429 46.6078 31.6738 46.4963 32.2096 46.5052C32.7455 46.5141 33.2724 46.6432 33.7516 46.8831L36.3172 48.1659V36.693C36.3172 35.8236 36.6626 34.9899 37.2773 34.3751C37.892 33.7604 38.7258 33.415 39.5952 33.415C40.4645 33.415 41.2983 33.7604 41.913 34.3751C42.5278 34.9899 42.8731 35.8236 42.8731 36.693V43.249L47.2285 43.9745C48.7593 44.2295 50.15 45.0193 51.1531 46.2034C52.1563 47.3874 52.707 48.889 52.7071 50.4408V57.9999" stroke="#FDE1D8" stroke-width="3" stroke-linecap="round" stroke-linejoin="round"/>
</svg>
