<svg width="24" height="24" viewBox="0 0 24 24" fill="none" xmlns="http://www.w3.org/2000/svg">
<path d="M15.78 11.2801C15.9207 11.4206 15.9998 11.6113 16 11.8101V12.1901C15.9977 12.3885 15.9189 12.5784 15.78 12.7201L10.64 17.8501C10.5461 17.9448 10.4183 17.998 10.285 17.998C10.1517 17.998 10.0239 17.9448 9.93 17.8501L9.22 17.1401C9.12593 17.0479 9.07293 16.9218 9.07293 16.7901C9.07293 16.6584 9.12593 16.5323 9.22 16.4401L13.67 12.0001L9.22 7.5601C9.12534 7.46621 9.0721 7.33842 9.0721 7.2051C9.0721 7.07178 9.12534 6.94398 9.22 6.8501L9.93 6.1501C10.0239 6.05544 10.1517 6.0022 10.285 6.0022C10.4183 6.0022 10.5461 6.05544 10.64 6.1501L15.78 11.2801Z" fill="white"/>
</svg>
