<svg width="788" height="707" viewBox="0 0 788 707" fill="none" xmlns="http://www.w3.org/2000/svg">
<rect width="788" height="707" fill="#FEF9F5"/>
<path d="M20 415L74 415" stroke="black" stroke-width="3"/>
<path d="M312 415L385 415" stroke="black" stroke-width="3"/>
<path d="M502 415L645 415" stroke="black" stroke-width="3"/>
<path d="M74 198H307V391C307 426.346 278.346 455 243 455H138C102.654 455 74 426.346 74 391V198Z" stroke="#294D3B" stroke-width="3"/>
<path opacity="0.1" d="M120.639 401.354C85.776 372.76 80.071 348.615 75 273V391C75 426.899 104.101 456 140 456H242C277.899 456 307 426.905 307 391.007V376.573C297.492 399.448 266.312 409.408 243.612 417.875C216.355 428.042 151.868 426.967 120.639 401.354Z" fill="#294D3B"/>
<mask id="path-6-inside-1" fill="white">
<path d="M110 510.769C110 530.524 93.8823 537 74 537C54.1178 537 38 530.524 38 510.769C38 491.014 64.4 493.481 74 475C87.8 493.481 110 491.014 110 510.769Z"/>
</mask>
<path d="M110 510.769C110 530.524 93.8823 537 74 537C54.1178 537 38 530.524 38 510.769C38 491.014 64.4 493.481 74 475C87.8 493.481 110 491.014 110 510.769Z" stroke="#C4C4C4" stroke-width="6" mask="url(#path-6-inside-1)"/>
<path d="M380 111H613V328H380V111Z" fill="#E4EEF7"/>
<mask id="path-8-inside-2" fill="white">
<path d="M357 342H625V328H357V342Z"/>
</mask>
<path d="M357 342H625V328H357V342Z" stroke="#C4C4C4" stroke-width="6" mask="url(#path-8-inside-2)"/>
<path d="M64.3452 116.537L97.2593 198H113L76.6743 111.459C75.1991 107.945 71.0829 106.38 67.6456 108.027C64.4718 109.548 63.0268 113.274 64.3452 116.537Z" stroke="#F68B48" stroke-width="3"/>
<path d="M273.606 259.237H264.085V267.488H277.414C277.414 267.488 292.647 247.812 302.803 247.812H332V240.195H302.803C292.14 240.195 278.895 252.467 273.606 259.237Z" fill="#FEF9F5" stroke="#294D3B" stroke-width="3"/>
<path d="M332 247.812C321.844 247.812 310.843 258.391 306.611 263.68V254.159C309.15 251.62 312.07 248.32 316.132 247.812" stroke="#294D3B" stroke-width="3"/>
<path d="M48.915 240.195V247.812C59.0705 247.812 70.0723 258.391 74.3038 263.68V254.159C73.244 253.099 70.857 250.491 67.5122 247.812M48.915 240.195H74.3038V247.812H67.5122M48.915 240.195C56.3104 240.195 62.8441 244.073 67.5122 247.812" stroke="#294D3B" stroke-width="3"/>
<path d="M380.5 167H427C430.038 167 432.5 164.538 432.5 161.5V161.5C432.5 158.462 430.038 156 427 156H424.5V150.75C424.5 145.089 419.911 140.5 414.25 140.5V140.5C408.589 140.5 404 145.089 404 150.75V152H394C391.791 152 390 153.791 390 156V156H380.5" stroke="#BFD8ED" stroke-width="3"/>
<path d="M612 200H529.547C524.274 200 520 195.726 520 190.453V190.453C520 185.18 524.274 180.906 529.547 180.906H534.154V172.135C534.154 162.119 542.273 154 552.288 154V154C562.304 154 570.423 162.119 570.423 172.135V173.962H588.249C592.084 173.962 595.192 177.071 595.192 180.906V180.906H612" stroke="#BFD8ED" stroke-width="3"/>
<path d="M304 531.916L539.443 505.609C553.951 503.988 566.645 515.343 566.645 529.941C566.645 544.377 554.218 555.68 539.847 554.315L304 531.916Z" fill="#F59914"/>
<path d="M566.645 530.449L733.916 530.448" stroke="#235C48" stroke-width="3"/>
<path d="M565.911 530.449C611.691 530.449 644.411 517.977 661.285 507.706" stroke="#235C48" stroke-width="3"/>
<path d="M626.804 522.378C630.912 518.27 632.428 513.819 632.673 512.107" stroke="#235C48" stroke-width="3"/>
<path d="M637.808 518.71C641.917 514.602 643.433 510.151 643.678 508.439" stroke="#235C48" stroke-width="3"/>
<path d="M648.079 514.308C652.188 510.2 653.704 505.749 653.949 504.037" stroke="#235C48" stroke-width="3"/>
<path d="M648.813 514.308C655.416 513.575 657.617 515.042 660.551 516.51" stroke="#235C48" stroke-width="3"/>
<path d="M637.808 518.905C644.411 518.172 646.612 519.639 649.547 521.106" stroke="#235C48" stroke-width="3"/>
<path d="M627.537 521.84C634.14 521.106 636.341 522.574 639.276 524.041" stroke="#235C48" stroke-width="3"/>
<path d="M565.911 530.449C611.691 530.449 644.411 542.921 661.285 553.192" stroke="#235C48" stroke-width="3"/>
<path d="M626.804 538.519C630.912 542.627 632.428 547.078 632.673 548.79" stroke="#235C48" stroke-width="3"/>
<path d="M637.808 542.187C641.917 546.295 643.433 550.746 643.678 552.458" stroke="#235C48" stroke-width="3"/>
<path d="M648.079 546.589C652.188 550.697 653.704 555.148 653.949 556.86" stroke="#235C48" stroke-width="3"/>
<path d="M648.813 546.589C655.416 547.323 657.617 545.855 660.551 544.388" stroke="#235C48" stroke-width="3"/>
<path d="M637.808 541.992C644.411 542.726 646.612 541.258 649.547 539.791" stroke="#235C48" stroke-width="3"/>
<path d="M627.537 539.057C634.14 539.791 636.341 538.324 639.276 536.856" stroke="#235C48" stroke-width="3"/>
<path d="M719.967 530.448C724.584 528.394 727.277 525.598 728.047 524.457" stroke="#235C48" stroke-width="3"/>
<path d="M701.499 530.448C709.414 527.514 714.031 523.519 715.35 521.889" stroke="#235C48" stroke-width="3"/>
<path d="M683.03 530.449C692.264 526.927 697.651 522.134 699.19 520.177" stroke="#235C48" stroke-width="3"/>
<path d="M662.253 530.449C671.488 526.927 676.874 522.134 678.413 520.177" stroke="#235C48" stroke-width="3"/>
<path d="M641.477 530.448C650.711 527.514 656.098 523.519 657.637 521.889" stroke="#235C48" stroke-width="3"/>
<path d="M719.967 530.449C724.584 532.503 727.277 535.299 728.047 536.44" stroke="#235C48" stroke-width="3"/>
<path d="M701.499 530.449C709.414 533.383 714.031 537.378 715.35 539.008" stroke="#235C48" stroke-width="3"/>
<path d="M683.03 530.449C692.264 533.97 697.651 538.763 699.19 540.72" stroke="#235C48" stroke-width="3"/>
<path d="M662.253 530.449C671.488 533.97 676.874 538.763 678.413 540.72" stroke="#235C48" stroke-width="3"/>
<path d="M641.477 530.449C650.711 533.383 656.098 537.378 657.637 539.008" stroke="#235C48" stroke-width="3"/>
<path d="M406.723 529.518L601.667 467.521C613.679 463.701 626.345 471.175 628.807 483.538C631.243 495.763 622.626 507.43 610.225 508.699L406.723 529.518Z" stroke="#F59914" stroke-width="3"/>
<path d="M628.893 483.967L770.545 455.749" stroke="#235C48" stroke-width="3"/>
<path d="M628.272 484.091C667.04 476.368 692.645 460.287 705.201 448.742" stroke="#235C48" stroke-width="3"/>
<path d="M678.476 466.985C681.262 462.812 681.796 458.788 681.714 457.297" stroke="#235C48" stroke-width="3"/>
<path d="M687.177 462.022C689.963 457.85 690.496 453.825 690.414 452.334" stroke="#235C48" stroke-width="3"/>
<path d="M695.132 456.561C697.918 452.389 698.451 448.364 698.37 446.873" stroke="#235C48" stroke-width="3"/>
<path d="M695.753 456.438C701.221 454.703 703.332 455.574 706.065 456.321" stroke="#235C48" stroke-width="3"/>
<path d="M687.21 462.187C692.677 460.452 694.789 461.323 697.521 462.071" stroke="#235C48" stroke-width="3"/>
<path d="M679.007 466.405C684.474 464.669 686.586 465.541 689.318 466.288" stroke="#235C48" stroke-width="3"/>
<path d="M628.271 484.091C667.039 476.368 696.852 481.41 712.874 487.261" stroke="#235C48" stroke-width="3"/>
<path d="M681.199 480.653C685.371 483.439 687.406 486.952 687.902 488.361" stroke="#235C48" stroke-width="3"/>
<path d="M691.137 481.903C695.309 484.689 697.344 488.202 697.84 489.611" stroke="#235C48" stroke-width="3"/>
<path d="M700.577 483.897C704.75 486.684 706.785 490.197 707.28 491.605" stroke="#235C48" stroke-width="3"/>
<path d="M701.199 483.774C706.914 483.281 708.53 481.667 710.768 479.929" stroke="#235C48" stroke-width="3"/>
<path d="M691.104 481.737C696.819 481.245 698.436 479.631 700.673 477.893" stroke="#235C48" stroke-width="3"/>
<path d="M681.911 480.985C687.626 480.492 689.243 478.878 691.48 477.141" stroke="#235C48" stroke-width="3"/>
<path d="M758.732 458.102C762.295 455.584 764.104 452.762 764.563 451.665" stroke="#235C48" stroke-width="3"/>
<path d="M743.092 461.218C749.3 457.397 752.536 453.236 753.378 451.633" stroke="#235C48" stroke-width="3"/>
<path d="M727.453 464.333C734.679 459.794 738.432 454.826 739.405 452.909" stroke="#235C48" stroke-width="3"/>
<path d="M709.858 467.838C717.084 463.298 720.837 458.331 721.81 456.414" stroke="#235C48" stroke-width="3"/>
<path d="M692.263 471.343C699.588 467.3 703.476 463.009 704.504 461.369" stroke="#235C48" stroke-width="3"/>
<path d="M758.732 458.102C762.988 459.063 765.741 460.976 766.585 461.813" stroke="#235C48" stroke-width="3"/>
<path d="M743.092 461.217C750.29 462.367 754.874 464.971 756.266 466.129" stroke="#235C48" stroke-width="3"/>
<path d="M727.453 464.333C735.867 465.757 741.237 468.908 742.87 470.305" stroke="#235C48" stroke-width="3"/>
<path d="M709.858 467.838C718.272 469.262 723.642 472.413 725.276 473.81" stroke="#235C48" stroke-width="3"/>
<path d="M692.264 471.343C700.579 472.27 705.814 474.744 707.392 475.865" stroke="#235C48" stroke-width="3"/>
<path d="M292.926 663.534C322.244 642.206 268.382 606.897 229.111 589.261C193.918 573.456 157.636 558.864 131.616 546.647C128.988 547.041 128.015 547.724 126.898 549.235C136.05 553.825 160.179 573.856 172.446 591.312C197.731 627.292 263.609 684.863 292.926 663.534Z" stroke="#4EA241" stroke-width="3"/>
<path d="M320.864 659.88C350.182 638.552 296.32 603.244 257.049 585.608C221.856 569.803 185.574 555.21 159.554 542.993C156.926 543.387 155.954 544.071 154.837 545.581C163.988 550.171 188.117 570.202 200.385 587.659C225.669 623.639 291.547 681.209 320.864 659.88Z" stroke="#4EA241" stroke-width="3"/>
<path d="M180.337 556.859C233.08 583.13 290.807 631.03 313.077 651.696" stroke="#4EA241" stroke-width="3"/>
<path d="M629 220.988H469.042L453.221 322.06H613.18L629 220.988Z" fill="#FEF9F5" stroke="#4EA241" stroke-width="3"/>
<path d="M613.18 322.061H534.958H375H453.221" stroke="#4EA241" stroke-width="3"/>
<path d="M502.439 242.96H610.543L607.907 261.417H499.803L502.439 242.96Z" fill="#C2DFED"/>
<mask id="path-73-inside-3" fill="white">
<path d="M498.924 264.933H607.028L604.391 283.389H496.287L498.924 264.933Z"/>
</mask>
<path d="M498.924 264.933H607.028L604.391 283.389H496.287L498.924 264.933Z" stroke="#C2DFED" stroke-width="6" mask="url(#path-73-inside-3)"/>
<mask id="path-74-inside-4" fill="white">
<path d="M495.408 286.905H603.512L600.875 305.362H492.772L495.408 286.905Z"/>
</mask>
<path d="M495.408 286.905H603.512L600.875 305.362H492.772L495.408 286.905Z" stroke="#C2DFED" stroke-width="6" mask="url(#path-74-inside-4)"/>
<path d="M454.1 322.5H498.045" stroke="#4EA241" stroke-width="3"/>
<path d="M472.557 235.929H492.772" stroke="#4EA141" stroke-width="3"/>
<path d="M466.405 279.874H486.619" stroke="#4EA141" stroke-width="3"/>
<path d="M471.532 243.253H491.746" stroke="#4EA141" stroke-width="3"/>
<path d="M470.506 250.577H490.721" stroke="#4EA141" stroke-width="3"/>
<path d="M469.481 257.901H489.695" stroke="#4EA141" stroke-width="3"/>
<path d="M468.456 265.225H488.67" stroke="#4EA141" stroke-width="3"/>
<path d="M467.43 272.55H487.645" stroke="#4EA141" stroke-width="3"/>
<path d="M505.516 228.019H559.128L557.81 235.929H504.197L505.516 228.019Z" fill="#4EA141"/>
<rect x="375" y="322" width="238" height="6" fill="#4EA141"/>
<path d="M500 403C500 405.209 474.704 407 443.5 407C412.296 407 387 405.209 387 403" stroke="#C2DFED" stroke-width="3"/>
<path d="M389.379 387C389.527 386.975 389.679 386.949 389.837 386.924C392.729 386.456 396.959 386.029 402.237 385.668C412.779 384.947 427.369 384.5 443.5 384.5C459.631 384.5 474.221 384.947 484.763 385.668C490.041 386.029 494.271 386.456 497.163 386.924C497.321 386.949 497.473 386.975 497.621 387C497.473 387.025 497.321 387.051 497.163 387.076C494.271 387.544 490.041 387.971 484.763 388.332C474.221 389.053 459.631 389.5 443.5 389.5C427.369 389.5 412.779 389.053 402.237 388.332C396.959 387.971 392.729 387.544 389.837 387.076C389.679 387.051 389.527 387.025 389.379 387Z" stroke="#F5D668" stroke-width="3"/>
<path d="M500.5 387V403.5L496 404.5L491 440C491 442.209 469.734 444 443.5 444C417.266 444 396 442.209 396 440L392 404.5L387 403.5V387" stroke="#F5D668" stroke-width="3"/>
<mask id="path-88-inside-5" fill="white">
<path d="M220 124.768C220 148.355 237.593 153.41 237.593 185C244.458 140.774 224.291 132.771 237.593 102.865C250.895 72.9599 237.593 58.2178 220 38C239.848 79.6991 220 101.181 220 124.768Z"/>
</mask>
<path d="M220 124.768C220 148.355 237.593 153.41 237.593 185C244.458 140.774 224.291 132.771 237.593 102.865C250.895 72.9599 237.593 58.2178 220 38C239.848 79.6991 220 101.181 220 124.768Z" stroke="#C2DFED" stroke-width="6" mask="url(#path-88-inside-5)"/>
</svg>
