<svg width="128" height="36" viewBox="0 0 128 36" fill="none" xmlns="http://www.w3.org/2000/svg">
<path fill-rule="evenodd" clip-rule="evenodd" d="M18.9586 2L31 13.8293V26.599H29.4923V14.4643L18.9665 4.12388L8.00769 15.0508V28H6.5V14.4224L18.9586 2Z" fill="#235C48"/>
<path fill-rule="evenodd" clip-rule="evenodd" d="M12.0414 2L24.5 14.3841V27.5H22.9923V15.0088L12.0335 4.11549L1.50769 14.424V26.9497H0V13.7928L12.0414 2Z" fill="#235C48"/>
<path fill-rule="evenodd" clip-rule="evenodd" d="M12.3804 32.5H29.4832V28.0083C21.8548 28.1749 15.5291 30.8127 12.3804 32.5ZM9.70373 32.3542C11.6283 30.9945 19.8454 26.5 30.2416 26.5H31V34H9.69041L9.25 32.6747L9.70373 32.3542Z" fill="#235C48"/>
<path fill-rule="evenodd" clip-rule="evenodd" d="M30.25 30.7932C24.9911 30.7932 21.2905 32.0213 17.1409 34L16.5 32.602C20.7807 30.5608 24.704 29.25 30.25 29.25V30.7932Z" fill="#235C48"/>
<path fill-rule="evenodd" clip-rule="evenodd" d="M5.40597 30.0488C7.30048 30.5814 9.34246 31.3969 11 32.5294L10.1535 33.75C8.67455 32.7394 6.79862 31.9804 4.99911 31.4745C3.19689 30.9678 1.53252 30.7318 0.5 30.7318V29.25C1.70842 29.25 3.51417 29.5169 5.40597 30.0488Z" fill="#235C48"/>
<path fill-rule="evenodd" clip-rule="evenodd" d="M0 26.5H0.756757C3.05107 26.5 5.65404 27.176 7.9684 28.0269C10.2913 28.8809 12.391 29.9364 13.6969 30.7487L12.8923 32.0192C11.6822 31.2665 9.67701 30.255 7.442 29.4333C5.47099 28.7086 3.37309 28.151 1.51351 28.0262V32.5H14V34H0V26.5Z" fill="#235C48"/>
<path d="M19.4954 23.2787L19.4487 22.4073L19.3496 20.6778C19.2798 19.5247 19.2031 18.371 19.1196 17.2167C19.0361 16.0624 18.9438 14.9081 18.8428 13.7538L17.8461 13.7955C17.8387 14.9548 17.8424 16.1136 17.8574 17.2717C17.8723 18.4298 17.8916 19.5879 17.9153 20.7459L17.9583 22.4831L17.9696 22.8222C17.9591 22.8637 17.9535 22.9063 17.9527 22.9491C17.9209 23.7542 16.3988 23.6121 16.3371 22.9491V22.9624C16.3371 22.7729 16.3371 22.5835 16.324 22.3941L16.2567 19.5203L16.1164 13.7708H15.1179L14.9776 19.5203L14.9103 22.3941C14.9103 22.5835 14.9103 22.7729 14.8972 22.9624V22.9491C14.8355 23.6121 13.3134 23.7542 13.2816 22.9491V22.9321L13.2965 22.485L13.347 20.7478C13.3794 19.591 13.4037 18.4329 13.4199 17.2735C13.4361 16.1142 13.4455 14.9555 13.448 13.7974L12.4513 13.75C12.3428 14.9043 12.2456 16.0574 12.1596 17.2091C12.0736 18.3609 11.9913 19.514 11.9128 20.6683L11.8043 22.3979L11.7538 23.2731C11.7307 23.6924 11.8131 24.1109 11.9932 24.4892C12.3157 25.1311 12.8485 25.6394 13.5003 25.9271L13.5564 25.9517C13.5882 25.9669 13.62 25.9839 13.6537 25.9972C13.7509 26.037 13.8407 26.0711 13.9473 26.1014C14.5999 26.376 14.8729 26.7777 14.8729 27.4274V30H16.3689V27.4388C16.3689 26.7966 16.6475 26.3874 17.287 26.1127C17.3917 26.0805 17.4983 26.0445 17.603 26.001C17.9427 25.8634 18.2584 25.6715 18.538 25.4326C18.8386 25.1762 19.0826 24.8587 19.2542 24.5006C19.438 24.1214 19.5211 23.7003 19.4954 23.2787Z" fill="#235C48"/>
<path d="M47.624 26.168C50.072 26.168 52.184 25.208 53.648 23.6L51.8 22.04C50.768 23.168 49.304 23.84 47.624 23.84C44.288 23.84 41.864 21.224 41.864 17.6C41.864 13.976 44.288 11.36 47.624 11.36C49.304 11.36 50.768 12.032 51.8 13.136L53.648 11.6C52.184 9.992 50.072 9.032 47.624 9.032C42.848 9.032 39.392 12.632 39.392 17.6C39.392 22.568 42.848 26.168 47.624 26.168ZM60.8188 26.168C64.2508 26.168 66.7468 23.576 66.7468 20C66.7468 16.424 64.2508 13.832 60.8188 13.832C57.3868 13.832 54.8908 16.424 54.8908 20C54.8908 23.576 57.3868 26.168 60.8188 26.168ZM57.2188 19.976C57.2188 17.696 58.7308 16.016 60.8188 16.016C62.9068 16.016 64.4188 17.696 64.4188 19.976C64.4188 22.28 62.9068 23.984 60.8188 23.984C58.7308 23.984 57.2188 22.28 57.2188 19.976ZM72.551 14V11.144H70.223V14H68.111V16.064H70.223V22.76C70.223 24.872 71.687 26.192 74.015 26.192C74.759 26.192 75.575 26.072 76.055 25.88V23.84C75.575 24.008 74.831 24.128 74.303 24.128C73.199 24.128 72.551 23.6 72.551 22.712V16.064H76.055V14H72.551ZM81.8679 14V11.144H79.5399V14H77.4279V16.064H79.5399V22.76C79.5399 24.872 81.0039 26.192 83.3319 26.192C84.0759 26.192 84.8919 26.072 85.3719 25.88V23.84C84.8919 24.008 84.1479 24.128 83.6199 24.128C82.5159 24.128 81.8679 23.6 81.8679 22.712V16.064H85.3719V14H81.8679ZM86.5211 20C86.5211 23.576 88.8971 26.168 92.1851 26.168C93.7211 26.168 95.0651 25.592 96.0491 24.608V26H98.3771V14H96.0491V15.392C95.0651 14.408 93.7211 13.832 92.1851 13.832C88.8971 13.832 86.5211 16.424 86.5211 20ZM92.4491 16.016C94.5371 16.016 96.0491 17.696 96.0491 19.976C96.0491 22.28 94.5371 23.984 92.4491 23.984C90.3611 23.984 88.8491 22.28 88.8491 19.976C88.8491 17.696 90.3611 16.016 92.4491 16.016ZM100.9 20C100.9 23.576 103.276 26.168 106.564 26.168C108.1 26.168 109.444 25.592 110.428 24.608V25.496C110.428 27.824 108.652 29.504 106.18 29.504C105.028 29.504 103.948 29.024 103.348 28.256L101.74 29.864C102.724 31.016 104.356 31.688 106.228 31.688C110.044 31.688 112.756 29.12 112.756 25.52V14H110.428V15.392C109.444 14.408 108.1 13.832 106.564 13.832C103.276 13.832 100.9 16.424 100.9 20ZM103.228 20.024C103.228 17.72 104.74 16.016 106.828 16.016C108.916 16.016 110.428 17.72 110.428 20.024C110.428 22.304 108.916 23.984 106.828 23.984C104.74 23.984 103.228 22.304 103.228 20.024ZM115.28 19.928C115.28 23.576 117.944 26.168 121.64 26.168C123.632 26.168 125.36 25.448 126.392 24.152L124.688 22.688C124.04 23.528 122.912 24.008 121.664 24.008C119.6 24.008 117.896 22.64 117.656 20.768H126.872C126.896 20.504 126.92 20.24 126.92 20.192C126.92 16.424 124.448 13.832 121.088 13.832C117.728 13.832 115.28 16.424 115.28 19.928ZM121.088 15.992C122.84 15.992 124.112 17.096 124.472 18.8H117.704C118.088 17.096 119.36 15.992 121.088 15.992Z" fill="#235C48"/>
</svg>
