<svg width="40" height="34" viewBox="0 0 40 34" fill="none" xmlns="http://www.w3.org/2000/svg">
<path d="M38 3.90906V13.7272H28.1818" stroke="#2A7AC3" stroke-width="3" stroke-linecap="round" stroke-linejoin="round"/>
<path d="M2 30.0909V20.2727H11.8182" stroke="#2A7AC3" stroke-width="3" stroke-linecap="round" stroke-linejoin="round"/>
<path d="M6.10727 12.0909C6.93718 9.74566 8.34767 7.64885 10.2071 5.99615C12.0666 4.34345 14.3144 3.18872 16.7408 2.63971C19.1673 2.0907 21.6932 2.1653 24.083 2.85655C26.4728 3.54781 28.6486 4.83318 30.4073 6.59274L38 13.7273M2 20.2727L9.59273 27.4073C11.3514 29.1668 13.5272 30.4522 15.917 31.1435C18.3068 31.8347 20.8327 31.9093 23.2592 31.3603C25.6856 30.8113 27.9334 29.6566 29.7929 28.0039C31.6523 26.3512 33.0628 24.2544 33.8927 21.9091" stroke="#2A7AC3" stroke-width="3" stroke-linecap="round" stroke-linejoin="round"/>
</svg>
