<svg width="56" height="60" viewBox="0 0 56 60" fill="none" xmlns="http://www.w3.org/2000/svg">
<path d="M19.4406 36.206H4.53594C3.96094 36.2133 3.40653 35.9922 2.99439 35.5912C2.58225 35.1902 2.34606 34.642 2.33765 34.067V4.13693C2.34605 3.56215 2.58232 3.01422 2.99453 2.61356C3.40674 2.2129 3.96115 1.99229 4.53594 2.00021H46.3172C46.892 1.99229 47.4464 2.2129 47.8586 2.61356C48.2708 3.01422 48.5071 3.56215 48.5155 4.13693V16.9042" stroke="#4EA241" stroke-width="3" stroke-linecap="round" stroke-linejoin="round"/>
<path d="M35.6883 44.3179C35.8574 44.3179 36.0228 44.368 36.1634 44.462C36.304 44.556 36.4136 44.6895 36.4784 44.8458C36.5431 45.002 36.56 45.174 36.527 45.3398C36.494 45.5057 36.4126 45.6581 36.293 45.7777C36.1734 45.8973 36.021 45.9787 35.8551 46.0117C35.6893 46.0447 35.5173 46.0278 35.3611 45.9631C35.2048 45.8983 35.0712 45.7887 34.9773 45.6481C34.8833 45.5075 34.8332 45.3421 34.8332 45.173C34.8332 44.9462 34.9233 44.7287 35.0836 44.5683C35.244 44.408 35.4615 44.3179 35.6883 44.3179" stroke="#4EA241" stroke-width="3" stroke-linecap="round" stroke-linejoin="round"/>
<path d="M44.2398 44.3179C44.4089 44.3179 44.5742 44.368 44.7149 44.462C44.8555 44.556 44.9651 44.6895 45.0298 44.8458C45.0945 45.002 45.1115 45.174 45.0785 45.3398C45.0455 45.5057 44.964 45.6581 44.8444 45.7777C44.7248 45.8973 44.5725 45.9787 44.4066 46.0117C44.2407 46.0447 44.0688 46.0278 43.9125 45.9631C43.7563 45.8983 43.6227 45.7887 43.5287 45.6481C43.4348 45.5075 43.3846 45.3421 43.3846 45.173C43.3846 44.9462 43.4747 44.7287 43.6351 44.5683C43.7955 44.408 44.013 44.3179 44.2398 44.3179Z" fill="#FCF9E9" stroke="#4EA241" stroke-width="3" stroke-linecap="round" stroke-linejoin="round"/>
<path d="M35.6883 51.1587C35.8574 51.1587 36.0228 51.2088 36.1634 51.3028C36.304 51.3968 36.4136 51.5303 36.4784 51.6866C36.5431 51.8428 36.56 52.0148 36.527 52.1807C36.494 52.3465 36.4126 52.4989 36.293 52.6185C36.1734 52.7381 36.021 52.8196 35.8551 52.8525C35.6893 52.8855 35.5173 52.8686 35.3611 52.8039C35.2048 52.7392 35.0712 52.6296 34.9773 52.4889C34.8833 52.3483 34.8332 52.183 34.8332 52.0138C34.8332 51.787 34.9233 51.5695 35.0836 51.4092C35.244 51.2488 35.4615 51.1587 35.6883 51.1587" stroke="#4EA241" stroke-width="3" stroke-linecap="round" stroke-linejoin="round"/>
<path d="M44.2398 51.1587C44.4089 51.1587 44.5742 51.2088 44.7149 51.3028C44.8555 51.3968 44.9651 51.5303 45.0298 51.6866C45.0945 51.8428 45.1115 52.0148 45.0785 52.1807C45.0455 52.3465 44.964 52.4989 44.8444 52.6185C44.7248 52.7381 44.5725 52.8196 44.4066 52.8525C44.2407 52.8855 44.0688 52.8686 43.9125 52.8039C43.7563 52.7392 43.6227 52.6296 43.5287 52.4889C43.4348 52.3483 43.3846 52.183 43.3846 52.0138C43.3846 51.787 43.4747 51.5695 43.6351 51.4092C43.7955 51.2488 44.013 51.1587 44.2398 51.1587Z" fill="#FCF9E9" stroke="#4EA241" stroke-width="3" stroke-linecap="round" stroke-linejoin="round"/>
<path d="M46.8052 36.3362C46.8052 37.1412 46.3172 37.4764 45.8269 37.4764H34.1012C33.6109 37.4764 33.1252 37.1024 33.1252 36.2952V31.7754C33.1252 30.9682 33.6132 30.6353 34.1035 30.6353H45.8292C46.3195 30.6353 46.8075 30.9682 46.8075 31.7754L46.8052 36.3362Z" stroke="#4EA241" stroke-width="3" stroke-linecap="round" stroke-linejoin="round"/>
<path d="M26.2817 23.7944H53.6464V58.0002H26.2817V23.7944Z" stroke="#4EA241" stroke-width="3" stroke-linecap="round" stroke-linejoin="round"/>
<path d="M9.17881 19.8848L14.3097 14.7539L21.1508 18.1745L29.7023 9.62305" stroke="#4EA241" stroke-width="3" stroke-linecap="round" stroke-linejoin="round"/>
<path d="M23.6918 8.89014H30.7285V15.9268" stroke="#4EA241" stroke-width="3" stroke-linecap="round" stroke-linejoin="round"/>
</svg>
