<svg width="48" height="60" viewBox="0 0 48 60" fill="none" xmlns="http://www.w3.org/2000/svg">
<path d="M9.05865 50.5332V52.3999" stroke="#BFD8ED" stroke-width="3" stroke-linecap="round" stroke-linejoin="round"/>
<path d="M16.5254 52.3998V46.7998" stroke="#BFD8ED" stroke-width="3" stroke-linecap="round" stroke-linejoin="round"/>
<path d="M23.992 50.5332V52.3999" stroke="#BFD8ED" stroke-width="3" stroke-linecap="round" stroke-linejoin="round"/>
<path d="M38.9254 50.5332V52.3999" stroke="#BFD8ED" stroke-width="3" stroke-linecap="round" stroke-linejoin="round"/>
<path d="M31.4587 52.3998V46.7998" stroke="#BFD8ED" stroke-width="3" stroke-linecap="round" stroke-linejoin="round"/>
<path d="M5.32532 58H42.6586" stroke="#BFD8ED" stroke-width="3" stroke-linecap="round" stroke-linejoin="round"/>
<path d="M35.192 39.3335H12.792C11.8018 39.3335 10.8523 38.9401 10.1521 38.24C9.45199 37.5399 9.05865 36.5903 9.05865 35.6001V9.4668H38.9253V35.6001C38.9253 36.5903 38.532 37.5399 37.8319 38.24C37.1317 38.9401 36.1821 39.3335 35.192 39.3335Z" stroke="#BFD8ED" stroke-width="3" stroke-linecap="round" stroke-linejoin="round"/>
<path d="M5.32532 9.4668H42.6586" stroke="#BFD8ED" stroke-width="3" stroke-linecap="round" stroke-linejoin="round"/>
<path d="M1.59201 16.9331H9.05868" stroke="#BFD8ED" stroke-width="3" stroke-linecap="round" stroke-linejoin="round"/>
<path d="M1.59201 28.1333H9.05868" stroke="#BFD8ED" stroke-width="3" stroke-linecap="round" stroke-linejoin="round"/>
<path d="M46.392 16.9331H38.9254" stroke="#BFD8ED" stroke-width="3" stroke-linecap="round" stroke-linejoin="round"/>
<path d="M46.392 28.1333H38.9254" stroke="#BFD8ED" stroke-width="3" stroke-linecap="round" stroke-linejoin="round"/>
<path d="M9.05865 20.6665H38.9253" stroke="#BFD8ED" stroke-width="3" stroke-linecap="round" stroke-linejoin="round"/>
<path d="M16.5254 9.46667C16.5254 7.48638 17.312 5.58721 18.7123 4.18694C20.1126 2.78666 22.0117 2 23.992 2C25.9723 2 27.8715 2.78666 29.2718 4.18694C30.672 5.58721 31.4587 7.48638 31.4587 9.46667" stroke="#BFD8ED" stroke-width="3" stroke-linecap="round" stroke-linejoin="round"/>
</svg>
