<svg width="80" height="81" viewBox="0 0 80 81" fill="none" xmlns="http://www.w3.org/2000/svg">
<path fill-rule="evenodd" clip-rule="evenodd" d="M30.8688 0L39.7489 8.68824L48.6017 0L79.4704 29.8482L79.4705 61.8195L79.4704 62.0695L79.4705 80.7439H43.9426L43.9417 80.7442L43.9416 80.7439H35.8898H24.842H0V62.9544V61.8195V29.7563L30.8688 0ZM42.8506 76.959H35.8898H31.738C39.8097 72.7014 56.0262 66.0457 75.5822 65.6253V68.7803C62.6209 69.0667 53.1002 72.1937 42.8506 76.959ZM12.8157 74.3717C15.2762 75.0527 17.7926 75.9153 20.1805 76.959H3.87998V72.6419C6.36399 72.888 9.49875 73.4538 12.8157 74.3717ZM13.8587 70.7743C10.2248 69.7687 6.71477 69.1385 3.87998 68.8857V65.6706C8.64712 65.9854 14.0252 67.3924 19.078 69.2209C23.0091 70.6434 26.663 72.2915 29.5714 73.7993C28.1999 74.5309 27.0525 75.1967 26.1503 75.758C22.331 73.5531 17.96 71.9094 13.8587 70.7743ZM38.1277 69.8011C36.5474 70.4495 35.0788 71.097 33.7315 71.7259C30.3789 69.8175 25.6208 67.5516 20.4275 65.6723L20.2397 65.6046H20.5283V32.9305L39.7597 14.0565L58.9422 32.8244V63.6083C52.6013 64.817 46.8701 66.5155 41.9627 68.313V64.1887C41.9627 62.5683 42.677 61.5358 44.3164 60.8427C44.5849 60.7614 44.8581 60.6706 45.1266 60.5607C45.9973 60.2135 46.8065 59.7294 47.5235 59.1267C48.2939 58.4796 48.9194 57.6784 49.3595 56.7749C49.8306 55.8182 50.0437 54.7556 49.9779 53.6918L49.858 51.493L49.604 47.1289C49.425 44.2194 49.2284 41.3084 49.0143 38.3958C48.8002 35.4832 48.5637 32.5706 48.3048 29.658L45.7498 29.7631C45.7306 32.6885 45.7402 35.6123 45.7785 38.5344C45.8169 41.4566 45.8664 44.3788 45.9271 47.3009L46.0374 51.6842L46.0662 52.5398C46.0395 52.6446 46.025 52.752 46.023 52.8601C45.9415 54.8916 42.0394 54.5331 41.8812 52.8601V52.8935C41.8812 52.4156 41.8812 51.9375 41.8476 51.4595L41.6751 44.2083L41.3155 29.701H38.7557L38.3961 44.2083L38.2236 51.4595V51.4597C38.2236 51.9377 38.2236 52.4156 38.19 52.8935V52.8601C38.0318 54.5331 34.1297 54.8916 34.0482 52.8601V52.8171L34.0866 51.689L34.216 47.3057C34.2991 44.3867 34.3614 41.4646 34.4029 38.5392C34.4445 35.6139 34.4685 32.6901 34.4749 29.7679L31.9198 29.6484C31.6417 32.561 31.3925 35.4705 31.172 38.3767C30.9514 41.2829 30.7405 44.1924 30.5392 47.105L30.2611 51.4691L30.1317 53.6775C30.0725 54.7357 30.2836 55.7916 30.7453 56.7462C31.5722 58.3658 32.9381 59.6484 34.6091 60.3742L34.7529 60.4364C34.7763 60.4474 34.7997 60.4587 34.8231 60.4701C34.8815 60.4985 34.9406 60.5272 35.0022 60.5511C35.2514 60.6515 35.4815 60.7375 35.7548 60.814C37.4278 61.5071 38.1277 62.5205 38.1277 64.16V69.8011ZM16.6632 31.3448V64.4075C12.4316 63.0981 8.00116 62.1189 3.86506 61.8772V31.349L30.8486 5.33791L37.0151 11.3712L16.6632 31.3448ZM75.5822 76.959H52.8916C59.8095 74.4226 66.8682 72.8765 75.5822 72.6753V76.959ZM62.8072 62.9466C66.8733 62.3295 71.1563 61.9296 75.6054 61.8391V31.4505L48.6219 5.35909L42.4935 11.3735L62.8072 31.2483V62.9466Z" fill="#BFD8ED"/>
</svg>
