<?xml version="1.0" standalone="no"?>
<!DOCTYPE svg PUBLIC "-//W3C//DTD SVG 20010904//EN"
 "http://www.w3.org/TR/2001/REC-SVG-20010904/DTD/svg10.dtd">
<svg version="1.0" xmlns="http://www.w3.org/2000/svg"
 width="640.000000pt" height="640.000000pt" viewBox="0 0 640.000000 640.000000"
 preserveAspectRatio="xMidYMid meet">
<metadata>
Created by potrace 1.11, written by Peter Selinger 2001-2013
</metadata>
<g transform="translate(0.000000,640.000000) scale(0.100000,-0.100000)"
fill="#000000" stroke="none">
<path d="M3103 6198 c-48 -40 -93 -77 -99 -83 -16 -15 -46 -39 -174 -144 -63
-52 -117 -97 -120 -100 -3 -3 -26 -23 -52 -44 -26 -21 -53 -43 -60 -50 -7 -7
-33 -28 -58 -48 -25 -20 -56 -46 -70 -58 -14 -11 -29 -24 -35 -29 -13 -10
-182 -151 -215 -178 -14 -12 -83 -70 -155 -130 -71 -59 -135 -112 -141 -118
-6 -6 -23 -20 -38 -31 -16 -11 -34 -26 -42 -33 -7 -7 -42 -36 -76 -65 -35 -29
-72 -60 -83 -69 -11 -9 -40 -33 -65 -54 -77 -62 -132 -109 -144 -119 -6 -6
-36 -30 -66 -55 -30 -24 -66 -54 -80 -66 -14 -12 -68 -57 -120 -100 -52 -43
-97 -81 -100 -84 -3 -3 -27 -23 -55 -45 -27 -22 -59 -48 -70 -58 -11 -11 -36
-31 -55 -46 -31 -23 -73 -58 -104 -86 -10 -9 -81 -67 -145 -120 -14 -11 -35
-30 -48 -42 -13 -13 -28 -23 -33 -23 -4 0 -10 -4 -12 -9 -1 -5 -27 -27 -55
-50 l-53 -41 0 -1980 c0 -1879 1 -1980 18 -1980 48 -1 5314 -1 5355 0 l47 0 0
1979 0 1978 -87 72 c-49 40 -97 80 -108 89 -11 9 -157 131 -325 270 -168 140
-316 264 -330 275 -14 12 -50 42 -80 67 -30 25 -57 47 -60 50 -3 3 -30 25 -60
50 -30 25 -66 55 -80 66 -32 27 -449 374 -474 394 -10 8 -23 20 -30 25 -6 6
-33 28 -61 50 -27 22 -54 45 -60 51 -5 6 -46 39 -90 75 -44 35 -82 66 -85 69
-5 6 -173 146 -203 170 -11 8 -24 20 -31 25 -6 6 -51 44 -101 85 -49 41 -92
77 -95 80 -5 5 -94 78 -130 107 -8 6 -61 50 -117 97 l-102 86 -88 -72z m166
-1450 c42 -35 92 -77 111 -95 19 -18 38 -33 41 -33 3 0 21 -14 40 -31 19 -17
50 -43 69 -58 19 -14 41 -33 50 -41 19 -18 41 -36 360 -301 135 -111 250 -208
257 -213 6 -6 24 -21 40 -33 28 -21 58 -47 113 -96 14 -12 59 -49 100 -82 41
-33 89 -71 105 -86 17 -15 64 -54 105 -88 41 -35 85 -71 98 -82 20 -17 29 -47
22 -74 -1 -5 -2 -14 -2 -20 0 -26 1 -382 0 -395 0 -8 0 -62 1 -120 0 -58 0
-112 0 -120 -1 -8 -1 -98 0 -200 0 -102 0 -192 -1 -200 0 -8 0 -62 1 -120 0
-58 0 -112 0 -120 -1 -8 -1 -98 0 -200 0 -102 0 -192 -1 -200 0 -8 0 -62 1
-120 1 -58 1 -180 1 -272 l-1 -168 -37 0 c-77 0 -1010 -1 -1079 0 l-72 0 4
544 c1 299 6 549 9 555 4 6 4 11 -1 11 -7 0 -8 89 0 253 1 38 -1 71 -5 73 -5
3 -6 10 -2 15 8 13 11 158 4 170 -3 5 -183 10 -400 11 l-395 3 -1 -177 c-1
-97 -4 -184 -7 -192 -4 -9 -2 -18 4 -21 5 -4 7 -11 3 -16 -3 -5 -7 -282 -9
-615 -2 -333 -5 -608 -8 -610 -6 -6 -1178 -6 -1185 0 -5 5 -5 32 1 86 2 14 0
40 -4 58 -4 17 -3 32 1 32 4 0 4 18 0 40 -4 22 -4 40 0 40 4 0 4 15 0 34 -4
19 -4 39 0 46 4 7 4 27 0 46 -4 19 -5 34 -1 34 5 0 5 19 2 43 -3 23 -4 62 -1
87 3 25 3 56 -1 70 -3 14 -3 34 1 45 4 11 4 32 -1 47 -4 15 -4 30 1 33 4 3 4
21 0 40 -4 19 -4 35 0 35 4 0 4 18 0 40 -4 22 -4 40 0 40 4 0 4 15 0 34 -4 19
-4 39 0 46 4 7 4 27 0 46 -4 19 -5 34 -1 34 5 0 5 19 2 42 -3 24 -4 63 -1 88
3 25 3 56 -1 70 -3 14 -3 34 1 45 4 11 4 32 -1 48 -4 15 -4 27 1 27 4 0 4 15
0 34 -4 19 -4 40 0 46 4 7 4 26 0 41 -5 16 -5 31 -1 34 5 2 5 23 1 45 -4 22
-4 40 0 40 4 0 4 18 0 40 -4 22 -4 40 0 40 4 0 4 15 0 34 -4 19 -4 39 0 46 4
7 4 27 0 46 -4 19 -4 34 0 34 4 0 4 18 0 40 -4 22 -4 40 0 40 4 0 5 15 1 33
-7 35 -6 96 3 104 2 3 1 15 -3 27 -5 11 -5 30 -1 40 3 11 3 37 0 58 -4 21 -4
38 -1 38 4 0 5 15 3 33 -4 34 9 52 67 97 18 14 38 30 44 35 21 18 131 109 152
126 11 9 52 43 90 75 39 33 90 76 115 96 25 20 59 49 75 63 17 15 51 43 78 63
26 20 47 40 47 44 0 4 4 8 10 8 5 0 19 10 32 23 13 12 40 36 62 52 21 17 48
39 60 50 12 11 42 36 66 55 24 19 53 43 64 52 81 69 136 114 230 192 39 32 82
68 96 79 14 12 78 66 143 119 65 54 125 105 133 113 9 8 18 15 21 15 4 0 40
-28 82 -62z"/>
</g>
</svg>
