<svg width="31" height="32" viewBox="0 0 31 32" fill="none" xmlns="http://www.w3.org/2000/svg">
<path fill-rule="evenodd" clip-rule="evenodd" d="M18.9586 0L31 11.8293V24.599H29.4923V12.4643L18.9665 2.12388L8.00769 13.0508V26H6.5V12.4224L18.9586 0Z" fill="#235C48"/>
<path fill-rule="evenodd" clip-rule="evenodd" d="M12.0414 0L24.5 12.3841V25.5H22.9923V13.0088L12.0335 2.11549L1.50769 12.424V24.9497H0V11.7928L12.0414 0Z" fill="#235C48"/>
<path fill-rule="evenodd" clip-rule="evenodd" d="M12.3804 30.5H29.4832V26.0083C21.8548 26.1749 15.5291 28.8127 12.3804 30.5ZM9.70373 30.3542C11.6283 28.9945 19.8454 24.5 30.2416 24.5H31V32H9.69041L9.25 30.6747L9.70373 30.3542Z" fill="#235C48"/>
<path fill-rule="evenodd" clip-rule="evenodd" d="M30.25 28.7932C24.9911 28.7932 21.2905 30.0213 17.1409 32L16.5 30.602C20.7807 28.5608 24.704 27.25 30.25 27.25V28.7932Z" fill="#235C48"/>
<path fill-rule="evenodd" clip-rule="evenodd" d="M5.40597 28.0488C7.30048 28.5814 9.34246 29.3969 11 30.5294L10.1535 31.75C8.67455 30.7394 6.79862 29.9804 4.99911 29.4745C3.19689 28.9678 1.53252 28.7318 0.5 28.7318V27.25C1.70842 27.25 3.51417 27.5169 5.40597 28.0488Z" fill="#235C48"/>
<path fill-rule="evenodd" clip-rule="evenodd" d="M0 24.5H0.756757C3.05107 24.5 5.65404 25.176 7.9684 26.0269C10.2913 26.8809 12.391 27.9364 13.6969 28.7487L12.8923 30.0192C11.6822 29.2665 9.67701 28.255 7.442 27.4333C5.47099 26.7086 3.37309 26.151 1.51351 26.0262V30.5H14V32H0V24.5Z" fill="#235C48"/>
<path d="M19.4954 21.2787L19.4487 20.4073L19.3496 18.6778C19.2798 17.5247 19.2031 16.371 19.1196 15.2167C19.0361 14.0624 18.9438 12.9081 18.8428 11.7538L17.8461 11.7955C17.8387 12.9548 17.8424 14.1136 17.8574 15.2717C17.8723 16.4298 17.8916 17.5879 17.9153 18.7459L17.9583 20.4831L17.9696 20.8222C17.9591 20.8637 17.9535 20.9063 17.9527 20.9491C17.9209 21.7542 16.3988 21.6121 16.3371 20.9491V20.9624C16.3371 20.7729 16.3371 20.5835 16.324 20.3941L16.2567 17.5203L16.1164 11.7708H15.1179L14.9776 17.5203L14.9103 20.3941C14.9103 20.5835 14.9103 20.7729 14.8972 20.9624V20.9491C14.8355 21.6121 13.3134 21.7542 13.2816 20.9491V20.9321L13.2965 20.485L13.347 18.7478C13.3794 17.591 13.4037 16.4329 13.4199 15.2735C13.4361 14.1142 13.4455 12.9555 13.448 11.7974L12.4513 11.75C12.3428 12.9043 12.2456 14.0574 12.1596 15.2091C12.0736 16.3609 11.9913 17.514 11.9128 18.6683L11.8043 20.3979L11.7538 21.2731C11.7307 21.6924 11.8131 22.1109 11.9932 22.4892C12.3157 23.1311 12.8485 23.6394 13.5003 23.9271L13.5564 23.9517C13.5882 23.9669 13.62 23.9839 13.6537 23.9972C13.7509 24.037 13.8407 24.0711 13.9473 24.1014C14.5999 24.376 14.8729 24.7777 14.8729 25.4274V28H16.3689V25.4388C16.3689 24.7966 16.6475 24.3874 17.287 24.1127C17.3917 24.0805 17.4983 24.0445 17.603 24.001C17.9427 23.8634 18.2584 23.6715 18.538 23.4326C18.8386 23.1762 19.0826 22.8587 19.2542 22.5006C19.438 22.1214 19.5211 21.7003 19.4954 21.2787Z" fill="#235C48"/>
</svg>
