<?xml version="1.0" standalone="no"?>
<!DOCTYPE svg PUBLIC "-//W3C//DTD SVG 1.1//EN" "http://www.w3.org/Graphics/SVG/1.1/DTD/svg11.dtd" >
<svg xmlns="http://www.w3.org/2000/svg" xmlns:xlink="http://www.w3.org/1999/xlink" version="1.1">
<metadata></metadata>
<defs>
<font id="daikonitalic" horiz-adv-x="1228" >
<font-face units-per-em="2048" ascent="1741" descent="-307" />
<missing-glyph horiz-adv-x="579" />
<glyph unicode="&#xfb01;" horiz-adv-x="1275" d="M78 -307l209 1188h-193l27 143h190l25 133q28 163 163.5 257.5t340.5 94.5l-27 -153q-131 0 -215.5 -54t-101.5 -149l-23 -129h281l-25 -143h-283l-208 -1188h-160zM813 0l180 1024h162l-180 -1024h-162zM1012 1358q9 55 49 89t94 34q55 0 82 -33.5t18 -89.5 q-9 -54 -48.5 -87.5t-94.5 -33.5q-54 0 -81.5 33.5t-18.5 87.5z" />
<glyph unicode="&#xfb02;" horiz-adv-x="1275" d="M78 -307l209 1188h-193l27 143h190l25 133q28 163 163.5 257.5t340.5 94.5l-27 -153q-131 0 -215.5 -54t-101.5 -149l-23 -129h281l-25 -143h-283l-208 -1188h-160zM813 0l264 1495h162l-264 -1495h-162z" />
<glyph unicode="ft" horiz-adv-x="1499" d="M78 -307l207 1188h-191l25 143h192l23 133q29 163 165 257.5t341 94.5l-27 -153q-131 0 -215.5 -54t-101.5 -149l-23 -129h500l43 250h162l-43 -250h307l-25 -143h-309l-109 -613q-10 -64 27.5 -99.5t114.5 -35.5q82 0 149 23l-24 -144q-74 -24 -168 -24 q-143 0 -213 74.5t-45 203.5l106 615h-500l-208 -1188h-160z" />
<glyph horiz-adv-x="0" />
<glyph horiz-adv-x="0" />
<glyph unicode="&#xd;" horiz-adv-x="512" />
<glyph unicode=" "  horiz-adv-x="579" />
<glyph unicode="&#x09;" horiz-adv-x="579" />
<glyph unicode="&#xa0;" horiz-adv-x="579" />
<glyph unicode="!" horiz-adv-x="507" d="M27 109q7 54 47 87t94 33q55 0 82.5 -32.5t19.5 -87.5q-11 -56 -50.5 -89.5t-94.5 -33.5q-54 0 -80.5 33.5t-17.5 89.5zM141 434l152 1000h178l-203 -1000h-127z" />
<glyph unicode="&#x22;" horiz-adv-x="753" d="M188 922l72 512h162l-107 -512h-127zM514 922l72 512h164l-109 -512h-127z" />
<glyph unicode="#" horiz-adv-x="1488" d="M68 375l24 145h291l70 393h-289l24 146h291l66 375h145l-67 -375h364l68 375h143l-68 -375h291l-24 -146h-291l-70 -393h289l-25 -145h-290l-66 -375h-143l65 375h-364l-66 -375h-145l67 375h-290zM526 520h367l70 393h-365z" />
<glyph unicode="$" horiz-adv-x="1208" d="M16 166l140 119q116 -138 346 -138q152 0 252.5 62.5t119.5 167.5q10 56 -10 99t-60.5 72t-96 52.5t-118 44.5t-124.5 44t-116 55.5t-92.5 74.5t-55 105t-2.5 143q29 161 153 261.5t312 115.5l43 250h127l-43 -248q122 -11 214 -57t138 -121l-137 -119q-34 63 -117 100 t-195 37q-137 0 -224.5 -55.5t-104.5 -153.5q-10 -54 10 -96t60.5 -70t96 -51.5t118 -44.5t124 -44.5t115.5 -56.5t92.5 -75.5t54.5 -106.5t2 -145q-31 -168 -163 -273t-332 -124l-43 -250h-129l45 248q-131 7 -234 53.5t-166 124.5z" />
<glyph unicode="%" horiz-adv-x="1777" d="M199 1106q26 150 137.5 247t257.5 97t224 -97.5t52 -246.5q-25 -147 -137.5 -243.5t-259.5 -96.5q-146 0 -223 96t-51 244zM225 68l1213 1382l104 -84l-1212 -1382zM342 1104q-15 -88 29 -144.5t129 -56.5q83 0 146.5 56.5t80.5 144.5q17 92 -26.5 151.5t-127.5 59.5 q-85 0 -149.5 -59t-81.5 -152zM907 328q25 149 137.5 246.5t258.5 97.5t224 -97.5t52 -246.5q-26 -148 -138.5 -244t-258.5 -96t-223.5 96t-51.5 244zM1051 326q-17 -88 27.5 -145.5t127.5 -57.5t148 57.5t82 145.5q15 92 -29 151.5t-127 59.5q-84 0 -149 -59.5t-80 -151.5z " />
<glyph unicode="&#x26;" horiz-adv-x="1347" d="M68 385q13 75 46.5 139.5t84 116t102.5 90.5t119 78q-103 181 -74 330q23 135 134.5 222t260.5 87t231.5 -86t59.5 -217q-10 -52 -36.5 -99t-59 -81.5t-84.5 -72t-93 -62t-104 -58.5q7 -11 29 -37l254 -317q60 112 84 256h166q-41 -231 -146 -387l164 -205l-135 -109 l-143 179q-186 -166 -453 -166q-219 0 -329 107t-78 292zM238 389q-20 -112 52.5 -177t213.5 -65q197 0 325 125l-297 371q-5 7 -16 21.5t-16 21.5q-113 -68 -179.5 -137t-82.5 -160zM512 1122q-18 -98 61 -229q55 29 85.5 45.5t72.5 43.5t64.5 48.5t42 50t24.5 58.5 q11 63 -30.5 105t-116.5 42t-132.5 -46t-70.5 -118z" />
<glyph unicode="'" horiz-adv-x="428" d="M188 922l72 512h162l-107 -512h-127z" />
<glyph unicode="(" horiz-adv-x="700" d="M98.5 456q3.5 103 22.5 210t51.5 209.5t72 185.5t84.5 159t91 135t90.5 109.5t82.5 85.5t67.5 60t45.5 37l17 12l82 -78l-5 -4q-179 -147 -312 -381q-138 -243 -189 -530q-18 -101 -23 -197t1.5 -173t20.5 -147.5t33 -124.5t39.5 -99.5t40.5 -77.5t36.5 -54t26.5 -33 l9 -10l-110 -78q-5 4 -13 12t-32 36.5t-47 61t-52 85.5t-52 110t-43 134.5t-29.5 159.5t-6 185z" />
<glyph unicode=")" horiz-adv-x="700" d="M-123 -250l13 10q13 11 37.5 33t55.5 54t68 77.5t75 99.5t76.5 124.5t72 147.5t62 173t46.5 197q23 129 25 249t-12.5 209t-38 166.5t-50.5 129.5t-52 89.5t-39 54.5l-15 17l108 78q5 -4 13 -12t32 -36.5t47 -60.5t52 -85t52.5 -110t43.5 -134.5t29.5 -159.5t6.5 -185 t-22 -210q-24 -136 -70.5 -264.5t-101.5 -225t-115.5 -181.5t-116.5 -142.5t-101 -99.5t-72 -61l-27 -20z" />
<glyph unicode="*" horiz-adv-x="1015" d="M184 1147l80 156l262 -113l35 305h164l-72 -307l303 112l25 -155l-311 -78l155 -236l-151 -96l-119 260l-211 -258l-115 97l238 237z" />
<glyph unicode="+" d="M164 543v143h379v379h143v-379h379v-143h-379v-379h-143v379h-379z" />
<glyph unicode="," horiz-adv-x="507" d="M-94 -276l231 522l150 -43l-267 -514z" />
<glyph unicode="-" horiz-adv-x="819" d="M133 502l25 143h479l-25 -143h-479z" />
<glyph unicode="." horiz-adv-x="507" d="M25 109q11 54 50 87t93 33q55 0 82 -33t18 -87q-9 -55 -48 -89t-95 -34q-54 0 -81.5 34t-18.5 89z" />
<glyph unicode="/" horiz-adv-x="831" d="M-172 -258l1030 1896l127 -49l-1030 -1896z" />
<glyph unicode="0" horiz-adv-x="1353" d="M129 717q27 157 92.5 293t155 232t201.5 151t229 55q156 0 264 -93.5t149 -261t5 -376.5t-136.5 -376.5t-242 -261t-297.5 -93.5q-157 0 -265.5 93.5t-150 261t-4.5 376.5zM297 422.5q24 -126.5 98.5 -201t182.5 -74.5q163 0 298.5 161.5t178.5 408.5q26 168 2 294.5 t-98 200.5t-181 74q-165 0 -300.5 -161t-178.5 -408q-26 -168 -2 -294.5z" />
<glyph unicode="1" horiz-adv-x="960" d="M180 1116l475 318h168l-254 -1434h-168l217 1235l-362 -248z" />
<glyph unicode="2" horiz-adv-x="1144" d="M-23 0l29 162q36 55 103 117t144.5 118.5t164.5 117t168.5 123t150.5 126t116.5 135.5t59.5 143q20 114 -50 179t-204 65q-220 0 -380 -178l-97 119q97 106 227 163.5t277 57.5q209 0 315 -108t72 -293q-17 -98 -71.5 -190.5t-126 -164t-165.5 -146.5t-178.5 -132 t-178 -126.5t-152.5 -125.5h733l-29 -162h-928z" />
<glyph unicode="3" horiz-adv-x="1163" d="M-2 207l139 119q41 -85 117.5 -132t183.5 -47q142 0 247.5 75.5t125.5 189.5t-55.5 187t-210.5 73h-90l26 153h99q117 0 204.5 65.5t106.5 166.5q19 104 -50.5 166.5t-199.5 62.5q-208 0 -354 -186l-99 117q193 231 486 231q204 0 312 -103t79 -270 q-20 -106 -87.5 -190.5t-168.5 -134.5q99 -50 144.5 -142.5t25.5 -208.5q-32 -180 -193 -296.5t-376 -116.5q-144 0 -249.5 57t-162.5 164z" />
<glyph unicode="4" horiz-adv-x="1335" d="M41 338l27 151l911 945h170l-168 -945h207l-27 -151h-207l-59 -338h-170l59 338h-743zM254 489h557l125 713z" />
<glyph unicode="5" horiz-adv-x="1105" d="M-4 209l139 119q38 -85 111 -133t174 -48q142 0 248 83.5t129 211.5q23 127 -53 210t-216 83h-342l123 699h717l-29 -170h-565l-65 -375h192q211 0 326.5 -126.5t81.5 -322.5q-36 -195 -198.5 -324.5t-379.5 -129.5q-137 0 -239 58t-154 165z" />
<glyph unicode="6" horiz-adv-x="1204" d="M84 457q25 144 147 297l545 680h203l-428 -525q70 17 125 17q194 0 296.5 -132.5t67.5 -332.5q-37 -206 -196 -340.5t-365 -134.5q-207 0 -319.5 133.5t-75.5 337.5zM254 457q-23 -133 49.5 -221.5t204.5 -88.5t235.5 88.5t126.5 221.5t-49.5 220t-204.5 87 q-133 0 -236 -87t-126 -220z" />
<glyph unicode="7" horiz-adv-x="1110" d="M168 0l764 1280h-739l26 154h916l-27 -154l-764 -1280h-176z" />
<glyph unicode="8" horiz-adv-x="1245" d="M82 397q20 117 97.5 209.5t195.5 145.5q-85 52 -122.5 136t-19.5 187q28 161 175.5 267t345.5 106q195 0 303.5 -107t79.5 -270q-19 -103 -86 -187t-168 -134q98 -52 143.5 -145t24.5 -208q-31 -179 -188 -295t-369 -116t-328 116t-84 295zM254 406q-20 -112 55.5 -185.5 t212.5 -73.5t239.5 73.5t121.5 185.5q20 112 -57 185t-214 73q-136 0 -237 -72.5t-121 -185.5zM401 1061q-17 -98 52 -162.5t192 -64.5q120 0 212.5 64.5t109.5 162.5q15 97 -53.5 161t-188.5 64q-123 0 -215 -64t-109 -161z" />
<glyph unicode="9" horiz-adv-x="1183" d="M156 973q35 206 194 340.5t367 134.5q206 0 318 -133.5t77 -337.5q-25 -152 -156 -305l-557 -672h-206l442 522q-52 -14 -115 -14q-128 0 -220 60.5t-130 167t-14 237.5zM326 977q-23 -133 48.5 -220t205.5 -87q133 0 236 87t126 220t-49.5 221t-204.5 88t-235.5 -88 t-126.5 -221z" />
<glyph unicode=":" horiz-adv-x="507" d="M27 109q7 54 47 87t94 33q55 0 82.5 -32.5t19.5 -87.5q-11 -56 -50.5 -89.5t-94.5 -33.5q-54 0 -80.5 33.5t-17.5 89.5zM168 915q9 55 49 89t94 34q55 0 82.5 -33.5t18.5 -89.5q-11 -54 -50 -87t-94 -33q-54 0 -82 33t-18 87z" />
<glyph unicode=";" horiz-adv-x="507" d="M-117 -276l230 522l151 -43l-268 -514zM168 915q9 55 49 89t94 34q55 0 82.5 -33.5t18.5 -89.5q-11 -54 -50 -87t-94 -33q-54 0 -82 33t-18 87z" />
<glyph unicode="&#x3c;" d="M164 543v143l901 346v-153l-688 -265l688 -264v-153z" />
<glyph unicode="=" d="M164 317v144h901v-144h-901zM164 768v143h901v-143h-901z" />
<glyph unicode="&#x3e;" d="M164 197v153l688 264l-688 265v153l901 -346v-143z" />
<glyph unicode="?" horiz-adv-x="1077" d="M162 1227q84 105 212.5 163t282.5 58q206 0 304 -101t67 -282q-13 -73 -43.5 -127t-69.5 -87t-83.5 -59.5t-90.5 -55t-86 -64.5t-74 -96.5t-51 -141.5h-127q6 94 32.5 166t64.5 116t83 78t91 60.5t85 54t68.5 68.5t38.5 94q19 101 -42.5 158t-190.5 57q-120 0 -218.5 -48 t-158.5 -130zM295 109q9 54 48.5 87t94.5 33q54 0 81.5 -33t19.5 -87q-9 -55 -49.5 -89t-96.5 -34q-54 0 -80.5 33.5t-17.5 89.5z" />
<glyph unicode="@" horiz-adv-x="1687" d="M51 506q38 212 164.5 379t318 260.5t414.5 93.5q159 0 288.5 -49.5t212 -137t117 -211t9.5 -266.5q-34 -186 -142.5 -309t-238.5 -123q-65 0 -111 33.5t-67 93.5q-124 -127 -299 -127q-156 0 -240.5 105t-56.5 264q29 160 150 264.5t276 104.5q144 0 225 -90l14 75h136 l-78 -438q-11 -69 15 -113.5t79 -44.5q75 0 140.5 86.5t88.5 216.5q41 244 -109.5 399.5t-424.5 155.5q-191 0 -356 -79.5t-274 -220.5t-140 -318q-23 -131 3.5 -245t94 -195t175 -127.5t239.5 -46.5q169 0 315 73l6 -104q-174 -80 -358 -80q-204 0 -351 93t-209.5 258 t-25.5 370zM573 512q-17 -98 33 -161.5t144 -63.5t165.5 63.5t88.5 161.5q19 98 -31 161.5t-144 63.5t-165.5 -63.5t-90.5 -161.5z" />
<glyph unicode="A" horiz-adv-x="1482" d="M-61 0l833 1434h193l327 -1434h-174l-84 365h-708l-213 -365h-174zM414 518h585l-165 723z" />
<glyph unicode="B" horiz-adv-x="1452" d="M68 0l254 1434h643q181 0 281 -104q78 -82 77 -197q0 -32 -6 -68q-18 -104 -85 -188t-165 -132q109 -40 160 -134q35 -65 35 -144q0 -36 -7 -74q-29 -171 -167 -282t-320 -111h-700zM264 154h531q108 0 191.5 71.5t103.5 180.5q5 27 5 51q0 75 -44 129q-58 71 -166 71 h-531zM381 809h473q107 0 189.5 67.5t99.5 170.5q5 25 5 47q0 70 -44 120q-58 66 -168 66h-471z" />
<glyph unicode="C" horiz-adv-x="1439" d="M129 717q28 157 105 293t185.5 232t248 151t288.5 55q154 0 276 -57.5t198 -161.5l-148 -109q-58 79 -148.5 122.5t-205.5 43.5q-229 0 -407 -161t-222 -408q-11 -63 -11 -120q0 -93 28 -173q45 -130 152.5 -203.5t258.5 -73.5q234 0 414 166l108 -108 q-112 -104 -254 -161.5t-297 -57.5q-149 0 -269 55t-195 151q-76 96 -104 232q-15 70 -14 145q0 72 13 148z" />
<glyph unicode="D" horiz-adv-x="1511" d="M68 0l254 1434h487q200 0 343.5 -92.5t203.5 -256.5q38 -102 38 -219q0 -72 -14 -149q-36 -204 -154.5 -368t-294 -256.5t-374.5 -92.5h-489zM264 154h320q151 0 284 72.5t224 201t120 289.5q11 61 11 118q-1 91 -29 171q-46 128 -153.5 201t-258.5 73h-319z" />
<glyph unicode="E" horiz-adv-x="1351" d="M68 0l254 1434h1005l-27 -154h-837l-84 -477h756l-27 -154h-756l-88 -495h838l-27 -154h-1007z" />
<glyph unicode="F" horiz-adv-x="1327" d="M68 0l254 1434h1007l-29 -154h-835l-86 -477h756l-27 -154h-756l-114 -649h-170z" />
<glyph unicode="G" horiz-adv-x="1501" d="M129 717q38 209 158.5 376t299.5 261t382 94q156 0 279.5 -57.5t201.5 -161.5l-147 -109q-59 79 -152.5 122.5t-210.5 43.5q-154 0 -290.5 -73t-229 -203t-121.5 -293q-11 -63 -11 -121q0 -168 94 -288q126 -161 363 -161q209 0 377 127l62 349h-402l27 153h571 l-100 -571q-114 -104 -259.5 -161.5t-303.5 -57.5q-205 0 -352.5 94t-210.5 261q-39 105 -39 226q0 72 14 150z" />
<glyph unicode="H" horiz-adv-x="1583" d="M68 0l254 1434h170l-113 -631h856l111 631h170l-252 -1434h-170l114 649h-856l-114 -649h-170z" />
<glyph unicode="I" horiz-adv-x="559" d="M68 0l254 1434h170l-254 -1434h-170z" />
<glyph unicode="J" horiz-adv-x="1210" d="M-12 260l164 84q17 -90 91 -143.5t183 -53.5q143 0 251.5 87.5t131.5 220.5l174 979h170l-174 -977q-35 -204 -200 -337.5t-380 -133.5q-160 0 -269 74t-142 200z" />
<glyph unicode="K" horiz-adv-x="1370" d="M68 0l254 1434h170l-136 -764l803 764h213l-637 -609l449 -825h-199l-383 700l-289 -276l-75 -424h-170z" />
<glyph unicode="L" horiz-adv-x="1230" d="M68 0l254 1434h170l-228 -1280h801l-27 -154h-970z" />
<glyph unicode="M" horiz-adv-x="1779" d="M68 0l254 1434h182l352 -906l674 906h182l-254 -1434h-170l201 1130l-608 -823h-125l-318 826l-200 -1133h-170z" />
<glyph unicode="N" horiz-adv-x="1583" d="M68 0l254 1434h170l649 -1162l205 1162h170l-252 -1434h-170l-652 1161l-204 -1161h-170z" />
<glyph unicode="O" horiz-adv-x="1654" d="M129 717q28 157 105 293t185.5 232t248 151t288.5 55q199 0 342 -94q143 -92 204 -260q38 -104 38 -225q0 -73 -14 -152q-37 -209 -156 -376.5t-295.5 -261t-376.5 -93.5q-149 0 -269 55t-195 151q-76 96 -104 232q-15 70 -14 145q0 72 13 148zM299 717q-11 -63 -11 -120 q0 -93 28 -173q45 -130 152.5 -203.5t258.5 -73.5q229 0 407.5 161.5t221.5 408.5q11 63 11 120q0 93 -28 173q-45 130 -152.5 203t-258.5 73q-229 0 -407 -161t-222 -408z" />
<glyph unicode="P" horiz-adv-x="1343" d="M68 0l254 1434h620q184 0 282 -124q72 -92 73 -219q0 -45 -9 -94q-34 -189 -175.5 -311.5t-324.5 -122.5h-452l-98 -563h-170zM365 715h450q110 0 195.5 80t107.5 202q6 34 6 65q0 80 -42 138q-58 80 -167 80h-450z" />
<glyph unicode="Q" horiz-adv-x="1654" d="M129 717q27 157 104 293t186 232t248.5 151t288.5 55q199 0 342 -93.5t204 -260.5q38 -105 38 -225q0 -73 -14 -152q-32 -179 -125 -327.5t-230 -248.5l201 -329l-143 -99l-209 340q-156 -67 -322 -67q-149 0 -269 55t-195 151t-104 232q-14 70 -14 145q0 72 13 148z M299 717q-11 -63 -11 -120q0 -93 28 -173q45 -131 152.5 -204t258.5 -73q229 0 407.5 161.5t221.5 408.5q11 63 11 120q0 93 -28 173q-45 130 -152.5 203t-258.5 73q-229 0 -407.5 -161t-221.5 -408z" />
<glyph unicode="R" horiz-adv-x="1382" d="M68 0l254 1434h620q184 0 282 -118q74 -89 74 -213q0 -41 -8 -85q-26 -149 -129.5 -257.5t-249.5 -144.5l238 -616h-182l-234 604h-389l-106 -604h-170zM371 756h450q110 0 195 74.5t104 187.5q6 31 6 59q0 75 -43 129q-59 74 -170 74h-450z" />
<glyph unicode="S" horiz-adv-x="1208" d="M14 166l140 119q119 -138 348 -138q152 0 252.5 62.5t119.5 167.5q3 19 3 36q0 34 -13 63q-20 43 -60.5 72t-96 52.5t-118 44.5t-124 44t-115.5 55.5t-92.5 74.5t-54.5 105q-9 34 -9 72q0 34 7 71q31 175 173.5 278t354.5 103q143 0 253 -47.5t161 -132.5l-137 -119 q-34 63 -117 100t-195 37q-136 0 -224.5 -55.5t-107.5 -153.5q-3 -17 -3 -33q-1 -34 13 -63q20 -42 61.5 -70t97 -51.5t118 -44.5t124.5 -44.5t116 -56.5t92.5 -75.5t54.5 -106.5q9 -34 8 -73q0 -34 -6 -72q-32 -185 -187 -293t-386 -108q-147 0 -263.5 46.5t-187.5 133.5z " />
<glyph unicode="T" horiz-adv-x="1339" d="M168 1280l27 154h1202l-27 -154h-516l-225 -1280h-170l225 1280h-516z" />
<glyph unicode="U" horiz-adv-x="1550" d="M145 498l166 936h170l-166 -938q-6 -33 -6 -63q0 -109 80 -187q102 -98 287 -99q183 0 319 98.5t164 250.5l164 938h170l-164 -936q-26 -147 -123 -264t-243.5 -182.5t-315.5 -65.5t-293 66q-124 64 -180 182q-38 80 -37 174q0 43 8 90z" />
<glyph unicode="V" horiz-adv-x="1468" d="M195 1434h174l272 -1239l713 1239h174l-823 -1434h-195z" />
<glyph unicode="W" horiz-adv-x="2023" d="M195 1434h167l134 -1176l546 1176h191l133 -1176l547 1176h168l-666 -1434h-188l-133 1182l-551 -1182h-187z" />
<glyph unicode="X" horiz-adv-x="1406" d="M-66 0l672 731l-395 703h201l319 -566l518 566h201l-643 -703l412 -731h-201l-336 596l-547 -596h-201z" />
<glyph unicode="Y" horiz-adv-x="1392" d="M190 1434h191l319 -699l564 699h190l-698 -869l-101 -565h-170l101 569z" />
<glyph unicode="Z" horiz-adv-x="1245" d="M6 0l27 154l981 1126h-762l29 154h956l-27 -154l-981 -1126h783l-27 -154h-979z" />
<glyph unicode="[" horiz-adv-x="727" d="M-6 -307l342 1945h485l-24 -143h-326l-291 -1659h324l-25 -143h-485z" />
<glyph unicode="\" horiz-adv-x="831" d="M156 1589l141 49l362 -1896l-143 -49z" />
<glyph unicode="]" horiz-adv-x="727" d="M-113 -307l25 143h326l290 1659h-323l24 143h486l-342 -1945h-486z" />
<glyph unicode="^" d="M190 1024l424 424l422 -424l-102 -102l-320 319l-319 -319z" />
<glyph unicode="_" horiz-adv-x="598" d="M0 -127h598v-143h-598v143z" />
<glyph unicode="`" horiz-adv-x="604" d="M289 1720l141 109l201 -320l-99 -75z" />
<glyph unicode="a" horiz-adv-x="1292" d="M72 512q41 229 205 377.5t376 148.5q108 0 193 -42.5t139 -118.5l27 147h162l-181 -1024h-162l27 147q-171 -161 -391 -161q-139 0 -239 68q-98 68 -140 188q-26 74 -26 159q0 53 10 111zM233 514q-7 -43 -7 -81q0 -109 58 -188q79 -106 228 -106q148 0 263.5 106 t144.5 269q8 43 8 82q0 107 -58 184q-79 105 -227 105q-149 0 -265 -105t-145 -266z" />
<glyph unicode="b" horiz-adv-x="1292" d="M47 0l264 1495h162l-111 -618q81 76 182 118.5t210 42.5q212 0 323 -148q81 -108 81 -260q0 -56 -11 -118q-40 -229 -204 -377.5t-376 -148.5q-109 0 -195 42.5t-139 118.5l-24 -147h-162zM301 514q-8 -44 -8 -84q-1 -108 57 -185q78 -106 227.5 -106t265 106t144.5 269 q7 43 7 82q0 108 -57 184q-78 104 -228 105q-149 0 -264.5 -105t-143.5 -266z" />
<glyph unicode="c" horiz-adv-x="1069" d="M74 512q40 229 211 377.5t395 148.5q214 0 332 -131l-133 -112q-77 90 -228 90q-153 0 -270 -104.5t-145 -266.5q-8 -43 -8 -83q0 -109 59 -186q80 -106 233 -106q146 0 260 90l92 -112q-158 -131 -378 -131q-224 0 -342 148q-88 110 -89 266q0 53 11 112z" />
<glyph unicode="d" horiz-adv-x="1292" d="M72 512q27 150 111.5 270.5t207.5 188t262 67.5q109 0 194.5 -42.5t137.5 -118.5l111 618h161l-264 -1495h-162l27 147q-81 -76 -181.5 -118.5t-207.5 -42.5q-213 0 -325 148q-83 110 -82 263q0 55 10 115zM236 514q-8 -44 -7 -84q0 -108 56 -185q78 -106 227 -106 q148 0 263.5 106t144.5 269q7 43 7 82q0 108 -56 184q-77 104 -226 105q-151 0 -266 -105t-143 -266z" />
<glyph unicode="e" horiz-adv-x="1198" d="M74 516q40 226 206.5 374t381.5 148q212 0 326 -150q83 -111 84 -267q0 -56 -11 -119q0 -13 -10 -43h-822q-1 -15 -1 -29q0 -119 81 -200q91 -91 240 -91q88 0 165.5 31t131.5 88l106 -104q-80 -80 -193 -124t-237 -44q-236 0 -362 149q-96 113 -96 272q0 52 10 109z M258 604h651q0 127 -74.5 204t-201.5 77q-125 0 -227 -77t-148 -204z" />
<glyph unicode="f" horiz-adv-x="765" d="M78 -307l209 1188h-193l27 143h190l25 133q28 163 163.5 257.5t340.5 94.5l-27 -153q-131 0 -215.5 -54t-101.5 -149l-23 -129h281l-25 -143h-283l-208 -1188h-160z" />
<glyph unicode="g" horiz-adv-x="1292" d="M2 -334l133 113q35 -53 99 -82t143 -29q172 0 303 106t160 269l18 104q-171 -161 -391 -161q-139 0 -238.5 67.5t-140.5 188.5q-26 74 -26 159q0 53 10 111q41 229 205 377.5t376 148.5q108 0 193 -42.5t139 -118.5l27 147h162l-175 -983q-40 -229 -224 -377.5 t-427 -148.5q-114 0 -204 40t-142 111zM233 510q-8 -43 -8 -82q0 -107 58 -184q79 -105 229 -105q148 0 263.5 105t144.5 266q7 43 7 82q0 109 -57 187q-79 106 -227 106q-149 0 -265 -106t-145 -269z" />
<glyph unicode="h" horiz-adv-x="1292" d="M47 0l264 1495h160l-104 -596q162 139 376 139q189 0 291 -108q80 -84 80 -204q0 -34 -6 -71l-115 -655h-162l115 657q4 21 4 40q0 71 -56 123q-72 64 -198 65q-136 0 -241.5 -76.5t-139.5 -198.5l-106 -610h-162z" />
<glyph unicode="i" horiz-adv-x="507" d="M47 0l180 1024h162l-180 -1024h-162zM246 1358q9 55 48 89t95 34q53 0 81 -34q21 -26 21 -63q0 -12 -2 -26q-9 -54 -49 -87.5t-94 -33.5q-54 -1 -82 33q-21 25 -20 63q0 12 2 25z" />
<glyph unicode="j" horiz-adv-x="507" d="M-319 -485l26 153q133 0 218.5 64t105.5 178l196 1114h162l-196 -1116q-32 -186 -167.5 -289.5t-344.5 -103.5zM246 1358q9 55 48 89t95 34q54 0 81 -34q21 -26 21 -63q0 -12 -2 -26q-9 -54 -49 -87.5t-94 -33.5t-82 33q-20 26 -20 63q0 12 2 25z" />
<glyph unicode="k" horiz-adv-x="1097" d="M47 0l264 1495h162l-170 -958l553 487h207l-508 -444l369 -580h-191l-301 471l-166 -145l-57 -326h-162z" />
<glyph unicode="l" horiz-adv-x="507" d="M47 0l264 1495h162l-264 -1495h-162z" />
<glyph unicode="m" horiz-adv-x="1892" d="M47 0l180 1024h162l-20 -113q143 127 329 127q109 0 189 -45.5t114 -124.5q75 80 175 125t208 45q168 0 262 -102q72 -78 72 -187q0 -33 -6 -69l-119 -680h-161l120 682q3 18 3 35q0 66 -47 111q-59 57 -162 57q-118 0 -211 -75.5t-125 -195.5l-109 -614h-162l121 682 q3 18 3 35q0 66 -47 111q-59 57 -163 57q-121 0 -214 -76.5t-124 -200.5l-106 -608h-162z" />
<glyph unicode="n" horiz-adv-x="1292" d="M47 0l180 1024h162l-22 -125q162 139 376 139q189 0 291 -108q80 -84 80 -204q0 -34 -6 -71l-115 -655h-162l115 657q4 21 4 41q0 73 -56 123q-70 64 -198 64q-135 0 -240 -75t-139 -194l-108 -616h-162z" />
<glyph unicode="o" d="M74 512q40 229 209 377.5t389 148.5q218 0 334 -148q87 -111 87 -266q0 -53 -10 -112q-40 -229 -209 -377.5t-389 -148.5q-145 0 -248.5 67.5t-146.5 187.5q-26 74 -26 159q0 54 10 112zM236 514q-8 -44 -7 -84q0 -108 56 -185q78 -106 227 -106t265.5 106t144.5 269 q8 43 8 83q0 107 -58 183q-78 105 -229 105q-149 0 -264 -105t-143 -266z" />
<glyph unicode="p" horiz-adv-x="1292" d="M-35 -471l262 1495h162l-27 -150q79 77 181 120.5t211 43.5q212 0 323 -148q81 -109 81 -260q0 -56 -11 -118q-40 -229 -204 -377.5t-376 -148.5q-109 0 -194 42.5t-137 118.5l-109 -618h-162zM301 510q-7 -43 -7 -82q0 -108 57 -184q78 -105 227 -105t264 105t143 266 q8 44 8 85q0 107 -57 184q-77 106 -227 106q-148 0 -263.5 -106t-144.5 -269z" />
<glyph unicode="q" horiz-adv-x="1292" d="M72 512q27 150 111.5 270.5t207.5 188t262 67.5q108 0 193 -42t139 -117l27 145h162l-263 -1495h-161l108 618q-79 -76 -180.5 -118.5t-208.5 -42.5q-219 0 -329 146q-79 105 -79 259q0 57 11 121zM233 510q-8 -45 -8 -85q0 -107 56 -183q77 -103 231 -103q148 0 264 105 t144 266q8 44 8 85q0 107 -56 184q-78 106 -227 106q-150 0 -266.5 -106t-145.5 -269z" />
<glyph unicode="r" horiz-adv-x="833" d="M47 0l180 1024h162l-24 -139q180 153 438 153l-29 -153q-164 0 -290.5 -73.5t-166.5 -190.5l-108 -621h-162z" />
<glyph unicode="s" horiz-adv-x="1007" d="M-14 129l133 113q83 -103 272 -103q115 0 189.5 37.5t85.5 97.5q1 8 1 16q0 32 -23 56q-29 30 -81 49t-115.5 37t-126.5 42t-112 56q-49 34 -73 90q-16 36 -16 79q0 25 5 53q23 133 136 209.5t286 76.5q245 0 354 -143l-133 -113q-74 103 -248 103q-98 0 -163 -34.5 t-76 -90.5q-1 -8 -1 -15q0 -27 17 -49q22 -28 63 -46t94 -36.5t108.5 -34t107.5 -42t90 -58t56 -83.5q11 -32 11 -70q0 -23 -4 -47q-25 -137 -147 -215t-311 -78q-261 0 -379 143z" />
<glyph unicode="t" horiz-adv-x="835" d="M94 881l25 143h190l45 250h162l-45 -250h311l-26 -143h-310l-108 -613q-2 -14 -2 -26q0 -46 28 -74q36 -36 113 -35q81 0 152 23l-27 -144q-70 -24 -168 -24q-143 0 -212 74q-52 56 -52 143q0 29 6 61l109 615h-191z" />
<glyph unicode="u" horiz-adv-x="1292" d="M113 369l114 655h162l-117 -657q-4 -23 -4 -45q0 -74 51 -122q66 -62 195 -61q138 0 243 71t144 187l111 627h162l-181 -1024h-162l23 127q-167 -141 -391 -141q-192 0 -287 103q-71 77 -71 196q0 39 8 84z" />
<glyph unicode="v" horiz-adv-x="1134" d="M100 1024h162l211 -836l504 836h162l-619 -1024h-162z" />
<glyph unicode="w" horiz-adv-x="1574" d="M102 1024h156l117 -780l389 780h156l116 -780l389 780h158l-512 -1024h-156l-114 780l-391 -780h-158z" />
<glyph unicode="x" horiz-adv-x="1110" d="M-76 0l502 518l-311 506h188l240 -383l370 383h189l-486 -506l316 -518h-189l-245 397l-385 -397h-189z" />
<glyph unicode="y" horiz-adv-x="1292" d="M27 -334l133 113q75 -111 252 -111q168 0 282 99.5t146 275.5l16 102q-165 -159 -405 -159q-188 0 -279 102q-67 75 -67 194q0 42 8 89l114 653h162l-117 -655q-4 -25 -4 -48q0 -74 48 -121q63 -61 188 -61q148 0 255.5 85t149.5 225l103 575h162l-175 -983 q-43 -246 -207 -386t-405 -140q-251 0 -360 151z" />
<glyph unicode="z" horiz-adv-x="1032" d="M-37 0l27 143l772 738h-633l25 143h831l-24 -143l-773 -738h654l-27 -143h-852z" />
<glyph unicode="{" horiz-adv-x="897" d="M113 594l24 143q99 0 172 52.5t88 134.5l72 417q23 129 126.5 213t238.5 84h157l-26 -143h-156q-64 0 -115 -43.5t-63 -108.5l-72 -419q-17 -86 -81 -154.5t-159 -103.5q84 -35 123.5 -103.5t24.5 -154.5l-74 -420q-12 -65 23.5 -108.5t101.5 -43.5h156l-25 -143h-157 q-135 0 -209.5 84t-51.5 213l74 418q15 82 -39 134t-153 52z" />
<glyph unicode="|" horiz-adv-x="649" d="M252 -307v1945h145v-1945h-145z" />
<glyph unicode="}" horiz-adv-x="897" d="M-113 -307l25 143h156q66 0 117 43.5t63 108.5l71 420q17 86 81 154.5t161 103.5q-85 35 -124.5 103.5t-24.5 154.5l73 419q12 64 -24 108t-101 44h-155l24 143h158q135 0 208.5 -84t51.5 -213l-74 -417q-15 -82 40 -134.5t155 -52.5l-25 -143q-100 0 -173.5 -52 t-88.5 -134l-73 -418q-22 -129 -125 -213t-238 -84h-158z" />
<glyph unicode="~" d="M164 483q0 135 77.5 227.5t178.5 92.5q54 0 114.5 -29.5t104 -65t92.5 -65t82 -29.5q47 0 78 49.5t31 122.5h143q-1 -133 -79.5 -224t-180.5 -91q-53 0 -112 29t-101.5 64t-90.5 64t-81 29q-49 0 -81 -50.5t-32 -123.5h-143z" />
<glyph unicode="&#xa1;" horiz-adv-x="507" d="M-33 -410l201 1000h127l-150 -1000h-178zM168 915q9 55 49 89t94 34q55 0 82.5 -33.5t18.5 -89.5q-11 -54 -50 -87t-94 -33q-54 0 -82 33t-18 87z" />
<glyph unicode="&#xa2;" horiz-adv-x="1069" d="M109 717q34 187 173 318t332 159l45 254h127l-45 -248q195 -9 299 -129l-133 -113q-78 91 -225 91q-153 0 -269.5 -93.5t-142.5 -236.5q-25 -145 57.5 -239.5t235.5 -94.5q146 0 260 90l95 -113q-151 -120 -347 -129l-43 -247h-127l45 254q-183 28 -276 159t-61 318z" />
<glyph unicode="&#xa3;" horiz-adv-x="1062" d="M-14 0l32 168q98 94 167.5 198t93.5 187h-183l25 143h158q-8 28 -40.5 94.5t-45.5 130.5t2 146q29 166 162.5 273.5t310.5 107.5q251 0 376 -221l-139 -119q-98 178 -268 178q-106 0 -185 -61t-96 -156q-9 -48 1.5 -98t28 -87t37.5 -89.5t26 -98.5h303l-25 -143h-287 q-24 -93 -85 -196.5t-146 -188.5h686l-33 -168h-876z" />
<glyph unicode="&#xa4;" d="M152 373l137 139q-47 92 -47 201q0 122 51 207l-141 143l114 113l142 -144q94 51 204 51q117 0 209 -53l144 146l114 -113l-145 -145q51 -80 51 -205q0 -117 -49 -199l141 -141l-112 -113l-140 139q-89 -53 -213 -53q-121 0 -209 51l-137 -137zM395 713q0 -96 63.5 -160 t157.5 -64q93 0 156.5 64t63.5 160t-63.5 161.5t-156.5 65.5q-94 0 -157.5 -65t-63.5 -162z" />
<glyph unicode="&#xa5;" horiz-adv-x="1392" d="M160 205l26 143h361l31 176h-363l27 144h299l-348 766h190l317 -697l564 697h190l-618 -766h297l-25 -144h-360l-31 -176h360l-24 -143h-363l-35 -205h-170l37 205h-362z" />
<glyph unicode="&#xa6;" horiz-adv-x="649" d="M252 -307v768h145v-768h-145zM252 870v768h145v-768h-145z" />
<glyph unicode="&#xa7;" horiz-adv-x="1208" d="M12 -141l138 118q35 -63 116.5 -100t196.5 -37q135 0 222.5 51.5t102.5 141.5q22 122 -149 190q-47 20 -153 56q-84 28 -126.5 44.5t-107.5 52t-94.5 71.5t-48 94.5t-5.5 130.5q20 132 125 225q-43 73 -26 190q31 166 172 263.5t352 97.5q145 0 255 -47.5t161 -132.5 l-137 -119q-34 63 -117 100t-197 37q-135 0 -222.5 -53t-104.5 -146q-12 -62 24 -104q25 -39 79.5 -70.5t118.5 -54t135.5 -46.5t134.5 -55.5t111.5 -73t69.5 -106t6 -147.5q-21 -131 -116 -223q39 -74 20 -176q-28 -162 -168 -257.5t-350 -95.5q-146 0 -256.5 48 t-161.5 133zM264 666q-11 -63 21.5 -108.5t98.5 -74.5t137.5 -51.5t158 -53.5t141.5 -65q53 53 64 117q9 55 -13.5 97.5t-64 68.5t-103.5 50.5t-122.5 42t-129.5 44t-116 55.5q-57 -48 -72 -122z" />
<glyph unicode="&#xa8;" horiz-adv-x="811" d="M266 1585q7 51 42.5 81t86.5 30t75.5 -30t16.5 -81q-9 -51 -44.5 -80.5t-86.5 -29.5t-75 29.5t-15 80.5zM631 1585q9 51 44.5 81t86.5 30q50 0 74.5 -30t15.5 -81t-44 -80.5t-85 -29.5q-51 0 -76 29.5t-16 80.5z" />
<glyph unicode="&#xa9;" horiz-adv-x="1720" d="M129 717q0 148 58 283.5t156 233.5t233.5 156t283.5 58t283.5 -58t233.5 -156t156 -233.5t58 -283.5t-58 -283.5t-156 -233.5t-233.5 -156t-283.5 -58t-283.5 58t-233.5 156t-156 233.5t-58 283.5zM274 717q0 -159 78.5 -294t213.5 -213.5t294 -78.5t294 78.5 t213.5 213.5t78.5 294t-78.5 294t-213.5 213.5t-294 78.5t-294 -78.5t-213.5 -213.5t-78.5 -294zM530 717q0 160 100 264t255 104q159 0 258 -110l-105 -88q-59 65 -153 65t-154.5 -66t-60.5 -169t60.5 -168.5t154.5 -65.5q93 0 153 66l107 -90q-108 -111 -260 -111 q-155 0 -255 104.5t-100 264.5z" />
<glyph unicode="&#xaa;" horiz-adv-x="894" d="M135 1075q28 160 141 264.5t259 104.5q152 0 227 -115l18 105h127l-127 -717h-127l19 104q-117 -114 -269 -114q-145 0 -220.5 104t-47.5 264zM264 1075q-20 -107 31.5 -177.5t148.5 -70.5q98 0 173.5 70t95.5 178q19 108 -31.5 178t-149.5 70q-98 0 -173.5 -70 t-94.5 -178z" />
<glyph unicode="&#xab;" horiz-adv-x="1089" d="M84 573l422 426l84 -63l-307 -363l180 -362l-107 -64zM492 573l423 426l84 -63l-309 -363l180 -362l-104 -64z" />
<glyph unicode="&#xac;" d="M164 631v143h901v-457h-135v314h-766z" />
<glyph unicode="&#xad;" horiz-adv-x="819" d="M133 502l25 143h479l-25 -143h-479z" />
<glyph unicode="&#xae;" horiz-adv-x="1720" d="M129 717q0 148 58 283.5t156 233.5t233.5 156t283.5 58t283.5 -58t233.5 -156t156 -233.5t58 -283.5t-58 -283.5t-156 -233.5t-233.5 -156t-283.5 -58t-283.5 58t-233.5 156t-156 233.5t-58 283.5zM274 717q0 -159 78.5 -294t213.5 -213.5t294 -78.5t294 78.5 t213.5 213.5t78.5 294t-78.5 294t-213.5 213.5t-294 78.5t-294 -78.5t-213.5 -213.5t-78.5 -294zM600 358v717h313q102 0 168 -62.5t66 -158.5q0 -69 -34.5 -121.5t-94.5 -79.5l156 -295h-150l-135 273h-148v-273h-141zM741 756h172q41 0 68 27.5t27 70.5t-27 70.5t-68 27.5 h-172v-196z" />
<glyph unicode="&#xaf;" horiz-adv-x="768" d="M250 1495l22 127h543l-22 -127h-543z" />
<glyph unicode="&#xb0;" horiz-adv-x="856" d="M170 1165q28 150 139.5 247t257.5 97q147 0 226 -97.5t51 -246.5q-26 -148 -139 -244t-259 -96t-223.5 96t-52.5 244zM315 1163q-17 -87 28 -144.5t130 -57.5q83 0 146.5 57t80.5 145q15 92 -28.5 151.5t-126.5 59.5q-85 0 -150 -59.5t-80 -151.5z" />
<glyph unicode="&#xb1;" d="M164 164v143h901v-143h-901zM164 799v143h379v379h143v-379h379v-143h-379v-379h-143v379h-379z" />
<glyph unicode="&#xb2;" horiz-adv-x="546" d="M72 922l22 133q23 35 72.5 76t103.5 78t106 75t89 78t43 76t-19.5 57t-72.5 21q-87 0 -168 -84l-80 96q115 121 268 121q109 0 165.5 -56t39.5 -151q-9 -51 -35.5 -95t-69.5 -82.5t-83 -68t-100 -71t-97 -70.5h317l-24 -133h-477z" />
<glyph unicode="&#xb3;" horiz-adv-x="585" d="M84 1024l115 96q19 -34 55.5 -53.5t79.5 -19.5q53 0 91.5 26.5t45.5 67.5q6 39 -21 64.5t-73 25.5h-41l20 117h50q38 0 66 23.5t34 60.5q7 37 -17.5 60.5t-66.5 23.5q-88 0 -158 -84l-80 98q48 55 120 87t149 32q102 0 157.5 -55t40.5 -144q-19 -106 -112 -158 q85 -60 67 -168q-15 -91 -99 -152t-194 -61q-74 0 -136 31.5t-93 81.5z" />
<glyph unicode="&#xb4;" horiz-adv-x="604" d="M252 1509l313 320l103 -109l-344 -286z" />
<glyph unicode="&#xb5;" horiz-adv-x="1292" d="M-35 -471l262 1495h162l-117 -657q-17 -106 47.5 -167t192.5 -61q141 0 247.5 73.5t143.5 193.5l109 618h162l-181 -1024h-162l23 127q-167 -141 -391 -141q-151 0 -246 67l-90 -524h-162z" />
<glyph unicode="&#xb6;" horiz-adv-x="1386" d="M203 1143q37 215 195 355t364 140h143l-342 -1945h-143l168 952q-135 0 -232 64t-137.5 177.5t-15.5 256.5zM809 -307l342 1945h143l-342 -1945h-143z" />
<glyph unicode="&#xb7;" horiz-adv-x="507" d="M133 717q9 55 48 88t93 33q56 0 84 -33t19 -88q-11 -54 -50 -87.5t-94 -33.5q-54 0 -81.5 33.5t-18.5 87.5z" />
<glyph unicode="&#xb8;" horiz-adv-x="665" d="M-80 -369l66 86q6 -7 16.5 -17.5t47.5 -28t79 -17.5q48 0 82.5 21.5t40.5 56.5q4 22 -10.5 39.5t-38.5 26.5t-48 15t-41 7l-18 2l74 178h129l-39 -100q6 -1 15.5 -3.5t33 -14.5t40 -28.5t27 -48.5t3.5 -71q-15 -87 -84 -138t-166 -51q-39 0 -75 9t-59 21.5t-41 25 t-26 21.5z" />
<glyph unicode="&#xb9;" horiz-adv-x="495" d="M180 1489l223 149h142l-127 -716h-142l99 551l-133 -91z" />
<glyph unicode="&#xba;" horiz-adv-x="851" d="M135 1075q28 160 147 264.5t271 104.5q155 0 237 -104.5t54 -264.5t-146.5 -264t-273.5 -104q-154 0 -235.5 104t-53.5 264zM264 1075q-20 -107 31.5 -177.5t148.5 -70.5q99 0 176 70t97 178q19 108 -33 178t-152 70q-98 0 -173.5 -70t-94.5 -178z" />
<glyph unicode="&#xbb;" horiz-adv-x="1089" d="M41 211l307 362l-180 363l104 63l275 -426l-424 -426zM451 211l305 362l-178 363l104 63l272 -426l-424 -426z" />
<glyph unicode="&#xbc;" horiz-adv-x="1337" d="M-25 59l1215 1381l90 -74l-1212 -1382zM143 1284l226 150h139l-125 -717h-141l96 551l-133 -90zM616 147l23 127l414 443h141l-78 -443h96l-20 -127h-98l-25 -147h-141l24 147h-336zM780 274h195l45 256z" />
<glyph unicode="&#xbd;" horiz-adv-x="1308" d="M-25 59l1215 1381l90 -74l-1212 -1382zM143 1284l226 150h139l-125 -717h-141l96 551l-133 -90zM670 0l24 133q27 42 95.5 96t133.5 96t121 94.5t64 96.5q6 36 -19.5 57t-72.5 21q-86 0 -170 -84l-80 96q118 121 270 121q109 0 164.5 -56t38.5 -151q-9 -51 -35 -95 t-69 -82.5t-82.5 -68t-99.5 -71t-97 -70.5h315l-22 -133h-479z" />
<glyph unicode="&#xbe;" horiz-adv-x="1409" d="M47 819l115 96q20 -34 56 -53.5t79 -19.5q53 0 91.5 26.5t45.5 67.5q7 39 -19.5 64.5t-74.5 25.5h-41l20 117h52q37 0 65.5 23.5t34.5 60.5q6 38 -18.5 61t-67.5 23q-88 0 -158 -84l-77 98q46 54 118.5 86.5t149.5 32.5q100 0 155.5 -55t40.5 -144q-19 -106 -112 -158 q87 -61 69 -167q-17 -91 -101 -152t-194 -61q-74 0 -136 31t-93 81zM66 59l1212 1381l92 -74l-1214 -1382zM688 147l23 127l415 443h142l-78 -443h96l-22 -127h-97l-26 -147h-142l27 147h-338zM854 274h195l45 256z" />
<glyph unicode="&#xbf;" horiz-adv-x="1009" d="M-63 -41q13 73 43.5 127t69 87t83.5 59.5t90.5 55t86 64.5t74 96.5t50.5 141.5h127q-6 -94 -32.5 -166t-65 -116t-83.5 -78t-91 -60.5t-85.5 -54t-69 -68.5t-38.5 -94q-17 -101 45 -158t191 -57q121 0 219 48t158 130l94 -119q-84 -105 -213 -163t-283 -58 q-206 0 -303.5 101t-66.5 282zM426 915q11 56 50.5 89.5t94.5 33.5q54 0 81.5 -34t17.5 -89q-9 -54 -48.5 -87t-93.5 -33q-55 0 -83 33t-19 87z" />
<glyph unicode="&#xc0;" horiz-adv-x="1482" d="M-61 0l833 1434h193l327 -1434h-174l-84 365h-708l-213 -365h-174zM414 518h585l-165 723zM623 1835l141 109l201 -320l-99 -76z" />
<glyph unicode="&#xc1;" horiz-adv-x="1482" d="M-61 0l833 1434h193l327 -1434h-174l-84 365h-708l-213 -365h-174zM414 518h585l-165 723zM803 1624l313 320l103 -109l-345 -287z" />
<glyph unicode="&#xc2;" horiz-adv-x="1482" d="M-61 0l833 1434h193l327 -1434h-174l-84 365h-708l-213 -365h-174zM414 518h585l-165 723zM604 1608l350 313l238 -315l-86 -80l-188 190l-254 -190z" />
<glyph unicode="&#xc3;" horiz-adv-x="1482" d="M-61 0l833 1434h193l327 -1434h-174l-84 365h-708l-213 -365h-174zM414 518h585l-165 723zM582 1561q17 99 79 163t140 64q37 0 73 -17t59.5 -37.5t49.5 -37.5t45 -17q27 0 51 29t31 72h127q-17 -99 -79.5 -163.5t-139.5 -64.5q-39 0 -75 17.5t-58 38t-47 38t-45 17.5 q-29 0 -53 -28t-33 -74h-125z" />
<glyph unicode="&#xc4;" horiz-adv-x="1482" d="M-61 0l833 1434h193l327 -1434h-174l-84 365h-708l-213 -365h-174zM414 518h585l-165 723zM623 1702q9 49 44.5 78.5t86.5 29.5q50 0 74.5 -29.5t15.5 -78.5q-9 -51 -44.5 -82t-84.5 -31q-51 0 -76 31t-16 82zM989 1702q7 49 42.5 78.5t86.5 29.5q50 0 74.5 -29.5 t15.5 -78.5q-7 -51 -43 -82t-86 -31q-51 0 -75 31t-15 82z" />
<glyph unicode="&#xc5;" horiz-adv-x="1482" d="M-61 0l833 1434h193l325 -1434h-174l-82 365h-710l-211 -365h-174zM414 518h585l-165 723zM698 1712q15 92 88 152.5t168 60.5q94 0 145 -60.5t36 -152.5q-17 -94 -88.5 -153.5t-165.5 -59.5q-96 0 -148 60t-35 153zM817 1714q-8 -46 15 -76t67 -30q43 0 76.5 30t40.5 76 q8 44 -14.5 73.5t-63.5 29.5q-45 0 -79 -29t-42 -74z" />
<glyph unicode="&#xc6;" horiz-adv-x="2076" d="M-61 0l1065 1434h1050l-29 -154h-768l-83 -477h686l-27 -154h-688l-86 -495h768l-27 -154h-938l64 365h-531l-272 -365h-184zM508 518h444l140 785z" />
<glyph unicode="&#xc7;" horiz-adv-x="1439" d="M129 717q28 157 105 293t185.5 232t248 151t288.5 55q154 0 276 -57.5t198 -161.5l-148 -109q-58 79 -148.5 122.5t-205.5 43.5q-229 0 -407 -161t-222 -408q-28 -163 17 -293.5t152.5 -203.5t258.5 -73q234 0 414 166l108 -108q-102 -95 -228.5 -151t-264.5 -66l-35 -88 q6 -1 15.5 -3.5t33 -14.5t40 -28.5t27 -48.5t3.5 -71q-15 -87 -84.5 -138t-167.5 -51q-39 0 -74.5 9t-58.5 21.5t-40.5 25t-25.5 21.5l-8 9l65 86q5 -7 16 -17.5t48 -28t80 -17.5q48 0 82.5 21.5t40.5 56.5q4 22 -10.5 39.5t-38.5 26.5t-48 15t-42 7l-17 2l68 168 q-177 17 -302 114t-177 257t-17 356z" />
<glyph unicode="&#xc8;" horiz-adv-x="1351" d="M68 0l254 1434h1005l-27 -154h-837l-84 -477h756l-27 -154h-756l-88 -495h838l-27 -154h-1007zM580 1835l141 109l201 -320l-99 -76z" />
<glyph unicode="&#xc9;" horiz-adv-x="1351" d="M68 0l254 1434h1005l-27 -154h-837l-84 -477h756l-27 -154h-756l-88 -495h838l-27 -154h-1007zM760 1624l315 320l103 -109l-344 -287z" />
<glyph unicode="&#xca;" horiz-adv-x="1351" d="M68 0l254 1434h1005l-27 -154h-837l-84 -477h756l-27 -154h-756l-88 -495h838l-27 -154h-1007zM561 1608l350 313l240 -315l-88 -80l-189 190l-253 -190z" />
<glyph unicode="&#xcb;" horiz-adv-x="1351" d="M68 0l254 1434h1005l-27 -154h-837l-84 -477h756l-27 -154h-756l-88 -495h838l-27 -154h-1007zM580 1702q9 49 44.5 78.5t86.5 29.5q50 0 74.5 -29.5t15.5 -78.5q-7 -51 -43 -82t-86 -31q-51 0 -75.5 31t-16.5 82zM946 1702q9 49 44.5 78.5t86.5 29.5q49 0 73.5 -29 t16.5 -79q-9 -51 -44.5 -82t-84.5 -31q-51 0 -76 31t-16 82z" />
<glyph unicode="&#xcc;" horiz-adv-x="559" d="M68 0l254 1434h170l-254 -1434h-170zM162 1835l141 109l201 -320l-98 -76z" />
<glyph unicode="&#xcd;" horiz-adv-x="559" d="M68 0l254 1434h170l-254 -1434h-170zM342 1624l313 320l103 -109l-344 -287z" />
<glyph unicode="&#xce;" horiz-adv-x="559" d="M68 0l254 1434h170l-254 -1434h-170zM143 1608l351 313l237 -315l-86 -80l-188 190l-256 -190z" />
<glyph unicode="&#xcf;" horiz-adv-x="559" d="M68 0l254 1434h170l-254 -1434h-170zM162 1702q9 49 44.5 78.5t86.5 29.5q50 0 74.5 -29.5t15.5 -78.5q-9 -51 -44.5 -82t-84.5 -31q-51 0 -76 31t-16 82zM526 1702q9 49 44.5 78.5t86.5 29.5q50 0 75 -29.5t16 -78.5q-9 -51 -44.5 -82t-85.5 -31q-51 0 -75.5 31 t-16.5 82z" />
<glyph unicode="&#xd0;" horiz-adv-x="1511" d="M29 645l24 143h154l115 646h489q199 0 342 -92.5t203.5 -256.5t23.5 -368t-155 -368t-293.5 -256.5t-374.5 -92.5h-489l114 645h-153zM264 154h320q151 0 284 72.5t224 201t120 289.5q28 161 -17 289.5t-153.5 201t-259.5 72.5h-317l-88 -492h375l-27 -143h-373z" />
<glyph unicode="&#xd1;" horiz-adv-x="1583" d="M68 0l254 1434h170l649 -1162l205 1162h170l-252 -1434h-170l-652 1161l-204 -1161h-170zM631 1561q19 99 80.5 163t138.5 64q38 0 74 -17t59 -37.5t49 -37.5t45 -17q28 0 52.5 28.5t31.5 72.5h127q-19 -100 -81 -164t-140 -64q-38 0 -74 17.5t-58 38t-47 38t-44 17.5 q-30 0 -54.5 -28.5t-31.5 -73.5h-127z" />
<glyph unicode="&#xd2;" horiz-adv-x="1654" d="M129 717q28 157 105 293t185.5 232t248 151t288.5 55q199 0 342 -93.5t204 -261t24 -376.5t-156 -376.5t-295.5 -261t-376.5 -93.5q-149 0 -269 55t-195 151t-103.5 232t-1.5 293zM299 717q-28 -163 17 -293.5t152.5 -203.5t258.5 -73q229 0 407.5 161.5t221.5 408.5 q28 163 -17 293t-152.5 203t-258.5 73q-229 0 -407 -161t-222 -408zM709 1835l141 109l201 -320l-99 -76z" />
<glyph unicode="&#xd3;" horiz-adv-x="1654" d="M129 717q28 157 105 293t185.5 232t248 151t288.5 55q199 0 342 -93.5t204 -261t24 -376.5t-156 -376.5t-295.5 -261t-376.5 -93.5q-149 0 -269 55t-195 151t-103.5 232t-1.5 293zM299 717q-28 -163 17 -293.5t152.5 -203.5t258.5 -73q229 0 407.5 161.5t221.5 408.5 q28 163 -17 293t-152.5 203t-258.5 73q-229 0 -407 -161t-222 -408zM889 1624l313 320l105 -109l-346 -287z" />
<glyph unicode="&#xd4;" horiz-adv-x="1654" d="M129 717q28 157 105 293t185.5 232t248 151t288.5 55q199 0 342 -93.5t204 -261t24 -376.5t-156 -376.5t-295.5 -261t-376.5 -93.5q-149 0 -269 55t-195 151t-103.5 232t-1.5 293zM299 717q-28 -163 17 -293.5t152.5 -203.5t258.5 -73q229 0 407.5 161.5t221.5 408.5 q28 163 -17 293t-152.5 203t-258.5 73q-229 0 -407 -161t-222 -408zM690 1608l350 313l238 -315l-86 -80l-188 190l-254 -190z" />
<glyph unicode="&#xd5;" horiz-adv-x="1654" d="M129 717q28 157 105 293t185.5 232t248 151t288.5 55q199 0 342 -93.5t204 -261t24 -376.5t-156 -376.5t-295.5 -261t-376.5 -93.5q-149 0 -269 55t-195 151t-103.5 232t-1.5 293zM299 717q-28 -163 17 -293.5t152.5 -203.5t258.5 -73q229 0 407.5 161.5t221.5 408.5 q28 163 -17 293t-152.5 203t-258.5 73q-229 0 -407 -161t-222 -408zM668 1561q17 99 79 163t140 64q38 0 74 -17t59 -37.5t49 -37.5t45 -17q28 0 51.5 28.5t30.5 72.5h127q-17 -100 -79 -164t-140 -64q-39 0 -75 17.5t-58 38t-47 38t-45 17.5q-29 0 -53 -28.5t-31 -73.5 h-127z" />
<glyph unicode="&#xd6;" horiz-adv-x="1654" d="M129 717q28 157 105 293t185.5 232t248 151t288.5 55q199 0 342 -93.5t204 -261t24 -376.5t-156 -376.5t-295.5 -261t-376.5 -93.5q-149 0 -269 55t-195 151t-103.5 232t-1.5 293zM299 717q-28 -163 17 -293.5t152.5 -203.5t258.5 -73q229 0 407.5 161.5t221.5 408.5 q28 163 -17 293t-152.5 203t-258.5 73q-229 0 -407 -161t-222 -408zM709 1702q9 49 44.5 78.5t86.5 29.5q50 0 74.5 -29.5t15.5 -78.5q-9 -51 -44.5 -82t-84.5 -31q-51 0 -75.5 31t-16.5 82zM1075 1702q7 49 43.5 78.5t87.5 29.5q49 0 73.5 -29t16.5 -79q-9 -51 -44.5 -82 t-84.5 -31q-51 0 -76 31t-16 82z" />
<glyph unicode="&#xd7;" d="M190 295l320 319l-320 320l105 102l319 -319l320 319l102 -102l-319 -320l319 -319l-102 -102l-320 317l-319 -317z" />
<glyph unicode="&#xd8;" horiz-adv-x="1654" d="M70 -61l192 221q-92 100 -127.5 243.5t-5.5 313.5q28 157 105 293t185.5 232t248 151t288.5 55q201 0 349 -98l129 145h153l-194 -221q92 -100 127.5 -244t5.5 -313q-37 -209 -156 -376.5t-295.5 -261t-376.5 -93.5q-203 0 -346 98l-129 -145h-153zM299 483.5 q23 -108.5 86 -184.5l801 913q-110 74 -258 74q-229 0 -407 -161t-222 -408q-23 -125 0 -233.5zM471 219q112 -72 256 -72q229 0 407.5 161.5t221.5 408.5q23 125 0 232.5t-84 185.5z" />
<glyph unicode="&#xd9;" horiz-adv-x="1550" d="M145 498l166 936h170l-166 -938q-28 -152 74 -250.5t287 -98.5q183 0 319 98.5t164 250.5l164 938h170l-164 -936q-26 -147 -123 -264t-243.5 -182.5t-315.5 -65.5t-293 65.5t-179.5 183t-29.5 263.5zM657 1835l142 109l200 -320l-98 -76z" />
<glyph unicode="&#xda;" horiz-adv-x="1550" d="M145 498l166 936h170l-166 -938q-28 -152 74 -250.5t287 -98.5q183 0 319 98.5t164 250.5l164 938h170l-164 -936q-26 -147 -123 -264t-243.5 -182.5t-315.5 -65.5t-293 65.5t-179.5 183t-29.5 263.5zM838 1624l313 320l104 -109l-344 -287z" />
<glyph unicode="&#xdb;" horiz-adv-x="1550" d="M145 498l166 936h170l-166 -938q-28 -152 74 -250.5t287 -98.5q183 0 319 98.5t164 250.5l164 938h170l-164 -936q-26 -147 -123 -264t-243.5 -182.5t-315.5 -65.5t-293 65.5t-179.5 183t-29.5 263.5zM639 1608l350 313l238 -315l-86 -80l-189 190l-254 -190z" />
<glyph unicode="&#xdc;" horiz-adv-x="1550" d="M145 498l166 936h170l-166 -938q-28 -152 74 -250.5t287 -98.5q183 0 319 98.5t164 250.5l164 938h170l-164 -936q-26 -147 -123 -264t-243.5 -182.5t-315.5 -65.5t-293 65.5t-179.5 183t-29.5 263.5zM657 1702q9 49 44.5 78.5t86.5 29.5q50 0 75 -29.5t16 -78.5 q-9 -51 -44.5 -82t-84.5 -31q-51 0 -76 31t-17 82zM1024 1702q7 49 43.5 78.5t87.5 29.5q49 0 73.5 -29t16.5 -79q-9 -51 -44.5 -82t-84.5 -31q-51 0 -76 31t-16 82z" />
<glyph unicode="&#xdd;" horiz-adv-x="1392" d="M190 1434h191l319 -699l564 699h190l-698 -869l-101 -565h-170l101 569zM758 1624l313 320l103 -109l-345 -287z" />
<glyph unicode="&#xde;" horiz-adv-x="1343" d="M68 0l254 1434h170l-52 -281h451q185 0 282.5 -123t63.5 -313q-32 -190 -173.5 -313t-326.5 -123h-450l-49 -281h-170zM313 434h451q110 0 196.5 80t108.5 203q20 124 -37.5 203t-167.5 79h-450z" />
<glyph unicode="&#xdf;" horiz-adv-x="1261" d="M47 0l195 1100q32 179 181.5 294t348.5 115q192 0 297 -109t76 -280q-20 -111 -91 -200.5t-173 -135.5q123 -36 181.5 -136t33.5 -240q-31 -176 -172 -292t-326 -116h-162l27 143h170q110 0 196.5 80.5t108.5 200.5q22 119 -37 196.5t-170 77.5h-170l25 144h102 q105 0 188 73.5t103 182.5q22 114 -46 186t-192 72q-127 0 -223.5 -73.5t-116.5 -186.5l-192 -1096h-162z" />
<glyph unicode="&#xe0;" horiz-adv-x="1292" d="M72 512q41 229 205 377.5t376 148.5q108 0 193 -42.5t139 -118.5l27 147h162l-181 -1024h-162l27 147q-171 -161 -391 -161q-139 0 -238.5 67.5t-141 188t-15.5 270.5zM233 514q-28 -163 51 -269t228 -106q148 0 263.5 106t144.5 269q29 161 -50 266t-227 105 q-149 0 -265 -105t-145 -266zM424 1425l141 109l201 -320l-98 -75z" />
<glyph unicode="&#xe1;" horiz-adv-x="1292" d="M72 512q41 229 205 377.5t376 148.5q108 0 193 -42.5t139 -118.5l27 147h162l-181 -1024h-162l27 147q-171 -161 -391 -161q-139 0 -238.5 67.5t-141 188t-15.5 270.5zM233 514q-28 -163 51 -269t228 -106q148 0 263.5 106t144.5 269q29 161 -50 266t-227 105 q-149 0 -265 -105t-145 -266zM604 1214l314 320l102 -109l-344 -286z" />
<glyph unicode="&#xe2;" horiz-adv-x="1292" d="M72 512q41 229 205 377.5t376 148.5q108 0 193 -42.5t139 -118.5l27 147h162l-181 -1024h-162l27 147q-171 -161 -391 -161q-139 0 -238.5 67.5t-141 188t-15.5 270.5zM233 514q-28 -163 51 -269t228 -106q148 0 263.5 106t144.5 269q29 161 -50 266t-227 105 q-149 0 -265 -105t-145 -266zM406 1198l350 313l237 -315l-86 -80l-188 191l-254 -191z" />
<glyph unicode="&#xe3;" horiz-adv-x="1292" d="M72 512q41 229 205 377.5t376 148.5q108 0 193 -42.5t139 -118.5l27 147h162l-181 -1024h-162l27 147q-171 -161 -391 -161q-139 0 -238.5 67.5t-141 188t-15.5 270.5zM233 514q-28 -163 51 -269t228 -106q148 0 263.5 106t144.5 269q29 161 -50 266t-227 105 q-149 0 -265 -105t-145 -266zM381 1151q19 100 81 163.5t140 63.5q37 0 73 -17t59.5 -37t49.5 -37t45 -17q27 0 51 28.5t31 71.5h127q-19 -99 -80.5 -163t-138.5 -64q-39 0 -75 17t-58 38t-47 38t-45 17q-29 0 -53 -28t-33 -74h-127z" />
<glyph unicode="&#xe4;" horiz-adv-x="1292" d="M72 512q41 229 205 377.5t376 148.5q108 0 193 -42.5t139 -118.5l27 147h162l-181 -1024h-162l27 147q-171 -161 -391 -161q-139 0 -238.5 67.5t-141 188t-15.5 270.5zM233 514q-28 -163 51 -269t228 -106q148 0 263.5 106t144.5 269q29 161 -50 266t-227 105 q-149 0 -265 -105t-145 -266zM424 1292q9 50 44.5 79.5t86.5 29.5q50 0 74.5 -30t15.5 -79q-9 -51 -44 -81.5t-85 -30.5q-51 0 -76 30.5t-16 81.5zM791 1292q7 49 42.5 79t86.5 30q50 0 74.5 -30t15.5 -79q-7 -51 -43 -81.5t-86 -30.5q-51 0 -75 30.5t-15 81.5z" />
<glyph unicode="&#xe5;" horiz-adv-x="1292" d="M72 512q41 229 205 377.5t376 148.5q108 0 193 -42.5t139 -118.5l27 147h162l-181 -1024h-162l27 147q-171 -161 -391 -161q-139 0 -238.5 67.5t-141 188t-15.5 270.5zM233 514q-28 -163 51 -269t228 -106q148 0 263.5 106t144.5 269q29 161 -50 266t-227 105 q-149 0 -265 -105t-145 -266zM510 1364q17 93 89 153t167 60t146 -60.5t34 -152.5q-17 -94 -88.5 -153.5t-165.5 -59.5q-95 0 -146 59.5t-36 153.5zM629 1366q-8 -46 16 -76t68 -30q43 0 74.5 30t39.5 76q9 44 -13 73t-64 29q-44 0 -79 -29t-42 -73z" />
<glyph unicode="&#xe6;" horiz-adv-x="1961" d="M66 291q26 149 153.5 233t327.5 84h307l14 78q15 95 -53 147t-207 52q-101 0 -174 -28t-133 -83l-92 113q164 151 416 151q157 0 255.5 -52t127.5 -148q83 94 193.5 147t232.5 53q209 0 320.5 -150t70.5 -384q0 -13 -10 -43h-822q-11 -140 80 -231t240 -91q88 0 165.5 31 t131.5 88l106 -104q-80 -80 -190.5 -124t-233.5 -44q-142 0 -246.5 60.5t-156.5 166.5q-64 -103 -193 -165t-290 -62q-182 0 -273.5 80t-66.5 225zM229 303q-13 -77 50 -120.5t182 -43.5q138 0 233.5 53t110.5 136l22 137h-311q-120 0 -196.5 -44t-90.5 -118zM1024 606h649 q0 127 -74.5 203t-201.5 76q-126 0 -227.5 -76.5t-145.5 -202.5z" />
<glyph unicode="&#xe7;" horiz-adv-x="1069" d="M74 512q40 229 211 377.5t395 148.5q214 0 332 -131l-133 -112q-77 90 -228 90q-153 0 -270 -104.5t-145 -266.5q-29 -163 51 -269t233 -106q146 0 260 90l92 -112q-133 -112 -315 -127l-37 -90q6 -1 15.5 -3.5t33.5 -14.5t41 -28.5t27.5 -48.5t3.5 -71 q-15 -86 -85 -137.5t-167 -51.5q-39 0 -74.5 9t-58.5 21.5t-40.5 25t-25.5 21.5l-8 9l64 86q6 -7 16.5 -17.5t47.5 -28t79 -17.5q48 0 82.5 21.5t40.5 56.5q4 22 -10.5 39.5t-38 26.5t-47.5 15t-41 7l-17 2l68 168q-193 23 -291.5 167.5t-60.5 354.5z" />
<glyph unicode="&#xe8;" horiz-adv-x="1198" d="M74 516q40 226 206.5 374t381.5 148q213 0 326.5 -150.5t72.5 -385.5q0 -13 -10 -43h-822q-11 -138 80 -229t240 -91q88 0 165.5 31t131.5 88l106 -104q-80 -80 -193 -124t-237 -44q-236 0 -362.5 149t-85.5 381zM258 604h651q0 127 -74.5 204t-201.5 77q-125 0 -227 -77 t-148 -204zM414 1425l141 109l201 -320l-99 -75z" />
<glyph unicode="&#xe9;" horiz-adv-x="1198" d="M74 516q40 226 206.5 374t381.5 148q213 0 326.5 -150.5t72.5 -385.5q0 -13 -10 -43h-822q-11 -138 80 -229t240 -91q88 0 165.5 31t131.5 88l106 -104q-80 -80 -193 -124t-237 -44q-236 0 -362.5 149t-85.5 381zM258 604h651q0 127 -74.5 204t-201.5 77q-125 0 -227 -77 t-148 -204zM594 1214l313 320l103 -109l-344 -286z" />
<glyph unicode="&#xea;" horiz-adv-x="1198" d="M74 516q40 226 206.5 374t381.5 148q213 0 326.5 -150.5t72.5 -385.5q0 -13 -10 -43h-822q-11 -138 80 -229t240 -91q88 0 165.5 31t131.5 88l106 -104q-80 -80 -193 -124t-237 -44q-236 0 -362.5 149t-85.5 381zM258 604h651q0 127 -74.5 204t-201.5 77q-125 0 -227 -77 t-148 -204zM395 1198l350 313l238 -315l-86 -80l-188 191l-254 -191z" />
<glyph unicode="&#xeb;" horiz-adv-x="1198" d="M74 516q40 226 206.5 374t381.5 148q213 0 326.5 -150.5t72.5 -385.5q0 -13 -10 -43h-822q-11 -138 80 -229t240 -91q88 0 165.5 31t131.5 88l106 -104q-80 -80 -193 -124t-237 -44q-236 0 -362.5 149t-85.5 381zM258 604h651q0 127 -74.5 204t-201.5 77q-125 0 -227 -77 t-148 -204zM414 1292q9 50 44.5 79.5t86.5 29.5q50 0 74.5 -30t15.5 -79q-9 -51 -44 -81.5t-85 -30.5q-51 0 -76 30.5t-16 81.5zM780 1292q7 49 42.5 79t86.5 30q50 0 74.5 -30t15.5 -79q-7 -51 -43 -81.5t-86 -30.5q-51 0 -75 30.5t-15 81.5z" />
<glyph unicode="&#xec;" horiz-adv-x="507" d="M47 0l180 1024h162l-180 -1024h-162zM63 1425l142 109l201 -320l-99 -75z" />
<glyph unicode="&#xed;" horiz-adv-x="507" d="M47 0l180 1024h162l-180 -1024h-162zM244 1214l315 320l103 -109l-345 -286z" />
<glyph unicode="&#xee;" horiz-adv-x="507" d="M45 1198l350 313l240 -315l-88 -80l-189 191l-254 -191zM47 0l180 1024h162l-180 -1024h-162z" />
<glyph unicode="&#xef;" horiz-adv-x="507" d="M47 0l180 1024h162l-180 -1024h-162zM63 1292q9 50 45 79.5t87 29.5q50 0 74.5 -30t15.5 -79q-7 -51 -43 -81.5t-86 -30.5q-51 0 -76 30.5t-17 81.5zM430 1292q9 50 44.5 79.5t86.5 29.5q49 0 73.5 -29.5t16.5 -79.5q-9 -51 -44 -81.5t-85 -30.5q-51 0 -76 30.5t-16 81.5 z" />
<glyph unicode="&#xf0;" horiz-adv-x="1204" d="M84 461q35 200 185.5 332.5t344.5 132.5q63 0 125 -19l-98 211l-207 -102l-39 100l201 101l-100 217h198l62 -140l196 99l41 -103l-194 -94l198 -442q67 -160 43 -297q-37 -204 -196 -337.5t-365 -133.5q-207 0 -319.5 134t-75.5 341zM246 457q-25 -138 49.5 -228 t212.5 -90q135 0 240.5 90t130.5 228q25 136 -49.5 225.5t-208.5 89.5q-138 0 -245 -89.5t-130 -225.5z" />
<glyph unicode="&#xf1;" horiz-adv-x="1292" d="M47 0l180 1024h162l-22 -125q162 139 376 139q189 0 291.5 -108t73.5 -275l-115 -655h-162l115 657q19 100 -51.5 164t-198.5 64q-135 0 -240 -75t-139 -194l-108 -616h-162zM414 1151q19 100 81 163.5t140 63.5q37 0 72.5 -17t58.5 -37t49 -37t45 -17q28 0 52.5 28 t31.5 72h127q-19 -100 -81 -163.5t-140 -63.5q-38 0 -74 17t-58 38t-47 38t-44 17q-30 0 -54.5 -28.5t-31.5 -73.5h-127z" />
<glyph unicode="&#xf2;" d="M74 512q40 229 209 377.5t389 148.5q218 0 334.5 -148.5t76.5 -377.5t-209 -377.5t-389 -148.5q-145 0 -248.5 67.5t-146.5 187.5t-16 271zM236 514q-29 -163 49 -269t227 -106t265.5 106t144.5 269q29 161 -49.5 266t-229.5 105q-149 0 -264 -105t-143 -266zM424 1425 l141 109l201 -320l-98 -75z" />
<glyph unicode="&#xf3;" d="M74 512q40 229 209 377.5t389 148.5q218 0 334.5 -148.5t76.5 -377.5t-209 -377.5t-389 -148.5q-145 0 -248.5 67.5t-146.5 187.5t-16 271zM236 514q-29 -163 49 -269t227 -106t265.5 106t144.5 269q29 161 -49.5 266t-229.5 105q-149 0 -264 -105t-143 -266zM604 1214 l314 320l102 -109l-344 -286z" />
<glyph unicode="&#xf4;" d="M74 512q40 229 209 377.5t389 148.5q218 0 334.5 -148.5t76.5 -377.5t-209 -377.5t-389 -148.5q-145 0 -248.5 67.5t-146.5 187.5t-16 271zM236 514q-29 -163 49 -269t227 -106t265.5 106t144.5 269q29 161 -49.5 266t-229.5 105q-149 0 -264 -105t-143 -266zM406 1198 l350 313l237 -315l-86 -80l-188 191l-254 -191z" />
<glyph unicode="&#xf5;" d="M74 512q40 229 209 377.5t389 148.5q218 0 334.5 -148.5t76.5 -377.5t-209 -377.5t-389 -148.5q-145 0 -248.5 67.5t-146.5 187.5t-16 271zM236 514q-29 -163 49 -269t227 -106t265.5 106t144.5 269q29 161 -49.5 266t-229.5 105q-149 0 -264 -105t-143 -266zM381 1151 q19 100 81 163.5t140 63.5q37 0 73 -17t59.5 -37t49.5 -37t45 -17q27 0 51 28.5t31 71.5h127q-19 -99 -80.5 -163t-138.5 -64q-39 0 -75 17t-58 38t-47 38t-45 17q-29 0 -53 -28t-33 -74h-127z" />
<glyph unicode="&#xf6;" d="M74 512q40 229 209 377.5t389 148.5q218 0 334.5 -148.5t76.5 -377.5t-209 -377.5t-389 -148.5q-145 0 -248.5 67.5t-146.5 187.5t-16 271zM236 514q-29 -163 49 -269t227 -106t265.5 106t144.5 269q29 161 -49.5 266t-229.5 105q-149 0 -264 -105t-143 -266zM424 1292 q9 50 44.5 79.5t86.5 29.5q50 0 74.5 -30t15.5 -79q-9 -51 -44 -81.5t-85 -30.5q-51 0 -76 30.5t-16 81.5zM791 1292q7 49 42.5 79t86.5 30q50 0 74.5 -30t15.5 -79q-7 -51 -43 -81.5t-86 -30.5q-51 0 -75 30.5t-15 81.5z" />
<glyph unicode="&#xf7;" d="M164 543v143h901v-143h-901zM494 203q0 55 33 89t87 34q55 0 88 -33.5t33 -89.5q0 -54 -33 -87.5t-88 -33.5q-54 0 -87 33.5t-33 87.5zM494 1026q0 54 33 87.5t87 33.5q55 0 88 -33.5t33 -87.5q0 -56 -33 -89.5t-88 -33.5q-54 0 -87 34t-33 89z" />
<glyph unicode="&#xf8;" d="M74 512q40 229 209 377.5t389 148.5q118 0 207 -47l71 96h127l-114 -151q79 -72 111 -181.5t9 -242.5q-40 -229 -209 -377.5t-389 -148.5q-116 0 -204 45l-70 -92h-127l113 147q-81 70 -114 181t-9 245zM236 514q-34 -179 65 -289l477 631q-63 29 -135 29 q-149 0 -264 -105t-143 -266zM383 166q55 -27 129 -27q149 0 265.5 106t144.5 269q30 177 -64 283z" />
<glyph unicode="&#xf9;" horiz-adv-x="1292" d="M113 369l114 655h162l-117 -657q-19 -105 47 -166.5t195 -61.5q138 0 243 71t144 187l111 627h162l-181 -1024h-162l23 127q-167 -141 -391 -141q-192 0 -287 103t-63 280zM457 1425l141 109l201 -320l-99 -75z" />
<glyph unicode="&#xfa;" horiz-adv-x="1292" d="M113 369l114 655h162l-117 -657q-19 -105 47 -166.5t195 -61.5q138 0 243 71t144 187l111 627h162l-181 -1024h-162l23 127q-167 -141 -391 -141q-192 0 -287 103t-63 280zM637 1214l313 320l103 -109l-344 -286z" />
<glyph unicode="&#xfb;" horiz-adv-x="1292" d="M113 369l114 655h162l-117 -657q-19 -105 47 -166.5t195 -61.5q138 0 243 71t144 187l111 627h162l-181 -1024h-162l23 127q-167 -141 -391 -141q-192 0 -287 103t-63 280zM438 1198l348 313l240 -315l-86 -80l-188 191l-256 -191z" />
<glyph unicode="&#xfc;" horiz-adv-x="1292" d="M113 369l114 655h162l-117 -657q-19 -105 47 -166.5t195 -61.5q138 0 243 71t144 187l111 627h162l-181 -1024h-162l23 127q-167 -141 -391 -141q-192 0 -287 103t-63 280zM457 1292q9 50 44.5 79.5t86.5 29.5q49 0 73.5 -29.5t16.5 -79.5q-9 -51 -44 -81.5t-85 -30.5 q-51 0 -76 30.5t-16 81.5zM821 1292q9 50 44.5 79.5t86.5 29.5q50 0 74.5 -30t15.5 -79q-9 -51 -44 -81.5t-85 -30.5q-51 0 -75.5 30.5t-16.5 81.5z" />
<glyph unicode="&#xfd;" horiz-adv-x="1292" d="M27 -334l133 113q75 -111 252 -111q168 0 282 99.5t146 275.5l16 102q-165 -159 -405 -159q-188 0 -279 102t-59 283l114 653h162l-117 -655q-19 -108 44 -169t188 -61q148 0 255.5 85t149.5 225l103 575h162l-175 -983q-43 -246 -207 -386t-405 -140q-251 0 -360 151z M637 1214l313 320l103 -109l-344 -286z" />
<glyph unicode="&#xfe;" horiz-adv-x="1292" d="M-35 -471l346 1966h162l-111 -618q81 76 182 118.5t210 42.5q212 0 323 -148.5t70 -377.5q-40 -229 -204 -377.5t-376 -148.5q-218 0 -331 161l-109 -618h-162zM301 510q-28 -162 50 -266.5t227 -104.5t264 105t143 266q29 163 -48.5 269t-227.5 106q-148 0 -263.5 -106 t-144.5 -269z" />
<glyph unicode="&#xff;" horiz-adv-x="1292" d="M27 -334l133 113q75 -111 252 -111q168 0 282 99.5t146 275.5l16 102q-165 -159 -405 -159q-188 0 -279 102t-59 283l114 653h162l-117 -655q-19 -108 44 -169t188 -61q148 0 255.5 85t149.5 225l103 575h162l-175 -983q-43 -246 -207 -386t-405 -140q-251 0 -360 151z M457 1292q9 50 44.5 79.5t86.5 29.5q49 0 73.5 -29.5t16.5 -79.5q-9 -51 -44 -81.5t-85 -30.5q-51 0 -76 30.5t-16 81.5zM821 1292q9 50 44.5 79.5t86.5 29.5q50 0 74.5 -30t15.5 -79q-9 -51 -44 -81.5t-85 -30.5q-51 0 -75.5 30.5t-16.5 81.5z" />
<glyph unicode="&#x13f;" horiz-adv-x="1230" d="M68 0l254 1434h170l-228 -1280h799l-27 -154h-968zM774 717q9 55 48 88t93 33q55 0 83 -33t18 -88q-9 -54 -48.5 -87.5t-93.5 -33.5q-55 0 -83 33.5t-17 87.5z" />
<glyph unicode="&#x140;" horiz-adv-x="833" d="M47 0l264 1495h162l-264 -1495h-162zM549 717q11 56 49.5 88.5t93.5 32.5t83 -33t18 -88q-9 -54 -48.5 -87.5t-93.5 -33.5q-55 0 -83 33.5t-19 87.5z" />
<glyph unicode="&#x152;" horiz-adv-x="2512" d="M129 717q36 209 154 376.5t291.5 261t369.5 93.5q180 0 313 -81.5t199 -225.5l53 293h981l-26 -154h-838l-86 -477h756l-27 -154h-756l-88 -495h838l-27 -154h-981l52 291q-117 -143 -279 -224t-342 -81q-196 0 -336 93.5t-199 261t-22 376.5zM299 717 q-28 -163 17 -293.5t152.5 -203.5t258.5 -73q229 0 407.5 161.5t221.5 408.5q28 163 -17 293t-152.5 203t-258.5 73q-229 0 -407.5 -161t-221.5 -408z" />
<glyph unicode="&#x153;" horiz-adv-x="2045" d="M72 512q41 229 208 377.5t382 148.5q143 0 245 -69t142 -189q84 120 208 189t263 69q137 0 235.5 -67.5t140.5 -190.5t15 -278q0 -2 -1.5 -8.5t-4 -17t-4.5 -17.5h-824q-9 -138 82 -229t240 -91q87 0 165 31t132 88l106 -104q-80 -80 -191.5 -124t-232.5 -44 q-155 0 -265 70.5t-155 193.5q-84 -123 -210.5 -193.5t-270.5 -70.5q-143 0 -244.5 67.5t-144 187.5t-16.5 271zM236 514q-29 -163 49 -269t227 -106t266 106t146 269q28 161 -51 266t-228 105q-151 0 -266 -105t-143 -266zM1108 604h649q0 127 -74 204t-200 77 q-125 0 -227 -77t-148 -204z" />
<glyph unicode="&#x178;" horiz-adv-x="1392" d="M190 1434h191l319 -699l564 699h190l-698 -869l-101 -565h-170l101 569zM578 1702q9 49 44.5 78.5t86.5 29.5q50 0 74.5 -29.5t15.5 -78.5q-9 -51 -44.5 -82t-84.5 -31q-51 0 -76 31t-16 82zM942 1702q9 49 44.5 78.5t86.5 29.5q50 0 74.5 -29.5t15.5 -78.5 q-9 -51 -44.5 -82t-84.5 -31q-51 0 -75.5 31t-16.5 82z" />
<glyph unicode="&#x2c6;" horiz-adv-x="813" d="M250 1491l348 313l240 -315l-88 -80l-187 190l-256 -190z" />
<glyph unicode="&#x2dc;" horiz-adv-x="841" d="M242 1446q17 98 79 162.5t140 64.5q37 0 73 -17t59.5 -38t49.5 -38t45 -17q27 0 51 29t31 71h127q-17 -98 -79 -162.5t-140 -64.5q-39 0 -75 17.5t-58 38.5t-47 38.5t-45 17.5q-29 0 -52.5 -29t-31.5 -73h-127z" />
<glyph unicode="&#x2000;" horiz-adv-x="972" />
<glyph unicode="&#x2001;" horiz-adv-x="1944" />
<glyph unicode="&#x2002;" horiz-adv-x="972" />
<glyph unicode="&#x2003;" horiz-adv-x="1944" />
<glyph unicode="&#x2004;" horiz-adv-x="648" />
<glyph unicode="&#x2005;" horiz-adv-x="486" />
<glyph unicode="&#x2006;" horiz-adv-x="324" />
<glyph unicode="&#x2007;" horiz-adv-x="324" />
<glyph unicode="&#x2008;" horiz-adv-x="243" />
<glyph unicode="&#x2009;" horiz-adv-x="388" />
<glyph unicode="&#x200a;" horiz-adv-x="108" />
<glyph unicode="&#x2010;" horiz-adv-x="819" d="M133 502l25 143h479l-25 -143h-479z" />
<glyph unicode="&#x2011;" horiz-adv-x="819" d="M133 502l25 143h479l-25 -143h-479z" />
<glyph unicode="&#x2012;" horiz-adv-x="819" d="M133 502l25 143h479l-25 -143h-479z" />
<glyph unicode="&#x2013;" d="M133 502l25 143h889l-25 -143h-889z" />
<glyph unicode="&#x2014;" horiz-adv-x="2048" d="M133 502l25 143h1708l-25 -143h-1708z" />
<glyph unicode="&#x2018;" horiz-adv-x="501" d="M166 1034l246 455l104 -31l-203 -469z" />
<glyph unicode="&#x2019;" horiz-adv-x="501" d="M195 1020l202 469l150 -45l-248 -455z" />
<glyph unicode="&#x201a;" horiz-adv-x="501" d="M-47 -266l203 469l149 -43l-248 -455z" />
<glyph unicode="&#x201c;" horiz-adv-x="808" d="M166 1034l246 455l104 -31l-203 -469zM489 1034l248 455l105 -31l-203 -469z" />
<glyph unicode="&#x201d;" horiz-adv-x="808" d="M162 1020l203 469l151 -45l-250 -455zM485 1020l205 469l150 -45l-248 -455z" />
<glyph unicode="&#x201e;" horiz-adv-x="827" d="M-47 -266l203 469l149 -43l-248 -455zM276 -266l203 469l152 -43l-248 -455z" />
<glyph unicode="&#x2022;" horiz-adv-x="940" d="M145 573q23 135 120.5 218t232.5 83q136 0 203 -82.5t44 -218.5q-25 -135 -121.5 -217t-232.5 -82q-135 0 -203 82t-43 217z" />
<glyph unicode="&#x2026;" horiz-adv-x="1525" d="M25 109q11 54 50 87t93 33q55 0 82 -33t18 -87q-9 -55 -48 -89t-95 -34q-54 0 -81.5 34t-18.5 89zM535 109q9 54 48.5 87t94.5 33q54 0 81.5 -33t18.5 -87q-10 -55 -49.5 -89t-93.5 -34q-55 0 -82 33.5t-18 89.5zM1042 109q9 54 49.5 87t94.5 33q55 0 82 -33t18 -87 q-9 -55 -48 -89t-95 -34q-54 0 -82 34t-19 89z" />
<glyph unicode="&#x202f;" horiz-adv-x="388" />
<glyph unicode="&#x2039;" horiz-adv-x="679" d="M84 573l422 426l84 -63l-307 -363l180 -362l-107 -64z" />
<glyph unicode="&#x203a;" horiz-adv-x="679" d="M41 211l307 362l-180 363l104 63l275 -426l-424 -426z" />
<glyph unicode="&#x2044;" horiz-adv-x="266" d="M-518 59l1212 1381l90 -74l-1212 -1382z" />
<glyph unicode="&#x205f;" horiz-adv-x="486" />
<glyph unicode="&#x20ac;" horiz-adv-x="1509" d="M2 481l27 144h157q6 97 33 184h-160l27 143h186q105 225 308 360.5t444 135.5q155 0 277 -57.5t198 -161.5l-147 -109q-60 79 -151 122.5t-206 43.5q-167 0 -312 -90t-232 -244h657l-25 -143h-694q-27 -88 -33 -184h695l-25 -144h-657q33 -154 146 -244t280 -90 q233 0 413 166l111 -108q-114 -104 -256.5 -161.5t-296.5 -57.5q-240 0 -395 135t-183 360h-186z" />
<glyph unicode="&#x2122;" horiz-adv-x="1517" d="M129 1311l23 123h591l-22 -123h-225l-107 -594h-139l106 594h-227zM705 717l126 717h146l156 -385l288 385h148l-127 -717h-142l86 487l-245 -334h-82l-127 334l-86 -487h-141z" />
<glyph unicode="&#x2460;" horiz-adv-x="1925" d="M129 717q0 170 66 324t177.5 265.5t266 177.5t324.5 66q227 0 418.5 -111.5t303 -303t111.5 -418.5q0 -170 -66 -324.5t-177.5 -266t-265.5 -177.5t-324 -66t-324.5 66t-266 177.5t-177.5 266t-66 324.5zM274 717q0 -187 92 -345.5t251 -250.5t346 -92t345.5 92 t250.5 250.5t92 345.5t-92 345.5t-250.5 250.5t-345.5 92t-346 -92t-251 -250.5t-92 -345.5zM725 926l199 149h141v-717h-141v551l-117 -90z" />
<glyph unicode="&#x2461;" horiz-adv-x="1925" d="M129 717q0 170 66 324t177.5 265.5t266 177.5t324.5 66q227 0 418.5 -111.5t303 -303t111.5 -418.5q0 -170 -66 -324.5t-177.5 -266t-265.5 -177.5t-324 -66t-324.5 66t-266 177.5t-177.5 266t-66 324.5zM274 717q0 -187 92 -345.5t251 -250.5t346 -92t345.5 92 t250.5 250.5t92 345.5t-92 345.5t-250.5 250.5t-345.5 92t-346 -92t-251 -250.5t-92 -345.5zM709 961q91 120 247 120q109 0 174.5 -56t65.5 -151q0 -51 -18.5 -95t-54.5 -82.5t-71 -68t-87 -71t-84 -70.5h315v-133h-477v133q16 35 58 76t89.5 78t93 75t75.5 78t30 76 t-30 57t-77 21q-86 0 -153 -84z" />
<glyph unicode="&#x2462;" horiz-adv-x="1925" d="M129 717q0 170 66 324t177.5 265.5t266 177.5t324.5 66q227 0 418.5 -111.5t303 -303t111.5 -418.5q0 -170 -66 -324.5t-177.5 -266t-265.5 -177.5t-324 -66t-324.5 66t-266 177.5t-177.5 266t-66 324.5zM274 717q0 -187 92 -345.5t251 -250.5t346 -92t345.5 92 t250.5 250.5t92 345.5t-92 345.5t-250.5 250.5t-345.5 92t-346 -92t-251 -250.5t-92 -345.5zM711 461l96 96q26 -34 66.5 -54t82.5 -20q52 0 85.5 27t33.5 68q0 39 -31 64.5t-77 25.5h-41v116h49q38 0 62 23.5t24 60.5q0 38 -28.5 61t-71.5 23t-80.5 -23t-61.5 -61l-96 99 q37 54 103 86t143 32q102 0 167.5 -55t65.5 -143q0 -50 -22.5 -91.5t-61.5 -66.5q96 -61 96 -168q0 -91 -73 -152t-183 -61q-74 0 -141 31.5t-106 81.5z" />
<glyph unicode="&#x2463;" horiz-adv-x="1925" d="M129 717q0 170 66 324t177.5 265.5t266 177.5t324.5 66q227 0 418.5 -111.5t303 -303t111.5 -418.5q0 -170 -66 -324.5t-177.5 -266t-265.5 -177.5t-324 -66t-324.5 66t-266 177.5t-177.5 266t-66 324.5zM274 717q0 -187 92 -345.5t251 -250.5t346 -92t345.5 92 t250.5 250.5t92 345.5t-92 345.5t-250.5 250.5t-345.5 92t-346 -92t-251 -250.5t-92 -345.5zM645 506v127l336 442h141v-442h97v-127h-97v-148h-141v148h-336zM791 633h194v256z" />
<glyph unicode="&#x2464;" horiz-adv-x="1925" d="M129 717q0 170 66 324t177.5 265.5t266 177.5t324.5 66q227 0 418.5 -111.5t303 -303t111.5 -418.5q0 -170 -66 -324.5t-177.5 -266t-265.5 -177.5t-324 -66t-324.5 66t-266 177.5t-177.5 266t-66 324.5zM274 717q0 -187 92 -345.5t251 -250.5t346 -92t345.5 92 t250.5 250.5t92 345.5t-92 345.5t-250.5 250.5t-345.5 92t-346 -92t-251 -250.5t-92 -345.5zM715 473l96 98q53 -82 139 -82q55 0 89 29.5t34 75.5q0 47 -33.5 77.5t-87.5 30.5h-172v379h371v-135h-250v-121h53q112 0 185 -66t73 -167q0 -103 -75 -170.5t-191 -67.5 q-148 0 -231 119z" />
<glyph unicode="&#x2465;" horiz-adv-x="1925" d="M129 717q0 170 66 324t177.5 265.5t266 177.5t324.5 66q227 0 418.5 -111.5t303 -303t111.5 -418.5q0 -170 -66 -324.5t-177.5 -266t-265.5 -177.5t-324 -66t-324.5 66t-266 177.5t-177.5 266t-66 324.5zM274 717q0 -187 92 -345.5t251 -250.5t346 -92t345.5 92 t250.5 250.5t92 345.5t-92 345.5t-250.5 250.5t-345.5 92t-346 -92t-251 -250.5t-92 -345.5zM709 606q0 76 49 160l194 315h152l-146 -237q28 4 46 4q93 0 154 -68.5t61 -173.5q0 -109 -72.5 -180.5t-181.5 -71.5q-110 0 -183 71.5t-73 180.5zM848 604q0 -50 33.5 -82.5 t83.5 -32.5q48 0 80 32.5t32 82.5q0 49 -32.5 82t-79.5 33q-50 0 -83.5 -33t-33.5 -82z" />
<glyph unicode="&#x2466;" horiz-adv-x="1925" d="M129 717q0 170 66 324t177.5 265.5t266 177.5t324.5 66q227 0 418.5 -111.5t303 -303t111.5 -418.5q0 -170 -66 -324.5t-177.5 -266t-265.5 -177.5t-324 -66t-324.5 66t-266 177.5t-177.5 266t-66 324.5zM274 717q0 -187 92 -345.5t251 -250.5t346 -92t345.5 92 t250.5 250.5t92 345.5t-92 345.5t-250.5 250.5t-345.5 92t-346 -92t-251 -250.5t-92 -345.5zM727 952v123h473v-123l-242 -594h-143l244 594h-332z" />
<glyph unicode="&#x2467;" horiz-adv-x="1925" d="M129 717q0 170 66 324t177.5 265.5t266 177.5t324.5 66q227 0 418.5 -111.5t303 -303t111.5 -418.5q0 -170 -66 -324.5t-177.5 -266t-265.5 -177.5t-324 -66t-324.5 66t-266 177.5t-177.5 266t-66 324.5zM274 717q0 -187 92 -345.5t251 -250.5t346 -92t345.5 92 t250.5 250.5t92 345.5t-92 345.5t-250.5 250.5t-345.5 92t-346 -92t-251 -250.5t-92 -345.5zM715 563q0 54 28 99t76 73q-90 55 -90 160q0 83 66.5 136.5t169.5 53.5q101 0 167 -54.5t66 -137.5q0 -102 -88 -158q100 -59 100 -172q0 -93 -69 -154t-176 -61q-108 0 -179 61 t-71 154zM856 578q0 -42 31 -68.5t78 -26.5q46 0 75 26t29 69q0 40 -29 66t-75 26t-77.5 -26.5t-31.5 -65.5zM868 877q0 -35 27.5 -57.5t69.5 -22.5q40 0 67 22.5t27 57.5q0 32 -27 53.5t-67 21.5q-41 0 -69 -21.5t-28 -53.5z" />
<glyph unicode="&#x2468;" horiz-adv-x="1925" d="M129 717q0 170 66 324t177.5 265.5t266 177.5t324.5 66q227 0 418.5 -111.5t303 -303t111.5 -418.5q0 -170 -66 -324.5t-177.5 -266t-265.5 -177.5t-324 -66t-324.5 66t-266 177.5t-177.5 266t-66 324.5zM274 717q0 -187 92 -345.5t251 -250.5t346 -92t345.5 92 t250.5 250.5t92 345.5t-92 345.5t-250.5 250.5t-345.5 92t-346 -92t-251 -250.5t-92 -345.5zM709 829q0 109 72 180.5t184 71.5q108 0 181 -71.5t73 -178.5q0 -76 -50 -161l-198 -316h-156l148 238q-12 -2 -39 -2q-94 0 -154.5 67.5t-60.5 171.5zM848 834q0 -50 33.5 -82.5 t83.5 -32.5q48 0 80 32.5t32 82.5q0 49 -32 81.5t-80 32.5q-50 0 -83.5 -32.5t-33.5 -81.5z" />
<glyph unicode="&#x24ea;" horiz-adv-x="1925" d="M129 717q0 170 66 324t177.5 265.5t266 177.5t324.5 66q227 0 418.5 -111.5t303 -303t111.5 -418.5q0 -170 -66 -324.5t-177.5 -266t-265.5 -177.5t-324 -66t-324.5 66t-266 177.5t-177.5 266t-66 324.5zM274 717q0 -187 92 -345.5t251 -250.5t346 -92t345.5 92 t250.5 250.5t92 345.5t-92 345.5t-250.5 250.5t-345.5 92t-346 -92t-251 -250.5t-92 -345.5zM680 717q0 160 81 264t204 104t202.5 -104t79.5 -264t-79.5 -264.5t-202.5 -104.5t-204 104.5t-81 264.5zM819 717q0 -102 41 -168t103 -66t102.5 66t40.5 168t-40.5 168.5 t-102.5 66.5t-103 -66.5t-41 -168.5z" />
<glyph unicode="&#x24ff;" horiz-adv-x="1925" d="M129 717q0 170 66 324t177.5 265.5t266 177.5t324.5 66q227 0 418.5 -111.5t303 -303t111.5 -418.5q0 -170 -66 -324.5t-177.5 -266t-265.5 -177.5t-324 -66t-324.5 66t-266 177.5t-177.5 266t-66 324.5zM680 717q0 -160 81 -264.5t204 -104.5t202.5 104.5t79.5 264.5 t-79.5 264t-202.5 104t-204 -104t-81 -264zM819 717q0 102 41 168.5t103 66.5t102.5 -66.5t40.5 -168.5t-40.5 -168t-102.5 -66t-103 66t-41 168z" />
<glyph unicode="&#x25fc;" horiz-adv-x="1024" d="M0 0v1024h1024v-1024h-1024z" />
<glyph unicode="&#x278a;" horiz-adv-x="1925" d="M129 717q0 170 66 324t177.5 265.5t266 177.5t324.5 66q227 0 418.5 -111.5t303 -303t111.5 -418.5q0 -170 -66 -324.5t-177.5 -266t-265.5 -177.5t-324 -66t-324.5 66t-266 177.5t-177.5 266t-66 324.5zM725 926l82 -107l117 90v-551h141v717h-141z" />
<glyph unicode="&#x278b;" horiz-adv-x="1925" d="M129 717q0 170 66 324t177.5 265.5t266 177.5t324.5 66q227 0 418.5 -111.5t303 -303t111.5 -418.5q0 -170 -66 -324.5t-177.5 -266t-265.5 -177.5t-324 -66t-324.5 66t-266 177.5t-177.5 266t-66 324.5zM709 961l96 -97q67 84 153 84q47 0 77 -21t30 -57t-30 -76 t-75.5 -78t-93 -75t-89.5 -78t-58 -76v-133h477v133h-315q32 29 84 70.5t87 71t71 68t54.5 82.5t18.5 95q0 95 -65.5 151t-174.5 56q-156 0 -247 -120z" />
<glyph unicode="&#x278c;" horiz-adv-x="1925" d="M129 717q0 170 66 324t177.5 265.5t266 177.5t324.5 66q227 0 418.5 -111.5t303 -303t111.5 -418.5q0 -170 -66 -324.5t-177.5 -266t-265.5 -177.5t-324 -66t-324.5 66t-266 177.5t-177.5 266t-66 324.5zM711 461q39 -50 106 -81.5t141 -31.5q110 0 183 61t73 152 q0 107 -96 168q39 25 61.5 66.5t22.5 91.5q0 88 -65.5 143t-167.5 55q-77 0 -143 -32t-103 -86l96 -99q24 38 61.5 61t80.5 23t71.5 -23t28.5 -61q0 -37 -24 -60.5t-62 -23.5h-49v-116h41q46 0 77 -25.5t31 -64.5q0 -41 -33.5 -68t-85.5 -27q-42 0 -82.5 20t-66.5 54z" />
<glyph unicode="&#x278d;" horiz-adv-x="1925" d="M129 717q0 170 66 324t177.5 265.5t266 177.5t324.5 66q227 0 418.5 -111.5t303 -303t111.5 -418.5q0 -170 -66 -324.5t-177.5 -266t-265.5 -177.5t-324 -66t-324.5 66t-266 177.5t-177.5 266t-66 324.5zM645 506h336v-148h141v148h97v127h-97v442h-141l-336 -442v-127z M791 633l194 256v-256h-194z" />
<glyph unicode="&#x278e;" horiz-adv-x="1925" d="M129 717q0 170 66 324t177.5 265.5t266 177.5t324.5 66q227 0 418.5 -111.5t303 -303t111.5 -418.5q0 -170 -66 -324.5t-177.5 -266t-265.5 -177.5t-324 -66t-324.5 66t-266 177.5t-177.5 266t-66 324.5zM715 473q83 -119 231 -119q116 0 191 67.5t75 170.5 q0 101 -73 167t-185 66h-53v121h250v135h-371v-379h172q54 0 87.5 -30.5t33.5 -77.5q0 -46 -34 -75.5t-89 -29.5q-86 0 -139 82z" />
<glyph unicode="&#x278f;" horiz-adv-x="1925" d="M129 717q0 170 66 324t177.5 265.5t266 177.5t324.5 66q227 0 418.5 -111.5t303 -303t111.5 -418.5q0 -170 -66 -324.5t-177.5 -266t-265.5 -177.5t-324 -66t-324.5 66t-266 177.5t-177.5 266t-66 324.5zM709 606q0 -109 73 -180.5t183 -71.5q109 0 181.5 71.5 t72.5 180.5q0 105 -61 173.5t-154 68.5q-34 0 -48 -6l148 239h-152l-194 -315q-49 -84 -49 -160zM848 604q0 49 33.5 82t83.5 33q47 0 79.5 -33t32.5 -82q0 -50 -32 -82.5t-80 -32.5q-50 0 -83.5 32.5t-33.5 82.5z" />
<glyph unicode="&#x2790;" horiz-adv-x="1925" d="M129 717q0 170 66 324t177.5 265.5t266 177.5t324.5 66q227 0 418.5 -111.5t303 -303t111.5 -418.5q0 -170 -66 -324.5t-177.5 -266t-265.5 -177.5t-324 -66t-324.5 66t-266 177.5t-177.5 266t-66 324.5zM727 952h332l-244 -594h143l242 594v123h-473v-123z" />
<glyph unicode="&#x2791;" horiz-adv-x="1925" d="M129 717q0 170 66 324t177.5 265.5t266 177.5t324.5 66q227 0 418.5 -111.5t303 -303t111.5 -418.5q0 -170 -66 -324.5t-177.5 -266t-265.5 -177.5t-324 -66t-324.5 66t-266 177.5t-177.5 266t-66 324.5zM715 563q0 -93 71 -154t179 -61q107 0 176 61t69 154 q0 55 -27 100t-75 72q42 25 66 66.5t24 91.5q0 83 -66 137.5t-167 54.5q-103 0 -169.5 -53.5t-66.5 -136.5q0 -49 24.5 -91.5t67.5 -68.5q-50 -26 -78 -71.5t-28 -100.5zM856 578q0 39 31.5 65.5t77.5 26.5t75 -26t29 -66q0 -43 -29 -69t-75 -26q-47 0 -78 26.5t-31 68.5z M868 877q0 32 28 53.5t69 21.5q40 0 67 -21.5t27 -53.5q0 -35 -27 -57.5t-67 -22.5q-42 0 -69.5 22.5t-27.5 57.5z" />
<glyph unicode="&#x2792;" horiz-adv-x="1925" d="M129 717q0 170 66 324t177.5 265.5t266 177.5t324.5 66q227 0 418.5 -111.5t303 -303t111.5 -418.5q0 -170 -66 -324.5t-177.5 -266t-265.5 -177.5t-324 -66t-324.5 66t-266 177.5t-177.5 266t-66 324.5zM709 829q0 -104 60.5 -171.5t154.5 -67.5q29 0 41 6l-150 -242 h156l198 316q50 82 50 161q0 107 -73 178.5t-181 71.5q-112 0 -184 -71.5t-72 -180.5zM848 834q0 49 33.5 81.5t83.5 32.5q48 0 80 -32.5t32 -81.5q0 -50 -32 -82.5t-80 -32.5q-50 0 -83.5 32.5t-33.5 82.5z" />
<glyph horiz-adv-x="1210" d="M-12 260l164 84q17 -90 91 -143.5t183 -53.5q143 0 251.5 87.5t131.5 220.5l174 979h170l-174 -977q-35 -204 -200 -337.5t-380 -133.5q-160 0 -269 74t-142 200zM1001 1624l316 320l102 -109l-344 -287z" />
<glyph horiz-adv-x="1189" d="M47 291q26 149 154 234t327 85h308l12 76q17 95 -51 147t-207 52q-190 0 -307 -111l-95 113q167 151 426 151q216 0 320.5 -92.5t75.5 -255.5l-121 -690h-162l16 86q-149 -100 -358 -100q-182 0 -273 80t-65 225zM211 305q-13 -78 49.5 -122t181.5 -44q134 0 227 49.5 t113 128.5l27 150h-311q-120 0 -196.5 -44t-90.5 -118z" />
<glyph horiz-adv-x="1189" d="M47 291q26 149 154 234t327 85h308l12 76q17 95 -51 147t-207 52q-190 0 -307 -111l-95 113q167 151 426 151q216 0 320.5 -92.5t75.5 -255.5l-121 -690h-162l16 86q-149 -100 -358 -100q-182 0 -273 80t-65 225zM211 305q-13 -78 49.5 -122t181.5 -44q134 0 227 49.5 t113 128.5l27 150h-311q-120 0 -196.5 -44t-90.5 -118zM559 1214l315 320l103 -109l-344 -286z" />
<glyph horiz-adv-x="1189" d="M47 291q26 149 154 234t327 85h308l12 76q17 95 -51 147t-207 52q-190 0 -307 -111l-95 113q167 151 426 151q216 0 320.5 -92.5t75.5 -255.5l-121 -690h-162l16 86q-149 -100 -358 -100q-182 0 -273 80t-65 225zM211 305q-13 -78 49.5 -122t181.5 -44q134 0 227 49.5 t113 128.5l27 150h-311q-120 0 -196.5 -44t-90.5 -118zM360 1198l351 313l239 -315l-88 -80l-188 191l-254 -191z" />
<glyph horiz-adv-x="1189" d="M47 291q26 149 154 234t327 85h308l12 76q17 95 -51 147t-207 52q-190 0 -307 -111l-95 113q167 151 426 151q216 0 320.5 -92.5t75.5 -255.5l-121 -690h-162l16 86q-149 -100 -358 -100q-182 0 -273 80t-65 225zM211 305q-13 -78 49.5 -122t181.5 -44q134 0 227 49.5 t113 128.5l27 150h-311q-120 0 -196.5 -44t-90.5 -118zM379 1425l141 109l201 -320l-98 -75z" />
<glyph horiz-adv-x="1189" d="M47 291q26 149 154 234t327 85h308l12 76q17 95 -51 147t-207 52q-190 0 -307 -111l-95 113q167 151 426 151q216 0 320.5 -92.5t75.5 -255.5l-121 -690h-162l16 86q-149 -100 -358 -100q-182 0 -273 80t-65 225zM211 305q-13 -78 49.5 -122t181.5 -44q134 0 227 49.5 t113 128.5l27 150h-311q-120 0 -196.5 -44t-90.5 -118zM379 1292q9 50 44.5 79.5t86.5 29.5q50 0 74.5 -30t15.5 -79q-7 -51 -43 -81.5t-86 -30.5q-51 0 -75.5 30.5t-16.5 81.5zM745 1292q9 50 45 79.5t87 29.5q49 0 73.5 -29.5t16.5 -79.5q-9 -51 -44 -81.5t-85 -30.5 q-51 0 -76.5 30.5t-16.5 81.5z" />
<glyph horiz-adv-x="1189" d="M47 291q26 149 154 234t327 85h308l12 76q17 95 -51 147t-207 52q-190 0 -307 -111l-95 113q167 151 426 151q216 0 320.5 -92.5t75.5 -255.5l-121 -690h-162l16 86q-149 -100 -358 -100q-182 0 -273 80t-65 225zM211 305q-13 -78 49.5 -122t181.5 -44q134 0 227 49.5 t113 128.5l27 150h-311q-120 0 -196.5 -44t-90.5 -118zM467 1364q15 92 88 152.5t168 60.5q94 0 144.5 -60.5t33.5 -152.5q-15 -93 -87.5 -153t-166.5 -60q-96 0 -146.5 60t-33.5 153zM584 1366q-8 -46 16 -76t68 -30q42 0 74.5 30t41.5 76q8 44 -14 73t-65 29 q-44 0 -78 -29t-43 -73z" />
<glyph horiz-adv-x="1189" d="M47 291q26 149 154 234t327 85h308l12 76q17 95 -51 147t-207 52q-190 0 -307 -111l-95 113q167 151 426 151q216 0 320.5 -92.5t75.5 -255.5l-121 -690h-162l16 86q-149 -100 -358 -100q-182 0 -273 80t-65 225zM211 305q-13 -78 49.5 -122t181.5 -44q134 0 227 49.5 t113 128.5l27 150h-311q-120 0 -196.5 -44t-90.5 -118zM338 1151q17 99 79 163t140 64q38 0 74 -17t59 -37t49 -37t45 -17q28 0 51.5 28t30.5 72h127q-17 -99 -79 -163t-140 -64q-38 0 -74 17t-58 38t-47.5 38t-45.5 17q-28 0 -52.5 -28.5t-31.5 -73.5h-127z" />
<glyph horiz-adv-x="829" d="M121 913q19 103 109.5 160t236.5 57h192l13 62q12 64 -35 101.5t-139 37.5q-123 0 -207 -71l-72 69q115 115 305 115q150 0 223.5 -64.5t53.5 -179.5l-86 -483h-127l12 67q-108 -77 -256 -77q-121 0 -180.5 54t-42.5 152zM252 928q-9 -55 33.5 -88t120.5 -33t136.5 30 t80.5 81l22 131h-196q-81 0 -133.5 -32.5t-63.5 -88.5z" />
<glyph horiz-adv-x="507" d="M-319 -485l26 153q133 0 218.5 64t105.5 178l196 1114h162l-196 -1116q-32 -186 -167.5 -289.5t-344.5 -103.5zM244 1214l315 320l103 -109l-345 -286z" />
<glyph horiz-adv-x="1130" d="M102 1024h162l217 -879l498 879h158l-842 -1495h-162l236 416z" />
<glyph horiz-adv-x="1130" d="M102 1024h162l217 -879l498 879h158l-842 -1495h-162l236 416zM555 1214l313 320l103 -109l-344 -286z" />
<glyph horiz-adv-x="1130" d="M102 1024h162l217 -879l498 879h158l-842 -1495h-162l236 416zM375 1292q9 50 44.5 79.5t86.5 29.5q50 0 74.5 -30t15.5 -79q-9 -51 -44 -81.5t-85 -30.5q-51 0 -76 30.5t-16 81.5zM741 1292q7 49 42.5 79t86.5 30q50 0 75 -30t16 -79q-7 -50 -43.5 -81t-86.5 -31 q-51 0 -75 30.5t-15 81.5z" />
<glyph horiz-adv-x="1130" d="M-61 -461l26 144q57 -23 121 -23q57 0 109.5 35.5t87.5 99.5l86 150l-267 1079h162l217 -879l498 879h158l-715 -1268q-62 -110 -157.5 -175.5t-196.5 -65.5q-72 0 -129 24z" />
<glyph horiz-adv-x="1130" d="M-61 -461l26 144q57 -23 121 -23q57 0 109.5 35.5t87.5 99.5l86 150l-267 1079h162l217 -879l498 879h158l-715 -1268q-62 -110 -157.5 -175.5t-196.5 -65.5q-72 0 -129 24zM555 1214l313 320l103 -109l-344 -286z" />
<glyph horiz-adv-x="1130" d="M-61 -461l26 144q57 -23 121 -23q57 0 109.5 35.5t87.5 99.5l86 150l-267 1079h162l217 -879l498 879h158l-715 -1268q-62 -110 -157.5 -175.5t-196.5 -65.5q-72 0 -129 24zM375 1292q9 50 44.5 79.5t86.5 29.5q50 0 74.5 -30t15.5 -79q-9 -51 -44 -81.5t-85 -30.5 q-51 0 -76 30.5t-16 81.5zM741 1292q7 49 42.5 79t86.5 30q50 0 75 -30t16 -79q-7 -50 -43.5 -81t-86.5 -31q-51 0 -75 30.5t-15 81.5z" />
<glyph d="M76.5 424q-17.5 134 11.5 293q36 209 134 376.5t235 261t288 93.5q150 0 253.5 -93.5t142 -261t2.5 -376.5t-134 -376.5t-235 -261t-287 -93.5q-113 0 -201.5 54.5t-140 152t-69 231.5zM253.5 422.5q21.5 -126.5 91 -201t171.5 -74.5q154 0 284 161.5t173 408.5 q26 168 4.5 294.5t-90.5 200.5t-170 74q-156 0 -286 -161t-173 -408q-26 -168 -4.5 -294.5z" />
<glyph d="M104 0l29 162h375l190 1073l-362 -248l-76 129l473 318h170l-225 -1272h375l-29 -162h-920z" />
<glyph d="M20 0l29 162q36 55 103 117t144.5 118.5t164.5 117t168.5 123t150.5 126t116.5 135.5t59.5 143q20 114 -50 179t-204 65q-220 0 -380 -178l-97 119q97 106 227.5 163.5t278.5 57.5q207 0 313 -108t74 -293q-17 -98 -71.5 -190.5t-126 -164t-166 -146.5t-179.5 -132 t-178.5 -126.5t-152.5 -125.5h733l-29 -162h-928z" />
<glyph d="M31 207l139 119q89 -179 303 -179q141 0 246 75.5t125 189.5t-55.5 187t-210.5 73h-91l27 153h100q117 0 205 65.5t105 166.5q19 104 -49.5 166.5t-198.5 62.5q-208 0 -357 -186l-96 117q189 231 484 231q204 0 312 -103t79 -270q-19 -106 -86 -190.5t-170 -134.5 q101 -50 146.5 -142.5t23.5 -208.5q-31 -180 -191.5 -296.5t-376.5 -116.5q-145 0 -250 57t-163 164z" />
<glyph d="M14 338l27 151l885 945h170l-168 -945h190l-26 -151h-191l-59 -338h-170l59 338h-717zM223 489h535l125 709z" />
<glyph d="M57 209l140 119q39 -86 111.5 -133.5t174.5 -47.5q142 0 247 83.5t128 211.5q23 127 -52.5 210t-215.5 83h-340l123 699h717l-31 -170h-563l-68 -375h193q211 0 326 -126.5t81 -322.5q-34 -195 -196 -324.5t-379 -129.5q-138 0 -240 57.5t-156 165.5z" />
<glyph d="M100 457q25 142 148 297l545 680h202l-428 -525q70 17 125 17q193 0 296.5 -132.5t68.5 -332.5q-37 -206 -196 -340.5t-365 -134.5q-207 0 -320 133.5t-76 337.5zM270 457q-23 -133 49.5 -221.5t204.5 -88.5t236 88.5t127 221.5t-49.5 220t-204.5 87q-133 0 -236.5 -87 t-126.5 -220z" />
<glyph d="M227 0l764 1280h-739l27 154h915l-27 -154l-764 -1280h-176z" />
<glyph d="M74 397q20 117 97.5 209.5t195.5 145.5q-85 52 -122.5 136t-19.5 187q28 161 175 267t345 106q195 0 303.5 -107t79.5 -270q-19 -103 -86 -187t-168 -134q98 -52 143 -144.5t25 -208.5q-31 -179 -188 -295t-369 -116t-327.5 116t-83.5 295zM246 406q-20 -112 55.5 -185.5 t212.5 -73.5q136 0 238 73t122 186q20 112 -56.5 185t-213.5 73q-136 0 -237 -72.5t-121 -185.5zM393 1061q-17 -98 52 -162.5t192 -64.5q120 0 211 64.5t108 162.5q17 97 -51 161t-188 64q-123 0 -216 -64t-108 -161z" />
<glyph d="M188 973q37 206 196.5 340.5t365.5 134.5t319 -134t76 -337q-25 -150 -154 -305l-559 -672h-205l443 522q-55 -14 -117 -14q-128 0 -220 60.5t-130.5 167t-14.5 237.5zM358 977q-23 -133 49.5 -220t204.5 -87q133 0 236.5 87t126.5 220t-49.5 221t-204.5 88t-236 -88 t-127 -221z" />
<glyph horiz-adv-x="667" d="M-14 358q29 160 128.5 264.5t223.5 104.5q123 0 184.5 -104.5t32.5 -264.5q-28 -160 -126.5 -264t-221.5 -104t-186 104t-35 264zM127 358q-17 -103 12 -168t92 -65q62 0 114 65.5t71 167.5t-11 169t-92 67t-114.5 -67t-71.5 -169z" />
<glyph horiz-adv-x="495" d="M16 567l226 150h141l-127 -717h-141l98 551l-133 -90z" />
<glyph horiz-adv-x="546" d="M-92 0l22 133q23 35 72.5 76t103.5 78t106.5 75t89.5 78t44 76q6 36 -20 57t-74 21q-84 0 -168 -84l-80 96q118 121 270 121q109 0 164.5 -56t38.5 -151q-9 -51 -35 -95t-69 -82.5t-82.5 -68t-99.5 -71t-97 -70.5h316l-23 -133h-479z" />
<glyph horiz-adv-x="585" d="M-80 102l117 97q19 -34 54.5 -54t78.5 -20q53 0 92 26.5t45 67.5q7 39 -19.5 64.5t-72.5 25.5h-43l21 117h51q37 0 65.5 23.5t34.5 60.5q6 38 -18.5 61t-67.5 23t-84.5 -23t-71.5 -61l-79 98q48 55 119.5 87t148.5 32q101 0 157 -55.5t39 -143.5q-15 -102 -110 -157 q85 -62 67 -168q-17 -91 -99.5 -152t-192.5 -61q-75 0 -138 31t-94 81z" />
<glyph horiz-adv-x="659" d="M-61 147l22 127l416 443h141l-78 -443h97l-23 -127h-96l-27 -147h-141l26 147h-337zM104 274h195l45 256z" />
<glyph horiz-adv-x="548" d="M-82 109l115 98q37 -82 125 -82q54 0 93.5 29.5t47.5 74.5q9 47 -19.5 78t-82.5 31h-172l67 379h369l-23 -135h-250l-22 -121h55q113 0 174.5 -65.5t42.5 -166.5q-19 -103 -106 -171t-203 -68q-72 0 -127 31t-84 88z" />
<glyph horiz-adv-x="606" d="M-35 242q15 76 80 159l250 316h151l-188 -238q14 4 47 4q94 0 142.5 -68.5t29.5 -172.5q-19 -109 -104 -180.5t-195 -71.5q-109 0 -170.5 72t-42.5 180zM106 240q-9 -50 19 -82.5t78 -32.5q48 0 86 32.5t47 82.5q9 49 -18 82.5t-74 33.5q-50 0 -89.5 -33.5t-48.5 -82.5z " />
<glyph horiz-adv-x="522" d="M-14 0l348 594h-332l23 123h471l-21 -123l-346 -594h-143z" />
<glyph horiz-adv-x="595" d="M-41 205q21 113 133 172q-77 55 -59 160q14 83 89 136.5t179 53.5q101 0 157.5 -54.5t41.5 -137.5q-18 -100 -115 -158q88 -59 70 -172q-15 -93 -96 -154t-189 -61q-107 0 -166.5 61t-44.5 154zM102 219q-6 -42 20.5 -68t72.5 -26t80.5 26t41.5 68q6 40 -19 66t-71 26 t-82 -26t-43 -66zM168 518q-6 -35 17.5 -57.5t64.5 -22.5q40 0 71 22.5t37 57.5q5 32 -18.5 54t-63.5 22t-72 -22t-36 -54z" />
<glyph horiz-adv-x="598" d="M-2 475q19 109 104 180.5t197 71.5q108 0 169 -71.5t42 -178.5q-14 -73 -80 -162l-252 -315h-155l188 238q-12 -2 -41 -2q-94 0 -142.5 67.5t-29.5 171.5zM139 479q-9 -51 17.5 -84t76.5 -33q48 0 87.5 33.5t48.5 83.5q7 49 -20 82t-75 33q-50 0 -89 -33t-46 -82z" />
<glyph horiz-adv-x="262" d="M-129 -129l131 299l119 -35l-158 -291z" />
<glyph horiz-adv-x="262" d="M-68 78q6 39 34 63.5t67 24.5q40 0 59.5 -24t11.5 -64q-6 -38 -34 -63t-66 -25q-41 0 -60.5 24.5t-11.5 63.5z" />
<glyph horiz-adv-x="348" d="M-28 236.5q1 48.5 10 97.5q15 85 50.5 166.5t75.5 136.5t77.5 98t62.5 63l24 21l66 -59l-17 -17q-17 -17 -46 -54t-59 -85t-58.5 -120.5t-42.5 -149.5q-15 -84 -11 -152t16.5 -119.5t29 -86.5t27.5 -52l11 -18l-88 -60q-2 2 -6 6.5t-15 19.5t-21.5 32t-24 44.5t-24 56 t-20 66.5t-14 77.5t-3.5 88z" />
<glyph horiz-adv-x="348" d="M-127 -94l17 17q17 17 46.5 54t60 85t59 121t42.5 151q10 56 11 110t-5 95.5t-15.5 78t-21 62t-22 44t-16.5 27.5l-6 9l88 59q2 -2 6 -6.5t15 -19.5t22 -32t24.5 -44t24 -55.5t20 -66.5t14 -77t3 -87t-10.5 -97q-15 -86 -50 -168t-75 -137.5t-78 -98.5t-62 -64l-25 -20z " />
<glyph horiz-adv-x="409" d="M-16 229l22 117h268l-22 -117h-268z" />
<glyph horiz-adv-x="614" d="M0 250l18 117h168l31 165h117l-31 -165h166l-18 -117h-168l-29 -168h-117l29 168h-166z" />
<glyph horiz-adv-x="614" d="M-35 55l21 115h450l-20 -115h-451zM23 379l20 117h168l29 166h116l-28 -166h166l-21 -117h-166l-31 -168h-116l30 168h-167z" />
<glyph horiz-adv-x="614" d="M-20 137l20 117h451l-21 -117h-450zM20 362l19 117h450l-18 -117h-451z" />
<glyph horiz-adv-x="667" d="M113 1075q29 160 128 264.5t222 104.5t185 -104.5t34 -264.5t-126.5 -264t-221.5 -104t-186 104t-35 264zM254 1075q-19 -102 10.5 -167.5t91.5 -65.5q63 0 115.5 65.5t71.5 167.5t-11 169t-92 67t-114.5 -67t-71.5 -169z" />
<glyph horiz-adv-x="495" d="M143 1284l226 150h139l-125 -717h-141l96 551l-133 -90z" />
<glyph horiz-adv-x="546" d="M35 717l22 133q23 35 72.5 76t103.5 78t106 75t89 78t43 76t-19.5 57t-72.5 21q-84 0 -168 -84l-80 96q115 121 270 121q109 0 164.5 -56t38.5 -151q-9 -51 -35 -95t-69 -82.5t-82.5 -68t-99.5 -71t-97 -70.5h316l-23 -133h-479z" />
<glyph horiz-adv-x="585" d="M47 819l115 96q20 -34 56 -53.5t79 -19.5q53 0 91.5 26.5t45.5 67.5q7 39 -19.5 64.5t-74.5 25.5h-41l20 117h52q37 0 65.5 23.5t34.5 60.5q6 38 -18.5 61t-67.5 23q-88 0 -158 -84l-77 98q46 54 118.5 86.5t149.5 32.5q100 0 155.5 -55t40.5 -144q-19 -106 -112 -158 q87 -61 69 -167q-17 -91 -101 -152t-194 -61q-74 0 -136 31t-93 81z" />
<glyph horiz-adv-x="659" d="M66 864l22 127l416 443h141l-80 -443h99l-23 -127h-96l-27 -147h-141l26 147h-337zM231 991h195l45 256z" />
<glyph horiz-adv-x="548" d="M45 825l115 99q37 -82 123 -82q55 0 95 29.5t48 74.5q8 48 -20.5 78.5t-81.5 30.5h-172l67 379h369l-25 -136h-248l-22 -120h53q114 0 175 -65.5t44 -166.5q-19 -103 -106 -171t-203 -68q-72 0 -127 30.5t-84 87.5z" />
<glyph horiz-adv-x="606" d="M92 958q10 63 78 160l252 316h151l-188 -238q14 4 45 4q94 0 143.5 -69t30.5 -173q-20 -109 -105 -180t-194 -71q-111 0 -172 71.5t-41 179.5zM233 956q-9 -51 18 -82.5t77 -31.5q48 0 87 32t48 82q9 49 -18 83t-74 34q-49 0 -89 -33.5t-49 -83.5z" />
<glyph horiz-adv-x="522" d="M113 717l346 594h-330l21 123h473l-23 -123l-344 -594h-143z" />
<glyph horiz-adv-x="595" d="M86 922q18 111 133 172q-79 59 -61 159q15 84 90.5 137.5t179.5 53.5q101 0 157.5 -55t41.5 -138q-18 -100 -117 -157q90 -59 72 -172q-17 -93 -97.5 -154t-187.5 -61q-109 0 -168.5 61.5t-42.5 153.5zM229 936q-7 -42 18.5 -68t71.5 -26q48 0 82.5 26t40.5 68 q8 40 -17.5 66t-72.5 26q-46 0 -80.5 -26t-42.5 -66zM293 1235q-4 -35 19 -57.5t63 -22.5q41 0 72.5 22.5t35.5 57.5q6 32 -17 54t-63 22t-72 -22t-38 -54z" />
<glyph horiz-adv-x="598" d="M125 1192q19 109 104 180.5t197 71.5q108 0 168 -71.5t41 -178.5q-11 -71 -78 -162l-254 -315h-156l191 237q-14 -2 -41 -2q-94 0 -143 68t-29 172zM266 1196q-9 -51 17.5 -84t76.5 -33q48 0 87.5 33.5t48.5 83.5q7 49 -20 82t-75 33q-50 0 -89 -33t-46 -82z" />
<glyph horiz-adv-x="262" d="M-4 588l133 299l119 -35l-158 -291z" />
<glyph horiz-adv-x="262" d="M57 795q7 40 36 64t69 24q38 0 57 -24t12 -64q-8 -39 -35.5 -62.5t-66.5 -23.5t-58.5 23.5t-13.5 62.5z" />
<glyph horiz-adv-x="348" d="M99 953.5q1 48.5 10 97.5q15 85 50 166.5t75 136.5t78 98t62 64l25 20l66 -59l-17 -17q-17 -17 -46 -54t-59 -85t-58.5 -120.5t-42.5 -149.5q-15 -84 -11 -151.5t16.5 -119t29 -86t27.5 -52.5l11 -17l-88 -62q-2 2 -6 6.5t-15 19.5t-21.5 32t-24 44.5t-24 56t-20 66.5 t-14 77.5t-3.5 88z" />
<glyph horiz-adv-x="348" d="M0 625l17 17q17 17 46.5 53.5t60 84.5t59 120.5t42.5 150.5q10 56 10.5 110t-5.5 95.5t-15.5 78t-21 62t-21.5 44t-16 27.5l-6 9l88 59q2 -2 6 -6.5t15 -19.5t21.5 -32t24 -44t24 -55.5t20 -66.5t14 -77t3.5 -87t-10 -97q-15 -86 -50 -168t-75 -137.5t-78 -98.5t-63 -63 l-24 -21z" />
<glyph horiz-adv-x="409" d="M111 946l20 117h268l-20 -117h-268z" />
<glyph horiz-adv-x="614" d="M127 967l18 116h168l31 166h117l-31 -166h166l-18 -116h-168l-29 -168h-117l29 168h-166z" />
<glyph horiz-adv-x="614" d="M92 772l21 115h450l-20 -115h-451zM147 1096l23 116h166l31 166h114l-28 -166h168l-23 -116h-166l-29 -168h-116l30 168h-170z" />
<glyph horiz-adv-x="614" d="M106 854l21 117h451l-21 -117h-451zM147 1079l19 117h450l-18 -117h-451z" />
<glyph horiz-adv-x="667" d="M-49 154q28 159 127.5 263.5t222.5 104.5t185 -104t34 -264q-29 -160 -127 -264.5t-221 -104.5q-124 0 -186.5 104.5t-34.5 264.5zM92 154q-19 -102 11 -168t92 -66t114.5 66t71.5 168q17 103 -11.5 169t-90.5 66q-63 0 -115.5 -66t-71.5 -169z" />
<glyph horiz-adv-x="495" d="M-20 362l225 150h141l-127 -717h-139l96 551l-133 -90z" />
<glyph horiz-adv-x="546" d="M-129 -205l25 131q27 43 95.5 97t133.5 96.5t120.5 95t63.5 96.5q6 36 -19.5 57t-72.5 21q-87 0 -168 -84l-82 96q118 121 271 121q109 0 165 -56t39 -151q-9 -51 -35.5 -95t-69.5 -83t-83.5 -68.5t-100 -71t-96.5 -71.5h318l-25 -131h-479z" />
<glyph horiz-adv-x="585" d="M-115 -102l115 96q19 -34 55.5 -54t79.5 -20q53 0 91.5 26.5t45.5 67.5q6 39 -21 64.5t-73 25.5h-41l21 117h49q38 0 66 23.5t34 60.5q7 37 -17.5 60.5t-66.5 23.5q-87 0 -157 -84l-80 98q48 55 119.5 87t148.5 32q102 0 158 -54.5t41 -143.5q-19 -105 -113 -158 q86 -61 68 -168q-15 -91 -99 -152t-194 -61q-74 0 -137 31.5t-93 81.5z" />
<glyph horiz-adv-x="659" d="M-96 -57l22 127l414 442h141l-78 -442h97l-21 -127h-98l-25 -148h-141l25 148h-336zM68 70h194l45 256z" />
<glyph horiz-adv-x="548" d="M-119 -96l115 98q37 -82 125 -82q55 0 94.5 29.5t48.5 75.5q8 47 -21 77.5t-81 30.5h-172l65 379h371l-25 -135h-249l-21 -121h53q113 0 174.5 -65t42.5 -166q-17 -104 -104 -172t-203 -68q-149 0 -213 119z" />
<glyph horiz-adv-x="606" d="M-70 37q11 69 78 160l250 315h152l-187 -238q18 5 45 5q94 0 143.5 -69t30.5 -173q-20 -109 -105 -180.5t-194 -71.5q-111 0 -172 72t-41 180zM72 35q-9 -51 17.5 -83t76.5 -32q48 0 87 32.5t48 82.5q7 49 -20 83t-74 34q-50 0 -89 -34t-46 -83z" />
<glyph horiz-adv-x="522" d="M-49 -205l346 594h-332l23 123h473l-23 -123l-346 -594h-141z" />
<glyph horiz-adv-x="595" d="M-76 0q18 111 133 172q-79 57 -61 160q13 83 89 136.5t179 53.5q101 0 157.5 -54.5t41.5 -137.5q-15 -100 -115 -158q90 -61 72 -172q-17 -93 -97.5 -154t-187.5 -61q-109 0 -168.5 61.5t-42.5 153.5zM68 14q-7 -42 18.5 -68t71.5 -26t81 26t42 68q7 40 -19 66t-72 26 t-81 -26t-41 -66zM131 313q-6 -35 18 -57.5t64 -22.5t71.5 22.5t37.5 57.5q6 32 -17.5 54t-62.5 22q-41 0 -73 -22t-38 -54z" />
<glyph horiz-adv-x="598" d="M-39 270q19 109 105 180.5t196 71.5q109 0 169.5 -71.5t41.5 -178.5q-11 -72 -80 -161l-252 -316h-155l190 238q-14 -2 -41 -2q-94 0 -143.5 67.5t-30.5 171.5zM102 274q-9 -51 19 -83.5t78 -32.5q48 0 86 33t47 83q9 49 -17.5 82t-74.5 33q-50 0 -89.5 -33t-48.5 -82z " />
<glyph horiz-adv-x="262" d="M-166 -334l133 299l117 -35l-158 -290z" />
<glyph horiz-adv-x="262" d="M-104 -127q8 39 35.5 62.5t66.5 23.5q38 0 58 -24t14 -62q-8 -39 -36 -63.5t-67 -24.5t-59 24.5t-12 63.5z" />
<glyph horiz-adv-x="348" d="M-64 31.5q1 48.5 9 97.5q15 85 51 166.5t75.5 136.5t77.5 98t63 64l24 20l65 -59l-17 -17q-17 -17 -46 -54t-59 -85t-58.5 -120.5t-42.5 -149.5q-15 -84 -11 -152t17 -119.5t29.5 -86.5t27.5 -53l11 -17l-89 -59q-2 2 -6 6.5t-15 19.5t-21 32t-23.5 44t-24.5 55.5 t-20 66.5t-13.5 77.5t-3.5 88z" />
<glyph horiz-adv-x="348" d="M-164 -299l17 17q17 17 46.5 54t60 85t59 121t42.5 151q10 56 11 110t-5 95.5t-15.5 78t-21 62t-22 44t-16.5 27.5l-6 9l88 59q2 -2 6 -6.5t15.5 -19.5t22 -32t24 -44t24.5 -55.5t20.5 -66.5t14 -77t3 -87t-10.5 -97q-14 -86 -49.5 -168t-75.5 -137t-78 -98t-63 -64 l-25 -20z" />
<glyph horiz-adv-x="409" d="M-51 25l20 116h269l-21 -116h-268z" />
<glyph horiz-adv-x="614" d="M-37 45l21 117h168l28 166h117l-31 -166h168l-20 -117h-166l-29 -168h-117l29 168h-168z" />
<glyph horiz-adv-x="614" d="M-72 -150l21 115h450l-18 -115h-453zM-14 174l20 117h168l29 166h116l-28 -166h166l-21 -117h-166l-30 -168h-117l31 168h-168z" />
<glyph horiz-adv-x="614" d="M-55 -68l18 117h451l-19 -117h-450zM-16 158l20 116h451l-21 -116h-450z" />
<glyph horiz-adv-x="667" d="M150 1280q28 160 127.5 264.5t222.5 104.5t185 -104.5t34 -264.5q-29 -160 -127.5 -264.5t-222.5 -104.5q-123 0 -185 104.5t-34 264.5zM291 1280q-19 -102 10.5 -167.5t91.5 -65.5t115 65.5t72 167.5q17 103 -12.5 169.5t-92.5 66.5q-61 0 -113 -66.5t-71 -169.5z" />
<glyph horiz-adv-x="495" d="M180 1489l223 149h142l-127 -716h-142l99 551l-133 -91z" />
<glyph horiz-adv-x="546" d="M72 922l22 133q23 35 72.5 76t103.5 78t106 75t89 78t43 76t-19.5 57t-72.5 21q-87 0 -168 -84l-80 96q115 121 268 121q109 0 165.5 -56t39.5 -151q-9 -51 -35.5 -95t-69.5 -82.5t-83 -68t-100 -71t-97 -70.5h317l-24 -133h-477z" />
<glyph horiz-adv-x="585" d="M84 1024l115 96q19 -34 55.5 -53.5t79.5 -19.5q53 0 91.5 26.5t45.5 67.5q6 39 -21 64.5t-73 25.5h-41l20 117h50q38 0 66 23.5t34 60.5q7 37 -17.5 60.5t-66.5 23.5q-88 0 -158 -84l-80 98q48 55 120 87t149 32q102 0 157.5 -55t40.5 -144q-19 -106 -112 -158 q85 -60 67 -168q-15 -91 -99 -152t-194 -61q-74 0 -136 31.5t-93 81.5z" />
<glyph horiz-adv-x="659" d="M102 1069l23 127l414 442h141l-78 -442h96l-20 -127h-98l-25 -147h-141l24 147h-336zM266 1196h195l45 256z" />
<glyph horiz-adv-x="548" d="M80 1030l115 98q37 -81 124 -81q55 0 95 29.5t49 74.5q8 47 -21.5 78t-81.5 31h-172l66 378h371l-25 -135h-250l-20 -121h53q113 0 174.5 -65t42.5 -166q-17 -103 -104.5 -171.5t-202.5 -68.5q-149 0 -213 119z" />
<glyph horiz-adv-x="606" d="M129 1163q11 69 78 160l250 315h151l-188 -237q16 4 47 4q94 0 143.5 -69t30.5 -173q-20 -109 -105 -180.5t-194 -71.5q-111 0 -172 72t-41 180zM270 1161q-9 -51 18 -82.5t77 -31.5q48 0 87 32t48 82q9 49 -18.5 83t-75.5 34q-49 0 -88 -33.5t-48 -83.5z" />
<glyph horiz-adv-x="522" d="M150 922l346 594h-332l22 122h473l-22 -122l-346 -594h-141z" />
<glyph horiz-adv-x="595" d="M121 1126q22 114 135 172q-79 57 -61 160q13 83 89 137t179 54q101 0 157.5 -55t41.5 -138q-18 -100 -115 -158q90 -61 69 -172q-15 -93 -95 -154t-187 -61q-108 0 -168 61t-45 154zM266 1141q-7 -42 18.5 -68t71.5 -26q48 0 82 25.5t41 68.5q8 40 -17.5 66t-72.5 26 q-46 0 -81.5 -26.5t-41.5 -65.5zM330 1440q-6 -35 18 -57.5t64 -22.5t71 22.5t37 57.5q6 32 -18 54t-64 22t-71 -22t-37 -54z" />
<glyph horiz-adv-x="598" d="M160 1397q20 109 104.5 180.5t196.5 71.5q108 0 168.5 -71.5t40.5 -178.5q-12 -77 -78 -162l-252 -315h-156l191 237q-14 -2 -41 -2q-95 0 -144 68t-30 172zM301 1401q-9 -51 18.5 -84t77.5 -33q48 0 86 33t47 84q7 49 -20 82t-74 33q-50 0 -89 -33t-46 -82z" />
<glyph horiz-adv-x="262" d="M33 793l133 299l117 -35l-158 -291z" />
<glyph horiz-adv-x="262" d="M94 999q8 40 35.5 64t67.5 24q38 0 57.5 -24t13.5 -64q-8 -39 -35.5 -62.5t-66.5 -23.5t-58.5 23.5t-13.5 62.5z" />
<glyph horiz-adv-x="348" d="M134 1157.5q1 48.5 9 97.5q15 85 51 166.5t75.5 137t77.5 98.5t63 63l24 21l66 -60l-17 -17q-17 -17 -46 -54t-59.5 -85t-59 -120.5t-42.5 -149.5q-15 -84 -11 -151.5t17 -119t29.5 -86t27.5 -52.5l11 -17l-88 -61q-2 2 -6 6.5t-15 19.5t-21.5 32t-24 44t-24 55.5 t-20 66.5t-14 77.5t-3.5 88z" />
<glyph horiz-adv-x="348" d="M35 829l17 17q17 17 46.5 53.5t60 84.5t59 120.5t42.5 150.5q10 56 11 110t-5 95.5t-16 78t-21.5 62t-22 44t-16.5 27.5l-6 9l88 60q2 -2 6 -6.5t15.5 -19.5t22 -32t24 -44t24.5 -55.5t20.5 -66.5t14 -77.5t3 -87.5t-10.5 -97q-14 -86 -49.5 -168t-75.5 -137t-78 -98 t-63 -64l-25 -20z" />
<glyph horiz-adv-x="409" d="M147 1151l21 117h268l-20 -117h-269z" />
<glyph horiz-adv-x="614" d="M162 1171l20 117h168l29 166h117l-31 -166h168l-21 -117h-166l-28 -167h-117l29 167h-168z" />
<glyph horiz-adv-x="614" d="M129 977l18 115h451l-18 -115h-451zM184 1300l21 117h168l28 166h117l-29 -166h166l-20 -117h-166l-31 -167h-116l30 167h-168z" />
<glyph horiz-adv-x="614" d="M143 1059l19 117h450l-18 -117h-451zM182 1284l21 117h450l-20 -117h-451z" />
<glyph horiz-adv-x="1687" d="M86 711q38 212 165 379t319 260.5t415 93.5q159 0 288.5 -49.5t212 -137t117 -211t9.5 -266.5q-34 -186 -143 -309t-240 -123q-65 0 -111 33.5t-67 93.5q-124 -127 -299 -127q-155 0 -239 104.5t-56 264.5q28 159 149 263.5t277 104.5q144 0 225 -90l14 76h135l-77 -438 q-12 -68 14 -113t80 -45q75 0 139.5 86t87.5 217q28 161 -30.5 287.5t-189.5 197t-312 70.5q-191 0 -356.5 -79.5t-274.5 -220.5t-139 -318q-31 -175 24 -315.5t183 -220t305 -79.5q165 0 313 74l6 -104q-171 -80 -358 -80q-204 0 -350.5 93t-209 257.5t-26.5 370.5z M610 717q-17 -98 32.5 -161.5t143.5 -63.5t165.5 63.5t88.5 161.5t-31.5 161.5t-142.5 63.5t-166.5 -63.5t-89.5 -161.5z" />
<glyph horiz-adv-x="940" d="M170 717q25 135 121 218t231 83q136 0 204.5 -83t43.5 -218t-121 -217t-231 -82t-204 82t-44 217z" />
<glyph horiz-adv-x="507" d="M39 0l203 999h127l-152 -999h-178zM240 1325q9 55 49 89t94 34q55 0 82 -33.5t18 -89.5q-9 -54 -48.5 -87.5t-94.5 -33.5q-54 0 -81.5 33.5t-18.5 87.5z" />
<glyph horiz-adv-x="1026" d="M31 369q13 73 43.5 127t69 86.5t83.5 59.5t90.5 55.5t86 64t74 96t50.5 141.5h127q-6 -94 -32.5 -166t-64.5 -116t-83 -78t-90.5 -60.5t-84.5 -54t-68.5 -68.5t-38.5 -94q-19 -101 42.5 -158t190.5 -57q120 0 218.5 48.5t158.5 130.5l94 -119q-84 -105 -213 -163 t-283 -58q-206 0 -303.5 101t-66.5 282zM520 1325q11 56 51 89.5t95 33.5q54 0 80.5 -33.5t17.5 -89.5q-9 -54 -48 -87.5t-93 -33.5q-55 0 -83 33.5t-20 87.5z" />
<glyph horiz-adv-x="1089" d="M109 717l421 426l84 -64l-307 -362l180 -363l-104 -63zM518 717l422 426l84 -64l-309 -362l182 -363l-104 -63z" />
<glyph horiz-adv-x="1089" d="M66 354l309 363l-182 362l104 64l274 -426l-421 -426zM475 354l307 363l-180 362l105 64l274 -426l-424 -426z" />
<glyph horiz-adv-x="679" d="M109 717l421 426l84 -64l-307 -362l180 -363l-104 -63z" />
<glyph horiz-adv-x="679" d="M66 354l309 363l-182 362l104 64l274 -426l-421 -426z" />
<glyph horiz-adv-x="819" d="M158 645l24 143h480l-25 -143h-479z" />
<glyph d="M158 645l24 143h889l-24 -143h-889z" />
<glyph horiz-adv-x="2048" d="M158 645l24 143h1708l-24 -143h-1708z" />
<glyph horiz-adv-x="649" d="M252 -205v1843h145v-1843h-145z" />
<glyph horiz-adv-x="649" d="M252 -205v717h145v-717h-145zM252 922v716h145v-716h-145z" />
<glyph horiz-adv-x="794" d="M-156 -156l979 1801l127 -50l-977 -1800z" />
<glyph horiz-adv-x="794" d="M156 1595l143 50l342 -1801l-143 -49z" />
<glyph horiz-adv-x="700" d="M108.5 518q2.5 97 20.5 199q23 129 68.5 251t99 213t113.5 171.5t115 135.5t99.5 94.5t71.5 57.5l27 19l82 -78l-5 -4q-178 -138 -309 -359q-136 -229 -184 -501q-17 -96 -21 -186.5t3.5 -163t22 -139t34 -117t40.5 -94t41.5 -73t37 -50.5t25.5 -31l10 -10l-109 -78 q-5 4 -13 11.5t-32.5 34.5t-47.5 57.5t-53 81t-53.5 104.5t-44.5 127.5t-31 151.5t-7.5 175z" />
<glyph horiz-adv-x="700" d="M-106 -147l13 10q13 10 37 31t55 50.5t67.5 73t74 94t75 117t70.5 139t60.5 163t44.5 186.5q22 122 22.5 235t-14.5 197t-39.5 157.5t-52 122.5t-52 84.5t-39.5 51.5l-15 16l108 78q5 -4 13 -11.5t32.5 -34.5t47.5 -57.5t52.5 -81t53 -104.5t44.5 -127.5t31 -151.5 t8 -175t-20 -199q-23 -129 -68.5 -251t-99 -213t-113.5 -171.5t-115 -135.5t-99.5 -94.5t-71.5 -57.5l-27 -19z" />
<glyph horiz-adv-x="727" d="M12 -205l324 1843h485l-24 -143h-326l-272 -1556h323l-24 -144h-486z" />
<glyph horiz-adv-x="727" d="M-94 -205l24 144h326l272 1556h-323l24 143h486l-324 -1843h-485z" />
<glyph horiz-adv-x="897" d="M121 645l24 143q100 0 174 52.5t87 134.5l63 366q23 129 126.5 213t238.5 84h157l-26 -143h-156q-64 0 -115 -43.5t-63 -108.5l-64 -368q-15 -86 -79 -154t-160 -104q84 -35 123 -103.5t24 -154.5l-63 -367q-12 -66 23.5 -109.5t101.5 -43.5h155l-24 -144h-158 q-135 0 -209 84t-51 213l65 367q13 82 -41.5 134t-152.5 52z" />
<glyph horiz-adv-x="897" d="M-94 -205l24 144h156q66 0 117 43.5t63 109.5l64 367q15 86 79 154t160 104q-83 35 -122.5 103.5t-26.5 154.5l65 368q12 64 -24 108t-101 44h-155l24 143h158q135 0 208.5 -84t51.5 -213l-65 -366q-14 -82 40.5 -134.5t153.5 -52.5l-24 -143q-100 0 -173.5 -52 t-86.5 -134l-66 -367q-22 -129 -125 -213t-238 -84h-157z" />
</font>
</defs>
</svg>
