<?xml version="1.0" standalone="no"?>
<!DOCTYPE svg PUBLIC "-//W3C//DTD SVG 1.1//EN" "http://www.w3.org/Graphics/SVG/1.1/DTD/svg11.dtd" >
<svg xmlns="http://www.w3.org/2000/svg" xmlns:xlink="http://www.w3.org/1999/xlink" version="1.1">
<metadata></metadata>
<defs>
<font id="daikonblack" horiz-adv-x="1183" >
<font-face units-per-em="2048" ascent="1741" descent="-307" />
<missing-glyph horiz-adv-x="532" />
<glyph unicode="&#xfb01;" horiz-adv-x="1312" d="M41 737v287h143v88q0 186 146 293.5t399 107.5v-307q-100 0 -158.5 -27.5t-58.5 -74.5v-80h217v-287h-217v-737h-328v737h-143zM842 1331q0 94 55.5 149.5t149.5 55.5t149 -55.5t55 -149.5t-55 -149.5t-149 -55.5t-149.5 55.5t-55.5 149.5zM883 0v1024h327v-1024h-327z " />
<glyph unicode="&#xfb02;" horiz-adv-x="1312" d="M41 737v287h143v88q0 186 146 293.5t399 107.5v-307q-100 0 -158.5 -27.5t-58.5 -74.5v-80h217v-287h-217v-737h-328v737h-143zM883 0v1495h327v-1495h-327z" />
<glyph unicode="ft" horiz-adv-x="1499" d="M41 737v287h143v88q0 186 146 293.5t399 107.5v-307q-100 0 -158.5 -27.5t-58.5 -74.5v-80h340v225h328v-225h258v-287h-258v-411q0 -31 28 -49.5t82 -18.5q80 0 148 21v-279q-85 -29 -199 -29q-170 0 -278.5 95.5t-108.5 242.5v428h-340v-737h-328v737h-143z" />
<glyph horiz-adv-x="0" />
<glyph horiz-adv-x="0" />
<glyph unicode="&#xd;" horiz-adv-x="512" />
<glyph unicode=" "  horiz-adv-x="532" />
<glyph unicode="&#x09;" horiz-adv-x="532" />
<glyph unicode="&#xa0;" horiz-adv-x="532" />
<glyph unicode="!" horiz-adv-x="532" d="M61 186q0 94 55.5 149.5t149.5 55.5t149.5 -55.5t55.5 -149.5t-55.5 -149t-149.5 -55t-149.5 55t-55.5 149zM82 1434h369l-62 -975h-246z" />
<glyph unicode="&#x22;" horiz-adv-x="798" d="M61 1434h318l-37 -512h-244zM420 1434h317l-37 -512h-243z" />
<glyph unicode="#" horiz-adv-x="1490" d="M41 266l51 287h225l58 328h-225l51 286h225l47 267h287l-47 -267h225l47 267h287l-47 -267h225l-51 -286h-225l-58 -328h225l-51 -287h-225l-47 -266h-287l47 266h-225l-47 -266h-287l47 266h-225zM604 553h225l58 328h-225z" />
<glyph unicode="$" horiz-adv-x="1181" d="M41 201l242 241q146 -133 329 -133q85 0 138 31t53 76q0 29 -24.5 51.5t-65.5 39t-94 31.5t-112 33.5t-117.5 41.5t-111.5 58.5t-94 81t-65.5 113t-24.5 150.5q0 178 105 290t293 138v254h204v-250q135 -14 241 -67t165 -138l-238 -242q-99 123 -291 123q-139 0 -139 -77 q0 -36 30.5 -64t80 -46.5t113 -40.5t130 -44t130 -59t113 -83t80 -118.5t30.5 -163.5q0 -185 -117.5 -301t-327.5 -139v-252h-204v252q-268 27 -451 213z" />
<glyph unicode="%" horiz-adv-x="1812" d="M82 1067q0 166 105.5 274.5t267.5 108.5q163 0 268.5 -107.5t105.5 -273.5q0 -164 -106.5 -270.5t-269.5 -106.5q-161 0 -266 106t-105 269zM324 119l923 1315l211 -148l-923 -1315zM358 1065q0 -50 28 -83.5t71 -33.5q40 0 68 34t28 83q0 58 -27.5 93.5t-68.5 35.5 q-44 0 -71.5 -35t-27.5 -94zM983 346q0 166 105 274.5t266 108.5q163 0 270 -108.5t107 -274.5q0 -163 -107 -269t-270 -106q-161 0 -266 106t-105 269zM1260 342q0 -50 27.5 -82.5t70.5 -32.5q40 0 68 33t28 82q0 59 -27.5 95t-68.5 36q-43 0 -70.5 -36t-27.5 -95z" />
<glyph unicode="&#x26;" horiz-adv-x="1363" d="M82 451q0 130 65.5 216t178.5 148q-121 167 -121 303q0 145 119 239.5t299 94.5q183 0 302 -97t119 -239q0 -61 -23.5 -114t-70.5 -98.5t-92 -77.5t-113 -72l179 -174q8 47 8 110h319q0 -214 -67 -366l159 -156l-225 -205l-119 125q-145 -106 -358 -106q-245 0 -402 133 t-157 336zM420 444q0 -71 56.5 -113t148.5 -42q83 0 147 37l-264 276q-88 -75 -88 -158zM532 1051q0 -46 52 -119q65 31 99 62.5t34 74.5q0 35 -23.5 55.5t-60.5 20.5q-44 0 -72.5 -26t-28.5 -68z" />
<glyph unicode="'" horiz-adv-x="440" d="M61 1434h318l-37 -512h-244z" />
<glyph unicode="(" horiz-adv-x="718" d="M82 666q0 122 23.5 242.5t61.5 215.5t84 182.5t92 150t84 109.5t61 70l24 23l186 -148l-25 -36q-25 -36 -66 -111t-80.5 -171t-68 -237.5t-28.5 -289.5t28.5 -289.5t68 -238t80.5 -171.5t66 -111l25 -36l-186 -148q-9 8 -24.5 24t-60 69t-85.5 111t-90.5 148.5t-85 184 t-60 214.5t-24.5 243z" />
<glyph unicode=")" horiz-adv-x="718" d="M20 -180l25 36q25 36 66 111t81 171.5t68.5 238t28.5 289.5t-28.5 289.5t-68.5 237.5t-81 171t-66 111l-25 36l187 148q9 -8 24.5 -23.5t60 -68.5t85.5 -111t90.5 -148.5t85 -184t60 -214.5t24.5 -243t-23.5 -242.5t-61.5 -216t-84 -182.5t-92 -150t-84 -109.5t-62 -69.5 l-23 -24z" />
<glyph unicode="*" horiz-adv-x="1011" d="M61 1061l86 274l244 -116l-33 276h287l-35 -276l252 116l88 -272l-272 -51l192 -203l-231 -168l-135 246l-131 -244l-232 168l191 201z" />
<glyph unicode="+" horiz-adv-x="1228" d="M164 471v287h307v307h287v-307h307v-287h-307v-307h-287v307h-307z" />
<glyph unicode="," horiz-adv-x="532" d="M10 -242l170 639l307 -84l-237 -624z" />
<glyph unicode="-" horiz-adv-x="819" d="M123 430v287h573v-287h-573z" />
<glyph unicode="." horiz-adv-x="532" d="M61 186q0 94 55.5 149.5t149.5 55.5t149.5 -55.5t55.5 -149.5t-55.5 -149t-149.5 -55t-149.5 55t-55.5 149z" />
<glyph unicode="/" horiz-adv-x="956" d="M0 -211l688 1849l268 -96l-688 -1849z" />
<glyph unicode="0" horiz-adv-x="1327" d="M82 717q0 157 44.5 294t121.5 233.5t185.5 152t232.5 55.5q123 0 230.5 -55.5t184 -152t120.5 -233.5t44 -294t-44 -294t-120.5 -233.5t-184 -152t-230.5 -55.5q-124 0 -232.5 55.5t-185.5 152t-121.5 233.5t-44.5 294zM430 717q0 -178 67 -293t169 -115q99 0 165 115.5 t66 292.5t-66 292t-165 115q-102 0 -169 -114.5t-67 -292.5z" />
<glyph unicode="1" horiz-adv-x="999" d="M61 1141l385 293h349v-1434h-349v1022l-180 -143z" />
<glyph unicode="2" horiz-adv-x="1060" d="M20 1202q197 250 517 250q224 0 357.5 -113t133.5 -307q0 -79 -23.5 -149.5t-57 -121.5t-96.5 -111t-114 -99.5t-140 -107.5t-146 -115h569v-328h-973v328q30 68 109.5 147t169 148t175.5 138t142.5 138t56.5 125q0 46 -45 73t-114 27q-85 0 -150 -41t-129 -122z" />
<glyph unicode="3" horiz-adv-x="1173" d="M41 201l242 241q41 -58 113.5 -95.5t150.5 -37.5q81 0 138.5 41t57.5 103q0 58 -51 95.5t-131 37.5h-92v286h113q60 0 98.5 34t38.5 85q0 59 -48.5 96t-119.5 37q-73 0 -136.5 -41t-103.5 -112l-241 241q73 105 216.5 172.5t299.5 67.5q206 0 343.5 -117.5t137.5 -298.5 q0 -188 -149 -305q83 -58 128.5 -141t45.5 -180q0 -122 -70 -220t-191.5 -153t-269.5 -55q-158 0 -302.5 61.5t-217.5 157.5z" />
<glyph unicode="4" horiz-adv-x="1308" d="M61 270v308l633 856h348v-856h185v-308h-185v-270h-348v270h-633zM406 578h288v393z" />
<glyph unicode="5" horiz-adv-x="1091" d="M31 221l241 242q99 -154 250 -154q90 0 145.5 46.5t55.5 117.5q0 72 -55.5 118t-141.5 46h-344v797h752v-338h-455v-152h56q233 0 384.5 -135t151.5 -342q0 -139 -72 -250t-198.5 -173t-284.5 -62q-311 0 -485 239z" />
<glyph unicode="6" horiz-adv-x="1214" d="M82 496q0 76 27 163t75 166l371 609h373l-273 -447q40 4 62 4q186 0 306 -139t120 -354q0 -224 -150.5 -370t-380.5 -146q-149 0 -270 66t-190.5 184t-69.5 264zM430 492q0 -77 53 -130t129 -53t129.5 53t53.5 130t-53.5 129.5t-129.5 52.5t-129 -52.5t-53 -129.5z" />
<glyph unicode="7" horiz-adv-x="1001" d="M20 1126v308h961v-308l-446 -1126h-357l457 1126h-615z" />
<glyph unicode="8" d="M82 414q0 106 50 194.5t142 145.5q-82 56 -127 138t-45 179q0 166 139 273.5t357 107.5q209 0 346 -110t137 -279q0 -97 -44.5 -177.5t-123.5 -135.5q89 -58 139 -145t50 -191q0 -189 -142.5 -310.5t-365.5 -121.5q-225 0 -368.5 121.5t-143.5 310.5zM430 455 q0 -65 46.5 -105.5t117.5 -40.5q69 0 114.5 40.5t45.5 105.5q0 62 -46 101.5t-114 39.5q-71 0 -117.5 -39.5t-46.5 -101.5zM451 1018q0 -52 41 -83.5t106 -31.5q57 0 96 32t39 83q0 45 -39.5 75.5t-95.5 30.5q-64 0 -105.5 -30t-41.5 -76z" />
<glyph unicode="9" horiz-adv-x="1204" d="M61 936q0 224 150.5 370t380.5 146q149 0 270 -66t190.5 -184t69.5 -264q0 -76 -27 -164t-75 -166l-371 -608h-383l271 444q-14 -2 -50 -2q-186 0 -306 139.5t-120 354.5zM410 942q0 -77 53 -129.5t129 -52.5t129 52.5t53 129.5t-53 129.5t-129 52.5t-129 -52.5 t-53 -129.5z" />
<glyph unicode=":" horiz-adv-x="532" d="M61 186q0 94 55.5 149.5t149.5 55.5t149.5 -55.5t55.5 -149.5t-55.5 -149t-149.5 -55t-149.5 55t-55.5 149zM61 838q0 94 55.5 149t149.5 55t149.5 -55t55.5 -149t-55.5 -149.5t-149.5 -55.5t-149.5 55.5t-55.5 149.5z" />
<glyph unicode=";" horiz-adv-x="532" d="M-43 -242l170 639l307 -84l-237 -624zM61 838q0 94 55.5 149t149.5 55t149.5 -55t55.5 -149t-55.5 -149.5t-149.5 -55.5t-149.5 55.5t-55.5 149.5z" />
<glyph unicode="&#x3c;" horiz-adv-x="1228" d="M164 471v287l901 327v-303l-469 -168l469 -168v-303z" />
<glyph unicode="=" horiz-adv-x="1228" d="M164 246v286h901v-286h-901zM164 696v287h901v-287h-901z" />
<glyph unicode="&#x3e;" horiz-adv-x="1228" d="M164 143v303l469 168l-469 168v303l901 -327v-287z" />
<glyph unicode="?" horiz-adv-x="1110" d="M20 1202q70 119 207 184.5t310 65.5q238 0 385 -117t147 -307q0 -64 -18.5 -111t-49.5 -75t-68 -51.5t-77 -49.5t-74.5 -59t-61 -90t-36.5 -133h-246q-23 100 -10 176t46.5 123.5t79.5 86t87.5 64t70.5 57.5t29 66q0 49 -50 76t-136 27q-102 0 -187.5 -38.5 t-129.5 -105.5zM362 186q0 94 55.5 149.5t149.5 55.5t149.5 -55.5t55.5 -149.5t-55.5 -149t-149.5 -55t-149.5 55t-55.5 149z" />
<glyph unicode="@" horiz-adv-x="1593" d="M41 506q0 212 97.5 379t274 260.5t400.5 93.5q212 0 381 -83.5t263.5 -232.5t94.5 -335q0 -193 -96 -319t-244 -126q-143 0 -231 115q-94 -115 -244 -115q-141 0 -234 104.5t-93 264.5t93 264.5t234 104.5q91 0 164 -45v26h246v-370q0 -62 32.5 -103t80.5 -41 q58 0 93.5 64t35.5 166q0 220 -161 363.5t-413 143.5q-267 0 -438.5 -162t-171.5 -411q0 -162 75.5 -293.5t207 -205.5t292.5 -74q162 0 293 77l25 -151q-157 -80 -344 -80q-204 0 -367 93t-254.5 258t-91.5 370zM696 512q0 -44 23.5 -73t58.5 -29t58.5 29t23.5 73t-23.5 73 t-58.5 29t-58.5 -29t-23.5 -73z" />
<glyph unicode="A" horiz-adv-x="1544" d="M41 0l532 1434h398l532 -1434h-352l-96 270h-566l-96 -270h-352zM600 578h344l-172 483z" />
<glyph unicode="B" horiz-adv-x="1411" d="M123 0v1434h676q199 0 328.5 -112.5t129.5 -281.5q0 -181 -143 -295q92 -50 143.5 -134t51.5 -191q0 -184 -129.5 -302t-329.5 -118h-727zM471 307h379q47 0 79 39.5t32 97.5q0 55 -32 92t-79 37h-379v-266zM471 881h328q47 0 78.5 36t31.5 89q0 52 -31.5 86t-78.5 34 h-328v-245z" />
<glyph unicode="C" horiz-adv-x="1359" d="M82 717q0 210 92 378t255.5 262.5t367.5 94.5q156 0 290.5 -57t231.5 -160l-262 -219q-105 108 -260 108q-160 0 -263.5 -114.5t-103.5 -292.5t103.5 -293t263.5 -115q152 0 260 111l264 -219q-98 -105 -232.5 -162t-291.5 -57q-204 0 -367.5 94.5t-255.5 262.5t-92 378z " />
<glyph unicode="D" horiz-adv-x="1441" d="M123 0v1434h522q204 0 367.5 -93t255.5 -257t92 -367t-92 -367t-255.5 -257t-367.5 -93h-522zM471 307h174q159 0 263 116.5t104 293.5t-103.5 293t-263.5 116h-174v-819z" />
<glyph unicode="E" horiz-adv-x="1280" d="M123 0v1434h1055v-308h-707v-243h625v-308h-625v-268h707v-307h-1055z" />
<glyph unicode="F" horiz-adv-x="1280" d="M123 0v1434h1055v-308h-707v-243h625v-308h-625v-575h-348z" />
<glyph unicode="G" horiz-adv-x="1423" d="M82 717q0 210 93 378t259.5 262.5t374.5 94.5q158 0 295 -57t235 -160l-262 -219q-108 108 -268 108q-166 0 -272.5 -114.5t-106.5 -292.5q0 -179 108 -293.5t277 -114.5q113 0 209 60v180h-326v307h654v-655q-100 -104 -238 -161.5t-299 -57.5q-210 0 -377.5 94.5 t-261.5 262.5t-94 378z" />
<glyph unicode="H" horiz-adv-x="1525" d="M123 0v1434h348v-551h584v551h348v-1434h-348v575h-584v-575h-348z" />
<glyph unicode="I" horiz-adv-x="593" d="M123 0v1434h348v-1434h-348z" />
<glyph unicode="J" horiz-adv-x="1226" d="M20 317l297 166q30 -77 96 -125.5t146 -48.5q87 0 147 55t60 138v932h348v-928q0 -226 -156.5 -375t-390.5 -149q-185 0 -337.5 94t-209.5 241z" />
<glyph unicode="K" horiz-adv-x="1384" d="M123 0v1434h348v-564l442 564h406l-488 -617l533 -817h-393l-350 553l-150 -191v-362h-348z" />
<glyph unicode="L" horiz-adv-x="1167" d="M123 0v1434h348v-1127h666v-307h-1014z" />
<glyph unicode="M" horiz-adv-x="1769" d="M123 0v1434h360l402 -682l401 682h361v-1434h-349v881l-317 -574h-193l-317 574v-881h-348z" />
<glyph unicode="N" horiz-adv-x="1536" d="M123 0v1434h348l594 -859v859h348v-1434h-348l-594 858v-858h-348z" />
<glyph unicode="O" horiz-adv-x="1593" d="M82 717q0 210 92 378t255.5 262.5t367.5 94.5t367.5 -94.5t255 -262.5t91.5 -378t-91.5 -378t-255 -262.5t-367.5 -94.5t-367.5 94.5t-255.5 262.5t-92 378zM430 717q0 -178 103.5 -293t263.5 -115t263 115t103 293t-103 292.5t-263 114.5t-263.5 -114.5t-103.5 -292.5z " />
<glyph unicode="P" horiz-adv-x="1277" d="M123 0v1434h584q221 0 365.5 -133.5t144.5 -337.5t-144.5 -337.5t-365.5 -133.5h-236v-492h-348zM471 799h236q70 0 115.5 46.5t45.5 117.5t-45.5 117t-115.5 46h-236v-327z" />
<glyph unicode="Q" horiz-adv-x="1593" d="M82 717q0 210 92 378t255.5 262.5t367.5 94.5t367.5 -94.5t255 -262.5t91.5 -378q0 -292 -172 -496l234 -309l-260 -199l-242 320q-127 -51 -274 -51q-204 0 -367.5 94.5t-255.5 262.5t-92 378zM430 717q0 -178 103.5 -293t263.5 -115t263 115t103 293t-103 292.5 t-263 114.5t-263.5 -114.5t-103.5 -292.5z" />
<glyph unicode="R" horiz-adv-x="1333" d="M123 0v1434h635q214 0 351.5 -130t137.5 -331q0 -130 -62 -235.5t-169 -164.5l287 -573h-369l-227 512h-236v-512h-348zM471 819h287q62 0 101.5 43.5t39.5 110.5t-39.5 110t-101.5 43h-287v-307z" />
<glyph unicode="S" horiz-adv-x="1181" d="M41 201l242 241q146 -133 329 -133q85 0 138 31t53 76q0 29 -24.5 51.5t-65.5 39t-94 31.5t-112 33.5t-117.5 41.5t-111.5 58.5t-94 81t-65.5 113t-24.5 150.5q0 204 137.5 320t374.5 116q164 0 295 -55t201 -154l-238 -242q-99 123 -291 123q-139 0 -139 -77 q0 -36 30.5 -64t80 -46.5t113 -40.5t130 -44t130 -59t113 -83t80 -118.5t30.5 -163.5q0 -207 -147 -326.5t-402 -119.5q-335 0 -551 219z" />
<glyph unicode="T" horiz-adv-x="1208" d="M20 1126v308h1168v-308h-410v-1126h-348v1126h-410z" />
<glyph unicode="U" horiz-adv-x="1505" d="M113 547v887h348v-891q0 -101 83 -167.5t210 -66.5q126 0 208 66.5t82 167.5v891h349v-887q0 -163 -82 -292t-228 -201t-329 -72q-280 0 -460.5 159t-180.5 406z" />
<glyph unicode="V" horiz-adv-x="1482" d="M20 1434h353l368 -1053l369 1053h352l-522 -1434h-397z" />
<glyph unicode="W" horiz-adv-x="2039" d="M20 1434h342l234 -936l248 936h352l248 -936l233 936h342l-379 -1434h-366l-254 961l-254 -961h-367z" />
<glyph unicode="X" horiz-adv-x="1411" d="M-10 0l512 735l-488 699h408l285 -439l282 439h408l-488 -699l512 -735h-407l-307 473l-310 -473h-407z" />
<glyph unicode="Y" horiz-adv-x="1458" d="M41 1434h385l305 -572l301 572h385l-512 -914v-520h-348v526z" />
<glyph unicode="Z" horiz-adv-x="1132" d="M61 0v307l611 819h-590v308h989v-308l-608 -819h608v-307h-1010z" />
<glyph unicode="[" horiz-adv-x="819" d="M123 -307v1945h676v-266h-369v-1413h369v-266h-676z" />
<glyph unicode="\" horiz-adv-x="956" d="M0 1542l268 96l688 -1849l-268 -96z" />
<glyph unicode="]" horiz-adv-x="819" d="M20 -41h369v1413h-369v266h676v-1945h-676v266z" />
<glyph unicode="^" horiz-adv-x="1228" d="M143 979l471 473l469 -473l-202 -203l-267 271l-268 -271z" />
<glyph unicode="_" horiz-adv-x="573" d="M0 -102h573v-287h-573v287z" />
<glyph unicode="`" horiz-adv-x="571" d="M61 1757l197 178l252 -354l-123 -115z" />
<glyph unicode="a" horiz-adv-x="1101" d="M61 281q0 159 119.5 247t333.5 88h158v39q0 47 -42.5 74t-117.5 27q-135 0 -217 -82l-211 180q145 188 444 188q223 0 347 -96t124 -268v-678h-327v43q-113 -61 -258 -61q-166 0 -259.5 79t-93.5 220zM389 326q0 -42 37.5 -70.5t99.5 -28.5q65 0 105.5 31t40.5 80v74 h-172q-48 0 -79.5 -23.5t-31.5 -62.5z" />
<glyph unicode="b" d="M102 0v1495h328v-526q106 73 240 73q195 0 323.5 -150t128.5 -380t-128.5 -380t-323.5 -150q-134 0 -240 73v-55h-328zM430 516q0 -98 51.5 -162.5t130.5 -64.5t131 64.5t52 162.5q0 95 -51.5 157t-131.5 62q-79 0 -130.5 -62t-51.5 -157z" />
<glyph unicode="c" horiz-adv-x="987" d="M61 512q0 231 146 380.5t373 149.5q243 0 387 -147l-230 -229q-56 69 -157 69q-86 0 -138.5 -61.5t-52.5 -157.5q0 -99 53 -163t138 -64q101 0 157 69l230 -229q-138 -147 -387 -147q-227 0 -373 149.5t-146 380.5z" />
<glyph unicode="d" d="M61 512q0 230 129 380t326 150q131 0 238 -71v524h327v-1495h-327v53q-107 -71 -238 -71q-197 0 -326 150t-129 380zM389 516q0 -98 51.5 -162.5t130.5 -64.5t131 64.5t52 162.5q0 95 -51.5 157t-131.5 62q-79 0 -130.5 -62t-51.5 -157z" />
<glyph unicode="e" horiz-adv-x="1114" d="M61 526q0 225 139 370.5t357 145.5t362 -144.5t144 -362.5q0 -67 -12 -129h-668q11 -60 75.5 -99t155.5 -39q136 0 224 82l186 -182q-64 -89 -172.5 -137.5t-239.5 -48.5q-241 0 -396 153t-155 391zM383 610h360q-13 72 -60.5 109t-119.5 37t-119.5 -37t-60.5 -109z" />
<glyph unicode="f" horiz-adv-x="780" d="M41 737v287h143v88q0 186 146 293.5t399 107.5v-307q-100 0 -158.5 -27.5t-58.5 -74.5v-80h217v-287h-217v-737h-328v737h-143z" />
<glyph unicode="g" d="M61 512q0 230 129 380t326 150q131 0 238 -71v53h327v-983q0 -247 -146.5 -388.5t-399.5 -141.5q-142 0 -257.5 46.5t-183.5 131.5l207 207q21 -34 75.5 -56t125.5 -22q116 0 184 60.5t68 166.5v8q-107 -71 -238 -71q-197 0 -326 150t-129 380zM389 510q0 -97 51 -159 t131 -62t131.5 62t51.5 159t-52 161t-131 64t-130.5 -64t-51.5 -161z" />
<glyph unicode="h" d="M102 0v1495h328v-520q112 67 250 67q174 0 287.5 -98t113.5 -250v-694h-327v637q0 43 -38.5 70.5t-101.5 27.5q-81 0 -132.5 -47t-51.5 -121v-567h-328z" />
<glyph unicode="i" horiz-adv-x="532" d="M61 1331q0 94 55.5 149.5t149.5 55.5t149.5 -55.5t55.5 -149.5t-55.5 -149.5t-149.5 -55.5t-149.5 55.5t-55.5 149.5zM102 0v1024h328v-1024h-328z" />
<glyph unicode="j" horiz-adv-x="532" d="M-115 -182q104 0 160.5 44t56.5 122v1040h328v-1044q0 -220 -145 -344.5t-400 -124.5v307zM61 1331q0 94 55.5 149.5t149.5 55.5t149.5 -55.5t55.5 -149.5t-55.5 -149.5t-149.5 -55.5t-149.5 55.5t-55.5 149.5z" />
<glyph unicode="k" horiz-adv-x="1153" d="M102 0v1495h328v-780l250 309h397l-368 -410l424 -614h-365l-254 397l-84 -94v-303h-328z" />
<glyph unicode="l" horiz-adv-x="532" d="M102 0v1495h328v-1495h-328z" />
<glyph unicode="m" horiz-adv-x="1691" d="M102 0v1024h328v-37q96 55 211 55q168 0 272 -104q120 104 291 104q168 0 276.5 -98t108.5 -250v-694h-327v637q0 43 -29 70.5t-76 27.5q-62 0 -104.5 -47.5t-42.5 -120.5v-567h-328v637q0 43 -30 70.5t-79 27.5q-65 0 -104 -47t-39 -121v-567h-328z" />
<glyph unicode="n" d="M102 0v1024h328v-49q112 67 250 67q174 0 287.5 -98t113.5 -250v-694h-327v637q0 43 -38.5 70.5t-101.5 27.5q-81 0 -132.5 -47t-51.5 -121v-567h-328z" />
<glyph unicode="o" horiz-adv-x="1142" d="M61 512q0 230 144.5 380t365.5 150t365.5 -150t144.5 -380t-144.5 -380t-365.5 -150t-365.5 150t-144.5 380zM389 516q0 -98 51.5 -162.5t130.5 -64.5t131 64.5t52 162.5q0 95 -51.5 157t-131.5 62q-79 0 -130.5 -62t-51.5 -157z" />
<glyph unicode="p" d="M102 -471v1495h328v-55q106 73 240 73q195 0 323.5 -150t128.5 -380t-128.5 -380t-323.5 -150q-134 0 -240 73v-526h-328zM430 508q0 -95 51.5 -157t130.5 -62q80 0 131.5 62t51.5 157q0 98 -52 162.5t-131 64.5t-130.5 -64.5t-51.5 -162.5z" />
<glyph unicode="q" d="M61 512q0 230 129 380t326 150q131 0 238 -71v53h327v-1495h-327v524q-107 -71 -238 -71q-214 0 -334.5 141.5t-120.5 388.5zM389 508q0 -105 46.5 -162t135.5 -57q80 0 131.5 62t51.5 157q0 98 -52 162.5t-131 64.5t-130.5 -64.5t-51.5 -162.5z" />
<glyph unicode="r" horiz-adv-x="753" d="M102 0v1024h328v-59q123 77 283 77v-307q-135 0 -209 -44t-74 -124v-567h-328z" />
<glyph unicode="s" horiz-adv-x="989" d="M61 154l205 204q46 -46 114.5 -75t137.5 -29q49 0 82 12.5t33 30.5q0 15 -30 26.5t-77.5 21.5t-105.5 24t-115.5 40t-105 62.5t-77.5 98t-30 141.5q0 154 106 242.5t294 88.5q132 0 242.5 -44.5t187.5 -127.5l-205 -204q-30 45 -89.5 74.5t-125.5 29.5q-44 0 -74.5 -13 t-30.5 -32q0 -16 30 -28.5t77.5 -23.5t105 -25.5t115.5 -40.5t105.5 -62t77.5 -96.5t30 -137.5q0 -153 -113 -241t-309 -88q-137 0 -256.5 45t-198.5 127z" />
<glyph unicode="t" horiz-adv-x="831" d="M41 737v287h143v225h328v-225h258v-287h-258v-411q0 -30 28.5 -49t82.5 -19q79 0 147 21v-279q-85 -29 -199 -29q-170 0 -278.5 95.5t-108.5 242.5v428h-143z" />
<glyph unicode="u" d="M102 330v694h328v-637q0 -46 35.5 -72t97.5 -26q86 0 138.5 47t52.5 121v567h327v-1024h-327v53q-120 -71 -273 -71q-177 0 -278 92t-101 256z" />
<glyph unicode="v" horiz-adv-x="1101" d="M10 1024h324l217 -602l217 602h324l-379 -1024h-324z" />
<glyph unicode="w" horiz-adv-x="1560" d="M10 1024h314l151 -553l158 553h293l161 -553l150 553h313l-307 -1024h-303l-160 549l-159 -549h-304z" />
<glyph unicode="x" horiz-adv-x="1165" d="M20 0l375 518l-364 506h377l176 -274l174 274h377l-363 -506l373 -518h-377l-184 289l-187 -289h-377z" />
<glyph unicode="y" horiz-adv-x="1093" d="M10 1024h324l235 -674l199 674h315l-389 -1243q-40 -127 -138 -198.5t-232 -71.5q-105 0 -177 28v287q85 -29 162 -29q43 0 74.5 15t38.5 41l14 49z" />
<glyph unicode="z" horiz-adv-x="923" d="M41 0v287l428 450h-414v287h817v-287l-428 -450h439v-287h-842z" />
<glyph unicode="{" horiz-adv-x="913" d="M61 522v287q114 0 186 52t72 134v291q0 152 109.5 252t276.5 100h188v-286h-184q-26 0 -44 -18t-18 -44v-295q0 -105 -62 -190.5t-173 -138.5q111 -53 173 -138.5t62 -191.5v-295q0 -26 18 -43.5t44 -17.5h184v-287h-188q-167 0 -276.5 100t-109.5 252v291q0 82 -72 134 t-186 52z" />
<glyph unicode="|" horiz-adv-x="614" d="M164 -307v1945h287v-1945h-287z" />
<glyph unicode="}" horiz-adv-x="913" d="M20 -20h185q26 0 43.5 17.5t17.5 43.5v295q0 105 62.5 190.5t173.5 139.5q-111 54 -173.5 139t-62.5 190v295q0 26 -17.5 44t-43.5 18h-185v286h189q167 0 276 -100t109 -252v-291q0 -82 72 -134t186 -52v-287q-114 0 -186 -52t-72 -134v-291q0 -152 -109 -252t-276 -100 h-189v287z" />
<glyph unicode="~" horiz-adv-x="1228" d="M74 416q0 196 100.5 324t253.5 128q68 0 131 -29t101 -63t74 -63t57 -29q31 0 54 47.5t23 118.5h287q0 -196 -100.5 -324.5t-253.5 -128.5q-56 0 -107.5 19t-88 46.5t-67 54.5t-56.5 46t-44 19q-31 0 -54.5 -47.5t-23.5 -118.5h-286z" />
<glyph unicode="&#xa1;" horiz-adv-x="532" d="M61 838q0 94 55.5 149t149.5 55t149.5 -55t55.5 -149t-55.5 -149.5t-149.5 -55.5t-149.5 55.5t-55.5 149.5zM82 -410l61 975h246l62 -975h-369z" />
<glyph unicode="&#xa2;" horiz-adv-x="997" d="M61 717q0 176 102 303.5t271 169.5v262h205v-248q201 -18 328 -145l-230 -230q-57 70 -157 70q-85 0 -138 -50.5t-53 -127.5q0 -81 53 -133.5t138 -52.5q101 0 157 69l230 -229q-122 -131 -328 -146v-247h-205v262q-169 42 -271 169.5t-102 303.5z" />
<glyph unicode="&#xa3;" horiz-adv-x="1140" d="M82 557v205h115q-27 47 -40.5 75t-28.5 83.5t-15 115.5q0 181 133.5 298.5t343.5 117.5q292 0 489 -250l-241 -241q-65 82 -123 122.5t-131 40.5q-65 0 -104.5 -32t-39.5 -91q0 -40 14 -76.5t43.5 -86.5t41.5 -76h295v-205h-256q-6 -115 -76 -229h569v-328h-973v328 q126 116 150 229h-166z" />
<glyph unicode="&#xa4;" horiz-adv-x="1228" d="M141 403l148 154q-23 65 -23 164q0 96 23 158l-148 145l164 166l148 -146q67 21 159 21q100 0 164 -21l152 146l166 -166l-154 -145q21 -75 21 -158q0 -90 -23 -164l156 -151l-164 -166l-156 153q-68 -22 -162 -22q-88 0 -159 22l-148 -153zM481 719q0 -60 36 -98.5 t93 -38.5q61 0 98 38t37 99q0 60 -37 97.5t-98 37.5q-57 0 -93 -37.5t-36 -97.5z" />
<glyph unicode="&#xa5;" horiz-adv-x="1458" d="M41 1434h385l305 -572l301 572h385l-434 -777h256v-204h-334v-82h334v-205h-334v-166h-348v166h-336v205h336v82h-336v204h262z" />
<glyph unicode="&#xa6;" horiz-adv-x="614" d="M164 -307v768h287v-768h-287zM164 870v768h287v-768h-287z" />
<glyph unicode="&#xa7;" horiz-adv-x="1181" d="M41 647q0 151 90 252q-37 76 -37 170q0 187 135.5 285t376.5 98q164 0 295 -55t201 -154l-238 -242q-99 123 -291 123q-139 0 -139 -71q1 -39 39 -66t109 -51q28 -10 82.5 -26.5t93 -28.5t91.5 -33.5t90.5 -42.5t78.5 -54t65.5 -70.5t41 -89.5t16.5 -112q0 -151 -90 -252 q36 -74 36 -170q0 -187 -135.5 -285t-376.5 -98q-163 0 -294 55t-201 154l237 242q99 -123 291 -123q140 0 140 72q-1 39 -38.5 65.5t-109.5 50.5q-28 10 -82.5 26.5t-93 28.5t-91.5 33.5t-90.5 42.5t-78.5 54t-65.5 70.5t-41 89.5t-16.5 112zM379 616q0 -26 21 -46 t63 -35.5t85.5 -27.5t107 -30t110.5 -35q37 30 37 68q0 26 -21 46t-63 35.5t-85.5 27.5t-107 30t-110.5 35q-37 -30 -37 -68z" />
<glyph unicode="&#xa8;" horiz-adv-x="897" d="M61 1612q0 74 44.5 118t117.5 44t117.5 -44t44.5 -118t-44.5 -118t-117.5 -44t-117.5 44t-44.5 118zM512 1612q0 74 44 118t118 44t118 -44t44 -118t-44 -118t-118 -44t-118 44t-44 118z" />
<glyph unicode="&#xa9;" horiz-adv-x="1634" d="M82 717q0 200 98.5 369t267.5 267.5t369 98.5t369 -98.5t267.5 -267.5t98.5 -369q0 -201 -98.5 -370t-267.5 -267t-369 -98t-369 98t-267.5 267t-98.5 370zM287 717q0 -145 70.5 -267.5t192.5 -193t267 -70.5q109 0 207 42t169 113t113 169t42 207q0 145 -70.5 267 t-193 192.5t-267.5 70.5t-267 -70.5t-192.5 -192.5t-70.5 -267zM485 717q0 160 102 264t259 104q162 0 262 -108l-154 -129q-42 45 -108 45q-68 0 -112 -50t-44 -126t44 -126t112 -50q64 0 108 47l156 -129q-105 -111 -264 -111q-157 0 -259 104.5t-102 264.5z" />
<glyph unicode="&#xaa;" horiz-adv-x="757" d="M33 911q0 114 84 176t237 62h92v22q0 28 -26 44t-70 16q-87 0 -143 -53l-160 133q103 135 318 135q155 0 242 -67.5t87 -188.5v-473h-248v26q-71 -38 -172 -38q-115 0 -178 54t-63 152zM283 948q0 -26 22.5 -43.5t59.5 -17.5q36 0 58.5 18.5t22.5 48.5v45h-104 q-25 0 -42 -14t-17 -37z" />
<glyph unicode="&#xab;" horiz-adv-x="1226" d="M61 575l422 437l170 -140l-204 -297l204 -296l-170 -140zM553 575l422 437l170 -140l-205 -297l205 -296l-170 -140z" />
<glyph unicode="&#xac;" horiz-adv-x="1228" d="M164 512v287h901v-553h-266v266h-635z" />
<glyph unicode="&#xad;" horiz-adv-x="819" d="M123 430v287h573v-287h-573z" />
<glyph unicode="&#xae;" horiz-adv-x="1634" d="M82 717q0 200 98.5 369t267.5 267.5t369 98.5t369 -98.5t267.5 -267.5t98.5 -369q0 -201 -98.5 -370t-267.5 -267t-369 -98t-369 98t-267.5 267t-98.5 370zM287 717q0 -145 70.5 -267.5t192.5 -193t267 -70.5q109 0 207 42t169 113t113 169t42 207q0 145 -70.5 267 t-193 192.5t-267.5 70.5t-267 -70.5t-192.5 -192.5t-70.5 -267zM541 358v717h319q113 0 185.5 -66.5t72.5 -170.5q0 -62 -28 -114t-76 -83l135 -283h-215l-96 240h-93v-240h-204zM745 778h115q23 0 38 17t15 43t-14.5 41.5t-38.5 15.5h-115v-117z" />
<glyph unicode="&#xaf;" horiz-adv-x="716" d="M61 1495v205h594v-205h-594z" />
<glyph unicode="&#xb0;" horiz-adv-x="819" d="M20 1133q0 164 109.5 272t278.5 108q170 0 280.5 -107t110.5 -271q0 -165 -111 -272t-282 -107q-167 0 -276.5 106.5t-109.5 270.5zM276 1128q0 -59 38.5 -98t99.5 -39q54 0 91.5 39.5t37.5 97.5q0 68 -37 109t-92 41q-62 0 -100 -41t-38 -109z" />
<glyph unicode="&#xb1;" horiz-adv-x="1228" d="M164 82v287h901v-287h-901zM164 737v287h307v307h287v-307h307v-287h-307v-307h-287v307h-307z" />
<glyph unicode="&#xb2;" horiz-adv-x="516" d="M-2 1520q105 129 266 129q116 0 184 -57t68 -156q0 -27 -5 -51.5t-12 -43t-23.5 -39.5t-28.5 -34.5t-39 -35.5t-44 -35t-54 -40t-58 -43h256v-192h-494v192q15 33 52.5 71t80 70.5t83.5 64.5t67.5 61t26.5 51q0 24 -56 24q-38 0 -67 -20t-60 -60z" />
<glyph unicode="&#xb3;" horiz-adv-x="589" d="M12 1020l144 143q22 -25 59 -42t68 -17q29 0 49 14t20 37q0 19 -16 32t-39 13h-51v166h63q13 0 22 12t9 29q0 23 -15 36t-34 13q-29 0 -63 -20t-56 -50l-141 142q40 52 117.5 86.5t156.5 34.5q103 0 171.5 -58.5t68.5 -152.5q0 -95 -68 -154q80 -64 80 -156 q0 -93 -77.5 -155t-190.5 -62q-76 0 -155.5 32t-121.5 77z" />
<glyph unicode="&#xb4;" horiz-adv-x="571" d="M61 1581l252 354l197 -178l-326 -291z" />
<glyph unicode="&#xb5;" d="M102 -471v1495h328v-637q0 -46 35.5 -72t97.5 -26q86 0 138.5 47t52.5 121v567h327v-1024h-327v53q-120 -71 -273 -71q-35 0 -51 2v-455h-328z" />
<glyph unicode="&#xb6;" horiz-adv-x="1501" d="M82 1143q0 215 140.5 355t357.5 140h286v-1945h-286v952q-217 0 -357.5 140.5t-140.5 357.5zM1051 -307v1945h286v-1945h-286z" />
<glyph unicode="&#xb7;" horiz-adv-x="532" d="M61 717q0 94 55.5 149.5t149.5 55.5t149.5 -55.5t55.5 -149.5t-55.5 -149.5t-149.5 -55.5t-149.5 55.5t-55.5 149.5z" />
<glyph unicode="&#xb8;" horiz-adv-x="628" d="M61 -399l39 133q9 -7 25 -17.5t58.5 -28.5t78.5 -18q42 0 71 20.5t29 53.5q0 36 -38 58.5t-76 27.5l-37 4l43 166h192l-16 -63q6 -1 15 -3.5t32.5 -15.5t41.5 -32t33 -56t15 -84q0 -106 -69 -167.5t-187 -61.5q-68 0 -130.5 21t-90.5 42z" />
<glyph unicode="&#xb9;" horiz-adv-x="503" d="M20 1497l187 141h205v-716h-205v475l-66 -54z" />
<glyph unicode="&#xba;" horiz-adv-x="790" d="M37 1075q0 161 101 266t255 105q157 0 258 -105t101 -266t-101 -265.5t-258 -104.5q-154 0 -255 104.5t-101 265.5zM287 1077q0 -61 30 -100t76 -39q49 0 80 38.5t31 100.5q0 60 -31 97.5t-80 37.5q-46 0 -76 -37.5t-30 -97.5z" />
<glyph unicode="&#xbb;" horiz-adv-x="1226" d="M82 279l205 296l-205 297l170 140l422 -437l-422 -436zM573 279l205 296l-205 297l170 140l422 -437l-422 -436z" />
<glyph unicode="&#xbc;" horiz-adv-x="1333" d="M20 1292l187 142h205v-717h-205v475l-66 -53zM74 92l940 1327l160 -112l-941 -1327zM705 125v180l299 412h204v-412h88v-180h-88v-125h-204v125h-299zM903 305h101v141z" />
<glyph unicode="&#xbd;" horiz-adv-x="1259" d="M20 1292l187 142h205v-717h-205v475l-66 -53zM74 92l940 1327l160 -112l-941 -1327zM741 598q105 129 267 129q116 0 184 -57t68 -156q0 -31 -5 -56.5t-19.5 -50t-26.5 -41t-41.5 -41.5t-46.5 -38.5t-60 -45t-66 -48.5h256v-193h-493v193q18 40 70.5 88.5t104.5 85.5 t93 77t41 66q0 12 -16 18.5t-39 6.5q-38 0 -67 -20t-60 -60z" />
<glyph unicode="&#xbe;" horiz-adv-x="1419" d="M12 815l144 143q22 -25 59 -42t68 -17q29 0 49 14t20 37q0 19 -16 32t-39 13h-51v166h63q13 0 22 12t9 29q0 23 -15 36t-34 13q-29 0 -63 -20t-56 -49l-141 141q40 52 117.5 86.5t156.5 34.5q103 0 171.5 -58.5t68.5 -152.5q0 -95 -68 -154q80 -64 80 -155 q0 -93 -77.5 -155t-190.5 -62q-77 0 -156 31.5t-121 76.5zM160 92l940 1327l160 -112l-941 -1327zM791 125v180l299 412h204v-412h88v-180h-88v-125h-204v125h-299zM989 305h101v141z" />
<glyph unicode="&#xbf;" horiz-adv-x="1099" d="M31 16q0 64 18.5 111t49.5 75.5t68 52t77 49.5t74.5 59t61 90t36.5 133h246q23 -100 10 -176t-47 -123.5t-80 -86.5t-87.5 -64.5t-70.5 -57.5t-29 -66q0 -49 50.5 -75.5t136.5 -26.5q102 0 187.5 38t129.5 105l217 -211q-70 -119 -206.5 -184.5t-309.5 -65.5 q-238 0 -385 117t-147 307zM328 858q0 94 55 149.5t149 55.5t149.5 -55.5t55.5 -149.5t-55.5 -149.5t-149.5 -55.5t-149 55.5t-55 149.5z" />
<glyph unicode="&#xc0;" horiz-adv-x="1544" d="M41 0l532 1434h398l532 -1434h-352l-96 270h-566l-96 -270h-352zM424 1819l197 178l251 -355l-122 -114zM600 578h344l-172 483z" />
<glyph unicode="&#xc1;" horiz-adv-x="1544" d="M41 0l532 1434h398l532 -1434h-352l-96 270h-566l-96 -270h-352zM600 578h344l-172 483zM653 1642l252 355l197 -178l-326 -291z" />
<glyph unicode="&#xc2;" horiz-adv-x="1544" d="M41 0l532 1434h398l532 -1434h-352l-96 270h-566l-96 -270h-352zM446 1622l326 334l324 -334l-123 -115l-201 156l-203 -156zM600 578h344l-172 483z" />
<glyph unicode="&#xc3;" horiz-adv-x="1544" d="M41 0l532 1434h398l532 -1434h-352l-96 270h-566l-96 -270h-352zM408 1534q0 123 65.5 204t161.5 81q40 0 80.5 -16t67 -35.5t53.5 -35.5t43 -16q22 0 38.5 25.5t16.5 64.5h203q0 -123 -67 -203.5t-165 -80.5q-40 0 -80 16t-65 35t-50.5 35t-41.5 16q-24 0 -41 -25.5 t-17 -64.5h-202zM600 578h344l-172 483z" />
<glyph unicode="&#xc4;" horiz-adv-x="1544" d="M41 0l532 1434h398l532 -1434h-352l-96 270h-566l-96 -270h-352zM385 1673q0 73 44.5 117.5t117.5 44.5t117.5 -44.5t44.5 -117.5t-44.5 -117.5t-117.5 -44.5t-117.5 44.5t-44.5 117.5zM600 578h344l-172 483zM836 1673q0 74 44 118t117 44t117.5 -44.5t44.5 -117.5 t-44.5 -117.5t-117.5 -44.5t-117 44t-44 118z" />
<glyph unicode="&#xc5;" horiz-adv-x="1544" d="M41 0l532 1434h398l532 -1434h-352l-96 270h-566l-96 -270h-352zM516 1712q0 107 73 178.5t183 71.5t183 -71.5t73 -178.5q0 -109 -73 -180.5t-183 -71.5t-183 71.5t-73 180.5zM600 578h344l-172 483zM698 1712q0 -34 21 -57t53 -23t53 23t21 57q0 32 -21.5 55t-52.5 23 q-32 0 -53 -22t-21 -56z" />
<glyph unicode="&#xc6;" horiz-adv-x="1984" d="M41 0l676 1434h1165v-308h-625v-243h543v-308h-543v-268h625v-307h-973v299h-368l-138 -299h-362zM672 586h237v520z" />
<glyph unicode="&#xc7;" horiz-adv-x="1359" d="M82 717q0 210 92 378t255.5 262.5t367.5 94.5q156 0 290.5 -57t231.5 -160l-262 -219q-105 108 -260 108q-160 0 -263.5 -114.5t-103.5 -292.5t103.5 -293t263.5 -115q152 0 260 111l264 -219q-166 -177 -414 -211l-14 -53q6 -1 15 -3.5t32.5 -15.5t41.5 -32t33 -56 t15 -84q0 -106 -69 -167.5t-187 -61.5q-68 0 -130.5 21t-91.5 42l-28 21l39 133q9 -7 25 -17.5t58.5 -28.5t78.5 -18q42 0 71 20.5t29 53.5q0 36 -37.5 58.5t-75.5 27.5l-38 4l39 152q-183 19 -326.5 117t-224 258t-80.5 356z" />
<glyph unicode="&#xc8;" horiz-adv-x="1280" d="M123 0v1434h1055v-308h-707v-243h625v-308h-625v-268h707v-307h-1055zM303 1819l197 178l252 -355l-123 -114z" />
<glyph unicode="&#xc9;" horiz-adv-x="1280" d="M123 0v1434h1055v-308h-707v-243h625v-308h-625v-268h707v-307h-1055zM532 1642l252 355l197 -178l-326 -291z" />
<glyph unicode="&#xca;" horiz-adv-x="1280" d="M123 0v1434h1055v-308h-707v-243h625v-308h-625v-268h707v-307h-1055zM326 1622l325 334l324 -334l-123 -115l-201 156l-202 -156z" />
<glyph unicode="&#xcb;" horiz-adv-x="1280" d="M123 0v1434h1055v-308h-707v-243h625v-308h-625v-268h707v-307h-1055zM264 1673q0 73 44 117.5t118 44.5t118 -44.5t44 -117.5t-44 -117.5t-118 -44.5t-118 44.5t-44 117.5zM715 1673q0 73 44.5 117.5t117.5 44.5t117 -44t44 -118t-44 -118t-117 -44t-117.5 44.5 t-44.5 117.5z" />
<glyph unicode="&#xcc;" horiz-adv-x="593" d="M-51 1819l196 178l252 -355l-123 -114zM123 0v1434h348v-1434h-348z" />
<glyph unicode="&#xcd;" horiz-adv-x="593" d="M123 0v1434h348v-1434h-348zM178 1642l252 355l197 -178l-326 -291z" />
<glyph unicode="&#xce;" horiz-adv-x="593" d="M-29 1622l326 334l324 -334l-123 -115l-201 156l-203 -156zM123 0v1434h348v-1434h-348z" />
<glyph unicode="&#xcf;" horiz-adv-x="593" d="M-90 1673q0 73 44 117.5t118 44.5q73 0 117 -44t44 -118t-44 -118t-117 -44q-74 0 -118 44.5t-44 117.5zM123 0v1434h348v-1434h-348zM360 1673q0 73 44 117.5t118 44.5t118 -44.5t44 -117.5t-44 -117.5t-118 -44.5t-118 44.5t-44 117.5z" />
<glyph unicode="&#xd0;" horiz-adv-x="1441" d="M39 604v225h84v605h522q204 0 367.5 -93t255.5 -257t92 -367t-92 -367t-255.5 -257t-367.5 -93h-522v604h-84zM471 307h174q159 0 263 116.5t104 293.5t-103.5 293t-263.5 116h-174v-297h246v-225h-246v-297z" />
<glyph unicode="&#xd1;" horiz-adv-x="1536" d="M123 0v1434h348l594 -859v859h348v-1434h-348l-594 858v-858h-348zM403 1534q0 123 66 204t162 81q40 0 80.5 -16t67 -35.5t53 -35.5t42.5 -16q22 0 39 25.5t17 64.5h203q0 -123 -67 -203.5t-165 -80.5q-40 0 -80 16t-65 35t-50.5 35t-41.5 16q-24 0 -41 -25.5t-17 -64.5 h-203z" />
<glyph unicode="&#xd2;" horiz-adv-x="1593" d="M82 717q0 210 92 378t255.5 262.5t367.5 94.5t367.5 -94.5t255 -262.5t91.5 -378t-91.5 -378t-255 -262.5t-367.5 -94.5t-367.5 94.5t-255.5 262.5t-92 378zM430 717q0 -178 103.5 -293t263.5 -115t263 115t103 293t-103 292.5t-263 114.5t-263.5 -114.5t-103.5 -292.5z M449 1819l196 178l252 -355l-123 -114z" />
<glyph unicode="&#xd3;" horiz-adv-x="1593" d="M82 717q0 210 92 378t255.5 262.5t367.5 94.5t367.5 -94.5t255 -262.5t91.5 -378t-91.5 -378t-255 -262.5t-367.5 -94.5t-367.5 94.5t-255.5 262.5t-92 378zM430 717q0 -178 103.5 -293t263.5 -115t263 115t103 293t-103 292.5t-263 114.5t-263.5 -114.5t-103.5 -292.5z M678 1642l252 355l196 -178l-325 -291z" />
<glyph unicode="&#xd4;" horiz-adv-x="1593" d="M82 717q0 210 92 378t255.5 262.5t367.5 94.5t367.5 -94.5t255 -262.5t91.5 -378t-91.5 -378t-255 -262.5t-367.5 -94.5t-367.5 94.5t-255.5 262.5t-92 378zM430 717q0 -178 103.5 -293t263.5 -115t263 115t103 293t-103 292.5t-263 114.5t-263.5 -114.5t-103.5 -292.5z M471 1622l326 334l323 -334l-123 -115l-200 156l-203 -156z" />
<glyph unicode="&#xd5;" horiz-adv-x="1593" d="M82 717q0 210 92 378t255.5 262.5t367.5 94.5t367.5 -94.5t255 -262.5t91.5 -378t-91.5 -378t-255 -262.5t-367.5 -94.5t-367.5 94.5t-255.5 262.5t-92 378zM430 717q0 -178 103.5 -293t263.5 -115t263 115t103 293t-103 292.5t-263 114.5t-263.5 -114.5t-103.5 -292.5z M432 1534q0 123 65.5 204t161.5 81q40 0 80.5 -16t67 -35.5t53.5 -35.5t43 -16q22 0 38.5 25.5t16.5 64.5h203q0 -123 -66.5 -203.5t-164.5 -80.5q-40 0 -80 16t-65.5 35t-51 35t-41.5 16q-24 0 -40.5 -25.5t-16.5 -64.5h-203z" />
<glyph unicode="&#xd6;" horiz-adv-x="1593" d="M82 717q0 210 92 378t255.5 262.5t367.5 94.5t367.5 -94.5t255 -262.5t91.5 -378t-91.5 -378t-255 -262.5t-367.5 -94.5t-367.5 94.5t-255.5 262.5t-92 378zM410 1673q0 74 44 118t117 44t117.5 -44.5t44.5 -117.5t-44.5 -117.5t-117.5 -44.5t-117 44t-44 118zM430 717 q0 -178 103.5 -293t263.5 -115t263 115t103 293t-103 292.5t-263 114.5t-263.5 -114.5t-103.5 -292.5zM860 1673q0 73 44 117.5t118 44.5t118 -44.5t44 -117.5t-44 -117.5t-118 -44.5t-118 44.5t-44 117.5z" />
<glyph unicode="&#xd7;" horiz-adv-x="1228" d="M143 342l267 268l-267 269l203 202l266 -268l267 268l202 -202l-266 -269l268 -268l-202 -203l-269 269l-266 -269z" />
<glyph unicode="&#xd8;" horiz-adv-x="1593" d="M82 717q0 210 92 378t255.5 262.5t367.5 94.5q199 0 364 -92l94 135h175l-154 -219q112 -100 173.5 -244t61.5 -315q0 -210 -91.5 -378t-255 -262.5t-367.5 -94.5q-201 0 -363 92l-94 -135h-174l153 217q-114 101 -175.5 245t-61.5 316zM430 717q0 -163 88 -275l449 641 q-74 41 -170 41q-160 0 -263.5 -114.5t-103.5 -292.5zM629 350q74 -41 168 -41q160 0 263 115t103 293q0 159 -88 274z" />
<glyph unicode="&#xd9;" horiz-adv-x="1505" d="M113 547v887h348v-891q0 -101 83 -167.5t210 -66.5q126 0 208 66.5t82 167.5v891h349v-887q0 -163 -82 -292t-228 -201t-329 -72q-280 0 -460.5 159t-180.5 406zM406 1819l196 178l252 -355l-123 -114z" />
<glyph unicode="&#xda;" horiz-adv-x="1505" d="M113 547v887h348v-891q0 -101 83 -167.5t210 -66.5q126 0 208 66.5t82 167.5v891h349v-887q0 -163 -82 -292t-228 -201t-329 -72q-280 0 -460.5 159t-180.5 406zM635 1642l252 355l196 -178l-325 -291z" />
<glyph unicode="&#xdb;" horiz-adv-x="1505" d="M113 547v887h348v-891q0 -101 83 -167.5t210 -66.5q126 0 208 66.5t82 167.5v891h349v-887q0 -163 -82 -292t-228 -201t-329 -72q-280 0 -460.5 159t-180.5 406zM428 1622l326 334l323 -334l-123 -115l-200 156l-203 -156z" />
<glyph unicode="&#xdc;" horiz-adv-x="1505" d="M113 547v887h348v-891q0 -101 83 -167.5t210 -66.5q126 0 208 66.5t82 167.5v891h349v-887q0 -163 -82 -292t-228 -201t-329 -72q-280 0 -460.5 159t-180.5 406zM367 1673q0 74 44 118t117 44q74 0 118 -44.5t44 -117.5t-44 -117.5t-118 -44.5q-73 0 -117 44t-44 118z M817 1673q0 73 44.5 117.5t117.5 44.5t117.5 -44.5t44.5 -117.5t-44.5 -117.5t-117.5 -44.5t-117.5 44.5t-44.5 117.5z" />
<glyph unicode="&#xdd;" horiz-adv-x="1458" d="M41 1434h385l305 -572l301 572h385l-512 -914v-520h-348v526zM610 1642l252 355l197 -178l-326 -291z" />
<glyph unicode="&#xde;" horiz-adv-x="1277" d="M123 0v1434h348v-246h236q221 0 365.5 -133.5t144.5 -337.5t-144.5 -337.5t-365.5 -133.5h-236v-246h-348zM471 553h236q70 0 115.5 46.5t45.5 117.5t-45.5 117.5t-115.5 46.5h-236v-328z" />
<glyph unicode="&#xdf;" horiz-adv-x="1241" d="M102 0v1071q0 193 139.5 317.5t358.5 124.5q211 0 349 -116.5t138 -302.5q0 -103 -44.5 -191t-124.5 -147q117 -48 184 -138.5t67 -207.5q0 -175 -141 -292.5t-358 -117.5h-80v287h112q60 0 100 45t40 110q0 64 -39.5 104t-100.5 40h-112v286h45q54 0 89.5 45t35.5 113 q0 77 -49 126.5t-125 49.5q-68 0 -112 -40t-44 -103v-1063h-328z" />
<glyph unicode="&#xe0;" horiz-adv-x="1101" d="M61 281q0 159 119.5 247t333.5 88h158v39q0 47 -42.5 74t-117.5 27q-135 0 -217 -82l-211 180q145 188 444 188q223 0 347 -96t124 -268v-678h-327v43q-113 -61 -258 -61q-166 0 -259.5 79t-93.5 220zM182 1409l197 178l252 -354l-123 -115zM389 326q0 -42 37.5 -70.5 t99.5 -28.5q65 0 105.5 31t40.5 80v74h-172q-48 0 -79.5 -23.5t-31.5 -62.5z" />
<glyph unicode="&#xe1;" horiz-adv-x="1101" d="M61 281q0 159 119.5 247t333.5 88h158v39q0 47 -42.5 74t-117.5 27q-135 0 -217 -82l-211 180q145 188 444 188q223 0 347 -96t124 -268v-678h-327v43q-113 -61 -258 -61q-166 0 -259.5 79t-93.5 220zM389 326q0 -42 37.5 -70.5t99.5 -28.5q65 0 105.5 31t40.5 80v74 h-172q-48 0 -79.5 -23.5t-31.5 -62.5zM412 1233l252 354l196 -178l-325 -291z" />
<glyph unicode="&#xe2;" horiz-adv-x="1101" d="M61 281q0 159 119.5 247t333.5 88h158v39q0 47 -42.5 74t-117.5 27q-135 0 -217 -82l-211 180q145 188 444 188q223 0 347 -96t124 -268v-678h-327v43q-113 -61 -258 -61q-166 0 -259.5 79t-93.5 220zM205 1212l325 334l324 -334l-123 -114l-201 155l-202 -155zM389 326 q0 -42 37.5 -70.5t99.5 -28.5q65 0 105.5 31t40.5 80v74h-172q-48 0 -79.5 -23.5t-31.5 -62.5z" />
<glyph unicode="&#xe3;" horiz-adv-x="1101" d="M61 281q0 159 119.5 247t333.5 88h158v39q0 47 -42.5 74t-117.5 27q-135 0 -217 -82l-211 180q145 188 444 188q223 0 347 -96t124 -268v-678h-327v43q-113 -61 -258 -61q-166 0 -259.5 79t-93.5 220zM166 1124q0 123 65.5 204t161.5 81q51 0 101 -25.5t87 -51t56 -25.5 q22 0 38.5 25.5t16.5 64.5h203q0 -123 -66.5 -204t-164.5 -81q-40 0 -80 16t-65.5 35t-51 35t-41.5 16q-24 0 -40.5 -25.5t-16.5 -64.5h-203zM389 326q0 -42 37.5 -70.5t99.5 -28.5q65 0 105.5 31t40.5 80v74h-172q-48 0 -79.5 -23.5t-31.5 -62.5z" />
<glyph unicode="&#xe4;" horiz-adv-x="1101" d="M61 281q0 159 119.5 247t333.5 88h158v39q0 47 -42.5 74t-117.5 27q-135 0 -217 -82l-211 180q145 188 444 188q223 0 347 -96t124 -268v-678h-327v43q-113 -61 -258 -61q-166 0 -259.5 79t-93.5 220zM143 1264q0 73 44 117t118 44t118 -44t44 -117q0 -74 -44.5 -118 t-117.5 -44t-117.5 44t-44.5 118zM389 326q0 -42 37.5 -70.5t99.5 -28.5q65 0 105.5 31t40.5 80v74h-172q-48 0 -79.5 -23.5t-31.5 -62.5zM594 1264q0 73 44 117t118 44t118 -44t44 -117q0 -74 -44 -118t-118 -44t-118 44t-44 118z" />
<glyph unicode="&#xe5;" horiz-adv-x="1101" d="M61 281q0 159 119.5 247t333.5 88h158v39q0 47 -42.5 74t-117.5 27q-135 0 -217 -82l-211 180q145 188 444 188q223 0 347 -96t124 -268v-678h-327v43q-113 -61 -258 -61q-166 0 -259.5 79t-93.5 220zM274 1364q0 107 73 178.5t183 71.5t183 -71.5t73 -178.5 q0 -109 -73 -180.5t-183 -71.5t-183 71.5t-73 180.5zM389 326q0 -42 37.5 -70.5t99.5 -28.5q65 0 105.5 31t40.5 80v74h-172q-48 0 -79.5 -23.5t-31.5 -62.5zM457 1364q0 -34 20.5 -57t52.5 -23t53 23t21 57q0 32 -21.5 55t-52.5 23q-32 0 -52.5 -22t-20.5 -56z" />
<glyph unicode="&#xe6;" horiz-adv-x="1714" d="M61 281q0 159 119.5 247t333.5 88h158v39q0 47 -42.5 74t-117.5 27q-135 0 -217 -82l-211 180q136 188 414 188q248 0 364 -135q132 135 326 135q204 0 339.5 -144.5t135.5 -362.5q0 -67 -12 -129h-668q11 -60 75.5 -99t155.5 -39q136 0 224 82l186 -182 q-60 -89 -161.5 -137.5t-223.5 -48.5q-132 0 -240 55.5t-178 155.5q-50 -98 -158 -154.5t-249 -56.5q-166 0 -259.5 79t-93.5 220zM389 326q0 -42 37.5 -70.5t99.5 -28.5q65 0 105.5 31t40.5 80v74h-172q-48 0 -79.5 -23.5t-31.5 -62.5zM983 610h360q-13 72 -60.5 109 t-119.5 37t-119.5 -37t-60.5 -109z" />
<glyph unicode="&#xe7;" horiz-adv-x="987" d="M61 512q0 231 146 380.5t373 149.5q243 0 387 -147l-230 -229q-56 69 -157 69q-86 0 -138.5 -61.5t-52.5 -157.5q0 -99 53 -163t138 -64q101 0 157 69l230 -229q-104 -110 -269 -137l-14 -55q6 -1 15 -3.5t32.5 -15.5t41.5 -32t33 -56t15 -84q0 -106 -69 -167.5 t-187 -61.5q-68 0 -130.5 21t-90.5 42l-29 21l39 133q9 -7 25 -17.5t58.5 -28.5t78.5 -18q42 0 71 20.5t29 53.5q0 36 -38 58.5t-76 27.5l-37 4l39 152q-197 26 -320 171t-123 355z" />
<glyph unicode="&#xe8;" horiz-adv-x="1114" d="M61 526q0 225 139 370.5t357 145.5t362 -144.5t144 -362.5q0 -67 -12 -129h-668q11 -60 75.5 -99t155.5 -39q136 0 224 82l186 -182q-64 -89 -172.5 -137.5t-239.5 -48.5q-241 0 -396 153t-155 391zM215 1409l197 178l252 -354l-123 -115zM383 610h360q-13 72 -60.5 109 t-119.5 37t-119.5 -37t-60.5 -109z" />
<glyph unicode="&#xe9;" horiz-adv-x="1114" d="M61 526q0 225 139 370.5t357 145.5t362 -144.5t144 -362.5q0 -67 -12 -129h-668q11 -60 75.5 -99t155.5 -39q136 0 224 82l186 -182q-64 -89 -172.5 -137.5t-239.5 -48.5q-241 0 -396 153t-155 391zM383 610h360q-13 72 -60.5 109t-119.5 37t-119.5 -37t-60.5 -109z M444 1233l252 354l197 -178l-326 -291z" />
<glyph unicode="&#xea;" horiz-adv-x="1114" d="M61 526q0 225 139 370.5t357 145.5t362 -144.5t144 -362.5q0 -67 -12 -129h-668q11 -60 75.5 -99t155.5 -39q136 0 224 82l186 -182q-64 -89 -172.5 -137.5t-239.5 -48.5q-241 0 -396 153t-155 391zM238 1212l325 334l324 -334l-123 -114l-201 155l-203 -155zM383 610 h360q-13 72 -60.5 109t-119.5 37t-119.5 -37t-60.5 -109z" />
<glyph unicode="&#xeb;" horiz-adv-x="1114" d="M61 526q0 225 139 370.5t357 145.5t362 -144.5t144 -362.5q0 -67 -12 -129h-668q11 -60 75.5 -99t155.5 -39q136 0 224 82l186 -182q-64 -89 -172.5 -137.5t-239.5 -48.5q-241 0 -396 153t-155 391zM176 1264q0 73 44 117t118 44t118 -44t44 -117q0 -74 -44 -118 t-118 -44t-118 44t-44 118zM383 610h360q-13 72 -60.5 109t-119.5 37t-119.5 -37t-60.5 -109zM627 1264q0 74 43.5 117.5t117.5 43.5t118 -44t44 -117q0 -74 -44 -118t-118 -44q-73 0 -117 44t-44 118z" />
<glyph unicode="&#xec;" horiz-adv-x="532" d="M-82 1409l197 178l252 -354l-123 -115zM102 0v1024h328v-1024h-328z" />
<glyph unicode="&#xed;" horiz-adv-x="532" d="M102 0v1024h328v-1024h-328zM147 1233l252 354l197 -178l-326 -291z" />
<glyph unicode="&#xee;" horiz-adv-x="532" d="M-59 1212l325 334l324 -334l-123 -114l-201 155l-203 -155zM102 0v1024h328v-1024h-328z" />
<glyph unicode="&#xef;" horiz-adv-x="532" d="M-121 1264q0 73 44 117t118 44t118 -44t44 -117q0 -74 -44.5 -118t-117.5 -44t-117.5 44t-44.5 118zM102 0v1024h328v-1024h-328zM330 1264q0 73 44 117t118 44t117.5 -43.5t43.5 -117.5t-44 -118t-117 -44q-74 0 -118 44t-44 118z" />
<glyph unicode="&#xf0;" horiz-adv-x="1214" d="M82 498q0 215 120 354t306 139q48 0 84 -8l-82 133l-199 -90l-59 119l188 86l-123 203h353l47 -78l145 65l60 -118l-136 -62l254 -416q103 -170 103 -329q0 -146 -69.5 -264t-191 -184t-270.5 -66q-230 0 -380 146t-150 370zM410 492q0 -87 58.5 -145t143.5 -58t144 58 t59 145t-58.5 144.5t-144.5 57.5q-85 0 -143.5 -57.5t-58.5 -144.5z" />
<glyph unicode="&#xf1;" d="M102 0v1024h328v-49q112 67 250 67q174 0 287.5 -98t113.5 -250v-694h-327v637q0 43 -38.5 70.5t-101.5 27.5q-81 0 -132.5 -47t-51.5 -121v-567h-328zM227 1124q0 123 66 204t162 81q51 0 101 -25.5t86.5 -51t55.5 -25.5q22 0 39 25.5t17 64.5h202q0 -123 -66.5 -204 t-164.5 -81q-40 0 -80 16t-65.5 35t-51 35t-41.5 16q-24 0 -40.5 -25.5t-16.5 -64.5h-203z" />
<glyph unicode="&#xf2;" horiz-adv-x="1142" d="M61 512q0 230 144.5 380t365.5 150t365.5 -150t144.5 -380t-144.5 -380t-365.5 -150t-365.5 150t-144.5 380zM223 1409l197 178l252 -354l-123 -115zM389 516q0 -98 51.5 -162.5t130.5 -64.5t131 64.5t52 162.5q0 95 -51.5 157t-131.5 62q-79 0 -130.5 -62t-51.5 -157z " />
<glyph unicode="&#xf3;" horiz-adv-x="1142" d="M61 512q0 230 144.5 380t365.5 150t365.5 -150t144.5 -380t-144.5 -380t-365.5 -150t-365.5 150t-144.5 380zM389 516q0 -98 51.5 -162.5t130.5 -64.5t131 64.5t52 162.5q0 95 -51.5 157t-131.5 62q-79 0 -130.5 -62t-51.5 -157zM453 1233l252 354l196 -178l-326 -291z " />
<glyph unicode="&#xf4;" horiz-adv-x="1142" d="M61 512q0 230 144.5 380t365.5 150t365.5 -150t144.5 -380t-144.5 -380t-365.5 -150t-365.5 150t-144.5 380zM246 1212l325 334l324 -334l-123 -114l-201 155l-202 -155zM389 516q0 -98 51.5 -162.5t130.5 -64.5t131 64.5t52 162.5q0 95 -51.5 157t-131.5 62 q-79 0 -130.5 -62t-51.5 -157z" />
<glyph unicode="&#xf5;" horiz-adv-x="1142" d="M61 512q0 230 144.5 380t365.5 150t365.5 -150t144.5 -380t-144.5 -380t-365.5 -150t-365.5 150t-144.5 380zM207 1124q0 123 65.5 204t161.5 81q51 0 101 -25.5t87 -51t56 -25.5q22 0 38.5 25.5t16.5 64.5h203q0 -123 -66.5 -204t-164.5 -81q-40 0 -80 16t-65.5 35 t-51 35t-41.5 16q-24 0 -40.5 -25.5t-16.5 -64.5h-203zM389 516q0 -98 51.5 -162.5t130.5 -64.5t131 64.5t52 162.5q0 95 -51.5 157t-131.5 62q-79 0 -130.5 -62t-51.5 -157z" />
<glyph unicode="&#xf6;" horiz-adv-x="1142" d="M61 512q0 230 144.5 380t365.5 150t365.5 -150t144.5 -380t-144.5 -380t-365.5 -150t-365.5 150t-144.5 380zM184 1264q0 73 44 117t118 44t118 -44t44 -117q0 -74 -44 -118t-118 -44t-118 44t-44 118zM389 516q0 -98 51.5 -162.5t130.5 -64.5t131 64.5t52 162.5 q0 95 -51.5 157t-131.5 62q-79 0 -130.5 -62t-51.5 -157zM635 1264q0 73 44 117t118 44q73 0 117 -43.5t44 -117.5t-44 -118t-117 -44t-117.5 44t-44.5 118z" />
<glyph unicode="&#xf7;" horiz-adv-x="1228" d="M164 471v287h901v-287h-901zM410 215q0 94 55 149.5t149 55.5t149.5 -55.5t55.5 -149.5t-55.5 -149.5t-149.5 -55.5t-149 55.5t-55 149.5zM410 1014q0 94 55 149.5t149 55.5t149.5 -55.5t55.5 -149.5t-55.5 -149.5t-149.5 -55.5t-149 55.5t-55 149.5z" />
<glyph unicode="&#xf8;" horiz-adv-x="1142" d="M61 512q0 230 144.5 380t365.5 150q120 0 220 -47l51 90h119l-82 -141q95 -72 148.5 -184t53.5 -248q0 -230 -144.5 -380t-365.5 -150q-121 0 -221 47l-53 -90h-119l84 143q-95 71 -148 183t-53 247zM389 516q0 -84 39 -145l205 354q-30 10 -62 10q-79 0 -130.5 -62 t-51.5 -157zM508 301q27 -12 63 -12q79 0 131 64.5t52 162.5q0 84 -41 143z" />
<glyph unicode="&#xf9;" d="M102 330v694h328v-637q0 -46 35.5 -72t97.5 -26q86 0 138.5 47t52.5 121v567h327v-1024h-327v53q-120 -71 -273 -71q-177 0 -278 92t-101 256zM244 1409l196 178l252 -354l-123 -115z" />
<glyph unicode="&#xfa;" d="M102 330v694h328v-637q0 -46 35.5 -72t97.5 -26q86 0 138.5 47t52.5 121v567h327v-1024h-327v53q-120 -71 -273 -71q-177 0 -278 92t-101 256zM473 1233l252 354l197 -178l-326 -291z" />
<glyph unicode="&#xfb;" d="M102 330v694h328v-637q0 -46 35.5 -72t97.5 -26q86 0 138.5 47t52.5 121v567h327v-1024h-327v53q-120 -71 -273 -71q-177 0 -278 92t-101 256zM266 1212l326 334l323 -334l-122 -114l-201 155l-203 -155z" />
<glyph unicode="&#xfc;" d="M102 330v694h328v-637q0 -46 35.5 -72t97.5 -26q86 0 138.5 47t52.5 121v567h327v-1024h-327v53q-120 -71 -273 -71q-177 0 -278 92t-101 256zM205 1264q0 73 44 117t118 44q73 0 117 -43.5t44 -117.5t-44 -118t-117 -44t-117.5 44t-44.5 118zM655 1264q0 73 44 117 t118 44t118 -44t44 -117q0 -74 -44.5 -118t-117.5 -44t-117.5 44t-44.5 118z" />
<glyph unicode="&#xfd;" horiz-adv-x="1093" d="M10 1024h324l235 -674l199 674h315l-389 -1243q-40 -127 -138 -198.5t-232 -71.5q-105 0 -177 28v287q85 -29 162 -29q43 0 74.5 15t38.5 41l14 49zM428 1233l252 354l197 -178l-326 -291z" />
<glyph unicode="&#xfe;" d="M102 -471v1966h328v-526q106 73 240 73q195 0 323.5 -150t128.5 -380t-128.5 -380t-323.5 -150q-134 0 -240 73v-526h-328zM430 508q0 -95 51.5 -157t130.5 -62q80 0 131.5 62t51.5 157q0 98 -52 162.5t-131 64.5t-130.5 -64.5t-51.5 -162.5z" />
<glyph unicode="&#xff;" horiz-adv-x="1093" d="M10 1024h324l235 -674l199 674h315l-389 -1243q-40 -127 -138 -198.5t-232 -71.5q-105 0 -177 28v287q85 -29 162 -29q43 0 74.5 15t38.5 41l14 49zM160 1264q0 73 44 117t118 44t117.5 -43.5t43.5 -117.5t-44 -118t-117 -44q-74 0 -118 44t-44 118zM610 1264 q0 73 44 117t118 44t118 -44t44 -117q0 -74 -44 -118t-118 -44t-118 44t-44 118z" />
<glyph unicode="&#x13f;" horiz-adv-x="1167" d="M123 0v1434h348v-1127h666v-307h-1014zM655 717q0 94 55.5 149.5t149.5 55.5t149.5 -55.5t55.5 -149.5t-55.5 -149.5t-149.5 -55.5t-149.5 55.5t-55.5 149.5z" />
<glyph unicode="&#x140;" horiz-adv-x="983" d="M102 0v1495h328v-1495h-328zM553 717q0 94 55.5 149.5t149.5 55.5t149.5 -55.5t55.5 -149.5t-55.5 -149.5t-149.5 -55.5t-149.5 55.5t-55.5 149.5z" />
<glyph unicode="&#x152;" horiz-adv-x="2320" d="M82 717q0 210 88 378t244.5 262.5t351.5 94.5q270 0 459 -176v158h993v-308h-707v-243h625v-308h-625v-268h707v-307h-993v158q-189 -176 -459 -176q-195 0 -351.5 94.5t-244.5 262.5t-88 378zM430 717q0 -178 103.5 -293t263.5 -115t263 115t103 293t-103 292.5 t-263 114.5t-263.5 -114.5t-103.5 -292.5z" />
<glyph unicode="&#x153;" horiz-adv-x="1785" d="M61 512q0 230 139 380t351 150q214 0 352 -151q132 151 346 151q209 0 347.5 -144.5t138.5 -362.5q0 -62 -13 -129h-667q11 -60 75.5 -99t155.5 -39q135 0 223 82l187 -182q-61 -89 -164.5 -137.5t-228.5 -48.5q-118 0 -218 42.5t-172 120.5q-67 -78 -160 -120.5 t-202 -42.5q-212 0 -351 150t-139 380zM389 516q0 -98 51.5 -162.5t130.5 -64.5t131 64.5t52 162.5q0 95 -51.5 157t-131.5 62q-79 0 -130.5 -62t-51.5 -157zM1055 610h360q-13 72 -60.5 109t-119.5 37t-119.5 -37t-60.5 -109z" />
<glyph unicode="&#x178;" horiz-adv-x="1458" d="M41 1434h385l305 -572l301 572h385l-512 -914v-520h-348v526zM342 1673q0 73 44 117.5t118 44.5t118 -44.5t44 -117.5t-44 -117.5t-118 -44.5t-118 44.5t-44 117.5zM793 1673q0 74 44 118t117 44q74 0 118 -44.5t44 -117.5t-44 -117.5t-118 -44.5q-73 0 -117 44t-44 118z " />
<glyph unicode="&#x2c6;" horiz-adv-x="772" d="M61 1561l326 333l324 -333l-123 -115l-201 156l-203 -156z" />
<glyph unicode="&#x2dc;" horiz-adv-x="851" d="M61 1473q0 123 66 203.5t162 80.5q51 0 101 -25.5t86.5 -51t55.5 -25.5q22 0 39 25.5t17 64.5h203q0 -123 -67 -204t-165 -81q-40 0 -80 16t-65 35.5t-50.5 35.5t-41.5 16q-24 0 -41 -25.5t-17 -64.5h-203z" />
<glyph unicode="&#x2000;" horiz-adv-x="998" />
<glyph unicode="&#x2001;" horiz-adv-x="1997" />
<glyph unicode="&#x2002;" horiz-adv-x="998" />
<glyph unicode="&#x2003;" horiz-adv-x="1997" />
<glyph unicode="&#x2004;" horiz-adv-x="665" />
<glyph unicode="&#x2005;" horiz-adv-x="499" />
<glyph unicode="&#x2006;" horiz-adv-x="332" />
<glyph unicode="&#x2007;" horiz-adv-x="332" />
<glyph unicode="&#x2008;" horiz-adv-x="249" />
<glyph unicode="&#x2009;" horiz-adv-x="399" />
<glyph unicode="&#x200a;" horiz-adv-x="110" />
<glyph unicode="&#x2010;" horiz-adv-x="819" d="M123 430v287h573v-287h-573z" />
<glyph unicode="&#x2011;" horiz-adv-x="819" d="M123 430v287h573v-287h-573z" />
<glyph unicode="&#x2012;" horiz-adv-x="819" d="M123 430v287h573v-287h-573z" />
<glyph unicode="&#x2013;" horiz-adv-x="1228" d="M123 430v287h983v-287h-983z" />
<glyph unicode="&#x2014;" horiz-adv-x="2048" d="M123 430v287h1802v-287h-1802z" />
<glyph unicode="&#x2018;" horiz-adv-x="514" d="M18 1055l218 485l215 -61l-125 -508z" />
<glyph unicode="&#x2019;" horiz-adv-x="514" d="M39 1032l125 508l307 -84l-217 -485z" />
<glyph unicode="&#x201a;" horiz-adv-x="514" d="M59 -213l125 508l308 -84l-218 -485z" />
<glyph unicode="&#x201c;" horiz-adv-x="841" d="M18 1055l218 485l215 -61l-125 -508zM387 1055l217 485l215 -61l-125 -508z" />
<glyph unicode="&#x201d;" horiz-adv-x="841" d="M18 1032l125 508l308 -84l-218 -485zM387 1032l125 508l307 -84l-217 -485z" />
<glyph unicode="&#x201e;" horiz-adv-x="882" d="M59 -213l125 508l308 -84l-218 -485zM428 -213l125 508l307 -84l-217 -485z" />
<glyph unicode="&#x2022;" horiz-adv-x="927" d="M123 573q0 158 92 249t250 91t249 -91t91 -249t-91 -250t-249 -92t-250 92t-92 250z" />
<glyph unicode="&#x2026;" horiz-adv-x="1597" d="M61 186q0 94 55.5 149.5t149.5 55.5t149.5 -55.5t55.5 -149.5t-55.5 -149t-149.5 -55t-149.5 55t-55.5 149zM594 186q0 94 55.5 149.5t149.5 55.5t149.5 -55.5t55.5 -149.5t-55.5 -149t-149.5 -55t-149.5 55t-55.5 149zM1126 186q0 94 55.5 149.5t149.5 55.5t149.5 -55.5 t55.5 -149.5t-55.5 -149t-149.5 -55t-149.5 55t-55.5 149z" />
<glyph unicode="&#x202f;" horiz-adv-x="399" />
<glyph unicode="&#x2039;" horiz-adv-x="735" d="M61 575l422 437l170 -140l-204 -297l204 -296l-170 -140z" />
<glyph unicode="&#x203a;" horiz-adv-x="735" d="M82 279l205 296l-205 297l170 140l422 -437l-422 -436z" />
<glyph unicode="&#x2044;" horiz-adv-x="239" d="M-430 92l940 1327l160 -112l-940 -1327z" />
<glyph unicode="&#x205f;" horiz-adv-x="499" />
<glyph unicode="&#x20ac;" horiz-adv-x="1460" d="M20 471v205h162v41v41h-162v205h199q70 223 251.5 356t426.5 133q156 0 290.5 -57t231.5 -160l-262 -219q-105 108 -260 108q-94 0 -171.5 -42.5t-127.5 -118.5h440v-205h-506q-2 -14 -2 -41t2 -41h506v-205h-440q50 -76 127.5 -119t171.5 -43q152 0 260 111l264 -219 q-98 -105 -232.5 -162t-291.5 -57q-245 0 -426.5 133t-251.5 356h-199z" />
<glyph unicode="&#x2122;" horiz-adv-x="1472" d="M10 1253v181h578v-181h-187v-536h-204v536h-187zM639 717v717h211l182 -304l182 304h209v-717h-204v395l-134 -242h-106l-135 244v-397h-205z" />
<glyph unicode="&#x2460;" horiz-adv-x="1839" d="M82 717q0 171 66.5 326t178.5 267t267 178t326 66q137 0 264.5 -42t230.5 -119.5t180.5 -180.5t119.5 -230.5t42 -264.5q0 -171 -66 -326.5t-178 -267.5t-267 -178t-326 -66t-326 66t-267 178t-178.5 267.5t-66.5 326.5zM287 717q0 -130 50 -247t134.5 -201.5 t201.5 -134.5t247 -50t247 50t201.5 134.5t134 201.5t49.5 247t-49.5 247t-134 201.5t-201.5 134.5t-247 50t-247 -50t-201.5 -134.5t-134.5 -201.5t-50 -247zM662 934l186 141h205v-717h-205v476l-66 -54z" />
<glyph unicode="&#x2461;" horiz-adv-x="1839" d="M82 717q0 171 66.5 326t178.5 267t267 178t326 66q137 0 264.5 -42t230.5 -119.5t180.5 -180.5t119.5 -230.5t42 -264.5q0 -171 -66 -326.5t-178 -267.5t-267 -178t-326 -66t-326 66t-267 178t-178.5 267.5t-66.5 326.5zM287 717q0 -130 50 -247t134.5 -201.5 t201.5 -134.5t247 -50t247 50t201.5 134.5t134 201.5t49.5 247t-49.5 247t-134 201.5t-201.5 134.5t-247 50t-247 -50t-201.5 -134.5t-134.5 -201.5t-50 -247zM657 952q105 129 267 129q116 0 184 -57t68 -156q0 -31 -5 -56.5t-19.5 -50t-26.5 -41t-41.5 -41.5t-46.5 -38.5 t-60 -45t-66 -48.5h256v-193h-493v193q18 40 70.5 88.5t104.5 85.5t93 77t41 66q0 12 -16 18.5t-39 6.5q-38 0 -67 -20t-60 -60z" />
<glyph unicode="&#x2462;" horiz-adv-x="1839" d="M82 717q0 171 66.5 326t178.5 267t267 178t326 66q137 0 264.5 -42t230.5 -119.5t180.5 -180.5t119.5 -230.5t42 -264.5q0 -171 -66 -326.5t-178 -267.5t-267 -178t-326 -66t-326 66t-267 178t-178.5 267.5t-66.5 326.5zM287 717q0 -130 50 -247t134.5 -201.5 t201.5 -134.5t247 -50t247 50t201.5 134.5t134 201.5t49.5 247t-49.5 247t-134 201.5t-201.5 134.5t-247 50t-247 -50t-201.5 -134.5t-134.5 -201.5t-50 -247zM655 465l136 135q18 -25 50 -42t66 -17q33 0 56.5 15t23.5 36q0 19 -16 32t-39 13h-51v166h63q13 0 22 12t9 27 q0 23 -17.5 37t-44.5 14q-30 0 -59 -20t-47 -50l-133 133q39 54 111.5 91.5t154.5 37.5q102 0 171 -60t69 -153q0 -92 -68 -151q80 -64 80 -156q0 -93 -76.5 -155t-189.5 -62q-83 0 -157 34.5t-114 82.5z" />
<glyph unicode="&#x2463;" horiz-adv-x="1839" d="M82 717q0 171 66.5 326t178.5 267t267 178t326 66q137 0 264.5 -42t230.5 -119.5t180.5 -180.5t119.5 -230.5t42 -264.5q0 -171 -66 -326.5t-178 -267.5t-267 -178t-326 -66t-326 66t-267 178t-178.5 267.5t-66.5 326.5zM287 717q0 -130 50 -247t134.5 -201.5 t201.5 -134.5t247 -50t247 50t201.5 134.5t134 201.5t49.5 247t-49.5 247t-134 201.5t-201.5 134.5t-247 50t-247 -50t-201.5 -134.5t-134.5 -201.5t-50 -247zM590 483v181l299 411h205v-411h88v-181h-88v-125h-205v125h-299zM788 664h101v141z" />
<glyph unicode="&#x2464;" horiz-adv-x="1839" d="M82 717q0 171 66.5 326t178.5 267t267 178t326 66q137 0 264.5 -42t230.5 -119.5t180.5 -180.5t119.5 -230.5t42 -264.5q0 -171 -66 -326.5t-178 -267.5t-267 -178t-326 -66t-326 66t-267 178t-178.5 267.5t-66.5 326.5zM287 717q0 -130 50 -247t134.5 -201.5 t201.5 -134.5t247 -50t247 50t201.5 134.5t134 201.5t49.5 247t-49.5 247t-134 201.5t-201.5 134.5t-247 50t-247 -50t-201.5 -134.5t-134.5 -201.5t-50 -247zM649 477l142 144q50 -74 114 -74q35 0 57.5 17t22.5 42q0 26 -22 43t-56 17h-172v415h381v-196h-209v-39h4 q121 0 200 -69t79 -175q0 -108 -82.5 -178t-206.5 -70q-161 0 -252 123z" />
<glyph unicode="&#x2465;" horiz-adv-x="1839" d="M82 717q0 171 66.5 326t178.5 267t267 178t326 66q137 0 264.5 -42t230.5 -119.5t180.5 -180.5t119.5 -230.5t42 -264.5q0 -171 -66 -326.5t-178 -267.5t-267 -178t-326 -66t-326 66t-267 178t-178.5 267.5t-66.5 326.5zM287 717q0 -130 50 -247t134.5 -201.5 t201.5 -134.5t247 -50t247 50t201.5 134.5t134 201.5t49.5 247t-49.5 247t-134 201.5t-201.5 134.5t-247 50t-247 -50t-201.5 -134.5t-134.5 -201.5t-50 -247zM645 618q0 88 53 173l174 290h215l-124 -211q6 2 22 2q92 0 150.5 -70.5t58.5 -180.5q0 -116 -77 -191.5 t-197 -75.5q-117 0 -196 75t-79 189zM850 618q0 -29 21 -49t49 -20t48.5 20t20.5 49q0 30 -20.5 50t-48.5 20t-49 -20t-21 -50z" />
<glyph unicode="&#x2466;" horiz-adv-x="1839" d="M82 717q0 171 66.5 326t178.5 267t267 178t326 66q137 0 264.5 -42t230.5 -119.5t180.5 -180.5t119.5 -230.5t42 -264.5q0 -171 -66 -326.5t-178 -267.5t-267 -178t-326 -66t-326 66t-267 178t-178.5 267.5t-66.5 326.5zM287 717q0 -130 50 -247t134.5 -201.5 t201.5 -134.5t247 -50t247 50t201.5 134.5t134 201.5t49.5 247t-49.5 247t-134 201.5t-201.5 134.5t-247 50t-247 -50t-201.5 -134.5t-134.5 -201.5t-50 -247zM676 895v180h489v-180l-209 -537h-208l215 537h-287z" />
<glyph unicode="&#x2467;" horiz-adv-x="1839" d="M82 717q0 171 66.5 326t178.5 267t267 178t326 66q137 0 264.5 -42t230.5 -119.5t180.5 -180.5t119.5 -230.5t42 -264.5q0 -171 -66 -326.5t-178 -267.5t-267 -178t-326 -66t-326 66t-267 178t-178.5 267.5t-66.5 326.5zM287 717q0 -130 50 -247t134.5 -201.5 t201.5 -134.5t247 -50t247 50t201.5 134.5t134 201.5t49.5 247t-49.5 247t-134 201.5t-201.5 134.5t-247 50t-247 -50t-201.5 -134.5t-134.5 -201.5t-50 -247zM668 567q0 110 90 168q-82 63 -82 160q0 83 69.5 136.5t178.5 53.5q105 0 173 -55t68 -141q0 -98 -78 -154 q87 -64 87 -168q0 -95 -71 -157t-181 -62q-112 0 -183 61.5t-71 157.5zM872 594q0 -24 14.5 -38.5t35.5 -14.5t34 14.5t13 38.5t-13 37.5t-34 13.5t-35.5 -13.5t-14.5 -37.5zM881 860q0 -18 12 -28.5t31 -10.5q15 0 26 10.5t11 28.5q0 13 -11.5 23t-25.5 10 q-18 0 -30.5 -9.5t-12.5 -23.5z" />
<glyph unicode="&#x2468;" horiz-adv-x="1839" d="M82 717q0 171 66.5 326t178.5 267t267 178t326 66q137 0 264.5 -42t230.5 -119.5t180.5 -180.5t119.5 -230.5t42 -264.5q0 -171 -66 -326.5t-178 -267.5t-267 -178t-326 -66t-326 66t-267 178t-178.5 267.5t-66.5 326.5zM287 717q0 -130 50 -247t134.5 -201.5 t201.5 -134.5t247 -50t247 50t201.5 134.5t134 201.5t49.5 247t-49.5 247t-134 201.5t-201.5 134.5t-247 50t-247 -50t-201.5 -134.5t-134.5 -201.5t-50 -247zM645 817q0 115 77.5 189.5t197.5 74.5q118 0 196 -74.5t78 -189.5q0 -83 -51 -170l-172 -293h-221l122 211 q-109 0 -168 70t-59 182zM850 819q0 -29 21 -49t49 -20t48.5 20t20.5 49q0 30 -20.5 50t-48.5 20t-49 -20t-21 -50z" />
<glyph unicode="&#x24ea;" horiz-adv-x="1839" d="M82 717q0 171 66.5 326t178.5 267t267 178t326 66q137 0 264.5 -42t230.5 -119.5t180.5 -180.5t119.5 -230.5t42 -264.5q0 -171 -66 -326.5t-178 -267.5t-267 -178t-326 -66t-326 66t-267 178t-178.5 267.5t-66.5 326.5zM287 717q0 -130 50 -247t134.5 -201.5 t201.5 -134.5t247 -50t247 50t201.5 134.5t134 201.5t49.5 247t-49.5 247t-134 201.5t-201.5 134.5t-247 50t-247 -50t-201.5 -134.5t-134.5 -201.5t-50 -247zM623 717q0 160 85 264t214 104q126 0 210.5 -104.5t84.5 -263.5t-84.5 -264t-210.5 -105q-129 0 -214 104.5 t-85 264.5zM827 717q0 -76 27.5 -126t67.5 -50q38 0 64 50t26 126t-26 126t-64 50q-40 0 -67.5 -50t-27.5 -126z" />
<glyph unicode="&#x24ff;" horiz-adv-x="1839" d="M82 717q0 171 66.5 326t178.5 267t267 178t326 66q137 0 264.5 -42t230.5 -119.5t180.5 -180.5t119.5 -230.5t42 -264.5q0 -171 -66 -326.5t-178 -267.5t-267 -178t-326 -66t-326 66t-267 178t-178.5 267.5t-66.5 326.5zM623 717q0 -160 85 -264.5t214 -104.5 q126 0 210.5 105t84.5 264t-84.5 263.5t-210.5 104.5q-129 0 -214 -104t-85 -264zM827 717q0 76 27.5 126t67.5 50q38 0 64 -50t26 -126t-26 -126t-64 -50q-40 0 -67.5 50t-27.5 126z" />
<glyph unicode="&#x25fc;" horiz-adv-x="1024" d="M0 0v1024h1024v-1024h-1024z" />
<glyph unicode="&#x278a;" horiz-adv-x="1839" d="M82 717q0 171 66.5 326t178.5 267t267 178t326 66q137 0 264.5 -42t230.5 -119.5t180.5 -180.5t119.5 -230.5t42 -264.5q0 -171 -66 -326.5t-178 -267.5t-267 -178t-326 -66t-326 66t-267 178t-178.5 267.5t-66.5 326.5zM662 934l120 -154l66 54v-476h205v717h-205z" />
<glyph unicode="&#x278b;" horiz-adv-x="1839" d="M82 717q0 171 66.5 326t178.5 267t267 178t326 66q137 0 264.5 -42t230.5 -119.5t180.5 -180.5t119.5 -230.5t42 -264.5q0 -171 -66 -326.5t-178 -267.5t-267 -178t-326 -66t-326 66t-267 178t-178.5 267.5t-66.5 326.5zM657 952l144 -143q31 40 60 60t67 20 q23 0 39 -6.5t16 -18.5q0 -26 -41 -66t-93 -77t-104.5 -85.5t-70.5 -88.5v-193h493v193h-256q23 17 66 48.5t60 45t46.5 38.5t41.5 41.5t26.5 41t19.5 50t5 56.5q0 99 -68 156t-184 57q-162 0 -267 -129z" />
<glyph unicode="&#x278c;" horiz-adv-x="1839" d="M82 717q0 171 66.5 326t178.5 267t267 178t326 66q137 0 264.5 -42t230.5 -119.5t180.5 -180.5t119.5 -230.5t42 -264.5q0 -171 -66 -326.5t-178 -267.5t-267 -178t-326 -66t-326 66t-267 178t-178.5 267.5t-66.5 326.5zM647 457q42 -45 121.5 -77t155.5 -32 q113 0 190.5 62t77.5 155q0 92 -80 156q68 59 68 153t-68.5 152.5t-171.5 58.5q-79 0 -156.5 -34.5t-117.5 -85.5l141 -142q22 30 56 50t63 20q19 0 34 -13t15 -36q0 -17 -9 -29t-22 -12h-63v-166h51q23 0 39 -13t16 -32q0 -23 -20 -37t-49 -14q-31 0 -68 17t-59 42z" />
<glyph unicode="&#x278d;" horiz-adv-x="1839" d="M82 717q0 171 66.5 326t178.5 267t267 178t326 66q137 0 264.5 -42t230.5 -119.5t180.5 -180.5t119.5 -230.5t42 -264.5q0 -171 -66 -326.5t-178 -267.5t-267 -178t-326 -66t-326 66t-267 178t-178.5 267.5t-66.5 326.5zM590 483h299v-125h205v125h88v181h-88v411h-205 l-299 -411v-181zM788 664l101 141v-141h-101z" />
<glyph unicode="&#x278e;" horiz-adv-x="1839" d="M82 717q0 171 66.5 326t178.5 267t267 178t326 66q137 0 264.5 -42t230.5 -119.5t180.5 -180.5t119.5 -230.5t42 -264.5q0 -171 -66 -326.5t-178 -267.5t-267 -178t-326 -66t-326 66t-267 178t-178.5 267.5t-66.5 326.5zM649 477q91 -123 252 -123q124 0 206.5 70 t82.5 178q0 106 -79 175t-200 69h-4v39h209v196h-381v-415h172q34 0 56 -17t22 -43q0 -25 -22.5 -42t-57.5 -17q-64 0 -114 74z" />
<glyph unicode="&#x278f;" horiz-adv-x="1839" d="M82 717q0 171 66.5 326t178.5 267t267 178t326 66q137 0 264.5 -42t230.5 -119.5t180.5 -180.5t119.5 -230.5t42 -264.5q0 -171 -66 -326.5t-178 -267.5t-267 -178t-326 -66t-326 66t-267 178t-178.5 267.5t-66.5 326.5zM645 618q0 -114 79 -189t196 -75q120 0 197 75.5 t77 191.5q0 110 -58.5 180.5t-150.5 70.5q-16 0 -22 -2l124 211h-215l-174 -290q-53 -85 -53 -173zM850 618q0 30 21 50t49 20t48.5 -20t20.5 -50q0 -29 -20.5 -49t-48.5 -20t-49 20t-21 49z" />
<glyph unicode="&#x2790;" horiz-adv-x="1839" d="M82 717q0 171 66.5 326t178.5 267t267 178t326 66q137 0 264.5 -42t230.5 -119.5t180.5 -180.5t119.5 -230.5t42 -264.5q0 -171 -66 -326.5t-178 -267.5t-267 -178t-326 -66t-326 66t-267 178t-178.5 267.5t-66.5 326.5zM676 895h287l-215 -537h208l209 537v180h-489 v-180z" />
<glyph unicode="&#x2791;" horiz-adv-x="1839" d="M82 717q0 171 66.5 326t178.5 267t267 178t326 66q137 0 264.5 -42t230.5 -119.5t180.5 -180.5t119.5 -230.5t42 -264.5q0 -171 -66 -326.5t-178 -267.5t-267 -178t-326 -66t-326 66t-267 178t-178.5 267.5t-66.5 326.5zM668 567q0 -96 71 -157.5t183 -61.5q110 0 181 62 t71 157q0 104 -87 168q78 56 78 154q0 86 -68 141t-173 55q-109 0 -178.5 -53.5t-69.5 -136.5q0 -97 82 -160q-90 -58 -90 -168zM872 594q0 24 14.5 37.5t35.5 13.5t34 -13.5t13 -37.5t-13 -38.5t-34 -14.5t-35.5 14.5t-14.5 38.5zM881 860q0 14 12.5 23.5t30.5 9.5 q14 0 25.5 -10t11.5 -23q0 -18 -11 -28.5t-26 -10.5q-19 0 -31 10.5t-12 28.5z" />
<glyph unicode="&#x2792;" horiz-adv-x="1839" d="M82 717q0 171 66.5 326t178.5 267t267 178t326 66q137 0 264.5 -42t230.5 -119.5t180.5 -180.5t119.5 -230.5t42 -264.5q0 -171 -66 -326.5t-178 -267.5t-267 -178t-326 -66t-326 66t-267 178t-178.5 267.5t-66.5 326.5zM645 817q0 -110 59 -181t150 -71h18l-122 -211 h221l172 293q51 87 51 170q0 115 -78 189.5t-196 74.5q-120 0 -197.5 -74.5t-77.5 -189.5zM850 819q0 30 21 50t49 20t48.5 -20t20.5 -50q0 -29 -20.5 -49t-48.5 -20t-49 20t-21 49z" />
<glyph horiz-adv-x="1226" d="M20 317l297 166q30 -77 96 -125.5t146 -48.5q87 0 147 55t60 138v932h348v-928q0 -226 -156.5 -375t-390.5 -149q-185 0 -337.5 94t-209.5 241zM817 1642l252 355l197 -178l-326 -291z" />
<glyph d="M61 512q0 230 129 380t326 150q131 0 238 -71v53h327v-1024h-327v53q-107 -71 -238 -71q-197 0 -326 150t-129 380zM389 516q0 -98 51.5 -162.5t130.5 -64.5t131 64.5t52 162.5q0 95 -51.5 157t-131.5 62q-79 0 -130.5 -62t-51.5 -157z" />
<glyph d="M61 512q0 230 129 380t326 150q131 0 238 -71v53h327v-1024h-327v53q-107 -71 -238 -71q-197 0 -326 150t-129 380zM389 516q0 -98 51.5 -162.5t130.5 -64.5t131 64.5t52 162.5q0 95 -51.5 157t-131.5 62q-79 0 -130.5 -62t-51.5 -157zM453 1233l252 354l196 -178 l-326 -291z" />
<glyph d="M61 512q0 230 129 380t326 150q131 0 238 -71v53h327v-1024h-327v53q-107 -71 -238 -71q-197 0 -326 150t-129 380zM246 1212l325 334l324 -334l-123 -114l-201 155l-202 -155zM389 516q0 -98 51.5 -162.5t130.5 -64.5t131 64.5t52 162.5q0 95 -51.5 157t-131.5 62 q-79 0 -130.5 -62t-51.5 -157z" />
<glyph d="M61 512q0 230 129 380t326 150q131 0 238 -71v53h327v-1024h-327v53q-107 -71 -238 -71q-197 0 -326 150t-129 380zM223 1409l197 178l252 -354l-123 -115zM389 516q0 -98 51.5 -162.5t130.5 -64.5t131 64.5t52 162.5q0 95 -51.5 157t-131.5 62q-79 0 -130.5 -62 t-51.5 -157z" />
<glyph d="M61 512q0 230 129 380t326 150q131 0 238 -71v53h327v-1024h-327v53q-107 -71 -238 -71q-197 0 -326 150t-129 380zM184 1264q0 73 44 117t118 44t118 -44t44 -117q0 -74 -44 -118t-118 -44t-118 44t-44 118zM389 516q0 -98 51.5 -162.5t130.5 -64.5t131 64.5t52 162.5 q0 95 -51.5 157t-131.5 62q-79 0 -130.5 -62t-51.5 -157zM635 1264q0 73 44 117t118 44q73 0 117 -43.5t44 -117.5t-44 -118t-117 -44t-117.5 44t-44.5 118z" />
<glyph d="M61 512q0 230 129 380t326 150q131 0 238 -71v53h327v-1024h-327v53q-107 -71 -238 -71q-197 0 -326 150t-129 380zM315 1364q0 107 73 178.5t183 71.5t183 -71.5t73 -178.5q0 -109 -73 -180.5t-183 -71.5t-183 71.5t-73 180.5zM389 516q0 -98 51.5 -162.5t130.5 -64.5 t131 64.5t52 162.5q0 95 -51.5 157t-131.5 62q-79 0 -130.5 -62t-51.5 -157zM498 1364q0 -34 20.5 -57t52.5 -23t53 23t21 57q0 32 -21.5 55t-52.5 23q-32 0 -52.5 -22t-20.5 -56z" />
<glyph d="M61 512q0 230 129 380t326 150q131 0 238 -71v53h327v-1024h-327v53q-107 -71 -238 -71q-197 0 -326 150t-129 380zM207 1124q0 123 65.5 204t161.5 81q51 0 101 -25.5t87 -51t56 -25.5q22 0 38.5 25.5t16.5 64.5h203q0 -123 -66.5 -204t-164.5 -81q-40 0 -80 16 t-65.5 35t-51 35t-41.5 16q-24 0 -40.5 -25.5t-16.5 -64.5h-203zM389 516q0 -98 51.5 -162.5t130.5 -64.5t131 64.5t52 162.5q0 95 -51.5 157t-131.5 62q-79 0 -130.5 -62t-51.5 -157z" />
<glyph horiz-adv-x="815" d="M37 1075q0 161 89 266t224 105q82 0 154 -43v31h248v-717h-248v31q-72 -43 -154 -43q-135 0 -224 104.5t-89 265.5zM287 1077q0 -61 30 -100t76 -39q49 0 80 38.5t31 100.5q0 60 -31 97.5t-80 37.5q-46 0 -76 -37.5t-30 -97.5z" />
<glyph horiz-adv-x="532" d="M-115 -182q104 0 160.5 44t56.5 122v1040h328v-1044q0 -220 -145 -344.5t-400 -124.5v307zM147 1233l252 354l197 -178l-326 -291z" />
<glyph horiz-adv-x="1093" d="M10 1024h324l233 -668l201 668h315l-467 -1495h-299l115 381z" />
<glyph horiz-adv-x="1093" d="M10 1024h324l233 -668l201 668h315l-467 -1495h-299l115 381zM428 1233l252 354l197 -178l-326 -291z" />
<glyph horiz-adv-x="1093" d="M10 1024h324l233 -668l201 668h315l-467 -1495h-299l115 381zM160 1264q0 73 44 117t118 44t117.5 -43.5t43.5 -117.5t-44 -118t-117 -44q-74 0 -118 44t-44 118zM610 1264q0 73 44 117t118 44t118 -44t44 -117q0 -74 -44 -118t-118 -44t-118 44t-44 118z" />
<glyph horiz-adv-x="1191" d="M102 -311l207 207q21 -34 76 -56t127 -22q117 0 183.5 60t66.5 167v10q-112 -73 -260 -73q-181 0 -286 107.5t-105 297.5v637h307v-584q0 -72 40 -111.5t111 -39.5q89 0 141 61.5t52 159.5v514h328v-983q0 -249 -144.5 -389.5t-398.5 -140.5q-146 0 -261.5 46.5 t-183.5 131.5z" />
<glyph horiz-adv-x="1191" d="M102 -311l207 207q21 -34 76 -56t127 -22q117 0 183.5 60t66.5 167v10q-112 -73 -260 -73q-181 0 -286 107.5t-105 297.5v637h307v-584q0 -72 40 -111.5t111 -39.5q89 0 141 61.5t52 159.5v514h328v-983q0 -249 -144.5 -389.5t-398.5 -140.5q-146 0 -261.5 46.5 t-183.5 131.5zM477 1233l252 354l197 -178l-326 -291z" />
<glyph horiz-adv-x="1191" d="M102 -311l207 207q21 -34 76 -56t127 -22q117 0 183.5 60t66.5 167v10q-112 -73 -260 -73q-181 0 -286 107.5t-105 297.5v637h307v-584q0 -72 40 -111.5t111 -39.5q89 0 141 61.5t52 159.5v514h328v-983q0 -249 -144.5 -389.5t-398.5 -140.5q-146 0 -261.5 46.5 t-183.5 131.5zM209 1264q0 73 44 117t118 44q73 0 117 -43.5t44 -117.5t-44 -118t-117 -44t-117.5 44t-44.5 118zM659 1264q0 73 44 117t118 44t118 -44t44 -117q0 -74 -44.5 -118t-117.5 -44t-117.5 44t-44.5 118z" />
<glyph horiz-adv-x="1228" d="M53 717q0 210 73 378t201.5 262.5t288.5 94.5q118 0 222 -55.5t178 -152t117 -233.5t43 -294t-43 -294t-117 -233.5t-178 -152t-222 -55.5q-160 0 -288.5 94.5t-201.5 262.5t-73 378zM401 717q0 -178 61 -293t154 -115q90 0 150.5 115.5t60.5 292.5t-60.5 292t-150.5 115 q-93 0 -154 -114.5t-61 -292.5z" />
<glyph horiz-adv-x="1228" d="M135 1141l385 293h348v-1106h308v-328h-963v328h307v694l-180 -143z" />
<glyph horiz-adv-x="1228" d="M104 1202q197 250 517 250q224 0 357.5 -113t133.5 -307q0 -79 -23.5 -149.5t-57 -121.5t-96.5 -111t-114 -99.5t-140 -107.5t-146 -115h569v-328h-973v328q30 68 109.5 147t169 148t175.5 138t142.5 138t56.5 125q0 46 -45 73t-114 27q-85 0 -150 -41t-129 -122z" />
<glyph horiz-adv-x="1228" d="M70 201l241 241q41 -58 113.5 -95.5t150.5 -37.5q81 0 139 41t58 103q0 58 -51 95.5t-131 37.5h-92v286h112q60 0 99 34t39 85q0 59 -48.5 96t-119.5 37q-73 0 -136.5 -41t-103.5 -112l-242 241q73 105 216.5 172.5t299.5 67.5q206 0 344 -117.5t138 -298.5 q0 -187 -150 -305q83 -58 128.5 -141t45.5 -180q0 -122 -70 -220t-191 -153t-269 -55q-158 0 -302.5 61.5t-217.5 157.5z" />
<glyph horiz-adv-x="1228" d="M53 270v308l602 856h349v-856h143v-308h-143v-270h-349v270h-602zM389 578h266v380z" />
<glyph horiz-adv-x="1228" d="M100 221l242 242q99 -154 250 -154q90 0 145.5 46.5t55.5 117.5q0 72 -55.5 118t-141.5 46h-344v797h752v-338h-455v-152h55q233 0 385 -135t152 -342q0 -139 -72 -250t-198.5 -173t-284.5 -62q-152 0 -276 60.5t-210 178.5z" />
<glyph horiz-adv-x="1228" d="M90 496q0 159 103 329l370 609h373l-272 -447q40 4 61 4q186 0 306 -139t120 -354q0 -224 -150 -370t-380 -146q-149 0 -270.5 66t-191 184t-69.5 264zM438 492q0 -77 53.5 -130t129.5 -53t129 53t53 130t-53 129.5t-129 52.5t-129.5 -52.5t-53.5 -129.5z" />
<glyph horiz-adv-x="1228" d="M135 1126v308h961v-308l-447 -1126h-356l457 1126h-615z" />
<glyph horiz-adv-x="1228" d="M104 414q0 106 50.5 194t142.5 146q-82 56 -127 138t-45 179q0 166 139 273.5t357 107.5q209 0 346 -110t137 -279q0 -97 -44.5 -177.5t-123.5 -135.5q89 -58 138.5 -145t49.5 -191q0 -189 -142.5 -310.5t-365.5 -121.5q-225 0 -368.5 121.5t-143.5 310.5zM453 455 q0 -65 46 -105.5t117 -40.5q69 0 114.5 40.5t45.5 105.5q0 62 -46 101.5t-114 39.5q-71 0 -117 -39t-46 -102zM473 1018q0 -52 41.5 -83.5t106.5 -31.5q57 0 96 32t39 83q0 45 -39.5 75.5t-95.5 30.5q-64 0 -106 -30t-42 -76z" />
<glyph horiz-adv-x="1228" d="M84 936q0 224 150 370t380 146q149 0 270.5 -66t191 -184t69.5 -264q0 -76 -27.5 -163.5t-75.5 -166.5l-370 -608h-383l270 444q-14 -2 -49 -2q-186 0 -306 139.5t-120 354.5zM432 942q0 -77 53 -129.5t129 -52.5t129.5 52.5t53.5 129.5t-53.5 129.5t-129.5 52.5 t-129 -52.5t-53 -129.5z" />
<glyph horiz-adv-x="659" d="M33 358q0 160 85 264.5t214 104.5q126 0 210.5 -105t84.5 -264t-84.5 -263.5t-210.5 -104.5q-129 0 -214 104t-85 264zM238 358q0 -76 27 -126t67 -50q38 0 64 50t26 126t-26 126.5t-64 50.5q-40 0 -67 -50.5t-27 -126.5z" />
<glyph horiz-adv-x="503" d="M20 575l187 142h205v-717h-205v475l-66 -53z" />
<glyph horiz-adv-x="516" d="M-2 598q105 129 266 129q116 0 184 -57t68 -156q0 -31 -5 -56.5t-19.5 -50.5t-26 -41t-41 -41.5t-46 -38t-60.5 -44.5t-66 -49h256v-193h-494v193q18 40 70.5 88.5t104.5 85.5t93.5 77t41.5 66q0 11 -16.5 18t-39.5 7q-38 0 -67 -20t-60 -60z" />
<glyph horiz-adv-x="589" d="M12 98l144 144q22 -25 59 -42.5t68 -17.5q29 0 49 14t20 37q0 19 -16 32.5t-39 13.5h-51v165h63q13 0 22 12t9 29q0 23 -15 36.5t-34 13.5q-29 0 -63 -20t-56 -50l-141 141q40 52 117.5 86.5t156.5 34.5q103 0 171.5 -58.5t68.5 -152.5q0 -95 -68 -154q80 -64 80 -155 q0 -93 -77.5 -155t-190.5 -62q-77 0 -156 31.5t-121 76.5z" />
<glyph horiz-adv-x="651" d="M23 125v180l299 412h204v-412h88v-180h-88v-125h-204v125h-299zM221 305h101v141z" />
<glyph horiz-adv-x="544" d="M6 113l141 143q50 -74 115 -74q35 0 57.5 17.5t22.5 42.5q0 26 -22 42.5t-56 16.5h-172v416h381v-197h-209v-39h4q121 0 200 -68.5t79 -174.5q0 -108 -82.5 -178t-206.5 -70q-161 0 -252 123z" />
<glyph horiz-adv-x="610" d="M33 254q0 87 53 172l174 291h215l-125 -211q6 2 23 2q92 0 150.5 -71t58.5 -181q0 -116 -77.5 -191t-197.5 -75q-117 0 -195.5 75t-78.5 189zM238 252q0 -29 20.5 -49.5t48.5 -20.5t49 20.5t21 49.5q0 30 -21 50t-49 20t-48.5 -20t-20.5 -50z" />
<glyph horiz-adv-x="483" d="M-2 537v180h489v-180l-208 -537h-209l215 537h-287z" />
<glyph horiz-adv-x="571" d="M33 209q0 110 90 168q-82 63 -82 160q0 83 69.5 136.5t178.5 53.5q105 0 173 -55.5t68 -141.5q0 -98 -77 -153q86 -63 86 -168q0 -95 -71 -157t-181 -62q-112 0 -183 61.5t-71 157.5zM238 236q0 -24 14 -39t35 -15t34 15t13 39t-13 37.5t-34 13.5t-35 -13.5t-14 -37.5z M246 502q0 -18 12 -28.5t31 -10.5q15 0 26 10.5t11 28.5q0 13 -11.5 23t-25.5 10q-18 0 -30.5 -9.5t-12.5 -23.5z" />
<glyph horiz-adv-x="606" d="M23 463q0 116 77 190t197 74q118 0 196 -74.5t78 -189.5q0 -83 -51 -170l-172 -293h-221l123 211q-109 0 -168 70t-59 182zM227 465q0 -29 21 -49.5t49 -20.5t49 20.5t21 49.5q0 30 -21 50t-49 20t-49 -20t-21 -50z" />
<glyph horiz-adv-x="270" d="M-8 -115l92 340l178 -49l-129 -332z" />
<glyph horiz-adv-x="270" d="M18 106q0 54 31.5 85.5t85.5 31.5t85.5 -31.5t31.5 -85.5t-31.5 -85t-85.5 -31t-85.5 31t-31.5 85z" />
<glyph horiz-adv-x="352" d="M33 334q0 78 21 157t51 135.5t60.5 101.5t51.5 68l21 23l108 -86q1 0 -10 -18t-30 -54t-37 -82t-31 -112t-13 -133q0 -68 13 -134.5t31 -112.5t37 -82.5t30 -54.5t10 -18l-108 -86q-8 8 -22 24t-49.5 66.5t-62.5 104.5t-49 134t-22 159z" />
<glyph horiz-adv-x="352" d="M6 -68l11 18q11 18 29.5 54.5t36.5 82.5t31 112.5t13 134.5q0 67 -13 133t-31 112t-36.5 82t-29.5 54l-11 18l109 86q8 -8 22 -23.5t49 -66.5t62 -104t49 -133t22 -158q0 -79 -21 -158t-51 -136t-60 -102.5t-51 -68.5l-21 -23z" />
<glyph horiz-adv-x="409" d="M53 203v168h303v-168h-303z" />
<glyph horiz-adv-x="614" d="M82 223v168h141v141h168v-141h141v-168h-141v-141h-168v141h-141z" />
<glyph horiz-adv-x="614" d="M82 25v168h450v-168h-450zM82 356v168h141v142h168v-142h141v-168h-141v-141h-168v141h-141z" />
<glyph horiz-adv-x="614" d="M82 111v168h450v-168h-450zM82 336v168h450v-168h-450z" />
<glyph horiz-adv-x="659" d="M33 1075q0 160 85 264.5t214 104.5q126 0 210.5 -105t84.5 -264t-84.5 -263.5t-210.5 -104.5q-129 0 -214 104t-85 264zM238 1075q0 -76 27 -126t67 -50q38 0 64 50t26 126t-26 126t-64 50q-40 0 -67 -50t-27 -126z" />
<glyph horiz-adv-x="503" d="M20 1292l187 142h205v-717h-205v475l-66 -53z" />
<glyph horiz-adv-x="516" d="M-2 1315q105 129 266 129q116 0 184 -57t68 -156q0 -27 -5 -51.5t-12 -43t-23.5 -39.5t-28.5 -34.5t-39 -35.5t-44 -35t-54 -40t-58 -43h256v-192h-494v192q15 33 52.5 71t80 70.5t83.5 64.5t67.5 61t26.5 51q0 24 -56 24q-38 0 -67 -20t-60 -60z" />
<glyph horiz-adv-x="589" d="M12 815l144 143q22 -25 59 -42t68 -17q29 0 49 14t20 37q0 19 -16 32t-39 13h-51v166h63q13 0 22 12t9 29q0 23 -15 36t-34 13q-29 0 -63 -20t-56 -49l-141 141q40 52 117.5 86.5t156.5 34.5q103 0 171.5 -58.5t68.5 -152.5q0 -95 -68 -154q80 -64 80 -155 q0 -93 -77.5 -155t-190.5 -62q-77 0 -156 31.5t-121 76.5z" />
<glyph horiz-adv-x="651" d="M23 842v180l299 412h204v-412h88v-180h-88v-125h-204v125h-299zM221 1022h101v141z" />
<glyph horiz-adv-x="544" d="M6 829l141 144q50 -74 115 -74q35 0 57.5 17t22.5 42q0 26 -22 43t-56 17h-172v416h381v-197h-209v-39h4q121 0 200 -69t79 -175q0 -108 -82.5 -177.5t-206.5 -69.5q-162 0 -252 122z" />
<glyph horiz-adv-x="610" d="M33 971q0 87 53 172l174 291h215l-125 -211q6 2 23 2q92 0 150.5 -71t58.5 -181q0 -116 -77.5 -191t-197.5 -75q-117 0 -195.5 75t-78.5 189zM238 969q0 -29 20.5 -49.5t48.5 -20.5t49 20.5t21 49.5q0 30 -20.5 49.5t-49.5 19.5q-28 0 -48.5 -19.5t-20.5 -49.5z" />
<glyph horiz-adv-x="483" d="M-2 1253v181h489v-181l-208 -536h-209l215 536h-287z" />
<glyph horiz-adv-x="571" d="M33 926q0 110 90 168q-82 63 -82 159q0 83 69.5 137t178.5 54q105 0 173 -55.5t68 -141.5q0 -98 -77 -153q86 -63 86 -168q0 -95 -71 -157t-181 -62q-112 0 -183 61.5t-71 157.5zM238 952q0 -24 14 -38.5t35 -14.5t34 14.5t13 38.5t-13 38t-34 14t-35 -14t-14 -38z M246 1219q0 -18 12 -28.5t31 -10.5q15 0 26 10.5t11 28.5q0 13 -11.5 22.5t-25.5 9.5q-19 0 -31 -9t-12 -23z" />
<glyph horiz-adv-x="606" d="M23 1180q0 116 77 190t197 74q118 0 196 -74.5t78 -189.5q0 -83 -51 -170l-172 -293h-221l123 211q-109 0 -168 70t-59 182zM227 1182q0 -29 21 -49.5t49 -20.5t49 20.5t21 49.5q0 30 -20.5 49.5t-49.5 19.5t-49.5 -19.5t-20.5 -49.5z" />
<glyph horiz-adv-x="270" d="M-8 602l92 340l178 -49l-129 -332z" />
<glyph horiz-adv-x="270" d="M18 823q0 54 31.5 85.5t85.5 31.5t85.5 -31.5t31.5 -85.5t-31.5 -85t-85.5 -31t-85.5 31t-31.5 85z" />
<glyph horiz-adv-x="352" d="M33 1051q0 78 21 157t51 135.5t60.5 101.5t51.5 68l21 23l108 -86q1 0 -10 -18t-30 -54t-37 -82t-31 -112t-13 -133q0 -68 13 -134.5t31 -112.5t37 -82.5t30 -54.5t10 -18l-108 -86q-8 8 -22 24t-49.5 66.5t-62.5 104.5t-49 134t-22 159z" />
<glyph horiz-adv-x="352" d="M6 649l11 18q11 18 29.5 54.5t36.5 82.5t31 112.5t13 134.5q0 67 -13 133t-31 112t-36.5 82t-29.5 54l-11 18l109 86q8 -8 22 -23.5t49 -66.5t62 -104t49 -133t22 -158q0 -79 -21 -158t-51 -136t-60 -102.5t-51 -68.5l-21 -23z" />
<glyph horiz-adv-x="409" d="M53 920v167h303v-167h-303z" />
<glyph horiz-adv-x="614" d="M82 940v168h141v141h168v-141h141v-168h-141v-141h-168v141h-141z" />
<glyph horiz-adv-x="614" d="M82 741v168h450v-168h-450zM82 1073v168h141v141h168v-141h141v-168h-141v-141h-168v141h-141z" />
<glyph horiz-adv-x="614" d="M82 827v168h450v-168h-450zM82 1053v168h450v-168h-450z" />
<glyph horiz-adv-x="659" d="M33 154q0 160 85 264t214 104q126 0 210.5 -104.5t84.5 -263.5t-84.5 -264t-210.5 -105q-129 0 -214 104.5t-85 264.5zM238 154q0 -76 27 -126.5t67 -50.5q38 0 64 50.5t26 126.5t-26 126t-64 50q-40 0 -67 -50t-27 -126z" />
<glyph horiz-adv-x="503" d="M20 371l187 141h205v-717h-205v475l-66 -53z" />
<glyph horiz-adv-x="516" d="M-2 393q105 129 266 129q116 0 184 -57t68 -156q0 -31 -5 -56.5t-19.5 -50.5t-26 -41t-41 -41.5t-46 -38t-60.5 -44.5t-66 -49h256v-193h-494v193q18 40 70.5 88.5t104.5 85.5t93.5 77t41.5 66q0 11 -16.5 18t-39.5 7q-38 0 -67 -20t-60 -60z" />
<glyph horiz-adv-x="589" d="M12 -106l144 143q22 -25 59 -42.5t68 -17.5q28 0 48.5 14.5t20.5 37.5q0 19 -16 32t-39 13h-51v166h63q13 0 22 12t9 29q0 23 -15 36t-34 13q-29 0 -63 -20t-56 -50l-141 141q40 52 117.5 86.5t156.5 34.5q103 0 171.5 -58.5t68.5 -152.5t-68 -153q80 -64 80 -156 q0 -93 -77.5 -155t-190.5 -62q-76 0 -155.5 32t-121.5 77z" />
<glyph horiz-adv-x="651" d="M23 -80v180l299 412h204v-412h88v-180h-88v-125h-204v125h-299zM221 100h101v142z" />
<glyph horiz-adv-x="544" d="M6 -92l141 143q50 -74 115 -74q35 0 57.5 17.5t22.5 42.5q0 26 -22 42.5t-56 16.5h-172v416h381v-197h-209v-39h4q121 0 200 -68.5t79 -174.5q0 -108 -82.5 -178t-206.5 -70q-161 0 -252 123z" />
<glyph horiz-adv-x="610" d="M33 49q0 87 53 172l174 291h215l-125 -211q6 2 23 2q92 0 150.5 -71t58.5 -181q0 -116 -77.5 -191t-197.5 -75q-117 0 -195.5 75t-78.5 189zM238 47q0 -29 20.5 -49.5t48.5 -20.5t49 20.5t21 49.5q0 30 -21 50t-49 20t-48.5 -20t-20.5 -50z" />
<glyph horiz-adv-x="483" d="M-2 332v180h489v-180l-208 -537h-209l215 537h-287z" />
<glyph horiz-adv-x="571" d="M33 4q0 110 90 168q-82 63 -82 160q0 83 69.5 136.5t178.5 53.5q105 0 173 -55t68 -141q0 -99 -77 -154q86 -63 86 -168q0 -95 -71 -157t-181 -62q-112 0 -183 61.5t-71 157.5zM238 31q0 -24 14 -39t35 -15t34 15t13 39t-13 37.5t-34 13.5t-35 -13.5t-14 -37.5zM246 297 q0 -18 12 -28.5t31 -10.5q15 0 26 10.5t11 28.5q0 13 -11.5 23t-25.5 10q-18 0 -30.5 -9.5t-12.5 -23.5z" />
<glyph horiz-adv-x="606" d="M23 258q0 116 77 190t197 74q118 0 196 -74.5t78 -189.5q0 -83 -51 -170l-172 -293h-221l123 211q-109 0 -168 70t-59 182zM227 260q0 -29 21 -49.5t49 -20.5t49 20.5t21 49.5q0 30 -21 50t-49 20t-49 -20t-21 -50z" />
<glyph horiz-adv-x="270" d="M-8 -319l92 339l178 -49l-129 -331z" />
<glyph horiz-adv-x="270" d="M18 -98q0 54 31.5 85t85.5 31t85.5 -31t31.5 -85t-31.5 -85.5t-85.5 -31.5t-85.5 31.5t-31.5 85.5z" />
<glyph horiz-adv-x="352" d="M33 129q0 78 21 157t51 135.5t60.5 101.5t51.5 68l21 23l108 -86q1 0 -10 -18t-30 -54t-37 -82t-31 -112t-13 -133q0 -68 13 -134t31 -112t37 -82.5t30 -54.5t10 -18l-108 -86q-8 8 -22 24t-49.5 66.5t-62.5 104t-49 133.5t-22 159z" />
<glyph horiz-adv-x="352" d="M6 -272l11 18q11 18 29.5 54.5t36.5 82.5t31 112t13 134q0 67 -13 133t-31 112t-36.5 82t-29.5 54l-11 18l109 86q8 -8 22 -23.5t49 -66.5t62 -104t49 -133t22 -158q0 -79 -21 -158t-51 -135.5t-60 -102t-51 -68.5l-21 -23z" />
<glyph horiz-adv-x="409" d="M53 -2v168h303v-168h-303z" />
<glyph horiz-adv-x="614" d="M82 18v168h141v142h168v-142h141v-168h-141v-141h-168v141h-141z" />
<glyph horiz-adv-x="614" d="M82 -12h450v-168h-450v168zM82 152v167h141v142h168v-142h141v-167h-141v-142h-168v142h-141z" />
<glyph horiz-adv-x="614" d="M82 74h450v-168h-450v168zM82 131v168h450v-168h-450z" />
<glyph horiz-adv-x="659" d="M33 1280q0 160 85 264.5t214 104.5q126 0 210.5 -105t84.5 -264t-84.5 -264t-210.5 -105q-129 0 -214 104.5t-85 264.5zM238 1280q0 -76 27 -126t67 -50q38 0 64 50t26 126t-26 126t-64 50q-40 0 -67 -50t-27 -126z" />
<glyph horiz-adv-x="503" d="M20 1497l187 141h205v-716h-205v475l-66 -54z" />
<glyph horiz-adv-x="516" d="M-2 1520q105 129 266 129q116 0 184 -57t68 -156q0 -27 -5 -51.5t-12 -43t-23.5 -39.5t-28.5 -34.5t-39 -35.5t-44 -35t-54 -40t-58 -43h256v-192h-494v192q15 33 52.5 71t80 70.5t83.5 64.5t67.5 61t26.5 51q0 24 -56 24q-38 0 -67 -20t-60 -60z" />
<glyph horiz-adv-x="589" d="M12 1020l144 143q22 -25 59 -42t68 -17q29 0 49 14t20 37q0 19 -16 32t-39 13h-51v166h63q13 0 22 12t9 29q0 23 -15 36t-34 13q-29 0 -63 -20t-56 -50l-141 142q40 52 117.5 86.5t156.5 34.5q103 0 171.5 -58.5t68.5 -152.5q0 -95 -68 -154q80 -64 80 -156 q0 -93 -77.5 -155t-190.5 -62q-76 0 -155.5 32t-121.5 77z" />
<glyph horiz-adv-x="651" d="M23 1047v180l299 411h204v-411h88v-180h-88v-125h-204v125h-299zM221 1227h101v141z" />
<glyph horiz-adv-x="544" d="M6 1034l141 144q50 -74 115 -74q35 0 57.5 17t22.5 42q0 26 -22 43t-56 17h-172v415h381v-196h-209v-39h4q121 0 200 -69t79 -175q0 -108 -82.5 -178t-206.5 -70q-161 0 -252 123z" />
<glyph horiz-adv-x="610" d="M33 1176q0 87 53 172l174 290h215l-125 -211q9 3 23 3q92 0 150.5 -71t58.5 -181q0 -116 -77.5 -191.5t-197.5 -75.5q-117 0 -195.5 75.5t-78.5 189.5zM238 1174q0 -29 20.5 -49.5t48.5 -20.5t49 20.5t21 49.5q0 30 -20.5 49.5t-49.5 19.5q-28 0 -48.5 -19.5t-20.5 -49.5 z" />
<glyph horiz-adv-x="483" d="M-2 1458v180h489v-180l-208 -536h-209l215 536h-287z" />
<glyph horiz-adv-x="571" d="M33 1130q0 110 90 168q-82 63 -82 160q0 83 69.5 137t178.5 54q105 0 173 -55.5t68 -141.5q0 -99 -77 -154q86 -63 86 -168q0 -95 -71 -157t-181 -62q-112 0 -183 61.5t-71 157.5zM238 1157q0 -24 14 -38.5t35 -14.5t34 14.5t13 38.5t-13 37.5t-34 13.5t-35 -13.5 t-14 -37.5zM246 1423q0 -18 12 -28.5t31 -10.5q15 0 26 10.5t11 28.5q0 13 -11.5 23t-25.5 10q-18 0 -30.5 -9.5t-12.5 -23.5z" />
<glyph horiz-adv-x="606" d="M23 1384q0 116 77 190.5t197 74.5q118 0 196 -75t78 -190q0 -83 -51 -170l-172 -292h-221l123 211q-109 0 -168 69.5t-59 181.5zM227 1386q0 -29 21 -49t49 -20t49 20t21 49q0 30 -21 50t-49 20t-49 -20t-21 -50z" />
<glyph horiz-adv-x="270" d="M-8 807l92 340l178 -49l-129 -332z" />
<glyph horiz-adv-x="270" d="M18 1028q0 54 31.5 85.5t85.5 31.5t85.5 -31.5t31.5 -85.5t-31.5 -85.5t-85.5 -31.5t-85.5 31.5t-31.5 85.5z" />
<glyph horiz-adv-x="352" d="M33 1255q0 78 21 157t51 135.5t60.5 102t51.5 68.5l21 23l108 -86q1 0 -10 -18t-30 -54.5t-37 -82.5t-31 -112t-13 -133q0 -68 13 -134t31 -112t37 -82.5t30 -54.5t10 -18l-108 -86q-8 8 -22 24t-49.5 66.5t-62.5 104t-49 133.5t-22 159z" />
<glyph horiz-adv-x="352" d="M6 854l11 18q11 18 29.5 54.5t36.5 82.5t31 112t13 134q0 67 -13 133t-31 112t-36.5 82.5t-29.5 54.5l-11 18l109 86q8 -8 22 -24t49 -66.5t62 -104t49 -133.5t22 -158q0 -79 -21 -158t-51 -135.5t-60 -102t-51 -68.5l-21 -23z" />
<glyph horiz-adv-x="409" d="M53 1124v168h303v-168h-303z" />
<glyph horiz-adv-x="614" d="M82 1145v168h141v141h168v-141h141v-168h-141v-141h-168v141h-141z" />
<glyph horiz-adv-x="614" d="M82 946v168h450v-168h-450zM82 1278v168h141v141h168v-141h141v-168h-141v-141h-168v141h-141z" />
<glyph horiz-adv-x="614" d="M82 1032v168h450v-168h-450zM82 1257v168h450v-168h-450z" />
<glyph horiz-adv-x="1593" d="M41 711q0 212 97.5 379t274 260.5t400.5 93.5q212 0 381 -83.5t263.5 -232.5t94.5 -335q0 -193 -96 -319t-244 -126q-143 0 -231 115q-94 -115 -244 -115q-141 0 -234 104.5t-93 264.5q0 159 93 263.5t234 104.5q91 0 164 -45v27h246v-371q0 -62 32.5 -102.5t80.5 -40.5 q58 0 93.5 63.5t35.5 165.5q0 220 -161 364t-413 144q-267 0 -438.5 -162t-171.5 -411q0 -162 75.5 -294t207 -206t292.5 -74q160 0 293 78l25 -151q-157 -80 -344 -80q-204 0 -367 93t-254.5 258t-91.5 370zM696 717q0 -44 23.5 -73.5t58.5 -29.5t58.5 29.5t23.5 73.5 t-23.5 73t-58.5 29t-58.5 -29t-23.5 -73z" />
<glyph horiz-adv-x="927" d="M123 717q0 158 92 249t250 91t249 -91t91 -249t-91 -250t-249 -92t-250 92t-92 250z" />
<glyph horiz-adv-x="532" d="M61 1247q0 94 55.5 149.5t149.5 55.5t149.5 -55.5t55.5 -149.5t-55.5 -149.5t-149.5 -55.5t-149.5 55.5t-55.5 149.5zM82 0l61 975h246l62 -975h-369z" />
<glyph horiz-adv-x="1110" d="M41 406q0 64 18.5 111t49.5 75t68 51.5t77 49.5t74.5 59t61 90t36.5 133h246q19 -91 13 -155t-32 -114t-61 -83.5t-74 -63t-72.5 -51t-55 -49.5t-21.5 -58q0 -49 50 -75.5t136 -26.5q102 0 187.5 38t129.5 105l218 -211q-70 -119 -207 -184t-310 -65q-238 0 -385 117 t-147 307zM338 1247q0 94 55.5 149.5t149.5 55.5t149.5 -55.5t55.5 -149.5t-55.5 -149.5t-149.5 -55.5t-149.5 55.5t-55.5 149.5z" />
<glyph horiz-adv-x="1226" d="M61 717l422 436l170 -139l-204 -297l204 -297l-170 -139zM553 717l422 436l170 -139l-205 -297l205 -297l-170 -139z" />
<glyph horiz-adv-x="1226" d="M82 420l205 297l-205 297l170 139l422 -436l-422 -436zM573 420l205 297l-205 297l170 139l422 -436l-422 -436z" />
<glyph horiz-adv-x="735" d="M61 717l422 436l170 -139l-204 -297l204 -297l-170 -139z" />
<glyph horiz-adv-x="735" d="M82 420l205 297l-205 297l170 139l422 -436l-422 -436z" />
<glyph horiz-adv-x="819" d="M123 573v287h573v-287h-573z" />
<glyph horiz-adv-x="1228" d="M123 573v287h983v-287h-983z" />
<glyph horiz-adv-x="2048" d="M123 573v287h1802v-287h-1802z" />
<glyph horiz-adv-x="614" d="M164 -205v1843h287v-1843h-287z" />
<glyph horiz-adv-x="614" d="M164 -205v717h287v-717h-287zM164 922v716h287v-716h-287z" />
<glyph horiz-adv-x="919" d="M0 -109l651 1747l269 -96l-652 -1747z" />
<glyph horiz-adv-x="919" d="M0 1542l268 96l652 -1747l-269 -96z" />
<glyph horiz-adv-x="718" d="M82 717q0 115 23.5 229.5t61.5 205t84 173t92 142t84 104t61 66.5l24 22l186 -148l-25 -33q-25 -34 -66 -105t-80.5 -161t-68 -223t-28.5 -272t28.5 -272t68 -223.5t80.5 -161.5t66 -104l25 -34l-186 -147q-9 8 -24.5 22.5t-60 65t-85.5 105.5t-90.5 141t-85 174.5 t-60 203.5t-24.5 230z" />
<glyph horiz-adv-x="718" d="M20 -78l25 34q25 33 66 104t81 161.5t68.5 223.5t28.5 272t-28.5 272t-68.5 223t-81 161t-66 105l-25 33l187 148q9 -8 24.5 -22.5t60 -65t85.5 -105.5t90.5 -141t85 -174.5t60 -203.5t24.5 -230t-23.5 -229.5t-61.5 -205t-84 -173t-92 -142t-84 -104t-62 -66.5l-23 -22z " />
<glyph horiz-adv-x="819" d="M123 -205v1843h676v-266h-369v-1311h369v-266h-676z" />
<glyph horiz-adv-x="819" d="M20 61h369v1311h-369v266h676v-1843h-676v266z" />
<glyph horiz-adv-x="913" d="M61 573v287q114 0 186 52.5t72 134.5v239q0 152 109.5 252t276.5 100h188v-286h-184q-26 0 -44 -18t-18 -44v-243q0 -106 -62 -191.5t-173 -138.5q111 -53 173 -138.5t62 -191.5v-244q0 -26 18 -43.5t44 -17.5h184v-287h-188q-167 0 -276.5 100t-109.5 252v240 q0 82 -72 134t-186 52z" />
<glyph horiz-adv-x="913" d="M20 82h185q26 0 43.5 17.5t17.5 43.5v244q0 105 62.5 190.5t173.5 139.5q-111 54 -173.5 139.5t-62.5 190.5v243q0 26 -17.5 44t-43.5 18h-185v286h189q167 0 276 -100t109 -252v-239q0 -82 72 -134.5t186 -52.5v-287q-114 0 -186 -52t-72 -134v-240q0 -152 -109 -252 t-276 -100h-189v287z" />
</font>
</defs>
</svg>
