<?xml version="1.0" standalone="no"?>
<!DOCTYPE svg PUBLIC "-//W3C//DTD SVG 1.1//EN" "http://www.w3.org/Graphics/SVG/1.1/DTD/svg11.dtd" >
<svg xmlns="http://www.w3.org/2000/svg" xmlns:xlink="http://www.w3.org/1999/xlink" version="1.1">
<metadata></metadata>
<defs>
<font id="daikonthin" horiz-adv-x="1372" >
<font-face units-per-em="2048" ascent="1741" descent="-307" />
<missing-glyph horiz-adv-x="614" />
<glyph unicode="&#xfb01;" horiz-adv-x="1269" d="M92 983v41h225v166q0 146 99 230.5t270 84.5v-41q-152 0 -240 -73.5t-88 -200.5v-166h328v-41h-328v-983h-41v983h-225zM963 1393q0 26 17.5 43.5t43.5 17.5t43.5 -17.5t17.5 -43.5t-17.5 -44t-43.5 -18t-43.5 18t-17.5 44zM1004 0v1024h40v-1024h-40z" />
<glyph unicode="&#xfb02;" horiz-adv-x="1269" d="M92 983v41h225v166q0 146 99 230.5t270 84.5v-41q-152 0 -240 -73.5t-88 -200.5v-166h328v-41h-328v-983h-41v983h-225zM1004 0v1495h40v-1495h-40z" />
<glyph unicode="ft" horiz-adv-x="1505" d="M92 983v41h225v166q0 146 99 230.5t270 84.5v-41q-152 0 -240 -73.5t-88 -200.5v-166h615v266h41v-266h348v-41h-348v-747q0 -91 59 -143t160 -52q71 0 129 20v-41q-58 -20 -133 -20q-119 0 -187.5 63t-68.5 173v747h-615v-983h-41v983h-225z" />
<glyph horiz-adv-x="0" />
<glyph horiz-adv-x="0" />
<glyph unicode="&#xd;" horiz-adv-x="512" />
<glyph unicode=" "  horiz-adv-x="614" />
<glyph unicode="&#x09;" horiz-adv-x="614" />
<glyph unicode="&#xa0;" horiz-adv-x="614" />
<glyph unicode="!" horiz-adv-x="491" d="M184 51q0 26 18 44t44 18t43.5 -18t17.5 -44t-17.5 -43.5t-43.5 -17.5t-44 17.5t-18 43.5zM225 418v1016h41v-1016h-41z" />
<glyph unicode="&#x22;" horiz-adv-x="737" d="M184 1434h52l-5 -512h-43zM502 1434h51l-4 -512h-43z" />
<glyph unicode="#" horiz-adv-x="1458" d="M102 410l7 41h307l94 532h-307l6 41h309l72 410h41l-72 -410h451l71 410h41l-71 -410h305l-6 -41h-308l-94 -532h307l-6 -41h-309l-72 -410h-41l72 410h-450l-72 -410h-41l72 410h-306zM457 451h450l94 532h-450z" />
<glyph unicode="$" horiz-adv-x="1243" d="M164 150l29 28q66 -69 175.5 -108t239.5 -39q197 0 313.5 87.5t116.5 241.5q0 75 -30 133t-80.5 95.5t-115.5 66.5t-137.5 51.5l-145 45t-137.5 52t-115.5 67.5t-80.5 97.5t-30 135.5q0 156 114.5 246.5t309.5 93.5v246h43v-246q127 -4 231 -46.5t166 -113.5l-29 -29 q-61 69 -167.5 108.5t-231.5 39.5q-180 0 -287.5 -80.5t-107.5 -218.5q0 -70 30 -123.5t80.5 -88t115.5 -61.5t137.5 -49t145 -44.5t137.5 -53.5t115.5 -71.5t80.5 -103t30 -142.5q0 -168 -121 -269.5t-325 -107.5v-246h-43v246q-134 3 -245.5 45t-180.5 115z" />
<glyph unicode="%" horiz-adv-x="1751" d="M164 1143q0 133 85 220t216 87t217 -88t86 -221q0 -132 -85.5 -218.5t-215.5 -86.5q-132 0 -217.5 86.5t-85.5 220.5zM205 1141q0 -117 73.5 -190.5t188.5 -73.5q114 0 187 73.5t73 190.5q0 116 -73 192t-187 76t-188 -76t-74 -192zM346 4l1016 1450l35 -24l-1016 -1450z M983 307q0 134 85.5 220.5t217.5 86.5q131 0 216 -87t85 -220t-85 -220t-216 -87q-132 0 -217.5 86.5t-85.5 220.5zM1024 307q0 -117 74 -191.5t188 -74.5t187 74.5t73 191.5q0 116 -73 191t-187 75t-188 -75t-74 -191z" />
<glyph unicode="&#x26;" horiz-adv-x="1363" d="M143 352q0 63 19.5 120.5t49 101t77 86.5t89.5 73t101 66q-176 211 -176 372q0 121 80.5 197t206.5 76q130 0 216.5 -76.5t86.5 -193.5q0 -38 -11.5 -73.5t-25.5 -62t-47 -59.5t-52.5 -50.5t-68.5 -50t-68.5 -44.5t-76.5 -46q66 -70 102 -106l391 -393q80 148 80 373h41 q0 -242 -88 -406l234 -236l-29 -30l-227 229q-150 -229 -461 -229q-204 0 -323.5 98t-119.5 264zM184 356q0 -149 108.5 -237t293.5 -88q290 0 430 219l-395 397q-66 66 -113 121q-74 -44 -122.5 -80t-99.5 -87t-76.5 -112.5t-25.5 -132.5zM344 1169q0 -148 172 -348 q153 92 203 131q131 107 133 222q0 98 -74 163.5t-184 65.5t-180 -65.5t-70 -168.5z" />
<glyph unicode="'" horiz-adv-x="419" d="M184 1434h52l-5 -512h-43z" />
<glyph unicode="(" horiz-adv-x="686" d="M164 666q0 116 14 224t37.5 193t54.5 161.5t65 133.5t67.5 105t64.5 79.5t54.5 54t37.5 32.5l14 10l31 -29q-8 -5 -22.5 -16t-56 -51.5t-79 -88.5t-83.5 -131t-79.5 -176t-56 -224.5t-22.5 -276.5t22 -276.5t57 -225.5t77.5 -174.5t85.5 -132.5t78 -88.5t57 -52.5l22 -15 l-31 -29q-9 6 -23.5 17t-57 53.5t-81 93t-86 136t-81 181t-57 230.5t-23.5 283z" />
<glyph unicode=")" horiz-adv-x="686" d="M82 -299q8 5 22.5 16t56 51.5t79 89t83.5 131t79.5 176t56 225t22.5 276.5q0 114 -13.5 219.5t-36.5 188t-53 157t-63 129.5t-66.5 101t-63.5 76.5t-53 52t-36 30.5l-14 10l31 29q9 -6 23.5 -17t57 -53.5t81 -92.5t86 -135.5t81 -181t57 -230.5t23.5 -283t-22.5 -282.5 t-58.5 -231.5t-80 -180t-87.5 -137t-79.5 -92t-58 -55l-23 -16z" />
<glyph unicode="*" horiz-adv-x="946" d="M143 1243l19 49l291 -100l-4 303h51l-4 -307l290 98l17 -49l-295 -90l182 -246l-41 -31l-178 252l-178 -250l-41 31l184 248z" />
<glyph unicode="+" horiz-adv-x="1228" d="M164 594v41h430v430h41v-430h430v-41h-430v-430h-41v430h-430z" />
<glyph unicode="," horiz-adv-x="491" d="M133 -303l117 438l49 -14l-131 -432z" />
<glyph unicode="-" horiz-adv-x="819" d="M205 553v41h409v-41h-409z" />
<glyph unicode="." horiz-adv-x="491" d="M184 51q0 26 18 44t44 18t43.5 -18t17.5 -44t-17.5 -43.5t-43.5 -17.5t-44 17.5t-18 43.5z" />
<glyph unicode="/" horiz-adv-x="739" d="M0 -293l700 1931l39 -14l-700 -1931z" />
<glyph unicode="0" d="M164 717q0 208 67 374.5t186 259.5t269 93t269 -93t186 -259.5t67 -374.5t-67 -374.5t-186 -259.5t-269 -93t-269 93t-186 259.5t-67 374.5zM205 717q0 -196 61.5 -353t171.5 -245t248 -88t248 88t171.5 245t61.5 353t-61.5 353t-171.5 245t-248 88t-248 -88t-171.5 -245 t-61.5 -353z" />
<glyph unicode="1" horiz-adv-x="933" d="M143 1100l443 334h41v-1434h-41v1382l-418 -315z" />
<glyph unicode="2" horiz-adv-x="1204" d="M143 1243q66 96 178.5 148.5t251.5 52.5q197 0 316 -104.5t119 -282.5q0 -96 -36 -189.5t-97.5 -172t-136 -152t-157.5 -141t-156.5 -127t-138.5 -121.5t-98 -113h852v-41h-895v41q32 57 96.5 122.5t138.5 126.5t157 128.5t158.5 140t137 149t98 166.5t36.5 183 q0 162 -106.5 254t-287.5 92q-130 0 -234.5 -49.5t-166.5 -139.5z" />
<glyph unicode="3" horiz-adv-x="1157" d="M123 190l29 29q59 -90 157.5 -139t222.5 -49q183 0 301.5 99t118.5 251q0 151 -118.5 248.5t-301.5 97.5h-81v41h81q165 0 272 91t107 235q0 138 -103 223.5t-273 85.5q-125 0 -224.5 -49.5t-158.5 -139.5l-29 29q63 96 170.5 148.5t241.5 52.5q187 0 302 -96.5 t115 -253.5q0 -123 -72.5 -215t-195.5 -129q141 -37 225 -136t84 -233q0 -170 -130.5 -280.5t-330.5 -110.5q-133 0 -239.5 52t-169.5 148z" />
<glyph unicode="4" horiz-adv-x="1353" d="M143 385v41l822 1008h41v-1008h225v-41h-225v-385h-41v385h-822zM197 426h768v944z" />
<glyph unicode="5" horiz-adv-x="1116" d="M102 201l29 28q57 -94 156 -146t223 -52q184 0 303 109t119 278q0 166 -116 273.5t-294 107.5h-340v635h701v-41h-660v-553h299q196 0 323.5 -119t127.5 -303q0 -187 -131 -307.5t-332 -120.5q-133 0 -239.5 55.5t-168.5 155.5z" />
<glyph unicode="6" horiz-adv-x="1198" d="M164 430q0 147 84 291l420 713h47l-383 -650q119 86 272 86q192 0 316 -124t124 -316t-124 -316t-316 -124t-316 124t-124 316zM205 430q0 -173 113 -286t286 -113t286.5 113t113.5 286t-113.5 286t-286.5 113t-286 -113t-113 -286z" />
<glyph unicode="7" horiz-adv-x="1189" d="M143 1393v41h883v-41l-602 -1393h-45l602 1393h-838z" />
<glyph unicode="8" horiz-adv-x="1290" d="M164 379q0 134 87.5 233t233.5 138q-128 35 -204 125.5t-76 209.5q0 156 124 257.5t316 101.5t316 -101.5t124 -257.5q0 -119 -76 -209.5t-204 -125.5q146 -39 233.5 -138t87.5 -233q0 -169 -136 -279t-345 -110t-345 110t-136 279zM205 379q0 -151 124 -249.5t316 -98.5 t316 98.5t124 249.5t-124 249.5t-316 98.5t-316 -98.5t-124 -249.5zM246 1085q0 -137 113 -227t286 -90t286 90t113 227t-113 227.5t-286 90.5t-286 -90.5t-113 -227.5z" />
<glyph unicode="9" horiz-adv-x="1177" d="M143 1004q0 192 124.5 316t316.5 124t316 -124t124 -316q0 -152 -84 -291l-440 -713h-47l399 647q-117 -84 -268 -84q-192 0 -316.5 124.5t-124.5 316.5zM184 1004q0 -173 113.5 -286.5t286.5 -113.5t286 113.5t113 286.5t-113 286t-286 113t-286.5 -113t-113.5 -286z " />
<glyph unicode=":" horiz-adv-x="491" d="M184 51q0 26 18 44t44 18t43.5 -18t17.5 -44t-17.5 -43.5t-43.5 -17.5t-44 17.5t-18 43.5zM184 973q0 26 18 43.5t44 17.5t43.5 -17.5t17.5 -43.5t-17.5 -44t-43.5 -18t-44 18t-18 44z" />
<glyph unicode=";" horiz-adv-x="491" d="M125 -303l117 438l49 -14l-131 -432zM184 973q0 26 18 43.5t44 17.5t43.5 -17.5t17.5 -43.5t-17.5 -44t-43.5 -18t-44 18t-18 44z" />
<glyph unicode="&#x3c;" horiz-adv-x="1228" d="M164 594v41l901 389v-45l-846 -365l846 -364v-45z" />
<glyph unicode="=" horiz-adv-x="1228" d="M164 369v41h901v-41h-901zM164 819v41h901v-41h-901z" />
<glyph unicode="&#x3e;" horiz-adv-x="1228" d="M164 205v45l846 364l-846 365v45l901 -389v-41z" />
<glyph unicode="?" horiz-adv-x="1069" d="M123 1243q62 96 165.5 148.5t231.5 52.5q178 0 281.5 -97.5t103.5 -261.5q0 -72 -21.5 -126.5t-56 -89t-76.5 -64.5t-83 -62t-75 -71.5t-54.5 -104t-18.5 -149.5h-41q-1 71 11 128.5t34 96.5t51 71t61 56t64.5 46.5t62 48t52 55t36 72t13.5 95.5q0 144 -92 230t-250 86 q-118 0 -214.5 -49.5t-155.5 -139.5zM444 51q0 26 18 44t44 18t43.5 -18t17.5 -44t-17.5 -43.5t-43.5 -17.5t-44 17.5t-18 43.5z" />
<glyph unicode="@" horiz-adv-x="1757" d="M123 506q0 211 97.5 378.5t272 261t394.5 93.5q213 0 383.5 -85.5t267 -239t96.5 -347.5q0 -182 -78.5 -303t-193.5 -121q-74 0 -121 54t-53 141q-45 -90 -132 -142.5t-196 -52.5q-160 0 -264 104.5t-104 264.5t104 264.5t264 104.5q109 0 196 -52t132 -141v182h41v-510 q0 -78 36.5 -127t98.5 -49q96 0 162.5 110t66.5 273q0 183 -91.5 327.5t-252.5 224t-362 79.5q-208 0 -373.5 -88.5t-257.5 -246.5t-92 -357q0 -193 86.5 -348.5t240 -243.5t345.5 -88q174 0 319 74l25 -35q-157 -80 -344 -80q-204 0 -367 93t-254.5 258t-91.5 370zM532 512 q0 -142 93 -235t235 -93t235 93t93 235t-93 235t-235 93t-235 -93t-93 -235z" />
<glyph unicode="A" horiz-adv-x="1437" d="M82 0l614 1434h45l615 -1434h-45l-187 434h-811l-186 -434h-45zM330 473h778l-389 907z" />
<glyph unicode="B" horiz-adv-x="1480" d="M246 0v1434h618q169 0 279 -99.5t110 -253.5q0 -122 -72 -213t-192 -125q146 -19 237 -120t91 -248q0 -163 -110 -269t-279 -106h-682zM287 41h641q152 0 250 95t98 243t-98 243t-250 95h-641v-676zM287 758h577q152 0 250 89.5t98 227.5t-98 228t-250 90h-577v-635z" />
<glyph unicode="C" horiz-adv-x="1499" d="M164 717q0 156 51.5 291.5t142 231t218 150t274.5 54.5q153 0 282.5 -57.5t223.5 -163.5l-33 -27q-88 99 -209.5 153t-263.5 54q-184 0 -331.5 -88t-230.5 -245t-83 -353t83 -353t230.5 -245t331.5 -88q143 0 264.5 53.5t208.5 151.5l31 -27q-92 -104 -222 -161.5 t-282 -57.5q-147 0 -274.5 54.5t-218 150t-142 231t-51.5 291.5z" />
<glyph unicode="D" horiz-adv-x="1560" d="M246 0v1434h465q196 0 353 -92t245 -256t88 -369t-88 -369t-245 -256t-353 -92h-465zM287 41h424q184 0 331.5 87t230.5 241.5t83 347.5t-83 347.5t-230.5 241.5t-331.5 87h-424v-1352z" />
<glyph unicode="E" horiz-adv-x="1402" d="M246 0v1434h973v-41h-932v-650h850v-41h-850v-661h932v-41h-973z" />
<glyph unicode="F" horiz-adv-x="1361" d="M246 0v1434h973v-41h-932v-650h850v-41h-850v-702h-41z" />
<glyph unicode="G" horiz-adv-x="1558" d="M164 717q0 208 89.5 374.5t249 259.5t359.5 93q155 0 287 -57.5t227 -163.5l-33 -27q-89 98 -213 152.5t-268 54.5q-141 0 -263 -51.5t-208.5 -142t-136 -218t-49.5 -274.5q0 -196 85 -353t236.5 -245t341.5 -88q141 0 264 50.5t211 143.5v451h-473v41h514v-508 q-93 -104 -227 -161.5t-289 -57.5q-202 0 -363 93t-251 259.5t-90 374.5z" />
<glyph unicode="H" horiz-adv-x="1617" d="M246 0v1434h41v-691h1044v691h41v-1434h-41v702h-1044v-702h-41z" />
<glyph unicode="I" horiz-adv-x="532" d="M246 0v1434h41v-1434h-41z" />
<glyph unicode="J" horiz-adv-x="1216" d="M102 229l37 21q48 -101 150 -160t231 -59q182 0 301 110t119 279v1014h41v-1014q0 -187 -130.5 -308.5t-330.5 -121.5q-143 0 -253 64.5t-165 174.5z" />
<glyph unicode="K" horiz-adv-x="1382" d="M246 0v1434h41v-908l899 908h57l-606 -613l633 -821h-51l-613 793l-319 -324v-469h-41z" />
<glyph unicode="L" horiz-adv-x="1300" d="M246 0v1434h41v-1393h911v-41h-952z" />
<glyph unicode="M" horiz-adv-x="1785" d="M246 0v1434h47l600 -1082l600 1082h47v-1434h-41v1360l-584 -1053h-45l-583 1053v-1360h-41z" />
<glyph unicode="N" horiz-adv-x="1617" d="M246 0v1434h41l1044 -1366v1366h41v-1434h-41l-1044 1366v-1366h-41z" />
<glyph unicode="O" horiz-adv-x="1699" d="M164 717q0 156 51.5 291.5t142 231t218 150t274.5 54.5t274.5 -54.5t218 -150t142 -231t51.5 -291.5t-51.5 -291.5t-142 -231t-218 -150t-274.5 -54.5t-274.5 54.5t-218 150t-142 231t-51.5 291.5zM205 717q0 -196 83 -353t230.5 -245t331.5 -88t331.5 88t230.5 245 t83 353t-83 353t-230.5 245t-331.5 88t-331.5 -88t-230.5 -245t-83 -353z" />
<glyph unicode="P" horiz-adv-x="1376" d="M246 0v1434h588q183 0 301 -115.5t118 -294.5t-118 -294.5t-301 -115.5h-547v-614h-41zM287 655h547q164 0 271 104.5t107 264.5t-107 264.5t-271 104.5h-547v-738z" />
<glyph unicode="Q" horiz-adv-x="1699" d="M164 717q0 156 51.5 291.5t142 231t218 150t274.5 54.5t274.5 -54.5t218 -150t142 -231t51.5 -291.5q0 -204 -86 -368t-236 -259l289 -350l-30 -27l-293 357q-151 -80 -330 -80q-147 0 -274.5 54.5t-218 150t-142 231t-51.5 291.5zM205 717q0 -196 83 -353t230.5 -245 t331.5 -88t331.5 88t230.5 245t83 353t-83 353t-230.5 245t-331.5 88t-331.5 -88t-230.5 -245t-83 -353z" />
<glyph unicode="R" horiz-adv-x="1431" d="M246 0v1434h588q183 0 301 -110.5t118 -279.5q0 -160 -106 -267.5t-273 -119.5l435 -657h-49l-433 655h-540v-655h-41zM287 696h547q164 0 271 98.5t107 249.5t-107 250t-271 99h-547v-697z" />
<glyph unicode="S" horiz-adv-x="1243" d="M164 150l29 28q66 -69 175.5 -108t239.5 -39q197 0 313.5 87.5t116.5 241.5q0 75 -30 133t-80.5 95.5t-115.5 66.5t-137.5 51.5l-145 45t-137.5 52t-115.5 67.5t-80.5 97.5t-30 135.5q0 158 118 249t318 91q136 0 249.5 -42.5t178.5 -117.5l-29 -29q-61 69 -167.5 108.5 t-231.5 39.5q-180 0 -287.5 -80.5t-107.5 -218.5q0 -70 30 -123.5t80.5 -88t115.5 -61.5t137.5 -49t145 -44.5t137.5 -53.5t115.5 -71.5t80.5 -103t30 -142.5q0 -174 -129 -275.5t-344 -101.5q-138 0 -254.5 42.5t-187.5 117.5z" />
<glyph unicode="T" horiz-adv-x="1433" d="M102 1393v41h1229v-41h-594v-1393h-41v1393h-594z" />
<glyph unicode="U" horiz-adv-x="1576" d="M236 461v973h40v-973q0 -187 144.5 -308.5t367.5 -121.5t367.5 121.5t144.5 308.5v973h41v-973q0 -204 -157 -337.5t-396 -133.5t-395.5 133.5t-156.5 337.5z" />
<glyph unicode="V" horiz-adv-x="1458" d="M102 1434h45l582 -1381l582 1381h45l-604 -1434h-45z" />
<glyph unicode="W" horiz-adv-x="2011" d="M102 1434h43l420 -1364l418 1364h45l420 -1364l418 1364h43l-441 -1434h-43l-419 1366l-420 -1366h-43z" />
<glyph unicode="X" horiz-adv-x="1402" d="M113 0l563 729l-543 705h51l518 -670l517 670h51l-543 -705l563 -729h-51l-537 696l-538 -696h-51z" />
<glyph unicode="Y" horiz-adv-x="1343" d="M82 1434h49l541 -787l540 787h50l-570 -828v-606h-41v606z" />
<glyph unicode="Z" horiz-adv-x="1325" d="M184 0v41l908 1352h-887v41h936v-41l-908 -1352h908v-41h-957z" />
<glyph unicode="[" horiz-adv-x="675" d="M225 -307v1945h348v-41h-307v-1863h307v-41h-348z" />
<glyph unicode="\" horiz-adv-x="739" d="M0 1624l39 14l700 -1931l-39 -14z" />
<glyph unicode="]" horiz-adv-x="675" d="M102 -266h308v1863h-308v41h349v-1945h-349v41z" />
<glyph unicode="^" horiz-adv-x="1228" d="M225 1057l389 387l387 -387l-30 -31l-357 356l-358 -356z" />
<glyph unicode="_" horiz-adv-x="614" d="M0 -143h614v-41h-614v41z" />
<glyph unicode="`" horiz-adv-x="622" d="M164 1739l41 33l254 -318l-29 -20z" />
<glyph unicode="a" horiz-adv-x="1259" d="M174 281q0 136 112.5 212t315.5 76h391v131q0 138 -106.5 215.5t-294.5 77.5q-118 0 -198.5 -32t-143.5 -95l-29 29q68 69 156 104t215 35q206 0 324 -89t118 -245v-700h-41v176q-53 -86 -164 -136t-258 -50q-182 0 -289.5 77t-107.5 214zM215 279q0 -115 98 -181.5 t260 -66.5q186 0 303 82t117 209v206h-389q-183 0 -286 -66t-103 -183z" />
<glyph unicode="b" d="M225 0v1495h41v-764q58 140 180 221.5t281 81.5q218 0 360 -147.5t142 -374.5t-142 -374.5t-360 -147.5q-159 0 -281 81.5t-180 221.5v-293h-41zM266 512q0 -209 130.5 -345t330.5 -136t330.5 136t130.5 345t-130.5 345t-330.5 136t-330.5 -136t-130.5 -345z" />
<glyph unicode="c" horiz-adv-x="1120" d="M143 512q0 227 144.5 374.5t365.5 147.5q199 0 334 -119l-29 -28q-125 106 -305 106q-203 0 -336 -136t-133 -345t133 -345t336 -136q180 0 305 106l29 -28q-135 -119 -334 -119q-221 0 -365.5 147.5t-144.5 374.5z" />
<glyph unicode="d" d="M143 512q0 227 142 374.5t360 147.5q159 0 281 -81.5t180 -221.5v764h41v-1495h-41v293q-58 -140 -180 -221.5t-281 -81.5q-218 0 -360 147.5t-142 374.5zM184 512q0 -209 130.5 -345t330.5 -136t330.5 136t130.5 345t-130.5 345t-330.5 136t-330.5 -136t-130.5 -345z " />
<glyph unicode="e" horiz-adv-x="1257" d="M143 518q0 221 140.5 368.5t351.5 147.5q130 0 242.5 -64t179.5 -175.5t67 -241.5q0 -43 -4 -47h-936q1 -135 66 -244t178 -170t252 -61q107 0 198.5 36.5t151.5 102.5l33 -27q-67 -73 -166.5 -113t-218.5 -40q-231 0 -383 148.5t-152 379.5zM184 547h899 q-11 194 -137.5 320t-310.5 126q-185 0 -313 -126.5t-138 -319.5z" />
<glyph unicode="f" horiz-adv-x="778" d="M92 983v41h225v166q0 146 99 230.5t270 84.5v-41q-152 0 -240 -73.5t-88 -200.5v-166h328v-41h-328v-983h-41v983h-225z" />
<glyph unicode="g" d="M143 512q0 227 142 374.5t360 147.5q159 0 281 -81.5t180 -221.5v293h41v-983q0 -227 -156 -374.5t-397 -147.5q-106 0 -197.5 36.5t-154.5 102.5l28 29q124 -127 324 -127q223 0 367.5 136t144.5 345v252q-58 -140 -180 -221.5t-281 -81.5q-218 0 -360 147.5t-142 374.5 zM184 512q0 -209 130.5 -345t330.5 -136t330.5 136t130.5 345t-130.5 345t-330.5 136t-330.5 -136t-130.5 -345z" />
<glyph unicode="h" d="M225 0v1495h41v-719q56 119 171.5 188.5t264.5 69.5q195 0 320 -114t125 -291v-629h-41v629q0 159 -113.5 261.5t-290.5 102.5q-188 0 -312 -115.5t-124 -293.5v-584h-41z" />
<glyph unicode="i" horiz-adv-x="491" d="M184 1393q0 26 18 43.5t44 17.5t43.5 -17.5t17.5 -43.5t-17.5 -44t-43.5 -18t-44 18t-18 44zM225 0v1024h41v-1024h-41z" />
<glyph unicode="j" horiz-adv-x="491" d="M-102 -440q154 0 240.5 78.5t86.5 218.5v1167h41v-1167q0 -161 -96.5 -249.5t-271.5 -88.5v41zM184 1393q0 26 18 43.5t44 17.5t43.5 -17.5t17.5 -43.5t-17.5 -44t-43.5 -18t-44 18t-18 44z" />
<glyph unicode="k" horiz-adv-x="1064" d="M225 0v1495h41v-1063l623 592h55l-477 -457l516 -567h-53l-492 539l-172 -164v-375h-41z" />
<glyph unicode="l" horiz-adv-x="491" d="M225 0v1495h41v-1495h-41z" />
<glyph unicode="m" horiz-adv-x="2068" d="M225 0v1024h41v-240q52 115 156 182.5t237 67.5q145 0 249.5 -76t135.5 -200q46 127 154 201.5t250 74.5q171 0 283 -103t112 -261v-670h-41v670q0 141 -99.5 232t-252.5 91q-172 0 -283.5 -115.5t-111.5 -293.5v-584h-41v670q0 141 -99.5 232t-252.5 91 q-172 0 -284 -115.5t-112 -293.5v-584h-41z" />
<glyph unicode="n" d="M225 0v1024h41v-248q56 119 171.5 188.5t264.5 69.5q195 0 320 -114t125 -291v-629h-41v629q0 159 -113.5 261.5t-290.5 102.5q-188 0 -312 -115.5t-124 -293.5v-584h-41z" />
<glyph unicode="o" horiz-adv-x="1290" d="M143 512q0 227 142 374.5t360 147.5t360 -147.5t142 -374.5t-142 -374.5t-360 -147.5t-360 147.5t-142 374.5zM184 512q0 -209 130.5 -345t330.5 -136t330.5 136t130.5 345t-130.5 345t-330.5 136t-330.5 -136t-130.5 -345z" />
<glyph unicode="p" d="M225 -471v1495h41v-293q58 140 180 221.5t281 81.5q218 0 360 -147.5t142 -374.5t-142 -374.5t-360 -147.5q-159 0 -281 81.5t-180 221.5v-764h-41zM266 512q0 -209 130.5 -345t330.5 -136t330.5 136t130.5 345t-130.5 345t-330.5 136t-330.5 -136t-130.5 -345z" />
<glyph unicode="q" d="M143 512q0 227 142 374.5t360 147.5q159 0 281 -81.5t180 -221.5v293h41v-1495h-41v764q-58 -140 -180 -221.5t-281 -81.5q-218 0 -360 147.5t-142 374.5zM184 512q0 -209 130.5 -345t330.5 -136t330.5 136t130.5 345t-130.5 345t-330.5 136t-330.5 -136t-130.5 -345z " />
<glyph unicode="r" horiz-adv-x="892" d="M225 0v1024h41v-258q61 123 195 195.5t309 72.5v-41q-220 0 -362 -115.5t-142 -293.5v-584h-41z" />
<glyph unicode="s" horiz-adv-x="1007" d="M123 129l29 29q111 -127 344 -127q155 0 246.5 60t91.5 165q0 65 -38 111.5t-99 73.5t-134 48.5t-146.5 44t-134.5 51.5t-99 80t-38 121q0 115 92.5 181.5t247.5 66.5q231 0 361 -139l-29 -29q-121 127 -330 127q-136 0 -218.5 -56t-82.5 -151q0 -62 38 -106.5 t98.5 -70.5t134 -47t147 -44.5t134 -53.5t98.5 -83t38 -125q0 -124 -101.5 -195t-274.5 -71q-122 0 -219 36.5t-156 102.5z" />
<glyph unicode="t" horiz-adv-x="839" d="M82 983v41h225v266h41v-266h348v-41h-348v-747q0 -91 59 -143t160 -52q71 0 129 20v-41q-58 -20 -133 -20q-119 0 -187.5 63t-68.5 173v747h-225z" />
<glyph unicode="u" d="M225 395v629h41v-629q0 -168 106 -266t287 -98q195 0 321 115.5t126 293.5v584h41v-1024h-41v250q-56 -120 -175 -190t-274 -70q-197 0 -314.5 109t-117.5 296z" />
<glyph unicode="v" horiz-adv-x="1171" d="M82 1024h45l459 -977l458 977h46l-482 -1024h-45z" />
<glyph unicode="w" horiz-adv-x="1601" d="M82 1024h43l328 -961l325 961h45l328 -961l326 961h43l-349 -1024h-43l-327 965l-328 -965h-43z" />
<glyph unicode="x" horiz-adv-x="1128" d="M102 0l437 518l-426 506h53l399 -475l398 475h53l-424 -506l434 -518h-53l-408 487l-409 -487h-54z" />
<glyph unicode="y" horiz-adv-x="1171" d="M82 1024h45l469 -1020l448 1020h46l-566 -1284q-46 -106 -115 -163.5t-151 -57.5q-56 0 -104 20v41q52 -20 104 -20q69 0 127.5 50t99.5 144l88 201z" />
<glyph unicode="z" horiz-adv-x="1095" d="M133 0v41l766 942h-760v41h813v-41l-766 -942h777v-41h-830z" />
<glyph unicode="{" horiz-adv-x="839" d="M184 645v41q89 0 147 52t58 134v508q0 112 72.5 185t185.5 73h90v-41h-90q-94 0 -155.5 -61.5t-61.5 -155.5v-508q0 -74 -45 -130t-121 -76q75 -20 120.5 -76t45.5 -131v-508q0 -94 61.5 -155.5t155.5 -61.5h90v-41h-90q-113 0 -185.5 72.5t-72.5 185.5v508q0 82 -58 134 t-147 52z" />
<glyph unicode="|" horiz-adv-x="614" d="M287 -307v1945h41v-1945h-41z" />
<glyph unicode="}" horiz-adv-x="839" d="M102 -266h91q94 0 155.5 61.5t61.5 155.5v508q0 75 45 131t120 76q-75 20 -120 75.5t-45 130.5v508q0 94 -61.5 155.5t-155.5 61.5h-91v41h91q113 0 185.5 -73t72.5 -185v-508q0 -82 57.5 -134t146.5 -52v-41q-89 0 -146.5 -52t-57.5 -134v-508q0 -113 -72.5 -185.5 t-185.5 -72.5h-91v41z" />
<glyph unicode="~" horiz-adv-x="1228" d="M164 520q0 102 66 169t163 67q51 0 99 -21t86 -51t75.5 -60.5t83 -51.5t92.5 -21q83 0 139 55t56 139h41q0 -102 -67.5 -168.5t-168.5 -66.5q-52 0 -101 21t-87 51t-75 60.5t-81.5 51.5t-91.5 21q-80 0 -134 -55.5t-54 -139.5h-41z" />
<glyph unicode="&#xa1;" horiz-adv-x="491" d="M184 973q0 26 18 43.5t44 17.5t43.5 -17.5t17.5 -43.5t-17.5 -44t-43.5 -18t-44 18t-18 44zM225 -410v1016h41v-1016h-41z" />
<glyph unicode="&#xa2;" horiz-adv-x="1120" d="M143 717q0 199 131.5 333t337.5 146v248h43v-246q197 0 332 -119l-29 -28q-125 106 -305 106q-203 0 -336 -125t-133 -315t133 -315.5t336 -125.5q179 0 305 107l29 -29q-134 -118 -332 -118v-246h-43v248q-206 12 -337.5 146t-131.5 333z" />
<glyph unicode="&#xa3;" horiz-adv-x="1146" d="M164 0v41q102 116 162.5 258t60.5 246q0 27 -2 39h-184v41h176q-12 50 -42 113t-57.5 111.5t-49 116t-21.5 132.5q0 153 107 249.5t272 96.5q119 0 217.5 -52.5t165.5 -148.5l-29 -29q-62 90 -153.5 139.5t-200.5 49.5q-149 0 -243.5 -85t-94.5 -222q0 -62 22.5 -127.5 t50.5 -113.5t58 -112t41 -118h346v-41h-340q2 -12 2 -37q0 -106 -57 -248t-152 -258h805v-41h-860z" />
<glyph unicode="&#xa4;" horiz-adv-x="1228" d="M156 289l159 160q-98 112 -98 268t98 268l-157 160l28 29l158 -160q114 100 270 100q158 0 269 -100l159 160l29 -29l-160 -160q101 -112 101 -268q0 -161 -103 -273l160 -159l-29 -29l-159 162q-114 -99 -267 -99q-158 0 -270 101l-160 -160zM258 717q0 -154 101 -255.5 t255 -101.5t255.5 101.5t101.5 255.5t-101.5 255t-255.5 101t-255 -101t-101 -255z" />
<glyph unicode="&#xa5;" horiz-adv-x="1343" d="M82 1434h49l541 -787l540 787h50l-557 -809h417v-41h-430v-287h430v-41h-430v-256h-41v256h-430v41h430v287h-430v41h418z" />
<glyph unicode="&#xa6;" horiz-adv-x="614" d="M287 -307v768h41v-768h-41zM287 870v768h41v-768h-41z" />
<glyph unicode="&#xa7;" horiz-adv-x="1243" d="M164 700q0 136 88 224q-86 80 -86 200q0 149 118 234.5t318 85.5q136 0 249.5 -42.5t178.5 -117.5l-29 -29q-61 69 -167.5 108.5t-231.5 39.5q-180 0 -287.5 -76t-107.5 -207q0 -126 106 -196q40 -28 99.5 -52.5t119 -41.5t126 -37t126 -39.5t114.5 -49.5t94.5 -66.5 t63 -90.5t23.5 -121q0 -135 -88 -223q86 -80 86 -201q0 -149 -118 -234t-318 -85q-137 0 -250.5 42t-177.5 117l29 29q61 -69 167.5 -108t231.5 -39q180 0 287.5 75.5t107.5 206.5q0 127 -106 197q-40 28 -99.5 52.5t-119 41t-126 37t-126 39.5t-114.5 49.5t-94.5 66.5 t-63 90t-23.5 121zM205 702q0 -80 40 -140.5t102 -95t146 -65t163.5 -51t164 -53t137.5 -70.5q80 80 80 197q0 80 -40 140.5t-102 95t-146 65t-163.5 51t-164 53t-137.5 70.5q-80 -80 -80 -197z" />
<glyph unicode="&#xa8;" horiz-adv-x="798" d="M164 1536q0 26 17.5 43.5t43.5 17.5t44 -17.5t18 -43.5t-18 -43.5t-44 -17.5t-43.5 17.5t-17.5 43.5zM512 1536q0 26 17.5 43.5t43.5 17.5t44 -17.5t18 -43.5t-18 -43.5t-44 -17.5t-43.5 17.5t-17.5 43.5z" />
<glyph unicode="&#xa9;" horiz-adv-x="1781" d="M164 717q0 197 97.5 364.5t265 265t364.5 97.5t364.5 -97.5t265 -265t97.5 -364.5t-97.5 -364.5t-265 -265t-364.5 -97.5t-364.5 97.5t-265 265t-97.5 364.5zM205 717q0 -186 92 -344t250 -250t344 -92t344 92t250 250t92 344t-92 344t-250 250t-344 92t-344 -92 t-250 -250t-92 -344zM557 717q0 158 97.5 261t248.5 103q158 0 254 -110l-33 -27q-86 96 -221 96q-132 0 -217.5 -91t-85.5 -232q0 -140 85.5 -232t217.5 -92q135 0 221 96l33 -26q-97 -111 -254 -111q-151 0 -248.5 103.5t-97.5 261.5z" />
<glyph unicode="&#xaa;" horiz-adv-x="882" d="M125 913q0 97 79 150t220 53h266v90q0 92 -73 144.5t-199 52.5q-148 0 -234 -86l-28 24q98 101 262 101q146 0 228.5 -63t82.5 -173v-489h-39v114q-38 -57 -115 -89.5t-176 -32.5q-126 0 -200 54t-74 150zM166 913q0 -77 65.5 -121t174.5 -44q127 0 205.5 54.5 t78.5 139.5v141h-264q-122 0 -191 -45.5t-69 -124.5z" />
<glyph unicode="&#xab;" horiz-adv-x="989" d="M143 571l295 433l39 -9l-272 -424l272 -424l-39 -8zM492 571l294 433l39 -9l-272 -424l272 -424l-39 -8z" />
<glyph unicode="&#xac;" horiz-adv-x="1228" d="M164 717v41h901v-389h-41v348h-860z" />
<glyph unicode="&#xad;" horiz-adv-x="819" d="M205 553v41h409v-41h-409z" />
<glyph unicode="&#xae;" horiz-adv-x="1781" d="M164 717q0 197 97.5 364.5t265 265t364.5 97.5t364.5 -97.5t265 -265t97.5 -364.5t-97.5 -364.5t-265 -265t-364.5 -97.5t-364.5 97.5t-265 265t-97.5 364.5zM205 717q0 -186 92 -344t250 -250t344 -92t344 92t250 250t92 344t-92 344t-250 250t-344 92t-344 -92 t-250 -250t-92 -344zM659 358v717h299q92 0 151.5 -56t59.5 -142q0 -78 -49 -132t-127 -65l201 -322h-47l-201 320h-244v-320h-43zM705 717h256q73 0 120 45.5t47 114.5t-47 114t-120 45h-256v-319z" />
<glyph unicode="&#xaf;" horiz-adv-x="819" d="M164 1495v41h491v-41h-491z" />
<glyph unicode="&#xb0;" horiz-adv-x="890" d="M143 1198q0 133 85 220t216 87t217.5 -88t86.5 -221q0 -132 -85.5 -218.5t-216.5 -86.5q-132 0 -217.5 86.5t-85.5 220.5zM184 1196q0 -116 74 -190t188 -74t187.5 73.5t73.5 190.5q0 116 -73.5 192t-187.5 76t-188 -76t-74 -192z" />
<glyph unicode="&#xb1;" horiz-adv-x="1228" d="M164 164v41h901v-41h-901zM164 799v41h430v430h41v-430h430v-41h-430v-430h-41v430h-430z" />
<glyph unicode="&#xb2;" horiz-adv-x="591" d="M63 1540q73 105 222 105q101 0 161 -53t60 -144q0 -63 -31 -122.5t-81 -108t-101.5 -90t-103.5 -86t-76 -78.5h407v-41h-454v41q20 38 70 84t104 89t106 91t85.5 105.5t33.5 115.5q0 73 -49 114.5t-131 41.5q-126 0 -193 -93z" />
<glyph unicode="&#xb3;" horiz-adv-x="579" d="M55 1020l31 31q60 -95 182 -95q85 0 139 45.5t54 116.5q0 69 -54 113.5t-137 44.5h-32v39h34q74 0 122 41.5t48 105.5q0 63 -48 102.5t-126 39.5q-120 0 -180 -95l-31 31q72 105 213 105q95 0 155 -50t60 -129q0 -58 -31.5 -103t-86.5 -67q64 -22 100.5 -69t36.5 -111 q0 -88 -66.5 -144.5t-169.5 -56.5q-141 0 -213 105z" />
<glyph unicode="&#xb4;" horiz-adv-x="622" d="M164 1454l254 318l41 -33l-266 -305z" />
<glyph unicode="&#xb5;" d="M225 -471v1495h41v-629q0 -168 106 -266t287 -98q195 0 321 115.5t126 293.5v584h41v-1024h-41v250q-56 -120 -175 -190t-274 -70q-139 0 -240 55.5t-151 157.5v-674h-41z" />
<glyph unicode="&#xb6;" horiz-adv-x="1316" d="M143 1143q0 215 129.5 355t327.5 140h41v-1945h-41v952q-198 0 -327.5 140.5t-129.5 357.5zM989 -307v1945h41v-1945h-41z" />
<glyph unicode="&#xb7;" horiz-adv-x="491" d="M184 717q0 26 18 43.5t44 17.5t43.5 -17.5t17.5 -43.5t-17.5 -44t-43.5 -18t-44 18t-18 44z" />
<glyph unicode="&#xb8;" horiz-adv-x="694" d="M164 -352l29 28q2 -3 7 -8.5t21 -19t34 -24t47 -19t60 -8.5q57 0 92 29.5t35 78.5q0 33 -19 58t-46.5 37t-55 19.5t-46.5 8.5l-19 2l41 170h41l-33 -139q4 0 10.5 -1t25 -6t35 -11.5t37 -19t35.5 -28t25 -39t10 -51.5q0 -69 -46.5 -109t-123.5 -40q-56 0 -105 23t-70 46z " />
<glyph unicode="&#xb9;" horiz-adv-x="481" d="M76 1475l217 163h41v-716h-41v665l-193 -145z" />
<glyph unicode="&#xba;" horiz-adv-x="897" d="M98 1075q0 160 99.5 263.5t251.5 103.5q154 0 253 -103.5t99 -263.5t-99 -263t-253 -103q-152 0 -251.5 103t-99.5 263zM137 1075q0 -141 88.5 -234t223.5 -93t223 93t88 234t-88 234.5t-223 93.5t-223.5 -93.5t-88.5 -234.5z" />
<glyph unicode="&#xbb;" horiz-adv-x="989" d="M164 147l272 424l-272 424l39 9l295 -433l-295 -432zM512 147l272 424l-272 424l39 9l295 -433l-295 -432z" />
<glyph unicode="&#xbc;" horiz-adv-x="1366" d="M76 1270l217 164h41v-717h-41v665l-193 -145zM113 4l1015 1450l35 -24l-1016 -1450zM758 184v41l397 492h43v-492h111v-41h-111v-184h-43v184h-397zM809 225h346v430z" />
<glyph unicode="&#xbd;" horiz-adv-x="1386" d="M76 1270l217 164h41v-717h-41v665l-193 -145zM113 4l1015 1450l35 -24l-1016 -1450zM858 618q73 105 221 105q101 0 161 -53t60 -144q0 -63 -31 -122.5t-81 -108t-101.5 -90t-103.5 -86t-76 -78.5h408v-41h-455v41q20 38 70 84t104 89t106.5 91t86 105.5t33.5 115.5 q0 73 -49 114.5t-132 41.5q-126 0 -192 -92z" />
<glyph unicode="&#xbe;" horiz-adv-x="1464" d="M55 815l31 31q59 -94 182 -94q85 0 139 45t54 116q0 69 -54 113.5t-137 44.5h-32v39h34q74 0 122 41.5t48 105.5q0 63 -48 102.5t-126 39.5q-121 0 -180 -94l-31 30q72 105 213 105q95 0 155 -49.5t60 -128.5q0 -58 -31.5 -103t-86.5 -67q64 -22 100.5 -69.5t36.5 -111.5 q0 -88 -66.5 -144t-169.5 -56q-142 0 -213 104zM211 4l1016 1450l35 -24l-1016 -1450zM856 184v41l397 492h43v-492h111v-41h-111v-184h-43v184h-397zM907 225h346v430z" />
<glyph unicode="&#xbf;" horiz-adv-x="966" d="M123 -61q0 72 21.5 126.5t56 89t76.5 64.5t83 62t75 71.5t54.5 104t18.5 149.5h41q1 -71 -11 -128.5t-34 -96.5t-51 -71t-61 -56t-64.5 -46.5t-62 -48t-52 -55t-36 -72t-13.5 -95.5q0 -144 92 -230t250 -86q118 0 215 49.5t156 139.5l28 -29q-62 -96 -165.5 -148.5 t-231.5 -52.5q-178 0 -281.5 97.5t-103.5 261.5zM461 973q0 26 17.5 43.5t43.5 17.5t44 -17.5t18 -43.5t-18 -44t-44 -18t-43.5 18t-17.5 44z" />
<glyph unicode="&#xc0;" horiz-adv-x="1437" d="M82 0l614 1434h45l615 -1434h-45l-187 434h-811l-186 -434h-45zM330 473h778l-389 907zM432 1923l41 33l254 -318l-29 -20z" />
<glyph unicode="&#xc1;" horiz-adv-x="1437" d="M82 0l614 1434h45l615 -1434h-45l-187 434h-811l-186 -434h-45zM330 473h778l-389 907zM672 1638l254 318l41 -33l-267 -305z" />
<glyph unicode="&#xc2;" horiz-adv-x="1437" d="M82 0l614 1434h45l615 -1434h-45l-187 434h-811l-186 -434h-45zM330 473h778l-389 907zM428 1602l291 313l291 -313l-25 -25l-266 274l-266 -274z" />
<glyph unicode="&#xc3;" horiz-adv-x="1437" d="M82 0l614 1434h45l615 -1434h-45l-187 434h-811l-186 -434h-45zM330 473h778l-389 907zM449 1608q0 70 42 117t101 47q36 0 71.5 -20.5t59.5 -44.5t56.5 -44.5t62.5 -20.5q42 0 73 35t31 88h41q0 -70 -41.5 -116.5t-101.5 -46.5q-29 0 -57.5 13.5t-51 32t-44.5 37.5 t-47 32.5t-50 13.5q-42 0 -73.5 -35t-31.5 -88h-40z" />
<glyph unicode="&#xc4;" horiz-adv-x="1437" d="M82 0l614 1434h45l615 -1434h-45l-187 434h-811l-186 -434h-45zM330 473h778l-389 907zM483 1720q0 26 18 44t44 18t43.5 -18t17.5 -44t-17.5 -43.5t-43.5 -17.5t-44 17.5t-18 43.5zM831 1720q0 26 18 44t44 18t43.5 -18t17.5 -44t-17.5 -43.5t-43.5 -17.5t-44 17.5 t-18 43.5z" />
<glyph unicode="&#xc5;" horiz-adv-x="1437" d="M82 0l614 1434h45l615 -1434h-45l-187 434h-811l-186 -434h-45zM330 473h778l-389 907zM535 1720q0 80 52.5 132.5t131.5 52.5t131.5 -52.5t52.5 -132.5t-52.5 -132t-131.5 -52t-131.5 52t-52.5 132zM575 1720q0 -63 40.5 -103t103.5 -40t103 40t40 103t-40 103.5 t-103 40.5t-103.5 -40.5t-40.5 -103.5z" />
<glyph unicode="&#xc6;" horiz-adv-x="2033" d="M82 0l881 1434h886v-41h-829v-650h747v-41h-747v-661h829v-41h-870v434h-584l-266 -434h-47zM420 473h559v911z" />
<glyph unicode="&#xc7;" horiz-adv-x="1499" d="M164 717q0 156 51.5 291.5t142 231t218 150t274.5 54.5q153 0 282.5 -57.5t223.5 -163.5l-33 -27q-88 99 -209.5 153t-263.5 54q-184 0 -331.5 -88t-230.5 -245t-83 -353t83 -353t230.5 -245t331.5 -88q143 0 264.5 53.5t208.5 151.5l31 -27q-90 -102 -217 -159t-275 -60 l-31 -129q7 -1 19 -3t43 -12.5t54.5 -26t43 -46t19.5 -68.5q0 -69 -46.5 -109t-123.5 -40q-36 0 -69 9.5t-55.5 23t-39.5 27t-25 22.5l-8 10l29 28q2 -3 7 -8.5t21 -19t34 -24t47.5 -19t60.5 -8.5q57 0 92 29.5t35 78.5q0 33 -19.5 58t-46.5 37t-54.5 19.5t-46.5 8.5l-20 2 l39 160q-189 7 -339 101.5t-234 258.5t-84 367z" />
<glyph unicode="&#xc8;" horiz-adv-x="1402" d="M246 0v1434h973v-41h-932v-650h850v-41h-850v-661h932v-41h-973zM446 1923l41 33l254 -318l-28 -20z" />
<glyph unicode="&#xc9;" horiz-adv-x="1402" d="M246 0v1434h973v-41h-932v-650h850v-41h-850v-661h932v-41h-973zM686 1638l254 318l41 -33l-266 -305z" />
<glyph unicode="&#xca;" horiz-adv-x="1402" d="M246 0v1434h973v-41h-932v-650h850v-41h-850v-661h932v-41h-973zM442 1602l291 313l291 -313l-25 -25l-266 274l-266 -274z" />
<glyph unicode="&#xcb;" horiz-adv-x="1402" d="M246 0v1434h973v-41h-932v-650h850v-41h-850v-661h932v-41h-973zM498 1720q0 26 17.5 44t43.5 18t44 -18t18 -44t-18 -43.5t-44 -17.5t-43.5 17.5t-17.5 43.5zM846 1720q0 26 17.5 44t43.5 18t44 -18t18 -44t-18 -43.5t-44 -17.5t-43.5 17.5t-17.5 43.5z" />
<glyph unicode="&#xcc;" horiz-adv-x="532" d="M-20 1923l40 33l254 -318l-28 -20zM246 0v1434h41v-1434h-41z" />
<glyph unicode="&#xcd;" horiz-adv-x="532" d="M219 1638l254 318l41 -33l-266 -305zM246 0v1434h41v-1434h-41z" />
<glyph unicode="&#xce;" horiz-adv-x="532" d="M-25 1602l291 313l291 -313l-25 -25l-266 274l-266 -274zM246 0v1434h41v-1434h-41z" />
<glyph unicode="&#xcf;" horiz-adv-x="532" d="M31 1720q0 26 17.5 44t43.5 18t44 -18t18 -44t-18 -43.5t-44 -17.5t-43.5 17.5t-17.5 43.5zM246 0v1434h41v-1434h-41zM379 1720q0 26 17.5 44t43.5 18t44 -18t18 -44t-18 -43.5t-44 -17.5t-43.5 17.5t-17.5 43.5z" />
<glyph unicode="&#xd0;" horiz-adv-x="1560" d="M41 696v41h205v697h465q196 0 353 -92t245 -256t88 -369t-88 -369t-245 -256t-353 -92h-465v696h-205zM287 41h424q184 0 331.5 87t230.5 241.5t83 347.5t-83 347.5t-230.5 241.5t-331.5 87h-424v-656h512v-41h-512v-655z" />
<glyph unicode="&#xd1;" horiz-adv-x="1617" d="M246 0v1434h41l1044 -1366v1366h41v-1434h-41l-1044 1366v-1366h-41zM539 1608q0 70 42 117t101 47q36 0 71.5 -20.5t59.5 -44.5t56.5 -44.5t62.5 -20.5q42 0 73 35t31 88h41q0 -70 -41.5 -116.5t-101.5 -46.5q-29 0 -57.5 13.5t-51 32t-44.5 37.5t-47 32.5t-50 13.5 q-42 0 -73 -35t-31 -88h-41z" />
<glyph unicode="&#xd2;" horiz-adv-x="1699" d="M164 717q0 156 51.5 291.5t142 231t218 150t274.5 54.5t274.5 -54.5t218 -150t142 -231t51.5 -291.5t-51.5 -291.5t-142 -231t-218 -150t-274.5 -54.5t-274.5 54.5t-218 150t-142 231t-51.5 291.5zM205 717q0 -196 83 -353t230.5 -245t331.5 -88t331.5 88t230.5 245 t83 353t-83 353t-230.5 245t-331.5 88t-331.5 -88t-230.5 -245t-83 -353zM563 1923l41 33l254 -318l-29 -20z" />
<glyph unicode="&#xd3;" horiz-adv-x="1699" d="M164 717q0 156 51.5 291.5t142 231t218 150t274.5 54.5t274.5 -54.5t218 -150t142 -231t51.5 -291.5t-51.5 -291.5t-142 -231t-218 -150t-274.5 -54.5t-274.5 54.5t-218 150t-142 231t-51.5 291.5zM205 717q0 -196 83 -353t230.5 -245t331.5 -88t331.5 88t230.5 245 t83 353t-83 353t-230.5 245t-331.5 88t-331.5 -88t-230.5 -245t-83 -353zM803 1638l254 318l41 -33l-267 -305z" />
<glyph unicode="&#xd4;" horiz-adv-x="1699" d="M164 717q0 156 51.5 291.5t142 231t218 150t274.5 54.5t274.5 -54.5t218 -150t142 -231t51.5 -291.5t-51.5 -291.5t-142 -231t-218 -150t-274.5 -54.5t-274.5 54.5t-218 150t-142 231t-51.5 291.5zM205 717q0 -196 83 -353t230.5 -245t331.5 -88t331.5 88t230.5 245 t83 353t-83 353t-230.5 245t-331.5 88t-331.5 -88t-230.5 -245t-83 -353zM559 1602l291 313l291 -313l-25 -25l-266 274l-266 -274z" />
<glyph unicode="&#xd5;" horiz-adv-x="1699" d="M164 717q0 156 51.5 291.5t142 231t218 150t274.5 54.5t274.5 -54.5t218 -150t142 -231t51.5 -291.5t-51.5 -291.5t-142 -231t-218 -150t-274.5 -54.5t-274.5 54.5t-218 150t-142 231t-51.5 291.5zM205 717q0 -196 83 -353t230.5 -245t331.5 -88t331.5 88t230.5 245 t83 353t-83 353t-230.5 245t-331.5 88t-331.5 -88t-230.5 -245t-83 -353zM580 1608q0 70 42 117t101 47q35 0 71 -20.5t60 -44.5t56.5 -44.5t62.5 -20.5q42 0 73 35t31 88h41q0 -70 -41.5 -116.5t-101.5 -46.5q-29 0 -57.5 13.5t-51 32t-44.5 37.5t-47 32.5t-50 13.5 q-42 0 -73 -35t-31 -88h-41z" />
<glyph unicode="&#xd6;" horiz-adv-x="1699" d="M164 717q0 156 51.5 291.5t142 231t218 150t274.5 54.5t274.5 -54.5t218 -150t142 -231t51.5 -291.5t-51.5 -291.5t-142 -231t-218 -150t-274.5 -54.5t-274.5 54.5t-218 150t-142 231t-51.5 291.5zM205 717q0 -196 83 -353t230.5 -245t331.5 -88t331.5 88t230.5 245 t83 353t-83 353t-230.5 245t-331.5 88t-331.5 -88t-230.5 -245t-83 -353zM614 1720q0 26 18 44t44 18t43.5 -18t17.5 -44t-17.5 -43.5t-43.5 -17.5t-44 17.5t-18 43.5zM963 1720q0 26 17.5 44t43.5 18t43.5 -18t17.5 -44t-17.5 -43.5t-43.5 -17.5t-43.5 17.5t-17.5 43.5z " />
<glyph unicode="&#xd7;" horiz-adv-x="1228" d="M225 260l359 356l-359 357l31 31l358 -357l359 357l31 -31l-359 -357l356 -356l-30 -31l-357 357l-358 -357z" />
<glyph unicode="&#xd8;" horiz-adv-x="1699" d="M164 717q0 156 51.5 291.5t142 231t218 150t274.5 54.5q225 0 397 -123l123 174h51l-139 -201q120 -98 187 -247.5t67 -329.5q0 -156 -51.5 -291.5t-142 -231t-218 -150t-274.5 -54.5q-222 0 -397 123l-121 -174h-51l139 198q-121 98 -188.5 248.5t-67.5 331.5zM205 717 q0 -170 62.5 -311t176.5 -234l781 1114q-164 117 -375 117q-184 0 -331.5 -88t-230.5 -245t-83 -353zM477 145q157 -114 373 -114q184 0 331.5 88t230.5 245t83 353q0 169 -63 310t-175 235z" />
<glyph unicode="&#xd9;" horiz-adv-x="1576" d="M236 461v973h40v-973q0 -187 144.5 -308.5t367.5 -121.5t367.5 121.5t144.5 308.5v973h41v-973q0 -204 -157 -337.5t-396 -133.5t-395.5 133.5t-156.5 337.5zM502 1923l41 33l254 -318l-29 -20z" />
<glyph unicode="&#xda;" horiz-adv-x="1576" d="M236 461v973h40v-973q0 -187 144.5 -308.5t367.5 -121.5t367.5 121.5t144.5 308.5v973h41v-973q0 -204 -157 -337.5t-396 -133.5t-395.5 133.5t-156.5 337.5zM741 1638l254 318l41 -33l-266 -305z" />
<glyph unicode="&#xdb;" horiz-adv-x="1576" d="M236 461v973h40v-973q0 -187 144.5 -308.5t367.5 -121.5t367.5 121.5t144.5 308.5v973h41v-973q0 -204 -157 -337.5t-396 -133.5t-395.5 133.5t-156.5 337.5zM498 1602l290 313l291 -313l-24 -25l-267 274l-266 -274z" />
<glyph unicode="&#xdc;" horiz-adv-x="1576" d="M236 461v973h40v-973q0 -187 144.5 -308.5t367.5 -121.5t367.5 121.5t144.5 308.5v973h41v-973q0 -204 -157 -337.5t-396 -133.5t-395.5 133.5t-156.5 337.5zM553 1720q0 26 17.5 44t43.5 18t44 -18t18 -44t-18 -43.5t-44 -17.5t-43.5 17.5t-17.5 43.5zM901 1720 q0 26 18 44t44 18t43.5 -18t17.5 -44t-17.5 -43.5t-43.5 -17.5t-44 17.5t-18 43.5z" />
<glyph unicode="&#xdd;" horiz-adv-x="1343" d="M82 1434h49l541 -787l540 787h50l-570 -828v-606h-41v606zM625 1638l254 318l41 -33l-267 -305z" />
<glyph unicode="&#xde;" horiz-adv-x="1376" d="M246 0v1434h41v-308h547q183 0 301 -115t118 -294t-118 -294.5t-301 -115.5h-547v-307h-41zM287 348h547q164 0 271 104.5t107 264.5t-107 264t-271 104h-547v-737z" />
<glyph unicode="&#xdf;" horiz-adv-x="1290" d="M225 0v1075q0 187 125 308.5t316 121.5q173 0 285 -101.5t112 -258.5q0 -128 -74.5 -224t-189.5 -116q147 -3 242.5 -115t95.5 -278q0 -181 -112 -296.5t-284 -115.5h-196v41h196q154 0 254.5 104.5t100.5 264.5t-100 264t-255 104h-196v41h129q152 0 250 90.5t98 231.5 t-100 232t-256 91q-172 0 -286 -110.5t-114 -278.5v-1075h-41z" />
<glyph unicode="&#xe0;" horiz-adv-x="1259" d="M174 281q0 136 112.5 212t315.5 76h391v131q0 138 -106.5 215.5t-294.5 77.5q-118 0 -198.5 -32t-143.5 -95l-29 29q68 69 156 104t215 35q206 0 324 -89t118 -245v-700h-41v176q-53 -86 -164 -136t-258 -50q-182 0 -289.5 77t-107.5 214zM215 279q0 -115 98 -181.5 t260 -66.5q186 0 303 82t117 209v206h-389q-183 0 -286 -66t-103 -183zM317 1513l41 33l254 -317l-28 -21z" />
<glyph unicode="&#xe1;" horiz-adv-x="1259" d="M174 281q0 136 112.5 212t315.5 76h391v131q0 138 -106.5 215.5t-294.5 77.5q-118 0 -198.5 -32t-143.5 -95l-29 29q68 69 156 104t215 35q206 0 324 -89t118 -245v-700h-41v176q-53 -86 -164 -136t-258 -50q-182 0 -289.5 77t-107.5 214zM215 279q0 -115 98 -181.5 t260 -66.5q186 0 303 82t117 209v206h-389q-183 0 -286 -66t-103 -183zM557 1229l254 317l41 -33l-266 -305z" />
<glyph unicode="&#xe2;" horiz-adv-x="1259" d="M174 281q0 136 112.5 212t315.5 76h391v131q0 138 -106.5 215.5t-294.5 77.5q-118 0 -198.5 -32t-143.5 -95l-29 29q68 69 156 104t215 35q206 0 324 -89t118 -245v-700h-41v176q-53 -86 -164 -136t-258 -50q-182 0 -289.5 77t-107.5 214zM215 279q0 -115 98 -181.5 t260 -66.5q186 0 303 82t117 209v206h-389q-183 0 -286 -66t-103 -183zM313 1192l291 313l291 -313l-25 -25l-266 275l-266 -275z" />
<glyph unicode="&#xe3;" horiz-adv-x="1259" d="M174 281q0 136 112.5 212t315.5 76h391v131q0 138 -106.5 215.5t-294.5 77.5q-118 0 -198.5 -32t-143.5 -95l-29 29q68 69 156 104t215 35q206 0 324 -89t118 -245v-700h-41v176q-53 -86 -164 -136t-258 -50q-182 0 -289.5 77t-107.5 214zM215 279q0 -115 98 -181.5 t260 -66.5q186 0 303 82t117 209v206h-389q-183 0 -286 -66t-103 -183zM334 1198q0 70 42 117t101 47q29 0 57.5 -13.5t51 -32t44.5 -37.5t47 -32.5t50 -13.5q42 0 73 35t31 88h41q0 -70 -41.5 -117t-101.5 -47q-29 0 -57.5 13.5t-51 32t-44.5 37.5t-47 32.5t-50 13.5 q-42 0 -73 -35t-31 -88h-41z" />
<glyph unicode="&#xe4;" horiz-adv-x="1259" d="M174 281q0 136 112.5 212t315.5 76h391v131q0 138 -106.5 215.5t-294.5 77.5q-118 0 -198.5 -32t-143.5 -95l-29 29q68 69 156 104t215 35q206 0 324 -89t118 -245v-700h-41v176q-53 -86 -164 -136t-258 -50q-182 0 -289.5 77t-107.5 214zM215 279q0 -115 98 -181.5 t260 -66.5q186 0 303 82t117 209v206h-389q-183 0 -286 -66t-103 -183zM369 1311q0 26 17.5 43.5t43.5 17.5t44 -17.5t18 -43.5t-18 -44t-44 -18t-43.5 18t-17.5 44zM717 1311q0 26 17.5 43.5t43.5 17.5t44 -17.5t18 -43.5t-18 -44t-44 -18t-43.5 18t-17.5 44z" />
<glyph unicode="&#xe5;" horiz-adv-x="1259" d="M174 281q0 136 112.5 212t315.5 76h391v131q0 138 -106.5 215.5t-294.5 77.5q-118 0 -198.5 -32t-143.5 -95l-29 29q68 69 156 104t215 35q206 0 324 -89t118 -245v-700h-41v176q-53 -86 -164 -136t-258 -50q-182 0 -289.5 77t-107.5 214zM215 279q0 -115 98 -181.5 t260 -66.5q186 0 303 82t117 209v206h-389q-183 0 -286 -66t-103 -183zM420 1372q0 80 52 132t132 52t132 -52t52 -132t-52 -132t-132 -52t-132 52t-52 132zM461 1372q0 -63 40 -103t103 -40t103.5 40t40.5 103t-40.5 103.5t-103.5 40.5t-103 -40.5t-40 -103.5z" />
<glyph unicode="&#xe6;" horiz-adv-x="2117" d="M184 274q0 135 112.5 210t315.5 75h392v141q0 138 -107 215.5t-295 77.5q-118 0 -198.5 -32t-143.5 -95l-29 29q68 69 156 104t215 35q197 0 313.5 -80.5t126.5 -224.5q58 140 178 222.5t275 82.5q131 0 243.5 -61.5t179.5 -170.5t67 -239q0 -42 -5 -47h-936 q1 -104 38.5 -194t103 -154t157.5 -100.5t197 -36.5q107 0 198.5 36.5t151.5 102.5l33 -27q-67 -73 -166.5 -113t-218.5 -40q-171 0 -303 85.5t-191 229.5q-8 -139 -136 -227t-326 -88q-182 0 -290 75.5t-108 208.5zM225 274q0 -114 98.5 -178.5t260.5 -64.5q186 0 303 82 t117 209v196h-390q-183 0 -286 -65t-103 -179zM1044 557h900q-10 192 -136.5 314t-312.5 122t-313.5 -122t-137.5 -314z" />
<glyph unicode="&#xe7;" horiz-adv-x="1120" d="M143 512q0 227 144.5 374.5t365.5 147.5q199 0 334 -119l-29 -28q-125 106 -305 106q-203 0 -336 -136t-133 -345t133 -345t336 -136q180 0 305 106l29 -28q-128 -113 -319 -119l-31 -129q4 0 10.5 -1t25 -6t35 -11.5t37 -19t35.5 -28t25 -39t10 -51.5q0 -69 -46.5 -109 t-123.5 -40q-56 0 -105 23t-70 46l-21 23l28 28q2 -3 7 -8.5t21 -19t34 -24t47.5 -19t60.5 -8.5q57 0 92 29.5t35 78.5q0 33 -19 58t-46.5 37t-55 19.5t-46.5 8.5l-19 2l39 160q-211 11 -347.5 157t-136.5 365z" />
<glyph unicode="&#xe8;" horiz-adv-x="1257" d="M143 518q0 221 140.5 368.5t351.5 147.5q130 0 242.5 -64t179.5 -175.5t67 -241.5q0 -43 -4 -47h-936q1 -135 66 -244t178 -170t252 -61q107 0 198.5 36.5t151.5 102.5l33 -27q-67 -73 -166.5 -113t-218.5 -40q-231 0 -383 148.5t-152 379.5zM184 547h899 q-11 194 -137.5 320t-310.5 126q-185 0 -313 -126.5t-138 -319.5zM348 1513l41 33l254 -317l-29 -21z" />
<glyph unicode="&#xe9;" horiz-adv-x="1257" d="M143 518q0 221 140.5 368.5t351.5 147.5q130 0 242.5 -64t179.5 -175.5t67 -241.5q0 -43 -4 -47h-936q1 -135 66 -244t178 -170t252 -61q107 0 198.5 36.5t151.5 102.5l33 -27q-67 -73 -166.5 -113t-218.5 -40q-231 0 -383 148.5t-152 379.5zM184 547h899 q-11 194 -137.5 320t-310.5 126q-185 0 -313 -126.5t-138 -319.5zM588 1229l254 317l41 -33l-267 -305z" />
<glyph unicode="&#xea;" horiz-adv-x="1257" d="M143 518q0 221 140.5 368.5t351.5 147.5q130 0 242.5 -64t179.5 -175.5t67 -241.5q0 -43 -4 -47h-936q1 -135 66 -244t178 -170t252 -61q107 0 198.5 36.5t151.5 102.5l33 -27q-67 -73 -166.5 -113t-218.5 -40q-231 0 -383 148.5t-152 379.5zM184 547h899 q-11 194 -137.5 320t-310.5 126q-185 0 -313 -126.5t-138 -319.5zM344 1192l291 313l291 -313l-25 -25l-266 275l-266 -275z" />
<glyph unicode="&#xeb;" horiz-adv-x="1257" d="M143 518q0 221 140.5 368.5t351.5 147.5q130 0 242.5 -64t179.5 -175.5t67 -241.5q0 -43 -4 -47h-936q1 -135 66 -244t178 -170t252 -61q107 0 198.5 36.5t151.5 102.5l33 -27q-67 -73 -166.5 -113t-218.5 -40q-231 0 -383 148.5t-152 379.5zM184 547h899 q-11 194 -137.5 320t-310.5 126q-185 0 -313 -126.5t-138 -319.5zM399 1311q0 26 18 43.5t44 17.5t43.5 -17.5t17.5 -43.5t-17.5 -44t-43.5 -18t-44 18t-18 44zM748 1311q0 26 17.5 43.5t43.5 17.5t43.5 -17.5t17.5 -43.5t-17.5 -44t-43.5 -18t-43.5 18t-17.5 44z" />
<glyph unicode="&#xec;" horiz-adv-x="491" d="M-41 1513l41 33l254 -317l-29 -21zM225 0v1024h41v-1024h-41z" />
<glyph unicode="&#xed;" horiz-adv-x="491" d="M199 1229l254 317l41 -33l-267 -305zM225 0v1024h41v-1024h-41z" />
<glyph unicode="&#xee;" horiz-adv-x="491" d="M-45 1192l291 313l291 -313l-25 -25l-266 275l-266 -275zM225 0v1024h41v-1024h-41z" />
<glyph unicode="&#xef;" horiz-adv-x="491" d="M10 1311q0 26 18 43.5t44 17.5t43.5 -17.5t17.5 -43.5t-17.5 -44t-43.5 -18t-44 18t-18 44zM225 0v1024h41v-1024h-41zM358 1311q0 26 18 43.5t44 17.5t43.5 -17.5t17.5 -43.5t-17.5 -44t-43.5 -18t-44 18t-18 44z" />
<glyph unicode="&#xf0;" horiz-adv-x="1198" d="M164 430q0 192 124 316t316 124q154 0 273 -86l-246 416l-254 -149l-21 32l256 150l-118 201h47l106 -181l230 136l20 -33l-231 -135l295 -500q83 -142 83 -291q0 -192 -124 -316t-316 -124t-316 124t-124 316zM205 430q0 -173 113 -286t286 -113t286.5 113t113.5 286 t-113.5 286t-286.5 113t-286 -113t-113 -286z" />
<glyph unicode="&#xf1;" d="M225 0v1024h41v-248q56 119 171.5 188.5t264.5 69.5q195 0 320 -114t125 -291v-629h-41v629q0 159 -113.5 261.5t-290.5 102.5q-188 0 -312 -115.5t-124 -293.5v-584h-41zM416 1198q0 70 42 117t101 47q29 0 57.5 -13.5t51 -32t44.5 -37.5t47 -32.5t50 -13.5q42 0 73 35 t31 88h41q0 -70 -41.5 -117t-101.5 -47q-29 0 -57.5 13.5t-51 32t-44.5 37.5t-47 32.5t-50 13.5q-42 0 -73 -35t-31 -88h-41z" />
<glyph unicode="&#xf2;" horiz-adv-x="1290" d="M143 512q0 227 142 374.5t360 147.5t360 -147.5t142 -374.5t-142 -374.5t-360 -147.5t-360 147.5t-142 374.5zM184 512q0 -209 130.5 -345t330.5 -136t330.5 136t130.5 345t-130.5 345t-330.5 136t-330.5 -136t-130.5 -345zM358 1513l41 33l254 -317l-28 -21z" />
<glyph unicode="&#xf3;" horiz-adv-x="1290" d="M143 512q0 227 142 374.5t360 147.5t360 -147.5t142 -374.5t-142 -374.5t-360 -147.5t-360 147.5t-142 374.5zM184 512q0 -209 130.5 -345t330.5 -136t330.5 136t130.5 345t-130.5 345t-330.5 136t-330.5 -136t-130.5 -345zM598 1229l254 317l41 -33l-266 -305z" />
<glyph unicode="&#xf4;" horiz-adv-x="1290" d="M143 512q0 227 142 374.5t360 147.5t360 -147.5t142 -374.5t-142 -374.5t-360 -147.5t-360 147.5t-142 374.5zM184 512q0 -209 130.5 -345t330.5 -136t330.5 136t130.5 345t-130.5 345t-330.5 136t-330.5 -136t-130.5 -345zM354 1192l291 313l291 -313l-25 -25l-266 275 l-266 -275z" />
<glyph unicode="&#xf5;" horiz-adv-x="1290" d="M143 512q0 227 142 374.5t360 147.5t360 -147.5t142 -374.5t-142 -374.5t-360 -147.5t-360 147.5t-142 374.5zM184 512q0 -209 130.5 -345t330.5 -136t330.5 136t130.5 345t-130.5 345t-330.5 136t-330.5 -136t-130.5 -345zM375 1198q0 70 42 117t101 47q29 0 57.5 -13.5 t51 -32t44.5 -37.5t47 -32.5t50 -13.5q42 0 73 35t31 88h41q0 -70 -41.5 -117t-101.5 -47q-29 0 -57.5 13.5t-51 32t-44.5 37.5t-47 32.5t-50 13.5q-42 0 -73 -35t-31 -88h-41z" />
<glyph unicode="&#xf6;" horiz-adv-x="1290" d="M143 512q0 227 142 374.5t360 147.5t360 -147.5t142 -374.5t-142 -374.5t-360 -147.5t-360 147.5t-142 374.5zM184 512q0 -209 130.5 -345t330.5 -136t330.5 136t130.5 345t-130.5 345t-330.5 136t-330.5 -136t-130.5 -345zM410 1311q0 26 17.5 43.5t43.5 17.5 t43.5 -17.5t17.5 -43.5t-17.5 -44t-43.5 -18t-43.5 18t-17.5 44zM758 1311q0 26 17.5 43.5t43.5 17.5t44 -17.5t18 -43.5t-18 -44t-44 -18t-43.5 18t-17.5 44z" />
<glyph unicode="&#xf7;" horiz-adv-x="1228" d="M164 594v41h901v-41h-901zM553 195q0 26 17.5 43.5t43.5 17.5t44 -17.5t18 -43.5t-18 -44t-44 -18t-43.5 18t-17.5 44zM553 1034q0 26 17.5 44t43.5 18t44 -18t18 -44t-18 -43.5t-44 -17.5t-43.5 17.5t-17.5 43.5z" />
<glyph unicode="&#xf8;" horiz-adv-x="1290" d="M143 512q0 227 142 374.5t360 147.5q136 0 242 -59l69 121h48l-82 -142q106 -67 165.5 -182.5t59.5 -259.5q0 -227 -142 -374.5t-360 -147.5q-137 0 -246 59l-63 -110h-47l76 133q-103 69 -162.5 183.5t-59.5 256.5zM184 512q0 -130 53.5 -236t147.5 -170l481 834 q-100 53 -221 53q-200 0 -330.5 -136t-130.5 -345zM422 86q99 -55 223 -55q200 0 330.5 136t130.5 345q0 131 -54.5 237.5t-150.5 170.5z" />
<glyph unicode="&#xf9;" d="M225 395v629h41v-629q0 -168 106 -266t287 -98q195 0 321 115.5t126 293.5v584h41v-1024h-41v250q-56 -120 -175 -190t-274 -70q-197 0 -314.5 109t-117.5 296zM399 1513l41 33l254 -317l-28 -21z" />
<glyph unicode="&#xfa;" d="M225 395v629h41v-629q0 -168 106 -266t287 -98q195 0 321 115.5t126 293.5v584h41v-1024h-41v250q-56 -120 -175 -190t-274 -70q-197 0 -314.5 109t-117.5 296zM639 1229l254 317l41 -33l-266 -305z" />
<glyph unicode="&#xfb;" d="M225 395v629h41v-629q0 -168 106 -266t287 -98q195 0 321 115.5t126 293.5v584h41v-1024h-41v250q-56 -120 -175 -190t-274 -70q-197 0 -314.5 109t-117.5 296zM395 1192l291 313l291 -313l-25 -25l-266 275l-266 -275z" />
<glyph unicode="&#xfc;" d="M225 395v629h41v-629q0 -168 106 -266t287 -98q195 0 321 115.5t126 293.5v584h41v-1024h-41v250q-56 -120 -175 -190t-274 -70q-197 0 -314.5 109t-117.5 296zM451 1311q0 26 17.5 43.5t43.5 17.5t43.5 -17.5t17.5 -43.5t-17.5 -44t-43.5 -18t-43.5 18t-17.5 44z M799 1311q0 26 17.5 43.5t43.5 17.5t44 -17.5t18 -43.5t-18 -44t-44 -18t-43.5 18t-17.5 44z" />
<glyph unicode="&#xfd;" horiz-adv-x="1171" d="M82 1024h45l469 -1020l448 1020h46l-566 -1284q-46 -106 -115 -163.5t-151 -57.5q-56 0 -104 20v41q52 -20 104 -20q69 0 127.5 50t99.5 144l88 201zM539 1229l254 317l41 -33l-267 -305z" />
<glyph unicode="&#xfe;" d="M225 -471v1966h41v-764q58 140 180 221.5t281 81.5q218 0 360 -147.5t142 -374.5t-142 -374.5t-360 -147.5q-159 0 -281 81.5t-180 221.5v-764h-41zM266 512q0 -209 130.5 -345t330.5 -136t330.5 136t130.5 345t-130.5 345t-330.5 136t-330.5 -136t-130.5 -345z" />
<glyph unicode="&#xff;" horiz-adv-x="1171" d="M82 1024h45l469 -1020l448 1020h46l-566 -1284q-46 -106 -115 -163.5t-151 -57.5q-56 0 -104 20v41q52 -20 104 -20q69 0 127.5 50t99.5 144l88 201zM350 1311q0 26 18 43.5t44 17.5t43.5 -17.5t17.5 -43.5t-17.5 -44t-43.5 -18t-44 18t-18 44zM698 1311q0 26 18 43.5 t44 17.5t43.5 -17.5t17.5 -43.5t-17.5 -44t-43.5 -18t-44 18t-18 44z" />
<glyph unicode="&#x13f;" horiz-adv-x="1300" d="M246 0v1434h41v-1393h911v-41h-952zM854 717q0 26 17.5 43.5t43.5 17.5t44 -17.5t18 -43.5t-18 -44t-44 -18t-43.5 18t-17.5 44z" />
<glyph unicode="&#x140;" horiz-adv-x="696" d="M225 0v1495h41v-1495h-41zM532 717q0 26 18 43.5t44 17.5t43.5 -17.5t17.5 -43.5t-17.5 -44t-43.5 -18t-44 18t-18 44z" />
<glyph unicode="&#x152;" horiz-adv-x="2652" d="M164 717q0 156 51.5 291t141 231t216.5 150.5t273 54.5q237 0 413 -138t238 -366v494h971v-41h-932v-650h850v-41h-850v-661h932v-41h-971v494q-62 -228 -238 -366t-413 -138q-146 0 -273 54.5t-216.5 150.5t-141 231t-51.5 291zM205 717q0 -196 83 -353t230.5 -245 t331.5 -88t331.5 88t230.5 245t83 353t-83 353t-230.5 245t-331.5 88t-331.5 -88t-230.5 -245t-83 -353z" />
<glyph unicode="&#x153;" horiz-adv-x="2220" d="M143 512q0 227 141.5 374.5t358.5 147.5q180 0 310.5 -103.5t172.5 -275.5q40 169 170 274t303 105q129 0 241.5 -64t179.5 -175.5t67 -241.5q0 -43 -4 -47h-936q1 -135 65.5 -244t177.5 -170t252 -61q107 0 199 36.5t152 102.5l32 -27q-67 -73 -166.5 -113t-216.5 -40 q-191 0 -331 105.5t-183 279.5q-42 -174 -173 -279.5t-312 -105.5q-217 0 -358.5 147.5t-141.5 374.5zM184 512q0 -209 130.5 -345t330.5 -136t330.5 136t130.5 345t-130.5 345t-330.5 136t-330.5 -136t-130.5 -345zM1147 547h899q-11 194 -138 320t-311 126 q-185 0 -312.5 -126.5t-137.5 -319.5z" />
<glyph unicode="&#x178;" horiz-adv-x="1343" d="M82 1434h49l541 -787l540 787h50l-570 -828v-606h-41v606zM436 1720q0 26 18 44t44 18t43.5 -18t17.5 -44t-17.5 -43.5t-43.5 -17.5t-44 17.5t-18 43.5zM784 1720q0 26 18 44t44 18t43.5 -18t17.5 -44t-17.5 -43.5t-43.5 -17.5t-44 17.5t-18 43.5z" />
<glyph unicode="&#x2c6;" horiz-adv-x="909" d="M164 1417l291 314l290 -314l-24 -24l-266 274l-267 -274z" />
<glyph unicode="&#x2dc;" horiz-adv-x="866" d="M164 1423q0 70 42 117t101 47q29 0 57.5 -13.5t51 -32.5t44.5 -37.5t47 -32t50 -13.5q42 0 73.5 35t31.5 88h40q0 -70 -41.5 -117t-101.5 -47q-29 0 -57.5 13.5t-51 32.5t-44.5 37.5t-47 32t-50 13.5q-42 0 -73 -35t-31 -88h-41z" />
<glyph unicode="&#x2000;" horiz-adv-x="978" />
<glyph unicode="&#x2001;" horiz-adv-x="1956" />
<glyph unicode="&#x2002;" horiz-adv-x="978" />
<glyph unicode="&#x2003;" horiz-adv-x="1956" />
<glyph unicode="&#x2004;" horiz-adv-x="652" />
<glyph unicode="&#x2005;" horiz-adv-x="489" />
<glyph unicode="&#x2006;" horiz-adv-x="326" />
<glyph unicode="&#x2007;" horiz-adv-x="326" />
<glyph unicode="&#x2008;" horiz-adv-x="244" />
<glyph unicode="&#x2009;" horiz-adv-x="391" />
<glyph unicode="&#x200a;" horiz-adv-x="108" />
<glyph unicode="&#x2010;" horiz-adv-x="819" d="M205 553v41h409v-41h-409z" />
<glyph unicode="&#x2011;" horiz-adv-x="819" d="M205 553v41h409v-41h-409z" />
<glyph unicode="&#x2012;" horiz-adv-x="819" d="M205 553v41h409v-41h-409z" />
<glyph unicode="&#x2013;" horiz-adv-x="1228" d="M205 553v41h819v-41h-819z" />
<glyph unicode="&#x2014;" horiz-adv-x="2048" d="M205 553v41h1638v-41h-1638z" />
<glyph unicode="&#x2018;" horiz-adv-x="493" d="M174 1018l131 432l35 -8l-117 -438z" />
<glyph unicode="&#x2019;" horiz-adv-x="493" d="M215 1012l117 438l49 -14l-131 -432z" />
<glyph unicode="&#x201a;" horiz-adv-x="493" d="M174 -303l117 438l49 -14l-131 -432z" />
<glyph unicode="&#x201c;" horiz-adv-x="800" d="M174 1018l131 432l35 -8l-117 -438zM481 1018l131 432l35 -8l-117 -438z" />
<glyph unicode="&#x201d;" horiz-adv-x="800" d="M174 1012l117 438l49 -14l-131 -432zM481 1012l117 438l49 -14l-131 -432z" />
<glyph unicode="&#x201e;" horiz-adv-x="800" d="M174 -303l117 438l49 -14l-131 -432zM481 -303l117 438l49 -14l-131 -432z" />
<glyph unicode="&#x2022;" horiz-adv-x="825" d="M205 573q0 91 58 150t149 59t150 -59t59 -150q0 -90 -59 -148t-150 -58t-149 57.5t-58 148.5z" />
<glyph unicode="&#x2026;" horiz-adv-x="1474" d="M184 51q0 26 18 44t44 18t43.5 -18t17.5 -44t-17.5 -43.5t-43.5 -17.5t-44 17.5t-18 43.5zM676 51q0 26 17.5 44t43.5 18t44 -18t18 -44t-18 -43.5t-44 -17.5t-43.5 17.5t-17.5 43.5zM1167 51q0 26 18 44t44 18t43.5 -18t17.5 -44t-17.5 -43.5t-43.5 -17.5t-44 17.5 t-18 43.5z" />
<glyph unicode="&#x202f;" horiz-adv-x="391" />
<glyph unicode="&#x2039;" horiz-adv-x="641" d="M143 571l295 433l39 -9l-272 -424l272 -424l-39 -8z" />
<glyph unicode="&#x203a;" horiz-adv-x="641" d="M164 147l272 424l-272 424l39 9l295 -433l-295 -432z" />
<glyph unicode="&#x2044;" horiz-adv-x="313" d="M-369 4l1016 1450l35 -24l-1016 -1450z" />
<glyph unicode="&#x205f;" horiz-adv-x="489" />
<glyph unicode="&#x20ac;" horiz-adv-x="1601" d="M61 532v41h218q-13 73 -13 144q0 70 13 143h-218v41h226q53 245 234 394t431 149q153 0 282.5 -57.5t223.5 -163.5l-33 -27q-88 99 -209.5 153t-263.5 54q-231 0 -400.5 -138t-223.5 -364h757v-41h-766q-12 -68 -12 -143q0 -77 12 -144h766v-41h-757 q54 -226 223.5 -363.5t400.5 -137.5q143 0 264.5 53.5t208.5 151.5l31 -27q-92 -104 -222 -161.5t-282 -57.5q-250 0 -431 148.5t-234 393.5h-226z" />
<glyph unicode="&#x2122;" horiz-adv-x="1554" d="M45 1395v39h610v-39h-282v-678h-43v678h-285zM776 717v717h47l285 -512l285 512h47v-717h-43v639l-271 -486h-36l-271 486v-639h-43z" />
<glyph unicode="&#x2460;" horiz-adv-x="1986" d="M164 717q0 169 65.5 322.5t176.5 264.5t264.5 176.5t322.5 65.5t323 -65.5t265 -176.5t176.5 -264.5t65.5 -322.5q0 -135 -42 -262t-118.5 -229t-178.5 -178.5t-229 -118.5t-262 -42q-169 0 -322.5 65.5t-264.5 176.5t-176.5 265t-65.5 323zM205 717q0 -161 62.5 -307 t167.5 -251.5t251 -168t307 -62.5t307 62.5t251.5 168t168 251.5t62.5 307t-62.5 307t-168 251t-251.5 167.5t-307 62.5q-214 0 -395.5 -105.5t-287 -287t-105.5 -395.5zM780 911l215 164h43v-717h-41v666l-192 -145z" />
<glyph unicode="&#x2461;" horiz-adv-x="1986" d="M164 717q0 169 65.5 322.5t176.5 264.5t264.5 176.5t322.5 65.5t323 -65.5t265 -176.5t176.5 -264.5t65.5 -322.5q0 -135 -42 -262t-118.5 -229t-178.5 -178.5t-229 -118.5t-262 -42q-169 0 -322.5 65.5t-264.5 176.5t-176.5 265t-65.5 323zM205 717q0 -161 62.5 -307 t167.5 -251.5t251 -168t307 -62.5t307 62.5t251.5 168t168 251.5t62.5 307t-62.5 307t-168 251t-251.5 167.5t-307 62.5q-214 0 -395.5 -105.5t-287 -287t-105.5 -395.5zM756 975q72 104 221 104q101 0 161 -52.5t60 -143.5q0 -63 -31 -122.5t-81 -108.5t-101.5 -90.5 t-103.5 -86t-76 -78.5h407v-41h-454v41q20 38 70 84.5t104 89.5t106 91t85.5 105.5t33.5 115.5q0 73 -48.5 114t-131.5 41q-127 0 -193 -92z" />
<glyph unicode="&#x2462;" horiz-adv-x="1986" d="M164 717q0 169 65.5 322.5t176.5 264.5t264.5 176.5t322.5 65.5t323 -65.5t265 -176.5t176.5 -264.5t65.5 -322.5q0 -135 -42 -262t-118.5 -229t-178.5 -178.5t-229 -118.5t-262 -42q-169 0 -322.5 65.5t-264.5 176.5t-176.5 265t-65.5 323zM205 717q0 -161 62.5 -307 t167.5 -251.5t251 -168t307 -62.5t307 62.5t251.5 168t168 251.5t62.5 307t-62.5 307t-168 251t-251.5 167.5t-307 62.5q-214 0 -395.5 -105.5t-287 -287t-105.5 -395.5zM770 457l31 30q59 -94 182 -94q85 0 139 45.5t54 116.5q0 69 -54 113.5t-137 44.5h-33v39h35 q74 0 122 41.5t48 105.5q0 63 -48 102t-126 39q-121 0 -180 -94l-31 31q71 104 213 104q95 0 155 -49.5t60 -128.5q0 -58 -32 -103t-87 -67q64 -22 101 -69t37 -111q0 -88 -66.5 -144.5t-169.5 -56.5q-141 0 -213 105z" />
<glyph unicode="&#x2463;" horiz-adv-x="1986" d="M164 717q0 169 65.5 322.5t176.5 264.5t264.5 176.5t322.5 65.5t323 -65.5t265 -176.5t176.5 -264.5t65.5 -322.5q0 -135 -42 -262t-118.5 -229t-178.5 -178.5t-229 -118.5t-262 -42q-169 0 -322.5 65.5t-264.5 176.5t-176.5 265t-65.5 323zM205 717q0 -161 62.5 -307 t167.5 -251.5t251 -168t307 -62.5t307 62.5t251.5 168t168 251.5t62.5 307t-62.5 307t-168 251t-251.5 167.5t-307 62.5q-214 0 -395.5 -105.5t-287 -287t-105.5 -395.5zM682 543v41l397 491h43v-491h111v-41h-111v-185h-43v185h-397zM733 584h346v430z" />
<glyph unicode="&#x2464;" horiz-adv-x="1986" d="M164 717q0 169 65.5 322.5t176.5 264.5t264.5 176.5t322.5 65.5t323 -65.5t265 -176.5t176.5 -264.5t65.5 -322.5q0 -135 -42 -262t-118.5 -229t-178.5 -178.5t-229 -118.5t-262 -42q-169 0 -322.5 65.5t-264.5 176.5t-176.5 265t-65.5 323zM205 717q0 -161 62.5 -307 t167.5 -251.5t251 -168t307 -62.5t307 62.5t251.5 168t168 251.5t62.5 307t-62.5 307t-168 251t-251.5 167.5t-307 62.5q-214 0 -395.5 -105.5t-287 -287t-105.5 -395.5zM772 465l29 29q61 -97 180 -97q84 0 138.5 50.5t54.5 127.5t-53 127t-136 50h-170v327h352v-41h-313 v-247h131q100 0 166 -61t66 -155q0 -95 -67 -157t-171 -62q-66 0 -120.5 29t-86.5 80z" />
<glyph unicode="&#x2465;" horiz-adv-x="1986" d="M164 717q0 169 65.5 322.5t176.5 264.5t264.5 176.5t322.5 65.5t323 -65.5t265 -176.5t176.5 -264.5t65.5 -322.5q0 -135 -42 -262t-118.5 -229t-178.5 -178.5t-229 -118.5t-262 -42q-169 0 -322.5 65.5t-264.5 176.5t-176.5 265t-65.5 323zM205 717q0 -161 62.5 -307 t167.5 -251.5t251 -168t307 -62.5t307 62.5t251.5 168t168 251.5t62.5 307t-62.5 307t-168 251t-251.5 167.5t-307 62.5q-214 0 -395.5 -105.5t-287 -287t-105.5 -395.5zM766 584q0 72 45 145l211 350h49l-182 -299q49 27 110 27q95 0 158.5 -63.5t63.5 -159.5 q0 -98 -65 -163t-163 -65t-162.5 65t-64.5 163zM809 582q0 -80 52.5 -132.5t131.5 -52.5t132 52.5t53 132.5q0 79 -52.5 131.5t-132.5 52.5q-79 0 -131.5 -52t-52.5 -132z" />
<glyph unicode="&#x2466;" horiz-adv-x="1986" d="M164 717q0 169 65.5 322.5t176.5 264.5t264.5 176.5t322.5 65.5t323 -65.5t265 -176.5t176.5 -264.5t65.5 -322.5q0 -135 -42 -262t-118.5 -229t-178.5 -178.5t-229 -118.5t-262 -42q-169 0 -322.5 65.5t-264.5 176.5t-176.5 265t-65.5 323zM205 717q0 -161 62.5 -307 t167.5 -251.5t251 -168t307 -62.5t307 62.5t251.5 168t168 251.5t62.5 307t-62.5 307t-168 251t-251.5 167.5t-307 62.5q-214 0 -395.5 -105.5t-287 -287t-105.5 -395.5zM770 1036v39h447v-39l-289 -678h-45l288 678h-401z" />
<glyph unicode="&#x2467;" horiz-adv-x="1986" d="M164 717q0 169 65.5 322.5t176.5 264.5t264.5 176.5t322.5 65.5t323 -65.5t265 -176.5t176.5 -264.5t65.5 -322.5q0 -135 -42 -262t-118.5 -229t-178.5 -178.5t-229 -118.5t-262 -42q-169 0 -322.5 65.5t-264.5 176.5t-176.5 265t-65.5 323zM205 717q0 -161 62.5 -307 t167.5 -251.5t251 -168t307 -62.5t307 62.5t251.5 168t168 251.5t62.5 307t-62.5 307t-168 251t-251.5 167.5t-307 62.5q-214 0 -395.5 -105.5t-287 -287t-105.5 -395.5zM752 551q0 64 38.5 112t104.5 70q-57 22 -90 65.5t-33 100.5q0 80 62 131t159 51t160.5 -52t63.5 -130 q0 -56 -33.5 -100t-91.5 -66q66 -22 104.5 -70t38.5 -112q0 -86 -69 -142.5t-173 -56.5t-172.5 56.5t-68.5 142.5zM795 553q0 -69 56 -114.5t142 -45.5q87 0 143 45.5t56 114.5t-55.5 113.5t-143.5 44.5q-86 0 -142 -44.5t-56 -113.5zM813 897q0 -62 51 -102.5t129 -40.5 t129.5 40.5t51.5 102.5t-51.5 102.5t-129.5 40.5t-129 -40.5t-51 -102.5z" />
<glyph unicode="&#x2468;" horiz-adv-x="1986" d="M164 717q0 169 65.5 322.5t176.5 264.5t264.5 176.5t322.5 65.5t323 -65.5t265 -176.5t176.5 -264.5t65.5 -322.5q0 -135 -42 -262t-118.5 -229t-178.5 -178.5t-229 -118.5t-262 -42q-169 0 -322.5 65.5t-264.5 176.5t-176.5 265t-65.5 323zM205 717q0 -161 62.5 -307 t167.5 -251.5t251 -168t307 -62.5t307 62.5t251.5 168t168 251.5t62.5 307t-62.5 307t-168 251t-251.5 167.5t-307 62.5q-214 0 -395.5 -105.5t-287 -287t-105.5 -395.5zM766 854q0 98 64.5 161.5t162.5 63.5q99 0 163.5 -63.5t64.5 -161.5q0 -74 -45 -147l-222 -351h-49 l189 297q-46 -24 -107 -24q-96 0 -158.5 63.5t-62.5 161.5zM809 854q0 -80 52.5 -132t131.5 -52q80 0 132.5 52.5t52.5 131.5t-52.5 131.5t-132.5 52.5q-79 0 -131.5 -52t-52.5 -132z" />
<glyph unicode="&#x24ea;" horiz-adv-x="1986" d="M164 717q0 169 65.5 322.5t176.5 264.5t264.5 176.5t322.5 65.5t323 -65.5t265 -176.5t176.5 -264.5t65.5 -322.5q0 -135 -42 -262t-118.5 -229t-178.5 -178.5t-229 -118.5t-262 -42q-169 0 -322.5 65.5t-264.5 176.5t-176.5 265t-65.5 323zM205 717q0 -161 62.5 -307 t167.5 -251.5t251 -168t307 -62.5t307 62.5t251.5 168t168 251.5t62.5 307t-62.5 307t-168 251t-251.5 167.5t-307 62.5q-214 0 -395.5 -105.5t-287 -287t-105.5 -395.5zM727 717q0 158 75 261t191 103t191.5 -103t75.5 -261t-75.5 -261.5t-191.5 -103.5 q-115 0 -190.5 103.5t-75.5 261.5zM770 717q0 -140 63 -232t160 -92t160.5 92t63.5 232q0 141 -63.5 232t-160.5 91t-160 -91t-63 -232z" />
<glyph unicode="&#x24ff;" horiz-adv-x="1986" d="M164 717q0 169 65.5 322.5t176.5 264.5t264.5 176.5t322.5 65.5t323 -65.5t265 -176.5t176.5 -264.5t65.5 -322.5q0 -135 -42 -262t-118.5 -229t-178.5 -178.5t-229 -118.5t-262 -42q-169 0 -322.5 65.5t-264.5 176.5t-176.5 265t-65.5 323zM727 717q0 -158 75.5 -261.5 t190.5 -103.5q116 0 191.5 103.5t75.5 261.5t-75.5 261t-191.5 103t-191 -103t-75 -261zM770 717q0 141 63 232t160 91t160.5 -91t63.5 -232q0 -140 -63.5 -232t-160.5 -92t-160 92t-63 232z" />
<glyph unicode="&#x25fc;" horiz-adv-x="1024" d="M0 0v1024h1024v-1024h-1024z" />
<glyph unicode="&#x278a;" horiz-adv-x="1986" d="M164 717q0 169 65.5 322.5t176.5 264.5t264.5 176.5t322.5 65.5t323 -65.5t265 -176.5t176.5 -264.5t65.5 -322.5q0 -135 -42 -262t-118.5 -229t-178.5 -178.5t-229 -118.5t-262 -42q-169 0 -322.5 65.5t-264.5 176.5t-176.5 265t-65.5 323zM780 911l25 -32l192 145v-666 h41v717h-43z" />
<glyph unicode="&#x278b;" horiz-adv-x="1986" d="M164 717q0 169 65.5 322.5t176.5 264.5t264.5 176.5t322.5 65.5t323 -65.5t265 -176.5t176.5 -264.5t65.5 -322.5q0 -135 -42 -262t-118.5 -229t-178.5 -178.5t-229 -118.5t-262 -42q-169 0 -322.5 65.5t-264.5 176.5t-176.5 265t-65.5 323zM756 975l28 -29q66 92 193 92 q83 0 131.5 -41t48.5 -114q0 -58 -33.5 -115.5t-85.5 -105.5t-106 -91t-104 -89.5t-70 -84.5v-41h454v41h-407q24 34 76 78.5t103.5 86t101.5 90.5t81 108.5t31 122.5q0 91 -60 143.5t-161 52.5q-149 0 -221 -104z" />
<glyph unicode="&#x278c;" horiz-adv-x="1986" d="M164 717q0 169 65.5 322.5t176.5 264.5t264.5 176.5t322.5 65.5t323 -65.5t265 -176.5t176.5 -264.5t65.5 -322.5q0 -135 -42 -262t-118.5 -229t-178.5 -178.5t-229 -118.5t-262 -42q-169 0 -322.5 65.5t-264.5 176.5t-176.5 265t-65.5 323zM770 457q72 -105 213 -105 q103 0 169.5 56.5t66.5 144.5q0 64 -37 111t-101 69q55 22 87 67t32 103q0 79 -60 128.5t-155 49.5q-142 0 -213 -104l31 -31q59 94 180 94q78 0 126 -39t48 -102q0 -64 -48 -105.5t-122 -41.5h-35v-39h33q83 0 137 -44.5t54 -113.5q0 -71 -54 -116.5t-139 -45.5 q-123 0 -182 94z" />
<glyph unicode="&#x278d;" horiz-adv-x="1986" d="M164 717q0 169 65.5 322.5t176.5 264.5t264.5 176.5t322.5 65.5t323 -65.5t265 -176.5t176.5 -264.5t65.5 -322.5q0 -135 -42 -262t-118.5 -229t-178.5 -178.5t-229 -118.5t-262 -42q-169 0 -322.5 65.5t-264.5 176.5t-176.5 265t-65.5 323zM682 543h397v-185h43v185h111 v41h-111v491h-43l-397 -491v-41zM733 584l346 430v-430h-346z" />
<glyph unicode="&#x278e;" horiz-adv-x="1986" d="M164 717q0 169 65.5 322.5t176.5 264.5t264.5 176.5t322.5 65.5t323 -65.5t265 -176.5t176.5 -264.5t65.5 -322.5q0 -135 -42 -262t-118.5 -229t-178.5 -178.5t-229 -118.5t-262 -42q-169 0 -322.5 65.5t-264.5 176.5t-176.5 265t-65.5 323zM772 465q32 -51 86.5 -80 t120.5 -29q104 0 171 62t67 157q0 94 -66 155t-166 61h-131v247h313v41h-352v-327h170q83 0 136 -50t53 -127t-54.5 -127.5t-138.5 -50.5q-119 0 -180 97z" />
<glyph unicode="&#x278f;" horiz-adv-x="1986" d="M164 717q0 169 65.5 322.5t176.5 264.5t264.5 176.5t322.5 65.5t323 -65.5t265 -176.5t176.5 -264.5t65.5 -322.5q0 -135 -42 -262t-118.5 -229t-178.5 -178.5t-229 -118.5t-262 -42q-169 0 -322.5 65.5t-264.5 176.5t-176.5 265t-65.5 323zM766 584q0 -98 64.5 -163 t162.5 -65t163 65t65 163q0 96 -63.5 159.5t-158.5 63.5q-61 0 -110 -27l182 299h-49l-211 -350q-45 -73 -45 -145zM809 582q0 80 52.5 132t131.5 52q80 0 132.5 -52.5t52.5 -131.5q0 -80 -53 -132.5t-132 -52.5t-131.5 52.5t-52.5 132.5z" />
<glyph unicode="&#x2790;" horiz-adv-x="1986" d="M164 717q0 169 65.5 322.5t176.5 264.5t264.5 176.5t322.5 65.5t323 -65.5t265 -176.5t176.5 -264.5t65.5 -322.5q0 -135 -42 -262t-118.5 -229t-178.5 -178.5t-229 -118.5t-262 -42q-169 0 -322.5 65.5t-264.5 176.5t-176.5 265t-65.5 323zM770 1036h401l-288 -678h45 l289 678v39h-447v-39z" />
<glyph unicode="&#x2791;" horiz-adv-x="1986" d="M164 717q0 169 65.5 322.5t176.5 264.5t264.5 176.5t322.5 65.5t323 -65.5t265 -176.5t176.5 -264.5t65.5 -322.5q0 -135 -42 -262t-118.5 -229t-178.5 -178.5t-229 -118.5t-262 -42q-169 0 -322.5 65.5t-264.5 176.5t-176.5 265t-65.5 323zM752 551q0 -86 68.5 -142.5 t172.5 -56.5t173 56.5t69 142.5q0 64 -38.5 112t-104.5 70q58 22 91.5 66t33.5 100q0 78 -63.5 130t-160.5 52t-159 -51t-62 -131q0 -57 33 -100.5t90 -65.5q-66 -22 -104.5 -70t-38.5 -112zM795 553q0 69 56 113.5t142 44.5q88 0 143.5 -44.5t55.5 -113.5t-56 -114.5 t-143 -45.5q-86 0 -142 45.5t-56 114.5zM813 897q0 62 51 102.5t129 40.5t129.5 -40.5t51.5 -102.5t-51.5 -102.5t-129.5 -40.5t-129 40.5t-51 102.5z" />
<glyph unicode="&#x2792;" horiz-adv-x="1986" d="M164 717q0 169 65.5 322.5t176.5 264.5t264.5 176.5t322.5 65.5t323 -65.5t265 -176.5t176.5 -264.5t65.5 -322.5q0 -135 -42 -262t-118.5 -229t-178.5 -178.5t-229 -118.5t-262 -42q-169 0 -322.5 65.5t-264.5 176.5t-176.5 265t-65.5 323zM766 854q0 -98 62.5 -161.5 t158.5 -63.5q61 0 107 24l-189 -297h49l222 351q45 73 45 147q0 98 -64.5 161.5t-163.5 63.5q-98 0 -162.5 -63.5t-64.5 -161.5zM809 854q0 80 52.5 132t131.5 52q80 0 132.5 -52.5t52.5 -131.5t-52.5 -131.5t-132.5 -52.5q-79 0 -131.5 52t-52.5 132z" />
<glyph horiz-adv-x="1216" d="M102 229l37 21q48 -101 150 -160t231 -59q182 0 301 110t119 279v1014h41v-1014q0 -187 -130.5 -308.5t-330.5 -121.5q-143 0 -253 64.5t-165 174.5zM918 1638l253 318l41 -33l-266 -305z" />
<glyph d="M143 512q0 227 142 374.5t360 147.5q159 0 281 -81.5t180 -221.5v293h41v-1024h-41v293q-58 -140 -180 -221.5t-281 -81.5q-218 0 -360 147.5t-142 374.5zM184 512q0 -209 130.5 -345t330.5 -136t330.5 136t130.5 345t-130.5 345t-330.5 136t-330.5 -136t-130.5 -345z " />
<glyph d="M143 512q0 227 142 374.5t360 147.5q159 0 281 -81.5t180 -221.5v293h41v-1024h-41v293q-58 -140 -180 -221.5t-281 -81.5q-218 0 -360 147.5t-142 374.5zM184 512q0 -209 130.5 -345t330.5 -136t330.5 136t130.5 345t-130.5 345t-330.5 136t-330.5 -136t-130.5 -345z M598 1229l254 317l41 -33l-266 -305z" />
<glyph d="M143 512q0 227 142 374.5t360 147.5q159 0 281 -81.5t180 -221.5v293h41v-1024h-41v293q-58 -140 -180 -221.5t-281 -81.5q-218 0 -360 147.5t-142 374.5zM184 512q0 -209 130.5 -345t330.5 -136t330.5 136t130.5 345t-130.5 345t-330.5 136t-330.5 -136t-130.5 -345z M354 1192l291 313l291 -313l-25 -25l-266 275l-266 -275z" />
<glyph d="M143 512q0 227 142 374.5t360 147.5q159 0 281 -81.5t180 -221.5v293h41v-1024h-41v293q-58 -140 -180 -221.5t-281 -81.5q-218 0 -360 147.5t-142 374.5zM184 512q0 -209 130.5 -345t330.5 -136t330.5 136t130.5 345t-130.5 345t-330.5 136t-330.5 -136t-130.5 -345z M358 1513l41 33l254 -317l-28 -21z" />
<glyph d="M143 512q0 227 142 374.5t360 147.5q159 0 281 -81.5t180 -221.5v293h41v-1024h-41v293q-58 -140 -180 -221.5t-281 -81.5q-218 0 -360 147.5t-142 374.5zM184 512q0 -209 130.5 -345t330.5 -136t330.5 136t130.5 345t-130.5 345t-330.5 136t-330.5 -136t-130.5 -345z M410 1311q0 26 17.5 43.5t43.5 17.5t43.5 -17.5t17.5 -43.5t-17.5 -44t-43.5 -18t-43.5 18t-17.5 44zM758 1311q0 26 17.5 43.5t43.5 17.5t44 -17.5t18 -43.5t-18 -44t-44 -18t-43.5 18t-17.5 44z" />
<glyph d="M143 512q0 227 142 374.5t360 147.5q159 0 281 -81.5t180 -221.5v293h41v-1024h-41v293q-58 -140 -180 -221.5t-281 -81.5q-218 0 -360 147.5t-142 374.5zM184 512q0 -209 130.5 -345t330.5 -136t330.5 136t130.5 345t-130.5 345t-330.5 136t-330.5 -136t-130.5 -345z M461 1372q0 80 52.5 132t131.5 52t131.5 -52t52.5 -132t-52.5 -132t-131.5 -52t-131.5 52t-52.5 132zM502 1372q0 -63 40 -103t103 -40t103 40t40 103t-40 103.5t-103 40.5t-103 -40.5t-40 -103.5z" />
<glyph d="M143 512q0 227 142 374.5t360 147.5q159 0 281 -81.5t180 -221.5v293h41v-1024h-41v293q-58 -140 -180 -221.5t-281 -81.5q-218 0 -360 147.5t-142 374.5zM184 512q0 -209 130.5 -345t330.5 -136t330.5 136t130.5 345t-130.5 345t-330.5 136t-330.5 -136t-130.5 -345z M375 1198q0 70 42 117t101 47q29 0 57.5 -13.5t51 -32t44.5 -37.5t47 -32.5t50 -13.5q42 0 73 35t31 88h41q0 -70 -41.5 -117t-101.5 -47q-29 0 -57.5 13.5t-51 32t-44.5 37.5t-47 32.5t-50 13.5q-42 0 -73 -35t-31 -88h-41z" />
<glyph horiz-adv-x="952" d="M98 1075q0 160 98 263.5t250 103.5q105 0 188.5 -52.5t125.5 -142.5v187h41v-717h-41v186q-41 -90 -125 -142t-189 -52q-152 0 -250 103t-98 263zM137 1075q0 -141 88.5 -234t223.5 -93t223 93t88 234t-88 234.5t-223 93.5t-223.5 -93.5t-88.5 -234.5z" />
<glyph horiz-adv-x="491" d="M-102 -440q154 0 240.5 78.5t86.5 218.5v1167h41v-1167q0 -161 -96.5 -249.5t-271.5 -88.5v41zM199 1229l254 317l41 -33l-267 -305z" />
<glyph horiz-adv-x="1171" d="M82 1024h45l469 -1018l448 1018h46l-660 -1495h-45l188 428z" />
<glyph horiz-adv-x="1171" d="M82 1024h45l469 -1018l448 1018h46l-660 -1495h-45l188 428zM539 1229l254 317l41 -33l-267 -305z" />
<glyph horiz-adv-x="1171" d="M82 1024h45l469 -1018l448 1018h46l-660 -1495h-45l188 428zM350 1311q0 26 18 43.5t44 17.5t43.5 -17.5t17.5 -43.5t-17.5 -44t-43.5 -18t-44 18t-18 44zM698 1311q0 26 18 43.5t44 17.5t43.5 -17.5t17.5 -43.5t-17.5 -44t-43.5 -18t-44 18t-18 44z" />
<glyph d="M225 410v614h41v-614q0 -178 101.5 -278.5t279.5 -100.5q208 0 333.5 134.5t125.5 346.5v512h41v-983q0 -246 -134 -384t-368 -138q-229 0 -362 139l28 29q124 -127 334 -127q215 0 338 127.5t123 353.5v246q-55 -138 -176 -217.5t-285 -79.5q-196 0 -308 111.5 t-112 308.5z" />
<glyph d="M225 410v614h41v-614q0 -178 101.5 -278.5t279.5 -100.5q208 0 333.5 134.5t125.5 346.5v512h41v-983q0 -246 -134 -384t-368 -138q-229 0 -362 139l28 29q124 -127 334 -127q215 0 338 127.5t123 353.5v246q-55 -138 -176 -217.5t-285 -79.5q-196 0 -308 111.5 t-112 308.5zM639 1229l254 317l41 -33l-266 -305z" />
<glyph d="M225 410v614h41v-614q0 -178 101.5 -278.5t279.5 -100.5q208 0 333.5 134.5t125.5 346.5v512h41v-983q0 -246 -134 -384t-368 -138q-229 0 -362 139l28 29q124 -127 334 -127q215 0 338 127.5t123 353.5v246q-55 -138 -176 -217.5t-285 -79.5q-196 0 -308 111.5 t-112 308.5zM451 1311q0 26 17.5 43.5t43.5 17.5t43.5 -17.5t17.5 -43.5t-17.5 -44t-43.5 -18t-43.5 18t-17.5 44zM799 1311q0 26 17.5 43.5t43.5 17.5t44 -17.5t18 -43.5t-18 -44t-44 -18t-43.5 18t-17.5 44z" />
<glyph horiz-adv-x="1228" d="M113 717q0 208 64 374.5t178.5 259.5t258.5 93t258.5 -93t179 -259.5t64.5 -374.5t-64.5 -374.5t-179 -259.5t-258.5 -93t-258.5 93t-178.5 259.5t-64 374.5zM154 717q0 -196 59 -353t164.5 -245t236.5 -88t236.5 88t165 245t59.5 353t-59.5 353t-165 245t-236.5 88 t-236.5 -88t-164.5 -245t-59 -353z" />
<glyph horiz-adv-x="1228" d="M240 1100l442 334h41v-1393h410v-41h-861v41h410v1341l-418 -315z" />
<glyph horiz-adv-x="1228" d="M156 1243q66 96 178.5 148.5t251.5 52.5q197 0 315.5 -104t118.5 -283q0 -96 -36 -189.5t-97 -172t-136 -152t-157.5 -141t-156 -127t-138.5 -121.5t-98 -113h852v-41h-895v41q32 57 96.5 122.5t138.5 126.5t157 128.5t158 140t136.5 149t98 166.5t36.5 183 q0 163 -106.5 254.5t-286.5 91.5q-130 0 -235 -49.5t-167 -139.5z" />
<glyph horiz-adv-x="1228" d="M160 190l28 29q59 -90 158 -139t223 -49q183 0 301.5 99t118.5 251q0 151 -118.5 248.5t-301.5 97.5h-82v41h82q165 0 272 91t107 235q0 138 -103.5 223.5t-273.5 85.5q-125 0 -224.5 -49.5t-158.5 -139.5l-28 29q63 96 170 148.5t241 52.5q187 0 302.5 -96.5 t115.5 -253.5q0 -123 -72.5 -215t-195.5 -129q141 -37 225 -136t84 -233q0 -170 -130.5 -280.5t-330.5 -110.5q-133 0 -239.5 52t-169.5 148z" />
<glyph horiz-adv-x="1228" d="M82 385v41l821 1008h41v-1008h225v-41h-225v-385h-41v385h-821zM135 426h768v944z" />
<glyph horiz-adv-x="1228" d="M160 201l28 28q57 -94 156 -146t223 -52q184 0 303 109t119 278q0 166 -115.5 273.5t-293.5 107.5h-340v635h700v-41h-659v-553h299q195 0 322.5 -119t127.5 -303q0 -187 -131 -307.5t-332 -120.5q-133 0 -239 55.5t-168 155.5z" />
<glyph horiz-adv-x="1228" d="M201 430q0 147 84 291l420 713h47l-383 -650q119 86 272 86q192 0 316 -124t124 -316t-124 -316t-316 -124t-316 124t-124 316zM242 430q0 -173 113 -286t286 -113t286 113t113 286t-113 286t-286 113t-286 -113t-113 -286z" />
<glyph horiz-adv-x="1228" d="M164 1393v41h883v-41l-603 -1393h-45l602 1393h-837z" />
<glyph horiz-adv-x="1228" d="M133 379q0 133 87.5 232.5t234.5 138.5q-128 35 -204.5 125.5t-76.5 209.5q0 156 124 257.5t316 101.5t316.5 -102t124.5 -257q0 -119 -76.5 -209.5t-204.5 -125.5q147 -39 234.5 -138.5t87.5 -232.5q0 -169 -136.5 -279t-345.5 -110t-345 110t-136 279zM174 379 q0 -151 124 -249.5t316 -98.5t316.5 98.5t124.5 249.5t-124.5 249.5t-316.5 98.5t-316 -98.5t-124 -249.5zM215 1085q0 -137 113 -227t286 -90t286.5 90t113.5 227t-113.5 227.5t-286.5 90.5t-286 -90.5t-113 -227.5z" />
<glyph horiz-adv-x="1228" d="M180 1004q0 192 124.5 316t316.5 124t316 -124t124 -316q0 -152 -84 -291l-440 -713h-48l400 647q-117 -84 -268 -84q-192 0 -316.5 124.5t-124.5 316.5zM221 1004q0 -173 113.5 -286.5t286.5 -113.5t286 113.5t113 286.5t-113 286t-286 113t-286.5 -113t-113.5 -286z " />
<glyph horiz-adv-x="684" d="M76 358q0 158 75.5 261.5t190.5 103.5t190.5 -103.5t75.5 -261.5t-75 -261t-191 -103t-191 103t-75 261zM119 358q0 -140 63 -231.5t160 -91.5t160 91.5t63 231.5q0 141 -63 232.5t-160 91.5t-160 -91.5t-63 -232.5z" />
<glyph horiz-adv-x="481" d="M76 553l217 164h41v-717h-41v666l-193 -146z" />
<glyph horiz-adv-x="591" d="M63 618q73 105 222 105q101 0 161 -53t60 -144q0 -63 -31 -122.5t-81 -108t-101.5 -90t-103.5 -86t-76 -78.5h407v-41h-454v41q20 38 70 84t104 89t106 91t85.5 105.5t33.5 115.5q0 73 -49 114.5t-131 41.5q-127 0 -193 -92z" />
<glyph horiz-adv-x="579" d="M55 98l31 31q59 -94 182 -94q85 0 139 45.5t54 116.5q0 69 -54 113t-137 44h-32v39h34q74 0 122 42t48 106q0 63 -48 102t-126 39q-121 0 -180 -94l-31 30q72 105 213 105q95 0 155 -49.5t60 -128.5q0 -58 -31.5 -103t-86.5 -67q64 -22 100.5 -69t36.5 -111 q0 -88 -66.5 -144.5t-169.5 -56.5q-142 0 -213 104z" />
<glyph horiz-adv-x="673" d="M66 184v41l397 492h43v-492h110v-41h-110v-184h-43v184h-397zM117 225h346v430z" />
<glyph horiz-adv-x="557" d="M49 102l29 29q60 -96 180 -96q84 0 138.5 50.5t54.5 127.5t-53 126.5t-136 49.5h-170v328h352v-41h-313v-248h131q100 0 166 -61t66 -154q0 -95 -67 -157t-171 -62q-66 0 -120.5 28.5t-86.5 79.5z" />
<glyph horiz-adv-x="600" d="M76 221q0 73 45 146l211 350h49l-182 -299q48 26 110 26q95 0 158 -63t63 -160q0 -98 -64.5 -162.5t-162.5 -64.5t-162.5 64.5t-64.5 162.5zM119 219q0 -79 52.5 -131.5t131.5 -52.5t131.5 52.5t52.5 131.5t-52.5 131.5t-131.5 52.5t-131.5 -52.5t-52.5 -131.5z" />
<glyph horiz-adv-x="581" d="M63 678v39h447v-39l-289 -678h-45l289 678h-402z" />
<glyph horiz-adv-x="634" d="M76 193q0 64 38.5 112t104.5 70q-57 22 -90 65.5t-33 100.5q0 80 62 131t159 51t160.5 -52t63.5 -130q0 -56 -33.5 -100t-91.5 -66q66 -22 104.5 -70t38.5 -112q0 -86 -69 -142.5t-173 -56.5t-172.5 56.5t-68.5 142.5zM119 195q0 -69 56 -114.5t142 -45.5q87 0 143 45.5 t56 114.5t-55.5 113t-143.5 44q-86 0 -142 -44t-56 -113zM137 539q0 -62 51 -103t129 -41t129.5 41t51.5 103t-51.5 102.5t-129.5 40.5t-129 -40.5t-51 -102.5z" />
<glyph horiz-adv-x="589" d="M66 498q0 98 64.5 161.5t162.5 63.5t162.5 -63.5t64.5 -161.5q0 -75 -45 -148l-221 -350h-49l188 297q-48 -25 -106 -25q-95 0 -158 64t-63 162zM109 498q0 -80 52.5 -132.5t131.5 -52.5t131.5 52.5t52.5 132.5t-52.5 132t-131.5 52t-131.5 -52t-52.5 -132z" />
<glyph horiz-adv-x="249" d="M57 -147l64 233l43 -12l-74 -230z" />
<glyph horiz-adv-x="249" d="M84 35q0 19 11 30t30 11t30 -11t11 -30q0 -18 -11.5 -29.5t-29.5 -11.5t-29.5 11.5t-11.5 29.5z" />
<glyph horiz-adv-x="342" d="M76 334q0 96 21 181.5t51 138.5t60.5 92.5t51.5 55.5l21 17l26 -22l-10 -8q-10 -8 -27 -26t-37 -43t-40.5 -64t-37.5 -84t-27.5 -107.5t-10.5 -130.5q0 -69 10.5 -131.5t27.5 -108t37.5 -84.5t40.5 -64t37 -43t27 -26l10 -8l-26 -23q-8 6 -22 17.5t-49.5 54.5t-62.5 94.5 t-49 138t-22 183.5z" />
<glyph horiz-adv-x="342" d="M35 -131q8 5 20.5 16t45.5 51t58 89t45.5 132t20.5 177t-19.5 176t-47.5 132t-56 87t-48 53l-19 15l26 22q8 -6 22 -17.5t49.5 -54.5t62.5 -93.5t49 -137t22 -182.5q0 -97 -21 -183t-51 -139t-60.5 -93t-51.5 -57l-21 -16z" />
<glyph horiz-adv-x="409" d="M96 268v39h217v-39h-217z" />
<glyph horiz-adv-x="614" d="M82 289v39h207v204h39v-204h204v-39h-204v-207h-39v207h-207z" />
<glyph horiz-adv-x="614" d="M82 82v39h450v-39h-450zM82 399v39h207v207h39v-207h204v-39h-204v-204h-39v204h-207z" />
<glyph horiz-adv-x="614" d="M82 176v39h450v-39h-450zM82 401v39h450v-39h-450z" />
<glyph horiz-adv-x="684" d="M76 1075q0 158 75.5 261.5t190.5 103.5t190.5 -103.5t75.5 -261.5t-75 -261t-191 -103t-191 103t-75 261zM119 1075q0 -140 63 -231.5t160 -91.5t160 91.5t63 231.5q0 141 -63 232.5t-160 91.5t-160 -91.5t-63 -232.5z" />
<glyph horiz-adv-x="481" d="M76 1270l217 164h41v-717h-41v665l-193 -145z" />
<glyph horiz-adv-x="591" d="M63 1335q73 105 222 105q101 0 161 -53t60 -144q0 -63 -31 -122.5t-81 -108t-101.5 -90t-103.5 -86t-76 -78.5h407v-41h-454v41q20 38 70 84t104 89t106 91t85.5 105.5t33.5 115.5q0 73 -49 114.5t-131 41.5q-127 0 -193 -92z" />
<glyph horiz-adv-x="579" d="M55 815l31 31q59 -94 182 -94q85 0 139 45t54 116q0 69 -54 113.5t-137 44.5h-32v39h34q74 0 122 41.5t48 105.5q0 63 -48 102.5t-126 39.5q-121 0 -180 -94l-31 30q72 105 213 105q95 0 155 -49.5t60 -128.5q0 -58 -31.5 -103t-86.5 -67q64 -22 100.5 -69.5t36.5 -111.5 q0 -88 -66.5 -144t-169.5 -56q-142 0 -213 104z" />
<glyph horiz-adv-x="673" d="M66 901v41l397 492h43v-492h110v-41h-110v-184h-43v184h-397zM117 942h346v430z" />
<glyph horiz-adv-x="557" d="M49 819l29 29q60 -96 180 -96q84 0 138.5 50.5t54.5 127.5t-53 126.5t-136 49.5h-170v328h352v-41h-313v-248h131q100 0 166 -61t66 -154q0 -95 -67 -157t-171 -62q-66 0 -120.5 28.5t-86.5 79.5z" />
<glyph horiz-adv-x="600" d="M76 938q0 72 45 145l211 351h49l-182 -299q48 26 110 26q95 0 158 -63t63 -160q0 -98 -64.5 -162.5t-162.5 -64.5t-162.5 64.5t-64.5 162.5zM119 936q0 -80 52.5 -132t131.5 -52t131.5 52t52.5 132t-52.5 132t-131.5 52t-131.5 -52t-52.5 -132z" />
<glyph horiz-adv-x="581" d="M63 1395v39h447v-39l-289 -678h-45l289 678h-402z" />
<glyph horiz-adv-x="634" d="M76 909q0 64 39 112.5t104 70.5q-58 22 -90.5 65.5t-32.5 99.5q0 80 62 131.5t159 51.5q96 0 160 -52.5t64 -130.5q0 -56 -33.5 -99.5t-91.5 -65.5q65 -22 104 -70.5t39 -112.5q0 -86 -68.5 -142t-173.5 -56q-104 0 -172.5 56t-68.5 142zM119 911q0 -69 56 -114t142 -45 q87 0 143 45t56 114t-55.5 113.5t-143.5 44.5q-86 0 -142 -44.5t-56 -113.5zM137 1255q0 -62 51 -102.5t129 -40.5t129.5 40.5t51.5 102.5t-51.5 103t-129.5 41t-129 -41t-51 -103z" />
<glyph horiz-adv-x="589" d="M66 1214q0 98 64.5 162t162.5 64t162.5 -64t64.5 -162q0 -74 -45 -147l-221 -350h-49l188 297q-48 -25 -106 -25q-96 0 -158.5 63.5t-62.5 161.5zM109 1214q0 -80 52.5 -132t131.5 -52t131.5 52t52.5 132t-52.5 132.5t-131.5 52.5t-131.5 -52.5t-52.5 -132.5z" />
<glyph horiz-adv-x="249" d="M57 569l64 234l43 -12l-74 -230z" />
<glyph horiz-adv-x="249" d="M84 752q0 19 11 30t30 11t30 -11t11 -30q0 -18 -11.5 -29.5t-29.5 -11.5t-29.5 11.5t-11.5 29.5z" />
<glyph horiz-adv-x="342" d="M76 1051q0 96 21 181.5t51 138.5t60.5 92.5t51.5 56.5l21 16l26 -23l-10 -8q-10 -8 -27 -25.5t-37 -42.5t-40.5 -64t-37.5 -84t-27.5 -107.5t-10.5 -130.5q0 -69 10.5 -131.5t27.5 -108t37.5 -84.5t40.5 -64t37 -43t27 -26l10 -8l-26 -23q-8 6 -22 17.5t-49.5 54.5 t-62.5 94.5t-49 138t-22 183.5z" />
<glyph horiz-adv-x="342" d="M35 586q8 5 20.5 16t45.5 51t58 89t45.5 132t20.5 177t-19.5 175.5t-47.5 132t-56 87.5t-48 52l-19 15l26 23q8 -6 22 -17.5t49.5 -54.5t62.5 -93.5t49 -137t22 -182.5q0 -97 -21 -183t-51 -139t-60.5 -93t-51.5 -56l-21 -17z" />
<glyph horiz-adv-x="409" d="M96 985v39h217v-39h-217z" />
<glyph horiz-adv-x="614" d="M82 1006v38h207v205h39v-205h204v-38h-204v-207h-39v207h-207z" />
<glyph horiz-adv-x="614" d="M82 799v39h450v-39h-450zM82 1116v39h207v207h39v-207h204v-39h-204v-205h-39v205h-207z" />
<glyph horiz-adv-x="614" d="M82 893v39h450v-39h-450zM82 1118v39h450v-39h-450z" />
<glyph horiz-adv-x="684" d="M76 154q0 158 75 261t191 103t191 -103t75 -261t-75.5 -261.5t-190.5 -103.5t-190.5 103.5t-75.5 261.5zM119 154q0 -140 63 -232t160 -92t160 92t63 232q0 141 -63 232t-160 91t-160 -91t-63 -232z" />
<glyph horiz-adv-x="481" d="M76 348l217 164h41v-717h-41v666l-193 -146z" />
<glyph horiz-adv-x="591" d="M63 414q72 104 222 104q101 0 161 -52.5t60 -143.5q0 -63 -31 -122.5t-81 -108.5t-101.5 -90.5t-103.5 -86t-76 -78.5h407v-41h-454v41q20 38 70 84.5t104 89.5t106 91t85.5 105.5t33.5 115.5q0 73 -48.5 114t-131.5 41q-127 0 -193 -92z" />
<glyph horiz-adv-x="579" d="M55 -106l31 30q59 -94 182 -94q85 0 139 45.5t54 116.5q0 69 -54 113.5t-137 44.5h-32v38h34q74 0 122 42t48 106q0 63 -48 102t-126 39q-121 0 -180 -94l-31 31q71 104 213 104q95 0 155 -49.5t60 -128.5q0 -58 -31.5 -103t-86.5 -67q64 -22 100.5 -69t36.5 -111 q0 -88 -66.5 -144.5t-169.5 -56.5q-141 0 -213 105z" />
<glyph horiz-adv-x="673" d="M66 -20v40l397 492h43v-492h110v-40h-110v-185h-43v185h-397zM117 20h346v431z" />
<glyph horiz-adv-x="557" d="M49 -102l29 28q60 -96 180 -96q84 0 138.5 50.5t54.5 127.5t-53 126.5t-136 49.5h-170v328h352v-41h-313v-248h131q100 0 166 -61t66 -154q0 -95 -67 -157t-171 -62q-66 0 -120.5 29t-86.5 80z" />
<glyph horiz-adv-x="600" d="M76 16q0 73 45 146l211 350h49l-182 -299q49 27 110 27q95 0 158 -63.5t63 -160.5q0 -98 -64.5 -162.5t-162.5 -64.5t-162.5 64.5t-64.5 162.5zM119 14q0 -80 52.5 -132t131.5 -52t131.5 52t52.5 132t-52.5 132.5t-131.5 52.5t-131.5 -52.5t-52.5 -132.5z" />
<glyph horiz-adv-x="581" d="M63 473v39h447v-39l-289 -678h-45l289 678h-402z" />
<glyph horiz-adv-x="634" d="M76 -12q0 64 38.5 112t104.5 70q-57 22 -90 65.5t-33 100.5q0 80 62 131t159 51t160.5 -52t63.5 -130q0 -56 -33.5 -100t-91.5 -66q66 -22 104.5 -70t38.5 -112q0 -86 -69 -142.5t-173 -56.5t-172.5 56.5t-68.5 142.5zM119 -10q0 -69 56 -114.5t142 -45.5q87 0 143 45.5 t56 114.5t-55.5 113t-143.5 44q-86 0 -142 -44t-56 -113zM137 334q0 -62 51 -103t129 -41t129.5 41t51.5 103t-51.5 102.5t-129.5 40.5t-129 -40.5t-51 -102.5z" />
<glyph horiz-adv-x="589" d="M66 293q0 98 64.5 161.5t162.5 63.5t162.5 -63.5t64.5 -161.5q0 -75 -45 -148l-221 -350h-49l188 297q-47 -24 -106 -24q-96 0 -158.5 63.5t-62.5 161.5zM109 293q0 -79 52.5 -131.5t131.5 -52.5t131.5 52.5t52.5 131.5t-52.5 131.5t-131.5 52.5t-131.5 -52.5 t-52.5 -131.5z" />
<glyph horiz-adv-x="249" d="M57 -352l64 233l43 -12l-74 -229z" />
<glyph horiz-adv-x="249" d="M84 -170q0 19 11 30t30 11t30 -11t11 -30q0 -18 -11.5 -29.5t-29.5 -11.5t-29.5 11.5t-11.5 29.5z" />
<glyph horiz-adv-x="342" d="M76 129q0 96 21 181.5t51 138.5t60.5 92.5t51.5 56.5l21 16l26 -22l-10 -8q-10 -8 -27 -26t-37 -43t-40.5 -64t-37.5 -84t-27.5 -107.5t-10.5 -130.5q0 -69 10.5 -131.5t27.5 -108t37.5 -84.5t40.5 -64t37 -43t27 -26l10 -8l-26 -22q-8 6 -22 17.5t-49.5 54.5t-62.5 94 t-49 137.5t-22 183.5z" />
<glyph horiz-adv-x="342" d="M35 -336q8 5 20.5 16t45.5 51t58 89t45.5 132t20.5 177t-19.5 176t-47.5 132t-56 87t-48 52l-19 16l26 22q8 -6 22 -17.5t49.5 -54.5t62.5 -93.5t49 -137t22 -182.5q0 -97 -21 -182.5t-51 -139t-60.5 -93t-51.5 -56.5l-21 -16z" />
<glyph horiz-adv-x="409" d="M96 63v39h217v-39h-217z" />
<glyph horiz-adv-x="614" d="M82 84v39h207v205h39v-205h204v-39h-204v-207h-39v207h-207z" />
<glyph horiz-adv-x="614" d="M82 -84h450v-39h-450v39zM82 195v38h207v207h39v-207h204v-38h-204v-205h-39v205h-207z" />
<glyph horiz-adv-x="614" d="M82 10h450v-39h-450v39zM82 197v39h450v-39h-450z" />
<glyph horiz-adv-x="684" d="M76 1280q0 158 75.5 261.5t190.5 103.5t190.5 -103.5t75.5 -261.5t-75.5 -261.5t-190.5 -103.5t-190.5 103.5t-75.5 261.5zM119 1280q0 -140 63 -232t160 -92t160 92t63 232q0 141 -63 232.5t-160 91.5t-160 -91.5t-63 -232.5z" />
<glyph horiz-adv-x="481" d="M76 1475l217 163h41v-716h-41v665l-193 -145z" />
<glyph horiz-adv-x="591" d="M63 1540q73 105 222 105q101 0 161 -53t60 -144q0 -63 -31 -122.5t-81 -108t-101.5 -90t-103.5 -86t-76 -78.5h407v-41h-454v41q20 38 70 84t104 89t106 91t85.5 105.5t33.5 115.5q0 73 -49 114.5t-131 41.5q-126 0 -193 -93z" />
<glyph horiz-adv-x="579" d="M55 1020l31 31q60 -95 182 -95q85 0 139 45.5t54 116.5q0 69 -54 113.5t-137 44.5h-32v39h34q74 0 122 41.5t48 105.5q0 63 -48 102.5t-126 39.5q-120 0 -180 -95l-31 31q72 105 213 105q95 0 155 -50t60 -129q0 -58 -31.5 -103t-86.5 -67q64 -22 100.5 -69t36.5 -111 q0 -88 -66.5 -144.5t-169.5 -56.5q-141 0 -213 105z" />
<glyph horiz-adv-x="673" d="M66 1106v41l397 491h43v-491h110v-41h-110v-184h-43v184h-397zM117 1147h346v430z" />
<glyph horiz-adv-x="557" d="M49 1024l29 29q61 -97 180 -97q84 0 138.5 51t54.5 128t-53 126.5t-136 49.5h-170v327h352v-41h-313v-247h131q100 0 166 -61t66 -154q0 -96 -67 -158t-171 -62q-66 0 -120.5 29t-86.5 80z" />
<glyph horiz-adv-x="600" d="M76 1143q0 72 45 145l211 350h49l-182 -299q49 27 110 27q95 0 158 -63t63 -160q0 -98 -64.5 -163t-162.5 -65t-162.5 65t-64.5 163zM119 1141q0 -80 52.5 -132.5t131.5 -52.5t131.5 52.5t52.5 132.5q0 79 -52.5 131.5t-131.5 52.5t-131.5 -52.5t-52.5 -131.5z" />
<glyph horiz-adv-x="581" d="M63 1599v39h447v-39l-289 -677h-45l289 677h-402z" />
<glyph horiz-adv-x="634" d="M76 1114q0 64 38.5 112t104.5 70q-57 22 -90 65.5t-33 100.5q0 80 62 131.5t159 51.5q96 0 160 -52.5t64 -130.5q0 -56 -33.5 -100t-91.5 -66q66 -22 104.5 -70t38.5 -112q0 -86 -69 -142.5t-173 -56.5t-172.5 56.5t-68.5 142.5zM119 1116q0 -69 56 -114.5t142 -45.5 q87 0 143 45.5t56 114.5t-55.5 113.5t-143.5 44.5q-86 0 -142 -44.5t-56 -113.5zM137 1460q0 -62 51 -102.5t129 -40.5t129.5 40.5t51.5 102.5t-51.5 103t-129.5 41t-129 -41t-51 -103z" />
<glyph horiz-adv-x="589" d="M66 1419q0 98 64.5 162t162.5 64t162.5 -64t64.5 -162q0 -74 -45 -147l-221 -350h-49l188 297q-48 -25 -106 -25q-96 0 -158.5 63.5t-62.5 161.5zM109 1419q0 -79 52.5 -131.5t131.5 -52.5t131.5 52.5t52.5 131.5q0 80 -52.5 132.5t-131.5 52.5t-131.5 -52.5 t-52.5 -132.5z" />
<glyph horiz-adv-x="249" d="M57 774l64 234l43 -13l-74 -229z" />
<glyph horiz-adv-x="249" d="M84 956q0 19 11 30t30 11t30 -11t11 -30q0 -18 -11.5 -29.5t-29.5 -11.5t-29.5 11.5t-11.5 29.5z" />
<glyph horiz-adv-x="342" d="M76 1255q0 96 21 181.5t51 139t60.5 93t51.5 55.5l21 17l26 -23l-10 -8q-10 -8 -27 -26t-37 -43t-40.5 -64t-37.5 -84t-27.5 -107.5t-10.5 -130.5q0 -69 10.5 -131.5t27.5 -108t37.5 -84t40.5 -64t37 -43t27 -25.5l10 -8l-26 -23q-8 6 -22 17.5t-49.5 54.5t-62.5 94 t-49 137.5t-22 183.5z" />
<glyph horiz-adv-x="342" d="M35 791q8 5 20.5 15.5t45.5 51t58 89t45.5 131.5t20.5 177t-19.5 176t-47.5 132t-56 87t-48 52l-19 16l26 23q8 -6 22 -17.5t49.5 -54.5t62.5 -94t49 -137.5t22 -182.5q0 -97 -21 -182.5t-51 -139t-60.5 -93t-51.5 -56.5l-21 -16z" />
<glyph horiz-adv-x="409" d="M96 1190v39h217v-39h-217z" />
<glyph horiz-adv-x="614" d="M82 1210v39h207v205h39v-205h204v-39h-204v-206h-39v206h-207z" />
<glyph horiz-adv-x="614" d="M82 1004v38h450v-38h-450zM82 1321v39h207v207h39v-207h204v-39h-204v-205h-39v205h-207z" />
<glyph horiz-adv-x="614" d="M82 1098v39h450v-39h-450zM82 1323v39h450v-39h-450z" />
<glyph horiz-adv-x="1757" d="M123 711q0 211 97.5 378.5t272 261t394.5 93.5q213 0 383.5 -85.5t267 -239t96.5 -347.5q0 -182 -78.5 -303t-193.5 -121q-74 0 -121 54t-53 141q-45 -90 -132 -142.5t-196 -52.5q-160 0 -264 104.5t-104 264.5t104 264t264 104q109 0 196 -51.5t132 -140.5v182h41v-510 q0 -78 36.5 -127t98.5 -49q96 0 162.5 110t66.5 273q0 183 -91.5 327.5t-252.5 224t-362 79.5q-208 0 -373.5 -88.5t-257.5 -246.5t-92 -357q0 -193 86.5 -348.5t240 -243.5t345.5 -88q176 0 319 73l25 -34q-157 -80 -344 -80q-204 0 -367 93t-254.5 258t-91.5 370zM532 717 q0 -143 93 -235.5t235 -92.5t235 92.5t93 235.5q0 142 -92.5 234.5t-235.5 92.5t-235.5 -92.5t-92.5 -234.5z" />
<glyph horiz-adv-x="825" d="M205 717q0 91 58 150t149 59t150 -59t59 -150t-59 -149t-150 -58t-149 58t-58 149z" />
<glyph horiz-adv-x="491" d="M184 1382q0 26 18 44t44 18t43.5 -18t17.5 -44t-17.5 -43.5t-43.5 -17.5t-44 17.5t-18 43.5zM225 0v1016h41v-1016h-41z" />
<glyph horiz-adv-x="1017" d="M154 348q0 72 21.5 126.5t56 89t76.5 64.5t83 62.5t75 72t54.5 104t18.5 149.5h41q2 -90 -18.5 -158.5t-54.5 -110.5t-75 -75.5t-83 -62.5t-76.5 -61.5t-56 -83.5t-21.5 -118q0 -144 91.5 -229.5t250.5 -85.5q118 0 214.5 49t155.5 139l29 -29q-62 -96 -165 -148 t-232 -52q-178 0 -281.5 97t-103.5 261zM492 1382q0 26 17.5 44t43.5 18t43.5 -18t17.5 -44t-17.5 -43.5t-43.5 -17.5t-43.5 17.5t-17.5 43.5z" />
<glyph horiz-adv-x="989" d="M143 717l295 432l39 -8l-272 -424l272 -424l-39 -8zM492 717l294 432l39 -8l-272 -424l272 -424l-39 -8z" />
<glyph horiz-adv-x="989" d="M164 293l272 424l-272 424l39 8l295 -432l-295 -432zM512 293l272 424l-272 424l39 8l295 -432l-295 -432z" />
<glyph horiz-adv-x="641" d="M143 717l295 432l39 -8l-272 -424l272 -424l-39 -8z" />
<glyph horiz-adv-x="641" d="M164 293l272 424l-272 424l39 8l295 -432l-295 -432z" />
<glyph horiz-adv-x="819" d="M205 696v41h409v-41h-409z" />
<glyph horiz-adv-x="1228" d="M205 696v41h819v-41h-819z" />
<glyph horiz-adv-x="2048" d="M205 696v41h1638v-41h-1638z" />
<glyph horiz-adv-x="614" d="M287 -205v1843h41v-1843h-41z" />
<glyph horiz-adv-x="614" d="M287 -205v717h41v-717h-41zM287 922v716h41v-716h-41z" />
<glyph horiz-adv-x="702" d="M0 -190l664 1828l38 -14l-663 -1829z" />
<glyph horiz-adv-x="702" d="M0 1624l39 14l663 -1828l-38 -15z" />
<glyph horiz-adv-x="686" d="M164 717q0 110 14 212.5t37.5 183t54.5 153t65 126.5t67.5 99.5t64.5 76t54.5 51.5t37.5 31l14 9l31 -29q-8 -5 -22.5 -15t-56 -48.5t-79 -84t-83.5 -124t-79.5 -166.5t-56 -213t-22.5 -262q0 -108 13.5 -208t36.5 -178.5t53 -149t63.5 -122.5t66.5 -96t63 -73t53 -49 t36 -29l14 -9l-31 -28q-9 5 -23.5 16t-57 51t-81 87.5t-86 128.5t-81 172t-57 219t-23.5 268z" />
<glyph horiz-adv-x="686" d="M82 -197q8 5 22.5 15t56 48.5t79 84.5t83.5 124.5t79.5 166.5t56 213t22.5 262q0 108 -13.5 208t-36.5 178.5t-53 149t-63 122.5t-66.5 95.5t-63.5 72.5t-53 49t-36 29l-14 9l31 29q9 -5 23.5 -16t57 -51t81 -87.5t86 -128.5t81 -172t57 -219t23.5 -268t-22.5 -267.5 t-58.5 -219.5t-80 -171t-87.5 -130t-79.5 -87t-58 -52l-23 -15z" />
<glyph horiz-adv-x="675" d="M225 -205v1843h348v-41h-307v-1761h307v-41h-348z" />
<glyph horiz-adv-x="675" d="M102 -164h308v1761h-308v41h349v-1843h-349v41z" />
<glyph horiz-adv-x="839" d="M184 696v41q89 0 147 52.5t58 134.5v456q0 112 72.5 185t185.5 73h90v-41h-90q-94 0 -155.5 -61.5t-61.5 -155.5v-456q0 -75 -45.5 -131t-120.5 -76q75 -20 120.5 -76t45.5 -131v-457q0 -94 61.5 -155.5t155.5 -61.5h90v-41h-90q-113 0 -185.5 72.5t-72.5 185.5v457 q0 82 -58 134t-147 52z" />
<glyph horiz-adv-x="839" d="M102 -164h91q94 0 155.5 61.5t61.5 155.5v457q0 75 45 131t120 76q-75 20 -120 76t-45 131v456q0 94 -61.5 155.5t-155.5 61.5h-91v41h91q113 0 185.5 -73t72.5 -185v-456q0 -82 57.5 -134.5t146.5 -52.5v-41q-89 0 -146.5 -52t-57.5 -134v-457q0 -113 -72.5 -185.5 t-185.5 -72.5h-91v41z" />
</font>
</defs>
</svg>
