<?xml version="1.0" standalone="no"?>
<!DOCTYPE svg PUBLIC "-//W3C//DTD SVG 1.1//EN" "http://www.w3.org/Graphics/SVG/1.1/DTD/svg11.dtd" >
<svg xmlns="http://www.w3.org/2000/svg" xmlns:xlink="http://www.w3.org/1999/xlink" version="1.1">
<metadata></metadata>
<defs>
<font id="daikonbold" horiz-adv-x="1228" >
<font-face units-per-em="2048" ascent="1741" descent="-307" />
<missing-glyph horiz-adv-x="544" />
<glyph unicode="&#xfb01;" horiz-adv-x="1300" d="M47 776v248h158v100q0 180 138.5 283.5t377.5 103.5v-264q-109 0 -172.5 -34.5t-63.5 -94.5v-94h236v-248h-236v-776h-280v776h-158zM856 1337q0 83 49.5 133t132.5 50t133 -50t50 -133t-50 -132.5t-133 -49.5t-132.5 49.5t-49.5 132.5zM897 0v1024h283v-1024h-283z" />
<glyph unicode="&#xfb02;" horiz-adv-x="1300" d="M47 776v248h158v100q0 180 138.5 283.5t377.5 103.5v-264q-109 0 -172.5 -34.5t-63.5 -94.5v-94h236v-248h-236v-776h-280v776h-158zM897 0v1495h283v-1495h-283z" />
<glyph unicode="ft" horiz-adv-x="1499" d="M47 776v248h158v100q0 180 138.5 283.5t377.5 103.5v-264q-109 0 -172.5 -34.5t-63.5 -94.5v-94h385v231h281v-231h272v-248h-272v-467q0 -39 32.5 -62.5t92.5 -23.5q83 0 147 23v-242q-82 -29 -188 -29q-162 0 -263.5 90t-101.5 232v479h-385v-776h-280v776h-158z" />
<glyph horiz-adv-x="0" />
<glyph horiz-adv-x="0" />
<glyph unicode="&#xd;" horiz-adv-x="512" />
<glyph unicode=" "  horiz-adv-x="544" />
<glyph unicode="&#x09;" horiz-adv-x="544" />
<glyph unicode="&#xa0;" horiz-adv-x="544" />
<glyph unicode="!" horiz-adv-x="526" d="M82 164q0 83 48.5 132.5t131.5 49.5t132.5 -49.5t49.5 -132.5q0 -82 -49.5 -131t-132.5 -49t-131.5 49t-48.5 131zM104 1434h318l-53 -981h-213z" />
<glyph unicode="&#x22;" horiz-adv-x="786" d="M82 1434h274l-32 -512h-211zM430 1434h275l-31 -512h-213z" />
<glyph unicode="#" horiz-adv-x="1492" d="M47 299l45 248h244l61 340h-245l43 248h245l54 299h247l-53 -299h264l54 299h247l-53 -299h244l-43 -248h-246l-59 -340h245l-45 -248h-243l-54 -299h-247l53 299h-264l-54 -299h-247l53 299h-246zM584 547h264l61 340h-266z" />
<glyph unicode="$" horiz-adv-x="1187" d="M61 190l207 209q145 -135 340 -135q103 0 167.5 40t64.5 102q0 36 -25 64.5t-67.5 48t-97.5 36.5t-116 36.5t-122 42t-116 57.5t-97.5 79t-67.5 111t-25 149q0 172 105.5 281.5t290.5 132.5v252h186v-250q130 -12 233.5 -63t163.5 -134l-204 -207q-47 60 -125 93.5 t-176 33.5q-87 0 -135 -28.5t-48 -85.5q0 -48 40.5 -83.5t105 -60t142 -49t155.5 -59t142.5 -81t105 -125t40.5 -181.5q0 -179 -116.5 -292t-321.5 -136v-250h-184v250q-270 24 -445 202z" />
<glyph unicode="%" horiz-adv-x="1802" d="M94 1077q0 161 103.5 267t261.5 106t261 -105t103 -266q0 -159 -103.5 -262.5t-262.5 -103.5q-157 0 -260 103t-103 261zM328 106l936 1332l186 -129l-936 -1334zM336 1075q0 -60 35 -99.5t90 -39.5q51 0 86 39.5t35 99.5q0 68 -34.5 110t-86.5 42q-56 0 -90.5 -41.5 t-34.5 -110.5zM979 342q0 161 102.5 267t259.5 106q158 0 262.5 -106t104.5 -267q0 -159 -104 -263t-263 -104q-157 0 -259.5 103.5t-102.5 263.5zM1221 338q0 -60 35 -99.5t90 -39.5q51 0 85.5 39.5t34.5 99.5q0 68 -34 111t-86 43q-56 0 -90.5 -42.5t-34.5 -111.5z" />
<glyph unicode="&#x26;" horiz-adv-x="1357" d="M94 432q0 70 19.5 129.5t56.5 105t79 80t97 66.5q-123 170 -123 309q0 142 113.5 235t284.5 93q173 0 286 -94t113 -232q0 -50 -17.5 -96.5t-43 -81t-69 -70.5t-80 -60.5t-91.5 -57.5l225 -221q14 79 14 149h279q0 -211 -70 -373l170 -168l-196 -180l-133 137 q-148 -118 -377 -118q-238 0 -387.5 125t-149.5 323zM387 428q0 -82 63.5 -130t167.5 -48q116 0 193 59l-303 316q-121 -92 -121 -197zM510 1071q0 -56 61 -145q82 41 123 77.5t41 86.5q0 41 -30 67.5t-76 26.5q-53 0 -86 -31t-33 -82z" />
<glyph unicode="'" horiz-adv-x="436" d="M82 1434h274l-32 -512h-211z" />
<glyph unicode="(" horiz-adv-x="712" d="M94 666q0 126 23.5 248.5t61.5 218t84 182t92 148t84 107t61 67.5l24 22l162 -129l-27 -35q-27 -35 -71 -110t-86.5 -172.5t-73.5 -244t-31 -302.5t31 -302.5t73.5 -244t86.5 -173t71 -110.5l27 -35l-162 -129q-9 8 -24.5 23t-60 66.5t-85.5 108t-90.5 146.5t-85 183.5 t-60 217t-24.5 249.5z" />
<glyph unicode=")" horiz-adv-x="712" d="M27 -199l27 35q28 35 72 110.5t86 173t72.5 244t30.5 302.5t-30.5 302.5t-72.5 244t-86 172.5t-72 110l-27 35l161 129q9 -8 24.5 -23t60 -66t85.5 -108t90.5 -146.5t85 -183.5t60 -217t24.5 -249t-23.5 -248.5t-61.5 -218.5t-84 -182.5t-92 -148t-84 -107t-61 -67.5 l-24 -22z" />
<glyph unicode="*" horiz-adv-x="1017" d="M74 1083l78 242l256 -115l-29 285h254l-31 -287l262 117l78 -242l-280 -59l194 -213l-205 -147l-145 249l-139 -247l-207 147l194 213z" />
<glyph unicode="+" d="M164 492v245h328v328h245v-328h328v-245h-328v-328h-245v328h-328z" />
<glyph unicode="," horiz-adv-x="526" d="M31 -252l159 608l267 -73l-219 -594z" />
<glyph unicode="-" horiz-adv-x="819" d="M135 451v245h549v-245h-549z" />
<glyph unicode="." horiz-adv-x="526" d="M82 164q0 83 48.5 132.5t131.5 49.5t132.5 -49.5t49.5 -132.5q0 -82 -49.5 -131t-132.5 -49t-131.5 49t-48.5 131z" />
<glyph unicode="/" horiz-adv-x="921" d="M0 -223l690 1861l232 -84l-691 -1861z" />
<glyph unicode="0" horiz-adv-x="1335" d="M94 717q0 210 74.5 377.5t206 261.5t295.5 94q161 0 291 -93.5t204 -261.5t74 -378t-74 -378t-204 -261.5t-291 -93.5q-164 0 -295.5 94t-206 261.5t-74.5 377.5zM393 717q0 -196 78.5 -324.5t198.5 -128.5q116 0 193 128.5t77 324.5q0 197 -77 324.5t-193 127.5 q-120 0 -198.5 -127.5t-78.5 -324.5z" />
<glyph unicode="1" horiz-adv-x="989" d="M74 1135l395 299h299v-1434h-299v1081l-219 -172z" />
<glyph unicode="2" horiz-adv-x="1083" d="M41 1208q185 242 502 242q219 0 350 -111.5t131 -302.5q0 -84 -27.5 -160t-68 -133t-107 -120.5t-126 -109t-144 -112.5t-141.5 -118h614v-283h-961v283q27 59 90.5 127t137.5 126.5t155 124.5t146.5 124t108 123t42.5 122q0 65 -54.5 102t-141.5 37q-93 0 -164.5 -43.5 t-134.5 -124.5z" />
<glyph unicode="3" horiz-adv-x="1171" d="M53 205l209 207q46 -67 121 -107.5t162 -40.5q98 0 164.5 50.5t66.5 127.5q0 74 -61 121t-156 47h-92v250h111q75 0 123.5 42.5t48.5 107.5q0 71 -57 115t-144 44q-84 0 -151 -43t-111 -120l-209 206q74 109 207 173.5t288 64.5q207 0 341.5 -112t134.5 -291 q0 -95 -42 -175t-118 -135q88 -56 137 -141.5t49 -187.5q0 -121 -67.5 -218t-186.5 -151.5t-266 -54.5q-156 0 -292 60.5t-210 160.5z" />
<glyph unicode="4" horiz-adv-x="1316" d="M74 289v264l663 881h299v-881h191v-264h-191v-289h-299v289h-663zM377 553h360v483z" />
<glyph unicode="5" horiz-adv-x="1095" d="M47 217l207 209q104 -162 268 -162q103 0 168.5 57t65.5 144t-65 143t-165 56h-344v770h742v-293h-484v-211h92q227 0 375 -132.5t148 -336.5q0 -207 -152 -342t-385 -135q-149 0 -269.5 59t-201.5 174z" />
<glyph unicode="6" horiz-adv-x="1212" d="M94 485q0 153 103 320l387 629h327l-288 -465q46 4 71 4q189 0 310.5 -137.5t121.5 -348.5q0 -219 -145.5 -361t-370.5 -142q-221 0 -368.5 142t-147.5 359zM393 481q0 -93 63 -155t154 -62q93 0 155 62t62 155t-62 155t-155 62q-91 0 -154 -62t-63 -155z" />
<glyph unicode="7" horiz-adv-x="1032" d="M41 1169v265h948v-265l-473 -1169h-305l477 1169h-647z" />
<glyph unicode="8" horiz-adv-x="1200" d="M98 410q0 107 53 196.5t148 147.5q-84 54 -130 136.5t-46 180.5q0 166 135 272.5t348 106.5q204 0 338.5 -109t134.5 -276q0 -98 -45.5 -179t-128.5 -134q93 -58 145 -146.5t52 -195.5q0 -186 -140.5 -306t-359.5 -120q-221 0 -362.5 120t-141.5 306zM397 440 q0 -78 57.5 -127t147.5 -49q87 0 144 49.5t57 126.5q0 76 -57 125t-144 49q-89 0 -147 -49t-58 -125zM422 1030q0 -64 51 -104.5t133 -40.5q73 0 123.5 41t50.5 104q0 59 -50.5 99t-123.5 40q-81 0 -132.5 -39.5t-51.5 -99.5z" />
<glyph unicode="9" horiz-adv-x="1198" d="M74 946q0 219 146.5 361.5t369.5 142.5q146 0 264 -64.5t185 -179.5t67 -258q0 -163 -102 -321l-394 -627h-334l293 465q-20 -4 -61 -4q-189 0 -311.5 137t-122.5 348zM373 952q0 -93 63 -155t154 -62q93 0 155 62t62 155t-62 155t-155 62q-91 0 -154 -62t-63 -155z" />
<glyph unicode=":" horiz-adv-x="526" d="M82 164q0 83 48.5 132.5t131.5 49.5t132.5 -49.5t49.5 -132.5q0 -82 -49.5 -131t-132.5 -49t-131.5 49t-48.5 131zM82 860q0 83 48.5 131.5t131.5 48.5t132.5 -48.5t49.5 -131.5t-49.5 -132.5t-132.5 -49.5t-131.5 49.5t-48.5 132.5z" />
<glyph unicode=";" horiz-adv-x="526" d="M-14 -252l161 608l265 -73l-219 -594zM82 860q0 83 48.5 131.5t131.5 48.5t132.5 -48.5t49.5 -131.5t-49.5 -132.5t-132.5 -49.5t-131.5 49.5t-48.5 132.5z" />
<glyph unicode="&#x3c;" d="M164 492v245l901 332v-262l-528 -193l528 -192v-262z" />
<glyph unicode="=" d="M164 266v246h901v-246h-901zM164 717v246h901v-246h-901z" />
<glyph unicode="&#x3e;" d="M164 160v262l528 192l-528 193v262l901 -332v-245z" />
<glyph unicode="?" horiz-adv-x="1099" d="M33 1208q68 116 200.5 179t301.5 63q229 0 367 -112t138 -300q0 -67 -19 -116t-50.5 -78.5t-69.5 -54t-78 -51t-74.5 -59.5t-60 -91t-33.5 -135h-213q-17 94 -9 158.5t35 114.5t63 82t76 61.5t73.5 52t55.5 54t22 68.5q0 63 -56 97.5t-153 34.5q-108 0 -194.5 -41.5 t-131.5 -112.5zM373 164q0 83 49.5 132.5t132.5 49.5t131.5 -49.5t48.5 -132.5q0 -82 -48.5 -131t-131.5 -49t-132.5 49t-49.5 131z" />
<glyph unicode="@" horiz-adv-x="1619" d="M53 506q0 212 97.5 379t274 260.5t400.5 93.5q212 0 381.5 -84t264 -233.5t94.5 -337.5q0 -190 -93.5 -315.5t-236.5 -125.5q-139 0 -223 117q-44 -56 -110 -86.5t-142 -30.5q-146 0 -242 104.5t-96 264.5t96 264.5t242 104.5q99 0 184 -56v39h215v-389 q0 -64 32.5 -105.5t82.5 -41.5q63 0 102 69.5t39 177.5q0 226 -165.5 373.5t-422.5 147.5q-272 0 -447 -165.5t-175 -418.5q0 -165 77 -299t211.5 -209.5t299.5 -75.5q159 0 292 78l25 -141q-157 -80 -344 -80q-204 0 -367 93t-254.5 258t-91.5 370zM674 512q0 -59 33 -97 t84 -38q52 0 85 38t33 97t-33 97t-85 38q-51 0 -84 -38t-33 -97z" />
<glyph unicode="A" horiz-adv-x="1527" d="M47 0l547 1434h340l547 -1434h-303l-111 297h-606l-111 -297h-303zM559 561h410l-205 553z" />
<glyph unicode="B" horiz-adv-x="1421" d="M143 0v1434h666q195 0 321.5 -109.5t126.5 -277.5q0 -92 -41 -170.5t-114 -131.5q98 -48 153.5 -134t55.5 -197q0 -181 -127 -297.5t-322 -116.5h-719zM442 264h420q64 0 107 49t43 121q0 70 -42.5 116t-107.5 46h-420v-332zM442 860h367q64 0 106.5 45.5t42.5 110.5 q0 66 -42.5 109.5t-106.5 43.5h-367v-309z" />
<glyph unicode="C" horiz-adv-x="1382" d="M94 717q0 210 91.5 377.5t254 261.5t365.5 94q156 0 289.5 -57t230.5 -160l-225 -189q-119 125 -295 125q-179 0 -295.5 -127.5t-116.5 -324.5q0 -196 116.5 -324.5t295.5 -128.5q175 0 295 127l227 -188q-99 -105 -232 -162t-290 -57q-203 0 -365.5 94t-254 261.5 t-91.5 377.5z" />
<glyph unicode="D" horiz-adv-x="1460" d="M143 0v1434h512q203 0 366 -93t254 -256.5t91 -367.5t-91 -367.5t-254 -256.5t-366 -93h-512zM442 264h213q179 0 295.5 128.5t116.5 324.5t-116.5 324t-295.5 128h-213v-905z" />
<glyph unicode="E" horiz-adv-x="1300" d="M143 0v1434h1041v-265h-742v-309h660v-264h-660v-332h742v-264h-1041z" />
<glyph unicode="F" horiz-adv-x="1292" d="M143 0v1434h1041v-265h-742v-309h660v-264h-660v-596h-299z" />
<glyph unicode="G" horiz-adv-x="1445" d="M94 717q0 210 92.5 377.5t258 261.5t372.5 94q157 0 294 -57t235 -160l-226 -189q-122 125 -303 125q-185 0 -304.5 -127t-119.5 -325q0 -197 121.5 -325t308.5 -128q140 0 248 78v227h-346v265h633v-631q-100 -104 -237.5 -161.5t-297.5 -57.5q-209 0 -376 94 t-260 261.5t-93 377.5z" />
<glyph unicode="H" horiz-adv-x="1542" d="M143 0v1434h299v-574h658v574h299v-1434h-299v596h-658v-596h-299z" />
<glyph unicode="I" horiz-adv-x="583" d="M143 0v1434h299v-1434h-299z" />
<glyph unicode="J" horiz-adv-x="1220" d="M33 301l258 143q30 -80 100 -130t158 -50q102 0 172 64.5t70 160.5v945h299v-942q0 -220 -152.5 -364t-382.5 -144q-177 0 -321 88t-201 229z" />
<glyph unicode="K" horiz-adv-x="1378" d="M143 0v1434h299v-621l500 621h354l-497 -613l551 -821h-340l-394 594l-174 -215v-379h-299z" />
<glyph unicode="L" horiz-adv-x="1183" d="M143 0v1434h299v-1170h701v-264h-1000z" />
<glyph unicode="M" horiz-adv-x="1771" d="M143 0v1434h312l432 -742l430 742h313v-1434h-299v946l-356 -639h-176l-357 639v-946h-299z" />
<glyph unicode="N" horiz-adv-x="1548" d="M143 0v1434h299l666 -945v945h299v-1434h-299l-666 944v-944h-299z" />
<glyph unicode="O" horiz-adv-x="1609" d="M94 717q0 210 91.5 377.5t254 261.5t365.5 94t365.5 -94t254 -261.5t91.5 -377.5t-91.5 -377.5t-254 -261.5t-365.5 -94t-365.5 94t-254 261.5t-91.5 377.5zM393 717q0 -196 116.5 -324.5t295.5 -128.5q180 0 296 128t116 325q0 198 -116 325t-296 127 q-179 0 -295.5 -127.5t-116.5 -324.5z" />
<glyph unicode="P" horiz-adv-x="1296" d="M143 0v1434h596q210 0 347 -130.5t137 -330.5q0 -201 -136.5 -331t-347.5 -130h-297v-512h-299zM442 776h297q80 0 132.5 56t52.5 141t-52.5 140.5t-132.5 55.5h-297v-393z" />
<glyph unicode="Q" horiz-adv-x="1609" d="M94 717q0 210 91.5 377.5t254 261.5t365.5 94t365.5 -94t254 -261.5t91.5 -377.5q0 -154 -50.5 -287t-142.5 -231l240 -314l-224 -172l-249 326q-128 -55 -285 -55q-203 0 -365.5 94t-254 261.5t-91.5 377.5zM393 717q0 -196 116.5 -324.5t295.5 -128.5q180 0 296 128 t116 325q0 198 -116 325t-296 127q-179 0 -295.5 -127.5t-116.5 -324.5z" />
<glyph unicode="R" horiz-adv-x="1345" d="M143 0v1434h631q204 0 336.5 -126.5t132.5 -322.5q0 -135 -67.5 -240.5t-184.5 -160.5l301 -584h-317l-256 539h-277v-539h-299zM442 803h332q74 0 122 51.5t48 130.5q0 81 -48 132.5t-122 51.5h-332v-366z" />
<glyph unicode="S" horiz-adv-x="1187" d="M61 190l207 209q145 -135 340 -135q103 0 167.5 40t64.5 102q0 36 -25 64.5t-67.5 48t-97.5 36.5t-116 36.5t-122 42t-116 57.5t-97.5 79t-67.5 111t-25 149q0 196 134 308t364 112q158 0 285.5 -52.5t195.5 -148.5l-204 -207q-47 60 -125 93.5t-176 33.5 q-87 0 -135 -28.5t-48 -85.5q0 -48 40.5 -83.5t105 -60t142 -49t155.5 -59t142.5 -81t105 -125t40.5 -181.5q0 -201 -143.5 -316.5t-392.5 -115.5q-328 0 -531 206z" />
<glyph unicode="T" horiz-adv-x="1245" d="M33 1169v265h1177v-265h-438v-1169h-299v1169h-440z" />
<glyph unicode="U" horiz-adv-x="1517" d="M133 532v902h299v-904q0 -116 93 -191t235 -75q141 0 234 75.5t93 190.5v904h299v-902q0 -157 -80.5 -282.5t-223.5 -195.5t-322 -70q-274 0 -450.5 154.5t-176.5 393.5z" />
<glyph unicode="V" horiz-adv-x="1478" d="M33 1434h303l403 -1108l404 1108h303l-537 -1434h-340z" />
<glyph unicode="W" horiz-adv-x="2035" d="M33 1434h295l262 -1006l272 1006h312l270 -1004l264 1004h293l-387 -1434h-320l-276 1022l-277 -1022h-319z" />
<glyph unicode="X" horiz-adv-x="1409" d="M10 0l520 733l-497 701h350l324 -473l319 473h350l-495 -701l520 -733h-350l-344 506l-347 -506h-350z" />
<glyph unicode="Y" horiz-adv-x="1439" d="M47 1434h332l344 -611l338 611h332l-523 -902v-532h-299v537z" />
<glyph unicode="Z" horiz-adv-x="1163" d="M82 0v264l657 905h-637v265h979v-265l-655 -905h655v-264h-999z" />
<glyph unicode="[" horiz-adv-x="792" d="M135 -307v1945h625v-233h-357v-1479h357v-233h-625z" />
<glyph unicode="\" horiz-adv-x="921" d="M0 1554l231 84l691 -1861l-232 -84z" />
<glyph unicode="]" horiz-adv-x="792" d="M33 -74h356v1479h-356v233h624v-1945h-624v233z" />
<glyph unicode="^" d="M156 991l458 459l457 -459l-176 -174l-281 283l-282 -283z" />
<glyph unicode="_" horiz-adv-x="579" d="M0 -109h580v-247h-580v247z" />
<glyph unicode="`" horiz-adv-x="579" d="M74 1745l178 160l254 -344l-115 -105z" />
<glyph unicode="a" horiz-adv-x="1126" d="M78 285q0 157 116.5 244t327.5 87h199v50q0 60 -51.5 92.5t-145.5 32.5q-147 0 -235 -91l-185 164q141 176 433 176q221 0 344 -94.5t123 -263.5v-682h-283v51q-115 -67 -279 -67q-171 0 -267.5 79.5t-96.5 221.5zM360 319q0 -51 46 -82.5t124 -31.5q86 0 138.5 36.5 t52.5 94.5v90h-211q-68 0 -109 -29t-41 -78z" />
<glyph unicode="b" horiz-adv-x="1214" d="M123 0v1495h280v-547q119 92 273 92q200 0 331.5 -149t131.5 -379t-131.5 -379t-331.5 -149q-154 0 -273 92v-76h-280zM403 516q0 -117 64.5 -192.5t163.5 -75.5q98 0 162.5 75.5t64.5 192.5q0 114 -64 187t-163 73t-163.5 -73t-64.5 -187z" />
<glyph unicode="c" horiz-adv-x="1009" d="M74 512q0 231 145.5 379.5t372.5 148.5q235 0 379 -141l-199 -199q-66 76 -180 76q-104 0 -170 -73t-66 -187q0 -117 66 -192.5t170 -75.5q114 0 180 76l199 -199q-138 -141 -379 -141q-227 0 -372.5 148.5t-145.5 379.5z" />
<glyph unicode="d" horiz-adv-x="1214" d="M74 512q0 230 132 379t333 149q153 0 272 -92v547h281v-1495h-281v76q-119 -92 -272 -92q-201 0 -333 149t-132 379zM356 516q0 -117 64 -192.5t164 -75.5q98 0 162.5 75.5t64.5 192.5q0 114 -64 187t-163 73q-100 0 -164 -73t-64 -187z" />
<glyph unicode="e" horiz-adv-x="1136" d="M74 522q0 226 139 372t356 146q219 0 361.5 -146.5t142.5 -373.5q0 -42 -10 -100h-709q12 -82 88.5 -134.5t182.5 -52.5q70 0 131.5 25t103.5 68l172 -162q-64 -86 -171.5 -133t-237.5 -47q-239 0 -394 151.5t-155 386.5zM356 612h437q-17 86 -75 132.5t-145 46.5 q-85 0 -142.5 -46.5t-74.5 -132.5z" />
<glyph unicode="f" horiz-adv-x="774" d="M47 776v248h158v100q0 180 138.5 283.5t377.5 103.5v-264q-109 0 -172.5 -34.5t-63.5 -94.5v-94h236v-248h-236v-776h-280v776h-158z" />
<glyph unicode="g" horiz-adv-x="1214" d="M74 512q0 230 132 379t333 149q153 0 272 -92v76h281v-983q0 -241 -150.5 -384.5t-400.5 -143.5q-134 0 -244 44.5t-176 125.5l182 182q26 -40 84.5 -64t130.5 -24q131 0 212 73t81 195v31q-119 -92 -272 -92q-201 0 -333 149t-132 379zM356 510q0 -114 64 -188t164 -74 q98 0 162.5 74t64.5 188q0 115 -64.5 190.5t-162.5 75.5q-100 0 -164 -75t-64 -191z" />
<glyph unicode="h" horiz-adv-x="1214" d="M123 0v1495h280v-537q118 82 279 82q179 0 294.5 -100.5t115.5 -255.5v-684h-281v645q0 57 -51.5 94t-130.5 37q-98 0 -162 -58t-64 -149v-569h-280z" />
<glyph unicode="i" horiz-adv-x="526" d="M82 1337q0 84 48.5 133.5t131.5 49.5t132.5 -50t49.5 -133t-49.5 -132.5t-132.5 -49.5t-131.5 49.5t-48.5 132.5zM123 0v1024h280v-1024h-280z" />
<glyph unicode="j" horiz-adv-x="526" d="M-113 -223q112 0 174 49t62 137v1061h280v-1065q0 -211 -136.5 -328.5t-379.5 -117.5v264zM82 1337q0 84 48.5 133.5t131.5 49.5t132.5 -50t49.5 -133t-49.5 -132.5t-132.5 -49.5t-131.5 49.5t-48.5 132.5z" />
<glyph unicode="k" horiz-adv-x="1136" d="M123 0v1495h280v-836l310 365h346l-385 -420l436 -604h-317l-289 418l-101 -111v-307h-280z" />
<glyph unicode="l" horiz-adv-x="526" d="M123 0v1495h280v-1495h-280z" />
<glyph unicode="m" horiz-adv-x="1744" d="M123 0v1024h280v-53q101 69 238 69q88 0 162.5 -31t124.5 -87q124 118 309 118q168 0 277.5 -98.5t109.5 -251.5v-690h-283v651q0 55 -39.5 90t-101.5 35q-80 0 -133 -58.5t-53 -148.5v-569h-283v651q0 55 -40 90t-103 35q-83 0 -134 -58t-51 -149v-569h-280z" />
<glyph unicode="n" horiz-adv-x="1214" d="M123 0v1024h280v-66q118 82 279 82q179 0 294.5 -100.5t115.5 -255.5v-684h-281v645q0 57 -50.5 94t-131.5 37q-98 0 -162 -58t-64 -149v-569h-280z" />
<glyph unicode="o" horiz-adv-x="1167" d="M74 512q0 230 144 379t366 149q220 0 364 -149t144 -379t-144 -379t-364 -149q-222 0 -366 149t-144 379zM356 516q0 -117 64 -192.5t164 -75.5q98 0 162.5 75.5t64.5 192.5q0 114 -64 187t-163 73q-100 0 -164 -73t-64 -187z" />
<glyph unicode="p" horiz-adv-x="1214" d="M123 -471v1495h280v-76q119 92 273 92q200 0 331.5 -149t131.5 -379t-131.5 -379t-331.5 -149q-154 0 -273 92v-547h-280zM403 508q0 -112 65 -186t163 -74t162.5 73.5t64.5 186.5q0 117 -64.5 192.5t-162.5 75.5q-99 0 -163.5 -75.5t-64.5 -192.5z" />
<glyph unicode="q" horiz-adv-x="1214" d="M74 512q0 230 132 379t333 149q153 0 272 -92v76h281v-1495h-281v547q-119 -92 -272 -92q-216 0 -340.5 142t-124.5 386zM356 508q0 -122 60.5 -191t167.5 -69q98 0 162.5 73.5t64.5 186.5q0 117 -64.5 192.5t-162.5 75.5q-100 0 -164 -75.5t-64 -192.5z" />
<glyph unicode="r" horiz-adv-x="776" d="M123 0v1024h280v-78q133 94 320 94v-264q-148 0 -234 -56t-86 -151v-569h-280z" />
<glyph unicode="s" horiz-adv-x="995" d="M68 145l180 181q47 -46 117.5 -74.5t144.5 -28.5q66 0 110 20t44 48q0 20 -24.5 35t-64 25t-90.5 23.5t-104 28.5t-104 42t-90.5 61.5t-64 90t-24.5 124.5q0 150 104 234.5t290 84.5q260 0 415 -161l-180 -181q-35 46 -96.5 74.5t-132.5 28.5q-58 0 -97 -19t-39 -47 q0 -20 24.5 -36t64 -27t90.5 -25.5t104 -30t104 -42.5t90.5 -61t64 -88.5t24.5 -121.5q0 -149 -112 -234t-306 -85q-134 0 -249 42t-193 119z" />
<glyph unicode="t" horiz-adv-x="833" d="M47 776v248h158v231h280v-231h273v-248h-273v-467q0 -39 32.5 -62.5t92.5 -23.5q84 0 148 23v-242q-82 -29 -189 -29q-162 0 -263 90t-101 232v479h-158z" />
<glyph unicode="u" horiz-adv-x="1214" d="M123 340v684h280v-645q0 -61 47.5 -96t127.5 -35q104 0 168.5 58t64.5 149v569h281v-1024h-281v70q-125 -86 -299 -86q-181 0 -285 94.5t-104 261.5z" />
<glyph unicode="v" horiz-adv-x="1110" d="M20 1024h279l256 -674l256 674h279l-396 -1024h-278z" />
<glyph unicode="w" horiz-adv-x="1564" d="M20 1024h271l178 -614l184 614h256l187 -614l178 614h270l-313 -1024h-264l-185 612l-184 -612h-264z" />
<glyph unicode="x" horiz-adv-x="1146" d="M27 0l385 518l-375 506h325l211 -303l211 303h326l-373 -506l383 -518h-325l-222 317l-221 -317h-325z" />
<glyph unicode="y" horiz-adv-x="1101" d="M20 1024h279l274 -737l238 737h272l-417 -1249q-40 -122 -135 -192t-220 -70q-101 0 -164 26v248q78 -29 152 -29q46 0 81.5 21.5t47.5 56.5l25 80z" />
<glyph unicode="z" horiz-adv-x="954" d="M53 0v248l490 528h-475v248h823v-248l-490 -528h500v-248h-848z" />
<glyph unicode="{" horiz-adv-x="911" d="M82 543v245q109 0 178.5 52.5t69.5 134.5v325q0 147 103.5 242.5t262.5 95.5h183v-247h-181q-37 0 -61.5 -24.5t-24.5 -61.5v-330q0 -100 -59.5 -180.5t-163.5 -128.5q104 -48 163.5 -129t59.5 -181v-329q0 -37 24.5 -61.5t61.5 -24.5h181v-248h-183q-159 0 -262.5 95.5 t-103.5 242.5v325q0 82 -69.5 134.5t-178.5 52.5z" />
<glyph unicode="|" horiz-adv-x="626" d="M190 -307v1945h248v-1945h-248z" />
<glyph unicode="}" horiz-adv-x="911" d="M33 -59h180q37 0 61.5 24.5t24.5 61.5v329q0 100 59.5 181t163.5 129q-104 48 -163.5 128.5t-59.5 180.5v330q0 37 -24.5 61.5t-61.5 24.5h-180v247h184q158 0 261.5 -96t103.5 -242v-325q0 -82 69 -134.5t178 -52.5v-245q-109 0 -178 -52.5t-69 -134.5v-325 q0 -146 -103.5 -242t-261.5 -96h-184v248z" />
<glyph unicode="~" d="M102 434q0 179 94.5 297.5t231.5 118.5q62 0 124.5 -29t102 -63t79 -63t63.5 -29q34 0 58 47.5t24 117.5h247q0 -178 -94 -295.5t-231 -117.5q-62 0 -124 29t-101 63t-78.5 63t-63.5 29q-35 0 -59.5 -48t-24.5 -120h-248z" />
<glyph unicode="&#xa1;" horiz-adv-x="526" d="M82 860q0 83 48.5 131.5t131.5 48.5t132.5 -48.5t49.5 -131.5t-49.5 -132.5t-132.5 -49.5t-131.5 49.5t-48.5 132.5zM104 -410l52 981h213l53 -981h-318z" />
<glyph unicode="&#xa2;" horiz-adv-x="1017" d="M74 717q0 179 106 307.5t281 167.5v258h184v-248q199 -15 326 -139l-199 -199q-66 76 -180 76q-104 0 -170 -61.5t-66 -157.5q0 -99 66 -163t170 -64q115 0 180 75l199 -198q-128 -128 -326 -140v-247h-184v258q-175 39 -281 167.5t-106 307.5z" />
<glyph unicode="&#xa3;" horiz-adv-x="1110" d="M92 553v192h125q-4 6 -17 28t-18 31t-16.5 30.5t-16.5 34.5t-13 36t-11.5 42.5t-6.5 45t-3 51.5q0 177 128 291.5t328 114.5q279 0 467 -242l-207 -207q-64 82 -126.5 125t-139.5 43q-74 0 -121 -40t-47 -107q0 -46 18 -89.5t51 -98.5t48 -89h295v-192h-264 q-10 -137 -101 -268h600l-2 -285h-942v285q138 138 160 268h-168z" />
<glyph unicode="&#xa4;" d="M143 399l144 148q-27 73 -27 172q0 102 29 170l-146 143l154 154l145 -144q79 27 170 27q98 0 174 -29l150 146l154 -154l-150 -145q27 -76 27 -168q0 -89 -27 -172l150 -148l-154 -153l-150 147q-73 -28 -174 -28q-96 0 -172 28l-143 -147zM463 717q0 -68 42.5 -113 t106.5 -45q67 0 110.5 45t43.5 113t-43.5 111.5t-110.5 43.5q-65 0 -107 -44t-42 -111z" />
<glyph unicode="&#xa5;" horiz-adv-x="1439" d="M47 1434h332l344 -607l338 607h332l-447 -770h264v-193h-340v-104h340v-191h-340v-176h-299v176h-340v191h340v104h-340v193h267z" />
<glyph unicode="&#xa6;" horiz-adv-x="626" d="M190 -307v768h248v-768h-248zM190 870v768h248v-768h-248z" />
<glyph unicode="&#xa7;" horiz-adv-x="1187" d="M61 653q0 146 89 244q-44 77 -44 176q0 181 132.5 279t363.5 98q160 0 287.5 -52.5t195.5 -148.5l-204 -207q-47 60 -125 93.5t-176 33.5q-86 0 -134.5 -27t-48.5 -79q0 -62 109 -109q40 -24 110.5 -50.5t135 -47t135.5 -56t122.5 -76.5t85 -108.5t33.5 -152.5 q0 -143 -86 -242q39 -73 39 -170q0 -181 -131.5 -278t-363.5 -97q-159 0 -286 52.5t-196 148.5l203 207q47 -60 125.5 -93.5t177.5 -33.5q85 0 133 26.5t48 77.5q0 52 -43.5 83.5t-120.5 58.5q-31 11 -86.5 28t-95 29t-93 33.5t-91 42.5t-78 53t-65.5 68.5t-41 86.5t-16 109 zM350 631q0 -37 26.5 -64t76.5 -46.5t102.5 -34.5t124.5 -36.5t123 -43.5q37 37 37 79q0 37 -26.5 64.5t-76 47.5t-101.5 35t-124 36.5t-123 42.5q-39 -33 -39 -80z" />
<glyph unicode="&#xa8;" horiz-adv-x="870" d="M74 1606q0 68 41 108.5t108 40.5t107.5 -40.5t40.5 -108.5t-40.5 -108t-107.5 -40q-68 0 -108.5 40.5t-40.5 107.5zM500 1606q0 68 40 108.5t107 40.5q68 0 109 -41t41 -108t-41 -107.5t-109 -40.5q-67 0 -107 40t-40 108z" />
<glyph unicode="&#xa9;" horiz-adv-x="1658" d="M94 717q0 200 98.5 368.5t267.5 266.5t369 98q198 0 367 -98t268 -267t99 -368t-99 -368t-268 -267t-367 -98q-200 0 -369 98t-267.5 266.5t-98.5 368.5zM287 717q0 -148 72 -273t197 -197.5t273 -72.5t273 72.5t197.5 197.5t72.5 273t-72.5 273t-197.5 197.5t-273 72.5 t-273 -72.5t-197 -197.5t-72 -273zM498 717q0 160 101.5 264t256.5 104q162 0 262 -108l-141 -119q-49 49 -121 49t-120 -53.5t-48 -136.5t48 -136t120 -53t121 52l143 -121q-105 -111 -264 -111q-155 0 -256.5 104.5t-101.5 264.5z" />
<glyph unicode="&#xaa;" horiz-adv-x="778" d="M47 911q0 110 84 171t234 61h120v35q0 37 -33.5 59.5t-91.5 22.5q-94 0 -157 -60l-137 115q101 131 307 131q154 0 240.5 -67t86.5 -187v-475h-215v37q-81 -49 -190 -49q-117 0 -182.5 54t-65.5 152zM264 942q0 -33 29.5 -55.5t77.5 -22.5q51 0 82.5 24t31.5 64v62h-129 q-41 0 -66.5 -20t-25.5 -52z" />
<glyph unicode="&#xab;" horiz-adv-x="1187" d="M74 575l403 433l148 -119l-215 -314l215 -315l-148 -117zM543 575l401 433l150 -119l-215 -314l215 -315l-150 -117z" />
<glyph unicode="&#xac;" d="M164 545v248h901v-527h-229v279h-672z" />
<glyph unicode="&#xad;" horiz-adv-x="819" d="M135 451v245h549v-245h-549z" />
<glyph unicode="&#xae;" horiz-adv-x="1658" d="M94 717q0 200 98.5 368.5t267.5 266.5t369 98q198 0 367 -98t268 -267t99 -368t-99 -368t-268 -267t-367 -98q-200 0 -369 98t-267.5 266.5t-98.5 368.5zM287 717q0 -148 72 -273t197 -197.5t273 -72.5t273 72.5t197.5 197.5t72.5 273t-72.5 273t-197.5 197.5t-273 72.5 t-273 -72.5t-197 -197.5t-72 -273zM555 358v717h319q109 0 180.5 -65.5t71.5 -167.5q0 -64 -29 -116t-81 -83l139 -285h-201l-104 248h-105v-248h-190zM745 774h129q27 0 44.5 19t17.5 49q0 29 -17.5 47t-44.5 18h-129v-133z" />
<glyph unicode="&#xaf;" horiz-adv-x="729" d="M74 1495v184h581v-184h-581z" />
<glyph unicode="&#xb0;" horiz-adv-x="829" d="M41 1141q0 161 105 265.5t268 104.5t268.5 -104t105.5 -264q0 -161 -106.5 -265t-269.5 -104q-161 0 -266 103.5t-105 263.5zM266 1139q0 -68 42.5 -112t109.5 -44q62 0 103.5 44.5t41.5 111.5q0 73 -41.5 118.5t-103.5 45.5q-68 0 -110 -45.5t-42 -118.5z" />
<glyph unicode="&#xb1;" d="M164 109v247h901v-247h-901zM164 758v246h328v327h245v-327h328v-246h-328v-328h-245v328h-328z" />
<glyph unicode="&#xb2;" horiz-adv-x="524" d="M4 1522q103 127 262 127q115 0 182.5 -56.5t67.5 -154.5q0 -38 -10.5 -71.5t-24 -56.5t-44.5 -52.5t-53 -47t-69.5 -53t-74.5 -57.5h270v-178h-492v178q18 41 72.5 91.5t107.5 88.5t95.5 81t42.5 73q0 17 -18.5 26.5t-47.5 9.5q-41 0 -71 -20.5t-62 -60.5z" />
<glyph unicode="&#xb3;" horiz-adv-x="587" d="M16 1022l134 133q21 -27 59 -45t72 -18t57.5 16.5t23.5 42.5q0 24 -19.5 40.5t-47.5 16.5h-49v154h59q20 0 32.5 14.5t12.5 36.5q0 26 -18 41.5t-43 15.5q-33 0 -67 -20.5t-58 -52.5l-131 131q40 53 114.5 87t153.5 34q103 0 170.5 -58t67.5 -151q0 -94 -70 -154 q82 -63 82 -158q0 -93 -75.5 -155t-188.5 -62q-76 0 -152.5 32t-118.5 79z" />
<glyph unicode="&#xb4;" horiz-adv-x="579" d="M74 1561l254 344l178 -160l-318 -289z" />
<glyph unicode="&#xb5;" horiz-adv-x="1214" d="M123 -471v1495h280v-645q0 -61 47.5 -96t127.5 -35q104 0 168.5 58t64.5 149v569h281v-1024h-281v70q-125 -86 -299 -86q-65 0 -109 10v-465h-280z" />
<glyph unicode="&#xb6;" horiz-adv-x="1468" d="M94 1143q0 215 139 355t353 140h248v-1945h-248v952q-214 0 -353 140.5t-139 357.5zM1030 -307v1945h248v-1945h-248z" />
<glyph unicode="&#xb7;" horiz-adv-x="526" d="M82 717q0 83 48.5 132.5t131.5 49.5t132.5 -49.5t49.5 -132.5t-49.5 -132.5t-132.5 -49.5t-131.5 49.5t-48.5 132.5z" />
<glyph unicode="&#xb8;" horiz-adv-x="638" d="M74 -391l45 123q8 -7 22.5 -17.5t56 -28.5t78.5 -18q44 0 73.5 20.5t29.5 53.5q0 22 -16.5 39t-39.5 26t-46 14.5t-39 6.5l-17 2l43 170h178l-18 -74q6 -1 15 -3.5t33 -15t42.5 -30.5t33.5 -53t15 -80q0 -101 -66.5 -160t-179.5 -59q-67 0 -127.5 21t-87.5 42z" />
<glyph unicode="&#xb9;" horiz-adv-x="501" d="M27 1495l188 143h191v-716h-191v491l-78 -61z" />
<glyph unicode="&#xba;" horiz-adv-x="806" d="M47 1075q0 161 100.5 266t253.5 105q157 0 258 -105t101 -266t-101 -265.5t-258 -104.5q-153 0 -253.5 104.5t-100.5 265.5zM262 1077q0 -73 39.5 -121.5t99.5 -48.5q63 0 103.5 48t40.5 122q0 72 -40.5 119t-103.5 47q-60 0 -99.5 -47t-39.5 -119z" />
<glyph unicode="&#xbb;" horiz-adv-x="1187" d="M94 260l217 315l-217 314l150 119l401 -433l-401 -432zM563 260l217 315l-217 314l150 119l401 -433l-401 -432z" />
<glyph unicode="&#xbc;" horiz-adv-x="1333" d="M27 1290l188 144h191v-717h-191v491l-78 -61zM78 86l946 1339l147 -104l-946 -1339zM707 131v168l307 418h190v-418h90v-168h-90v-131h-190v131h-307zM893 299h121v166z" />
<glyph unicode="&#xbd;" horiz-adv-x="1269" d="M27 1290l188 144h191v-717h-191v491l-78 -61zM78 86l946 1339l147 -104l-946 -1339zM752 600q103 127 262 127q115 0 182.5 -56.5t67.5 -154.5q0 -38 -10.5 -71.5t-24.5 -56.5t-45 -52.5t-53 -47t-69 -53t-75 -57.5h270v-178h-491v178q15 34 53.5 73t82 72.5t85 66.5 t69 65t27.5 57q0 17 -19 27t-46 10q-41 0 -71 -21t-62 -61z" />
<glyph unicode="&#xbe;" horiz-adv-x="1413" d="M16 817l134 133q21 -27 59 -45t72 -18t57.5 16.5t23.5 42.5q0 25 -19.5 41.5t-47.5 16.5h-49v153h59q20 0 32.5 14.5t12.5 36.5q0 26 -18 42t-43 16q-33 0 -67 -21t-58 -53l-131 131q40 53 114.5 87t153.5 34q103 0 170.5 -58t67.5 -151q0 -94 -70 -154q82 -63 82 -157 q0 -93 -75.5 -155t-188.5 -62q-76 0 -152.5 31.5t-118.5 78.5zM166 86l946 1339l145 -104l-946 -1339zM786 131v168l308 418h190v-418h90v-168h-90v-131h-190v131h-308zM973 299h121v166z" />
<glyph unicode="&#xbf;" horiz-adv-x="1073" d="M41 0q0 67 19 116t50 79t69.5 54t78 50.5t74 60t60.5 91.5t34 135h213q16 -94 8 -158.5t-35 -114.5t-63 -82.5t-76 -61.5t-73.5 -52t-55.5 -54.5t-22 -68.5q0 -62 56 -96.5t154 -34.5q108 0 194.5 40.5t129.5 112.5l191 -186q-69 -117 -201 -180.5t-301 -63.5 q-229 0 -366.5 112.5t-137.5 301.5zM344 872q0 83 49.5 133t132.5 50t133 -50t50 -133t-49.5 -131.5t-133.5 -48.5q-83 0 -132.5 48.5t-49.5 131.5z" />
<glyph unicode="&#xc0;" horiz-adv-x="1527" d="M47 0l547 1434h340l547 -1434h-303l-111 297h-606l-111 -297h-303zM424 1819l178 159l254 -342l-115 -106zM559 561h410l-205 553z" />
<glyph unicode="&#xc1;" horiz-adv-x="1527" d="M47 0l547 1434h340l547 -1434h-303l-111 297h-606l-111 -297h-303zM559 561h410l-205 553zM647 1636l254 342l178 -159l-317 -289z" />
<glyph unicode="&#xc2;" horiz-adv-x="1527" d="M47 0l547 1434h340l547 -1434h-303l-111 297h-606l-111 -297h-303zM449 1618l315 328l313 -330l-108 -107l-205 162l-207 -162zM559 561h410l-205 553z" />
<glyph unicode="&#xc3;" horiz-adv-x="1527" d="M47 0l547 1434h340l547 -1434h-303l-111 297h-606l-111 -297h-303zM414 1540q0 117 61.5 193.5t153.5 76.5q50 0 100 -26t87 -52t56 -26q23 0 39.5 26.5t16.5 65.5h184q0 -118 -62 -194t-155 -76q-51 0 -99.5 26t-85 52t-55.5 26q-24 0 -40.5 -26t-16.5 -66h-184z M559 561h410l-205 553z" />
<glyph unicode="&#xc4;" horiz-adv-x="1527" d="M47 0l547 1434h340l547 -1434h-303l-111 297h-606l-111 -297h-303zM403 1681q0 68 40.5 108t109.5 40q66 0 106.5 -40.5t40.5 -107.5t-40.5 -108t-106.5 -41q-69 0 -109.5 40.5t-40.5 108.5zM559 561h410l-205 553zM827 1681q0 67 41 107.5t109 40.5q67 0 107 -40 t40 -108t-40 -108.5t-107 -40.5q-68 0 -109 41t-41 108z" />
<glyph unicode="&#xc5;" horiz-adv-x="1527" d="M47 0l547 1434h340l547 -1434h-303l-111 297h-606l-111 -297h-303zM518 1712q0 103 69.5 171.5t176.5 68.5q106 0 176 -68.5t70 -171.5q0 -104 -70 -173t-176 -69q-107 0 -176.5 68.5t-69.5 173.5zM559 561h410l-205 553zM684 1712q0 -37 22.5 -61.5t57.5 -24.5 q34 0 56 24.5t22 61.5q0 36 -22 60t-56 24q-35 0 -57.5 -23.5t-22.5 -60.5z" />
<glyph unicode="&#xc6;" horiz-adv-x="2017" d="M47 0l715 1434h1139v-265h-666v-309h584v-264h-584v-332h666v-264h-965v315h-420l-154 -315h-315zM639 567h297v604z" />
<glyph unicode="&#xc7;" horiz-adv-x="1382" d="M94 717q0 210 91.5 377.5t254 261.5t365.5 94q156 0 289.5 -57t230.5 -160l-225 -189q-119 125 -295 125q-179 0 -295.5 -127.5t-116.5 -324.5q0 -196 116.5 -324.5t295.5 -128.5q175 0 295 127l227 -188q-168 -180 -426 -215l-14 -62q6 -1 15 -3.5t32.5 -15t41.5 -30.5 t33 -53t15 -80q0 -101 -66.5 -160t-179.5 -59q-67 0 -127.5 21t-88.5 42l-27 21l45 123q8 -7 22.5 -17.5t56 -28.5t78.5 -18q44 0 73.5 20.5t29.5 53.5q0 22 -16 39t-39 26t-46 14.5t-39 6.5l-16 2l39 158q-183 19 -326 117t-223 257.5t-80 354.5z" />
<glyph unicode="&#xc8;" horiz-adv-x="1300" d="M143 0v1434h1041v-265h-742v-309h660v-264h-660v-332h742v-264h-1041zM326 1819l176 159l254 -342l-115 -106z" />
<glyph unicode="&#xc9;" horiz-adv-x="1300" d="M143 0v1434h1041v-265h-742v-309h660v-264h-660v-332h742v-264h-1041zM549 1636l254 342l178 -159l-317 -289z" />
<glyph unicode="&#xca;" horiz-adv-x="1300" d="M143 0v1434h1041v-265h-742v-309h660v-264h-660v-332h742v-264h-1041zM348 1618l316 328l315 -330l-111 -107l-204 162l-205 -162z" />
<glyph unicode="&#xcb;" horiz-adv-x="1300" d="M143 0v1434h1041v-265h-742v-309h660v-264h-660v-332h742v-264h-1041zM305 1681q0 67 40.5 107.5t107.5 40.5t107 -40t40 -108t-40 -108.5t-107 -40.5t-107.5 40.5t-40.5 108.5zM729 1681q0 67 40.5 107.5t107.5 40.5q68 0 108.5 -40.5t40.5 -107.5t-41 -108t-108 -41 t-107.5 40.5t-40.5 108.5z" />
<glyph unicode="&#xcc;" horiz-adv-x="583" d="M-47 1819l178 159l254 -342l-115 -106zM143 0v1434h299v-1434h-299z" />
<glyph unicode="&#xcd;" horiz-adv-x="583" d="M143 0v1434h299v-1434h-299zM176 1636l254 342l178 -159l-317 -289z" />
<glyph unicode="&#xce;" horiz-adv-x="583" d="M-23 1618l316 328l313 -330l-108 -107l-205 162l-207 -162zM143 0v1434h299v-1434h-299z" />
<glyph unicode="&#xcf;" horiz-adv-x="583" d="M-68 1681q0 68 40.5 108t109.5 40q66 0 106.5 -40.5t40.5 -107.5t-40.5 -108t-106.5 -41q-69 0 -109.5 40.5t-40.5 108.5zM143 0v1434h299v-1434h-299zM356 1681q0 67 41 107.5t109 40.5q67 0 107 -40t40 -108t-40 -108.5t-107 -40.5q-68 0 -109 41t-41 108z" />
<glyph unicode="&#xd0;" horiz-adv-x="1460" d="M39 614v205h104v615h512q203 0 366 -93t254 -256.5t91 -367.5t-91 -367.5t-254 -256.5t-366 -93h-512v614h-104zM442 264h213q179 0 295.5 128.5t116.5 324.5t-116.5 324t-295.5 128h-213v-350h279v-205h-279v-350z" />
<glyph unicode="&#xd1;" horiz-adv-x="1548" d="M143 0v1434h299l666 -945v945h299v-1434h-299l-666 944v-944h-299zM426 1540q0 118 61 194t152 76q39 0 79.5 -16t67.5 -36t55 -36t44 -16q22 0 38.5 26.5t16.5 65.5h184q0 -117 -62.5 -193.5t-154.5 -76.5q-40 0 -80 16t-65.5 36t-51.5 36t-42 16q-25 0 -42.5 -26 t-17.5 -66h-182z" />
<glyph unicode="&#xd2;" horiz-adv-x="1609" d="M94 717q0 210 91.5 377.5t254 261.5t365.5 94t365.5 -94t254 -261.5t91.5 -377.5t-91.5 -377.5t-254 -261.5t-365.5 -94t-365.5 94t-254 261.5t-91.5 377.5zM393 717q0 -196 116.5 -324.5t295.5 -128.5q180 0 296 128t116 325q0 198 -116 325t-296 127 q-179 0 -295.5 -127.5t-116.5 -324.5zM465 1819l178 159l254 -342l-115 -106z" />
<glyph unicode="&#xd3;" horiz-adv-x="1609" d="M94 717q0 210 91.5 377.5t254 261.5t365.5 94t365.5 -94t254 -261.5t91.5 -377.5t-91.5 -377.5t-254 -261.5t-365.5 -94t-365.5 94t-254 261.5t-91.5 377.5zM393 717q0 -196 116.5 -324.5t295.5 -128.5q180 0 296 128t116 325q0 198 -116 325t-296 127 q-179 0 -295.5 -127.5t-116.5 -324.5zM690 1636l254 342l176 -159l-315 -289z" />
<glyph unicode="&#xd4;" horiz-adv-x="1609" d="M94 717q0 210 91.5 377.5t254 261.5t365.5 94t365.5 -94t254 -261.5t91.5 -377.5t-91.5 -377.5t-254 -261.5t-365.5 -94t-365.5 94t-254 261.5t-91.5 377.5zM393 717q0 -196 116.5 -324.5t295.5 -128.5q180 0 296 128t116 325q0 198 -116 325t-296 127 q-179 0 -295.5 -127.5t-116.5 -324.5zM489 1618l316 328l315 -330l-110 -107l-205 162l-205 -162z" />
<glyph unicode="&#xd5;" horiz-adv-x="1609" d="M94 717q0 210 91.5 377.5t254 261.5t365.5 94t365.5 -94t254 -261.5t91.5 -377.5t-91.5 -377.5t-254 -261.5t-365.5 -94t-365.5 94t-254 261.5t-91.5 377.5zM393 717q0 -196 116.5 -324.5t295.5 -128.5q180 0 296 128t116 325q0 198 -116 325t-296 127 q-179 0 -295.5 -127.5t-116.5 -324.5zM457 1540q0 118 61 194t152 76q50 0 100 -26t87 -52t56 -26q24 0 41 26.5t17 65.5h184q0 -117 -62.5 -193.5t-154.5 -76.5q-40 0 -80 16t-65.5 36t-52 36t-42.5 16q-25 0 -42 -25.5t-17 -66.5h-182z" />
<glyph unicode="&#xd6;" horiz-adv-x="1609" d="M94 717q0 210 91.5 377.5t254 261.5t365.5 94t365.5 -94t254 -261.5t91.5 -377.5t-91.5 -377.5t-254 -261.5t-365.5 -94t-365.5 94t-254 261.5t-91.5 377.5zM393 717q0 -196 116.5 -324.5t295.5 -128.5q180 0 296 128t116 325q0 198 -116 325t-296 127 q-179 0 -295.5 -127.5t-116.5 -324.5zM444 1681q0 67 41 107.5t109 40.5q67 0 107 -40t40 -108t-40 -108.5t-107 -40.5q-68 0 -109 41t-41 108zM870 1681q0 67 40 107.5t108 40.5q67 0 107 -40t40 -108t-40 -108.5t-107 -40.5t-107.5 40.5t-40.5 108.5z" />
<glyph unicode="&#xd7;" d="M156 330l282 282l-282 281l176 176l280 -283l281 283l176 -176l-281 -281l283 -282l-176 -176l-283 282l-280 -282z" />
<glyph unicode="&#xd8;" horiz-adv-x="1609" d="M94 717q0 210 91.5 377.5t254 261.5t365.5 94q200 0 362 -92l97 137h174l-154 -221q109 -100 170.5 -244t61.5 -313q0 -210 -91.5 -377.5t-254 -261.5t-365.5 -94q-199 0 -361 92l-96 -137h-174l154 221q-111 100 -172.5 243.5t-61.5 313.5zM393 717q0 -184 107 -314 l501 717q-90 49 -196 49q-179 0 -295.5 -127.5t-116.5 -324.5zM610 313q90 -49 195 -49q180 0 296 128t116 325q0 187 -105 311z" />
<glyph unicode="&#xd9;" horiz-adv-x="1517" d="M133 532v902h299v-904q0 -116 93 -191t235 -75q141 0 234 75.5t93 190.5v904h299v-902q0 -157 -80.5 -282.5t-223.5 -195.5t-322 -70q-274 0 -450.5 154.5t-176.5 393.5zM420 1819l178 159l254 -342l-115 -106z" />
<glyph unicode="&#xda;" horiz-adv-x="1517" d="M133 532v902h299v-904q0 -116 93 -191t235 -75q141 0 234 75.5t93 190.5v904h299v-902q0 -157 -80.5 -282.5t-223.5 -195.5t-322 -70q-274 0 -450.5 154.5t-176.5 393.5zM645 1636l254 342l178 -159l-317 -289z" />
<glyph unicode="&#xdb;" horiz-adv-x="1517" d="M133 532v902h299v-904q0 -116 93 -191t235 -75q141 0 234 75.5t93 190.5v904h299v-902q0 -157 -80.5 -282.5t-223.5 -195.5t-322 -70q-274 0 -450.5 154.5t-176.5 393.5zM444 1618l316 328l315 -330l-110 -107l-205 162l-205 -162z" />
<glyph unicode="&#xdc;" horiz-adv-x="1517" d="M133 532v902h299v-904q0 -116 93 -191t235 -75q141 0 234 75.5t93 190.5v904h299v-902q0 -157 -80.5 -282.5t-223.5 -195.5t-322 -70q-274 0 -450.5 154.5t-176.5 393.5zM399 1681q0 67 41 107.5t109 40.5q67 0 107 -40t40 -108t-40 -108.5t-107 -40.5q-68 0 -109 41 t-41 108zM825 1681q0 67 40.5 107.5t107.5 40.5t107 -40t40 -108t-40 -108.5t-107 -40.5t-107.5 40.5t-40.5 108.5z" />
<glyph unicode="&#xdd;" horiz-adv-x="1439" d="M47 1434h332l344 -611l338 611h332l-523 -902v-532h-299v537zM604 1636l254 342l178 -159l-317 -289z" />
<glyph unicode="&#xde;" horiz-adv-x="1296" d="M143 0v1434h299v-256h297q210 0 347 -130.5t137 -330.5t-137 -330.5t-347 -130.5h-297v-256h-299zM442 520h297q80 0 132.5 56t52.5 141q0 86 -52.5 141t-132.5 55h-297v-393z" />
<glyph unicode="&#xdf;" horiz-adv-x="1245" d="M123 0v1081q0 188 136 309t349 121q206 0 340.5 -114t134.5 -295q0 -105 -46 -193.5t-130 -144.5q119 -46 187.5 -139.5t68.5 -214.5q0 -176 -134.5 -293t-342.5 -117h-102v248h129q73 0 121.5 54.5t48.5 133.5t-48 129.5t-122 50.5h-129v248h61q67 0 112.5 53.5 t45.5 131.5q0 87 -57.5 142.5t-147.5 55.5q-85 0 -140 -48.5t-55 -123.5v-1075h-280z" />
<glyph unicode="&#xe0;" horiz-adv-x="1126" d="M78 285q0 157 116.5 244t327.5 87h199v50q0 60 -51.5 92.5t-145.5 32.5q-147 0 -235 -91l-185 164q141 176 433 176q221 0 344 -94.5t123 -263.5v-682h-283v51q-115 -67 -279 -67q-171 0 -267.5 79.5t-96.5 221.5zM201 1409l178 160l254 -342l-115 -107zM360 319 q0 -51 46 -82.5t124 -31.5q86 0 138.5 36.5t52.5 94.5v90h-211q-68 0 -109 -29t-41 -78z" />
<glyph unicode="&#xe1;" horiz-adv-x="1126" d="M78 285q0 157 116.5 244t327.5 87h199v50q0 60 -51.5 92.5t-145.5 32.5q-147 0 -235 -91l-185 164q141 176 433 176q221 0 344 -94.5t123 -263.5v-682h-283v51q-115 -67 -279 -67q-171 0 -267.5 79.5t-96.5 221.5zM360 319q0 -51 46 -82.5t124 -31.5q86 0 138.5 36.5 t52.5 94.5v90h-211q-68 0 -109 -29t-41 -78zM426 1227l254 342l176 -160l-315 -289z" />
<glyph unicode="&#xe2;" horiz-adv-x="1126" d="M78 285q0 157 116.5 244t327.5 87h199v50q0 60 -51.5 92.5t-145.5 32.5q-147 0 -235 -91l-185 164q141 176 433 176q221 0 344 -94.5t123 -263.5v-682h-283v51q-115 -67 -279 -67q-171 0 -267.5 79.5t-96.5 221.5zM225 1208l316 328l315 -330l-111 -106l-204 162 l-205 -162zM360 319q0 -51 46 -82.5t124 -31.5q86 0 138.5 36.5t52.5 94.5v90h-211q-68 0 -109 -29t-41 -78z" />
<glyph unicode="&#xe3;" horiz-adv-x="1126" d="M78 285q0 157 116.5 244t327.5 87h199v50q0 60 -51.5 92.5t-145.5 32.5q-147 0 -235 -91l-185 164q141 176 433 176q221 0 344 -94.5t123 -263.5v-682h-283v51q-115 -67 -279 -67q-171 0 -267.5 79.5t-96.5 221.5zM193 1130q0 118 61 194.5t152 76.5q50 0 100 -26.5 t87 -52.5t56 -26q24 0 41 27t17 66h182q0 -118 -61.5 -194.5t-153.5 -76.5q-40 0 -80 16.5t-65.5 36t-52 36t-42.5 16.5q-25 0 -42 -26t-17 -67h-182zM360 319q0 -51 46 -82.5t124 -31.5q86 0 138.5 36.5t52.5 94.5v90h-211q-68 0 -109 -29t-41 -78z" />
<glyph unicode="&#xe4;" horiz-adv-x="1126" d="M78 285q0 157 116.5 244t327.5 87h199v50q0 60 -51.5 92.5t-145.5 32.5q-147 0 -235 -91l-185 164q141 176 433 176q221 0 344 -94.5t123 -263.5v-682h-283v51q-115 -67 -279 -67q-171 0 -267.5 79.5t-96.5 221.5zM180 1272q0 67 41 107t109 40t107.5 -39.5t39.5 -107.5 t-40 -109t-107 -41q-68 0 -109 41t-41 109zM360 319q0 -51 46 -82.5t124 -31.5q86 0 138.5 36.5t52.5 94.5v90h-211q-68 0 -109 -29t-41 -78zM604 1272q0 67 41 107t109 40t107.5 -39.5t39.5 -107.5t-40 -109t-107 -41q-68 0 -109 41t-41 109z" />
<glyph unicode="&#xe5;" horiz-adv-x="1126" d="M78 285q0 157 116.5 244t327.5 87h199v50q0 60 -51.5 92.5t-145.5 32.5q-147 0 -235 -91l-185 164q141 176 433 176q221 0 344 -94.5t123 -263.5v-682h-283v51q-115 -67 -279 -67q-171 0 -267.5 79.5t-96.5 221.5zM295 1364q0 103 70 171.5t176 68.5t175.5 -68.5 t69.5 -171.5q0 -104 -69.5 -173t-175.5 -69t-176 69t-70 173zM360 319q0 -51 46 -82.5t124 -31.5q86 0 138.5 36.5t52.5 94.5v90h-211q-68 0 -109 -29t-41 -78zM461 1364q0 -37 23 -61.5t57 -24.5q35 0 57.5 24.5t22.5 61.5q0 35 -23 59.5t-57 24.5t-57 -24t-23 -60z" />
<glyph unicode="&#xe6;" horiz-adv-x="1783" d="M84 285q0 157 117.5 244t326.5 87h201v50q0 60 -52 92.5t-145 32.5q-146 0 -237 -91l-184 164q135 176 407 176q269 0 381 -149q62 71 150.5 110t191.5 39q206 0 342.5 -147t136.5 -373q0 -42 -10 -100h-711q13 -82 90 -134.5t183 -52.5q70 0 131.5 25t103.5 68l172 -162 q-61 -86 -164 -133t-225 -47q-133 0 -243.5 56t-180.5 155q-48 -97 -159 -154t-258 -57q-171 0 -268 79.5t-97 221.5zM367 319q0 -51 47 -82.5t123 -31.5q86 0 139 37t53 94v90h-213q-68 0 -108.5 -29t-40.5 -78zM1001 612h439q-17 86 -74.5 132.5t-144.5 46.5 q-85 0 -143 -46.5t-77 -132.5z" />
<glyph unicode="&#xe7;" horiz-adv-x="1009" d="M74 512q0 231 145.5 379.5t372.5 148.5q235 0 379 -141l-199 -199q-66 76 -180 76q-104 0 -170 -73t-66 -187q0 -117 66 -192.5t170 -75.5q114 0 180 76l199 -199q-108 -111 -277 -135l-14 -64q6 -1 15 -3.5t33 -15t42.5 -30.5t33.5 -53t15 -80q0 -101 -67.5 -160 t-180.5 -59q-67 0 -127 21t-87 42l-27 21l43 123q8 -7 22.5 -17.5t56 -28.5t78.5 -18q44 0 73.5 20.5t29.5 53.5q0 22 -16 39t-39 26t-46 14.5t-39 6.5l-16 2l39 158q-197 26 -319.5 170t-122.5 354z" />
<glyph unicode="&#xe8;" horiz-adv-x="1136" d="M74 522q0 226 139 372t356 146q219 0 361.5 -146.5t142.5 -373.5q0 -42 -10 -100h-709q12 -82 88.5 -134.5t182.5 -52.5q70 0 131.5 25t103.5 68l172 -162q-64 -86 -171.5 -133t-237.5 -47q-239 0 -394 151.5t-155 386.5zM236 1409l176 160l254 -342l-115 -107zM356 612 h437q-17 86 -75 132.5t-145 46.5q-85 0 -142.5 -46.5t-74.5 -132.5z" />
<glyph unicode="&#xe9;" horiz-adv-x="1136" d="M74 522q0 226 139 372t356 146q219 0 361.5 -146.5t142.5 -373.5q0 -42 -10 -100h-709q12 -82 88.5 -134.5t182.5 -52.5q70 0 131.5 25t103.5 68l172 -162q-64 -86 -171.5 -133t-237.5 -47q-239 0 -394 151.5t-155 386.5zM356 612h437q-17 86 -75 132.5t-145 46.5 q-85 0 -142.5 -46.5t-74.5 -132.5zM459 1227l254 342l178 -160l-318 -289z" />
<glyph unicode="&#xea;" horiz-adv-x="1136" d="M74 522q0 226 139 372t356 146q219 0 361.5 -146.5t142.5 -373.5q0 -42 -10 -100h-709q12 -82 88.5 -134.5t182.5 -52.5q70 0 131.5 25t103.5 68l172 -162q-64 -86 -171.5 -133t-237.5 -47q-239 0 -394 151.5t-155 386.5zM258 1208l315 328l316 -330l-111 -106l-205 162 l-204 -162zM356 612h437q-17 86 -75 132.5t-145 46.5q-85 0 -142.5 -46.5t-74.5 -132.5z" />
<glyph unicode="&#xeb;" horiz-adv-x="1136" d="M74 522q0 226 139 372t356 146q219 0 361.5 -146.5t142.5 -373.5q0 -42 -10 -100h-709q12 -82 88.5 -134.5t182.5 -52.5q70 0 131.5 25t103.5 68l172 -162q-64 -86 -171.5 -133t-237.5 -47q-239 0 -394 151.5t-155 386.5zM215 1272q0 68 39.5 107.5t107.5 39.5t108 -40 t40 -107q0 -68 -40.5 -109t-107.5 -41t-107 41t-40 109zM356 612h437q-17 86 -75 132.5t-145 46.5q-85 0 -142.5 -46.5t-74.5 -132.5zM639 1272q0 68 39.5 107.5t107.5 39.5t109 -40t41 -107q0 -68 -41 -109t-109 -41q-67 0 -107 41t-40 109z" />
<glyph unicode="&#xec;" horiz-adv-x="526" d="M-76 1409l176 160l254 -342l-114 -107zM123 0v1024h280v-1024h-280z" />
<glyph unicode="&#xed;" horiz-adv-x="526" d="M123 0v1024h280v-1024h-280zM147 1227l254 342l179 -160l-318 -289z" />
<glyph unicode="&#xee;" horiz-adv-x="526" d="M-53 1208l315 328l316 -330l-111 -106l-205 162l-205 -162zM123 0v1024h280v-1024h-280z" />
<glyph unicode="&#xef;" horiz-adv-x="526" d="M-98 1272q0 67 40.5 107t108.5 40t108 -40t40 -107q0 -68 -40.5 -109t-107.5 -41t-108 41t-41 109zM123 0v1024h280v-1024h-280zM328 1272q0 68 40 107.5t107 39.5q68 0 109 -40t41 -107q0 -68 -41.5 -109t-108.5 -41t-107 41t-40 109z" />
<glyph unicode="&#xf0;" horiz-adv-x="1212" d="M94 487q0 211 122.5 348.5t311.5 137.5q51 0 90 -8l-92 147l-200 -96l-62 119l193 90l-131 209h313l57 -95l154 74l61 -119l-145 -69l260 -420q47 -76 73.5 -161t26.5 -159q0 -217 -147 -359t-369 -142q-223 0 -369.5 142t-146.5 361zM377 483q0 -102 67.5 -168.5 t167.5 -66.5q99 0 166.5 66.5t67.5 168.5q0 99 -67.5 166.5t-166.5 67.5q-100 0 -167.5 -67t-67.5 -167z" />
<glyph unicode="&#xf1;" horiz-adv-x="1214" d="M123 0v1024h280v-66q118 82 279 82q179 0 294.5 -100.5t115.5 -255.5v-684h-281v645q0 57 -50.5 94t-131.5 37q-98 0 -162 -58t-64 -149v-569h-280zM258 1130q0 118 61 194.5t152 76.5q50 0 100.5 -26.5t88.5 -52.5t57 -26q22 0 38.5 27t16.5 66h184q0 -118 -62 -194.5 t-155 -76.5q-40 0 -80 16.5t-65.5 36t-51.5 36t-42 16.5q-25 0 -42.5 -26t-17.5 -67h-182z" />
<glyph unicode="&#xf2;" horiz-adv-x="1167" d="M74 512q0 230 144 379t366 149q220 0 364 -149t144 -379t-144 -379t-364 -149q-222 0 -366 149t-144 379zM244 1409l178 160l254 -342l-115 -107zM356 516q0 -117 64 -192.5t164 -75.5q98 0 162.5 75.5t64.5 192.5q0 114 -64 187t-163 73q-100 0 -164 -73t-64 -187z" />
<glyph unicode="&#xf3;" horiz-adv-x="1167" d="M74 512q0 230 144 379t366 149q220 0 364 -149t144 -379t-144 -379t-364 -149q-222 0 -366 149t-144 379zM356 516q0 -117 64 -192.5t164 -75.5q98 0 162.5 75.5t64.5 192.5q0 114 -64 187t-163 73q-100 0 -164 -73t-64 -187zM467 1227l254 342l178 -160l-317 -289z" />
<glyph unicode="&#xf4;" horiz-adv-x="1167" d="M74 512q0 230 144 379t366 149q220 0 364 -149t144 -379t-144 -379t-364 -149q-222 0 -366 149t-144 379zM268 1208l316 328l313 -330l-109 -106l-204 162l-207 -162zM356 516q0 -117 64 -192.5t164 -75.5q98 0 162.5 75.5t64.5 192.5q0 114 -64 187t-163 73 q-100 0 -164 -73t-64 -187z" />
<glyph unicode="&#xf5;" horiz-adv-x="1167" d="M74 512q0 230 144 379t366 149q220 0 364 -149t144 -379t-144 -379t-364 -149q-222 0 -366 149t-144 379zM233 1130q0 117 62 194t154 77q50 0 99.5 -26.5t87 -52.5t56.5 -26q23 0 39.5 27t16.5 66h184q0 -118 -62 -194.5t-155 -76.5q-40 0 -79.5 16.5t-65.5 36t-52.5 36 t-42.5 16.5q-24 0 -40.5 -26.5t-16.5 -66.5h-185zM356 516q0 -117 64 -192.5t164 -75.5q98 0 162.5 75.5t64.5 192.5q0 114 -64 187t-163 73q-100 0 -164 -73t-64 -187z" />
<glyph unicode="&#xf6;" horiz-adv-x="1167" d="M74 512q0 230 144 379t366 149q220 0 364 -149t144 -379t-144 -379t-364 -149q-222 0 -366 149t-144 379zM223 1272q0 68 40.5 107.5t109.5 39.5q66 0 106.5 -40t40.5 -107t-40.5 -108.5t-106.5 -41.5q-69 0 -109.5 41t-40.5 109zM356 516q0 -117 64 -192.5t164 -75.5 q98 0 162.5 75.5t64.5 192.5q0 114 -64 187t-163 73q-100 0 -164 -73t-64 -187zM647 1272q0 67 41 107t109 40q67 0 107 -39.5t40 -107.5t-40 -109t-107 -41t-108.5 41t-41.5 109z" />
<glyph unicode="&#xf7;" d="M164 492v245h901v-245h-901zM432 211q0 83 49.5 132.5t132.5 49.5t133 -49.5t50 -132.5t-49.5 -131.5t-133.5 -48.5q-83 0 -132.5 48.5t-49.5 131.5zM432 1018q0 83 49.5 131.5t132.5 48.5q84 0 133.5 -48.5t49.5 -131.5t-50 -132.5t-133 -49.5t-132.5 49.5t-49.5 132.5z " />
<glyph unicode="&#xf8;" horiz-adv-x="1167" d="M74 512q0 230 144 379t366 149q121 0 217 -45l51 90h125l-84 -145q94 -72 146.5 -183t52.5 -245q0 -230 -144 -379t-364 -149q-126 0 -217 45l-54 -90h-125l84 145q-94 72 -146 182.5t-52 245.5zM356 516q0 -108 58 -186l250 432q-35 14 -80 14q-100 0 -164 -73t-64 -187 zM502 264q40 -16 82 -16q98 0 162.5 75.5t64.5 192.5q0 105 -59 180z" />
<glyph unicode="&#xf9;" horiz-adv-x="1214" d="M123 340v684h280v-645q0 -61 47.5 -96t127.5 -35q104 0 168.5 58t64.5 149v569h281v-1024h-281v70q-125 -86 -299 -86q-181 0 -285 94.5t-104 261.5zM268 1409l176 160l254 -342l-114 -107z" />
<glyph unicode="&#xfa;" horiz-adv-x="1214" d="M123 340v684h280v-645q0 -61 47.5 -96t127.5 -35q104 0 168.5 58t64.5 149v569h281v-1024h-281v70q-125 -86 -299 -86q-181 0 -285 94.5t-104 261.5zM492 1227l253 342l179 -160l-318 -289z" />
<glyph unicode="&#xfb;" horiz-adv-x="1214" d="M123 340v684h280v-645q0 -61 47.5 -96t127.5 -35q104 0 168.5 58t64.5 149v569h281v-1024h-281v70q-125 -86 -299 -86q-181 0 -285 94.5t-104 261.5zM291 1208l315 328l316 -330l-111 -106l-205 162l-205 -162z" />
<glyph unicode="&#xfc;" horiz-adv-x="1214" d="M123 340v684h280v-645q0 -61 47.5 -96t127.5 -35q104 0 168.5 58t64.5 149v569h281v-1024h-281v70q-125 -86 -299 -86q-181 0 -285 94.5t-104 261.5zM248 1272q0 68 40 107.5t107 39.5q68 0 108 -40t40 -107q0 -68 -40.5 -109t-107.5 -41t-107 41t-40 109zM672 1272 q0 68 40 107.5t107 39.5q68 0 109 -40t41 -107q0 -68 -41.5 -109t-108.5 -41t-107 41t-40 109z" />
<glyph unicode="&#xfd;" horiz-adv-x="1101" d="M20 1024h279l274 -737l238 737h272l-417 -1249q-40 -122 -135 -192t-220 -70q-101 0 -164 26v248q78 -29 152 -29q46 0 81.5 21.5t47.5 56.5l25 80zM436 1227l254 342l178 -160l-317 -289z" />
<glyph unicode="&#xfe;" horiz-adv-x="1214" d="M123 -471v1966h280v-547q119 92 273 92q200 0 331.5 -149t131.5 -379t-131.5 -379t-331.5 -149q-154 0 -273 92v-547h-280zM403 508q0 -112 65 -186t163 -74t162.5 73.5t64.5 186.5q0 117 -64.5 192.5t-162.5 75.5q-99 0 -163.5 -75.5t-64.5 -192.5z" />
<glyph unicode="&#xff;" horiz-adv-x="1101" d="M20 1024h279l274 -737l238 737h272l-417 -1249q-40 -122 -135 -192t-220 -70q-101 0 -164 26v248q78 -29 152 -29q46 0 81.5 21.5t47.5 56.5l25 80zM190 1272q0 67 41 107t109 40t107.5 -39.5t39.5 -107.5t-40 -109t-107 -41q-68 0 -109 41t-41 109zM616 1272 q0 67 40 107t108 40t107.5 -39.5t39.5 -107.5t-40 -109t-107 -41t-107.5 41t-40.5 109z" />
<glyph unicode="&#x13f;" horiz-adv-x="1183" d="M143 0v1434h299v-1170h701v-264h-1000zM688 717q0 83 49.5 132.5t132.5 49.5t133 -49.5t50 -132.5t-50 -132.5t-133 -49.5t-132.5 49.5t-49.5 132.5z" />
<glyph unicode="&#x140;" horiz-adv-x="944" d="M123 0v1495h280v-1495h-280zM553 717q0 83 49.5 132.5t132.5 49.5t133 -49.5t50 -132.5t-50 -132.5t-133 -49.5t-132.5 49.5t-49.5 132.5z" />
<glyph unicode="&#x152;" horiz-adv-x="2373" d="M94 717q0 210 88 377.5t245 261.5t353 94q146 0 271 -53.5t217 -151.5v189h991v-265h-743v-309h661v-264h-661v-332h743v-264h-991v188q-92 -98 -217 -151t-271 -53q-196 0 -353 94t-245 261.5t-88 377.5zM393 717q0 -196 116.5 -324.5t295.5 -128.5q180 0 296 128 t116 325q0 198 -116 325t-296 127q-179 0 -295.5 -127.5t-116.5 -324.5z" />
<glyph unicode="&#x153;" horiz-adv-x="1859" d="M74 512q0 230 139 379t352 149q115 0 211.5 -45.5t163.5 -128.5q65 83 160 128.5t209 45.5q210 0 347.5 -146.5t137.5 -373.5q0 -53 -8 -100h-711q12 -81 89 -134t182 -53q145 0 235 93l172 -162q-61 -86 -164.5 -133t-228.5 -47q-128 0 -234.5 48.5t-177.5 137.5 q-67 -89 -165.5 -137.5t-217.5 -48.5q-213 0 -352 149t-139 379zM356 516q0 -117 64 -192.5t164 -75.5q98 0 162.5 75.5t64.5 192.5q0 114 -64 187t-163 73q-100 0 -164 -73t-64 -187zM1077 612h439q-19 86 -77 132.5t-143 46.5q-86 0 -144 -47t-75 -132z" />
<glyph unicode="&#x178;" horiz-adv-x="1439" d="M47 1434h332l344 -611l338 611h332l-523 -902v-532h-299v537zM360 1681q0 67 40 107.5t108 40.5t108.5 -40.5t40.5 -107.5t-40.5 -108t-108.5 -41q-67 0 -107.5 40.5t-40.5 108.5zM784 1681q0 67 40 107.5t108 40.5t108.5 -40.5t40.5 -107.5t-40.5 -108t-108.5 -41 q-67 0 -107.5 40.5t-40.5 108.5z" />
<glyph unicode="&#x2c6;" horiz-adv-x="780" d="M74 1542l317 328l314 -328l-109 -106l-205 161l-207 -161z" />
<glyph unicode="&#x2dc;" horiz-adv-x="847" d="M74 1466q0 116 62 192.5t153 76.5q39 0 79.5 -16t67 -35.5t53.5 -35.5t43 -16q24 0 41 26t17 66h182q0 -118 -62 -194t-155 -76q-40 0 -79.5 16.5t-65.5 36t-52.5 36t-42.5 16.5q-24 0 -40.5 -27t-16.5 -66h-184z" />
<glyph unicode="&#x2000;" horiz-adv-x="989" />
<glyph unicode="&#x2001;" horiz-adv-x="1978" />
<glyph unicode="&#x2002;" horiz-adv-x="989" />
<glyph unicode="&#x2003;" horiz-adv-x="1978" />
<glyph unicode="&#x2004;" horiz-adv-x="659" />
<glyph unicode="&#x2005;" horiz-adv-x="494" />
<glyph unicode="&#x2006;" horiz-adv-x="329" />
<glyph unicode="&#x2007;" horiz-adv-x="329" />
<glyph unicode="&#x2008;" horiz-adv-x="247" />
<glyph unicode="&#x2009;" horiz-adv-x="395" />
<glyph unicode="&#x200a;" horiz-adv-x="109" />
<glyph unicode="&#x2010;" horiz-adv-x="819" d="M135 451v245h549v-245h-549z" />
<glyph unicode="&#x2011;" horiz-adv-x="819" d="M135 451v245h549v-245h-549z" />
<glyph unicode="&#x2012;" horiz-adv-x="819" d="M135 451v245h549v-245h-549z" />
<glyph unicode="&#x2013;" d="M135 451v245h959v-245h-959z" />
<glyph unicode="&#x2014;" horiz-adv-x="2048" d="M135 451v245h1778v-245h-1778z" />
<glyph unicode="&#x2018;" horiz-adv-x="509" d="M43 1049l203 477l186 -53l-123 -496z" />
<glyph unicode="&#x2019;" horiz-adv-x="509" d="M68 1028l122 498l267 -74l-203 -475z" />
<glyph unicode="&#x201a;" horiz-adv-x="509" d="M78 -227l123 497l266 -73l-203 -478z" />
<glyph unicode="&#x201c;" horiz-adv-x="831" d="M43 1049l203 477l186 -53l-123 -496zM399 1049l203 477l186 -53l-122 -496z" />
<glyph unicode="&#x201d;" horiz-adv-x="831" d="M43 1028l125 498l264 -74l-203 -475zM399 1028l123 498l266 -74l-202 -475z" />
<glyph unicode="&#x201e;" horiz-adv-x="866" d="M78 -227l123 497l266 -73l-203 -478zM434 -227l123 497l266 -73l-202 -478z" />
<glyph unicode="&#x2022;" horiz-adv-x="937" d="M135 573q0 154 90.5 244t245.5 90q154 0 243 -90t89 -244t-89 -243.5t-243 -89.5q-155 0 -245.5 89.5t-90.5 243.5z" />
<glyph unicode="&#x2026;" horiz-adv-x="1576" d="M82 164q0 83 48.5 132.5t131.5 49.5t132.5 -49.5t49.5 -132.5q0 -82 -49.5 -131t-132.5 -49t-131.5 49t-48.5 131zM606 164q0 83 49.5 132.5t132.5 49.5t133 -49.5t50 -132.5q0 -82 -50 -131t-133 -49t-132.5 49t-49.5 131zM1133 164q0 83 49.5 132.5t132.5 49.5 t132.5 -49.5t49.5 -132.5q0 -82 -49.5 -131t-132.5 -49t-132.5 49t-49.5 131z" />
<glyph unicode="&#x202f;" horiz-adv-x="395" />
<glyph unicode="&#x2039;" horiz-adv-x="720" d="M74 575l403 433l148 -119l-215 -314l215 -315l-148 -117z" />
<glyph unicode="&#x203a;" horiz-adv-x="720" d="M94 260l217 315l-217 314l150 119l401 -433l-401 -432z" />
<glyph unicode="&#x2044;" horiz-adv-x="245" d="M-424 86l946 1339l148 -104l-949 -1339z" />
<glyph unicode="&#x205f;" horiz-adv-x="494" />
<glyph unicode="&#x20ac;" horiz-adv-x="1470" d="M27 471v193h157v106h-157v193h192q70 222 251 354.5t423 132.5q156 0 289.5 -57t230.5 -160l-225 -189q-119 125 -295 125q-114 0 -205.5 -54.5t-146.5 -151.5h506v-193h-562q-4 -32 -4 -53t4 -53h562v-193h-506q55 -97 146.5 -152t205.5 -55q175 0 295 127l227 -188 q-98 -105 -232 -162t-290 -57q-242 0 -423 132.5t-251 354.5h-192z" />
<glyph unicode="&#x2122;" horiz-adv-x="1484" d="M14 1266v168h580v-168h-195v-549h-190v549h-195zM655 717v717h197l190 -322l193 322h195v-717h-191v416l-145 -263h-103l-145 265v-418h-191z" />
<glyph unicode="&#x2460;" horiz-adv-x="1863" d="M94 717q0 171 66.5 325.5t178.5 266t267 177.5t326 66q227 0 419 -111.5t304 -303.5t112 -420q0 -171 -66 -325.5t-178 -266.5t-266.5 -178t-324.5 -66q-171 0 -326 66t-267 178t-178.5 266.5t-66.5 325.5zM287 717q0 -176 86 -324.5t234.5 -234.5t324.5 -86t324.5 86 t234.5 234.5t86 324.5t-86 324.5t-234.5 234.5t-324.5 86t-324.5 -86t-234.5 -234.5t-86 -324.5zM678 932l190 143h191v-717h-191v492l-77 -62z" />
<glyph unicode="&#x2461;" horiz-adv-x="1863" d="M94 717q0 171 66.5 325.5t178.5 266t267 177.5t326 66q227 0 419 -111.5t304 -303.5t112 -420q0 -171 -66 -325.5t-178 -266.5t-266.5 -178t-324.5 -66q-171 0 -326 66t-267 178t-178.5 266.5t-66.5 325.5zM287 717q0 -176 86 -324.5t234.5 -234.5t324.5 -86t324.5 86 t234.5 234.5t86 324.5t-86 324.5t-234.5 234.5t-324.5 86t-324.5 -86t-234.5 -234.5t-86 -324.5zM670 954q103 127 264 127q114 0 181 -56.5t67 -154.5q0 -38 -10.5 -71.5t-24.5 -56.5t-45 -52.5t-53 -47t-69 -53t-75 -57.5h271v-178h-490v178q18 41 72 91.5t107.5 88.5 t96 81t42.5 73q0 17 -19.5 27t-48.5 10q-39 0 -69 -20.5t-64 -61.5z" />
<glyph unicode="&#x2462;" horiz-adv-x="1863" d="M94 717q0 171 66.5 325.5t178.5 266t267 177.5t326 66q227 0 419 -111.5t304 -303.5t112 -420q0 -171 -66 -325.5t-178 -266.5t-266.5 -178t-324.5 -66q-171 0 -326 66t-267 178t-178.5 266.5t-66.5 325.5zM287 717q0 -176 86 -324.5t234.5 -234.5t324.5 -86t324.5 86 t234.5 234.5t86 324.5t-86 324.5t-234.5 234.5t-324.5 86t-324.5 -86t-234.5 -234.5t-86 -324.5zM670 463l127 129q21 -28 55 -46t70 -18q37 0 62.5 17.5t25.5 42.5q0 24 -20 40.5t-48 16.5h-49v154h61q19 0 31 14t12 35q0 26 -19.5 42.5t-49.5 16.5q-33 0 -64.5 -20.5 t-52.5 -52.5l-125 124q38 55 109 91t153 36q102 0 171 -58.5t69 -149.5q0 -95 -72 -154q84 -64 84 -158q0 -93 -75.5 -155t-188.5 -62q-81 0 -154 33.5t-112 81.5z" />
<glyph unicode="&#x2463;" horiz-adv-x="1863" d="M94 717q0 171 66.5 325.5t178.5 266t267 177.5t326 66q227 0 419 -111.5t304 -303.5t112 -420q0 -171 -66 -325.5t-178 -266.5t-266.5 -178t-324.5 -66q-171 0 -326 66t-267 178t-178.5 266.5t-66.5 325.5zM287 717q0 -176 86 -324.5t234.5 -234.5t324.5 -86t324.5 86 t234.5 234.5t86 324.5t-86 324.5t-234.5 234.5t-324.5 86t-324.5 -86t-234.5 -234.5t-86 -324.5zM604 489v168l309 418h191v-418h88v-168h-88v-131h-191v131h-309zM793 657h120v166z" />
<glyph unicode="&#x2464;" horiz-adv-x="1863" d="M94 717q0 171 66.5 325.5t178.5 266t267 177.5t326 66q227 0 419 -111.5t304 -303.5t112 -420q0 -171 -66 -325.5t-178 -266.5t-266.5 -178t-324.5 -66q-171 0 -326 66t-267 178t-178.5 266.5t-66.5 325.5zM287 717q0 -176 86 -324.5t234.5 -234.5t324.5 -86t324.5 86 t234.5 234.5t86 324.5t-86 324.5t-234.5 234.5t-324.5 86t-324.5 -86t-234.5 -234.5t-86 -324.5zM666 477l133 133q48 -75 119 -75q39 0 64.5 19.5t25.5 49.5q0 31 -25 50.5t-63 19.5h-172v407h378v-182h-219v-57h17q120 0 197 -68.5t77 -173.5q0 -107 -81.5 -176.5 t-203.5 -69.5q-156 0 -247 123z" />
<glyph unicode="&#x2465;" horiz-adv-x="1863" d="M94 717q0 171 66.5 325.5t178.5 266t267 177.5t326 66q227 0 419 -111.5t304 -303.5t112 -420q0 -171 -66 -325.5t-178 -266.5t-266.5 -178t-324.5 -66q-171 0 -326 66t-267 178t-178.5 266.5t-66.5 325.5zM287 717q0 -176 86 -324.5t234.5 -234.5t324.5 -86t324.5 86 t234.5 234.5t86 324.5t-86 324.5t-234.5 234.5t-324.5 86t-324.5 -86t-234.5 -234.5t-86 -324.5zM662 616q0 83 53 168l178 297h203l-131 -215h26q92 0 151.5 -70.5t59.5 -179.5q0 -114 -76 -188t-194 -74q-116 0 -193 74t-77 188zM852 614q0 -33 23.5 -56t56.5 -23t56.5 23 t23.5 56q0 35 -23.5 58.5t-56.5 23.5t-56.5 -23.5t-23.5 -58.5z" />
<glyph unicode="&#x2466;" horiz-adv-x="1863" d="M94 717q0 171 66.5 325.5t178.5 266t267 177.5t326 66q227 0 419 -111.5t304 -303.5t112 -420q0 -171 -66 -325.5t-178 -266.5t-266.5 -178t-324.5 -66q-171 0 -326 66t-267 178t-178.5 266.5t-66.5 325.5zM287 717q0 -176 86 -324.5t234.5 -234.5t324.5 -86t324.5 86 t234.5 234.5t86 324.5t-86 324.5t-234.5 234.5t-324.5 86t-324.5 -86t-234.5 -234.5t-86 -324.5zM690 907v168h486v-168l-218 -549h-192l221 549h-297z" />
<glyph unicode="&#x2467;" horiz-adv-x="1863" d="M94 717q0 171 66.5 325.5t178.5 266t267 177.5t326 66q227 0 419 -111.5t304 -303.5t112 -420q0 -171 -66 -325.5t-178 -266.5t-266.5 -178t-324.5 -66q-171 0 -326 66t-267 178t-178.5 266.5t-66.5 325.5zM287 717q0 -176 86 -324.5t234.5 -234.5t324.5 -86t324.5 86 t234.5 234.5t86 324.5t-86 324.5t-234.5 234.5t-324.5 86t-324.5 -86t-234.5 -234.5t-86 -324.5zM680 567q0 108 92 168q-82 63 -82 160q0 83 68.5 136.5t175.5 53.5q105 0 173.5 -55t68.5 -141q0 -98 -82 -154q90 -62 90 -168q0 -95 -70.5 -157t-179.5 -62 q-112 0 -183 61.5t-71 157.5zM870 590q0 -27 18.5 -44.5t45.5 -17.5q26 0 42.5 17t16.5 45t-16.5 44.5t-42.5 16.5q-27 0 -45.5 -17t-18.5 -44zM881 864q0 -23 14.5 -36t38.5 -13q21 0 36 13.5t15 35.5q0 18 -15 30.5t-36 12.5q-23 0 -38 -12t-15 -31z" />
<glyph unicode="&#x2468;" horiz-adv-x="1863" d="M94 717q0 171 66.5 325.5t178.5 266t267 177.5t326 66q227 0 419 -111.5t304 -303.5t112 -420q0 -171 -66 -325.5t-178 -266.5t-266.5 -178t-324.5 -66q-171 0 -326 66t-267 178t-178.5 266.5t-66.5 325.5zM287 717q0 -176 86 -324.5t234.5 -234.5t324.5 -86t324.5 86 t234.5 234.5t86 324.5t-86 324.5t-234.5 234.5t-324.5 86t-324.5 -86t-234.5 -234.5t-86 -324.5zM662 819q0 114 76 188t194 74q116 0 193 -74t77 -186q0 -81 -51 -168l-178 -299h-207l129 217h-23q-92 0 -151 69.5t-59 178.5zM852 823q0 -35 23.5 -57.5t56.5 -22.5 t56.5 22.5t23.5 57.5q0 33 -23.5 56.5t-56.5 23.5t-56.5 -23.5t-23.5 -56.5z" />
<glyph unicode="&#x24ea;" horiz-adv-x="1863" d="M94 717q0 171 66.5 325.5t178.5 266t267 177.5t326 66q227 0 419 -111.5t304 -303.5t112 -420q0 -171 -66 -325.5t-178 -266.5t-266.5 -178t-324.5 -66q-171 0 -326 66t-267 178t-178.5 266.5t-66.5 325.5zM287 717q0 -176 86 -324.5t234.5 -234.5t324.5 -86t324.5 86 t234.5 234.5t86 324.5t-86 324.5t-234.5 234.5t-324.5 86t-324.5 -86t-234.5 -234.5t-86 -324.5zM637 717q0 159 84.5 263.5t212.5 104.5q125 0 209 -104.5t84 -263.5t-84 -264t-209 -105q-128 0 -212.5 105t-84.5 264zM827 717q0 -82 30 -135.5t75 -53.5t74.5 53t29.5 136 t-29.5 136.5t-74.5 53.5t-75 -53.5t-30 -136.5z" />
<glyph unicode="&#x24ff;" horiz-adv-x="1863" d="M94 717q0 171 66.5 325.5t178.5 266t267 177.5t326 66q227 0 419 -111.5t304 -303.5t112 -420q0 -171 -66 -325.5t-178 -266.5t-266.5 -178t-324.5 -66q-171 0 -326 66t-267 178t-178.5 266.5t-66.5 325.5zM637 717q0 -159 84.5 -264t212.5 -105q125 0 209 105t84 264 t-84 263.5t-209 104.5q-128 0 -212.5 -104.5t-84.5 -263.5zM827 717q0 83 30 136.5t75 53.5t74.5 -53.5t29.5 -136.5t-29.5 -136t-74.5 -53t-75 53.5t-30 135.5z" />
<glyph unicode="&#x25fc;" horiz-adv-x="1024" d="M0 0v1024h1024v-1024h-1024z" />
<glyph unicode="&#x278a;" horiz-adv-x="1863" d="M94 717q0 171 66.5 325.5t178.5 266t267 177.5t326 66q227 0 419 -111.5t304 -303.5t112 -420q0 -171 -66 -325.5t-178 -266.5t-266.5 -178t-324.5 -66q-171 0 -326 66t-267 178t-178.5 266.5t-66.5 325.5zM678 932l113 -144l77 62v-492h191v717h-191z" />
<glyph unicode="&#x278b;" horiz-adv-x="1863" d="M94 717q0 171 66.5 325.5t178.5 266t267 177.5t326 66q227 0 419 -111.5t304 -303.5t112 -420q0 -171 -66 -325.5t-178 -266.5t-266.5 -178t-324.5 -66q-171 0 -326 66t-267 178t-178.5 266.5t-66.5 325.5zM670 954l133 -133q34 41 64 61.5t69 20.5q29 0 48.5 -10 t19.5 -27q0 -30 -42.5 -73t-96 -81t-107.5 -88.5t-72 -91.5v-178h490v178h-271q28 22 75 57.5t69 53t53 47t45 52.5t24.5 56.5t10.5 71.5q0 98 -67 154.5t-181 56.5q-161 0 -264 -127z" />
<glyph unicode="&#x278c;" horiz-adv-x="1863" d="M94 717q0 171 66.5 325.5t178.5 266t267 177.5t326 66q227 0 419 -111.5t304 -303.5t112 -420q0 -171 -66 -325.5t-178 -266.5t-266.5 -178t-324.5 -66q-171 0 -326 66t-267 178t-178.5 266.5t-66.5 325.5zM664 459q42 -47 118 -79t152 -32q113 0 189.5 62t76.5 155 q0 94 -84 158q72 59 72 154q0 92 -68.5 150t-171.5 58q-79 0 -153.5 -33.5t-114.5 -86.5l131 -131q24 32 58 52.5t67 20.5q25 0 43 -15.5t18 -41.5q0 -22 -12 -36.5t-31 -14.5h-61v-154h49q28 0 48 -16.5t20 -40.5q0 -26 -24 -43t-58 -17t-71 18t-60 46z" />
<glyph unicode="&#x278d;" horiz-adv-x="1863" d="M94 717q0 171 66.5 325.5t178.5 266t267 177.5t326 66q227 0 419 -111.5t304 -303.5t112 -420q0 -171 -66 -325.5t-178 -266.5t-266.5 -178t-324.5 -66q-171 0 -326 66t-267 178t-178.5 266.5t-66.5 325.5zM604 489h309v-131h191v131h88v168h-88v418h-191l-309 -418v-168 zM793 657l120 166v-166h-120z" />
<glyph unicode="&#x278e;" horiz-adv-x="1863" d="M94 717q0 171 66.5 325.5t178.5 266t267 177.5t326 66q227 0 419 -111.5t304 -303.5t112 -420q0 -171 -66 -325.5t-178 -266.5t-266.5 -178t-324.5 -66q-171 0 -326 66t-267 178t-178.5 266.5t-66.5 325.5zM666 477q91 -123 247 -123q122 0 203.5 69.5t81.5 176.5 q0 105 -77 173.5t-197 68.5h-17v57h219v182h-378v-407h172q38 0 63 -19.5t25 -50.5q0 -30 -25.5 -49.5t-64.5 -19.5q-71 0 -119 75z" />
<glyph unicode="&#x278f;" horiz-adv-x="1863" d="M94 717q0 171 66.5 325.5t178.5 266t267 177.5t326 66q227 0 419 -111.5t304 -303.5t112 -420q0 -171 -66 -325.5t-178 -266.5t-266.5 -178t-324.5 -66q-171 0 -326 66t-267 178t-178.5 266.5t-66.5 325.5zM662 616q0 -114 77 -188t193 -74q118 0 194 74t76 188 q0 109 -59.5 179.5t-151.5 70.5q-18 0 -26 -2l131 217h-203l-178 -297q-53 -85 -53 -168zM852 614q0 35 23.5 58.5t56.5 23.5t56.5 -23.5t23.5 -58.5q0 -33 -23.5 -56t-56.5 -23t-56.5 23t-23.5 56z" />
<glyph unicode="&#x2790;" horiz-adv-x="1863" d="M94 717q0 171 66.5 325.5t178.5 266t267 177.5t326 66q227 0 419 -111.5t304 -303.5t112 -420q0 -171 -66 -325.5t-178 -266.5t-266.5 -178t-324.5 -66q-171 0 -326 66t-267 178t-178.5 266.5t-66.5 325.5zM690 907h297l-221 -549h192l218 549v168h-486v-168z" />
<glyph unicode="&#x2791;" horiz-adv-x="1863" d="M94 717q0 171 66.5 325.5t178.5 266t267 177.5t326 66q227 0 419 -111.5t304 -303.5t112 -420q0 -171 -66 -325.5t-178 -266.5t-266.5 -178t-324.5 -66q-171 0 -326 66t-267 178t-178.5 266.5t-66.5 325.5zM680 567q0 -96 71 -157.5t183 -61.5q109 0 179.5 62t70.5 157 q0 106 -88 168q80 57 80 154q0 86 -68.5 141t-173.5 55q-107 0 -175.5 -53.5t-68.5 -136.5q0 -98 84 -160q-94 -59 -94 -168zM870 590q0 27 18.5 44t45.5 17q26 0 42.5 -16.5t16.5 -44.5t-16.5 -45t-42.5 -17q-27 0 -45.5 17.5t-18.5 44.5zM881 864q0 19 15 31t38 12 q21 0 36 -12.5t15 -30.5q0 -22 -15 -35.5t-36 -13.5q-24 0 -38.5 13t-14.5 36z" />
<glyph unicode="&#x2792;" horiz-adv-x="1863" d="M94 717q0 171 66.5 325.5t178.5 266t267 177.5t326 66q227 0 419 -111.5t304 -303.5t112 -420q0 -171 -66 -325.5t-178 -266.5t-266.5 -178t-324.5 -66q-171 0 -326 66t-267 178t-178.5 266.5t-66.5 325.5zM662 819q0 -109 59 -178.5t151 -69.5h23l-129 -217h207l178 299 q51 84 51 168q0 112 -77 186t-193 74q-118 0 -194 -74t-76 -188zM852 823q0 33 23.5 56.5t56.5 23.5t56.5 -23.5t23.5 -56.5q0 -35 -23.5 -57.5t-56.5 -22.5t-56.5 22.5t-23.5 57.5z" />
<glyph horiz-adv-x="1220" d="M33 301l258 143q30 -80 100 -130t158 -50q102 0 172 64.5t70 160.5v945h299v-942q0 -220 -152.5 -364t-382.5 -144q-177 0 -321 88t-201 229zM821 1636l254 342l176 -159l-317 -289z" />
<glyph horiz-adv-x="1214" d="M74 512q0 230 132 379t333 149q153 0 272 -92v76h281v-1024h-281v76q-119 -92 -272 -92q-201 0 -333 149t-132 379zM356 516q0 -117 64 -192.5t164 -75.5q98 0 162.5 75.5t64.5 192.5q0 114 -64 187t-163 73q-100 0 -164 -73t-64 -187z" />
<glyph horiz-adv-x="1214" d="M74 512q0 230 132 379t333 149q153 0 272 -92v76h281v-1024h-281v76q-119 -92 -272 -92q-201 0 -333 149t-132 379zM356 516q0 -117 64 -192.5t164 -75.5q98 0 162.5 75.5t64.5 192.5q0 114 -64 187t-163 73q-100 0 -164 -73t-64 -187zM467 1227l254 342l178 -160 l-317 -289z" />
<glyph horiz-adv-x="1214" d="M74 512q0 230 132 379t333 149q153 0 272 -92v76h281v-1024h-281v76q-119 -92 -272 -92q-201 0 -333 149t-132 379zM268 1208l316 328l313 -330l-109 -106l-204 162l-207 -162zM356 516q0 -117 64 -192.5t164 -75.5q98 0 162.5 75.5t64.5 192.5q0 114 -64 187t-163 73 q-100 0 -164 -73t-64 -187z" />
<glyph horiz-adv-x="1214" d="M74 512q0 230 132 379t333 149q153 0 272 -92v76h281v-1024h-281v76q-119 -92 -272 -92q-201 0 -333 149t-132 379zM244 1409l178 160l254 -342l-115 -107zM356 516q0 -117 64 -192.5t164 -75.5q98 0 162.5 75.5t64.5 192.5q0 114 -64 187t-163 73q-100 0 -164 -73 t-64 -187z" />
<glyph horiz-adv-x="1214" d="M74 512q0 230 132 379t333 149q153 0 272 -92v76h281v-1024h-281v76q-119 -92 -272 -92q-201 0 -333 149t-132 379zM223 1272q0 68 40.5 107.5t109.5 39.5q66 0 106.5 -40t40.5 -107t-40.5 -108.5t-106.5 -41.5q-69 0 -109.5 41t-40.5 109zM356 516q0 -117 64 -192.5 t164 -75.5q98 0 162.5 75.5t64.5 192.5q0 114 -64 187t-163 73q-100 0 -164 -73t-64 -187zM647 1272q0 67 41 107t109 40q67 0 107 -39.5t40 -107.5t-40 -109t-107 -41t-108.5 41t-41.5 109z" />
<glyph horiz-adv-x="1214" d="M74 512q0 230 132 379t333 149q153 0 272 -92v76h281v-1024h-281v76q-119 -92 -272 -92q-201 0 -333 149t-132 379zM338 1364q0 103 69.5 171.5t176.5 68.5q106 0 175.5 -68.5t69.5 -171.5q0 -104 -69.5 -173t-175.5 -69q-107 0 -176.5 68.5t-69.5 173.5zM356 516 q0 -117 64 -192.5t164 -75.5q98 0 162.5 75.5t64.5 192.5q0 114 -64 187t-163 73q-100 0 -164 -73t-64 -187zM504 1364q0 -37 22.5 -61.5t57.5 -24.5q34 0 56 24.5t22 61.5q0 36 -22 60t-56 24q-35 0 -57.5 -23.5t-22.5 -60.5z" />
<glyph horiz-adv-x="1214" d="M74 512q0 230 132 379t333 149q153 0 272 -92v76h281v-1024h-281v76q-119 -92 -272 -92q-201 0 -333 149t-132 379zM233 1130q0 117 62 194t154 77q50 0 99.5 -26.5t87 -52.5t56.5 -26q23 0 39.5 27t16.5 66h184q0 -118 -62 -194.5t-155 -76.5q-40 0 -79.5 16.5t-65.5 36 t-52.5 36t-42.5 16.5q-24 0 -40.5 -26.5t-16.5 -66.5h-185zM356 516q0 -117 64 -192.5t164 -75.5q98 0 162.5 75.5t64.5 192.5q0 114 -64 187t-163 73q-100 0 -164 -73t-64 -187z" />
<glyph horiz-adv-x="837" d="M47 1075q0 161 91 266t229 105q95 0 178 -60v48h215v-717h-215v47q-81 -59 -178 -59q-138 0 -229 104.5t-91 265.5zM262 1077q0 -73 39.5 -121.5t99.5 -48.5q63 0 103.5 48t40.5 122q0 72 -40.5 119t-103.5 47q-60 0 -99.5 -47t-39.5 -119z" />
<glyph horiz-adv-x="526" d="M-113 -223q112 0 174 49t62 137v1061h280v-1065q0 -211 -136.5 -328.5t-379.5 -117.5v264zM147 1227l254 342l179 -160l-318 -289z" />
<glyph horiz-adv-x="1101" d="M20 1024h279l272 -733l240 733h272l-497 -1495h-262l127 391z" />
<glyph horiz-adv-x="1101" d="M20 1024h279l272 -733l240 733h272l-497 -1495h-262l127 391zM436 1227l254 342l178 -160l-317 -289z" />
<glyph horiz-adv-x="1101" d="M20 1024h279l272 -733l240 733h272l-497 -1495h-262l127 391zM190 1272q0 67 41 107t109 40t107.5 -39.5t39.5 -107.5t-40 -109t-107 -41q-68 0 -109 41t-41 109zM616 1272q0 67 40 107t108 40t107.5 -39.5t39.5 -107.5t-40 -109t-107 -41t-107.5 41t-40.5 109z" />
<glyph horiz-adv-x="1218" d="M127 379v645h268v-608q0 -79 49.5 -123.5t133.5 -44.5q110 0 173.5 72.5t63.5 189.5v514h283v-983q0 -248 -143.5 -388t-393.5 -140q-141 0 -251.5 44t-176.5 126l182 182q27 -40 86 -64t136 -24q131 0 204.5 70.5t73.5 197.5v31q-122 -92 -293 -92q-183 0 -289 105 t-106 290z" />
<glyph horiz-adv-x="1218" d="M127 379v645h268v-608q0 -79 49.5 -123.5t133.5 -44.5q110 0 173.5 72.5t63.5 189.5v514h283v-983q0 -248 -143.5 -388t-393.5 -140q-141 0 -251.5 44t-176.5 126l182 182q27 -40 86 -64t136 -24q131 0 204.5 70.5t73.5 197.5v31q-122 -92 -293 -92q-183 0 -289 105 t-106 290zM494 1227l254 342l178 -160l-318 -289z" />
<glyph horiz-adv-x="1218" d="M127 379v645h268v-608q0 -79 49.5 -123.5t133.5 -44.5q110 0 173.5 72.5t63.5 189.5v514h283v-983q0 -248 -143.5 -388t-393.5 -140q-141 0 -251.5 44t-176.5 126l182 182q27 -40 86 -64t136 -24q131 0 204.5 70.5t73.5 197.5v31q-122 -92 -293 -92q-183 0 -289 105 t-106 290zM250 1272q0 68 40 107.5t107 39.5q68 0 109 -40t41 -107q0 -68 -41.5 -109t-108.5 -41t-107 41t-40 109zM674 1272q0 67 40.5 107t108.5 40t108 -40t40 -107q0 -68 -40.5 -109t-107.5 -41t-108 41t-41 109z" />
<glyph d="M63 717q0 210 72 378t198 261.5t283 93.5q117 0 219 -55t175 -151.5t115 -233t42 -293.5t-42 -293.5t-115 -233t-175 -151.5t-219 -55q-157 0 -283 93.5t-198 261.5t-72 378zM362 717q0 -196 72.5 -324.5t181.5 -128.5q108 0 180 128.5t72 324.5q0 197 -72 324.5 t-180 127.5q-109 0 -181.5 -127.5t-72.5 -324.5z" />
<glyph d="M150 1135l393 299h299v-1151h327v-283h-952v283h326v798l-217 -172z" />
<glyph d="M113 1208q188 242 501 242q221 0 352.5 -111.5t131.5 -302.5q0 -84 -27.5 -160t-68.5 -133t-108 -120.5t-126 -109t-144 -112.5t-143 -118h615v-283h-961v283q27 59 90.5 127t137.5 126.5t155 124.5t146.5 124t108 123t42.5 122q0 65 -54.5 102t-142.5 37 q-91 0 -161.5 -43.5t-134.5 -124.5z" />
<glyph d="M84 205l207 207q46 -66 121.5 -107t162.5 -41q98 0 165 50.5t67 127.5q0 74 -61 121t-156 47h-92v250h108q75 0 124.5 42.5t49.5 107.5q0 71 -57.5 115t-144.5 44q-167 0 -263 -163l-206 206q73 108 206.5 173t288.5 65q206 0 340.5 -112.5t134.5 -290.5 q0 -95 -42.5 -175t-118.5 -135q89 -56 138.5 -141.5t49.5 -187.5q0 -121 -68 -218t-187.5 -151.5t-266.5 -54.5q-155 0 -290.5 60.5t-209.5 160.5z" />
<glyph d="M63 289v264l631 881h299v-881h158v-264h-158v-289h-299v289h-631zM358 553h336v473z" />
<glyph d="M115 217l207 209q104 -162 268 -162q103 0 168 57t65 144t-64.5 143t-164.5 56h-344v770h741v-293h-483v-211h92q227 0 374.5 -132.5t147.5 -336.5q0 -207 -151.5 -342t-384.5 -135q-303 0 -471 233z" />
<glyph d="M104 485q0 151 101 320l389 629h328l-291 -465q50 4 71 4q189 0 312 -137.5t123 -348.5q0 -219 -145.5 -361t-370.5 -142q-221 0 -369 142t-148 359zM403 481q0 -93 63 -155t155 -62q91 0 154 62t63 155t-63 155t-154 62q-92 0 -155 -62t-63 -155z" />
<glyph d="M139 1169v265h948v-265l-471 -1169h-307l479 1169h-649z" />
<glyph d="M113 410q0 108 52.5 197t147.5 147q-84 55 -131 137t-47 180q0 166 135.5 272.5t347.5 106.5q206 0 341 -109t135 -276q0 -98 -45.5 -179t-128.5 -134q93 -58 144.5 -146t51.5 -196q0 -186 -141 -306t-359 -120q-221 0 -362 120t-141 306zM412 440q0 -78 57 -127t147 -49 q87 0 144 49.5t57 126.5q0 76 -57 125t-144 49q-89 0 -146.5 -49t-57.5 -125zM434 1030q0 -64 52 -104.5t132 -40.5q75 0 126 40.5t51 104.5q0 59 -51.5 99t-125.5 40q-79 0 -131.5 -39.5t-52.5 -99.5z" />
<glyph d="M100 946q0 220 146 362t370 142q221 0 369 -142.5t148 -359.5q0 -154 -103 -321l-393 -627h-336l293 465q-18 -4 -59 -4q-189 0 -312 137t-123 348zM399 952q0 -93 63 -155t154 -62q92 0 155 62t63 155t-63 155t-155 62q-91 0 -154 -62t-63 -155z" />
<glyph horiz-adv-x="661" d="M37 358q0 160 83.5 264.5t211.5 104.5q126 0 209.5 -104.5t83.5 -264.5q0 -159 -83.5 -263.5t-209.5 -104.5q-128 0 -211.5 104t-83.5 264zM227 358q0 -82 30 -135t75 -53q44 0 73 52.5t29 135.5t-29 137t-73 54q-45 0 -75 -54t-30 -137z" />
<glyph horiz-adv-x="501" d="M27 573l188 144h191v-717h-191v492l-78 -62z" />
<glyph horiz-adv-x="524" d="M4 600q103 127 262 127q115 0 182.5 -56.5t67.5 -154.5q0 -38 -10.5 -71.5t-24 -56.5t-44.5 -52.5t-53 -47t-69.5 -53t-74.5 -57.5h270v-178h-492v178q18 41 72.5 91.5t107.5 88.5t95.5 81t42.5 73q0 17 -19 27t-47 10q-41 0 -71 -21t-62 -61z" />
<glyph horiz-adv-x="587" d="M16 100l134 133q21 -27 59 -45t72 -18t57.5 16.5t23.5 42.5q0 25 -19.5 41.5t-47.5 16.5h-49v153h59q20 0 32.5 15t12.5 37q0 26 -18 41.5t-43 15.5q-33 0 -67 -21t-58 -53l-131 131q40 53 114.5 87t153.5 34q103 0 170.5 -58t67.5 -151t-70 -153q82 -63 82 -158 q0 -93 -75.5 -155t-188.5 -62q-76 0 -152.5 31.5t-118.5 78.5z" />
<glyph horiz-adv-x="653" d="M27 131v168l307 418h190v-418h90v-168h-90v-131h-190v131h-307zM213 299h121v166z" />
<glyph horiz-adv-x="544" d="M10 113l131 133q52 -76 121 -76q39 0 64.5 20t25.5 50q0 31 -25 50t-63 19h-172v408h379v-182h-219v-58h16q118 0 195.5 -68.5t77.5 -172.5q0 -107 -80.5 -176.5t-202.5 -69.5q-157 0 -248 123z" />
<glyph horiz-adv-x="608" d="M37 252q0 83 53 168l178 297h201l-129 -215h27q92 0 151.5 -70.5t59.5 -179.5q0 -114 -77 -188t-194 -74q-116 0 -193 74t-77 188zM227 250q0 -33 23.5 -56.5t56.5 -23.5t56.5 23.5t23.5 56.5t-23.5 56.5t-56.5 23.5t-56.5 -23.5t-23.5 -56.5z" />
<glyph horiz-adv-x="491" d="M4 549v168h485v-168l-217 -549h-192l221 549h-297z" />
<glyph horiz-adv-x="577" d="M37 209q0 108 92 168q-82 63 -82 160q0 83 68.5 136.5t175.5 53.5q104 0 171.5 -55.5t67.5 -141.5q0 -97 -79 -153q90 -64 90 -168q0 -95 -71 -157t-181 -62t-181 62t-71 157zM227 231q0 -27 17.5 -44t44.5 -17t44 17t17 44t-17 44.5t-44 17.5t-44.5 -17.5t-17.5 -44.5z M236 506q0 -23 15.5 -36t39.5 -13q21 0 35 13t14 36q0 19 -14 31t-35 12q-23 0 -39 -12t-16 -31z" />
<glyph horiz-adv-x="604" d="M27 465q0 114 76 188t194 74q116 0 193 -74t77 -186q0 -81 -51 -168l-178 -299h-207l127 217h-20q-92 0 -151.5 69.5t-59.5 178.5zM217 469q0 -35 23.5 -57.5t56.5 -22.5t56.5 22.5t23.5 57.5q0 33 -23.5 56.5t-56.5 23.5t-56.5 -23.5t-23.5 -56.5z" />
<glyph horiz-adv-x="268" d="M-2 -119l90 332l166 -45l-125 -324z" />
<glyph horiz-adv-x="268" d="M25 100q0 51 29.5 80t80.5 29q50 0 79.5 -29t29.5 -80t-29.5 -80.5t-79.5 -29.5q-51 0 -80.5 29.5t-29.5 80.5z" />
<glyph horiz-adv-x="350" d="M37 334q0 80 21 159t51 135.5t60.5 101t51.5 66.5l21 23l100 -80q1 0 -11 -17.5t-31.5 -54t-38 -83t-32.5 -114t-14 -136.5q0 -70 14 -138t32.5 -114.5t38 -83t31.5 -54.5t11 -18l-100 -80q-8 8 -22 23.5t-49.5 65.5t-62.5 103.5t-49 134.5t-22 161z" />
<glyph horiz-adv-x="350" d="M8 -74l12 18q12 18 31 54.5t38 83t32.5 114.5t13.5 138q0 69 -13.5 136.5t-32.5 114t-38 83t-31 54.5l-12 17l101 80q8 -8 22 -23.5t49 -65t62 -103t49 -133.5t22 -160t-21 -160t-51 -136.5t-60 -101.5t-51 -68l-21 -22z" />
<glyph horiz-adv-x="409" d="M57 209v156h295v-156h-295z" />
<glyph horiz-adv-x="614" d="M82 229v156h147v147h156v-147h147v-156h-147v-147h-156v147h-147z" />
<glyph horiz-adv-x="614" d="M82 33v155h450v-155h-450zM82 362v156h147v148h156v-148h147v-156h-147v-147h-156v147h-147z" />
<glyph horiz-adv-x="614" d="M82 117v155h450v-155h-450zM82 342v156h450v-156h-450z" />
<glyph horiz-adv-x="661" d="M37 1075q0 160 83.5 264.5t211.5 104.5q126 0 209.5 -104.5t83.5 -264.5q0 -159 -83.5 -263.5t-209.5 -104.5q-128 0 -211.5 104t-83.5 264zM227 1075q0 -82 30 -135t75 -53q44 0 73 52.5t29 135.5t-29 137t-73 54q-45 0 -75 -54t-30 -137z" />
<glyph horiz-adv-x="501" d="M27 1290l188 144h191v-717h-191v491l-78 -61z" />
<glyph horiz-adv-x="524" d="M4 1317q103 127 262 127q115 0 182.5 -56.5t67.5 -154.5q0 -38 -10.5 -71.5t-24 -56.5t-44.5 -52.5t-53 -47t-69.5 -53t-74.5 -57.5h270v-178h-492v178q18 41 72.5 91.5t107.5 88.5t95.5 81t42.5 73q0 17 -19 27t-47 10q-41 0 -71 -21t-62 -61z" />
<glyph horiz-adv-x="587" d="M16 817l134 133q21 -27 59 -45t72 -18t57.5 16.5t23.5 42.5q0 25 -19.5 41.5t-47.5 16.5h-49v153h59q20 0 32.5 14.5t12.5 36.5q0 26 -18 42t-43 16q-33 0 -67 -21t-58 -53l-131 131q40 53 114.5 87t153.5 34q103 0 170.5 -58t67.5 -151q0 -94 -70 -154q82 -63 82 -157 q0 -93 -75.5 -155t-188.5 -62q-76 0 -152.5 31.5t-118.5 78.5z" />
<glyph horiz-adv-x="653" d="M27 848v168l307 418h190v-418h90v-168h-90v-131h-190v131h-307zM213 1016h121v166z" />
<glyph horiz-adv-x="544" d="M10 829l131 134q52 -76 121 -76q39 0 64.5 19.5t25.5 49.5q0 31 -25 50.5t-63 19.5h-172v408h379v-183h-219v-57h16q118 0 195.5 -69t77.5 -173q0 -107 -80.5 -176t-202.5 -69q-158 0 -248 122z" />
<glyph horiz-adv-x="608" d="M37 969q0 83 53 168l178 297h201l-129 -215h27q92 0 151.5 -70.5t59.5 -179.5q0 -114 -77 -188t-194 -74q-116 0 -193 74t-77 188zM227 967q0 -33 23.5 -56.5t56.5 -23.5t56.5 23.5t23.5 56.5t-23.5 56.5t-56.5 23.5t-56.5 -23.5t-23.5 -56.5z" />
<glyph horiz-adv-x="491" d="M4 1266v168h485v-168l-217 -549h-192l221 549h-297z" />
<glyph horiz-adv-x="577" d="M37 926q0 108 92 168q-82 63 -82 159q0 83 68.5 137t175.5 54q104 0 171.5 -55.5t67.5 -141.5q0 -97 -79 -153q90 -64 90 -168q0 -95 -71 -157t-181 -62t-181 62t-71 157zM227 948q0 -27 17.5 -44t44.5 -17t44 17t17 44q0 28 -17 45t-44 17t-44.5 -17.5t-17.5 -44.5z M236 1223q0 -23 15.5 -36t39.5 -13q21 0 35 13t14 36q0 19 -14 31t-35 12q-23 0 -39 -12t-16 -31z" />
<glyph horiz-adv-x="604" d="M27 1182q0 114 76 188t194 74q116 0 193 -74t77 -186q0 -81 -51 -168l-178 -299h-207l127 217h-20q-92 0 -151.5 69.5t-59.5 178.5zM217 1186q0 -35 23.5 -57.5t56.5 -22.5t56.5 22.5t23.5 57.5q0 33 -23.5 56.5t-56.5 23.5t-56.5 -23.5t-23.5 -56.5z" />
<glyph horiz-adv-x="268" d="M-2 598l90 332l166 -45l-125 -324z" />
<glyph horiz-adv-x="268" d="M25 817q0 51 29.5 81t80.5 30q50 0 79.5 -30t29.5 -81t-29.5 -80.5t-79.5 -29.5q-51 0 -80.5 29.5t-29.5 80.5z" />
<glyph horiz-adv-x="350" d="M37 1051q0 80 21 159t51 135.5t60.5 101t51.5 67.5l21 22l100 -80q1 0 -11 -17.5t-31.5 -54t-38 -83t-32.5 -114t-14 -136.5q0 -70 14 -138t32.5 -114.5t38 -83t31.5 -54.5t11 -18l-100 -80q-8 8 -22 23.5t-49.5 65.5t-62.5 103.5t-49 134.5t-22 161z" />
<glyph horiz-adv-x="350" d="M8 643l12 18q12 18 31 54.5t38 83t32.5 114.5t13.5 138q0 69 -13.5 136.5t-32.5 114t-38 83t-31 53.5l-12 18l101 80q8 -8 22 -23.5t49 -65t62 -103t49 -133.5t22 -160t-21 -160t-51 -136.5t-60 -101.5t-51 -67l-21 -23z" />
<glyph horiz-adv-x="409" d="M57 926v155h295v-155h-295z" />
<glyph horiz-adv-x="614" d="M82 946v156h147v147h156v-147h147v-156h-147v-147h-156v147h-147z" />
<glyph horiz-adv-x="614" d="M82 750v155h450v-155h-450zM82 1079v156h147v147h156v-147h147v-156h-147v-147h-156v147h-147z" />
<glyph horiz-adv-x="614" d="M82 834v155h450v-155h-450zM82 1059v155h450v-155h-450z" />
<glyph horiz-adv-x="661" d="M37 154q0 160 83.5 264t211.5 104q126 0 209.5 -104.5t83.5 -263.5q0 -160 -83.5 -264.5t-209.5 -104.5q-128 0 -211.5 104.5t-83.5 264.5zM227 154q0 -82 30 -135.5t75 -53.5q44 0 73 53t29 136t-29 136.5t-73 53.5q-45 0 -75 -53.5t-30 -136.5z" />
<glyph horiz-adv-x="501" d="M27 369l188 143h191v-717h-191v492l-78 -62z" />
<glyph horiz-adv-x="524" d="M4 395q103 127 262 127q115 0 182.5 -56.5t67.5 -154.5q0 -38 -10.5 -71.5t-24 -56.5t-44.5 -52.5t-53 -47t-69.5 -53t-74.5 -57.5h270v-178h-492v178q18 41 72.5 91.5t107.5 88.5t95.5 81t42.5 73q0 17 -19 27t-47 10q-41 0 -71 -21t-62 -61z" />
<glyph horiz-adv-x="587" d="M16 -104l134 133q22 -28 59.5 -46t71.5 -18t57.5 17t23.5 43q0 24 -19.5 40.5t-47.5 16.5h-49v154h59q20 0 32.5 14.5t12.5 36.5q0 26 -18 41.5t-43 15.5q-33 0 -67 -21t-58 -53l-131 131q40 53 114.5 87t153.5 34q103 0 170.5 -58t67.5 -151t-70 -153q82 -63 82 -158 q0 -93 -75.5 -155t-188.5 -62q-76 0 -152.5 32t-118.5 79z" />
<glyph horiz-adv-x="653" d="M27 -74v168l307 418h190v-418h90v-168h-90v-131h-190v131h-307zM213 94h121v166z" />
<glyph horiz-adv-x="544" d="M10 -92l131 133q52 -76 121 -76q40 0 65 19.5t25 50.5t-25 50t-63 19h-172v408h379v-182h-219v-58h16q118 0 195.5 -68.5t77.5 -172.5q0 -107 -80.5 -176.5t-202.5 -69.5q-157 0 -248 123z" />
<glyph horiz-adv-x="608" d="M37 47q0 83 53 168l178 297h201l-129 -215h27q92 0 151.5 -70.5t59.5 -179.5q0 -114 -77 -188t-194 -74q-116 0 -193 74t-77 188zM227 45q0 -35 23.5 -57.5t56.5 -22.5t56.5 22.5t23.5 57.5q0 33 -23.5 56.5t-56.5 23.5t-56.5 -23.5t-23.5 -56.5z" />
<glyph horiz-adv-x="491" d="M4 344v168h485v-168l-217 -549h-192l221 549h-297z" />
<glyph horiz-adv-x="577" d="M37 4q0 108 92 168q-82 63 -82 160q0 83 68.5 136.5t175.5 53.5q104 0 171.5 -55t67.5 -141q0 -98 -79 -154q90 -64 90 -168q0 -95 -71 -157t-181 -62t-181 62t-71 157zM227 27q0 -29 17.5 -45.5t44.5 -16.5t44 16.5t17 45.5q0 27 -17 44t-44 17t-44.5 -17t-17.5 -44z M236 301q0 -23 15.5 -36t39.5 -13q21 0 35 13t14 36q0 19 -14 31t-35 12q-23 0 -39 -12t-16 -31z" />
<glyph horiz-adv-x="604" d="M27 260q0 114 76 188t194 74q116 0 193 -74t77 -186q0 -81 -51 -168l-178 -299h-207l127 217h-20q-92 0 -151.5 69.5t-59.5 178.5zM217 264q0 -35 23.5 -57.5t56.5 -22.5t56.5 22.5t23.5 57.5q0 33 -23.5 56.5t-56.5 23.5t-56.5 -23.5t-23.5 -56.5z" />
<glyph horiz-adv-x="268" d="M-2 -324l90 332l166 -47l-125 -321z" />
<glyph horiz-adv-x="268" d="M25 -104q0 51 29.5 79.5t80.5 28.5q50 0 79.5 -28.5t29.5 -79.5t-29.5 -81t-79.5 -30q-51 0 -80.5 30t-29.5 81z" />
<glyph horiz-adv-x="350" d="M37 129q0 80 21 159t51 135.5t60.5 101t51.5 67.5l21 22l100 -79q1 0 -11 -17.5t-31.5 -54.5t-38 -83.5t-32.5 -114t-14 -136.5q0 -70 14 -138t32.5 -114.5t38 -83t31.5 -54.5t11 -18l-100 -79q-8 8 -22 23.5t-49.5 65.5t-62.5 103t-49 134t-22 161z" />
<glyph horiz-adv-x="350" d="M8 -279l12 18q12 18 31 54.5t38 83t32.5 114.5t13.5 138q0 69 -13.5 136.5t-32.5 114t-38 83.5t-31 55l-12 17l101 79q8 -8 22 -23.5t49 -65t62 -103t49 -133.5t22 -160t-21 -160t-51 -136.5t-60 -101t-51 -67.5l-21 -22z" />
<glyph horiz-adv-x="409" d="M57 4v156h295v-156h-295z" />
<glyph horiz-adv-x="614" d="M82 25v155h147v148h156v-148h147v-155h-147v-148h-156v148h-147z" />
<glyph horiz-adv-x="614" d="M82 -16h450v-156h-450v156zM82 158v155h147v148h156v-148h147v-155h-147v-148h-156v148h-147z" />
<glyph horiz-adv-x="614" d="M82 68h450v-156h-450v156zM82 137v156h450v-156h-450z" />
<glyph horiz-adv-x="661" d="M37 1280q0 160 83.5 264.5t211.5 104.5q126 0 209.5 -104.5t83.5 -264.5t-83.5 -264.5t-209.5 -104.5q-128 0 -211.5 104.5t-83.5 264.5zM227 1280q0 -82 30 -135t75 -53q44 0 73 52.5t29 135.5t-29 136.5t-73 53.5q-45 0 -75 -53.5t-30 -136.5z" />
<glyph horiz-adv-x="501" d="M27 1495l188 143h191v-716h-191v491l-78 -61z" />
<glyph horiz-adv-x="524" d="M4 1522q103 127 262 127q115 0 182.5 -56.5t67.5 -154.5q0 -38 -10.5 -71.5t-24 -56.5t-44.5 -52.5t-53 -47t-69.5 -53t-74.5 -57.5h270v-178h-492v178q18 41 72.5 91.5t107.5 88.5t95.5 81t42.5 73q0 17 -18.5 26.5t-47.5 9.5q-41 0 -71 -20.5t-62 -60.5z" />
<glyph horiz-adv-x="587" d="M16 1022l134 133q21 -27 59 -45t72 -18t57.5 16.5t23.5 42.5q0 24 -19.5 40.5t-47.5 16.5h-49v154h59q20 0 32.5 14.5t12.5 36.5q0 26 -18 41.5t-43 15.5q-33 0 -67 -20.5t-58 -52.5l-131 131q40 53 114.5 87t153.5 34q103 0 170.5 -58t67.5 -151q0 -94 -70 -154 q82 -63 82 -158q0 -93 -75.5 -155t-188.5 -62q-76 0 -152.5 32t-118.5 79z" />
<glyph horiz-adv-x="653" d="M27 1053v168l307 417h190v-417h90v-168h-90v-131h-190v131h-307zM213 1221h121v165z" />
<glyph horiz-adv-x="544" d="M10 1034l131 133q52 -75 121 -75q39 0 64.5 19.5t25.5 49.5q0 31 -25 50.5t-63 19.5h-172v407h379v-182h-219v-57h16q118 0 195.5 -69t77.5 -173q0 -107 -80.5 -176.5t-202.5 -69.5q-157 0 -248 123z" />
<glyph horiz-adv-x="608" d="M37 1174q0 82 53 167l178 297h201l-129 -215h27q92 0 151.5 -70t59.5 -179q0 -114 -77 -188.5t-194 -74.5q-116 0 -193 74.5t-77 188.5zM227 1171q0 -33 23.5 -56t56.5 -23t56.5 23t23.5 56t-23.5 56.5t-56.5 23.5t-56.5 -23.5t-23.5 -56.5z" />
<glyph horiz-adv-x="491" d="M4 1470v168h485v-168l-217 -548h-192l221 548h-297z" />
<glyph horiz-adv-x="577" d="M37 1130q0 108 92 168q-82 63 -82 160q0 83 68.5 137t175.5 54q104 0 171.5 -55.5t67.5 -141.5q0 -98 -79 -154q90 -64 90 -168q0 -95 -71 -157t-181 -62t-181 62t-71 157zM227 1153q0 -27 17.5 -44t44.5 -17t44 17t17 44t-17 44t-44 17t-44.5 -17t-17.5 -44zM236 1427 q0 -23 15.5 -36t39.5 -13q21 0 35 13t14 36q0 19 -14 31t-35 12q-23 0 -39 -12t-16 -31z" />
<glyph horiz-adv-x="604" d="M27 1386q0 114 76 188.5t194 74.5q116 0 193 -74t77 -186q0 -81 -51 -168l-178 -299h-207l127 217h-20q-92 0 -151.5 69t-59.5 178zM217 1391q0 -35 23.5 -57.5t56.5 -22.5t56.5 22.5t23.5 57.5q0 33 -23.5 56t-56.5 23t-56.5 -23t-23.5 -56z" />
<glyph horiz-adv-x="268" d="M-2 803l90 332l166 -45l-125 -324z" />
<glyph horiz-adv-x="268" d="M25 1022q0 51 29.5 81t80.5 30q50 0 79.5 -30t29.5 -81t-29.5 -81t-79.5 -30q-51 0 -80.5 30t-29.5 81z" />
<glyph horiz-adv-x="350" d="M37 1255q0 80 21 159.5t51 135.5t60.5 101t51.5 67l21 23l100 -80q1 0 -11 -17.5t-31.5 -54.5t-38 -83.5t-32.5 -114t-14 -136.5q0 -70 14 -137.5t32.5 -114t38 -83.5t31.5 -54.5t11 -17.5l-100 -80q-8 8 -22 23.5t-49.5 65.5t-62.5 103t-49 134t-22 161z" />
<glyph horiz-adv-x="350" d="M8 848l12 18q12 17 31 54t38 83.5t32.5 114t13.5 137.5q0 69 -13.5 136.5t-32.5 114t-38 83.5t-31 55l-12 17l101 80q8 -8 22 -23.5t49 -65.5t62 -103t49 -133.5t22 -160.5t-21 -160t-51 -136.5t-60 -101t-51 -67.5l-21 -22z" />
<glyph horiz-adv-x="409" d="M57 1130v156h295v-156h-295z" />
<glyph horiz-adv-x="614" d="M82 1151v156h147v147h156v-147h147v-156h-147v-147h-156v147h-147z" />
<glyph horiz-adv-x="614" d="M82 954v156h450v-156h-450zM82 1284v156h147v147h156v-147h147v-156h-147v-147h-156v147h-147z" />
<glyph horiz-adv-x="614" d="M82 1038v156h450v-156h-450zM82 1264v155h450v-155h-450z" />
<glyph horiz-adv-x="1619" d="M53 711q0 212 97.5 379t274 260.5t400.5 93.5q159 0 296.5 -49.5t235 -135.5t153 -208t55.5 -263q0 -190 -93.5 -315t-236.5 -125q-139 0 -223 117q-44 -56 -110 -86.5t-142 -30.5q-146 0 -242 104.5t-96 264.5t96 264t242 104q101 0 184 -55v39h215v-389 q0 -64 32.5 -106t82.5 -42q63 0 102 70t39 178q0 226 -165.5 373t-422.5 147q-180 0 -322 -75.5t-221 -208.5t-79 -299q0 -165 77 -299t211.5 -209.5t299.5 -75.5q159 0 292 78l25 -141q-157 -80 -344 -80q-204 0 -367 93t-254.5 258t-91.5 370zM674 717q0 -59 33 -97 t84 -38q52 0 85 38t33 97t-33 97t-85 38q-51 0 -84 -38t-33 -97z" />
<glyph horiz-adv-x="937" d="M135 717q0 154 90.5 244t245.5 90q154 0 243 -90t89 -244t-89 -244t-243 -90q-155 0 -245.5 90t-90.5 244z" />
<glyph horiz-adv-x="526" d="M82 1270q0 83 48.5 131.5t131.5 48.5t132.5 -48.5t49.5 -131.5t-49.5 -133t-132.5 -50t-131.5 49.5t-48.5 133.5zM104 0l52 981h213l53 -981h-318z" />
<glyph horiz-adv-x="1083" d="M53 395q0 67 19 116t50.5 79t69.5 54t78 50.5t74.5 60t60 91.5t33.5 135h213q17 -94 9 -158.5t-35 -114.5t-63 -82.5t-75.5 -61.5t-73 -52t-55.5 -54.5t-22 -68.5q0 -62 55.5 -96.5t153.5 -34.5q108 0 194 41.5t131 112.5l191 -187q-68 -116 -200.5 -178.5t-301.5 -62.5 q-230 0 -368 111.5t-138 299.5zM358 1270q0 83 49 131.5t132 48.5t132.5 -48.5t49.5 -131.5t-49.5 -133t-132.5 -50t-132 50t-49 133z" />
<glyph horiz-adv-x="1187" d="M74 717l403 432l148 -119l-215 -313l215 -314l-148 -118zM543 717l401 432l150 -119l-215 -313l215 -314l-150 -118z" />
<glyph horiz-adv-x="1187" d="M94 403l217 314l-217 313l150 119l401 -432l-401 -432zM563 403l217 314l-217 313l150 119l401 -432l-401 -432z" />
<glyph horiz-adv-x="720" d="M74 717l403 432l148 -119l-215 -313l215 -314l-148 -118z" />
<glyph horiz-adv-x="720" d="M94 403l217 314l-217 313l150 119l401 -432l-401 -432z" />
<glyph horiz-adv-x="819" d="M135 594v246h549v-246h-549z" />
<glyph d="M135 594v246h959v-246h-959z" />
<glyph horiz-adv-x="2048" d="M135 594v246h1778v-246h-1778z" />
<glyph horiz-adv-x="626" d="M190 -205v1843h248v-1843h-248z" />
<glyph horiz-adv-x="626" d="M190 -205v717h248v-717h-248zM190 922v716h248v-716h-248z" />
<glyph horiz-adv-x="884" d="M0 -121l653 1761l232 -84l-654 -1761z" />
<glyph horiz-adv-x="884" d="M0 1556l231 84l654 -1761l-232 -84z" />
<glyph horiz-adv-x="712" d="M94 717q0 119 23.5 235.5t61.5 207t84 172.5t92 140.5t84 101.5t61 64l24 21l162 -129l-27 -33q-27 -33 -71 -104t-86.5 -163t-73.5 -229.5t-31 -283.5t31 -283.5t73.5 -229.5t86.5 -163t71 -104l27 -33l-162 -129q-9 8 -24.5 22t-60 62.5t-85.5 102.5t-90.5 139t-85 174 t-60 206t-24.5 236z" />
<glyph horiz-adv-x="712" d="M27 -96l27 33q28 33 72 104t86 163t72.5 229.5t30.5 283.5t-30.5 283.5t-72.5 229.5t-86 163t-72 104l-27 33l161 129q9 -8 24.5 -22t60 -62.5t85.5 -102.5t90.5 -139t85 -174t60 -206t24.5 -236t-23.5 -235.5t-61.5 -207t-84 -172.5t-92 -140.5t-84 -101.5t-61 -64 l-24 -21z" />
<glyph horiz-adv-x="792" d="M135 -205v1843h625v-233h-357v-1376h357v-234h-625z" />
<glyph horiz-adv-x="792" d="M33 29h356v1376h-356v233h624v-1843h-624v234z" />
<glyph horiz-adv-x="911" d="M82 594v246q109 0 178.5 52t69.5 134v274q0 147 103.5 242.5t262.5 95.5h183v-247h-181q-37 0 -61.5 -24.5t-24.5 -61.5v-279q0 -99 -59 -178.5t-164 -130.5q105 -51 164 -130.5t59 -178.5v-279q0 -37 24.5 -61.5t61.5 -24.5h181v-248h-183q-159 0 -262.5 95.5 t-103.5 242.5v275q0 82 -69.5 134t-178.5 52z" />
<glyph horiz-adv-x="911" d="M33 43h180q37 0 61.5 24.5t24.5 61.5v279q0 99 59 178.5t164 130.5q-105 51 -164 130.5t-59 178.5v279q0 37 -24.5 61.5t-61.5 24.5h-180v247h184q158 0 261.5 -96t103.5 -242v-274q0 -82 69 -134t178 -52v-246q-109 0 -178 -52t-69 -134v-275q0 -146 -103.5 -242 t-261.5 -96h-184v248z" />
</font>
</defs>
</svg>
