<?xml version="1.0" standalone="no"?>
<!DOCTYPE svg PUBLIC "-//W3C//DTD SVG 1.1//EN" "http://www.w3.org/Graphics/SVG/1.1/DTD/svg11.dtd" >
<svg xmlns="http://www.w3.org/2000/svg" xmlns:xlink="http://www.w3.org/1999/xlink" version="1.1">
<metadata></metadata>
<defs>
<font id="daikonthin_italic" horiz-adv-x="1372" >
<font-face units-per-em="2048" ascent="1741" descent="-307" />
<missing-glyph horiz-adv-x="614" />
<glyph unicode="&#xfb01;" horiz-adv-x="1269" d="M137 -307l228 1290h-226l6 41h226l30 166q26 146 140 230.5t284 84.5l-8 -41q-152 0 -252.5 -73.5t-122.5 -200.5l-30 -166h327l-6 -41h-327l-228 -1290h-41zM877 0l180 1024h41l-180 -1024h-41zM1081 1393q4 26 25.5 43.5t48.5 17.5q26 0 40 -17.5t9 -43.5t-25 -44 t-46 -18t-41 18t-11 44z" />
<glyph unicode="&#xfb02;" horiz-adv-x="1269" d="M137 -307l228 1290h-226l6 41h226l30 166q26 146 140 230.5t284 84.5l-8 -41q-152 0 -252.5 -73.5t-122.5 -200.5l-30 -166h327l-6 -41h-327l-228 -1290h-41zM877 0l264 1495h41l-264 -1495h-41z" />
<glyph unicode="ft" horiz-adv-x="1505" d="M137 -307l228 1290h-226l6 41h228l28 166q25 146 139 230.5t285 84.5l-8 -41q-152 0 -252.5 -73.5t-122.5 -200.5l-28 -166h612l47 266h41l-47 -266h348l-6 -41h-348l-131 -747q-17 -90 32.5 -142.5t151.5 -52.5q71 0 133 20l-8 -41q-62 -20 -137 -20q-119 0 -176 63 t-37 173l131 747h-614l-228 -1290h-41z" />
<glyph horiz-adv-x="0" />
<glyph horiz-adv-x="0" />
<glyph unicode="&#xd;" horiz-adv-x="512" />
<glyph unicode=" "  horiz-adv-x="614" />
<glyph unicode="&#x09;" horiz-adv-x="614" />
<glyph unicode="&#xa0;" horiz-adv-x="614" />
<glyph unicode="!" horiz-adv-x="491" d="M68 51q5 26 25 44t46 18t41 -18t10 -44q-4 -26 -25.5 -43.5t-47.5 -17.5t-40 17.5t-9 43.5zM172 418l180 1016h41l-180 -1016h-41z" />
<glyph unicode="&#x22;" horiz-adv-x="737" d="M225 922l86 512h51l-94 -512h-43zM543 922l86 512h51l-94 -512h-43z" />
<glyph unicode="#" horiz-adv-x="1458" d="M102 410l7 41h307l94 532h-307l6 41h309l72 410h41l-72 -410h451l71 410h41l-71 -410h305l-6 -41h-308l-94 -532h307l-6 -41h-309l-72 -410h-41l72 410h-450l-72 -410h-41l72 410h-306zM457 451h450l94 532h-450z" />
<glyph unicode="$" horiz-adv-x="1243" d="M63 150l35 28q54 -69 156.5 -108t232.5 -39q197 0 329.5 87.5t158.5 241.5q13 75 -6.5 133t-63 95.5t-104 66.5t-129 51.5l-137 45t-129 52t-104 67.5t-63 97.5t-6.5 135.5q29 156 160 246.5t326 93.5l43 246h43l-43 -246q125 -4 221.5 -46.5t146.5 -113.5l-34 -29 q-50 69 -149.5 108.5t-223.5 39.5q-180 0 -302 -80.5t-147 -218.5q-12 -70 8.5 -123.5t65 -88t105 -61.5t129.5 -49t137 -44.5t128 -53.5t103.5 -71.5t62.5 -103t5 -142.5q-29 -168 -169 -269.5t-345 -107.5l-43 -246h-43l43 246q-132 3 -236.5 45t-161.5 115z" />
<glyph unicode="%" horiz-adv-x="1751" d="M221 4l1270 1450l31 -24l-1270 -1450zM240 1143q23 133 123 220t231 87t202 -88t46 -221q-23 -132 -124 -218.5t-231 -86.5q-132 0 -202 87t-45 220zM279 1141q-20 -116 41 -190t176 -74q114 0 199.5 73.5t105.5 190.5q22 116 -37.5 192t-173.5 76t-201.5 -76 t-109.5 -192zM911 307q23 134 124 220.5t233 86.5q131 0 201 -87t47 -220q-25 -134 -126 -220.5t-231 -86.5q-132 0 -202.5 87t-45.5 220zM952 307q-22 -116 39 -191t176 -75q114 0 200 74.5t108 191.5q20 116 -39.5 191t-173.5 75t-202 -75.5t-108 -190.5z" />
<glyph unicode="&#x26;" horiz-adv-x="1363" d="M80 352q11 63 41 120.5t67 101t91.5 86.5t103 73t113.5 66q-143 211 -113 372q22 121 116 197t220 76q130 0 203 -77t51 -193q-6 -38 -24 -73.5t-36.5 -62t-57.5 -59.5t-61.5 -50.5t-77.5 -50t-76.5 -44.5t-84.5 -46q56 -72 84 -106l322 -393q103 144 145 373h41 q-43 -238 -160 -406l193 -236l-35 -30l-187 229q-192 -229 -501 -229q-203 0 -304.5 98t-72.5 264zM121 356q-26 -149 67 -237t277 -88q291 0 467 219l-324 397q-53 66 -92 121q-64 -35 -109.5 -62.5t-98 -68t-87.5 -80t-62.5 -91.5t-37.5 -110zM424 1169q-24 -153 111 -348 q8 4 24 13q51 27 76.5 41.5t69.5 41t68 44.5t56 45t49.5 51t32.5 54.5t21 62.5q19 98 -43.5 163.5t-173.5 65.5q-110 0 -191 -65.5t-100 -168.5z" />
<glyph unicode="'" horiz-adv-x="419" d="M225 922l86 512h51l-94 -512h-43z" />
<glyph unicode="(" horiz-adv-x="686" d="M129 383q1 135 27 283t72 282.5t99 231.5t111.5 180t111.5 136.5t95.5 91.5t68.5 54l25 17l27 -29q-9 -5 -25.5 -16t-65 -51.5t-94.5 -88.5t-107 -131t-110.5 -176t-95 -224.5t-71.5 -276.5q-34 -212 -24 -372.5t50.5 -273.5t85.5 -183.5t81 -102.5l36 -33l-37 -29 q-8 6 -20.5 17t-47.5 53.5t-65 93t-62 136t-49 181t-16 230.5z" />
<glyph unicode=")" horiz-adv-x="686" d="M-96 -299q9 5 25.5 16t65 51.5t94.5 89t107 131t110.5 176t95 225t71.5 276.5q20 114 25 219.5t-3.5 188t-25.5 157t-40 129.5t-48 101t-49.5 76.5t-44 52t-31.5 30.5l-12 10l35 29q8 -6 20.5 -17t47.5 -53.5t65 -92.5t62 -135.5t49.5 -181t17 -230.5t-26.5 -283 t-72.5 -282.5t-100 -231.5t-112 -180t-111.5 -137t-96 -92t-68 -55l-26 -16z" />
<glyph unicode="*" horiz-adv-x="946" d="M236 1243l28 49l273 -100l49 303h51l-57 -307l307 98l8 -49l-311 -90l139 -246l-47 -31l-133 252l-224 -250l-34 31l227 248z" />
<glyph unicode="+" horiz-adv-x="1228" d="M164 594v41h430v430h41v-430h430v-41h-430v-430h-41v430h-430z" />
<glyph unicode="," horiz-adv-x="491" d="M-47 -303l194 438l48 -14l-209 -432z" />
<glyph unicode="-" horiz-adv-x="819" d="M176 553l6 41h410l-6 -41h-410z" />
<glyph unicode="." horiz-adv-x="491" d="M68 51q5 26 25 44t46 18t41 -18t10 -44q-4 -26 -25.5 -43.5t-47.5 -17.5t-40 17.5t-9 43.5z" />
<glyph unicode="/" horiz-adv-x="739" d="M-178 -293l1040 1931l37 -14l-1040 -1931z" />
<glyph unicode="0" d="M164 717q55 316 239.5 521.5t411.5 205.5q150 0 252.5 -93t140 -259.5t0.5 -374.5q-55 -316 -239.5 -521.5t-411.5 -205.5q-150 0 -252.5 93t-140 259.5t-0.5 374.5zM204 364q34 -157 128.5 -245t232.5 -88q209 0 379 194t223 492q35 196 1 353t-128.5 245t-232.5 88 q-209 0 -379 -194t-223 -492q-35 -196 -1 -353z" />
<glyph unicode="1" horiz-adv-x="933" d="M211 1100l502 334h41l-254 -1434h-41l246 1382l-476 -315z" />
<glyph unicode="2" horiz-adv-x="1204" d="M18 0l7 41q43 57 118.5 122.5t160.5 126.5t180 128.5t183 140t163 149t127.5 166.5t68.5 183q29 162 -61 254t-271 92q-130 0 -243.5 -49.5t-190.5 -139.5l-24 29q84 96 205.5 148.5t260.5 52.5q197 0 297 -104t68 -283q-17 -96 -69.5 -189.5t-127.5 -172t-162.5 -152 t-182 -141t-178.5 -127t-159.5 -121.5t-117.5 -113h852l-9 -41h-895z" />
<glyph unicode="3" horiz-adv-x="1157" d="M31 190l32 29q43 -90 134 -139t215 -49q183 0 319 99t162 251q26 151 -74.5 248.5t-283.5 97.5h-82l6 41h82q165 0 288 91t148 235q25 138 -63.5 223.5t-258.5 85.5q-125 0 -233 -49.5t-182 -139.5l-25 29q80 96 197 148.5t252 52.5q187 0 284.5 -96.5t69.5 -253.5 q-22 -123 -110.5 -215t-217.5 -129q135 -37 202 -136t42 -233q-29 -170 -180 -280.5t-351 -110.5q-133 0 -229.5 52t-142.5 148z" />
<glyph unicode="4" horiz-adv-x="1353" d="M84 385l8 41l1000 1008h41l-179 -1008h226l-9 -41h-225l-67 -385h-41l67 385h-821zM145 426h768l168 944z" />
<glyph unicode="5" horiz-adv-x="1116" d="M12 201l33 28q40 -94 130 -146t214 -52q184 0 322.5 109t167.5 278q29 166 -67.5 273.5t-274.5 107.5h-340l112 635h701l-9 -41h-659l-96 -553h299q195 0 301 -119t74 -303q-32 -187 -184.5 -307.5t-354.5 -120.5q-133 0 -229.5 55.5t-139.5 155.5z" />
<glyph unicode="6" horiz-adv-x="1198" d="M113 430q27 150 135 291l547 713h47l-498 -650q131 86 287 86q192 0 294 -124t68 -316t-180 -316t-338 -124t-294 124t-68 316zM154 430q-31 -173 62.5 -286t266.5 -113t305.5 113t163.5 286t-61.5 286t-265.5 113t-306.5 -113t-164.5 -286z" />
<glyph unicode="7" horiz-adv-x="1189" d="M252 0l846 1393h-836l8 41h883l-8 -41l-848 -1393h-45z" />
<glyph unicode="8" horiz-adv-x="1290" d="M104 379q23 133 128.5 232.5t259.5 138.5q-122 36 -183 126t-39 209q28 156 170 257.5t334 101.5t298.5 -102t78.5 -257q-22 -120 -114 -210t-228 -127q140 -37 210.5 -136t47.5 -233q-29 -169 -185.5 -279t-365.5 -110t-325 110t-87 279zM145 379q-26 -151 80.5 -249.5 t298.5 -98.5t334 98.5t168 249.5t-80.5 249.5t-298.5 98.5t-334 -98.5t-168 -249.5zM311 1085q-25 -137 72 -227t270 -90t302.5 90t154.5 227q23 137 -74 227.5t-270 90.5t-302.5 -90.5t-152.5 -227.5z" />
<glyph unicode="9" horiz-adv-x="1177" d="M195 1004q34 192 180 316t338 124t294 -124t68 -316q-28 -155 -135 -291l-567 -713h-47l514 645q-132 -82 -283 -82q-192 0 -294 124.5t-68 316.5zM236 1004q-31 -173 61.5 -286.5t265.5 -113.5t306.5 113.5t164.5 286.5t-62.5 286t-266.5 113t-305.5 -113t-163.5 -286z " />
<glyph unicode=":" horiz-adv-x="491" d="M68 51q5 26 25 44t46 18t41 -18t10 -44q-4 -26 -25.5 -43.5t-47.5 -17.5t-40 17.5t-9 43.5zM229 973q4 26 25 43.5t47 17.5t40.5 -17.5t10.5 -43.5q-5 -26 -25 -44t-46 -18t-41 18t-11 44z" />
<glyph unicode=";" horiz-adv-x="491" d="M-55 -303l194 438l47 -14l-209 -432zM229 973q4 26 25 43.5t47 17.5t40.5 -17.5t10.5 -43.5q-5 -26 -25 -44t-46 -18t-41 18t-11 44z" />
<glyph unicode="&#x3c;" horiz-adv-x="1228" d="M164 594v41l901 389v-45l-846 -365l846 -364v-45z" />
<glyph unicode="=" horiz-adv-x="1228" d="M164 369v41h901v-41h-901zM164 819v41h901v-41h-901z" />
<glyph unicode="&#x3e;" horiz-adv-x="1228" d="M164 205v45l846 364l-846 365v45l901 -389v-41z" />
<glyph unicode="?" horiz-adv-x="1069" d="M215 1243q78 95 191.5 148t242.5 53q177 0 263.5 -97.5t58.5 -261.5q-13 -72 -44 -126.5t-72 -89t-88 -64.5t-94 -62t-88 -71.5t-73 -104t-45 -149.5h-41q13 79 39.5 142t60.5 102.5t75 74t81.5 57.5t80.5 52t73 58.5t58 76.5t36 106q25 144 -52 230t-235 86 q-118 0 -223.5 -49.5t-179.5 -139.5zM328 51q5 26 25 44t46 18t41 -18t11 -44t-25.5 -43.5t-48.5 -17.5q-26 0 -40 17.5t-9 43.5z" />
<glyph unicode="@" horiz-adv-x="1757" d="M86 506q38 211 164.5 378.5t317.5 261t411 93.5q213 0 368.5 -85.5t225 -239t35.5 -347.5q-32 -182 -131.5 -303t-214.5 -121q-75 0 -113 55.5t-27 143.5q-61 -92 -156 -145.5t-206 -53.5q-160 0 -246.5 104.5t-58.5 264.5q29 160 152 264.5t282 104.5q111 0 188 -53 t105 -144l32 186h41l-90 -510q-12 -78 15.5 -127t89.5 -49q96 0 182 110t115 273q24 137 -8.5 255t-112 200t-202 129t-273.5 47q-208 0 -388.5 -88.5t-300 -246.5t-155.5 -357q-35 -193 24 -348.5t197 -243.5t330 -88q177 0 334 74l18 -35q-174 -80 -358 -80 q-204 0 -351 93t-209.5 258t-25.5 370zM496 512q-25 -143 51.5 -235.5t218.5 -92.5q141 0 248.5 92.5t132.5 235.5q26 143 -48 235.5t-216 92.5t-251.5 -92.5t-135.5 -235.5z" />
<glyph unicode="A" horiz-adv-x="1437" d="M-45 0l868 1434h45l361 -1434h-45l-109 434h-811l-264 -434h-45zM287 473h778l-229 907z" />
<glyph unicode="B" horiz-adv-x="1480" d="M119 0l254 1434h618q169 0 261 -100q71 -76 72 -184q0 -33 -7 -69q-22 -122 -109.5 -213t-214.5 -125q141 -19 215 -120q55 -75 55 -176q0 -34 -6 -72q-29 -163 -158 -269t-298 -106h-682zM168 41h641q152 0 267 95t141 243q6 36 6 68q1 102 -61 175q-82 95 -234 95h-641 zM295 758h577q152 0 265.5 89.5t138.5 227.5q6 32 6 61q0 98 -64 167q-83 90 -235 90h-577z" />
<glyph unicode="C" horiz-adv-x="1499" d="M164 717q36 208 154 374.5t291.5 259.5t369.5 93q153 0 272.5 -57.5t194.5 -163.5l-39 -27q-70 99 -182 153t-254 54q-184 0 -347 -88t-273.5 -245t-145.5 -353q-14 -76 -13 -146q0 -111 34 -207q56 -157 187.5 -245t315.5 -88q143 0 274.5 53.5t235.5 151.5l25 -27 q-108 -104 -249.5 -161.5t-293.5 -57.5q-196 0 -336 93t-199 259q-36 102 -36 221q0 74 14 154z" />
<glyph unicode="D" horiz-adv-x="1560" d="M119 0l254 1434h465q196 0 336 -92t200 -256q37 -101 37 -218q0 -73 -14 -151q-37 -205 -154 -369t-290 -256t-369 -92h-465zM168 41h424q184 0 346.5 87t272.5 241.5t145 347.5q13 74 13 142q-1 109 -35 205q-56 154 -188.5 241.5t-316.5 87.5h-423z" />
<glyph unicode="E" horiz-adv-x="1402" d="M119 0l254 1434h973l-9 -41h-931l-115 -650h850l-6 -41h-850l-117 -661h932l-8 -41h-973z" />
<glyph unicode="F" horiz-adv-x="1361" d="M119 0l254 1434h973l-9 -41h-931l-115 -650h850l-6 -41h-850l-125 -702h-41z" />
<glyph unicode="G" horiz-adv-x="1558" d="M164 717q37 208 155.5 374.5t295 259.5t376.5 93q155 0 277 -57.5t198 -163.5l-39 -27q-72 98 -186 152.5t-258 54.5q-141 0 -272.5 -51.5t-233.5 -142t-174 -218t-98 -274.5q-13 -71 -13 -138q0 -71 14 -137q28 -127 99.5 -217.5t186 -142t256.5 -51.5q141 0 272.5 50.5 t236.5 143.5l78 451h-471l6 41h514l-90 -508q-110 -104 -254.5 -161.5t-300.5 -57.5q-152 0 -273 54.5t-196.5 150.5t-103.5 231q-15 69 -15 144q0 71 13 147z" />
<glyph unicode="H" horiz-adv-x="1617" d="M119 0l254 1434h41l-123 -691h1044l123 691h41l-254 -1434h-41l125 702h-1044l-125 -702h-41z" />
<glyph unicode="I" horiz-adv-x="532" d="M119 0l254 1434h41l-254 -1434h-41z" />
<glyph unicode="J" horiz-adv-x="1216" d="M16 229l41 21q29 -101 120.5 -160t221.5 -59q182 0 320.5 110t167.5 279l180 1014h41l-180 -1014q-32 -187 -184.5 -308.5t-352.5 -121.5q-143 0 -241 64t-134 175z" />
<glyph unicode="K" horiz-adv-x="1382" d="M119 0l254 1434h41l-160 -908l1059 908h57l-717 -613l490 -821h-51l-471 793l-377 -324l-84 -469h-41z" />
<glyph unicode="L" horiz-adv-x="1300" d="M119 0l254 1434h41l-246 -1393h911l-8 -41h-952z" />
<glyph unicode="M" horiz-adv-x="1785" d="M119 0l254 1434h47l407 -1082l793 1082h47l-254 -1434h-41l242 1360l-770 -1053h-45l-398 1053l-241 -1360h-41z" />
<glyph unicode="N" horiz-adv-x="1617" d="M119 0l254 1434h41l803 -1366l241 1366h41l-254 -1434h-41l-803 1366l-241 -1366h-41z" />
<glyph unicode="O" horiz-adv-x="1699" d="M164 717q36 208 154 374.5t291.5 259.5t369.5 93t336 -93t199 -259q36 -102 37 -221q0 -74 -15 -154q-36 -208 -154 -374.5t-291.5 -259.5t-369.5 -93t-336 93t-199 259q-36 102 -36 221q0 74 14 154zM205 717q-14 -76 -13 -146q0 -111 34 -207q56 -157 187.5 -245 t315.5 -88t347 88t273.5 245t145.5 353q14 76 14 146q-1 111 -35 207q-56 157 -187.5 245t-315.5 88t-347 -88t-273.5 -245t-145.5 -353z" />
<glyph unicode="P" horiz-adv-x="1376" d="M119 0l254 1434h588q183 0 281 -116q73 -87 73 -209q0 -40 -8 -85q-31 -178 -170 -294t-322 -116h-547l-108 -614h-41zM276 655h547q164 0 289.5 104.5t153.5 264.5q7 39 7 75q1 111 -67 189q-90 104 -254 105h-546z" />
<glyph unicode="Q" horiz-adv-x="1699" d="M164 717q36 208 154 374.5t291.5 259.5t369.5 93t336 -93t199 -259q36 -103 36 -221q0 -74 -14 -154q-36 -205 -151 -369.5t-281 -257.5l227 -350l-35 -27l-231 357q-166 -80 -344 -80q-196 0 -336 93t-199 259q-36 103 -36 221q0 74 14 154zM205 717q-14 -76 -14 -146 q0 -111 35 -207q55 -157 187 -245t316 -88t347 88t273.5 245t145.5 353q14 76 14 146q0 111 -35 207q-55 157 -187 245t-316 88t-347 -88t-273.5 -245t-145.5 -353z" />
<glyph unicode="R" horiz-adv-x="1431" d="M119 0l254 1434h588q183 0 282 -110q75 -84 76 -203q0 -37 -8 -77q-28 -159 -153 -267t-294 -120l318 -657h-49l-318 655h-539l-116 -655h-41zM283 696h546q164 0 289.5 98.5t151.5 249.5q7 36 7 68q0 106 -70 182q-91 99 -255 99h-546z" />
<glyph unicode="S" horiz-adv-x="1243" d="M63 150l35 28q54 -69 156.5 -108t232.5 -39q197 0 329.5 87.5t158.5 241.5q5 30 5 57q0 41 -12 76q-20 58 -63 95.5t-103.5 66.5t-129 51.5l-137 45t-129 52t-104.5 67.5q-42 37 -62 97q-12 36 -12 78q0 28 5 58q29 158 163.5 249t334.5 91q136 0 242 -42.5t157 -117.5 l-34 -29q-50 69 -149.5 108.5t-223.5 39.5q-180 0 -302 -80.5t-147 -218.5q-4 -26 -4 -49q0 -41 12 -75q20 -54 65 -88t105.5 -61t129.5 -49t137 -44.5t128 -53.5t103.5 -71.5t62.5 -102.5q11 -36 11 -78q0 -31 -6 -65q-31 -174 -178.5 -275.5t-362.5 -101.5 q-137 0 -246 42.5t-168 117.5z" />
<glyph unicode="T" horiz-adv-x="1433" d="M221 1393l8 41h1229l-8 -41h-594l-246 -1393h-41l246 1393h-594z" />
<glyph unicode="U" horiz-adv-x="1576" d="M190 461l172 973h41l-172 -973q-7 -40 -7 -77q0 -136 97 -232q124 -122 347 -121.5t388 121.5t199 309l172 973h41l-172 -973q-23 -134 -113.5 -242t-228 -168.5t-295.5 -60.5q-239 0 -371 134q-105 106 -105 255q0 39 7 82z" />
<glyph unicode="V" horiz-adv-x="1458" d="M229 1434h45l338 -1381l826 1381h45l-858 -1434h-45z" />
<glyph unicode="W" horiz-adv-x="2011" d="M229 1434h43l179 -1364l659 1364h45l178 -1364l660 1364h43l-695 -1434h-43l-178 1366l-661 -1366h-43z" />
<glyph unicode="X" horiz-adv-x="1402" d="M-14 0l692 729l-418 705h51l400 -670l635 670h51l-668 -705l434 -729h-51l-414 696l-661 -696h-51z" />
<glyph unicode="Y" horiz-adv-x="1343" d="M209 1434h49l401 -787l680 787h50l-717 -828l-107 -606h-41l107 606z" />
<glyph unicode="Z" horiz-adv-x="1325" d="M57 0l9 41l1144 1352h-886l8 41h936l-8 -41l-1145 -1352h907l-8 -41h-957z" />
<glyph unicode="[" horiz-adv-x="675" d="M45 -307l342 1945h348l-6 -41h-309l-326 -1863h305l-6 -41h-348z" />
<glyph unicode="\" horiz-adv-x="739" d="M160 1624l41 14l360 -1931l-41 -14z" />
<glyph unicode="]" horiz-adv-x="675" d="M-78 -307l6 41h310l325 1863h-305l6 41h348l-342 -1945h-348z" />
<glyph unicode="^" horiz-adv-x="1228" d="M225 1057l389 387l387 -387l-30 -31l-357 356l-358 -356z" />
<glyph unicode="_" horiz-adv-x="614" d="M0 -143h614v-41h-614v41z" />
<glyph unicode="`" horiz-adv-x="622" d="M344 1739l47 33l199 -318l-33 -20z" />
<glyph unicode="a" d="M106 512q40 227 208 374.5t386 147.5q160 0 268.5 -83.5t137.5 -225.5l53 299h41l-180 -1024h-41l53 299q-80 -142 -218 -225.5t-298 -83.5q-218 0 -334 148q-86 110 -86 263q0 53 10 111zM147 512q-10 -54 -9 -103q0 -141 79 -242q107 -136 307 -136q198 0 352 136 t191 345q10 54 10 103q0 141 -79 242q-106 136 -304 136q-200 0 -355 -136t-192 -345z" />
<glyph unicode="b" d="M98 0l264 1495h41l-135 -768q80 141 217 224t297 83q218 0 334 -148q86 -110 87 -263q0 -53 -11 -111q-40 -227 -208 -374.5t-386 -147.5q-161 0 -268 83t-137 224l-54 -297h-41zM231 512q-10 -54 -10 -103q0 -141 79 -242q106 -136 306 -136t354 136t191 345 q10 54 10 103q0 141 -79 242q-106 136 -306 136q-199 0 -353.5 -136t-191.5 -345z" />
<glyph unicode="c" horiz-adv-x="1120" d="M106 512q41 227 211.5 374.5t391.5 147.5q200 0 313 -119l-33 -28q-109 106 -287 106q-203 0 -360.5 -136t-194.5 -345q-9 -53 -9 -101q0 -142 82 -244q110 -136 312 -136q181 0 324 106l25 -28q-157 -119 -357 -119q-222 0 -340 148q-89 110 -88 264q0 53 10 110z" />
<glyph unicode="d" d="M106 512q40 227 208 374.5t386 147.5q161 0 269 -83.5t139 -225.5l135 770h41l-264 -1495h-41l53 299q-80 -141 -218.5 -225t-297.5 -84q-218 0 -334 148q-86 110 -86 263q0 53 10 111zM147 512q-10 -54 -9 -103q0 -141 79 -242q107 -136 307 -136q198 0 352 136t191 345 q10 54 10 104q-1 141 -79 241q-106 136 -304 136q-200 0 -355 -136t-192 -345z" />
<glyph unicode="e" horiz-adv-x="1257" d="M109 518q38 221 204 368.5t377 147.5q97 0 181 -38t139 -102.5t79 -153.5q14 -52 14 -107q0 -39 -7 -80q-6 -40 -13 -47h-936q-8 -47 -8 -90q0 -146 91 -250q118 -135 329 -135q107 0 205 36.5t170 102.5l29 -27q-80 -73 -187.5 -113t-226.5 -40q-231 0 -356 148 q-94 112 -94 271q0 52 10 109zM154 547h899q5 37 5 72q0 145 -84 247q-104 126 -290 127q-184 0 -334 -126t-196 -320z" />
<glyph unicode="f" horiz-adv-x="778" d="M137 -307l228 1290h-226l6 41h226l30 166q26 146 140 230.5t284 84.5l-8 -41q-152 0 -252.5 -73.5t-122.5 -200.5l-30 -166h327l-6 -41h-327l-228 -1290h-41z" />
<glyph unicode="g" d="M55 -342l33 29q48 -61 126 -94t175 -33q223 0 392 136t206 345l45 258q-80 -142 -218 -225.5t-298 -83.5q-218 0 -334 148q-86 109 -86 263q0 53 10 111q40 227 208 374.5t386 147.5q160 0 268.5 -83.5t137.5 -225.5l53 299h41l-172 -983q-27 -150 -118.5 -269 t-229.5 -186t-297 -67q-107 0 -192 36.5t-136 102.5zM147 512q-10 -54 -10 -103q0 -141 80 -242q107 -136 307 -136q198 0 352 136t191 345q10 54 10 103q0 141 -79 242q-106 136 -304 136q-200 0 -355 -136t-192 -345z" />
<glyph unicode="h" d="M98 0l264 1495h41l-129 -723q76 121 205 191.5t279 70.5q195 0 299 -114q80 -88 80 -213q0 -37 -7 -78l-110 -629h-41l111 629q6 36 6 69q0 112 -73 192q-95 102 -271 103q-186 0 -330 -113.5t-178 -287.5l-105 -592h-41z" />
<glyph unicode="i" horiz-adv-x="491" d="M98 0l181 1024h40l-180 -1024h-41zM303 1393q4 26 25.5 43.5t48.5 17.5q26 0 40 -17.5t9 -43.5t-25.5 -44t-46.5 -18t-41 18t-10 44z" />
<glyph unicode="j" horiz-adv-x="491" d="M-313 -481l6 41q154 0 255 79t126 218l205 1167h40l-204 -1167q-29 -161 -141 -249.5t-287 -88.5zM303 1393q4 26 25.5 43.5t48.5 17.5q26 0 40 -17.5t9 -43.5t-25.5 -44t-46.5 -18t-41 18t-10 44z" />
<glyph unicode="k" horiz-adv-x="1064" d="M98 0l264 1495h41l-186 -1063l725 592h55l-555 -457l414 -567h-53l-395 539l-201 -164l-68 -375h-41z" />
<glyph unicode="l" horiz-adv-x="491" d="M98 0l264 1495h41l-264 -1495h-41z" />
<glyph unicode="m" horiz-adv-x="2068" d="M98 0l181 1024h40l-43 -242q71 116 188 184t251 68q145 0 236.5 -76t99.5 -200q70 127 190.5 201.5t261.5 74.5q171 0 265 -103q73 -79 74 -192q0 -33 -7 -69l-119 -670h-41l119 670q6 32 6 62q0 100 -64 170q-84 91 -237 91q-164 0 -292.5 -104.5t-168.5 -267.5 l-110 -621h-41l119 670q6 32 6 62q0 100 -64 170q-84 91 -237 91q-161 0 -289 -100t-172 -260l-111 -633h-41z" />
<glyph unicode="n" d="M98 0l103 584q2 4 2 12l76 428h40l-43 -248q76 119 204 188.5t278 69.5q195 0 299 -114q80 -88 80 -213q0 -37 -7 -78l-110 -629h-41l111 629q6 36 6 69q0 112 -73 192q-95 102 -273 103q-173 0 -311 -97t-185 -251l-115 -645h-41z" />
<glyph unicode="o" horiz-adv-x="1290" d="M106 512q41 227 208.5 374.5t385.5 147.5q144 0 247 -67t147 -187q27 -74 27 -158q0 -53 -11 -110q-40 -227 -208 -374.5t-386 -147.5t-334 148q-86 110 -86 263q0 53 10 111zM147 512q-10 -54 -9 -103q0 -141 79 -242q107 -136 307 -136t354 136t191 345q10 54 10 103 q0 141 -79 242q-106 136 -306 136t-355 -136t-192 -345z" />
<glyph unicode="p" d="M16 -471l263 1495h40l-53 -299q83 143 220 226t296 83q218 0 334 -148q86 -109 86 -263q0 -53 -10 -111q-40 -227 -208 -374.5t-386 -147.5q-159 0 -266.5 83t-138.5 224l-136 -768h-41zM231 512q-10 -54 -10 -103q0 -141 79 -242q106 -136 306 -136t354 136t191 345 q10 54 10 103q0 141 -79 242q-106 136 -306 136q-199 0 -353.5 -136t-191.5 -345z" />
<glyph unicode="q" d="M106 512q40 227 208 374.5t386 147.5q161 0 268.5 -83.5t137.5 -225.5l53 299h41l-262 -1495h-41l135 772q-80 -143 -218 -227t-298 -84q-218 0 -334 148q-86 109 -86 263q0 53 10 111zM147 512q-10 -54 -10 -103q0 -141 80 -242q107 -136 307 -136q198 0 352 136 t191 345q10 54 10 104q0 140 -79 241q-105 136 -304 136q-200 0 -355 -136t-192 -345z" />
<glyph unicode="r" horiz-adv-x="892" d="M98 0l181 1024h40l-45 -262q80 126 227 199t324 73l-6 -41q-208 0 -365.5 -102.5t-203.5 -265.5l-111 -625h-41z" />
<glyph unicode="s" horiz-adv-x="1007" d="M18 129l35 29q42 -61 125 -94t197 -33q155 0 256.5 60t120.5 165q3 18 3 35q-1 29 -11 55q-16 40 -51 66t-83 46t-102.5 36.5t-108.5 33t-101.5 38.5t-82.5 50t-51 72q-10 27 -10 57q0 19 4 41q20 115 124 181.5t259 66.5q113 0 199.5 -36t136.5 -103l-33 -29 q-97 127 -307 127q-136 0 -228.5 -56t-109.5 -151q-3 -16 -3 -30q0 -36 16 -66q22 -42 66 -66t102 -46t119.5 -38t119 -40.5t101.5 -53.5q44 -30 64 -78q13 -32 13 -69q0 -20 -4 -43q-22 -124 -136.5 -195t-287.5 -71q-122 0 -212.5 36.5t-138.5 102.5z" />
<glyph unicode="t" horiz-adv-x="839" d="M129 983l6 41h225l48 266h41l-48 -266h349l-7 -41h-348l-131 -747q-4 -23 -4 -43q0 -59 37 -99q50 -52 152 -53q71 0 133 20l-9 -41q-62 -20 -137 -20q-119 0 -176 63q-42 47 -42 119q0 25 5 54l131 747h-225z" />
<glyph unicode="u" d="M168 395l111 629h40l-110 -629q-7 -41 -7 -78q0 -114 67 -188q89 -98 270 -98q184 0 325.5 102t184.5 264l110 627h41l-180 -1024h-41l45 254q-76 -121 -208.5 -192.5t-287.5 -71.5q-196 0 -294 109q-73 82 -74 208q0 42 8 88z" />
<glyph unicode="v" horiz-adv-x="1171" d="M135 1024h45l287 -977l631 977h45l-662 -1024h-45z" />
<glyph unicode="w" horiz-adv-x="1601" d="M135 1024h43l160 -961l493 961h46l159 -961l494 961h43l-529 -1024h-43l-157 965l-498 -965h-43z" />
<glyph unicode="x" horiz-adv-x="1128" d="M-25 0l529 518l-338 506h53l318 -475l479 475h53l-512 -506l342 -518h-53l-322 487l-495 -487h-54z" />
<glyph unicode="y" d="M96 -342l33 29q100 -127 311 -127q215 0 360.5 127.5t186.5 353.5l43 252q-78 -140 -213 -221.5t-301 -81.5q-195 0 -288 111q-67 81 -67 209q0 47 9 100l109 614h40l-108 -614q-8 -48 -8 -90q0 -115 61 -188q84 -101 262 -101q195 0 340 119t195 311l98 563h41 l-172 -983q-44 -246 -202 -384t-392 -138q-231 0 -338 139z" />
<glyph unicode="z" horiz-adv-x="1095" d="M6 0l8 41l932 942h-760l7 41h813l-7 -41l-931 -942h776l-8 -41h-830z" />
<glyph unicode="{" horiz-adv-x="839" d="M172 645l6 41q90 0 157.5 52.5t80.5 133.5l90 508q20 113 105.5 185.5t197.5 72.5h90l-6 -41h-90q-94 0 -166.5 -61.5t-89.5 -155.5l-90 -508q-12 -74 -67 -130t-134 -76q71 -20 106 -76t23 -131l-90 -508q-17 -94 33.5 -155.5t144.5 -61.5h90l-6 -41h-90q-113 0 -173 73 t-40 185l90 508q14 82 -34.5 134t-137.5 52z" />
<glyph unicode="|" horiz-adv-x="614" d="M287 -307v1945h41v-1945h-41z" />
<glyph unicode="}" horiz-adv-x="839" d="M-78 -307l6 41h90q94 0 166.5 61.5t89.5 155.5l91 508q12 75 67 131t135 76q-72 20 -107.5 75.5t-23.5 130.5l90 508q17 94 -33.5 155.5t-144.5 61.5h-90l6 41h90q113 0 173 -73t40 -185l-90 -508q-14 -82 34.5 -134t137.5 -52l-6 -41q-90 0 -157 -52.5t-80 -133.5 l-91 -508q-20 -113 -105.5 -185.5t-197.5 -72.5h-90z" />
<glyph unicode="~" horiz-adv-x="1228" d="M164 520q0 102 66 169t163 67q51 0 99 -21t86 -51t75.5 -60.5t83 -51.5t92.5 -21q83 0 139 55t56 139h41q0 -102 -67.5 -168.5t-168.5 -66.5q-52 0 -101 21t-87 51t-75 60.5t-81.5 51.5t-91.5 21q-80 0 -134 -55.5t-54 -139.5h-41z" />
<glyph unicode="&#xa1;" horiz-adv-x="491" d="M27 -410l178 1016h41l-178 -1016h-41zM229 973q4 26 25 43.5t47 17.5t40.5 -17.5t10.5 -43.5q-5 -26 -25 -44t-46 -18t-41 18t-11 44z" />
<glyph unicode="&#xa2;" horiz-adv-x="1120" d="M143 717q35 199 190.5 333t364.5 146l43 248h43l-43 -246q197 0 310 -119l-33 -28q-106 106 -287 106q-203 0 -358 -125t-189 -315t77 -315.5t314 -125.5q179 0 324 107l25 -29q-155 -118 -353 -118l-45 -246h-43l45 248q-203 12 -311.5 146t-73.5 333z" />
<glyph unicode="&#xa3;" horiz-adv-x="1146" d="M37 0l8 41q113 106 210.5 261t104.5 282h-182l6 41h176q-3 51 -21.5 114t-36.5 110.5t-29.5 116.5t1.5 132q26 153 150.5 249.5t290.5 96.5q119 0 207.5 -52.5t138.5 -148.5l-33 -29q-46 90 -129 139.5t-192 49.5q-149 0 -259 -85t-133 -222q-13 -60 -1 -127t30.5 -114.5 t37.5 -111.5t21 -118h347l-7 -41h-342q-10 -127 -101 -280.5t-200 -262.5h805l-8 -41h-860z" />
<glyph unicode="&#xa4;" horiz-adv-x="1228" d="M156 289l159 160q-98 112 -98 268t98 268l-157 160l28 29l158 -160q114 100 270 100q158 0 269 -100l159 160l29 -29l-160 -160q101 -112 101 -268q0 -161 -103 -273l160 -159l-29 -29l-159 162q-114 -99 -267 -99q-158 0 -270 101l-160 -160zM258 717q0 -154 101 -255.5 t255 -101.5t255.5 101.5t101.5 255.5t-101.5 255t-255.5 101t-255 -101t-101 -255z" />
<glyph unicode="&#xa5;" horiz-adv-x="1343" d="M139 256l8 41h428l52 287h-428l6 41h416l-412 809h49l401 -787l680 787h50l-701 -809h418l-6 -41h-432l-52 -287h433l-9 -41h-430l-45 -256h-41l45 256h-430z" />
<glyph unicode="&#xa6;" horiz-adv-x="614" d="M287 -307v768h41v-768h-41zM287 870v768h41v-768h-41z" />
<glyph unicode="&#xa7;" horiz-adv-x="1243" d="M59 -158l33 29q49 -69 148.5 -108t224.5 -39q180 0 301.5 75.5t144.5 206.5q22 126 -71 197q-40 32 -105 59t-131 46t-137.5 41t-130.5 51t-104 67t-64.5 97.5t-5.5 135.5q21 135 127 224q-71 77 -51 200q26 149 159.5 234.5t333.5 85.5q136 0 241 -42.5t158 -117.5 l-34 -29q-50 69 -149.5 108.5t-223.5 39.5q-180 0 -300.5 -76t-143.5 -207q-21 -126 71 -196q40 -32 105 -59t131 -46.5t137.5 -41.5t130.5 -50.5t104 -67t64.5 -98t5.5 -135.5q-24 -137 -127 -223q71 -78 49 -201q-26 -149 -158.5 -234t-332.5 -85q-137 0 -243 42t-157 117 zM203 702q-12 -69 7 -123t63.5 -89.5t102 -62.5t127.5 -48.5t134.5 -41.5t129 -48.5t105.5 -61.5q95 82 115 197q14 80 -15.5 140.5t-85.5 95t-135 65t-154.5 51t-154.5 53t-125 70.5q-93 -78 -114 -197z" />
<glyph unicode="&#xa8;" horiz-adv-x="798" d="M309 1536q4 26 25 43.5t47 17.5t40.5 -17.5t10.5 -43.5t-25.5 -43.5t-48.5 -17.5q-26 0 -40 17.5t-9 43.5zM657 1536q4 26 25 43.5t47 17.5t40.5 -17.5t10.5 -43.5t-25.5 -43.5t-47.5 -17.5t-40.5 17.5t-9.5 43.5z" />
<glyph unicode="&#xa9;" horiz-adv-x="1781" d="M164 717q0 197 97.5 364.5t265 265t364.5 97.5t364.5 -97.5t265 -265t97.5 -364.5t-97.5 -364.5t-265 -265t-364.5 -97.5t-364.5 97.5t-265 265t-97.5 364.5zM205 717q0 -186 92 -344t250 -250t344 -92t344 92t250 250t92 344t-92 344t-250 250t-344 92t-344 -92 t-250 -250t-92 -344zM557 717q0 158 97.5 261t248.5 103q158 0 254 -110l-33 -27q-86 96 -221 96q-132 0 -217.5 -91t-85.5 -232q0 -140 85.5 -232t217.5 -92q135 0 221 96l33 -26q-97 -111 -254 -111q-151 0 -248.5 103.5t-97.5 261.5z" />
<glyph unicode="&#xaa;" horiz-adv-x="952" d="M162 1075q28 160 143.5 263.5t267.5 103.5q107 0 180.5 -55t98.5 -150l35 197h41l-127 -717h-41l35 194q-58 -93 -151.5 -147.5t-199.5 -54.5q-152 0 -231 103t-51 263zM201 1075q-25 -141 47 -234t207 -93q133 0 236 93t128 234q25 142 -45.5 235t-204.5 93 q-135 0 -239 -93.5t-129 -234.5z" />
<glyph unicode="&#xab;" horiz-adv-x="989" d="M117 571l372 433l37 -9l-346 -424l197 -424l-41 -8zM465 571l373 433l36 -9l-346 -424l197 -424l-41 -8z" />
<glyph unicode="&#xac;" horiz-adv-x="1228" d="M164 717v41h901v-389h-41v348h-860z" />
<glyph unicode="&#xad;" horiz-adv-x="819" d="M176 553l6 41h410l-6 -41h-410z" />
<glyph unicode="&#xae;" horiz-adv-x="1781" d="M164 717q0 197 97.5 364.5t265 265t364.5 97.5t364.5 -97.5t265 -265t97.5 -364.5t-97.5 -364.5t-265 -265t-364.5 -97.5t-364.5 97.5t-265 265t-97.5 364.5zM205 717q0 -186 92 -344t250 -250t344 -92t344 92t250 250t92 344t-92 344t-250 250t-344 92t-344 -92 t-250 -250t-92 -344zM659 358v717h299q92 0 151.5 -56t59.5 -142q0 -78 -49 -132t-127 -65l201 -322h-47l-201 320h-244v-320h-43zM705 717h256q73 0 120 45.5t47 114.5t-47 114t-120 45h-256v-319z" />
<glyph unicode="&#xaf;" horiz-adv-x="819" d="M301 1495l8 41h492l-8 -41h-492z" />
<glyph unicode="&#xb0;" horiz-adv-x="890" d="M227 1198q25 134 126 220.5t231 86.5q131 0 201.5 -88t45.5 -221q-23 -132 -123.5 -218.5t-230.5 -86.5q-132 0 -202.5 86.5t-47.5 220.5zM268 1196q-20 -116 41 -190t176 -74q114 0 200 73.5t106 190.5q20 116 -39.5 192t-173.5 76t-202 -76t-108 -192z" />
<glyph unicode="&#xb1;" horiz-adv-x="1228" d="M164 164v41h901v-41h-901zM164 799v41h430v430h41v-430h430v-41h-430v-430h-41v430h-430z" />
<glyph unicode="&#xb2;" horiz-adv-x="591" d="M102 922l7 41q27 38 85 84t119.5 89t122 91t104.5 105.5t54 115.5q12 73 -30 114.5t-124 41.5q-126 0 -209 -93l-22 29q91 105 240 105q101 0 152 -53t34 -144q-11 -63 -52.5 -122.5t-100 -108t-117.5 -90t-119 -86t-90 -78.5h407l-6 -41h-455z" />
<glyph unicode="&#xb3;" horiz-adv-x="579" d="M109 1020l36 31q21 -45 64 -70t102 -25q84 0 145.5 45.5t75.5 116.5q12 69 -34 113.5t-129 44.5h-33l8 39h35q74 0 129 41.5t65 105.5q11 63 -30 102.5t-119 39.5q-121 0 -197 -95l-24 31q91 105 231 105q95 0 146.5 -49.5t37.5 -129.5q-10 -58 -50.5 -103t-98.5 -67 q60 -22 88 -69.5t16 -110.5q-15 -88 -91 -144.5t-179 -56.5q-141 0 -194 105z" />
<glyph unicode="&#xb4;" horiz-adv-x="622" d="M295 1454l309 318l35 -33l-320 -305z" />
<glyph unicode="&#xb5;" d="M16 -471l263 1495h40l-110 -629q-29 -168 60 -266t270 -98q182 0 324 101t186 261l110 631h41l-180 -1024h-41l45 252q-77 -121 -209 -191.5t-287 -70.5q-139 0 -230 55.5t-122 157.5l-119 -674h-41z" />
<glyph unicode="&#xb6;" horiz-adv-x="1316" d="M219 1143q37 215 191 355t352 140h41l-342 -1945h-41l168 952q-198 0 -302.5 140.5t-66.5 357.5zM809 -307l342 1945h41l-342 -1945h-41z" />
<glyph unicode="&#xb7;" horiz-adv-x="491" d="M184 717q4 26 25 43.5t47 17.5t40.5 -17.5t10.5 -43.5q-5 -26 -25 -44t-46 -18t-41 18t-11 44z" />
<glyph unicode="&#xb8;" horiz-adv-x="694" d="M-25 -352l33 28q2 -3 6 -8.5t18 -19t30.5 -24t44.5 -19t59 -8.5q57 0 96.5 29.5t48.5 78.5q6 33 -9 58t-40 37t-51 19.5t-45 8.5l-19 2l70 170h41l-57 -139q7 -1 19 -3t41 -12.5t49.5 -26t34.5 -46t7 -68.5q-12 -69 -65.5 -109t-130.5 -40q-36 0 -67.5 9.5t-51.5 23 t-34.5 27t-20.5 22.5z" />
<glyph unicode="&#xb9;" horiz-adv-x="481" d="M209 1475l246 163h41l-125 -716h-41l116 665l-219 -145z" />
<glyph unicode="&#xba;" horiz-adv-x="897" d="M162 1075q28 160 144.5 263.5t268.5 103.5q154 0 235.5 -103.5t53.5 -263.5t-146 -263t-272 -103q-152 0 -232 103t-52 263zM201 1075q-25 -141 47 -234t207 -93t239 93t129 234t-47 234.5t-207 93.5t-239 -93.5t-129 -234.5z" />
<glyph unicode="&#xbb;" horiz-adv-x="989" d="M63 147l347 424l-197 424l41 9l217 -433l-371 -432zM412 147l346 424l-197 424l41 9l217 -433l-370 -432z" />
<glyph unicode="&#xbc;" horiz-adv-x="1366" d="M-12 4l1272 1450l28 -24l-1270 -1450zM174 1270l246 164h41l-127 -717h-41l117 665l-217 -145zM664 184l8 41l483 492h43l-86 -492h111l-9 -41h-110l-33 -184h-43l33 184h-397zM723 225h346l76 430z" />
<glyph unicode="&#xbd;" horiz-adv-x="1386" d="M-12 4l1272 1450l28 -24l-1270 -1450zM174 1270l246 164h41l-127 -717h-41l117 665l-217 -145zM733 0l8 41q27 38 85 84t119.5 89t122.5 91t105 105.5t54 115.5q12 73 -30 114.5t-124 41.5q-127 0 -209 -92l-22 28q88 105 239 105q100 0 151 -52.5t36 -144.5 q-10 -53 -42 -104.5t-74.5 -91.5t-95.5 -81.5t-100.5 -73t-94.5 -68.5t-73 -66h408l-8 -41h-455z" />
<glyph unicode="&#xbe;" horiz-adv-x="1464" d="M74 815l35 31q43 -94 165 -94q85 0 147.5 45.5t74.5 115.5q12 69 -33.5 113.5t-128.5 44.5h-33l6 39h35q74 0 129.5 41.5t67.5 105.5q11 63 -30.5 102.5t-119.5 39.5q-121 0 -196 -94l-27 30q91 105 231 105q95 0 146.5 -49.5t38.5 -128.5q-10 -58 -50.5 -103t-99.5 -67 q60 -22 88.5 -69.5t18.5 -111.5q-15 -88 -91.5 -144t-179.5 -56q-142 0 -194 104zM86 4l1272 1450l28 -24l-1269 -1450zM762 184l8 41l483 492h43l-86 -492h111l-8 -41h-111l-33 -184h-43l33 184h-397zM821 225h346l76 430z" />
<glyph unicode="&#xbf;" horiz-adv-x="966" d="M-14 -61q13 72 44 126.5t72 89t88 64.5t93.5 62t87.5 71.5t72 104t44 149.5h41q-13 -79 -39.5 -142t-60.5 -102.5t-74.5 -74t-81 -57.5t-80.5 -52t-72.5 -58.5t-57.5 -76.5t-35 -106q-26 -144 50.5 -230t235.5 -86q118 0 224 50t180 139l22 -29q-78 -96 -191 -148.5 t-241 -52.5q-178 0 -264 97.5t-57 261.5zM506 973q4 26 25 43.5t47 17.5t40.5 -17.5t10.5 -43.5q-5 -26 -25.5 -44t-46.5 -18t-41 18t-10 44z" />
<glyph unicode="&#xc0;" horiz-adv-x="1437" d="M-45 0l868 1434h45l361 -1434h-45l-109 434h-811l-264 -434h-45zM287 473h778l-229 907zM645 1923l47 33l199 -318l-33 -20z" />
<glyph unicode="&#xc1;" horiz-adv-x="1437" d="M-45 0l868 1434h45l361 -1434h-45l-109 434h-811l-264 -434h-45zM287 473h778l-229 907zM836 1638l309 318l35 -33l-320 -305z" />
<glyph unicode="&#xc2;" horiz-adv-x="1437" d="M-45 0l868 1434h45l361 -1434h-45l-109 434h-811l-264 -434h-45zM287 473h778l-229 907zM584 1602l346 313l235 -313l-28 -25l-217 274l-316 -274z" />
<glyph unicode="&#xc3;" horiz-adv-x="1437" d="M-45 0l868 1434h45l361 -1434h-45l-109 434h-811l-264 -434h-45zM287 473h778l-229 907zM606 1608q12 70 62.5 117t109.5 47q36 0 68 -20.5t52 -44.5t49 -44.5t59 -20.5q42 0 78.5 35t45.5 88h41q-12 -70 -61.5 -116.5t-110.5 -46.5q-36 0 -67.5 20t-52 44.5t-49 44.5 t-58.5 20q-42 0 -79 -35t-46 -88h-41z" />
<glyph unicode="&#xc4;" horiz-adv-x="1437" d="M-45 0l868 1434h45l361 -1434h-45l-109 434h-811l-264 -434h-45zM287 473h778l-229 907zM662 1720q5 26 25 44t46 18t41 -18t10 -44q-4 -26 -25.5 -43.5t-47.5 -17.5t-40 17.5t-9 43.5zM1010 1720q5 26 25 44t46 18t41 -18t11 -44t-25.5 -43.5t-48.5 -17.5 q-26 0 -40 17.5t-9 43.5z" />
<glyph unicode="&#xc5;" horiz-adv-x="1437" d="M-45 0l868 1434h45l361 -1434h-45l-109 434h-813l-262 -434h-45zM287 473h778l-229 907zM711 1720q15 80 76.5 132.5t140.5 52.5q80 0 123 -53t28 -132q-14 -80 -75 -132t-140 -52q-80 0 -123 52.5t-30 131.5zM752 1720q-11 -63 22 -103t96 -40t110.5 40t57.5 103 q12 63 -20.5 103.5t-95.5 40.5t-110.5 -40.5t-59.5 -103.5z" />
<glyph unicode="&#xc6;" horiz-adv-x="2033" d="M-45 0l1135 1434h886l-8 -41h-829l-115 -650h748l-7 -41h-747l-117 -661h830l-9 -41h-870l78 434h-584l-344 -434h-47zM377 473h559l160 911z" />
<glyph unicode="&#xc7;" horiz-adv-x="1499" d="M164 717q36 208 154 374.5t291.5 259.5t369.5 93q153 0 272.5 -57.5t194.5 -163.5l-39 -27q-70 99 -182 153t-254 54q-184 0 -347 -88t-273.5 -245t-145.5 -353t20.5 -353t187.5 -245t316 -88q143 0 274.5 53.5t235.5 151.5l25 -27q-106 -102 -243.5 -159t-287.5 -60 l-53 -129q7 -1 19 -3t41 -12.5t49.5 -26t34.5 -46t7 -68.5q-12 -69 -65.5 -109t-130.5 -40q-36 0 -67.5 9.5t-51 23t-34.5 27t-21 22.5l-6 10l32 28q2 -3 6 -8.5t18 -19t30.5 -24t44.5 -19t59 -8.5q57 0 97 29.5t49 78.5q6 33 -9 58t-40 37t-51 19.5t-45 8.5l-19 2l65 160 q-187 7 -320 101.5t-188.5 258.5t-19.5 367z" />
<glyph unicode="&#xc8;" horiz-adv-x="1402" d="M119 0l254 1434h973l-9 -41h-931l-115 -650h850l-6 -41h-850l-117 -661h932l-8 -41h-973zM659 1923l48 33l198 -318l-33 -20z" />
<glyph unicode="&#xc9;" horiz-adv-x="1402" d="M119 0l254 1434h973l-9 -41h-931l-115 -650h850l-6 -41h-850l-117 -661h932l-8 -41h-973zM850 1638l309 318l35 -33l-320 -305z" />
<glyph unicode="&#xca;" horiz-adv-x="1402" d="M119 0l254 1434h973l-9 -41h-931l-115 -650h850l-6 -41h-850l-117 -661h932l-8 -41h-973zM598 1602l346 313l236 -313l-29 -25l-217 274l-316 -274z" />
<glyph unicode="&#xcb;" horiz-adv-x="1402" d="M119 0l254 1434h973l-9 -41h-931l-115 -650h850l-6 -41h-850l-117 -661h932l-8 -41h-973zM676 1720q5 26 25.5 44t46.5 18t41 -18t10 -44q-4 -26 -25.5 -43.5t-48.5 -17.5q-26 0 -40 17.5t-9 43.5zM1024 1720q5 26 25.5 44t46.5 18t41 -18t10 -44q-4 -26 -25.5 -43.5 t-48.5 -17.5q-26 0 -40 17.5t-9 43.5z" />
<glyph unicode="&#xcc;" horiz-adv-x="532" d="M119 0l254 1434h41l-254 -1434h-41zM193 1923l47 33l198 -318l-32 -20z" />
<glyph unicode="&#xcd;" horiz-adv-x="532" d="M119 0l254 1434h41l-254 -1434h-41zM383 1638l309 318l35 -33l-319 -305z" />
<glyph unicode="&#xce;" horiz-adv-x="532" d="M119 0l254 1434h41l-254 -1434h-41zM131 1602l346 313l236 -313l-29 -25l-217 274l-315 -274z" />
<glyph unicode="&#xcf;" horiz-adv-x="532" d="M119 0l254 1434h41l-254 -1434h-41zM209 1720q5 26 25.5 44t46.5 18t41 -18t10 -44q-4 -26 -25.5 -43.5t-48.5 -17.5q-26 0 -40 17.5t-9 43.5zM557 1720q5 26 25.5 44t46.5 18t41 -18t10 -44q-4 -26 -25.5 -43.5t-48.5 -17.5q-26 0 -40 17.5t-9 43.5z" />
<glyph unicode="&#xd0;" horiz-adv-x="1560" d="M37 696l8 41h205l123 697h465q196 0 336.5 -92t200 -256t22.5 -369t-154 -369t-290 -256t-369 -92h-465l123 696h-205zM168 41h424q184 0 346.5 87t272.5 241.5t145 347.5t-21.5 347.5t-189 241.5t-316.5 87h-423l-115 -656h512l-8 -41h-512z" />
<glyph unicode="&#xd1;" horiz-adv-x="1617" d="M119 0l254 1434h41l803 -1366l241 1366h41l-254 -1434h-41l-803 1366l-241 -1366h-41zM696 1608q12 70 62.5 117t109.5 47q36 0 68 -20.5t52 -44.5t49 -44.5t59 -20.5q42 0 79 35t46 88h41q-12 -70 -61.5 -116.5t-110.5 -46.5q-29 0 -55 13.5t-45.5 32t-38.5 37.5 t-41.5 32.5t-47.5 13.5q-42 0 -79 -35t-46 -88h-41z" />
<glyph unicode="&#xd2;" horiz-adv-x="1699" d="M164 717q36 208 154 374.5t291.5 259.5t369.5 93t336 -93t199 -259.5t22 -374.5q-36 -208 -154 -374.5t-291.5 -259.5t-369.5 -93t-336 93t-199 259.5t-22 374.5zM205 717q-35 -196 20.5 -353t187.5 -245t316 -88t347 88t273.5 245t145.5 353t-20.5 353t-187.5 245 t-316 88t-347 -88t-273.5 -245t-145.5 -353zM776 1923l47 33l199 -318l-33 -20z" />
<glyph unicode="&#xd3;" horiz-adv-x="1699" d="M164 717q36 208 154 374.5t291.5 259.5t369.5 93t336 -93t199 -259.5t22 -374.5q-36 -208 -154 -374.5t-291.5 -259.5t-369.5 -93t-336 93t-199 259.5t-22 374.5zM205 717q-35 -196 20.5 -353t187.5 -245t316 -88t347 88t273.5 245t145.5 353t-20.5 353t-187.5 245 t-316 88t-347 -88t-273.5 -245t-145.5 -353zM967 1638l309 318l35 -33l-320 -305z" />
<glyph unicode="&#xd4;" horiz-adv-x="1699" d="M164 717q36 208 154 374.5t291.5 259.5t369.5 93t336 -93t199 -259.5t22 -374.5q-36 -208 -154 -374.5t-291.5 -259.5t-369.5 -93t-336 93t-199 259.5t-22 374.5zM205 717q-35 -196 20.5 -353t187.5 -245t316 -88t347 88t273.5 245t145.5 353t-20.5 353t-187.5 245 t-316 88t-347 -88t-273.5 -245t-145.5 -353zM715 1602l346 313l235 -313l-28 -25l-217 274l-316 -274z" />
<glyph unicode="&#xd5;" horiz-adv-x="1699" d="M164 717q36 208 154 374.5t291.5 259.5t369.5 93t336 -93t199 -259.5t22 -374.5q-36 -208 -154 -374.5t-291.5 -259.5t-369.5 -93t-336 93t-199 259.5t-22 374.5zM205 717q-35 -196 20.5 -353t187.5 -245t316 -88t347 88t273.5 245t145.5 353t-20.5 353t-187.5 245 t-316 88t-347 -88t-273.5 -245t-145.5 -353zM737 1608q12 70 62.5 117t109.5 47q35 0 67.5 -20.5t52.5 -44.5t49 -44.5t59 -20.5q42 0 79 35t46 88h41q-12 -70 -62 -116.5t-111 -46.5q-36 0 -67.5 20t-52 44.5t-49 44.5t-58.5 20q-42 0 -79 -35t-46 -88h-41z" />
<glyph unicode="&#xd6;" horiz-adv-x="1699" d="M164 717q36 208 154 374.5t291.5 259.5t369.5 93t336 -93t199 -259.5t22 -374.5q-36 -208 -154 -374.5t-291.5 -259.5t-369.5 -93t-336 93t-199 259.5t-22 374.5zM205 717q-35 -196 20.5 -353t187.5 -245t316 -88t347 88t273.5 245t145.5 353t-20.5 353t-187.5 245 t-316 88t-347 -88t-273.5 -245t-145.5 -353zM793 1720q5 26 25 44t46 18t41 -18t10 -44q-4 -26 -25.5 -43.5t-47.5 -17.5t-40 17.5t-9 43.5zM1141 1720q5 26 25 44t46 18t41 -18t11 -44t-25.5 -43.5t-48.5 -17.5q-26 0 -40 17.5t-9 43.5z" />
<glyph unicode="&#xd7;" horiz-adv-x="1228" d="M225 260l359 356l-359 357l31 31l358 -357l359 357l31 -31l-359 -357l356 -356l-30 -31l-357 357l-358 -357z" />
<glyph unicode="&#xd8;" horiz-adv-x="1699" d="M143 -61l174 198q-103 98 -144 249t-9 331q36 208 154 374.5t291.5 259.5t369.5 93q224 0 375 -123l153 174h52l-177 -201q104 -98 145 -247t9 -330q-36 -208 -154 -374.5t-291.5 -259.5t-369.5 -93q-224 0 -375 123l-151 -174h-52zM205 717q-30 -169 8 -310t135 -235 l977 1114q-142 117 -354 117q-184 0 -347 -88t-273.5 -245t-145.5 -353zM377 145q139 -114 352 -114q184 0 347 88t273.5 245t145.5 353q30 169 -7.5 310t-133.5 235z" />
<glyph unicode="&#xd9;" horiz-adv-x="1576" d="M190 461l172 973h41l-172 -973q-34 -187 90 -308.5t347 -121.5t388 121t199 309l172 973h41l-172 -973q-23 -134 -113.5 -242t-228 -168.5t-295.5 -60.5q-239 0 -371.5 133.5t-97.5 337.5zM715 1923l47 33l199 -318l-33 -20z" />
<glyph unicode="&#xda;" horiz-adv-x="1576" d="M190 461l172 973h41l-172 -973q-34 -187 90 -308.5t347 -121.5t388 121t199 309l172 973h41l-172 -973q-23 -134 -113.5 -242t-228 -168.5t-295.5 -60.5q-239 0 -371.5 133.5t-97.5 337.5zM905 1638l309 318l35 -33l-319 -305z" />
<glyph unicode="&#xdb;" horiz-adv-x="1576" d="M190 461l172 973h41l-172 -973q-34 -187 90 -308.5t347 -121.5t388 121t199 309l172 973h41l-172 -973q-23 -134 -113.5 -242t-228 -168.5t-295.5 -60.5q-239 0 -371.5 133.5t-97.5 337.5zM653 1602l346 313l236 -313l-29 -25l-217 274l-315 -274z" />
<glyph unicode="&#xdc;" horiz-adv-x="1576" d="M190 461l172 973h41l-172 -973q-34 -187 90 -308.5t347 -121.5t388 121t199 309l172 973h41l-172 -973q-23 -134 -113.5 -242t-228 -168.5t-295.5 -60.5q-239 0 -371.5 133.5t-97.5 337.5zM731 1720q5 26 25.5 44t46.5 18t41 -18t10 -44q-4 -26 -25.5 -43.5t-48.5 -17.5 q-26 0 -40 17.5t-9 43.5zM1079 1720q5 26 25.5 44t46.5 18t41 -18t10 -44q-4 -26 -25.5 -43.5t-48.5 -17.5q-26 0 -40 17.5t-9 43.5z" />
<glyph unicode="&#xdd;" horiz-adv-x="1343" d="M209 1434h49l401 -787l680 787h50l-717 -828l-107 -606h-41l107 606zM788 1638l310 318l35 -33l-320 -305z" />
<glyph unicode="&#xde;" horiz-adv-x="1376" d="M119 0l254 1434h41l-56 -308h547q183 0 281 -115t67 -294q-31 -178 -169.5 -294t-321.5 -116h-547l-55 -307h-41zM221 348h547q164 0 290 104.5t154 264.5t-60.5 264t-252.5 104h-547z" />
<glyph unicode="&#xdf;" horiz-adv-x="1290" d="M98 0l191 1075q32 187 178.5 308.5t337.5 121.5q173 0 267.5 -101.5t66.5 -258.5q-23 -128 -114.5 -224t-209.5 -116q146 -3 221.5 -115t46.5 -278q-32 -181 -164.5 -296.5t-304.5 -115.5h-196l8 41h197q153 0 271.5 104.5t147.5 264.5q28 160 -53.5 264t-236.5 104h-197 l8 41h129q152 0 265.5 90.5t138.5 231.5q26 141 -58 232t-241 91q-172 0 -305 -110.5t-162 -278.5l-191 -1075h-41z" />
<glyph unicode="&#xe0;" d="M106 512q40 227 208 374.5t386 147.5q160 0 268.5 -83.5t137.5 -225.5l53 299h41l-180 -1024h-41l53 299q-80 -142 -218 -225.5t-298 -83.5q-218 0 -334 147.5t-76 374.5zM147 512q-37 -209 70 -345t307 -136q198 0 352 136t191 345t-69 345t-304 136q-200 0 -355 -136 t-192 -345zM500 1513l47 33l198 -317l-32 -21z" />
<glyph unicode="&#xe1;" d="M106 512q40 227 208 374.5t386 147.5q160 0 268.5 -83.5t137.5 -225.5l53 299h41l-180 -1024h-41l53 299q-80 -142 -218 -225.5t-298 -83.5q-218 0 -334 147.5t-76 374.5zM147 512q-37 -209 70 -345t307 -136q198 0 352 136t191 345t-69 345t-304 136q-200 0 -355 -136 t-192 -345zM690 1229l309 317l35 -33l-319 -305z" />
<glyph unicode="&#xe2;" d="M106 512q40 227 208 374.5t386 147.5q160 0 268.5 -83.5t137.5 -225.5l53 299h41l-180 -1024h-41l53 299q-80 -142 -218 -225.5t-298 -83.5q-218 0 -334 147.5t-76 374.5zM147 512q-37 -209 70 -345t307 -136q198 0 352 136t191 345t-69 345t-304 136q-200 0 -355 -136 t-192 -345zM438 1192l346 313l236 -313l-29 -25l-217 275l-315 -275z" />
<glyph unicode="&#xe3;" d="M106 512q40 227 208 374.5t386 147.5q160 0 268.5 -83.5t137.5 -225.5l53 299h41l-180 -1024h-41l53 299q-80 -142 -218 -225.5t-298 -83.5q-218 0 -334 147.5t-76 374.5zM147 512q-37 -209 70 -345t307 -136q198 0 352 136t191 345t-69 345t-304 136q-200 0 -355 -136 t-192 -345zM461 1198q12 70 62.5 117t109.5 47q35 0 67 -20t52.5 -44.5t49 -44.5t58.5 -20q42 0 79 35t46 88h41q-12 -70 -62 -117t-110 -47q-36 0 -67.5 20t-52 44.5t-49 44.5t-58.5 20q-42 0 -79 -35t-46 -88h-41z" />
<glyph unicode="&#xe4;" d="M106 512q40 227 208 374.5t386 147.5q160 0 268.5 -83.5t137.5 -225.5l53 299h41l-180 -1024h-41l53 299q-80 -142 -218 -225.5t-298 -83.5q-218 0 -334 147.5t-76 374.5zM147 512q-37 -209 70 -345t307 -136q198 0 352 136t191 345t-69 345t-304 136q-200 0 -355 -136 t-192 -345zM516 1311q4 26 25 43.5t47 17.5t40.5 -17.5t10.5 -43.5t-26 -44t-48 -18t-40 18t-9 44zM864 1311q4 26 25 43.5t47 17.5t40.5 -17.5t10.5 -43.5t-26 -44t-48 -18t-40 18t-9 44z" />
<glyph unicode="&#xe5;" d="M106 512q40 227 208 374.5t386 147.5q160 0 268.5 -83.5t137.5 -225.5l53 299h41l-180 -1024h-41l53 299q-80 -142 -218 -225.5t-298 -83.5q-218 0 -334 147.5t-76 374.5zM147 512q-37 -209 70 -345t307 -136q198 0 352 136t191 345t-69 345t-304 136q-200 0 -355 -136 t-192 -345zM578 1372q13 79 75 131.5t142 52.5q79 0 122 -52t29 -132q-13 -79 -75 -131.5t-142 -52.5q-79 0 -122 52t-29 132zM618 1372q-11 -63 22.5 -103t96.5 -40t110.5 40t57.5 103q11 63 -22.5 103.5t-96.5 40.5t-110.5 -40.5t-57.5 -103.5z" />
<glyph unicode="&#xe6;" horiz-adv-x="2117" d="M106 274q23 135 149 210t329 75h391l24 141q25 138 -67.5 215.5t-280.5 77.5q-118 0 -203.5 -32t-160.5 -95l-25 29q80 69 174 104t221 35q198 0 300 -81.5t87 -227.5q81 141 216 225t290 84q200 0 320.5 -136.5t87.5 -334.5q-10 -45 -14 -47h-936v-6 q-32 -208 83.5 -343.5t327.5 -135.5q107 0 205 36.5t170 102.5l27 -27q-79 -73 -186 -113t-226 -40q-172 0 -288.5 86t-147.5 233q-31 -140 -175.5 -229.5t-344.5 -89.5q-182 0 -276.5 75.5t-70.5 208.5zM147 274q-21 -114 66 -178.5t250 -64.5q186 0 317 82t154 209l35 196 h-389q-183 0 -298 -65t-135 -179zM1016 557h899q23 193 -81.5 314.5t-289.5 121.5q-186 0 -335 -122t-193 -314z" />
<glyph unicode="&#xe7;" horiz-adv-x="1120" d="M106 512q41 227 211.5 374.5t391.5 147.5q200 0 313 -119l-33 -28q-109 106 -287 106q-203 0 -360.5 -136t-194.5 -345t72.5 -345t312.5 -136q181 0 324 106l25 -28q-147 -113 -342 -119l-54 -129q7 -1 19 -3t41 -12.5t50 -26t35 -46t7 -68.5q-12 -68 -66 -108.5 t-131 -40.5q-36 0 -67.5 9.5t-51 23t-34.5 27t-21 22.5l-6 10l33 28q2 -3 6 -8.5t18 -19t30.5 -24t44.5 -19t59 -8.5q57 0 96.5 29.5t48.5 78.5q6 33 -9 58t-40 37t-51 19.5t-45 8.5l-19 2l66 160q-210 11 -320 157t-72 365z" />
<glyph unicode="&#xe8;" horiz-adv-x="1257" d="M109 518q38 221 204 368.5t377 147.5q97 0 181 -38t139 -102.5t79 -153.5t7 -187q-6 -40 -13 -47h-936q-35 -205 83 -340t329 -135q107 0 205 36.5t170 102.5l29 -27q-80 -73 -187.5 -113t-226.5 -40q-231 0 -356 148.5t-84 379.5zM154 547h899q25 193 -79.5 319.5 t-289.5 126.5q-184 0 -334 -126t-196 -320zM489 1513l48 33l198 -317l-33 -21z" />
<glyph unicode="&#xe9;" horiz-adv-x="1257" d="M109 518q38 221 204 368.5t377 147.5q97 0 181 -38t139 -102.5t79 -153.5t7 -187q-6 -40 -13 -47h-936q-35 -205 83 -340t329 -135q107 0 205 36.5t170 102.5l29 -27q-80 -73 -187.5 -113t-226.5 -40q-231 0 -356 148.5t-84 379.5zM154 547h899q25 193 -79.5 319.5 t-289.5 126.5q-184 0 -334 -126t-196 -320zM680 1229l309 317l35 -33l-319 -305z" />
<glyph unicode="&#xea;" horiz-adv-x="1257" d="M109 518q38 221 204 368.5t377 147.5q97 0 181 -38t139 -102.5t79 -153.5t7 -187q-6 -40 -13 -47h-936q-35 -205 83 -340t329 -135q107 0 205 36.5t170 102.5l29 -27q-80 -73 -187.5 -113t-226.5 -40q-231 0 -356 148.5t-84 379.5zM154 547h899q25 193 -79.5 319.5 t-289.5 126.5q-184 0 -334 -126t-196 -320zM428 1192l346 313l236 -313l-29 -25l-217 275l-315 -275z" />
<glyph unicode="&#xeb;" horiz-adv-x="1257" d="M109 518q38 221 204 368.5t377 147.5q97 0 181 -38t139 -102.5t79 -153.5t7 -187q-6 -40 -13 -47h-936q-35 -205 83 -340t329 -135q107 0 205 36.5t170 102.5l29 -27q-80 -73 -187.5 -113t-226.5 -40q-231 0 -356 148.5t-84 379.5zM154 547h899q25 193 -79.5 319.5 t-289.5 126.5q-184 0 -334 -126t-196 -320zM506 1311q4 26 25 43.5t47 17.5t40.5 -17.5t10.5 -43.5t-26 -44t-48 -18t-40 18t-9 44zM854 1311q4 26 25 43.5t47 17.5t40.5 -17.5t10.5 -43.5t-26 -44t-48 -18t-40 18t-9 44z" />
<glyph unicode="&#xec;" horiz-adv-x="491" d="M98 0l181 1024h40l-180 -1024h-41zM100 1513l47 33l199 -317l-33 -21z" />
<glyph unicode="&#xed;" horiz-adv-x="491" d="M98 0l181 1024h40l-180 -1024h-41zM291 1229l309 317l35 -33l-320 -305z" />
<glyph unicode="&#xee;" horiz-adv-x="491" d="M39 1192l346 313l236 -313l-29 -25l-217 275l-316 -275zM98 0l181 1024h40l-180 -1024h-41z" />
<glyph unicode="&#xef;" horiz-adv-x="491" d="M98 0l181 1024h40l-180 -1024h-41zM117 1311q5 26 25 43.5t46 17.5t41 -17.5t11 -43.5t-26 -44t-48 -18t-40 18t-9 44zM465 1311q4 26 25 43.5t47 17.5t40.5 -17.5t10.5 -43.5t-26 -44t-48 -18t-40 18t-9 44z" />
<glyph unicode="&#xf0;" horiz-adv-x="1198" d="M113 430q34 192 180 316t338 124q157 0 256 -86l-170 416l-256 -135l-15 33l256 135l-81 201h47l73 -181l254 136l15 -33l-254 -135l205 -500q59 -142 32 -291q-34 -192 -180 -316t-338 -124t-294 124t-68 316zM154 430q-31 -173 62.5 -286t266.5 -113t305.5 113 t163.5 286t-61.5 286t-265.5 113t-306.5 -113t-164.5 -286z" />
<glyph unicode="&#xf1;" d="M98 0l103 584q2 4 2 12l76 428h40l-43 -248q76 119 204 188.5t278 69.5q195 0 299 -114t73 -291l-110 -629h-41l111 629q28 159 -67 261.5t-273 102.5q-173 0 -311 -97t-185 -251l-115 -645h-41zM502 1198q12 70 62.5 117t109.5 47q36 0 67.5 -20t52 -44.5t49 -44.5 t58.5 -20q42 0 79 35t46 88h41q-12 -70 -62 -117t-110 -47q-35 0 -67 20t-52.5 44.5t-49 44.5t-58.5 20q-42 0 -79 -35t-46 -88h-41z" />
<glyph unicode="&#xf2;" horiz-adv-x="1290" d="M106 512q41 227 208.5 374.5t385.5 147.5q144 0 247 -67t146.5 -186.5t16.5 -268.5q-40 -227 -208 -374.5t-386 -147.5t-334 147.5t-76 374.5zM147 512q-37 -209 70 -345t307 -136t354 136t191 345t-69 345t-306 136t-355 -136t-192 -345zM500 1513l47 33l198 -317 l-32 -21z" />
<glyph unicode="&#xf3;" horiz-adv-x="1290" d="M106 512q41 227 208.5 374.5t385.5 147.5q144 0 247 -67t146.5 -186.5t16.5 -268.5q-40 -227 -208 -374.5t-386 -147.5t-334 147.5t-76 374.5zM147 512q-37 -209 70 -345t307 -136t354 136t191 345t-69 345t-306 136t-355 -136t-192 -345zM690 1229l309 317l35 -33 l-319 -305z" />
<glyph unicode="&#xf4;" horiz-adv-x="1290" d="M106 512q41 227 208.5 374.5t385.5 147.5q144 0 247 -67t146.5 -186.5t16.5 -268.5q-40 -227 -208 -374.5t-386 -147.5t-334 147.5t-76 374.5zM147 512q-37 -209 70 -345t307 -136t354 136t191 345t-69 345t-306 136t-355 -136t-192 -345zM438 1192l346 313l236 -313 l-29 -25l-217 275l-315 -275z" />
<glyph unicode="&#xf5;" horiz-adv-x="1290" d="M106 512q41 227 208.5 374.5t385.5 147.5q144 0 247 -67t146.5 -186.5t16.5 -268.5q-40 -227 -208 -374.5t-386 -147.5t-334 147.5t-76 374.5zM147 512q-37 -209 70 -345t307 -136t354 136t191 345t-69 345t-306 136t-355 -136t-192 -345zM461 1198q12 70 62.5 117 t109.5 47q35 0 67 -20t52.5 -44.5t49 -44.5t58.5 -20q42 0 79 35t46 88h41q-12 -70 -62 -117t-110 -47q-36 0 -67.5 20t-52 44.5t-49 44.5t-58.5 20q-42 0 -79 -35t-46 -88h-41z" />
<glyph unicode="&#xf6;" horiz-adv-x="1290" d="M106 512q41 227 208.5 374.5t385.5 147.5q144 0 247 -67t146.5 -186.5t16.5 -268.5q-40 -227 -208 -374.5t-386 -147.5t-334 147.5t-76 374.5zM147 512q-37 -209 70 -345t307 -136t354 136t191 345t-69 345t-306 136t-355 -136t-192 -345zM516 1311q4 26 25 43.5t47 17.5 t40.5 -17.5t10.5 -43.5t-26 -44t-48 -18t-40 18t-9 44zM864 1311q4 26 25 43.5t47 17.5t40.5 -17.5t10.5 -43.5t-26 -44t-48 -18t-40 18t-9 44z" />
<glyph unicode="&#xf7;" horiz-adv-x="1228" d="M164 594v41h901v-41h-901zM553 195q0 26 17.5 43.5t43.5 17.5t44 -17.5t18 -43.5t-18 -44t-44 -18t-43.5 18t-17.5 44zM553 1034q0 26 17.5 44t43.5 18t44 -18t18 -44t-18 -43.5t-44 -17.5t-43.5 17.5t-17.5 43.5z" />
<glyph unicode="&#xf8;" horiz-adv-x="1290" d="M106 512q41 227 208.5 374.5t385.5 147.5q134 0 234 -59l90 121h47l-106 -142q93 -67 132 -182t13 -260q-40 -227 -208 -374.5t-386 -147.5q-138 0 -233 59l-84 -110h-47l100 133q-92 69 -131 183t-15 257zM147 512q-23 -130 13 -236t119 -170l626 834q-86 53 -211 53 q-200 0 -355 -136t-192 -345zM309 86q93 -55 215 -55q200 0 354 136t191 345q24 130 -11 237t-120 171z" />
<glyph unicode="&#xf9;" d="M168 395l111 629h40l-110 -629q-29 -168 60 -266t270 -98q184 0 325.5 102t184.5 264l110 627h41l-180 -1024h-41l45 254q-76 -121 -208.5 -192.5t-287.5 -71.5q-197 0 -294.5 109t-65.5 296zM541 1513l47 33l198 -317l-32 -21z" />
<glyph unicode="&#xfa;" d="M168 395l111 629h40l-110 -629q-29 -168 60 -266t270 -98q184 0 325.5 102t184.5 264l110 627h41l-180 -1024h-41l45 254q-76 -121 -208.5 -192.5t-287.5 -71.5q-197 0 -294.5 109t-65.5 296zM731 1229l309 317l35 -33l-319 -305z" />
<glyph unicode="&#xfb;" d="M168 395l111 629h40l-110 -629q-29 -168 60 -266t270 -98q184 0 325.5 102t184.5 264l110 627h41l-180 -1024h-41l45 254q-76 -121 -208.5 -192.5t-287.5 -71.5q-197 0 -294.5 109t-65.5 296zM479 1192l346 313l236 -313l-29 -25l-217 275l-315 -275z" />
<glyph unicode="&#xfc;" d="M168 395l111 629h40l-110 -629q-29 -168 60 -266t270 -98q184 0 325.5 102t184.5 264l110 627h41l-180 -1024h-41l45 254q-76 -121 -208.5 -192.5t-287.5 -71.5q-197 0 -294.5 109t-65.5 296zM557 1311q4 26 25 43.5t47 17.5t40.5 -17.5t10.5 -43.5t-26 -44t-48 -18 t-40 18t-9 44zM905 1311q4 26 25 43.5t47 17.5t40.5 -17.5t10.5 -43.5t-26 -44t-48 -18t-40 18t-9 44z" />
<glyph unicode="&#xfd;" d="M96 -342l33 29q100 -127 311 -127q215 0 360.5 127.5t186.5 353.5l43 252q-78 -140 -213 -221.5t-301 -81.5q-195 0 -287.5 111t-58.5 309l109 614h40l-108 -614q-31 -178 53 -278.5t262 -100.5q195 0 340 119t195 311l98 563h41l-172 -983q-44 -246 -202 -384t-392 -138 q-231 0 -338 139zM731 1229l309 317l35 -33l-319 -305z" />
<glyph unicode="&#xfe;" d="M16 -471l346 1966h41l-135 -768q80 141 217 224t297 83q218 0 334 -147.5t76 -374.5t-208 -374.5t-386 -147.5q-159 0 -266.5 82.5t-138.5 222.5l-136 -766h-41zM231 512q-37 -209 69 -345t306 -136t354 136t191 345t-69 345t-306 136q-199 0 -353.5 -136t-191.5 -345z " />
<glyph unicode="&#xff;" d="M96 -342l33 29q100 -127 311 -127q215 0 360.5 127.5t186.5 353.5l43 252q-78 -140 -213 -221.5t-301 -81.5q-195 0 -287.5 111t-58.5 309l109 614h40l-108 -614q-31 -178 53 -278.5t262 -100.5q195 0 340 119t195 311l98 563h41l-172 -983q-44 -246 -202 -384t-392 -138 q-231 0 -338 139zM557 1311q4 26 25 43.5t47 17.5t40.5 -17.5t10.5 -43.5t-26 -44t-48 -18t-40 18t-9 44zM905 1311q4 26 25 43.5t47 17.5t40.5 -17.5t10.5 -43.5t-26 -44t-48 -18t-40 18t-9 44z" />
<glyph unicode="&#x13f;" horiz-adv-x="1300" d="M119 0l254 1434h41l-246 -1393h911l-8 -41h-952zM854 717q4 26 25 43.5t47 17.5t40.5 -17.5t10.5 -43.5q-5 -26 -25.5 -44t-46.5 -18t-41 18t-10 44z" />
<glyph unicode="&#x140;" horiz-adv-x="696" d="M98 0l264 1495h41l-264 -1495h-41zM532 717q4 26 25 43.5t47 17.5t40.5 -17.5t10.5 -43.5q-5 -26 -25 -44t-46 -18t-41 18t-11 44z" />
<glyph unicode="&#x152;" horiz-adv-x="2652" d="M164 717q37 208 154 374.5t289.5 259.5t367.5 93q237 0 388 -138.5t173 -367.5l88 496h971l-8 -41h-932l-115 -650h850l-6 -41h-850l-117 -661h932l-8 -41h-971l88 494q-102 -229 -302.5 -366.5t-438.5 -137.5q-195 0 -334 93t-197.5 259.5t-21.5 374.5zM205 717 q-35 -196 20.5 -353t187.5 -245t316 -88t347 88t273.5 245t145.5 353t-20.5 353t-187.5 245t-316 88t-347 -88t-273.5 -245t-145.5 -353z" />
<glyph unicode="&#x153;" horiz-adv-x="2220" d="M106 512q40 227 207.5 374.5t384.5 147.5q180 0 292.5 -104.5t123.5 -276.5q69 170 218 275.5t323 105.5q129 0 230 -64t148.5 -175.5t24.5 -241.5q-6 -41 -12 -47h-936q-35 -205 83 -340t329 -135q107 0 204.5 36.5t169.5 102.5l29 -27q-80 -73 -187.5 -113t-224.5 -40 q-191 0 -312.5 106t-133.5 281q-71 -175 -221 -281t-332 -106q-217 0 -332.5 147.5t-75.5 374.5zM147 512q-37 -209 70 -345t307 -136t354 136t191 345t-69 345t-306 136t-355 -136t-192 -345zM1116 547h899q25 194 -79.5 320t-288.5 126q-185 0 -335 -126.5t-196 -319.5z " />
<glyph unicode="&#x178;" horiz-adv-x="1343" d="M209 1434h49l401 -787l680 787h50l-717 -828l-107 -606h-41l107 606zM614 1720q5 26 25.5 44t46.5 18t41 -18t10 -44q-4 -26 -25.5 -43.5t-47.5 -17.5t-40.5 17.5t-9.5 43.5zM963 1720q5 26 25 44t46 18t41 -18t10 -44q-4 -26 -25.5 -43.5t-47.5 -17.5t-40 17.5t-9 43.5z " />
<glyph unicode="&#x2c6;" horiz-adv-x="909" d="M287 1417l346 314l235 -314l-28 -24l-217 274l-316 -274z" />
<glyph unicode="&#x2dc;" horiz-adv-x="866" d="M289 1423q12 70 62.5 117t109.5 47q35 0 67 -20t52.5 -44.5t49 -44.5t58.5 -20q42 0 79 35t46 88h41q-12 -70 -62 -117t-110 -47q-36 0 -67.5 20t-52 44.5t-49 44.5t-58.5 20q-42 0 -79 -35t-46 -88h-41z" />
<glyph unicode="&#x2000;" horiz-adv-x="978" />
<glyph unicode="&#x2001;" horiz-adv-x="1956" />
<glyph unicode="&#x2002;" horiz-adv-x="978" />
<glyph unicode="&#x2003;" horiz-adv-x="1956" />
<glyph unicode="&#x2004;" horiz-adv-x="652" />
<glyph unicode="&#x2005;" horiz-adv-x="489" />
<glyph unicode="&#x2006;" horiz-adv-x="326" />
<glyph unicode="&#x2007;" horiz-adv-x="326" />
<glyph unicode="&#x2008;" horiz-adv-x="244" />
<glyph unicode="&#x2009;" horiz-adv-x="391" />
<glyph unicode="&#x200a;" horiz-adv-x="108" />
<glyph unicode="&#x2010;" horiz-adv-x="819" d="M176 553l6 41h410l-6 -41h-410z" />
<glyph unicode="&#x2011;" horiz-adv-x="819" d="M176 553l6 41h410l-6 -41h-410z" />
<glyph unicode="&#x2012;" horiz-adv-x="819" d="M176 553l6 41h410l-6 -41h-410z" />
<glyph unicode="&#x2013;" horiz-adv-x="1228" d="M176 553l6 41h819l-6 -41h-819z" />
<glyph unicode="&#x2014;" horiz-adv-x="2048" d="M176 553l6 41h1639l-6 -41h-1639z" />
<glyph unicode="&#x2018;" horiz-adv-x="493" d="M227 1018l207 432l33 -8l-193 -438z" />
<glyph unicode="&#x2019;" horiz-adv-x="493" d="M266 1012l195 438l47 -14l-207 -432z" />
<glyph unicode="&#x201a;" horiz-adv-x="493" d="M-6 -303l194 438l48 -14l-209 -432z" />
<glyph unicode="&#x201c;" horiz-adv-x="800" d="M227 1018l207 432l33 -8l-193 -438zM535 1018l206 432l33 -8l-192 -438z" />
<glyph unicode="&#x201d;" horiz-adv-x="800" d="M225 1012l195 438l47 -14l-207 -432zM532 1012l195 438l47 -14l-207 -432z" />
<glyph unicode="&#x201e;" horiz-adv-x="800" d="M-6 -303l194 438l48 -14l-209 -432zM301 -303l195 438l47 -14l-209 -432z" />
<glyph unicode="&#x2022;" horiz-adv-x="825" d="M180 573q15 91 84 150t160 59q90 0 138.5 -59t33.5 -150q-17 -91 -86 -148.5t-160 -57.5t-139 58t-31 148z" />
<glyph unicode="&#x2026;" horiz-adv-x="1474" d="M68 51q5 26 25 44t46 18t41 -18t10 -44q-4 -26 -25.5 -43.5t-47.5 -17.5t-40 17.5t-9 43.5zM559 51q5 26 25.5 44t46.5 18t41 -18t10 -44q-4 -26 -25.5 -43.5t-48.5 -17.5q-26 0 -40 17.5t-9 43.5zM1051 51q5 26 25 44t46 18t41 -18t11 -44t-25.5 -43.5t-48.5 -17.5 q-26 0 -40 17.5t-9 43.5z" />
<glyph unicode="&#x202f;" horiz-adv-x="391" />
<glyph unicode="&#x2039;" horiz-adv-x="641" d="M117 571l372 433l37 -9l-346 -424l197 -424l-41 -8z" />
<glyph unicode="&#x203a;" horiz-adv-x="641" d="M63 147l347 424l-197 424l41 9l217 -433l-371 -432z" />
<glyph unicode="&#x2044;" horiz-adv-x="313" d="M-494 4l1272 1450l29 -24l-1272 -1450z" />
<glyph unicode="&#x205f;" horiz-adv-x="489" />
<glyph unicode="&#x20ac;" horiz-adv-x="1601" d="M29 532l8 41h215q3 145 51 287h-217l8 41h223q97 245 305.5 394t458.5 149q153 0 272.5 -57.5t194.5 -163.5l-39 -27q-70 99 -182 153t-254 54q-232 0 -426 -138t-287 -364h758l-8 -41h-766q-49 -142 -49 -287h766l-8 -41h-758q14 -226 159 -363.5t377 -137.5 q143 0 273.5 53.5t236.5 151.5l25 -27q-110 -104 -250.5 -161.5t-292.5 -57.5q-250 0 -404 148.5t-165 393.5h-225z" />
<glyph unicode="&#x2122;" horiz-adv-x="1554" d="M164 1395l8 39h610l-8 -39h-280l-121 -678h-43l121 678h-287zM776 717l127 717h47l195 -512l375 512h47l-127 -717h-43l112 639l-356 -486h-37l-184 486l-113 -639h-43z" />
<glyph unicode="&#x2460;" horiz-adv-x="1986" d="M164 717q0 169 65.5 322.5t176.5 264.5t264.5 176.5t322.5 65.5t323 -65.5t265 -176.5t176.5 -264.5t65.5 -322.5q0 -135 -42 -262t-118.5 -229t-178.5 -178.5t-229 -118.5t-262 -42q-169 0 -322.5 65.5t-264.5 176.5t-176.5 265t-65.5 323zM205 717q0 -161 62.5 -307 t167.5 -251.5t251 -168t307 -62.5t307 62.5t251.5 168t168 251.5t62.5 307t-62.5 307t-168 251t-251.5 167.5t-307 62.5q-214 0 -395.5 -105.5t-287 -287t-105.5 -395.5zM780 911l215 164h43v-717h-41v666l-192 -145z" />
<glyph unicode="&#x2461;" horiz-adv-x="1986" d="M164 717q0 169 65.5 322.5t176.5 264.5t264.5 176.5t322.5 65.5t323 -65.5t265 -176.5t176.5 -264.5t65.5 -322.5q0 -135 -42 -262t-118.5 -229t-178.5 -178.5t-229 -118.5t-262 -42q-169 0 -322.5 65.5t-264.5 176.5t-176.5 265t-65.5 323zM205 717q0 -161 62.5 -307 t167.5 -251.5t251 -168t307 -62.5t307 62.5t251.5 168t168 251.5t62.5 307t-62.5 307t-168 251t-251.5 167.5t-307 62.5q-214 0 -395.5 -105.5t-287 -287t-105.5 -395.5zM756 975q72 104 221 104q101 0 161 -52.5t60 -143.5q0 -63 -31 -122.5t-81 -108.5t-101.5 -90.5 t-103.5 -86t-76 -78.5h407v-41h-454v41q20 38 70 84.5t104 89.5t106 91t85.5 105.5t33.5 115.5q0 73 -48.5 114t-131.5 41q-127 0 -193 -92z" />
<glyph unicode="&#x2462;" horiz-adv-x="1986" d="M164 717q0 169 65.5 322.5t176.5 264.5t264.5 176.5t322.5 65.5t323 -65.5t265 -176.5t176.5 -264.5t65.5 -322.5q0 -135 -42 -262t-118.5 -229t-178.5 -178.5t-229 -118.5t-262 -42q-169 0 -322.5 65.5t-264.5 176.5t-176.5 265t-65.5 323zM205 717q0 -161 62.5 -307 t167.5 -251.5t251 -168t307 -62.5t307 62.5t251.5 168t168 251.5t62.5 307t-62.5 307t-168 251t-251.5 167.5t-307 62.5q-214 0 -395.5 -105.5t-287 -287t-105.5 -395.5zM770 457l31 30q59 -94 182 -94q85 0 139 45.5t54 116.5q0 69 -54 113.5t-137 44.5h-33v39h35 q74 0 122 41.5t48 105.5q0 63 -48 102t-126 39q-121 0 -180 -94l-31 31q71 104 213 104q95 0 155 -49.5t60 -128.5q0 -58 -32 -103t-87 -67q64 -22 101 -69t37 -111q0 -88 -66.5 -144.5t-169.5 -56.5q-141 0 -213 105z" />
<glyph unicode="&#x2463;" horiz-adv-x="1986" d="M164 717q0 169 65.5 322.5t176.5 264.5t264.5 176.5t322.5 65.5t323 -65.5t265 -176.5t176.5 -264.5t65.5 -322.5q0 -135 -42 -262t-118.5 -229t-178.5 -178.5t-229 -118.5t-262 -42q-169 0 -322.5 65.5t-264.5 176.5t-176.5 265t-65.5 323zM205 717q0 -161 62.5 -307 t167.5 -251.5t251 -168t307 -62.5t307 62.5t251.5 168t168 251.5t62.5 307t-62.5 307t-168 251t-251.5 167.5t-307 62.5q-214 0 -395.5 -105.5t-287 -287t-105.5 -395.5zM682 543v41l397 491h43v-491h111v-41h-111v-185h-43v185h-397zM733 584h346v430z" />
<glyph unicode="&#x2464;" horiz-adv-x="1986" d="M164 717q0 169 65.5 322.5t176.5 264.5t264.5 176.5t322.5 65.5t323 -65.5t265 -176.5t176.5 -264.5t65.5 -322.5q0 -135 -42 -262t-118.5 -229t-178.5 -178.5t-229 -118.5t-262 -42q-169 0 -322.5 65.5t-264.5 176.5t-176.5 265t-65.5 323zM205 717q0 -161 62.5 -307 t167.5 -251.5t251 -168t307 -62.5t307 62.5t251.5 168t168 251.5t62.5 307t-62.5 307t-168 251t-251.5 167.5t-307 62.5q-214 0 -395.5 -105.5t-287 -287t-105.5 -395.5zM772 465l29 29q61 -97 180 -97q84 0 138.5 50.5t54.5 127.5t-53 127t-136 50h-170v327h352v-41h-313 v-247h131q100 0 166 -61t66 -155q0 -95 -67 -157t-171 -62q-66 0 -120.5 29t-86.5 80z" />
<glyph unicode="&#x2465;" horiz-adv-x="1986" d="M164 717q0 169 65.5 322.5t176.5 264.5t264.5 176.5t322.5 65.5t323 -65.5t265 -176.5t176.5 -264.5t65.5 -322.5q0 -135 -42 -262t-118.5 -229t-178.5 -178.5t-229 -118.5t-262 -42q-169 0 -322.5 65.5t-264.5 176.5t-176.5 265t-65.5 323zM205 717q0 -161 62.5 -307 t167.5 -251.5t251 -168t307 -62.5t307 62.5t251.5 168t168 251.5t62.5 307t-62.5 307t-168 251t-251.5 167.5t-307 62.5q-214 0 -395.5 -105.5t-287 -287t-105.5 -395.5zM766 584q0 72 45 145l211 350h49l-182 -299q49 27 110 27q95 0 158.5 -63.5t63.5 -159.5 q0 -98 -65 -163t-163 -65t-162.5 65t-64.5 163zM809 582q0 -80 52.5 -132.5t131.5 -52.5t132 52.5t53 132.5q0 79 -52.5 131.5t-132.5 52.5q-79 0 -131.5 -52t-52.5 -132z" />
<glyph unicode="&#x2466;" horiz-adv-x="1986" d="M164 717q0 169 65.5 322.5t176.5 264.5t264.5 176.5t322.5 65.5t323 -65.5t265 -176.5t176.5 -264.5t65.5 -322.5q0 -135 -42 -262t-118.5 -229t-178.5 -178.5t-229 -118.5t-262 -42q-169 0 -322.5 65.5t-264.5 176.5t-176.5 265t-65.5 323zM205 717q0 -161 62.5 -307 t167.5 -251.5t251 -168t307 -62.5t307 62.5t251.5 168t168 251.5t62.5 307t-62.5 307t-168 251t-251.5 167.5t-307 62.5q-214 0 -395.5 -105.5t-287 -287t-105.5 -395.5zM770 1036v39h447v-39l-289 -678h-45l288 678h-401z" />
<glyph unicode="&#x2467;" horiz-adv-x="1986" d="M164 717q0 169 65.5 322.5t176.5 264.5t264.5 176.5t322.5 65.5t323 -65.5t265 -176.5t176.5 -264.5t65.5 -322.5q0 -135 -42 -262t-118.5 -229t-178.5 -178.5t-229 -118.5t-262 -42q-169 0 -322.5 65.5t-264.5 176.5t-176.5 265t-65.5 323zM205 717q0 -161 62.5 -307 t167.5 -251.5t251 -168t307 -62.5t307 62.5t251.5 168t168 251.5t62.5 307t-62.5 307t-168 251t-251.5 167.5t-307 62.5q-214 0 -395.5 -105.5t-287 -287t-105.5 -395.5zM752 551q0 64 38.5 112t104.5 70q-57 22 -90 65.5t-33 100.5q0 80 62 131t159 51t160.5 -52t63.5 -130 q0 -56 -33.5 -100t-91.5 -66q66 -22 104.5 -70t38.5 -112q0 -86 -69 -142.5t-173 -56.5t-172.5 56.5t-68.5 142.5zM795 553q0 -69 56 -114.5t142 -45.5q87 0 143 45.5t56 114.5t-55.5 113.5t-143.5 44.5q-86 0 -142 -44.5t-56 -113.5zM813 897q0 -62 51 -102.5t129 -40.5 t129.5 40.5t51.5 102.5t-51.5 102.5t-129.5 40.5t-129 -40.5t-51 -102.5z" />
<glyph unicode="&#x2468;" horiz-adv-x="1986" d="M164 717q0 169 65.5 322.5t176.5 264.5t264.5 176.5t322.5 65.5t323 -65.5t265 -176.5t176.5 -264.5t65.5 -322.5q0 -135 -42 -262t-118.5 -229t-178.5 -178.5t-229 -118.5t-262 -42q-169 0 -322.5 65.5t-264.5 176.5t-176.5 265t-65.5 323zM205 717q0 -161 62.5 -307 t167.5 -251.5t251 -168t307 -62.5t307 62.5t251.5 168t168 251.5t62.5 307t-62.5 307t-168 251t-251.5 167.5t-307 62.5q-214 0 -395.5 -105.5t-287 -287t-105.5 -395.5zM766 854q0 98 64.5 161.5t162.5 63.5q99 0 163.5 -63.5t64.5 -161.5q0 -74 -45 -147l-222 -351h-49 l189 297q-46 -24 -107 -24q-96 0 -158.5 63.5t-62.5 161.5zM809 854q0 -80 52.5 -132t131.5 -52q80 0 132.5 52.5t52.5 131.5t-52.5 131.5t-132.5 52.5q-79 0 -131.5 -52t-52.5 -132z" />
<glyph unicode="&#x24ea;" horiz-adv-x="1986" d="M164 717q0 169 65.5 322.5t176.5 264.5t264.5 176.5t322.5 65.5t323 -65.5t265 -176.5t176.5 -264.5t65.5 -322.5q0 -135 -42 -262t-118.5 -229t-178.5 -178.5t-229 -118.5t-262 -42q-169 0 -322.5 65.5t-264.5 176.5t-176.5 265t-65.5 323zM205 717q0 -161 62.5 -307 t167.5 -251.5t251 -168t307 -62.5t307 62.5t251.5 168t168 251.5t62.5 307t-62.5 307t-168 251t-251.5 167.5t-307 62.5q-214 0 -395.5 -105.5t-287 -287t-105.5 -395.5zM727 717q0 158 75 261t191 103t191.5 -103t75.5 -261t-75.5 -261.5t-191.5 -103.5 q-115 0 -190.5 103.5t-75.5 261.5zM770 717q0 -140 63 -232t160 -92t160.5 92t63.5 232q0 141 -63.5 232t-160.5 91t-160 -91t-63 -232z" />
<glyph unicode="&#x24ff;" horiz-adv-x="1986" d="M164 717q0 169 65.5 322.5t176.5 264.5t264.5 176.5t322.5 65.5t323 -65.5t265 -176.5t176.5 -264.5t65.5 -322.5q0 -135 -42 -262t-118.5 -229t-178.5 -178.5t-229 -118.5t-262 -42q-169 0 -322.5 65.5t-264.5 176.5t-176.5 265t-65.5 323zM727 717q0 -158 75.5 -261.5 t190.5 -103.5q116 0 191.5 103.5t75.5 261.5t-75.5 261t-191.5 103t-191 -103t-75 -261zM770 717q0 141 63 232t160 91t160.5 -91t63.5 -232q0 -140 -63.5 -232t-160.5 -92t-160 92t-63 232z" />
<glyph unicode="&#x25fc;" horiz-adv-x="1024" d="M0 0v1024h1024v-1024h-1024z" />
<glyph unicode="&#x278a;" horiz-adv-x="1986" d="M164 717q0 169 65.5 322.5t176.5 264.5t264.5 176.5t322.5 65.5t323 -65.5t265 -176.5t176.5 -264.5t65.5 -322.5q0 -135 -42 -262t-118.5 -229t-178.5 -178.5t-229 -118.5t-262 -42q-169 0 -322.5 65.5t-264.5 176.5t-176.5 265t-65.5 323zM780 911l25 -32l192 145v-666 h41v717h-43z" />
<glyph unicode="&#x278b;" horiz-adv-x="1986" d="M164 717q0 169 65.5 322.5t176.5 264.5t264.5 176.5t322.5 65.5t323 -65.5t265 -176.5t176.5 -264.5t65.5 -322.5q0 -135 -42 -262t-118.5 -229t-178.5 -178.5t-229 -118.5t-262 -42q-169 0 -322.5 65.5t-264.5 176.5t-176.5 265t-65.5 323zM756 975l28 -29q66 92 193 92 q83 0 131.5 -41t48.5 -114q0 -58 -33.5 -115.5t-85.5 -105.5t-106 -91t-104 -89.5t-70 -84.5v-41h454v41h-407q24 34 76 78.5t103.5 86t101.5 90.5t81 108.5t31 122.5q0 91 -60 143.5t-161 52.5q-149 0 -221 -104z" />
<glyph unicode="&#x278c;" horiz-adv-x="1986" d="M164 717q0 169 65.5 322.5t176.5 264.5t264.5 176.5t322.5 65.5t323 -65.5t265 -176.5t176.5 -264.5t65.5 -322.5q0 -135 -42 -262t-118.5 -229t-178.5 -178.5t-229 -118.5t-262 -42q-169 0 -322.5 65.5t-264.5 176.5t-176.5 265t-65.5 323zM770 457q72 -105 213 -105 q103 0 169.5 56.5t66.5 144.5q0 64 -37 111t-101 69q55 22 87 67t32 103q0 79 -60 128.5t-155 49.5q-142 0 -213 -104l31 -31q59 94 180 94q78 0 126 -39t48 -102q0 -64 -48 -105.5t-122 -41.5h-35v-39h33q83 0 137 -44.5t54 -113.5q0 -71 -54 -116.5t-139 -45.5 q-123 0 -182 94z" />
<glyph unicode="&#x278d;" horiz-adv-x="1986" d="M164 717q0 169 65.5 322.5t176.5 264.5t264.5 176.5t322.5 65.5t323 -65.5t265 -176.5t176.5 -264.5t65.5 -322.5q0 -135 -42 -262t-118.5 -229t-178.5 -178.5t-229 -118.5t-262 -42q-169 0 -322.5 65.5t-264.5 176.5t-176.5 265t-65.5 323zM682 543h397v-185h43v185h111 v41h-111v491h-43l-397 -491v-41zM733 584l346 430v-430h-346z" />
<glyph unicode="&#x278e;" horiz-adv-x="1986" d="M164 717q0 169 65.5 322.5t176.5 264.5t264.5 176.5t322.5 65.5t323 -65.5t265 -176.5t176.5 -264.5t65.5 -322.5q0 -135 -42 -262t-118.5 -229t-178.5 -178.5t-229 -118.5t-262 -42q-169 0 -322.5 65.5t-264.5 176.5t-176.5 265t-65.5 323zM772 465q32 -51 86.5 -80 t120.5 -29q104 0 171 62t67 157q0 94 -66 155t-166 61h-131v247h313v41h-352v-327h170q83 0 136 -50t53 -127t-54.5 -127.5t-138.5 -50.5q-119 0 -180 97z" />
<glyph unicode="&#x278f;" horiz-adv-x="1986" d="M164 717q0 169 65.5 322.5t176.5 264.5t264.5 176.5t322.5 65.5t323 -65.5t265 -176.5t176.5 -264.5t65.5 -322.5q0 -135 -42 -262t-118.5 -229t-178.5 -178.5t-229 -118.5t-262 -42q-169 0 -322.5 65.5t-264.5 176.5t-176.5 265t-65.5 323zM766 584q0 -98 64.5 -163 t162.5 -65t163 65t65 163q0 96 -63.5 159.5t-158.5 63.5q-61 0 -110 -27l182 299h-49l-211 -350q-45 -73 -45 -145zM809 582q0 80 52.5 132t131.5 52q80 0 132.5 -52.5t52.5 -131.5q0 -80 -53 -132.5t-132 -52.5t-131.5 52.5t-52.5 132.5z" />
<glyph unicode="&#x2790;" horiz-adv-x="1986" d="M164 717q0 169 65.5 322.5t176.5 264.5t264.5 176.5t322.5 65.5t323 -65.5t265 -176.5t176.5 -264.5t65.5 -322.5q0 -135 -42 -262t-118.5 -229t-178.5 -178.5t-229 -118.5t-262 -42q-169 0 -322.5 65.5t-264.5 176.5t-176.5 265t-65.5 323zM770 1036h401l-288 -678h45 l289 678v39h-447v-39z" />
<glyph unicode="&#x2791;" horiz-adv-x="1986" d="M164 717q0 169 65.5 322.5t176.5 264.5t264.5 176.5t322.5 65.5t323 -65.5t265 -176.5t176.5 -264.5t65.5 -322.5q0 -135 -42 -262t-118.5 -229t-178.5 -178.5t-229 -118.5t-262 -42q-169 0 -322.5 65.5t-264.5 176.5t-176.5 265t-65.5 323zM752 551q0 -86 68.5 -142.5 t172.5 -56.5t173 56.5t69 142.5q0 64 -38.5 112t-104.5 70q58 22 91.5 66t33.5 100q0 78 -63.5 130t-160.5 52t-159 -51t-62 -131q0 -57 33 -100.5t90 -65.5q-66 -22 -104.5 -70t-38.5 -112zM795 553q0 69 56 113.5t142 44.5q88 0 143.5 -44.5t55.5 -113.5t-56 -114.5 t-143 -45.5q-86 0 -142 45.5t-56 114.5zM813 897q0 62 51 102.5t129 40.5t129.5 -40.5t51.5 -102.5t-51.5 -102.5t-129.5 -40.5t-129 40.5t-51 102.5z" />
<glyph unicode="&#x2792;" horiz-adv-x="1986" d="M164 717q0 169 65.5 322.5t176.5 264.5t264.5 176.5t322.5 65.5t323 -65.5t265 -176.5t176.5 -264.5t65.5 -322.5q0 -135 -42 -262t-118.5 -229t-178.5 -178.5t-229 -118.5t-262 -42q-169 0 -322.5 65.5t-264.5 176.5t-176.5 265t-65.5 323zM766 854q0 -98 62.5 -161.5 t158.5 -63.5q61 0 107 24l-189 -297h49l222 351q45 73 45 147q0 98 -64.5 161.5t-163.5 63.5q-98 0 -162.5 -63.5t-64.5 -161.5zM809 854q0 80 52.5 132t131.5 52q80 0 132.5 -52.5t52.5 -131.5t-52.5 -131.5t-132.5 -52.5q-79 0 -131.5 52t-52.5 132z" />
<glyph horiz-adv-x="1216" d="M16 229l41 21q29 -101 120.5 -160t221.5 -59q182 0 320.5 110t167.5 279l180 1014h41l-180 -1014q-32 -187 -184.5 -308.5t-352.5 -121.5q-143 0 -241 64t-134 175zM1081 1638l310 318l34 -33l-319 -305z" />
<glyph horiz-adv-x="1259" d="M96 281q25 137 151 212.5t328 75.5h392l22 131q25 138 -67.5 215.5t-280.5 77.5q-118 0 -204.5 -32t-160.5 -95l-24 29q80 69 174 104t221 35q206 0 308.5 -89t74.5 -245l-123 -700h-41l31 180q-67 -89 -187 -139.5t-268 -50.5q-182 0 -276 77.5t-70 213.5zM137 279 q-20 -115 67 -181.5t249 -66.5q175 0 302 72.5t163 187.5l40 237h-387q-183 0 -298.5 -66t-135.5 -183z" />
<glyph horiz-adv-x="1259" d="M96 281q25 137 151 212.5t328 75.5h392l22 131q25 138 -67.5 215.5t-280.5 77.5q-118 0 -204.5 -32t-160.5 -95l-24 29q80 69 174 104t221 35q206 0 308.5 -89t74.5 -245l-123 -700h-41l31 180q-67 -89 -187 -139.5t-268 -50.5q-182 0 -276 77.5t-70 213.5zM137 279 q-20 -115 67 -181.5t249 -66.5q175 0 302 72.5t163 187.5l40 237h-387q-183 0 -298.5 -66t-135.5 -183zM649 1229l309 317l35 -33l-319 -305z" />
<glyph horiz-adv-x="1259" d="M96 281q25 137 151 212.5t328 75.5h392l22 131q25 138 -67.5 215.5t-280.5 77.5q-118 0 -204.5 -32t-160.5 -95l-24 29q80 69 174 104t221 35q206 0 308.5 -89t74.5 -245l-123 -700h-41l31 180q-67 -89 -187 -139.5t-268 -50.5q-182 0 -276 77.5t-70 213.5zM137 279 q-20 -115 67 -181.5t249 -66.5q175 0 302 72.5t163 187.5l40 237h-387q-183 0 -298.5 -66t-135.5 -183zM397 1192l346 313l236 -313l-29 -25l-217 275l-315 -275z" />
<glyph horiz-adv-x="1259" d="M96 281q25 137 151 212.5t328 75.5h392l22 131q25 138 -67.5 215.5t-280.5 77.5q-118 0 -204.5 -32t-160.5 -95l-24 29q80 69 174 104t221 35q206 0 308.5 -89t74.5 -245l-123 -700h-41l31 180q-67 -89 -187 -139.5t-268 -50.5q-182 0 -276 77.5t-70 213.5zM137 279 q-20 -115 67 -181.5t249 -66.5q175 0 302 72.5t163 187.5l40 237h-387q-183 0 -298.5 -66t-135.5 -183zM459 1513l47 33l199 -317l-33 -21z" />
<glyph horiz-adv-x="1259" d="M96 281q25 137 151 212.5t328 75.5h392l22 131q25 138 -67.5 215.5t-280.5 77.5q-118 0 -204.5 -32t-160.5 -95l-24 29q80 69 174 104t221 35q206 0 308.5 -89t74.5 -245l-123 -700h-41l31 180q-67 -89 -187 -139.5t-268 -50.5q-182 0 -276 77.5t-70 213.5zM137 279 q-20 -115 67 -181.5t249 -66.5q175 0 302 72.5t163 187.5l40 237h-387q-183 0 -298.5 -66t-135.5 -183zM475 1311q4 26 25 43.5t47 17.5t40.5 -17.5t10.5 -43.5t-26 -44t-48 -18t-40 18t-9 44zM823 1311q4 26 25 43.5t47 17.5t40.5 -17.5t10.5 -43.5t-26 -44t-48 -18t-40 18 t-9 44z" />
<glyph horiz-adv-x="1259" d="M96 281q25 137 151 212.5t328 75.5h392l22 131q25 138 -67.5 215.5t-280.5 77.5q-118 0 -204.5 -32t-160.5 -95l-24 29q80 69 174 104t221 35q206 0 308.5 -89t74.5 -245l-123 -700h-41l31 180q-67 -89 -187 -139.5t-268 -50.5q-182 0 -276 77.5t-70 213.5zM137 279 q-20 -115 67 -181.5t249 -66.5q175 0 302 72.5t163 187.5l40 237h-387q-183 0 -298.5 -66t-135.5 -183zM537 1372q13 79 75 131.5t142 52.5q79 0 122 -52t29 -132q-13 -79 -75 -131.5t-142 -52.5q-79 0 -122 52t-29 132zM578 1372q-11 -63 22 -103t96 -40t110.5 40t57.5 103 q11 63 -22.5 103.5t-96.5 40.5t-109.5 -40.5t-57.5 -103.5z" />
<glyph horiz-adv-x="1259" d="M96 281q25 137 151 212.5t328 75.5h392l22 131q25 138 -67.5 215.5t-280.5 77.5q-118 0 -204.5 -32t-160.5 -95l-24 29q80 69 174 104t221 35q206 0 308.5 -89t74.5 -245l-123 -700h-41l31 180q-67 -89 -187 -139.5t-268 -50.5q-182 0 -276 77.5t-70 213.5zM137 279 q-20 -115 67 -181.5t249 -66.5q175 0 302 72.5t163 187.5l40 237h-387q-183 0 -298.5 -66t-135.5 -183zM420 1198q12 70 62.5 117t109.5 47q36 0 67.5 -20t52 -44.5t49 -44.5t58.5 -20q42 0 79 35t46 88h41q-12 -70 -62 -117t-110 -47q-35 0 -67 20t-52.5 44.5t-49 44.5 t-58.5 20q-42 0 -79 -35t-46 -88h-41z" />
<glyph horiz-adv-x="882" d="M160 913q17 97 105 150t229 53h266l16 90q17 92 -46.5 144.5t-190.5 52.5q-149 0 -248 -86l-25 24q115 101 279 101q146 0 218 -63t52 -173l-86 -489h-39l21 114q-50 -57 -132.5 -89.5t-181.5 -32.5q-126 0 -190 54t-47 150zM201 913q-13 -77 44.5 -121t166.5 -44 q114 0 198.5 44t112.5 115l31 176h-262q-122 0 -199.5 -46t-91.5 -124z" />
<glyph horiz-adv-x="491" d="M-313 -481l6 41q154 0 255 79t126 218l205 1167h40l-204 -1167q-29 -161 -141 -249.5t-287 -88.5zM291 1229l309 317l35 -33l-320 -305z" />
<glyph horiz-adv-x="1171" d="M135 1024h45l289 -1018l629 1018h45l-922 -1495h-45l264 428z" />
<glyph horiz-adv-x="1171" d="M135 1024h45l289 -1018l629 1018h45l-922 -1495h-45l264 428zM631 1229l309 317l35 -33l-320 -305z" />
<glyph horiz-adv-x="1171" d="M135 1024h45l289 -1018l629 1018h45l-922 -1495h-45l264 428zM457 1311q5 26 25 43.5t46 17.5t41 -17.5t11 -43.5t-26 -44t-48 -18t-40 18t-9 44zM805 1311q4 26 25 43.5t47 17.5t40.5 -17.5t10.5 -43.5t-26 -44t-48 -18t-40 18t-9 44z" />
<glyph horiz-adv-x="1171" d="M-53 -461l6 41q48 -20 100 -20q141 0 262 194l125 201l-305 1069h45l289 -1020l629 1020h45l-791 -1284q-65 -106 -144 -163.5t-161 -57.5q-55 0 -100 20z" />
<glyph horiz-adv-x="1171" d="M-53 -461l6 41q48 -20 100 -20q141 0 262 194l125 201l-305 1069h45l289 -1020l629 1020h45l-791 -1284q-65 -106 -144 -163.5t-161 -57.5q-55 0 -100 20zM631 1229l309 317l35 -33l-320 -305z" />
<glyph horiz-adv-x="1171" d="M-53 -461l6 41q48 -20 100 -20q141 0 262 194l125 201l-305 1069h45l289 -1020l629 1020h45l-791 -1284q-65 -106 -144 -163.5t-161 -57.5q-55 0 -100 20zM457 1311q5 26 25 43.5t46 17.5t41 -17.5t11 -43.5t-26 -44t-48 -18t-40 18t-9 44zM805 1311q4 26 25 43.5 t47 17.5t40.5 -17.5t10.5 -43.5t-26 -44t-48 -18t-40 18t-9 44z" />
<glyph horiz-adv-x="1228" d="M99 425.5q-15 133.5 14 291.5q55 316 233.5 521.5t396.5 205.5q108 0 191.5 -54t131.5 -151t63.5 -230.5t-13.5 -291.5q-55 -316 -234 -521.5t-397 -205.5q-108 0 -191.5 54t-131.5 151t-63 230.5zM151.5 362.5q29.5 -152.5 120.5 -242t222 -89.5t252 88t207.5 245 t121.5 353q32 202 2.5 354.5t-120.5 242t-222 89.5t-252 -88t-207.5 -245t-121.5 -353q-32 -202 -2.5 -354.5z" />
<glyph horiz-adv-x="1228" d="M145 0l9 41h409l238 1341l-475 -315l-19 33l502 334h41l-246 -1393h410l-8 -41h-861z" />
<glyph horiz-adv-x="1228" d="M31 0l6 41q43 57 118.5 122.5t160.5 126.5t180 128.5t183 140t163 149t127.5 166.5t68.5 183q29 163 -61 254.5t-270 91.5q-130 0 -244 -49.5t-191 -139.5l-24 29q83 95 205.5 148t261.5 53q197 0 296.5 -104t67.5 -283q-17 -96 -69.5 -189.5t-127.5 -172t-162.5 -152 t-182 -141t-178.5 -127t-159.5 -121.5t-117.5 -113h852l-8 -41h-895z" />
<glyph horiz-adv-x="1228" d="M68 190l32 29q43 -90 134 -139t215 -49q183 0 319 99t162 251q26 151 -75 248.5t-284 97.5h-82l7 41h82q165 0 288 91t148 235q25 138 -63.5 223.5t-258.5 85.5q-125 0 -233.5 -49.5t-182.5 -139.5l-24 29q80 96 197 148.5t251 52.5q187 0 285 -96.5t70 -253.5 q-22 -123 -110.5 -215t-217.5 -129q135 -37 202 -136t42 -233q-29 -170 -180 -280.5t-351 -110.5q-133 0 -229.5 52t-142.5 148z" />
<glyph horiz-adv-x="1228" d="M23 385l8 41l999 1008h41l-178 -1008h225l-8 -41h-225l-68 -385h-41l68 385h-821zM84 426h768l168 944z" />
<glyph horiz-adv-x="1228" d="M70 201l32 28q40 -94 130 -146t214 -52q184 0 322.5 109t167.5 278q29 166 -67.5 273.5t-274.5 107.5h-340l113 635h700l-8 -41h-660l-96 -553h299q195 0 301 -119t74 -303q-32 -187 -184.5 -307.5t-354.5 -120.5q-133 0 -229 55.5t-139 155.5z" />
<glyph horiz-adv-x="1228" d="M150 430q27 150 135 291l546 713h48l-498 -650q131 86 287 86q192 0 294 -124t68 -316t-180 -316t-338 -124t-294 124t-68 316zM190 430q-31 -173 63 -286t267 -113t305.5 113t163.5 286t-61.5 286t-265.5 113t-307 -113t-165 -286z" />
<glyph horiz-adv-x="1228" d="M272 0l848 1393h-837l8 41h883l-9 -41l-848 -1393h-45z" />
<glyph horiz-adv-x="1228" d="M74 379q23 134 128 233t259 138q-122 35 -182.5 125.5t-38.5 209.5q28 156 170 257.5t333 101.5q192 0 298.5 -102t78.5 -257q-22 -120 -114 -210t-228 -127q140 -37 210.5 -136t47.5 -233q-29 -169 -185.5 -279t-365.5 -110t-324.5 110t-86.5 279zM115 379 q-26 -151 80.5 -249.5t298.5 -98.5t333.5 98.5t167.5 249.5t-80.5 249.5t-298.5 98.5t-333.5 -98.5t-167.5 -249.5zM281 1085q-25 -137 72 -227t270 -90t302 90t154 227q23 137 -74 227.5t-270 90.5t-302 -90.5t-152 -227.5z" />
<glyph horiz-adv-x="1228" d="M231 1004q34 192 180.5 316t338.5 124t294 -124t68 -316q-28 -155 -135 -291l-567 -713h-48l515 645q-132 -82 -283 -82q-192 0 -294.5 124.5t-68.5 316.5zM272 1004q-31 -173 62 -286.5t266 -113.5t306.5 113.5t164.5 286.5t-63 286t-267 113t-305.5 -113t-163.5 -286z " />
<glyph horiz-adv-x="684" d="M12 358q28 158 122 261.5t210 103.5q115 0 172 -103.5t29 -261.5t-121 -261t-209 -103t-173.5 103t-29.5 261zM55 358q-25 -140 22 -231.5t144 -91.5t176.5 91.5t104.5 231.5q25 141 -22 232.5t-144 91.5t-176.5 -91.5t-104.5 -232.5z" />
<glyph horiz-adv-x="481" d="M47 553l246 164h41l-127 -717h-41l119 666l-219 -146z" />
<glyph horiz-adv-x="591" d="M-61 0l8 41q27 38 84.5 84t119.5 89t122.5 91t104.5 105.5t54 115.5q12 73 -29.5 114.5t-123.5 41.5q-127 0 -209 -92l-23 28q88 105 240 105q100 0 150.5 -52.5t35.5 -144.5q-14 -77 -77 -152t-133 -124.5t-152 -109.5t-117 -99h407l-8 -41h-454z" />
<glyph horiz-adv-x="579" d="M-53 98l35 31q43 -94 165 -94q85 0 147.5 45.5t74.5 116.5q12 69 -33.5 113t-128.5 44h-33l6 39h35q74 0 129.5 42t67.5 106q11 63 -30.5 102t-119.5 39q-121 0 -196 -94l-25 30q88 105 231 105q95 0 146 -49t37 -129q-9 -57 -49.5 -102.5t-98.5 -67.5q59 -22 87 -69 t18 -111q-15 -88 -91.5 -144.5t-179.5 -56.5q-142 0 -194 104z" />
<glyph horiz-adv-x="673" d="M-29 184l9 41l483 492h43l-86 -492h110l-8 -41h-110l-33 -184h-43l33 184h-398zM31 225h346l76 430z" />
<glyph horiz-adv-x="557" d="M-59 102l34 29q44 -96 162 -96q84 0 147.5 50.5t77.5 127.5q12 77 -31 126.5t-126 49.5h-170l57 328h352l-6 -41h-315l-43 -248h131q100 0 155 -60.5t40 -154.5q-17 -95 -95 -157t-182 -62q-66 0 -115.5 28.5t-72.5 79.5z" />
<glyph horiz-adv-x="600" d="M-12 221q12 71 71 146l273 350h49l-234 -299q48 26 115 26q95 0 146 -63t34 -160q-17 -98 -92.5 -162.5t-173.5 -64.5t-151.5 64.5t-36.5 162.5zM31 219q-14 -80 29 -132t122 -52q80 0 142 52.5t75 131.5q14 80 -29 132t-122 52q-80 0 -142 -52.5t-75 -131.5z" />
<glyph horiz-adv-x="581" d="M49 0l410 678h-402l6 39h447l-6 -39l-410 -678h-45z" />
<glyph horiz-adv-x="634" d="M-16 193q10 63 58 111.5t118 70.5q-54 22 -79 65.5t-15 100.5q13 79 84.5 130.5t168.5 51.5q96 0 150.5 -52t40.5 -130q-10 -56 -51.5 -100t-102.5 -66q62 -22 91.5 -70t19.5 -112q-15 -86 -94 -142.5t-183 -56.5t-162.5 56.5t-43.5 142.5zM27 195q-12 -69 36 -114.5 t134 -45.5q87 0 151 45.5t76 114.5t-35 113t-135 44q-87 0 -151 -44t-76 -113zM106 539q-11 -62 32.5 -103t121.5 -41t137 41t70 103t-33.5 102.5t-122.5 40.5t-136 -40.5t-69 -102.5z" />
<glyph horiz-adv-x="589" d="M27 498q17 98 93 161.5t175 63.5q98 0 150.5 -63.5t35.5 -161.5q-13 -78 -71 -148l-283 -350h-49l241 297q-52 -25 -110 -25q-96 0 -147.5 64t-34.5 162zM70 498q-14 -80 29 -132.5t122 -52.5q80 0 142 53t75 132q14 80 -29 132t-122 52q-80 0 -142 -52.5t-75 -131.5z " />
<glyph horiz-adv-x="249" d="M-94 -147l104 233l41 -12l-114 -230z" />
<glyph horiz-adv-x="249" d="M-37 35q3 19 16.5 30t32.5 11t27.5 -11t5.5 -30q-3 -18 -16 -29.5t-31 -11.5q-19 0 -28.5 12t-6.5 29z" />
<glyph horiz-adv-x="342" d="M-4 198q0 65 12 136q12 70 35 135t49.5 112t55.5 88t55.5 68t48 46t34.5 27l13 9l23 -22l-11 -8q-11 -8 -31.5 -26t-45.5 -43t-52.5 -64t-52.5 -84t-46.5 -107.5t-33.5 -130.5q-44 -252 62 -410q17 -24 47 -55l-31 -23q-4 3 -10 9t-23.5 27.5t-32.5 46.5t-31.5 67.5 t-25 89.5t-8.5 112z" />
<glyph horiz-adv-x="342" d="M-115 -131q9 5 23.5 16t54.5 51t74 89t69 132t52 177q16 100 11.5 176.5t-24 131t-41 89t-38.5 50.5l-17 16l31 22q4 -3 10 -9t23.5 -27t32.5 -46.5t31.5 -67.5t25 -88.5t8.5 -111.5t-12 -135q-12 -71 -35 -136t-49.5 -112.5t-55.5 -88.5t-55.5 -68t-48 -46.5 t-34.5 -28.5l-13 -8z" />
<glyph horiz-adv-x="409" d="M16 268l9 39h217l-9 -39h-217z" />
<glyph horiz-adv-x="614" d="M6 289l6 39h207l37 204h39l-37 -204h205l-6 -39h-205l-37 -207h-39l37 207h-207z" />
<glyph horiz-adv-x="614" d="M-31 82l8 39h451l-8 -39h-451zM27 399l6 39h207l36 207h39l-36 -207h204l-6 -39h-205l-36 -204h-39l36 204h-206z" />
<glyph horiz-adv-x="614" d="M-14 176l8 39h450l-8 -39h-450zM27 401l6 39h450l-6 -39h-450z" />
<glyph horiz-adv-x="684" d="M139 1075q28 158 121.5 261.5t208.5 103.5q116 0 173.5 -103.5t29.5 -261.5t-121 -261t-209 -103t-173.5 103t-29.5 261zM182 1075q-25 -140 22 -231.5t144 -91.5t176.5 91.5t104.5 231.5q25 141 -22 232.5t-144 91.5t-176.5 -91.5t-104.5 -232.5z" />
<glyph horiz-adv-x="481" d="M174 1270l246 164h41l-127 -717h-41l117 665l-217 -145z" />
<glyph horiz-adv-x="591" d="M66 717l8 41q27 38 84.5 84t119 89t121.5 91t104 105.5t54 115.5q13 73 -28 114.5t-123 41.5q-127 0 -209 -92l-25 28q91 105 240 105q101 0 152 -53t34 -144q-11 -63 -52.5 -122.5t-99.5 -108t-116.5 -90t-118.5 -86t-90 -78.5h407l-8 -41h-454z" />
<glyph horiz-adv-x="579" d="M74 815l35 31q43 -94 165 -94q85 0 147.5 45.5t74.5 115.5q12 69 -33.5 113.5t-128.5 44.5h-33l6 39h35q74 0 129.5 41.5t67.5 105.5q11 63 -30.5 102.5t-119.5 39.5q-121 0 -196 -94l-27 30q91 105 231 105q95 0 146.5 -49.5t38.5 -128.5q-10 -58 -50.5 -103t-99.5 -67 q60 -22 88.5 -69.5t18.5 -111.5q-15 -88 -91.5 -144t-179.5 -56q-142 0 -194 104z" />
<glyph horiz-adv-x="673" d="M98 901l6 41l486 492h43l-88 -492h110l-6 -41h-110l-33 -184h-43l33 184h-398zM156 942h346l76 430z" />
<glyph horiz-adv-x="557" d="M68 819l32 29q44 -96 164 -96q85 0 148 50.5t75 127.5q14 77 -29 126.5t-126 49.5h-170l57 328h352l-8 -41h-313l-43 -248h131q100 0 154.5 -61t37.5 -154q-17 -96 -93.5 -157.5t-180.5 -61.5q-66 0 -115.5 28.5t-72.5 79.5z" />
<glyph horiz-adv-x="600" d="M115 938q12 70 71 145l273 351h49l-236 -299q51 26 115 26q95 0 147 -63t35 -160q-17 -98 -93.5 -162.5t-174.5 -64.5t-150.5 64.5t-35.5 162.5zM158 936q-14 -80 29 -132t122 -52q80 0 142 52.5t75 131.5q14 80 -29 132t-122 52q-80 0 -142 -52.5t-75 -131.5z" />
<glyph horiz-adv-x="581" d="M176 717l408 678h-402l8 39h447l-8 -39l-408 -678h-45z" />
<glyph horiz-adv-x="634" d="M111 909q10 63 57.5 112t116.5 71q-53 22 -77 65t-15 100q14 80 84.5 131.5t166.5 51.5q97 0 152 -52.5t41 -130.5q-10 -56 -51.5 -99.5t-102.5 -65.5q61 -22 91 -70.5t20 -112.5q-15 -86 -94.5 -142t-184.5 -56q-104 0 -161.5 56t-42.5 142zM154 911q-12 -69 36 -114 t134 -45q87 0 151 45t76 114t-36 113.5t-136 44.5q-86 0 -149.5 -44.5t-75.5 -113.5zM231 1255q-11 -62 33.5 -102.5t122.5 -40.5t136 40.5t69 102.5t-32.5 103t-121.5 41t-137 -41t-70 -103z" />
<glyph horiz-adv-x="589" d="M154 1214q17 98 92.5 162t173.5 64t151.5 -64t36.5 -162q-12 -72 -71 -147l-283 -350h-49l241 299q-59 -27 -112 -27q-95 0 -146 63.5t-34 161.5zM197 1214q-14 -80 29 -132t122 -52q80 0 142 52.5t75 131.5q14 80 -29 132.5t-122 52.5q-80 0 -142 -53t-75 -132z" />
<glyph horiz-adv-x="249" d="M31 569l104 234l41 -12l-113 -230z" />
<glyph horiz-adv-x="249" d="M90 752q3 19 16.5 30t32.5 11t27.5 -11t5.5 -30q-3 -18 -17 -29.5t-32 -11.5t-27 11.5t-6 29.5z" />
<glyph horiz-adv-x="342" d="M123 915q0 65 12 136q17 96 53 181.5t75.5 138.5t77 92.5t61.5 56.5l24 16l23 -23l-11 -8q-12 -8 -32.5 -25.5t-45 -42.5t-52.5 -64t-52.5 -84t-46 -107.5t-33.5 -130.5q-44 -252 62 -410q17 -24 47 -55l-31 -23q-4 3 -10 9t-23.5 27.5t-32.5 46.5t-31.5 67.5t-25 89.5 t-8.5 112z" />
<glyph horiz-adv-x="342" d="M12 586q9 5 23.5 16t54.5 51t74 89t69 132t52 177q16 100 11 176.5t-24.5 130.5t-40.5 88.5t-38 50.5l-17 16l31 23q2 -2 6 -5.5t15.5 -16t22.5 -27.5t25 -40t25 -52t20.5 -65t13.5 -79t2 -93t-11 -107q-12 -71 -35 -136t-49.5 -112.5t-55.5 -88.5t-55.5 -68t-48 -46.5 t-34.5 -27.5l-13 -9z" />
<glyph horiz-adv-x="409" d="M143 985l7 39h217l-7 -39h-217z" />
<glyph horiz-adv-x="614" d="M133 1006l6 38h207l37 205h39l-37 -205h205l-6 -38h-205l-37 -207h-39l37 207h-207z" />
<glyph horiz-adv-x="614" d="M96 799l6 39h451l-6 -39h-451zM152 1116l8 39h207l36 207h39l-36 -207h204l-8 -39h-203l-37 -205h-38l36 205h-208z" />
<glyph horiz-adv-x="614" d="M113 893l8 39h450l-8 -39h-450zM154 1118l6 39h450l-6 -39h-450z" />
<glyph horiz-adv-x="684" d="M-25 154q29 158 123 261t209 103q116 0 173.5 -103t29.5 -261q-29 -159 -123 -262t-209 -103q-116 0 -173.5 103.5t-29.5 261.5zM20 154q-26 -139 21.5 -231.5t144.5 -92.5t176.5 92t104.5 232q25 141 -23 232t-145 91t-175.5 -91t-103.5 -232z" />
<glyph horiz-adv-x="481" d="M10 348l246 164h41l-125 -717h-41l117 666l-219 -146z" />
<glyph horiz-adv-x="591" d="M-96 -205l6 41q27 38 85 84.5t119.5 89.5t122 91t104.5 105.5t54 115.5q12 73 -29.5 114t-123.5 41q-127 0 -209 -92l-23 29q90 104 240 104q101 0 152 -52.5t34 -143.5q-11 -63 -52.5 -122.5t-99.5 -108.5t-117 -90.5t-119 -86t-91 -78.5h408l-7 -41h-454z" />
<glyph horiz-adv-x="579" d="M-90 -106l37 30q43 -94 166 -94q85 0 147 45.5t74 116.5q12 69 -34.5 113.5t-129.5 44.5h-33l8 38h35q74 0 129.5 42t65.5 106q11 63 -30.5 102t-119.5 39q-121 0 -196 -94l-25 31q90 104 232 104q95 0 146 -49.5t38 -128.5q-10 -57 -51 -102.5t-99 -67.5 q60 -22 88.5 -69.5t16.5 -110.5q-15 -88 -91.5 -144.5t-179.5 -56.5q-68 0 -118.5 27.5t-75.5 77.5z" />
<glyph horiz-adv-x="673" d="M-66 -20l9 40l483 492h43l-86 -492h111l-7 -40h-110l-33 -185h-43l33 185h-400zM-6 20h346l76 431z" />
<glyph horiz-adv-x="557" d="M-96 -102l35 28q44 -96 163 -96q84 0 147 50.5t77 127.5t-30.5 126.5t-127.5 49.5h-170l57 328h353l-7 -41h-313l-45 -248h133q100 0 155 -61t38 -154q-17 -95 -95 -157t-182 -62q-65 0 -114 28.5t-74 80.5z" />
<glyph horiz-adv-x="600" d="M-47 16q12 73 70 146l272 350h49l-233 -299q53 27 114 27q95 0 147.5 -63.5t35.5 -160.5q-19 -98 -95 -162.5t-174 -64.5t-151.5 64.5t-34.5 162.5zM-6 14q-13 -79 30 -131.5t123 -52.5q79 0 141 52t77 132q13 79 -30.5 132t-123.5 53q-79 0 -140.5 -52.5t-76.5 -132.5z " />
<glyph horiz-adv-x="581" d="M14 -205l408 678h-402l7 39h446l-6 -39l-408 -678h-45z" />
<glyph horiz-adv-x="634" d="M-53 -12q12 64 59 112t117 70q-53 22 -78 65.5t-16 100.5q13 79 85 130.5t169 51.5q96 0 150 -52t40 -130q-9 -56 -50.5 -100t-103.5 -66q62 -22 92.5 -70t18.5 -112q-15 -86 -93.5 -142.5t-182.5 -56.5t-163 56.5t-44 142.5zM-10 -10q-12 -69 37 -114.5t135 -45.5 q87 0 150.5 45.5t74.5 114.5q12 69 -35 113t-135 44q-87 0 -151 -44t-76 -113zM70 334q-11 -62 33 -103t122 -41t136 41t69 103t-33.5 102.5t-122.5 40.5t-135.5 -40.5t-68.5 -102.5z" />
<glyph horiz-adv-x="589" d="M-10 293q19 98 94.5 161.5t173.5 63.5q99 0 152 -63.5t36 -161.5q-16 -78 -71 -148l-283 -350h-49l242 297q-53 -24 -113 -24q-96 0 -147.5 63.5t-34.5 161.5zM35 293q-15 -79 28 -131.5t123 -52.5q79 0 140.5 52t76.5 132q13 79 -30 131.5t-123 52.5q-79 0 -140 -52 t-75 -132z" />
<glyph horiz-adv-x="249" d="M-131 -352l104 233l41 -12l-114 -229z" />
<glyph horiz-adv-x="249" d="M-72 -170q7 41 47 41q19 0 28.5 -11t6.5 -30q-3 -18 -17 -29.5t-32 -11.5t-27 11.5t-6 29.5z" />
<glyph horiz-adv-x="342" d="M-40 21q2 52 11 108q12 70 35 135t49.5 112t55.5 88t55.5 68t48 46t34.5 28l13 8l23 -22l-11 -8q-11 -8 -31.5 -26t-45.5 -43t-52.5 -64t-52.5 -84t-46.5 -107.5t-33.5 -130.5q-44 -252 62 -410q17 -24 47 -55l-31 -22q-2 2 -6 5.5t-15.5 16t-22.5 27.5t-25 40t-25 52.5 t-20.5 65.5t-13.5 79t-2 93z" />
<glyph horiz-adv-x="342" d="M-152 -336q9 5 23.5 16t54.5 51t74 89t69 132t52 177q16 100 11.5 176.5t-24 131t-41 89t-38.5 50.5l-17 16l31 22q4 -3 10 -9t23.5 -27t32.5 -46.5t31.5 -67.5t25 -88.5t8.5 -111.5t-12 -135q-17 -97 -53 -182.5t-75.5 -139t-77 -93t-61.5 -56.5l-24 -16z" />
<glyph horiz-adv-x="409" d="M-18 63l6 39h217l-6 -39h-217z" />
<glyph horiz-adv-x="614" d="M-29 84l6 39h207l35 205h39l-35 -205h205l-6 -39h-207l-35 -207h-39l35 207h-205z" />
<glyph horiz-adv-x="614" d="M-66 -123l7 39h450l-6 -39h-451zM-10 195l6 38h207l37 207h39l-37 -207h204l-6 -38h-204l-37 -205h-39l37 205h-207z" />
<glyph horiz-adv-x="614" d="M-49 -29l6 39h451l-7 -39h-450zM-10 197l8 39h451l-9 -39h-450z" />
<glyph horiz-adv-x="684" d="M176 1280q28 158 121.5 261.5t208.5 103.5q116 0 173.5 -103.5t29.5 -261.5q-29 -159 -123 -262t-209 -103q-116 0 -173 103.5t-28 261.5zM219 1280q-26 -139 21.5 -231.5t144.5 -92.5q96 0 175.5 92t105.5 232q25 141 -23 232.5t-145 91.5t-175.5 -91.5t-103.5 -232.5z " />
<glyph horiz-adv-x="481" d="M209 1475l246 163h41l-125 -716h-41l116 665l-219 -145z" />
<glyph horiz-adv-x="591" d="M102 922l7 41q27 38 85 84t119.5 89t122 91t104.5 105.5t54 115.5q12 73 -30 114.5t-124 41.5q-126 0 -209 -93l-22 29q91 105 240 105q101 0 152 -53t34 -144q-11 -63 -52.5 -122.5t-100 -108t-117.5 -90t-119 -86t-90 -78.5h407l-6 -41h-455z" />
<glyph horiz-adv-x="579" d="M109 1020l36 31q21 -45 64 -70t102 -25q84 0 145.5 45.5t75.5 116.5q12 69 -34 113.5t-129 44.5h-33l8 39h35q74 0 129 41.5t65 105.5q11 63 -30 102.5t-119 39.5q-121 0 -197 -95l-24 31q91 105 231 105q95 0 146.5 -49.5t37.5 -129.5q-10 -58 -50.5 -103t-98.5 -67 q60 -22 88 -69.5t16 -110.5q-15 -88 -91 -144.5t-179 -56.5q-141 0 -194 105z" />
<glyph horiz-adv-x="673" d="M135 1106l6 41l484 491h43l-86 -491h110l-6 -41h-113l-30 -184h-43l30 184h-395zM193 1147h346l75 430z" />
<glyph horiz-adv-x="557" d="M102 1024l35 29q21 -45 63 -71t101 -26q84 0 146.5 51t76.5 128t-30 126.5t-127 49.5h-170l57 327h352l-6 -41h-313l-45 -247h133q100 0 154.5 -61t37.5 -154q-17 -96 -94.5 -158t-181.5 -62q-65 0 -114.5 29t-74.5 80z" />
<glyph horiz-adv-x="600" d="M152 1143q12 73 69 145l273 350h49l-234 -299q52 27 115 27q95 0 147 -63t35 -160q-19 -99 -94.5 -163.5t-173.5 -64.5t-151.5 65t-34.5 163zM193 1141q-14 -80 30 -132.5t123 -52.5t140 52.5t75 132.5q15 79 -28 131.5t-123 52.5q-79 0 -140.5 -52t-76.5 -132z" />
<glyph horiz-adv-x="581" d="M213 922l408 677h-402l6 39h447l-6 -39l-408 -677h-45z" />
<glyph horiz-adv-x="634" d="M145 1114q10 63 58 111.5t119 70.5q-54 22 -79 65.5t-16 100.5q13 79 85 131t169 52q96 0 150.5 -52.5t40.5 -130.5q-9 -56 -50.5 -100t-103.5 -66q62 -22 91.5 -70t19.5 -112q-15 -86 -94 -142.5t-183 -56.5t-163 56.5t-44 142.5zM188 1116q-12 -69 37 -114.5t135 -45.5 q87 0 150.5 45.5t75.5 114.5t-35.5 113.5t-134.5 44.5t-151.5 -44.5t-76.5 -113.5zM268 1460q-11 -62 33.5 -102.5t122.5 -40.5t136 40.5t69 102.5t-33.5 103t-122.5 41t-136 -41t-69 -103z" />
<glyph horiz-adv-x="589" d="M188 1419q19 98 95 162t174 64q99 0 152 -64t34 -162q-12 -73 -70 -147l-282 -350h-49l239 297q-52 -25 -110 -25q-96 0 -148 63.5t-35 161.5zM231 1419q-13 -79 30.5 -131.5t123.5 -52.5q79 0 140 52t75 132q15 79 -28 132t-123 53q-79 0 -141 -52.5t-77 -132.5z" />
<glyph horiz-adv-x="249" d="M68 774l104 234l41 -13l-115 -229z" />
<glyph horiz-adv-x="249" d="M127 956q7 41 47 41q19 0 28.5 -11t6.5 -30q-3 -18 -17 -29.5t-32 -11.5t-27 11.5t-6 29.5z" />
<glyph horiz-adv-x="342" d="M159 1147q2 52 11 108q17 96 53.5 181.5t76 139t76.5 93t61 55.5l24 17l22 -23l-11 -8q-11 -8 -31.5 -26t-45 -43t-52 -64t-52.5 -84t-46.5 -107.5t-33.5 -130.5q-9 -54 -11.5 -104.5t1.5 -90t12 -75t19 -62.5t23 -49t23.5 -37.5t21 -26t14.5 -14.5l5 -5l-30 -23 q-2 2 -6 5.5t-15.5 16t-22.5 27.5t-25 40t-25 52.5t-20.5 65.5t-13.5 79t-2 93z" />
<glyph horiz-adv-x="342" d="M47 791q9 5 23.5 15.5t54.5 51t73.5 89t68.5 131.5t52 177q16 100 11.5 176.5t-24 131t-40.5 89t-38 50.5l-17 16l31 23q4 -3 10 -9t23.5 -27.5t32.5 -46.5t31 -67.5t24.5 -89t8.5 -111.5t-12 -135q-17 -97 -52.5 -182.5t-75 -139t-77 -93t-61.5 -56.5l-24 -16z" />
<glyph horiz-adv-x="409" d="M180 1190l6 39h217l-6 -39h-217z" />
<glyph horiz-adv-x="614" d="M168 1210l8 39h207l35 205h39l-35 -205h205l-9 -39h-204l-35 -206h-39l35 206h-207z" />
<glyph horiz-adv-x="614" d="M133 1004l6 38h451l-6 -38h-451zM188 1321l7 39h206l37 207h39l-37 -207h205l-6 -39h-205l-37 -205h-39l37 205h-207z" />
<glyph horiz-adv-x="614" d="M150 1098l6 39h450l-6 -39h-450zM188 1323l9 39h450l-8 -39h-451z" />
<glyph horiz-adv-x="1757" d="M121 711q38 211 165 378.5t318.5 261t411.5 93.5q213 0 368.5 -85.5t225 -239t35.5 -347.5q-32 -181 -133 -302.5t-216 -121.5q-75 0 -112 56t-25 145q-61 -93 -157 -147t-207 -54q-160 0 -245.5 104.5t-57.5 264.5t151 264t283 104q112 0 188.5 -53t104.5 -145l32 188 h41l-90 -510q-14 -78 14.5 -127t90.5 -49q96 0 182 110t115 273q24 137 -8.5 255t-112 200t-202 129t-273.5 47q-208 0 -389 -88.5t-301 -246.5t-156 -357q-25 -145 3.5 -271t101 -216t188.5 -141.5t260 -51.5q177 0 332 73l18 -34q-171 -80 -358 -80q-204 0 -350.5 93 t-209 257.5t-26.5 370.5zM532 717q-25 -143 52 -235.5t219 -92.5q141 0 248.5 92.5t132.5 235.5t-49.5 235t-216.5 92q-143 0 -252 -92.5t-134 -234.5z" />
<glyph horiz-adv-x="825" d="M205 717q15 91 84 150t160 59t139 -59t33 -150q-15 -90 -85 -148.5t-161 -58.5q-90 0 -137.5 58t-32.5 149z" />
<glyph horiz-adv-x="491" d="M98 0l181 1016h40l-180 -1016h-41zM301 1382q4 26 26 44t48 18t40 -18t9 -44q-4 -26 -25 -43.5t-47 -17.5t-40.5 17.5t-10.5 43.5z" />
<glyph horiz-adv-x="1017" d="M88 348q13 72 44 126.5t72 89t88 64.5t94 62.5t88 72t73 104t45 149.5h41q-14 -90 -46.5 -158.5t-74 -110.5t-88.5 -75.5t-94 -62.5t-87.5 -61.5t-71 -83.5t-42.5 -118q-25 -144 51.5 -229.5t235.5 -85.5q118 0 223.5 49.5t179.5 138.5l25 -29q-78 -95 -191.5 -147.5 t-242.5 -52.5q-177 0 -263.5 97t-58.5 261zM608 1382q4 26 26 44t48 18t40 -18t9 -44q-4 -26 -25 -43.5t-47 -17.5t-40.5 17.5t-10.5 43.5z" />
<glyph horiz-adv-x="989" d="M143 717l371 432l37 -8l-346 -424l198 -424l-41 -8zM492 717l370 432l37 -8l-346 -424l199 -424l-41 -8z" />
<glyph horiz-adv-x="989" d="M90 293l346 424l-198 424l41 8l219 -432l-371 -432zM438 293l346 424l-198 424l41 8l219 -432l-371 -432z" />
<glyph horiz-adv-x="641" d="M143 717l371 432l37 -8l-346 -424l198 -424l-41 -8z" />
<glyph horiz-adv-x="641" d="M90 293l346 424l-198 424l41 8l219 -432l-371 -432z" />
<glyph horiz-adv-x="819" d="M201 696l8 41h409l-8 -41h-409z" />
<glyph horiz-adv-x="1228" d="M201 696l8 41h819l-8 -41h-819z" />
<glyph horiz-adv-x="2048" d="M201 696l8 41h1638l-8 -41h-1638z" />
<glyph horiz-adv-x="614" d="M287 -205v1843h41v-1843h-41z" />
<glyph horiz-adv-x="614" d="M287 -205v717h41v-717h-41zM287 922v716h41v-716h-41z" />
<glyph horiz-adv-x="702" d="M-160 -190l985 1828l37 -14l-985 -1829z" />
<glyph horiz-adv-x="702" d="M160 1624l41 14l342 -1828l-41 -15z" />
<glyph horiz-adv-x="686" d="M141 504q4 103 23 213t51.5 212.5t70 183t81 153t87 126.5t85.5 99.5t78 76t63.5 51.5t43.5 31l15 9l27 -29q-9 -5 -25.5 -15t-64.5 -48.5t-94 -84t-106 -124t-108.5 -166.5t-93.5 -213t-69 -262q-32 -201 -21 -353t53 -259t87.5 -174t81.5 -97l36 -31l-34 -28 q-5 3 -13 9.5t-31.5 30.5t-46 52t-51 75t-51 99.5t-42 126.5t-28 153.5t-4.5 182.5z" />
<glyph horiz-adv-x="686" d="M-80 -197q9 5 25.5 15t64.5 48.5t94 84.5t106 124.5t108.5 166.5t93.5 213t69 262q32 201 21 353t-53 258.5t-87.5 173.5t-81.5 98l-36 30l35 29q5 -3 13 -9.5t31.5 -30.5t45.5 -52t50.5 -75t51 -99.5t42 -126.5t28 -153.5t4.5 -182.5t-23 -213t-51.5 -212.5t-70 -183 t-81 -153t-87 -126.5t-85.5 -99.5t-78 -76t-63.5 -51.5t-43.5 -31l-15 -9z" />
<glyph horiz-adv-x="675" d="M63 -205l324 1843h348l-6 -41h-309l-307 -1761h305l-6 -41h-349z" />
<glyph horiz-adv-x="675" d="M-59 -205l6 41h309l307 1761h-305l6 41h348l-323 -1843h-348z" />
<glyph horiz-adv-x="839" d="M180 696l8 41q89 0 156 52.5t82 134.5l80 456q20 113 105.5 185.5t197.5 72.5h90l-6 -41h-90q-94 0 -166.5 -61.5t-89.5 -155.5l-80 -456q-13 -74 -68.5 -130.5t-134.5 -76.5q71 -20 106.5 -76.5t22.5 -130.5l-80 -457q-17 -94 34 -155.5t145 -61.5h90l-7 -41h-90 q-113 0 -173 73t-40 185l80 457q15 81 -33.5 133.5t-138.5 52.5z" />
<glyph horiz-adv-x="839" d="M-59 -205l6 41h90q94 0 166.5 61.5t89.5 155.5l80 457q13 75 68.5 131t133.5 76q-71 20 -106.5 76.5t-22.5 130.5l80 456q17 94 -33.5 155.5t-144.5 61.5h-90l6 41h90q113 0 173 -73t40 -185l-80 -456q-15 -82 34 -134.5t138 -52.5l-8 -41q-89 0 -155.5 -52t-81.5 -134 l-80 -457q-20 -113 -105.5 -185.5t-197.5 -72.5h-90z" />
</font>
</defs>
</svg>
