<?xml version="1.0" standalone="no"?>
<!DOCTYPE svg PUBLIC "-//W3C//DTD SVG 1.1//EN" "http://www.w3.org/Graphics/SVG/1.1/DTD/svg11.dtd" >
<svg xmlns="http://www.w3.org/2000/svg" xmlns:xlink="http://www.w3.org/1999/xlink" version="1.1">
<metadata></metadata>
<defs>
<font id="daikonmedium_italic" horiz-adv-x="1228" >
<font-face units-per-em="2048" ascent="1741" descent="-307" />
<missing-glyph horiz-adv-x="569" />
<glyph unicode="&#xfb01;" horiz-adv-x="1280" d="M59 -307l203 1155h-180l31 176h180l22 123q29 167 171.5 264.5t359.5 97.5l-35 -186q-123 0 -203.5 -48.5t-93.5 -131.5l-22 -119h268l-31 -176h-268l-203 -1155h-199zM797 0l180 1024h199l-181 -1024h-198zM993 1350q12 63 57.5 102t108.5 39t95 -39t20 -102 q-10 -63 -55.5 -101.5t-108.5 -38.5t-95 38.5t-22 101.5z" />
<glyph unicode="&#xfb02;" horiz-adv-x="1280" d="M59 -307l203 1155h-180l31 176h180l22 123q29 167 171.5 264.5t359.5 97.5l-35 -186q-123 0 -203.5 -48.5t-93.5 -131.5l-22 -119h268l-31 -176h-268l-203 -1155h-199zM797 0l264 1495h199l-265 -1495h-198z" />
<glyph unicode="ft" horiz-adv-x="1497" d="M59 -307l203 1155h-180l31 176h180l22 123q29 167 171.5 264.5t357.5 97.5l-33 -186q-123 0 -203.5 -48.5t-93.5 -131.5l-22 -119h464l43 244h199l-43 -244h297l-31 -176h-297l-100 -567q-11 -57 23 -89t104 -32q80 0 154 24l-31 -174q-70 -26 -176 -26 q-151 0 -224.5 78.5t-48.5 213.5l101 572h-465l-203 -1155h-199z" />
<glyph horiz-adv-x="0" />
<glyph horiz-adv-x="0" />
<glyph unicode="&#xd;" horiz-adv-x="512" />
<glyph unicode=" "  horiz-adv-x="569" />
<glyph unicode="&#x09;" horiz-adv-x="569" />
<glyph unicode="&#xa0;" horiz-adv-x="569" />
<glyph unicode="!" horiz-adv-x="514" d="M14 125q9 64 54.5 102.5t109.5 38.5q63 0 94.5 -38t22.5 -103q-12 -63 -57.5 -101t-108.5 -38q-64 0 -95.5 38t-19.5 101zM131 440l143 994h222l-211 -994h-154z" />
<glyph unicode="&#x22;" horiz-adv-x="761" d="M176 922l68 512h198l-112 -512h-154zM506 922l69 512h197l-113 -512h-153z" />
<glyph unicode="#" horiz-adv-x="1495" d="M59 358l31 177h281l65 364h-280l30 176h281l63 359h177l-64 -359h336l63 359h177l-64 -359h281l-31 -176h-281l-65 -364h280l-30 -177h-281l-63 -358h-177l64 358h-336l-63 -358h-177l64 358h-281zM547 535h336l65 364h-336z" />
<glyph unicode="$" horiz-adv-x="1200" d="M0 174l172 145q119 -135 336 -135q137 0 229 55t109 146q9 50 -11 88t-60 64t-94.5 47.5t-115 42t-121 43.5t-113 56.5t-90 76t-52.5 107t-1 145.5q29 164 152 267t309 122l43 250h150l-43 -248q122 -11 214 -58.5t136 -125.5l-168 -146q-33 61 -111 97t-186 36 q-122 0 -200 -47t-93 -131q-8 -49 11.5 -87.5t60 -64.5t94.5 -48t114.5 -43t120.5 -45t112 -58t89.5 -77t52.5 -107.5t1 -145.5q-31 -171 -162.5 -278t-333.5 -127l-43 -250h-150l43 248q-268 18 -401 186z" />
<glyph unicode="%" horiz-adv-x="1785" d="M186 1096q26 154 141.5 254t266.5 100q149 0 230 -100t55 -252t-142.5 -251t-267.5 -99q-150 0 -229.5 98.5t-53.5 249.5zM225 84l1196 1362l127 -98l-1198 -1364zM360 1094q-14 -78 25.5 -130.5t114.5 -52.5q73 0 130.5 52.5t71.5 130.5q15 85 -23.5 138.5t-111.5 53.5 q-76 0 -134 -53.5t-73 -138.5zM907 334q26 153 141 252.5t265 99.5q151 0 231.5 -99t54.5 -253q-28 -152 -143 -251t-266 -99t-231 99t-52 251zM1081 332q-14 -80 25.5 -132.5t114.5 -52.5q72 0 130.5 53t71.5 132q15 84 -23.5 137t-111.5 53q-76 0 -134 -53t-73 -137z" />
<glyph unicode="&#x26;" horiz-adv-x="1345" d="M63 397q13 73 44.5 136.5t79 114t98 88.5t114.5 75q-94 175 -67 319q25 139 141 228.5t272 89.5q157 0 244 -88.5t62 -222.5q-12 -64 -45.5 -118.5t-90 -101t-106.5 -78t-127 -73.5q8 -8 12 -14l236 -295q46 93 67 221h205q-40 -224 -141 -383l156 -193l-166 -133 l-133 164q-179 -147 -435 -147q-226 0 -340.5 111t-79.5 300zM272 399q-19 -100 48 -158.5t196 -58.5q164 0 283 99l-287 362q-1 1 -16 21q-96 -60 -154 -122.5t-70 -142.5zM535 1108q-15 -80 49 -199q120 60 183.5 108t74.5 109q8 54 -27.5 89.5t-99.5 35.5 q-67 0 -117.5 -40t-62.5 -103z" />
<glyph unicode="'" horiz-adv-x="432" d="M176 922l68 512h198l-112 -512h-154z" />
<glyph unicode="(" horiz-adv-x="704" d="M89 460.5q3 101.5 22 205.5q18 104 50.5 205t72 183t85 158.5t91.5 136t91 110.5t83.5 87.5t67.5 62t46 37.5l17 13l100 -94l-5 -5q-186 -161 -316 -409q-119 -226 -164 -485q-22 -124 -24 -240.5t12 -204t36 -164t47 -128.5t48 -89.5t36 -55.5l13 -17l-133 -95 q-5 4 -13 12.5t-32 38t-47 62.5t-52 87t-52.5 111.5t-43.5 135.5t-29.5 159t-6.5 182.5z" />
<glyph unicode=")" horiz-adv-x="704" d="M-129 -233l5 5q186 160 316 406q121 227 166 488q22 124 24 240.5t-12 204t-36 164t-47.5 128.5t-48.5 89.5t-36 55.5l-14 17l134 94q5 -4 13 -12.5t32 -38t46.5 -62.5t52 -87t52.5 -111.5t43.5 -135t30 -158.5t7 -182.5t-20.5 -205.5q-24 -133 -70.5 -259.5t-101.5 -223 t-116 -181.5t-117 -144t-101.5 -102t-73.5 -64l-27 -20z" />
<glyph unicode="*" horiz-adv-x="1026" d="M170 1122l94 187l256 -117l31 303h194l-73 -303l299 115l28 -187l-309 -71l158 -232l-178 -115l-115 261l-205 -258l-137 114l238 232z" />
<glyph unicode="+" d="M164 526v176h362v363h176v-363h363v-176h-363v-362h-176v362h-362z" />
<glyph unicode="," horiz-adv-x="514" d="M-109 -270l242 549l182 -52l-284 -538z" />
<glyph unicode="-" horiz-adv-x="819" d="M119 485l33 177h499l-33 -177h-499z" />
<glyph unicode="." horiz-adv-x="514" d="M12 125q10 64 56 102.5t110 38.5q63 0 94 -38.5t21 -102.5q-10 -63 -55.5 -101t-108.5 -38q-64 0 -96 38t-21 101z" />
<glyph unicode="/" horiz-adv-x="858" d="M-170 -248l1026 1886l156 -59l-1026 -1886z" />
<glyph unicode="0" horiz-adv-x="1347" d="M119 717q36 209 137.5 376.5t245.5 261t303 93.5q157 0 266.5 -93.5t151.5 -261t6 -376.5q-27 -156 -93 -292.5t-156.5 -232.5t-203 -151t-229.5 -55q-159 0 -269.5 93.5t-153 261t-5.5 376.5zM326 441.5q21 -118.5 89 -188t167 -69.5q148 0 272 151t164 382 q41 231 -30 381.5t-220 150.5q-150 0 -274 -150.5t-164 -381.5q-25 -157 -4 -275.5z" />
<glyph unicode="1" horiz-adv-x="970" d="M170 1122l467 312h209l-254 -1434h-209l209 1188l-326 -225z" />
<glyph unicode="2" horiz-adv-x="1126" d="M-35 0l35 199q39 63 120 135t171 133.5t190.5 134.5t182 139t141 144.5t72.5 152.5q18 98 -45.5 154.5t-182.5 56.5q-203 0 -364 -174l-119 146q208 227 516 227q213 0 320.5 -109.5t72.5 -296.5q-16 -93 -66 -180t-115.5 -154t-154 -138t-168.5 -125t-173.5 -122.5 t-155.5 -123.5h696l-35 -199h-938z" />
<glyph unicode="3" horiz-adv-x="1165" d="M-12 211l172 145q83 -172 289 -172q127 0 222.5 67.5t112.5 170.5q19 101 -48 166t-189 65h-92l32 187h103q103 0 180 57.5t94 146.5q15 93 -47.5 149t-179.5 56q-194 0 -336 -182l-119 145q197 236 498 236q207 0 317.5 -105.5t81.5 -275.5q-19 -102 -81.5 -184.5 t-157.5 -134.5q91 -53 131.5 -144t21.5 -201q-34 -181 -197.5 -299t-381.5 -118q-149 0 -258 58t-168 167z" />
<glyph unicode="4" horiz-adv-x="1329" d="M29 322l32 188l881 924h211l-164 -924h203l-33 -188h-203l-57 -322h-211l57 322h-716zM285 510h493l115 639z" />
<glyph unicode="5" horiz-adv-x="1101" d="M-12 213l172 145q36 -82 104 -128t164 -46q130 0 226 75t116 190q22 116 -48 191t-198 75h-342l127 719h725l-39 -209h-536l-58 -324h162q216 0 334 -128t84 -327q-37 -198 -203 -329t-387 -131q-140 0 -244 58.5t-159 168.5z" />
<glyph unicode="6" horiz-adv-x="1206" d="M74 467q12 67 52.5 146t100.5 153l537 668h246l-412 -502q52 10 94 10q193 0 296.5 -135t66.5 -336q-37 -212 -200 -348.5t-376 -136.5q-211 0 -326.5 136t-78.5 345zM285 465q-22 -121 44 -201t185 -80q121 0 215.5 80t114.5 201q22 119 -44.5 198.5t-185.5 79.5 q-120 0 -214.5 -79t-114.5 -199z" />
<glyph unicode="7" horiz-adv-x="1085" d="M141 0l740 1247h-711l33 187h925l-32 -187l-738 -1247h-217z" />
<glyph unicode="8" horiz-adv-x="1230" d="M74 403q18 112 91.5 203t184.5 146q-79 53 -113.5 136.5t-15.5 184.5q28 163 177 269t350 106q198 0 307 -107.5t80 -271.5q-17 -101 -80 -183t-160 -134q91 -55 132.5 -146.5t21.5 -202.5q-32 -183 -190 -300t-372 -117t-329.5 117t-83.5 300zM285 416 q-17 -101 50 -166.5t187 -65.5t210.5 65.5t109.5 166.5q17 100 -50.5 164.5t-189.5 64.5q-120 0 -209 -64.5t-108 -164.5zM426 1053q-13 -88 47.5 -144.5t167.5 -56.5q106 0 187 57t96 144q13 85 -47 140.5t-164 55.5q-109 0 -190.5 -55.5t-96.5 -140.5z" />
<glyph unicode="9" horiz-adv-x="1187" d="M143 965q37 210 200 346.5t374 136.5t326.5 -136t78.5 -345q-26 -154 -157 -310l-549 -657h-250l424 500q-58 -8 -86 -8q-193 0 -295.5 135t-65.5 338zM352 971q-20 -121 46 -201t186 -80t213.5 80t115.5 201q20 120 -45.5 199t-185.5 79t-214 -79t-116 -199z" />
<glyph unicode=":" horiz-adv-x="514" d="M14 125q9 64 54.5 102.5t109.5 38.5q63 0 94.5 -38t22.5 -103q-12 -63 -57.5 -101t-108.5 -38q-64 0 -95.5 38t-19.5 101zM147 899q12 63 58 101t110 38q63 0 94 -38t19 -101q-11 -63 -55.5 -102t-108.5 -39q-63 0 -95.5 39t-21.5 102z" />
<glyph unicode=";" horiz-adv-x="514" d="M-137 -270l241 549l183 -52l-285 -538zM147 899q12 63 58 101t110 38q63 0 94 -38t19 -101q-11 -63 -55.5 -102t-108.5 -39q-63 0 -95.5 39t-21.5 102z" />
<glyph unicode="&#x3c;" d="M164 526v176l901 338v-188l-639 -238l639 -237v-187z" />
<glyph unicode="=" d="M164 301v176h901v-176h-901zM164 752v176h901v-176h-901z" />
<glyph unicode="&#x3e;" d="M164 190v187l639 237l-639 238v188l901 -338v-176z" />
<glyph unicode="?" horiz-adv-x="1083" d="M147 1221q85 109 218.5 168t293.5 59q215 0 317.5 -103t70.5 -288q-13 -72 -42.5 -125t-67.5 -84.5t-82 -57.5t-89 -54t-85.5 -62.5t-74.5 -94t-53 -139.5h-154q4 93 28.5 165.5t61 117t81 78.5t89.5 60.5t84 52.5t67.5 64t37.5 87q17 88 -40.5 137t-176.5 49 q-120 0 -216 -47t-153 -127zM287 125q10 64 55.5 102.5t108.5 38.5t94.5 -38.5t21.5 -102.5q-10 -63 -56.5 -101t-109.5 -38t-94 38t-20 101z" />
<glyph unicode="@" horiz-adv-x="1667" d="M41 506q38 212 164.5 379t318 260.5t414.5 93.5q212 0 367.5 -84.5t224.5 -235t35 -339.5t-144 -313t-245 -124q-67 0 -115 31.5t-72 87.5q-125 -119 -287 -119q-155 0 -237.5 104.5t-54.5 264.5q29 160 147.5 264.5t273.5 104.5q125 0 205 -74l13 59h161l-73 -420 q-12 -66 13.5 -109.5t76.5 -43.5q69 0 129 80t82 200q41 236 -105.5 388.5t-412.5 152.5q-283 0 -494.5 -171t-257.5 -433q-23 -127 4 -238.5t93.5 -191t172 -125t234.5 -45.5q163 0 309 76l4 -121q-174 -80 -358 -80q-204 0 -351 93t-209.5 258t-25.5 370zM596 512 q-15 -85 27 -140t122 -55t141.5 55t76.5 140t-27.5 140t-122.5 55q-79 0 -140.5 -55t-76.5 -140z" />
<glyph unicode="A" horiz-adv-x="1497" d="M-68 0l824 1434h237l318 -1434h-215l-74 344h-678l-197 -344h-215zM451 530l528 2l-145 668z" />
<glyph unicode="B" horiz-adv-x="1441" d="M51 0l254 1434h649q186 0 288 -106q81 -83 81 -202q0 -32 -6 -67q-19 -100 -81 -182t-155 -132q101 -43 148 -135q32 -63 32 -140q0 -34 -6 -71q-29 -174 -169.5 -286.5t-327.5 -112.5h-707zM295 186l496 2q95 0 168 64.5t92 163.5q3 22 3 43q0 69 -38 117 q-50 63 -144 63h-497zM408 825h440q95 0 167 60t87 151q4 23 4 44q0 64 -38 108q-51 60 -146 59h-441z" />
<glyph unicode="C" horiz-adv-x="1423" d="M119 717q38 209 157 376t296 261t378 94q155 0 277 -57.5t198 -161.5l-182 -131q-53 71 -138 111t-190 40q-214 0 -379.5 -150.5t-205.5 -381.5q-11 -60 -11 -116q-1 -85 25 -159q42 -122 142 -190t241 -68q106 0 205 40.5t178 113.5l135 -133q-114 -104 -256.5 -161.5 t-296.5 -57.5q-201 0 -345 94q-145 94 -205 261q-38 104 -37 223q0 74 14 153z" />
<glyph unicode="D" horiz-adv-x="1495" d="M51 0l254 1434h496q201 0 345.5 -92.5t205.5 -256.5q38 -102 38 -220q0 -71 -14 -148q-36 -204 -154.5 -368t-295.5 -256.5t-377 -92.5h-498zM295 188h287q213 0 378.5 150t206.5 379q10 60 10 114q0 153 -83 265q-113 150 -326 151h-287z" />
<glyph unicode="E" horiz-adv-x="1335" d="M51 0l254 1434h1018l-33 -187h-809l-75 -428h727l-33 -186h-727l-78 -445h807l-33 -188h-1018z" />
<glyph unicode="F" horiz-adv-x="1316" d="M51 0l254 1434h1018l-33 -187h-809l-75 -428h727l-33 -186h-727l-111 -633h-211z" />
<glyph unicode="G" horiz-adv-x="1484" d="M119 717q38 210 158.5 376.5t300.5 260.5t385 94q156 0 280.5 -57.5t202.5 -161.5l-182 -131q-55 71 -142.5 111t-193.5 40q-220 0 -389 -150t-209 -382q-10 -59 -10 -113q0 -87 26 -162q44 -121 148 -189.5t251 -68.5q185 0 338 109l56 313h-383l32 187h592l-104 -588 q-116 -104 -261.5 -161.5t-303.5 -57.5q-207 0 -355 94t-211 260q-40 105 -40 228q0 71 14 149z" />
<glyph unicode="H" horiz-adv-x="1572" d="M51 0l254 1434h209l-108 -615h796l109 615h209l-252 -1434h-211l112 633h-796l-111 -633h-211z" />
<glyph unicode="I" horiz-adv-x="567" d="M51 0l254 1434h209l-252 -1434h-211z" />
<glyph unicode="J" horiz-adv-x="1210" d="M-20 272l200 103q15 -87 84 -139t174 -52q129 0 228.5 80t121.5 201l170 969h211l-172 -967q-37 -209 -205 -345t-389 -136q-165 0 -278 77.5t-145 208.5z" />
<glyph unicode="K" horiz-adv-x="1370" d="M51 0l254 1434h209l-127 -717l733 717h258l-618 -609l436 -825h-244l-354 670l-264 -260l-72 -410h-211z" />
<glyph unicode="L" horiz-adv-x="1214" d="M51 0l254 1434h209l-219 -1246h766l-33 -188h-977z" />
<glyph unicode="M" horiz-adv-x="1777" d="M51 0l254 1434h223l336 -852l637 852h225l-253 -1434h-211l188 1067l-561 -760h-144l-294 762l-189 -1069h-211z" />
<glyph unicode="N" horiz-adv-x="1572" d="M51 0l254 1434h209l604 -1096l193 1096h211l-254 -1434h-209l-604 1096l-193 -1096h-211z" />
<glyph unicode="O" horiz-adv-x="1640" d="M119 717q38 209 157 376t296 261t378 94q200 0 344 -94q144 -92 204 -260q38 -104 38 -224q0 -73 -14 -153q-37 -209 -156.5 -376.5t-296.5 -261t-377 -93.5q-201 0 -345 94q-145 94 -205 261q-38 104 -37 223q0 74 14 153zM330 717q-11 -60 -11 -116q-1 -85 25 -159 q42 -122 142 -190t241 -68q214 0 379.5 150.5t206.5 382.5q11 62 11 118q0 154 -82 264q-112 150 -326.5 150t-380 -150.5t-205.5 -381.5z" />
<glyph unicode="P" horiz-adv-x="1331" d="M51 0l254 1434h623q188 0 288 -126q75 -94 75 -224q0 -44 -9 -93q-34 -193 -178.5 -318.5t-333.5 -125.5h-412l-96 -547h-211zM391 735h414q97 0 172 72t94 184q6 32 6 61q1 72 -35 123q-50 72 -147 72h-414z" />
<glyph unicode="Q" horiz-adv-x="1640" d="M119 717q27 157 104 293t186 232t249.5 151t291.5 55q200 0 344 -93.5t204 -260.5q38 -104 38 -224q0 -74 -14 -153q-29 -171 -115.5 -315t-216.5 -244l196 -324l-178 -121l-202 336q-151 -63 -314 -63q-201 0 -345 94t-205 261q-37 104 -37 223q0 74 14 153zM330 717 q-11 -60 -11 -116q0 -85 25 -159q42 -121 142 -189.5t241 -68.5q214 0 380 151t206 382q10 59 10 113q0 87 -25 162q-42 121 -142 189t-241 68q-215 0 -380 -150t-205 -382z" />
<glyph unicode="R" horiz-adv-x="1368" d="M51 0l254 1434h627q188 0 288 -120q76 -91 75 -218q0 -41 -7 -86q-26 -146 -124 -255t-236 -149l219 -606h-225l-209 586h-348l-103 -586h-211zM397 774h418q96 0 170.5 67t91.5 169q5 28 5 54q0 67 -36 116q-50 67 -147 67h-418z" />
<glyph unicode="S" horiz-adv-x="1200" d="M0 174l172 145q119 -135 336 -135q138 0 230.5 55t107.5 146q3 16 3 30q0 32 -14 58q-20 38 -60 64t-94.5 47.5t-115 42t-121 43.5t-113 56.5t-89.5 75.5q-38 44 -53 108q-8 33 -8 71q0 35 7 74q32 182 178 287.5t363 105.5q148 0 259 -48.5t163 -137.5l-170 -146 q-33 61 -111 97t-186 36q-122 0 -200 -47t-93 -131q-2 -14 -3 -28q0 -33 14 -59q20 -38 60.5 -64.5t95 -48.5t115 -43t120.5 -45t112 -58t89 -77q38 -44 52 -108q7 -33 8 -69q0 -36 -7 -76q-32 -188 -190.5 -298.5t-393.5 -110.5q-313 0 -463 188z" />
<glyph unicode="T" horiz-adv-x="1310" d="M152 1247l32 187h1194l-32 -187h-492l-221 -1247h-209l219 1247h-491z" />
<glyph unicode="U" horiz-adv-x="1542" d="M131 508l164 926h209l-164 -928q-5 -29 -5 -56q-1 -103 75 -175q96 -91 268 -91q170 0 296.5 91t151.5 231l164 928h211l-164 -926q-40 -227 -236.5 -374.5t-457.5 -147.5q-173 0 -299 67t-182 186q-39 81 -39 178q0 44 8 91z" />
<glyph unicode="V" horiz-adv-x="1472" d="M184 1434h215l252 -1196l676 1196h215l-813 -1434h-240z" />
<glyph unicode="W" horiz-adv-x="2027" d="M184 1434h207l119 -1119l514 1119h231l121 -1119l512 1119h207l-657 -1434h-232l-121 1126l-518 -1126h-229z" />
<glyph unicode="X" horiz-adv-x="1406" d="M-82 0l666 731l-389 703h247l295 -535l482 535h247l-635 -703l404 -731h-246l-311 565l-512 -565h-248z" />
<glyph unicode="Y" horiz-adv-x="1406" d="M186 1434h234l293 -672l526 672h236l-695 -879l-96 -555h-211l98 557z" />
<glyph unicode="Z" horiz-adv-x="1218" d="M-10 0l33 188l929 1059h-721l33 187h965l-33 -187l-930 -1059h744l-33 -188h-987z" />
<glyph unicode="[" horiz-adv-x="745" d="M-20 -307l342 1945h528l-31 -174h-332l-280 -1597h332l-31 -174h-528z" />
<glyph unicode="\" horiz-adv-x="858" d="M154 1579l174 59l362 -1886l-176 -59z" />
<glyph unicode="]" horiz-adv-x="745" d="M-123 -307l31 174h332l280 1597h-332l31 174h529l-342 -1945h-529z" />
<glyph unicode="^" d="M180 1014l434 434l433 -434l-125 -125l-308 309l-309 -309z" />
<glyph unicode="_" horiz-adv-x="591" d="M0 -121h592v-176h-592v176z" />
<glyph unicode="`" horiz-adv-x="598" d="M274 1720l166 129l201 -323l-115 -88z" />
<glyph unicode="a" horiz-adv-x="1267" d="M61 512q40 228 203 377t373 149q196 0 307 -133l23 119h198l-182 -1024h-199l23 119q-158 -133 -356 -133q-209 0 -319 148q-81 109 -82 262q0 55 11 116zM260 514q-7 -40 -7 -76q-1 -98 51 -169q70 -97 204 -97q132 0 236 97t130 245q7 40 7 76q-1 96 -51 166 q-70 96 -201 96q-135 0 -239 -95.5t-130 -242.5z" />
<glyph unicode="b" horiz-adv-x="1267" d="M31 0l264 1495h199l-105 -592q157 135 356 135q209 0 319 -148q80 -108 80 -260q0 -56 -11 -118q-40 -229 -202.5 -377.5t-371.5 -148.5q-199 0 -309 135l-21 -121h-198zM322 514q-7 -41 -7 -77q0 -97 50 -168q69 -97 202 -97t238 97t131 245q7 40 7 75q0 97 -51 167 q-70 96 -204 96t-237.5 -96t-128.5 -242z" />
<glyph unicode="c" horiz-adv-x="1052" d="M61 512q41 229 213 377.5t396 148.5q223 0 340 -133l-164 -139q-73 86 -209 86q-138 0 -244 -96t-131 -242q-7 -40 -7 -76q0 -98 52 -169q71 -97 209 -97t240 86l114 -137q-159 -135 -387 -135q-224 0 -343 148q-89 111 -89 268q0 52 10 110z" />
<glyph unicode="d" horiz-adv-x="1267" d="M61 512q41 229 204 377.5t374 148.5q196 0 307 -133l103 590h198l-264 -1495h-199l23 119q-158 -133 -354 -133q-139 0 -237.5 67.5t-139.5 187.5q-25 73 -25 158q0 54 10 113zM262 514q-7 -40 -7 -77q1 -98 51 -168q70 -97 202 -97t235 97t129 245q7 41 7 77 q0 95 -49 165q-68 96 -201 96q-134 0 -238 -96t-129 -242z" />
<glyph unicode="e" horiz-adv-x="1179" d="M63 518q40 225 206.5 372.5t381.5 147.5t329 -151q83 -111 84 -270q0 -57 -11 -121q-1 -2 -2.5 -9t-5 -20t-5.5 -21h-788v-11q0 -113 80 -187q84 -78 215 -78q80 0 152.5 29.5t123.5 83.5l125 -125q-81 -83 -194.5 -127.5t-241.5 -44.5q-238 0 -364 150q-96 113 -95 273 q0 52 10 109zM287 614h579q-5 110 -71 175t-177 65q-109 0 -197.5 -65t-133.5 -175z" />
<glyph unicode="f" horiz-adv-x="765" d="M59 -307l203 1155h-180l31 176h180l22 123q29 167 171.5 264.5t359.5 97.5l-35 -186q-123 0 -203.5 -48.5t-93.5 -131.5l-22 -119h268l-31 -176h-268l-203 -1155h-199z" />
<glyph unicode="g" horiz-adv-x="1267" d="M-16 -330l161 137q31 -50 91 -78t135 -28q158 0 277 96.5t145 245.5l14 76q-158 -133 -356 -133q-209 0 -319 148q-82 110 -82 262q0 55 11 116q40 228 203 377t373 149q196 0 307 -133l23 119h198l-174 -983q-41 -230 -224 -378t-427 -148q-118 0 -211.5 40.5 t-144.5 114.5zM260 510q-7 -40 -7 -75q0 -97 51 -167q70 -96 204 -96q132 0 235.5 96t128.5 242q7 41 7 78q0 97 -49 167q-69 97 -201 97q-135 0 -239 -97t-130 -245z" />
<glyph unicode="h" horiz-adv-x="1267" d="M31 0l264 1495h199l-103 -573q154 116 348 116q187 0 289 -104q81 -82 80 -201q0 -32 -6 -67l-119 -666h-199l117 662q3 16 3 31q0 61 -50 105q-62 54 -174 54q-122 0 -216.5 -67.5t-127.5 -174.5l-107 -610h-198z" />
<glyph unicode="i" horiz-adv-x="514" d="M31 0l180 1024h199l-181 -1024h-198zM229 1350q11 63 56 102t108 39t95 -39q24 -29 25 -72q0 -14 -3 -30q-12 -63 -57.5 -101.5t-108.5 -38.5t-95 38q-23 28 -23 69q0 16 3 33z" />
<glyph unicode="j" horiz-adv-x="514" d="M-322 -485l33 186q127 0 207.5 59.5t99.5 165.5l193 1098h199l-193 -1100q-34 -193 -176.5 -301t-362.5 -108zM229 1350q11 63 56 102t108 39t95 -39q25 -29 25 -72q0 -14 -3 -30q-12 -63 -57.5 -101.5t-108.5 -38.5t-95 38q-23 28 -23 69q0 16 3 33z" />
<glyph unicode="k" horiz-adv-x="1107" d="M31 0l264 1495h199l-164 -924l497 453h252l-491 -438l356 -586h-231l-275 453l-153 -138l-56 -315h-198z" />
<glyph unicode="l" horiz-adv-x="514" d="M31 0l264 1495h199l-265 -1495h-198z" />
<glyph unicode="m" horiz-adv-x="1843" d="M31 0l180 1024h199l-17 -90q132 104 303 104q102 0 178 -39.5t113 -109.5q73 71 167.5 110t197.5 39q169 0 262 -100q71 -77 72 -186q0 -33 -7 -68l-120 -684h-199l119 680q3 15 3 28q0 54 -42 94q-52 50 -140 50q-102 0 -186 -68t-113 -174l-108 -610h-199l121 680 q3 15 3 29q0 53 -41 93q-51 50 -140 50q-108 0 -190.5 -69.5t-110.5 -180.5l-107 -602h-198z" />
<glyph unicode="n" horiz-adv-x="1267" d="M31 0l180 1024h199l-19 -102q154 116 348 116q187 0 289 -104q81 -82 80 -201q0 -32 -6 -67l-119 -666h-199l117 662q3 16 3 31q0 61 -50 105q-62 54 -174 54q-122 0 -216.5 -67.5t-125.5 -174.5l-109 -610h-198z" />
<glyph unicode="o" horiz-adv-x="1208" d="M61 512q27 151 114 271t214.5 187.5t272.5 67.5t248.5 -67.5t147.5 -187.5q27 -75 27 -162q0 -52 -10 -109q-40 -228 -210 -377t-390 -149q-145 0 -248.5 67.5t-147.5 187.5q-28 75 -28 163q0 52 10 108zM262 514q-7 -40 -7 -77q1 -98 51 -168q70 -97 202.5 -97t237.5 97 t131 245q7 40 7 75q0 97 -51 167q-70 96 -204 96t-238 -96t-129 -242z" />
<glyph unicode="p" horiz-adv-x="1267" d="M-51 -471l262 1495h199l-21 -121q154 135 356 135q209 0 319 -148q80 -109 80 -260q0 -56 -11 -118q-40 -229 -202.5 -377.5t-371.5 -148.5q-196 0 -307 133l-105 -590h-198zM322 510q-7 -39 -7 -75q0 -98 51 -167q68 -96 201 -96q134 0 238 96t129 242q8 42 8 80 q0 96 -50 165q-70 97 -204 97q-132 0 -236 -97t-130 -245z" />
<glyph unicode="q" horiz-adv-x="1267" d="M61 512q41 229 204 377.5t374 148.5q194 0 305 -133l21 119h198l-262 -1495h-199l105 590q-158 -133 -354 -133q-219 0 -326 144q-77 104 -77 257q0 59 11 125zM260 510q-7 -42 -7 -80q0 -98 49 -165q68 -93 206 -93q132 0 235.5 96t128.5 242q8 43 8 81q0 95 -49 164 q-69 97 -202 97t-238 -97t-131 -245z" />
<glyph unicode="r" horiz-adv-x="817" d="M31 0l180 1024h199l-21 -117q174 131 406 131l-33 -186q-153 0 -269 -65.5t-155 -170.5l-109 -616h-198z" />
<glyph unicode="s" horiz-adv-x="1005" d="M-23 131l160 137q82 -98 262 -98q101 0 167 30.5t75 80.5q5 31 -16.5 54.5t-62 38t-92 30.5t-106 30.5t-104.5 40.5t-87 58.5t-53 86.5q-10 31 -10 66q0 26 5 55q25 139 140 218t294 79q122 0 215 -37.5t145 -107.5l-159 -137q-66 98 -234 98q-86 0 -143.5 -28t-65.5 -74 q-1 -6 -1 -12q0 -28 24 -49q29 -26 79 -43.5t112 -35.5t122.5 -43.5t108.5 -59.5q47 -33 71 -91q16 -37 16 -82q0 -24 -5 -51q-26 -140 -150.5 -219.5t-316.5 -79.5q-129 0 -229.5 37.5t-160.5 107.5z" />
<glyph unicode="t" horiz-adv-x="835" d="M82 848l31 176h180l43 244h199l-43 -244h299l-31 -176h-299l-101 -567q-2 -12 -2 -23q0 -41 27 -66q34 -32 104 -32q80 0 154 24l-31 -174q-73 -26 -178 -26q-149 0 -222 78q-56 60 -56 153q0 29 6 61l100 572h-180z" />
<glyph unicode="u" horiz-adv-x="1267" d="M94 358l117 666h199l-117 -662q-3 -18 -3 -35q0 -65 46 -105q58 -50 172 -50q123 0 217.5 63t130.5 164l111 625h198l-182 -1024h-199l19 104q-152 -118 -363 -118q-189 0 -283 100q-71 75 -71 191q0 38 8 81z" />
<glyph unicode="v" horiz-adv-x="1124" d="M92 1024h197l188 -786l465 786h197l-604 -1024h-199z" />
<glyph unicode="w" horiz-adv-x="1570" d="M92 1024h193l102 -727l356 727h191l104 -727l357 727h190l-506 -1024h-190l-101 725l-360 -725h-190z" />
<glyph unicode="x" horiz-adv-x="1112" d="M-88 0l496 518l-306 506h232l213 -356l338 356h231l-479 -506l309 -518h-231l-219 373l-353 -373h-231z" />
<glyph unicode="y" horiz-adv-x="1269" d="M4 -330l162 137q66 -106 235 -106q154 0 259.5 91.5t134.5 250.5l12 76q-158 -133 -375 -133q-187 0 -278 100q-66 74 -66 191q0 41 8 88l117 659h197l-117 -655q-3 -20 -3 -38q0 -66 44 -107q55 -52 166 -52q132 0 228.5 75.5t135.5 201.5l103 575h198l-174 -983 q-43 -246 -208.5 -386t-409.5 -140q-261 0 -369 155z" />
<glyph unicode="z" horiz-adv-x="1009" d="M-49 0l31 176l718 672h-587l30 176h834l-31 -176l-719 -672h611l-31 -176h-856z" />
<glyph unicode="{" horiz-adv-x="907" d="M92 578l33 176q101 0 176 52t90 134l68 389q23 133 131.5 221t249.5 88h172l-31 -176h-168q-57 0 -101.5 -37t-54.5 -94l-67 -391q-17 -90 -83 -162t-167 -112q87 -40 128 -112.5t24 -162.5l-68 -391q-10 -57 20.5 -94t87.5 -37h168l-30 -176h-172q-141 0 -218.5 88 t-54.5 221l68 389q15 82 -41.5 134.5t-159.5 52.5z" />
<glyph unicode="|" horiz-adv-x="651" d="M238 -307v1945h176v-1945h-176z" />
<glyph unicode="}" horiz-adv-x="907" d="M-123 -307l31 176h170q57 0 100.5 37t52.5 94l70 391q17 90 83.5 162.5t168.5 112.5q-89 40 -130.5 112.5t-23.5 161.5l68 391q9 57 -21.5 94t-87.5 37h-170l31 176h172q142 0 220 -87.5t55 -221.5l-68 -389q-15 -82 41.5 -134t159.5 -52l-31 -176q-103 0 -178 -52.5 t-90 -134.5l-70 -389q-23 -134 -131 -221.5t-250 -87.5h-172z" />
<glyph unicode="~" d="M156 469q0 147 81.5 247.5t188.5 100.5q44 0 91.5 -19t87 -46t76 -54t70 -46t56.5 -19q39 0 64.5 48.5t25.5 119.5h176q0 -147 -82 -245.5t-190 -98.5q-43 0 -89.5 19t-85.5 46t-74.5 54t-68.5 46t-57 19q-41 0 -67.5 -50t-26.5 -122h-176z" />
<glyph unicode="&#xa1;" horiz-adv-x="514" d="M-53 -410l211 994h153l-141 -994h-223zM147 899q12 63 58 101t110 38q63 0 94 -38t19 -101q-11 -63 -55.5 -102t-108.5 -39q-63 0 -95.5 39t-21.5 102z" />
<glyph unicode="&#xa2;" horiz-adv-x="1052" d="M98 717q32 183 167.5 314t324.5 163l45 254h149l-43 -246q197 -15 295 -133l-162 -139q-73 86 -208 86q-137 0 -241.5 -84.5t-127.5 -212.5q-22 -130 51.5 -215.5t210.5 -85.5q135 0 242 86l114 -137q-148 -124 -346 -136l-43 -245h-149l45 254q-178 32 -267 162.5 t-57 314.5z" />
<glyph unicode="&#xa3;" horiz-adv-x="1056" d="M-25 0l39 207q89 85 153 176t89 166h-178l28 168h148q-7 18 -19 44t-22 46t-20.5 48.5t-15.5 56.5t-5 66.5t8 80.5q29 170 166 279.5t320 109.5q256 0 389 -227l-172 -146q-100 174 -254 174q-95 0 -166 -53.5t-86 -138.5q-10 -56 6.5 -110.5t44.5 -117t37 -112.5h295 l-29 -168h-274q-24 -84 -79 -175.5t-128 -166.5h653l-39 -207h-889z" />
<glyph unicode="&#xa4;" d="M150 391l135 137q-37 85 -37 185q0 105 41 192l-139 139l133 134l141 -142q80 39 188 39q110 0 193 -39l143 142l135 -134l-145 -141q41 -80 41 -190q0 -101 -37 -183l139 -139l-133 -133l-137 137q-88 -43 -199 -43q-107 0 -194 41l-135 -135zM428 711 q0 -82 53.5 -136.5t134.5 -54.5q78 0 132.5 55t54.5 136q0 83 -54 139.5t-133 56.5q-82 0 -135 -55.5t-53 -140.5z" />
<glyph unicode="&#xa5;" horiz-adv-x="1406" d="M160 193l28 167h349l26 146h-348l29 168h276l-334 760h234l293 -670l528 670h234l-601 -760h273l-29 -168h-346l-27 -146h349l-31 -167h-346l-35 -193h-209l33 193h-346z" />
<glyph unicode="&#xa6;" horiz-adv-x="651" d="M238 -307v768h176v-768h-176zM238 870v768h176v-768h-176z" />
<glyph unicode="&#xa7;" horiz-adv-x="1200" d="M-4 -135l170 145q31 -61 109 -97t190 -36q119 0 196.5 44t90.5 120q6 32 -2.5 59.5t-24 45.5t-41.5 34.5t-45.5 25t-46.5 17.5q-34 13 -107 37q-86 28 -130 44.5t-112 53t-99 73.5t-50 98t-6 135q20 130 123 227q-35 75 -18 188q31 171 174.5 270t359.5 99 q150 0 260.5 -48.5t161.5 -137.5l-168 -146q-33 61 -111 97t-188 36q-121 0 -198.5 -44.5t-90.5 -125.5q-10 -48 25 -92q24 -37 76.5 -67.5t114.5 -53t132 -47t131.5 -56.5t108.5 -74t68 -107t6 -148q-24 -130 -119 -225q30 -75 14 -170q-29 -168 -171.5 -264.5 t-358.5 -96.5q-150 0 -261.5 49t-162.5 138zM285 655q-9 -55 20 -94.5t89 -65.5t125 -46t147 -48t135 -59q44 41 53 98q10 55 -18 96t-87 68t-122.5 48t-145.5 49.5t-135 58.5q-50 -46 -61 -105z" />
<glyph unicode="&#xa8;" horiz-adv-x="821" d="M254 1597q9 56 48.5 89.5t96.5 33.5t84.5 -33.5t18.5 -89.5q-10 -57 -50 -90.5t-96 -33.5q-57 0 -84.5 33.5t-17.5 90.5zM631 1597q9 56 48.5 89.5t96.5 33.5t84.5 -33.5t18.5 -89.5q-10 -57 -50 -90.5t-96 -33.5q-57 0 -84.5 33.5t-17.5 90.5z" />
<glyph unicode="&#xa9;" horiz-adv-x="1699" d="M119 717q0 148 58 283.5t156 233.5t233.5 156t283.5 58t283.5 -58t233.5 -156t156 -233.5t58 -283.5t-58 -283.5t-156 -233.5t-233.5 -156t-283.5 -58t-283.5 58t-233.5 156t-156 233.5t-58 283.5zM287 717q0 -153 75.5 -282.5t205 -205t282.5 -75.5t282.5 75.5t205 205 t75.5 282.5t-75.5 282.5t-205 205t-282.5 75.5t-282.5 -75.5t-205 -205t-75.5 -282.5zM520 717q0 160 101 264t256 104q161 0 260 -110l-121 -101q-58 58 -139 58q-83 0 -138 -60.5t-55 -154.5q0 -93 54.5 -153t138.5 -60q82 0 139 57l123 -102q-108 -111 -262 -111 q-155 0 -256 104.5t-101 264.5z" />
<glyph unicode="&#xaa;" horiz-adv-x="876" d="M129 1075q28 161 139 265t254 104q134 0 209 -94l14 84h156l-127 -717h-156l17 84q-112 -94 -244 -94q-143 0 -217 104t-45 264zM283 1077q-17 -98 28 -161.5t131 -63.5t152.5 63.5t83.5 161.5q17 96 -26.5 158.5t-131.5 62.5q-86 0 -153 -62.5t-84 -158.5z" />
<glyph unicode="&#xab;" horiz-adv-x="1120" d="M74 573l438 426l98 -79l-297 -347l176 -344l-127 -79zM502 573l438 426l96 -79l-295 -347l174 -344l-124 -79z" />
<glyph unicode="&#xac;" d="M164 604v176h901v-479h-164v303h-737z" />
<glyph unicode="&#xad;" horiz-adv-x="819" d="M119 485l33 177h499l-33 -177h-499z" />
<glyph unicode="&#xae;" horiz-adv-x="1699" d="M119 717q0 148 58 283.5t156 233.5t233.5 156t283.5 58t283.5 -58t233.5 -156t156 -233.5t58 -283.5t-58 -283.5t-156 -233.5t-233.5 -156t-283.5 -58t-283.5 58t-233.5 156t-156 233.5t-58 283.5zM287 717q0 -153 75.5 -282.5t205 -205t282.5 -75.5t282.5 75.5t205 205 t75.5 282.5t-75.5 282.5t-205 205t-282.5 75.5t-282.5 -75.5t-205 -205t-75.5 -282.5zM584 358v717h317q103 0 171.5 -64t68.5 -163q0 -66 -32 -118.5t-87 -80.5l145 -291h-174l-121 263h-124v-263h-164zM748 766h153q33 0 55.5 23t22.5 59t-22.5 60t-55.5 24h-153v-166z " />
<glyph unicode="&#xaf;" horiz-adv-x="753" d="M236 1495l26 150h557l-26 -150h-557z" />
<glyph unicode="&#xb0;" horiz-adv-x="847" d="M154 1157q28 154 142 253t265 99q152 0 233.5 -99t53.5 -253q-26 -152 -142.5 -251t-267.5 -99q-152 0 -231 98.5t-53 251.5zM326 1155q-13 -82 27.5 -134t117.5 -52q74 0 132 52.5t73 133.5q15 84 -25 138.5t-114 54.5q-77 0 -136.5 -54.5t-74.5 -138.5z" />
<glyph unicode="&#xb1;" d="M164 156v176h901v-176h-901zM164 793v176h362v362h176v-362h363v-176h-363v-363h-176v363h-362z" />
<glyph unicode="&#xb2;" horiz-adv-x="536" d="M63 922l27 153q26 42 92.5 94t129 92.5t115.5 89t60 85.5q4 27 -17 43t-60 16q-77 0 -158 -84l-94 115q120 123 276 123q111 0 167.5 -56.5t39.5 -152.5q-8 -48 -30 -88.5t-62 -77.5t-74 -62.5t-96 -67.5t-98 -69h294l-28 -153h-484z" />
<glyph unicode="&#xb3;" horiz-adv-x="585" d="M78 1024l133 113q19 -31 54 -50.5t73 -19.5q45 0 79 22.5t38 57.5q6 32 -16 53t-60 21h-45l24 135h54q29 0 50.5 19t26.5 48q6 33 -14 52.5t-55 19.5q-38 0 -77.5 -22.5t-70.5 -57.5l-92 113q50 55 125.5 88t153.5 33q102 0 158.5 -56.5t41.5 -146.5q-18 -99 -104 -156 q77 -61 59 -164q-15 -92 -100.5 -153.5t-198.5 -61.5q-76 0 -141 31.5t-96 81.5z" />
<glyph unicode="&#xb4;" horiz-adv-x="598" d="M242 1526l313 323l121 -129l-352 -282z" />
<glyph unicode="&#xb5;" horiz-adv-x="1267" d="M-51 -471l262 1495h199l-117 -662q-13 -89 43.5 -139.5t169.5 -50.5q126 0 222 65.5t130 172.5l107 614h198l-180 -1024h-199l19 104q-152 -118 -363 -118q-122 0 -204 43l-89 -500h-198z" />
<glyph unicode="&#xb6;" horiz-adv-x="1409" d="M195 1143q37 215 196.5 355t368.5 140h176l-342 -1945h-176l168 952q-209 0 -319 140.5t-72 357.5zM815 -307l342 1945h176l-342 -1945h-176z" />
<glyph unicode="&#xb7;" horiz-adv-x="514" d="M117 717q11 63 56 102t108 39t95 -39t21 -102q-10 -63 -55.5 -101t-108.5 -38t-94.5 38t-21.5 101z" />
<glyph unicode="&#xb8;" horiz-adv-x="657" d="M-94 -375l69 101q6 -7 17 -17t48 -26.5t77 -16.5q46 0 79.5 19t39.5 51q6 34 -32 55.5t-79 26.5l-41 4l74 178h151l-37 -90q6 -1 15 -3.5t32 -14.5t38.5 -29t25.5 -49.5t2 -73.5q-15 -91 -88 -145t-176 -54q-40 0 -77 8.5t-61 21t-42 25t-27 20.5z" />
<glyph unicode="&#xb9;" horiz-adv-x="497" d="M172 1491l219 147h164l-125 -716h-166l92 524l-110 -78z" />
<glyph unicode="&#xba;" horiz-adv-x="837" d="M129 1075q28 161 146 265t272 104q155 0 237 -104t54 -265q-29 -160 -148 -264t-274 -104q-153 0 -234.5 104.5t-52.5 263.5zM283 1077q-17 -98 28 -161.5t131 -63.5q88 0 155.5 63.5t84.5 161.5q17 96 -28 158.5t-134 62.5q-86 0 -153 -62.5t-84 -158.5z" />
<glyph unicode="&#xbb;" horiz-adv-x="1120" d="M33 229l295 344l-172 347l123 79l290 -426l-440 -423zM461 229l295 344l-174 347l125 79l290 -426l-440 -423z" />
<glyph unicode="&#xbc;" horiz-adv-x="1331" d="M-27 72l1198 1364l107 -86l-1200 -1364zM135 1286l221 148h164l-127 -717h-164l93 524l-113 -78zM606 139l27 146l399 432h164l-76 -432h92l-24 -146h-94l-25 -139h-164l25 139h-324zM795 285h159l39 215z" />
<glyph unicode="&#xbd;" horiz-adv-x="1290" d="M-27 72l1198 1364l107 -86l-1200 -1364zM135 1286l221 148h164l-127 -717h-164l93 524l-113 -78zM655 0l27 154q26 42 92.5 94t129 92t115.5 88.5t60 85.5q4 27 -17.5 43t-60.5 16q-76 0 -157 -84l-94 115q120 123 276 123q111 0 168.5 -56.5t38.5 -152.5q-7 -41 -26 -77 t-42 -63t-60.5 -58t-69 -52t-80.5 -55t-83 -59h295l-26 -154h-486z" />
<glyph unicode="&#xbe;" horiz-adv-x="1400" d="M41 819l135 113q19 -31 53.5 -50.5t73.5 -19.5q45 0 78 22.5t39 57.5q6 32 -16.5 53t-61.5 21h-43l23 135h55q29 0 50.5 19t27.5 49q6 33 -14.5 52t-55.5 19q-78 0 -147 -80l-93 113q48 55 123 88t154 33q102 0 159 -56.5t42 -146.5q-18 -101 -105 -156q78 -62 60 -163 q-15 -92 -100 -153.5t-197 -61.5q-77 0 -142 31t-98 81zM61 72l1199 1364l106 -86l-1200 -1364zM676 139l26 146l398 432h166l-78 -432h94l-25 -146h-94l-24 -139h-164l24 139h-323zM864 285h160l39 215z" />
<glyph unicode="&#xbf;" horiz-adv-x="1026" d="M-74 -31q13 72 42.5 125t67.5 84.5t82 57.5t89.5 54t86 62.5t75 94t53.5 139.5h153q-4 -93 -28.5 -165.5t-61.5 -117t-81.5 -78.5t-90.5 -60.5t-85 -52.5t-67.5 -64t-37.5 -87q-14 -88 43.5 -137t175.5 -49q120 0 216 47t153 127l114 -144q-85 -109 -218 -168t-294 -59 q-214 0 -316.5 103t-70.5 288zM406 901q12 63 57 101t108 38t95 -38t20 -101q-11 -63 -56 -102t-108 -39t-95 39t-21 102z" />
<glyph unicode="&#xc0;" horiz-adv-x="1497" d="M-68 0l824 1434h237l318 -1434h-215l-74 344h-678l-197 -344h-215zM451 530l528 2l-145 668zM618 1819l166 129l201 -324l-115 -88z" />
<glyph unicode="&#xc1;" horiz-adv-x="1497" d="M-68 0l824 1434h237l318 -1434h-215l-74 344h-678l-197 -344h-215zM451 530l528 2l-145 668zM799 1624l315 324l119 -129l-350 -283z" />
<glyph unicode="&#xc2;" horiz-adv-x="1497" d="M-68 0l824 1434h237l318 -1434h-215l-74 344h-678l-197 -344h-215zM451 530l528 2l-145 668zM608 1610l353 315l243 -317l-102 -92l-182 172l-242 -172z" />
<glyph unicode="&#xc3;" horiz-adv-x="1497" d="M-68 0l824 1434h237l318 -1434h-215l-74 344h-678l-197 -344h-215zM451 530l528 2l-145 668zM573 1550q19 106 85 175t149 69q38 0 75 -16t60.5 -36t49 -36t42.5 -16q25 0 46 26.5t28 67.5h149q-19 -106 -84.5 -175t-148.5 -69q-40 0 -76.5 17t-59 37.5t-47 37.5 t-42.5 17q-26 0 -47 -28t-29 -71h-150z" />
<glyph unicode="&#xc4;" horiz-adv-x="1497" d="M-68 0l824 1434h237l318 -1434h-215l-74 344h-678l-197 -344h-215zM451 530l528 2l-145 668zM610 1696q9 56 49 89.5t97 33.5t84 -33.5t18 -89.5q-10 -57 -49.5 -91t-95.5 -34q-57 0 -85 34t-18 91zM987 1696q9 56 49 89.5t97 33.5t84 -33.5t18 -89.5q-10 -57 -49.5 -91 t-95.5 -34q-57 0 -85 34t-18 91z" />
<glyph unicode="&#xc5;" horiz-adv-x="1497" d="M-68 0l824 1434h239l316 -1434h-215l-76 344h-676l-197 -344h-215zM451 532h528l-145 668zM696 1710q15 97 91 160t176 63q98 0 150.5 -63t37.5 -160q-17 -97 -92.5 -159t-173.5 -62q-100 0 -153 62t-36 159zM834 1712q-8 -41 12.5 -68.5t60.5 -27.5q38 0 69 27.5 t38 68.5q5 40 -14.5 66t-57.5 26q-40 0 -71 -25.5t-37 -66.5z" />
<glyph unicode="&#xc6;" horiz-adv-x="2074" d="M-68 0l1041 1434h1089l-32 -187h-746l-76 -428h664l-33 -186h-663l-78 -445h745l-35 -188h-954l61 346h-505l-250 -346h-228zM545 532h403l131 740z" />
<glyph unicode="&#xc7;" horiz-adv-x="1423" d="M119 717q38 209 157 376t296 261t378 94q155 0 277 -57.5t198 -161.5l-182 -131q-53 71 -138 111t-190 40q-214 0 -379.5 -150.5t-205.5 -381.5q-27 -153 14.5 -274.5t141.5 -190t241 -68.5q106 0 205 40.5t178 113.5l135 -133q-209 -193 -483 -217l-31 -78q6 -1 15 -3.5 t31.5 -14.5t38 -29t25.5 -49.5t3 -73.5q-17 -91 -90.5 -145t-175.5 -54q-39 0 -76 8.5t-61.5 21t-43 25t-27.5 20.5l-8 9l70 101q6 -7 17 -17t48 -26.5t78 -16.5q45 0 79 19.5t38 50.5q4 21 -10 38t-36.5 25.5t-46 14t-39.5 6.5l-17 2l67 168q-177 19 -300.5 116.5 t-174.5 256.5t-16 354z" />
<glyph unicode="&#xc8;" horiz-adv-x="1335" d="M51 0l254 1434h1018l-33 -187h-809l-75 -428h727l-33 -186h-727l-78 -445h807l-33 -188h-1018zM559 1819l166 129l201 -324l-115 -88z" />
<glyph unicode="&#xc9;" horiz-adv-x="1335" d="M51 0l254 1434h1018l-33 -187h-809l-75 -428h727l-33 -186h-727l-78 -445h807l-33 -188h-1018zM739 1624l314 324l121 -129l-353 -283z" />
<glyph unicode="&#xca;" horiz-adv-x="1335" d="M51 0l254 1434h1018l-33 -187h-809l-75 -428h727l-33 -186h-727l-78 -445h807l-33 -188h-1018zM547 1610l354 315l242 -317l-103 -92l-180 172l-244 -172z" />
<glyph unicode="&#xcb;" horiz-adv-x="1335" d="M51 0l254 1434h1018l-33 -187h-809l-75 -428h727l-33 -186h-727l-78 -445h807l-33 -188h-1018zM549 1696q11 56 50.5 89.5t96.5 33.5q56 0 83.5 -34t17.5 -89q-9 -57 -48.5 -91t-95.5 -34q-58 0 -85.5 33.5t-18.5 91.5zM926 1696q11 56 50.5 89.5t96.5 33.5 q56 0 83.5 -34t17.5 -89q-9 -57 -48.5 -91t-95.5 -34q-58 0 -85.5 33.5t-18.5 91.5z" />
<glyph unicode="&#xcc;" horiz-adv-x="567" d="M51 0l254 1434h209l-252 -1434h-211zM154 1819l165 129l201 -324l-114 -88z" />
<glyph unicode="&#xcd;" horiz-adv-x="567" d="M51 0l254 1434h209l-252 -1434h-211zM334 1624l315 324l121 -129l-352 -283z" />
<glyph unicode="&#xce;" horiz-adv-x="567" d="M51 0l254 1434h209l-252 -1434h-211zM143 1610l355 315l241 -317l-102 -92l-182 172l-242 -172z" />
<glyph unicode="&#xcf;" horiz-adv-x="567" d="M51 0l254 1434h209l-252 -1434h-211zM145 1696q9 56 49.5 89.5t98.5 33.5q56 0 83 -34t17 -89q-9 -57 -48.5 -91t-96.5 -34t-85 34t-18 91zM522 1696q9 56 49.5 89.5t98.5 33.5q56 0 83 -34t17 -89q-9 -57 -48.5 -91t-96.5 -34t-85 34t-18 91z" />
<glyph unicode="&#xd0;" horiz-adv-x="1495" d="M27 633l28 170h138l112 631h496q201 0 345.5 -92.5t205.5 -256.5t24 -368q-37 -205 -155.5 -368.5t-295.5 -256t-378 -92.5h-496l113 633h-137zM295 188h287q213 0 378.5 150t206.5 379q40 229 -73 379.5t-326 150.5h-287l-78 -444h338l-30 -170h-338z" />
<glyph unicode="&#xd1;" horiz-adv-x="1572" d="M51 0l254 1434h209l604 -1096l193 1096h211l-254 -1434h-209l-604 1096l-193 -1096h-211zM612 1550q19 106 85 175t149 69q48 0 93 -26t78.5 -52t53.5 -26q25 0 47 26.5t29 67.5h147q-19 -106 -84.5 -175t-148.5 -69q-39 0 -75.5 17t-59 37.5t-46.5 37.5t-42 17 q-26 0 -48 -28t-28 -71h-150z" />
<glyph unicode="&#xd2;" horiz-adv-x="1640" d="M119 717q38 209 157 376t296 261t378 94q200 0 344 -93.5t204.5 -261t23.5 -376.5t-156.5 -376.5t-296.5 -261t-377 -93.5q-201 0 -345 94t-204.5 261t-23.5 376zM330 717q-27 -153 14.5 -274.5t141.5 -190t241 -68.5q214 0 379.5 150.5t206.5 382.5t-71.5 382 t-326.5 150t-379.5 -150.5t-205.5 -381.5zM690 1819l166 129l201 -324l-115 -88z" />
<glyph unicode="&#xd3;" horiz-adv-x="1640" d="M119 717q38 209 157 376t296 261t378 94q200 0 344 -93.5t204.5 -261t23.5 -376.5t-156.5 -376.5t-296.5 -261t-377 -93.5q-201 0 -345 94t-204.5 261t-23.5 376zM330 717q-27 -153 14.5 -274.5t141.5 -190t241 -68.5q214 0 379.5 150.5t206.5 382.5t-71.5 382 t-326.5 150t-379.5 -150.5t-205.5 -381.5zM870 1624l316 324l121 -129l-353 -283z" />
<glyph unicode="&#xd4;" horiz-adv-x="1640" d="M119 717q38 209 157 376t296 261t378 94q200 0 344 -93.5t204.5 -261t23.5 -376.5t-156.5 -376.5t-296.5 -261t-377 -93.5q-201 0 -345 94t-204.5 261t-23.5 376zM330 717q-27 -153 14.5 -274.5t141.5 -190t241 -68.5q214 0 379.5 150.5t206.5 382.5t-71.5 382 t-326.5 150t-379.5 -150.5t-205.5 -381.5zM680 1610l354 315l242 -317l-102 -92l-183 172l-241 -172z" />
<glyph unicode="&#xd5;" horiz-adv-x="1640" d="M119 717q38 209 157 376t296 261t378 94q200 0 344 -93.5t204.5 -261t23.5 -376.5t-156.5 -376.5t-296.5 -261t-377 -93.5q-201 0 -345 94t-204.5 261t-23.5 376zM330 717q-27 -153 14.5 -274.5t141.5 -190t241 -68.5q214 0 379.5 150.5t206.5 382.5t-71.5 382 t-326.5 150t-379.5 -150.5t-205.5 -381.5zM645 1550q20 106 85.5 175t148.5 69q38 0 75.5 -16t61 -36t48.5 -36t42 -16q25 0 46.5 26.5t27.5 67.5h149q-19 -106 -84.5 -175t-148.5 -69q-39 0 -76 17t-59.5 37.5t-47 37.5t-41.5 17q-26 0 -47.5 -28t-29.5 -71h-150z" />
<glyph unicode="&#xd6;" horiz-adv-x="1640" d="M119 717q38 209 157 376t296 261t378 94q200 0 344 -93.5t204.5 -261t23.5 -376.5t-156.5 -376.5t-296.5 -261t-377 -93.5q-201 0 -345 94t-204.5 261t-23.5 376zM330 717q-27 -153 14.5 -274.5t141.5 -190t241 -68.5q214 0 379.5 150.5t206.5 382.5t-71.5 382 t-326.5 150t-379.5 -150.5t-205.5 -381.5zM682 1696q9 56 49 89.5t98 33.5q56 0 83.5 -34t17.5 -89q-9 -57 -49 -91t-97 -34t-84.5 34t-17.5 91zM1059 1696q9 56 49 89.5t98 33.5q56 0 83.5 -34t17.5 -89q-9 -57 -49 -91t-97 -34t-84.5 34t-17.5 91z" />
<glyph unicode="&#xd7;" d="M180 305l307 307l-307 310l125 125l307 -308l310 308l125 -125l-308 -310l308 -307l-125 -125l-310 307l-307 -307z" />
<glyph unicode="&#xd8;" horiz-adv-x="1640" d="M53 -61l197 225q-92 100 -126.5 242t-4.5 311q38 209 157 376t296 261t378 94q200 0 342 -94l125 141h174l-198 -225q91 -100 125 -242.5t4 -310.5q-37 -209 -156.5 -376.5t-296.5 -261t-377 -93.5q-199 0 -342 92l-123 -139h-174zM330 717q-43 -230 69 -381l748 852 q-99 61 -232 61q-214 0 -379.5 -150.5t-205.5 -381.5zM496 246q100 -62 231 -62q214 0 379.5 150.5t206.5 382.5t-70 381z" />
<glyph unicode="&#xd9;" horiz-adv-x="1542" d="M131 508l164 926h209l-164 -928q-25 -140 70.5 -231t267.5 -91q170 0 296.5 91t151.5 231l164 928h211l-164 -926q-40 -227 -236.5 -374.5t-457.5 -147.5q-173 0 -299 67t-182.5 186t-30.5 269zM643 1819l166 129l201 -324l-115 -88z" />
<glyph unicode="&#xda;" horiz-adv-x="1542" d="M131 508l164 926h209l-164 -928q-25 -140 70.5 -231t267.5 -91q170 0 296.5 91t151.5 231l164 928h211l-164 -926q-40 -227 -236.5 -374.5t-457.5 -147.5q-173 0 -299 67t-182.5 186t-30.5 269zM823 1624l314 324l120 -129l-352 -283z" />
<glyph unicode="&#xdb;" horiz-adv-x="1542" d="M131 508l164 926h209l-164 -928q-25 -140 70.5 -231t267.5 -91q170 0 296.5 91t151.5 231l164 928h211l-164 -926q-40 -227 -236.5 -374.5t-457.5 -147.5q-173 0 -299 67t-182.5 186t-30.5 269zM631 1610l354 315l242 -317l-103 -92l-180 172l-244 -172z" />
<glyph unicode="&#xdc;" horiz-adv-x="1542" d="M131 508l164 926h209l-164 -928q-25 -140 70.5 -231t267.5 -91q170 0 296.5 91t151.5 231l164 928h211l-164 -926q-40 -227 -236.5 -374.5t-457.5 -147.5q-173 0 -299 67t-182.5 186t-30.5 269zM633 1696q11 56 50.5 89.5t96.5 33.5q56 0 83.5 -34t17.5 -89 q-9 -57 -48.5 -91t-95.5 -34q-58 0 -85.5 33.5t-18.5 91.5zM1010 1696q11 56 50.5 89.5t96.5 33.5q56 0 83 -34t17 -89q-9 -57 -48 -91t-95 -34q-58 0 -85.5 33.5t-18.5 91.5z" />
<glyph unicode="&#xdd;" horiz-adv-x="1406" d="M186 1434h234l293 -672l526 672h236l-695 -879l-96 -555h-211l98 557zM754 1624l315 324l121 -129l-352 -283z" />
<glyph unicode="&#xde;" horiz-adv-x="1331" d="M51 0l254 1434h211l-49 -273h412q189 0 288.5 -125t65.5 -319q-34 -193 -178 -318t-332 -125h-414l-47 -274h-211zM342 461h414q96 0 172 72.5t96 183.5q19 112 -31 184t-147 72h-412z" />
<glyph unicode="&#xdf;" horiz-adv-x="1253" d="M31 0l194 1100q32 178 184 293.5t355 115.5q198 0 305.5 -110.5t75.5 -284.5q-19 -108 -84.5 -196t-163.5 -140q117 -43 172 -140.5t31 -229.5q-31 -175 -175.5 -291.5t-334.5 -116.5h-148l31 176h162q98 0 174.5 72t95.5 180q19 107 -32.5 175.5t-149.5 68.5h-162 l31 176h92q93 0 167 67.5t91 167.5q20 107 -41 173.5t-176 66.5q-114 0 -199 -63.5t-102 -163.5l-195 -1096h-198z" />
<glyph unicode="&#xe0;" horiz-adv-x="1267" d="M61 512q40 228 203 377t373 149q196 0 307 -133l23 119h198l-182 -1024h-199l23 119q-158 -133 -356 -133q-209 0 -319.5 148.5t-70.5 377.5zM260 514q-26 -148 44.5 -245t203.5 -97q132 0 236 97t130 245q26 146 -43.5 242t-201.5 96q-135 0 -239 -95.5t-130 -242.5z M403 1409l166 129l201 -324l-115 -88z" />
<glyph unicode="&#xe1;" horiz-adv-x="1267" d="M61 512q40 228 203 377t373 149q196 0 307 -133l23 119h198l-182 -1024h-199l23 119q-158 -133 -356 -133q-209 0 -319.5 148.5t-70.5 377.5zM260 514q-26 -148 44.5 -245t203.5 -97q132 0 236 97t130 245q26 146 -43.5 242t-201.5 96q-135 0 -239 -95.5t-130 -242.5z M584 1214l313 324l121 -129l-350 -283z" />
<glyph unicode="&#xe2;" horiz-adv-x="1267" d="M61 512q40 228 203 377t373 149q196 0 307 -133l23 119h198l-182 -1024h-199l23 119q-158 -133 -356 -133q-209 0 -319.5 148.5t-70.5 377.5zM260 514q-26 -148 44.5 -245t203.5 -97q132 0 236 97t130 245q26 146 -43.5 242t-201.5 96q-135 0 -239 -95.5t-130 -242.5z M393 1200l352 316l242 -318l-102 -92l-180 172l-242 -172z" />
<glyph unicode="&#xe3;" horiz-adv-x="1267" d="M61 512q40 228 203 377t373 149q196 0 307 -133l23 119h198l-182 -1024h-199l23 119q-158 -133 -356 -133q-209 0 -319.5 148.5t-70.5 377.5zM260 514q-26 -148 44.5 -245t203.5 -97q132 0 236 97t130 245q26 146 -43.5 242t-201.5 96q-135 0 -239 -95.5t-130 -242.5z M358 1141q19 106 85 174.5t149 68.5q38 0 75 -16t60.5 -36t49 -36t42.5 -16q24 0 45.5 26.5t28.5 67.5h149q-20 -106 -86 -175t-149 -69q-39 0 -75.5 17t-59 37.5t-46.5 37.5t-42 17q-26 0 -47 -27.5t-29 -70.5h-150z" />
<glyph unicode="&#xe4;" horiz-adv-x="1267" d="M61 512q40 228 203 377t373 149q196 0 307 -133l23 119h198l-182 -1024h-199l23 119q-158 -133 -356 -133q-209 0 -319.5 148.5t-70.5 377.5zM260 514q-26 -148 44.5 -245t203.5 -97q132 0 236 97t130 245q26 146 -43.5 242t-201.5 96q-135 0 -239 -95.5t-130 -242.5z M395 1286q9 56 49 89.5t97 33.5q55 0 83 -33.5t19 -89.5q-10 -57 -49.5 -91t-95.5 -34q-57 0 -85 34t-18 91zM772 1286q9 56 49 89.5t97 33.5q55 0 83 -33.5t19 -89.5q-10 -57 -50 -91t-96 -34q-57 0 -84.5 34t-17.5 91z" />
<glyph unicode="&#xe5;" horiz-adv-x="1267" d="M61 512q40 228 203 377t373 149q196 0 307 -133l23 119h198l-182 -1024h-199l23 119q-158 -133 -356 -133q-209 0 -319.5 148.5t-70.5 377.5zM260 514q-26 -148 44.5 -245t203.5 -97q132 0 236 97t130 245q26 146 -43.5 242t-201.5 96q-135 0 -239 -95.5t-130 -242.5z M492 1362q17 97 92.5 160t173.5 63t151.5 -63t36.5 -160t-92.5 -159t-173.5 -62q-100 0 -152.5 62t-35.5 159zM629 1364q-7 -41 14.5 -68.5t61.5 -27.5q38 0 67 27t37 69q6 40 -14 66t-58 26q-40 0 -70.5 -25.5t-37.5 -66.5z" />
<glyph unicode="&#xe6;" horiz-adv-x="1908" d="M51 291q26 153 155 240t329 87h278l10 64q15 82 -45.5 127t-185.5 45q-177 0 -289 -106l-115 135q164 155 424 155q148 0 244.5 -46.5t130.5 -133.5q81 86 186 133t222 47q211 0 320 -151t67 -391q0 -12 -10 -50h-789q-5 -120 78 -198t215 -78q82 0 154.5 29.5 t123.5 83.5l125 -125q-79 -83 -190.5 -127.5t-235.5 -44.5q-138 0 -240.5 57t-154.5 158q-67 -98 -193 -156.5t-280 -58.5q-180 0 -270 80t-64 225zM254 311q-12 -68 43.5 -106.5t161.5 -38.5q123 0 207 46.5t96 117.5l20 121h-282q-103 0 -169 -38t-77 -102zM1018 614h577 q-3 110 -68.5 175t-176.5 65q-109 0 -198 -65t-134 -175z" />
<glyph unicode="&#xe7;" horiz-adv-x="1052" d="M61 512q41 229 213 377.5t396 148.5q223 0 340 -133l-164 -139q-73 86 -209 86q-138 0 -244 -96t-131 -242q-26 -148 45 -245t209 -97t240 86l114 -137q-135 -113 -309 -131l-33 -80q6 -1 15 -3.5t32 -14.5t38.5 -29t25.5 -49.5t2 -73.5q-15 -91 -88 -145t-176 -54 q-40 0 -77 8.5t-61 21t-42 25t-27 20.5l-8 9l69 101q6 -7 17 -17t48 -26.5t77 -16.5q46 0 79.5 19t39.5 51q5 34 -33 55.5t-79 26.5l-40 4l70 168q-191 26 -288.5 170t-60.5 352z" />
<glyph unicode="&#xe8;" horiz-adv-x="1179" d="M63 518q40 225 206.5 372.5t381.5 147.5q216 0 329.5 -151t72.5 -391q-1 -2 -2.5 -9t-5 -20t-5.5 -21h-788q-4 -120 79.5 -198t215.5 -78q80 0 152.5 29.5t123.5 83.5l125 -125q-81 -83 -194.5 -127.5t-241.5 -44.5q-237 0 -363.5 149.5t-85.5 382.5zM287 614h579 q-5 110 -71 175t-177 65q-109 0 -197.5 -65t-133.5 -175zM393 1409l166 129l201 -324l-115 -88z" />
<glyph unicode="&#xe9;" horiz-adv-x="1179" d="M63 518q40 225 206.5 372.5t381.5 147.5q216 0 329.5 -151t72.5 -391q-1 -2 -2.5 -9t-5 -20t-5.5 -21h-788q-4 -120 79.5 -198t215.5 -78q80 0 152.5 29.5t123.5 83.5l125 -125q-81 -83 -194.5 -127.5t-241.5 -44.5q-237 0 -363.5 149.5t-85.5 382.5zM287 614h579 q-5 110 -71 175t-177 65q-109 0 -197.5 -65t-133.5 -175zM573 1214l316 324l119 -129l-351 -283z" />
<glyph unicode="&#xea;" horiz-adv-x="1179" d="M63 518q40 225 206.5 372.5t381.5 147.5q216 0 329.5 -151t72.5 -391q-1 -2 -2.5 -9t-5 -20t-5.5 -21h-788q-4 -120 79.5 -198t215.5 -78q80 0 152.5 29.5t123.5 83.5l125 -125q-81 -83 -194.5 -127.5t-241.5 -44.5q-237 0 -363.5 149.5t-85.5 382.5zM287 614h579 q-5 110 -71 175t-177 65q-109 0 -197.5 -65t-133.5 -175zM383 1200l352 316l244 -318l-102 -92l-183 172l-241 -172z" />
<glyph unicode="&#xeb;" horiz-adv-x="1179" d="M63 518q40 225 206.5 372.5t381.5 147.5q216 0 329.5 -151t72.5 -391q-1 -2 -2.5 -9t-5 -20t-5.5 -21h-788q-4 -120 79.5 -198t215.5 -78q80 0 152.5 29.5t123.5 83.5l125 -125q-81 -83 -194.5 -127.5t-241.5 -44.5q-237 0 -363.5 149.5t-85.5 382.5zM287 614h579 q-5 110 -71 175t-177 65q-109 0 -197.5 -65t-133.5 -175zM385 1286q9 56 48.5 89.5t96.5 33.5t84.5 -33.5t18.5 -89.5q-10 -57 -50 -91t-96 -34q-57 0 -84.5 34t-17.5 91zM762 1286q9 56 48.5 89.5t96.5 33.5t84.5 -33.5t18.5 -89.5q-10 -57 -50 -91t-96 -34q-57 0 -84.5 34 t-17.5 91z" />
<glyph unicode="&#xec;" horiz-adv-x="514" d="M31 0l180 1024h199l-181 -1024h-198zM55 1409l166 129l201 -324l-115 -88z" />
<glyph unicode="&#xed;" horiz-adv-x="514" d="M31 0l180 1024h199l-181 -1024h-198zM236 1214l315 324l121 -129l-353 -283z" />
<glyph unicode="&#xee;" horiz-adv-x="514" d="M31 0l180 1024h199l-181 -1024h-198zM45 1200l354 316l242 -318l-102 -92l-183 172l-241 -172z" />
<glyph unicode="&#xef;" horiz-adv-x="514" d="M31 0l180 1024h199l-181 -1024h-198zM47 1286q9 56 49 89.5t97 33.5t84 -33.5t18 -89.5q-10 -57 -49.5 -91t-95.5 -34q-57 0 -85 34t-18 91zM424 1286q9 56 48.5 89.5t96.5 33.5t84.5 -33.5t18.5 -89.5q-10 -57 -50 -91t-96 -34q-57 0 -84.5 34t-17.5 91z" />
<glyph unicode="&#xf0;" horiz-adv-x="1206" d="M74 471q37 202 187 336.5t343 134.5q54 0 101 -12l-80 174l-197 -94l-43 114l186 90l-102 220h240l57 -127l182 88l45 -115l-178 -84l195 -430q70 -159 45 -299q-37 -209 -201 -345t-375 -136q-212 0 -327 137t-78 348zM272 465q-22 -127 47 -210t195 -83q124 0 221.5 83 t120.5 210q22 126 -46.5 208.5t-191.5 82.5q-126 0 -224.5 -82.5t-121.5 -208.5z" />
<glyph unicode="&#xf1;" horiz-adv-x="1267" d="M31 0l180 1024h199l-19 -102q154 116 348 116q186 0 288.5 -104.5t74.5 -267.5l-119 -666h-199l117 662q15 83 -47 136.5t-174 53.5q-122 0 -216.5 -67.5t-125.5 -174.5l-109 -610h-198zM387 1141q20 106 85.5 174.5t148.5 68.5q38 0 75.5 -16t61 -36t48.5 -36t42 -16 q25 0 46.5 26.5t27.5 67.5h149q-19 -106 -84.5 -175t-148.5 -69q-39 0 -76 17t-59.5 37.5t-47 37.5t-41.5 17q-26 0 -47.5 -27.5t-29.5 -70.5h-150z" />
<glyph unicode="&#xf2;" horiz-adv-x="1208" d="M61 512q27 151 114 271t214.5 187.5t272.5 67.5t248.5 -67.5t147 -187.5t17.5 -271q-40 -228 -210 -377t-390 -149q-145 0 -248.5 67.5t-147.5 187.5t-18 271zM262 514q-26 -148 43.5 -245t202.5 -97t238 97t131 245q26 146 -44 242t-204 96t-238 -96t-129 -242z M403 1409l166 129l201 -324l-115 -88z" />
<glyph unicode="&#xf3;" horiz-adv-x="1208" d="M61 512q27 151 114 271t214.5 187.5t272.5 67.5t248.5 -67.5t147 -187.5t17.5 -271q-40 -228 -210 -377t-390 -149q-145 0 -248.5 67.5t-147.5 187.5t-18 271zM262 514q-26 -148 43.5 -245t202.5 -97t238 97t131 245q26 146 -44 242t-204 96t-238 -96t-129 -242z M584 1214l313 324l121 -129l-350 -283z" />
<glyph unicode="&#xf4;" horiz-adv-x="1208" d="M61 512q27 151 114 271t214.5 187.5t272.5 67.5t248.5 -67.5t147 -187.5t17.5 -271q-40 -228 -210 -377t-390 -149q-145 0 -248.5 67.5t-147.5 187.5t-18 271zM262 514q-26 -148 43.5 -245t202.5 -97t238 97t131 245q26 146 -44 242t-204 96t-238 -96t-129 -242z M393 1200l352 316l242 -318l-102 -92l-180 172l-242 -172z" />
<glyph unicode="&#xf5;" horiz-adv-x="1208" d="M61 512q27 151 114 271t214.5 187.5t272.5 67.5t248.5 -67.5t147 -187.5t17.5 -271q-40 -228 -210 -377t-390 -149q-145 0 -248.5 67.5t-147.5 187.5t-18 271zM262 514q-26 -148 43.5 -245t202.5 -97t238 97t131 245q26 146 -44 242t-204 96t-238 -96t-129 -242z M358 1141q19 106 85 174.5t149 68.5q38 0 75 -16t60.5 -36t49 -36t42.5 -16q24 0 45.5 26.5t28.5 67.5h149q-20 -106 -86 -175t-149 -69q-39 0 -75.5 17t-59 37.5t-46.5 37.5t-42 17q-26 0 -47 -27.5t-29 -70.5h-150z" />
<glyph unicode="&#xf6;" horiz-adv-x="1208" d="M61 512q27 151 114 271t214.5 187.5t272.5 67.5t248.5 -67.5t147 -187.5t17.5 -271q-40 -228 -210 -377t-390 -149q-145 0 -248.5 67.5t-147.5 187.5t-18 271zM262 514q-26 -148 43.5 -245t202.5 -97t238 97t131 245q26 146 -44 242t-204 96t-238 -96t-129 -242z M395 1286q9 56 49 89.5t97 33.5q55 0 83 -33.5t19 -89.5q-10 -57 -49.5 -91t-95.5 -34q-57 0 -85 34t-18 91zM772 1286q9 56 49 89.5t97 33.5q55 0 83 -33.5t19 -89.5q-10 -57 -50 -91t-96 -34q-57 0 -84.5 34t-17.5 91z" />
<glyph unicode="&#xf7;" d="M164 526v176h901v-176h-901zM475 207q0 63 38 101t101 38t102.5 -38t39.5 -101q0 -64 -39.5 -102.5t-102.5 -38.5t-101 38.5t-38 102.5zM475 1024q0 63 38 101t101 38t102.5 -38t39.5 -101q0 -64 -39.5 -102.5t-102.5 -38.5t-101 38.5t-38 102.5z" />
<glyph unicode="&#xf8;" horiz-adv-x="1208" d="M61 512q27 151 114 271t214.5 187.5t272.5 67.5q117 0 204 -43l68 90h139l-115 -151q78 -72 109 -181t8 -241q-40 -228 -210 -377t-390 -149q-114 0 -201 41l-67 -88h-137l112 149q-79 72 -111.5 181.5t-9.5 242.5zM262 514q-28 -158 49 -254l430 569q-54 23 -112 23 q-134 0 -238 -96t-129 -242zM399 193q58 -21 109 -21q133 0 238 97t131 245q26 147 -48 248z" />
<glyph unicode="&#xf9;" horiz-adv-x="1267" d="M94 358l117 666h199l-117 -662q-15 -89 43 -139.5t172 -50.5q123 0 217.5 63t130.5 164l111 625h198l-182 -1024h-199l19 104q-152 -118 -363 -118q-189 0 -283 100t-63 272zM432 1409l166 129l201 -324l-115 -88z" />
<glyph unicode="&#xfa;" horiz-adv-x="1267" d="M94 358l117 666h199l-117 -662q-15 -89 43 -139.5t172 -50.5q123 0 217.5 63t130.5 164l111 625h198l-182 -1024h-199l19 104q-152 -118 -363 -118q-189 0 -283 100t-63 272zM612 1214l316 324l121 -129l-353 -283z" />
<glyph unicode="&#xfb;" horiz-adv-x="1267" d="M94 358l117 666h199l-117 -662q-15 -89 43 -139.5t172 -50.5q123 0 217.5 63t130.5 164l111 625h198l-182 -1024h-199l19 104q-152 -118 -363 -118q-189 0 -283 100t-63 272zM422 1200l354 316l242 -318l-103 -92l-182 172l-241 -172z" />
<glyph unicode="&#xfc;" horiz-adv-x="1267" d="M94 358l117 666h199l-117 -662q-15 -89 43 -139.5t172 -50.5q123 0 217.5 63t130.5 164l111 625h198l-182 -1024h-199l19 104q-152 -118 -363 -118q-189 0 -283 100t-63 272zM424 1286q9 56 49 89.5t98 33.5q56 0 83.5 -34t17.5 -89q-9 -57 -49 -91t-97 -34t-84.5 34 t-17.5 91zM801 1286q9 56 49 89.5t98 33.5q56 0 83.5 -34t17.5 -89q-9 -57 -49 -91t-97 -34t-84.5 34t-17.5 91z" />
<glyph unicode="&#xfd;" horiz-adv-x="1269" d="M4 -330l162 137q66 -106 235 -106q154 0 259.5 91.5t134.5 250.5l12 76q-158 -133 -375 -133q-187 0 -277.5 100t-58.5 279l117 659h197l-117 -655q-15 -93 40.5 -145t166.5 -52q132 0 228.5 75.5t135.5 201.5l103 575h198l-174 -983q-43 -246 -208.5 -386t-409.5 -140 q-261 0 -369 155zM614 1214l314 324l121 -129l-353 -283z" />
<glyph unicode="&#xfe;" horiz-adv-x="1267" d="M-51 -471l346 1966h199l-105 -592q157 135 356 135q209 0 319 -148.5t69 -377.5q-40 -229 -202.5 -377.5t-371.5 -148.5q-196 0 -307 133l-105 -590h-198zM322 510q-25 -147 43.5 -242.5t201.5 -95.5q134 0 238 96t129 242q28 148 -42 245t-204 97q-132 0 -236 -97 t-130 -245z" />
<glyph unicode="&#xff;" horiz-adv-x="1269" d="M4 -330l162 137q66 -106 235 -106q154 0 259.5 91.5t134.5 250.5l12 76q-158 -133 -375 -133q-187 0 -277.5 100t-58.5 279l117 659h197l-117 -655q-15 -93 40.5 -145t166.5 -52q132 0 228.5 75.5t135.5 201.5l103 575h198l-174 -983q-43 -246 -208.5 -386t-409.5 -140 q-261 0 -369 155zM424 1286q11 56 50.5 89.5t96.5 33.5q56 0 83.5 -34t17.5 -89q-9 -57 -49 -91t-97 -34t-84 34t-18 91zM801 1286q11 56 50.5 89.5t96.5 33.5q56 0 83.5 -34t17.5 -89q-9 -57 -49 -91t-97 -34t-84 34t-18 91z" />
<glyph unicode="&#x13f;" horiz-adv-x="1214" d="M51 0l254 1434h211l-221 -1246h766l-33 -188h-977zM748 717q11 63 55.5 102t107.5 39t95.5 -39t21.5 -102q-10 -63 -55.5 -101t-108.5 -38t-94.5 38t-21.5 101z" />
<glyph unicode="&#x140;" horiz-adv-x="872" d="M31 0l264 1495h199l-265 -1495h-198zM553 717q11 63 56 102t108 39t95.5 -39t21.5 -102q-10 -63 -55.5 -101t-108.5 -38t-95 38t-22 101z" />
<glyph unicode="&#x152;" horiz-adv-x="2469" d="M119 717q36 209 154 376.5t291.5 261t369.5 93.5q168 0 295.5 -71t197.5 -199l46 256h985l-33 -187h-809l-76 -428h727l-35 -186h-725l-77 -445h806l-32 -188h-985l45 254q-115 -128 -267.5 -198t-320.5 -70q-196 0 -336 93.5t-199 261t-22 376.5zM330 717 q-27 -153 14.5 -274.5t141.5 -190t241 -68.5q214 0 380 151t206 382q26 153 -15.5 274.5t-141.5 189.5t-241 68q-215 0 -380 -150t-205 -382z" />
<glyph unicode="&#x153;" horiz-adv-x="1990" d="M61 512q41 229 208 377.5t382 148.5q133 0 231 -61t144 -168q83 107 200 168t249 61q139 0 237.5 -68t139 -191.5t12.5 -282.5q0 -13 -13 -50h-786q-5 -120 78 -198t215 -78q82 0 154.5 29.5t123.5 83.5l123 -125q-77 -82 -189.5 -127t-236.5 -45q-146 0 -251.5 62.5 t-155.5 172.5q-84 -110 -205 -172.5t-256 -62.5q-215 0 -329.5 148.5t-74.5 377.5zM262 514q-26 -148 43.5 -245t202.5 -97t238 97t131 245q26 146 -44 242t-204 96t-238 -96t-129 -242zM1100 614h577q-5 110 -69.5 175t-175.5 65q-110 0 -199.5 -65.5t-132.5 -174.5z" />
<glyph unicode="&#x178;" horiz-adv-x="1406" d="M186 1434h234l293 -672l526 672h236l-695 -879l-96 -555h-211l98 557zM565 1696q9 56 49 89.5t97 33.5t84 -33.5t18 -89.5q-10 -57 -49.5 -91t-95.5 -34q-57 0 -85 34t-18 91zM942 1696q9 56 48.5 89.5t96.5 33.5t84.5 -33.5t18.5 -89.5q-10 -57 -50 -91t-96 -34 q-57 0 -84.5 34t-17.5 91z" />
<glyph unicode="&#x2c6;" horiz-adv-x="792" d="M238 1511l354 316l242 -318l-103 -92l-180 172l-244 -172z" />
<glyph unicode="&#x2dc;" horiz-adv-x="839" d="M227 1452q20 106 85.5 175t148.5 69q38 0 75.5 -16.5t61 -36t48.5 -36t42 -16.5q25 0 46.5 27t27.5 68h149q-19 -106 -84.5 -175t-148.5 -69q-39 0 -75.5 17t-59.5 37t-47 37t-41 17q-26 0 -48.5 -27.5t-29.5 -70.5h-150z" />
<glyph unicode="&#x2000;" horiz-adv-x="974" />
<glyph unicode="&#x2001;" horiz-adv-x="1948" />
<glyph unicode="&#x2002;" horiz-adv-x="974" />
<glyph unicode="&#x2003;" horiz-adv-x="1948" />
<glyph unicode="&#x2004;" horiz-adv-x="649" />
<glyph unicode="&#x2005;" horiz-adv-x="487" />
<glyph unicode="&#x2006;" horiz-adv-x="324" />
<glyph unicode="&#x2007;" horiz-adv-x="324" />
<glyph unicode="&#x2008;" horiz-adv-x="243" />
<glyph unicode="&#x2009;" horiz-adv-x="389" />
<glyph unicode="&#x200a;" horiz-adv-x="108" />
<glyph unicode="&#x2010;" horiz-adv-x="819" d="M119 485l33 177h499l-33 -177h-499z" />
<glyph unicode="&#x2011;" horiz-adv-x="819" d="M119 485l33 177h499l-33 -177h-499z" />
<glyph unicode="&#x2012;" horiz-adv-x="819" d="M119 485l33 177h499l-33 -177h-499z" />
<glyph unicode="&#x2013;" d="M119 485l33 177h909l-33 -177h-909z" />
<glyph unicode="&#x2014;" horiz-adv-x="2048" d="M119 485l33 177h1728l-33 -177h-1728z" />
<glyph unicode="&#x2018;" horiz-adv-x="505" d="M145 1038l261 461l126 -37l-206 -477z" />
<glyph unicode="&#x2019;" horiz-adv-x="505" d="M172 1024l205 475l182 -51l-260 -463z" />
<glyph unicode="&#x201a;" horiz-adv-x="505" d="M-59 -254l204 477l183 -53l-260 -461z" />
<glyph unicode="&#x201c;" horiz-adv-x="815" d="M145 1038l261 461l126 -37l-206 -477zM477 1038l260 461l127 -37l-207 -477z" />
<glyph unicode="&#x201d;" horiz-adv-x="815" d="M141 1024l207 475l182 -51l-260 -463zM473 1024l207 475l182 -51l-260 -463z" />
<glyph unicode="&#x201e;" horiz-adv-x="837" d="M-59 -254l204 477l183 -53l-260 -461zM272 -254l205 477l182 -53l-260 -461z" />
<glyph unicode="&#x2022;" horiz-adv-x="958" d="M135 573q25 146 127.5 233t247.5 87q146 0 218 -87t46 -233t-128.5 -232.5t-248.5 -86.5t-217 86.5t-45 232.5z" />
<glyph unicode="&#x2026;" horiz-adv-x="1542" d="M12 125q10 64 56 102.5t110 38.5q63 0 94 -38.5t21 -102.5q-10 -63 -55.5 -101t-108.5 -38q-64 0 -96 38t-21 101zM526 125q10 64 56 102.5t110 38.5q63 0 94 -38.5t21 -102.5q-10 -63 -55.5 -101t-108.5 -38q-64 0 -96 38t-21 101zM1040 125q10 64 56 102.5t110 38.5 q63 0 94 -38.5t21 -102.5q-10 -63 -55.5 -101t-108.5 -38q-64 0 -96 38t-21 101z" />
<glyph unicode="&#x202f;" horiz-adv-x="389" />
<glyph unicode="&#x2039;" horiz-adv-x="692" d="M74 573l438 426l98 -79l-297 -347l176 -344l-127 -79z" />
<glyph unicode="&#x203a;" horiz-adv-x="692" d="M33 229l295 344l-172 347l123 79l290 -426l-440 -423z" />
<glyph unicode="&#x2044;" horiz-adv-x="256" d="M-526 72l1200 1364l106 -86l-1200 -1364z" />
<glyph unicode="&#x205f;" horiz-adv-x="487" />
<glyph unicode="&#x20ac;" horiz-adv-x="1488" d="M-4 471l29 168h149q5 61 27 156h-148l29 168h182q107 222 309 353.5t443 131.5q155 0 277 -57.5t198 -161.5l-180 -131q-55 72 -140.5 111.5t-191.5 39.5q-149 0 -279.5 -76.5t-212.5 -209.5h617l-29 -168h-663q-24 -89 -27 -156h662l-29 -168h-617q36 -134 138.5 -210.5 t253.5 -76.5q106 0 204.5 40.5t176.5 113.5l137 -133q-114 -104 -256.5 -161.5t-296.5 -57.5q-241 0 -395.5 131.5t-184.5 353.5h-182z" />
<glyph unicode="&#x2122;" horiz-adv-x="1505" d="M121 1290l26 144h586l-24 -144h-213l-103 -573h-162l103 573h-213zM686 717l127 717h170l145 -355l269 355h170l-127 -717h-164l80 452l-219 -299h-95l-112 299l-80 -452h-164z" />
<glyph unicode="&#x2460;" horiz-adv-x="1904" d="M119 717q0 227 111.5 418.5t303 303t418.5 111.5q170 0 324.5 -66t266 -177.5t177.5 -265.5t66 -324t-66 -324.5t-177.5 -266t-266 -177.5t-324.5 -66t-324 66t-265.5 177.5t-177.5 266t-66 324.5zM287 717q0 -136 52.5 -259.5t141.5 -212.5t212 -141.5t259 -52.5 q182 0 335 89t242 242t89 335q0 136 -52.5 259t-141.5 212t-212.5 141.5t-259.5 52.5t-259 -52.5t-212 -141.5t-141.5 -212t-52.5 -259zM709 928l194 147h164v-717h-164v523l-98 -76z" />
<glyph unicode="&#x2461;" horiz-adv-x="1904" d="M119 717q0 227 111.5 418.5t303 303t418.5 111.5q170 0 324.5 -66t266 -177.5t177.5 -265.5t66 -324t-66 -324.5t-177.5 -266t-266 -177.5t-324.5 -66t-324 66t-265.5 177.5t-177.5 266t-66 324.5zM287 717q0 -136 52.5 -259.5t141.5 -212.5t212 -141.5t259 -52.5 q182 0 335 89t242 242t89 335q0 136 -52.5 259t-141.5 212t-212.5 141.5t-259.5 52.5t-259 -52.5t-212 -141.5t-141.5 -212t-52.5 -259zM694 958q97 123 256 123q111 0 177.5 -56.5t66.5 -152.5q0 -48 -15 -88.5t-48.5 -77t-63.5 -62t-84 -67.5t-86 -69h295v-154h-485v154 q16 35 56.5 75t86 75.5t89.5 71t72.5 71.5t28.5 67q0 27 -24.5 43.5t-63.5 16.5q-44 0 -77 -21.5t-66 -62.5z" />
<glyph unicode="&#x2462;" horiz-adv-x="1904" d="M119 717q0 227 111.5 418.5t303 303t418.5 111.5q170 0 324.5 -66t266 -177.5t177.5 -265.5t66 -324t-66 -324.5t-177.5 -266t-266 -177.5t-324.5 -66t-324 66t-265.5 177.5t-177.5 266t-66 324.5zM287 717q0 -136 52.5 -259.5t141.5 -212.5t212 -141.5t259 -52.5 q182 0 335 89t242 242t89 335q0 136 -52.5 259t-141.5 212t-212.5 141.5t-259.5 52.5t-259 -52.5t-212 -141.5t-141.5 -212t-52.5 -259zM694 461l113 112q25 -31 62.5 -50t76.5 -19q45 0 75 22.5t30 57.5q0 32 -26.5 52.5t-63.5 20.5h-46v136h56q29 0 47 19t18 48 q0 31 -24.5 51.5t-59.5 20.5q-38 0 -73.5 -22t-59.5 -58l-110 113q39 54 107.5 87t148.5 33q102 0 168.5 -56t66.5 -146q0 -100 -78 -156q90 -62 90 -164q0 -92 -74 -153.5t-186 -61.5q-76 0 -146.5 32t-111.5 81z" />
<glyph unicode="&#x2463;" horiz-adv-x="1904" d="M119 717q0 227 111.5 418.5t303 303t418.5 111.5q170 0 324.5 -66t266 -177.5t177.5 -265.5t66 -324t-66 -324.5t-177.5 -266t-266 -177.5t-324.5 -66t-324 66t-265.5 177.5t-177.5 266t-66 324.5zM287 717q0 -136 52.5 -259.5t141.5 -212.5t212 -141.5t259 -52.5 q182 0 335 89t242 242t89 335q0 136 -52.5 259t-141.5 212t-212.5 141.5t-259.5 52.5t-259 -52.5t-212 -141.5t-141.5 -212t-52.5 -259zM633 498v145l321 432h166v-432h92v-145h-92v-140h-166v140h-321zM799 643h159v215z" />
<glyph unicode="&#x2464;" horiz-adv-x="1904" d="M119 717q0 227 111.5 418.5t303 303t418.5 111.5q170 0 324.5 -66t266 -177.5t177.5 -265.5t66 -324t-66 -324.5t-177.5 -266t-266 -177.5t-324.5 -66t-324 66t-265.5 177.5t-177.5 266t-66 324.5zM287 717q0 -136 52.5 -259.5t141.5 -212.5t212 -141.5t259 -52.5 q182 0 335 89t242 242t89 335q0 136 -52.5 259t-141.5 212t-212.5 141.5t-259.5 52.5t-259 -52.5t-212 -141.5t-141.5 -212t-52.5 -259zM696 475l115 115q51 -80 129 -80q47 0 78 25t31 63q0 40 -30.5 66t-76.5 26h-172v391h375v-157h-236v-90h35q117 0 191.5 -67t74.5 -171 t-78 -173t-196 -69q-152 0 -240 121z" />
<glyph unicode="&#x2465;" horiz-adv-x="1904" d="M119 717q0 227 111.5 418.5t303 303t418.5 111.5q170 0 324.5 -66t266 -177.5t177.5 -265.5t66 -324t-66 -324.5t-177.5 -266t-266 -177.5t-324.5 -66t-324 66t-265.5 177.5t-177.5 266t-66 324.5zM287 717q0 -136 52.5 -259.5t141.5 -212.5t212 -141.5t259 -52.5 q182 0 335 89t242 242t89 335q0 136 -52.5 259t-141.5 212t-212.5 141.5t-259.5 52.5t-259 -52.5t-212 -141.5t-141.5 -212t-52.5 -259zM692 610q0 77 51 164l189 307h176l-139 -225q5 0 16 1t16 1q94 0 155 -70t61 -176q0 -112 -74.5 -185t-188.5 -73q-113 0 -187.5 73 t-74.5 183zM856 610q0 -43 28.5 -71.5t69.5 -28.5q40 0 69.5 29t29.5 71q0 41 -29.5 70t-69.5 29q-41 0 -69.5 -29t-28.5 -70z" />
<glyph unicode="&#x2466;" horiz-adv-x="1904" d="M119 717q0 227 111.5 418.5t303 303t418.5 111.5q170 0 324.5 -66t266 -177.5t177.5 -265.5t66 -324t-66 -324.5t-177.5 -266t-266 -177.5t-324.5 -66t-324 66t-265.5 177.5t-177.5 266t-66 324.5zM287 717q0 -136 52.5 -259.5t141.5 -212.5t212 -141.5t259 -52.5 q182 0 335 89t242 242t89 335q0 136 -52.5 259t-141.5 212t-212.5 141.5t-259.5 52.5t-259 -52.5t-212 -141.5t-141.5 -212t-52.5 -259zM715 932v143h479v-143l-229 -574h-168l231 574h-313z" />
<glyph unicode="&#x2467;" horiz-adv-x="1904" d="M119 717q0 227 111.5 418.5t303 303t418.5 111.5q170 0 324.5 -66t266 -177.5t177.5 -265.5t66 -324t-66 -324.5t-177.5 -266t-266 -177.5t-324.5 -66t-324 66t-265.5 177.5t-177.5 266t-66 324.5zM287 717q0 -136 52.5 -259.5t141.5 -212.5t212 -141.5t259 -52.5 q182 0 335 89t242 242t89 335q0 136 -52.5 259t-141.5 212t-212.5 141.5t-259.5 52.5t-259 -52.5t-212 -141.5t-141.5 -212t-52.5 -259zM705 565q0 53 25.5 97.5t70.5 72.5q-84 59 -84 160q0 83 66.5 136.5t170.5 53.5q103 0 170.5 -54.5t67.5 -139.5q0 -98 -84 -156 q94 -62 94 -170q0 -94 -70 -155.5t-178 -61.5t-178.5 61.5t-70.5 155.5zM868 584q0 -36 24.5 -58t61.5 -22t60.5 22t23.5 58q0 34 -23.5 54.5t-60.5 20.5t-61.5 -21t-24.5 -54zM879 870q0 -29 21 -46t54 -17q32 0 53 17t21 46q0 26 -21.5 44t-52.5 18q-32 0 -53.5 -18 t-21.5 -44z" />
<glyph unicode="&#x2468;" horiz-adv-x="1904" d="M119 717q0 227 111.5 418.5t303 303t418.5 111.5q170 0 324.5 -66t266 -177.5t177.5 -265.5t66 -324t-66 -324.5t-177.5 -266t-266 -177.5t-324.5 -66t-324 66t-265.5 177.5t-177.5 266t-66 324.5zM287 717q0 -136 52.5 -259.5t141.5 -212.5t212 -141.5t259 -52.5 q182 0 335 89t242 242t89 335q0 136 -52.5 259t-141.5 212t-212.5 141.5t-259.5 52.5t-259 -52.5t-212 -141.5t-141.5 -212t-52.5 -259zM692 825q0 111 74 183.5t188 72.5q113 0 188 -72.5t75 -181.5q0 -76 -52 -165l-190 -308h-180l139 228q-10 -2 -29 -2q-94 0 -153.5 69 t-59.5 176zM856 829q0 -43 28.5 -71.5t69.5 -28.5q40 0 69.5 29t29.5 71q0 41 -29.5 70t-69.5 29q-41 0 -69.5 -29t-28.5 -70z" />
<glyph unicode="&#x24ea;" horiz-adv-x="1904" d="M119 717q0 227 111.5 418.5t303 303t418.5 111.5q170 0 324.5 -66t266 -177.5t177.5 -265.5t66 -324t-66 -324.5t-177.5 -266t-266 -177.5t-324.5 -66t-324 66t-265.5 177.5t-177.5 266t-66 324.5zM287 717q0 -136 52.5 -259.5t141.5 -212.5t212 -141.5t259 -52.5 q182 0 335 89t242 242t89 335q0 136 -52.5 259t-141.5 212t-212.5 141.5t-259.5 52.5t-259 -52.5t-212 -141.5t-141.5 -212t-52.5 -259zM666 717q0 160 81.5 264t206.5 104t207 -104.5t82 -263.5q0 -160 -82 -264.5t-207 -104.5t-206.5 104.5t-81.5 264.5zM827 717 q0 -93 35.5 -153t89.5 -60t89.5 60t35.5 153q0 94 -35.5 154.5t-89.5 60.5t-89.5 -60.5t-35.5 -154.5z" />
<glyph unicode="&#x24ff;" horiz-adv-x="1904" d="M119 717q0 227 111.5 418.5t303 303t418.5 111.5q170 0 324.5 -66t266 -177.5t177.5 -265.5t66 -324t-66 -324.5t-177.5 -266t-266 -177.5t-324.5 -66t-324 66t-265.5 177.5t-177.5 266t-66 324.5zM666 717q0 -160 81.5 -264.5t206.5 -104.5t207 104.5t82 264.5 q0 159 -82 263.5t-207 104.5t-206.5 -104t-81.5 -264zM827 717q0 94 35.5 154.5t89.5 60.5t89.5 -60.5t35.5 -154.5q0 -93 -35.5 -153t-89.5 -60t-89.5 60t-35.5 153z" />
<glyph unicode="&#x25fc;" horiz-adv-x="1024" d="M0 0v1024h1024v-1024h-1024z" />
<glyph unicode="&#x278a;" horiz-adv-x="1904" d="M119 717q0 227 111.5 418.5t303 303t418.5 111.5q170 0 324.5 -66t266 -177.5t177.5 -265.5t66 -324t-66 -324.5t-177.5 -266t-266 -177.5t-324.5 -66t-324 66t-265.5 177.5t-177.5 266t-66 324.5zM709 928l96 -123l98 76v-523h164v717h-164z" />
<glyph unicode="&#x278b;" horiz-adv-x="1904" d="M119 717q0 227 111.5 418.5t303 303t418.5 111.5q170 0 324.5 -66t266 -177.5t177.5 -265.5t66 -324t-66 -324.5t-177.5 -266t-266 -177.5t-324.5 -66t-324 66t-265.5 177.5t-177.5 266t-66 324.5zM694 958l115 -114q33 41 66 62.5t77 21.5q39 0 63.5 -16.5t24.5 -43.5 q0 -31 -28.5 -67t-72.5 -71.5t-89.5 -71t-86 -75.5t-56.5 -75v-154h485v154h-295q32 27 86 69t84 67.5t63.5 62t48.5 77t15 88.5q0 96 -66.5 152.5t-177.5 56.5q-159 0 -256 -123z" />
<glyph unicode="&#x278c;" horiz-adv-x="1904" d="M119 717q0 227 111.5 418.5t303 303t418.5 111.5q170 0 324.5 -66t266 -177.5t177.5 -265.5t66 -324t-66 -324.5t-177.5 -266t-266 -177.5t-324.5 -66t-324 66t-265.5 177.5t-177.5 266t-66 324.5zM694 461q40 -50 110.5 -81.5t147.5 -31.5q112 0 186 61.5t74 153.5 q0 102 -90 164q78 56 78 156q0 90 -66.5 146t-168.5 56q-79 0 -148 -33t-108 -87l110 -113q55 80 135 80q34 0 58 -19.5t24 -52.5q0 -29 -18 -48t-47 -19h-56v-136h46q37 0 63.5 -20.5t26.5 -52.5q0 -35 -30 -57.5t-75 -22.5q-38 0 -76 19t-63 50z" />
<glyph unicode="&#x278d;" horiz-adv-x="1904" d="M119 717q0 227 111.5 418.5t303 303t418.5 111.5q170 0 324.5 -66t266 -177.5t177.5 -265.5t66 -324t-66 -324.5t-177.5 -266t-266 -177.5t-324.5 -66t-324 66t-265.5 177.5t-177.5 266t-66 324.5zM633 498h321v-140h166v140h92v145h-92v432h-166l-321 -432v-145z M799 643l159 215v-215h-159z" />
<glyph unicode="&#x278e;" horiz-adv-x="1904" d="M119 717q0 227 111.5 418.5t303 303t418.5 111.5q170 0 324.5 -66t266 -177.5t177.5 -265.5t66 -324t-66 -324.5t-177.5 -266t-266 -177.5t-324.5 -66t-324 66t-265.5 177.5t-177.5 266t-66 324.5zM696 475q88 -121 240 -121q118 0 196 69t78 173t-74.5 171t-191.5 67 h-35v90h236v157h-375v-391h172q46 0 76.5 -26t30.5 -66q0 -38 -31 -63t-78 -25q-78 0 -129 80z" />
<glyph unicode="&#x278f;" horiz-adv-x="1904" d="M119 717q0 227 111.5 418.5t303 303t418.5 111.5q170 0 324.5 -66t266 -177.5t177.5 -265.5t66 -324t-66 -324.5t-177.5 -266t-266 -177.5t-324.5 -66t-324 66t-265.5 177.5t-177.5 266t-66 324.5zM692 610q0 -110 74.5 -183t187.5 -73q114 0 188.5 73t74.5 185 q0 106 -61 176t-155 70q-22 0 -32 -2l139 225h-176l-189 -307q-51 -87 -51 -164zM856 610q0 41 28.5 70t69.5 29q40 0 69.5 -29t29.5 -70q0 -42 -29.5 -71t-69.5 -29q-41 0 -69.5 28.5t-28.5 71.5z" />
<glyph unicode="&#x2790;" horiz-adv-x="1904" d="M119 717q0 227 111.5 418.5t303 303t418.5 111.5q170 0 324.5 -66t266 -177.5t177.5 -265.5t66 -324t-66 -324.5t-177.5 -266t-266 -177.5t-324.5 -66t-324 66t-265.5 177.5t-177.5 266t-66 324.5zM715 932h313l-231 -574h168l229 574v143h-479v-143z" />
<glyph unicode="&#x2791;" horiz-adv-x="1904" d="M119 717q0 227 111.5 418.5t303 303t418.5 111.5q170 0 324.5 -66t266 -177.5t177.5 -265.5t66 -324t-66 -324.5t-177.5 -266t-266 -177.5t-324.5 -66t-324 66t-265.5 177.5t-177.5 266t-66 324.5zM705 565q0 -94 70.5 -155.5t178.5 -61.5t178 61.5t70 155.5 q0 111 -94 170q84 55 84 156q0 85 -67.5 139.5t-170.5 54.5q-104 0 -170.5 -53.5t-66.5 -136.5q0 -100 86 -160q-46 -28 -72 -72.5t-26 -97.5zM868 584q0 33 24.5 54t61.5 21t60.5 -20.5t23.5 -54.5q0 -36 -23.5 -58t-60.5 -22t-61.5 22t-24.5 58zM879 870q0 26 21.5 44 t53.5 18q31 0 52.5 -18t21.5 -44q0 -29 -21 -46t-53 -17q-33 0 -54 17t-21 46z" />
<glyph unicode="&#x2792;" horiz-adv-x="1904" d="M119 717q0 227 111.5 418.5t303 303t418.5 111.5q170 0 324.5 -66t266 -177.5t177.5 -265.5t66 -324t-66 -324.5t-177.5 -266t-266 -177.5t-324.5 -66t-324 66t-265.5 177.5t-177.5 266t-66 324.5zM692 825q0 -107 59.5 -176t153.5 -69q21 0 29 2l-139 -228h180l190 308 q52 80 52 165q0 109 -75 181.5t-188 72.5q-114 0 -188 -72.5t-74 -183.5zM856 829q0 41 28.5 70t69.5 29q40 0 69.5 -29t29.5 -70q0 -42 -29.5 -71t-69.5 -29q-41 0 -69.5 28.5t-28.5 71.5z" />
<glyph horiz-adv-x="1210" d="M-20 272l200 103q15 -87 84 -139t174 -52q129 0 228.5 80t121.5 201l170 969h211l-172 -967q-37 -209 -205 -345t-389 -136q-165 0 -278 77.5t-145 208.5zM987 1624l313 324l121 -129l-352 -283z" />
<glyph horiz-adv-x="1167" d="M33 291q26 154 154.5 240.5t328.5 86.5h279l10 64q15 82 -46 127t-186 45q-176 0 -288 -106l-115 135q168 155 436 155q218 0 323.5 -93t76.5 -257l-121 -688h-199l12 70q-143 -84 -331 -84q-180 0 -270 80t-64 225zM236 311q-12 -68 43.5 -106.5t160.5 -38.5 q120 0 204 45t99 115l21 125h-283q-103 0 -168.5 -38t-76.5 -102z" />
<glyph horiz-adv-x="1167" d="M33 291q26 154 154.5 240.5t328.5 86.5h279l10 64q15 82 -46 127t-186 45q-176 0 -288 -106l-115 135q168 155 436 155q218 0 323.5 -93t76.5 -257l-121 -688h-199l12 70q-143 -84 -331 -84q-180 0 -270 80t-64 225zM236 311q-12 -68 43.5 -106.5t160.5 -38.5 q120 0 204 45t99 115l21 125h-283q-103 0 -168.5 -38t-76.5 -102zM539 1214l315 324l121 -129l-352 -283z" />
<glyph horiz-adv-x="1167" d="M33 291q26 154 154.5 240.5t328.5 86.5h279l10 64q15 82 -46 127t-186 45q-176 0 -288 -106l-115 135q168 155 436 155q218 0 323.5 -93t76.5 -257l-121 -688h-199l12 70q-143 -84 -331 -84q-180 0 -270 80t-64 225zM236 311q-12 -68 43.5 -106.5t160.5 -38.5 q120 0 204 45t99 115l21 125h-283q-103 0 -168.5 -38t-76.5 -102zM348 1200l354 316l242 -318l-102 -92l-183 172l-241 -172z" />
<glyph horiz-adv-x="1167" d="M33 291q26 154 154.5 240.5t328.5 86.5h279l10 64q15 82 -46 127t-186 45q-176 0 -288 -106l-115 135q168 155 436 155q218 0 323.5 -93t76.5 -257l-121 -688h-199l12 70q-143 -84 -331 -84q-180 0 -270 80t-64 225zM236 311q-12 -68 43.5 -106.5t160.5 -38.5 q120 0 204 45t99 115l21 125h-283q-103 0 -168.5 -38t-76.5 -102zM358 1409l166 129l201 -324l-115 -88z" />
<glyph horiz-adv-x="1167" d="M33 291q26 154 154.5 240.5t328.5 86.5h279l10 64q15 82 -46 127t-186 45q-176 0 -288 -106l-115 135q168 155 436 155q218 0 323.5 -93t76.5 -257l-121 -688h-199l12 70q-143 -84 -331 -84q-180 0 -270 80t-64 225zM236 311q-12 -68 43.5 -106.5t160.5 -38.5 q120 0 204 45t99 115l21 125h-283q-103 0 -168.5 -38t-76.5 -102zM350 1286q9 56 49 89.5t97 33.5t84 -33.5t18 -89.5q-10 -57 -49.5 -91t-95.5 -34q-57 0 -85 34t-18 91zM727 1286q9 56 48.5 89.5t96.5 33.5t84.5 -33.5t18.5 -89.5q-10 -57 -50 -91t-96 -34q-57 0 -84.5 34 t-17.5 91z" />
<glyph horiz-adv-x="1167" d="M33 291q26 154 154.5 240.5t328.5 86.5h279l10 64q15 82 -46 127t-186 45q-176 0 -288 -106l-115 135q168 155 436 155q218 0 323.5 -93t76.5 -257l-121 -688h-199l12 70q-143 -84 -331 -84q-180 0 -270 80t-64 225zM236 311q-12 -68 43.5 -106.5t160.5 -38.5 q120 0 204 45t99 115l21 125h-283q-103 0 -168.5 -38t-76.5 -102zM446 1362q17 97 93 160t176 63q97 0 150 -63.5t36 -159.5q-17 -97 -92.5 -159t-173.5 -62q-100 0 -153 62t-36 159zM584 1364q-6 -42 15 -69t60 -27q38 0 67.5 27.5t37.5 68.5q6 40 -14 66t-58 26 q-40 0 -70.5 -25.5t-37.5 -66.5z" />
<glyph horiz-adv-x="1167" d="M33 291q26 154 154.5 240.5t328.5 86.5h279l10 64q15 82 -46 127t-186 45q-176 0 -288 -106l-115 135q168 155 436 155q218 0 323.5 -93t76.5 -257l-121 -688h-199l12 70q-143 -84 -331 -84q-180 0 -270 80t-64 225zM236 311q-12 -68 43.5 -106.5t160.5 -38.5 q120 0 204 45t99 115l21 125h-283q-103 0 -168.5 -38t-76.5 -102zM313 1141q19 106 85 174.5t149 68.5q38 0 75 -16t60.5 -36t49 -36t42.5 -16q25 0 46 26.5t28 67.5h149q-19 -106 -84.5 -175t-148.5 -69q-40 0 -76.5 17t-59 37.5t-47 37.5t-42.5 17q-26 0 -47 -27.5 t-29 -70.5h-150z" />
<glyph horiz-adv-x="813" d="M109 913q19 106 110.5 164t239.5 58h170l10 53q10 57 -31 89t-123 32q-116 0 -194 -68l-88 84q119 119 313 119q153 0 227 -64.5t52 -181.5l-84 -481h-154l10 57q-98 -67 -237 -67q-121 0 -179.5 54t-41.5 152zM268 932q-9 -48 28 -78.5t107 -30.5q67 0 118.5 27t70.5 70 l20 118h-176q-69 0 -114 -28.5t-54 -77.5z" />
<glyph horiz-adv-x="514" d="M-322 -485l33 186q127 0 207.5 59.5t99.5 165.5l193 1098h199l-193 -1100q-34 -193 -176.5 -301t-362.5 -108zM236 1214l315 324l121 -129l-353 -283z" />
<glyph horiz-adv-x="1120" d="M92 1024h199l194 -831l457 831h195l-818 -1495h-196l225 412z" />
<glyph horiz-adv-x="1120" d="M92 1024h199l194 -831l457 831h195l-818 -1495h-196l225 412zM539 1214l315 324l119 -129l-350 -283z" />
<glyph horiz-adv-x="1120" d="M92 1024h199l194 -831l457 831h195l-818 -1495h-196l225 412zM350 1286q9 56 49 89.5t97 33.5t84 -33.5t18 -89.5q-10 -57 -49.5 -91t-95.5 -34q-57 0 -85 34t-18 91zM727 1286q9 56 48.5 89.5t96.5 33.5t84.5 -33.5t18.5 -89.5q-10 -57 -50 -91t-96 -34q-57 0 -84.5 34 t-17.5 91z" />
<glyph horiz-adv-x="1120" d="M-61 -461l30 176q63 -24 127 -24q56 0 103.5 30.5t76.5 85.5l72 132l-256 1085h199l194 -834l457 834h195l-693 -1262q-61 -114 -160.5 -180.5t-207.5 -66.5q-80 0 -137 24z" />
<glyph horiz-adv-x="1120" d="M-61 -461l30 176q63 -24 127 -24q56 0 103.5 30.5t76.5 85.5l72 132l-256 1085h199l194 -834l457 834h195l-693 -1262q-61 -114 -160.5 -180.5t-207.5 -66.5q-80 0 -137 24zM539 1214l315 324l119 -129l-350 -283z" />
<glyph horiz-adv-x="1120" d="M-61 -461l30 176q63 -24 127 -24q56 0 103.5 30.5t76.5 85.5l72 132l-256 1085h199l194 -834l457 834h195l-693 -1262q-61 -114 -160.5 -180.5t-207.5 -66.5q-80 0 -137 24zM350 1286q9 56 49 89.5t97 33.5t84 -33.5t18 -89.5q-10 -57 -49.5 -91t-95.5 -34q-57 0 -85 34 t-18 91zM727 1286q9 56 48.5 89.5t96.5 33.5t84.5 -33.5t18.5 -89.5q-10 -57 -50 -91t-96 -34q-57 0 -84.5 34t-17.5 91z" />
<glyph d="M82 717q36 209 134.5 376.5t237 261t291.5 93.5q152 0 257.5 -93.5t144.5 -261t2 -376.5q-27 -157 -91.5 -293t-152 -232t-196 -151t-222.5 -55q-153 0 -258.5 93.5t-144.5 261t-2 376.5zM286 441.5q19 -118.5 81.5 -188t154.5 -69.5q140 0 259 151t159 382t-25.5 381.5 t-203.5 150.5q-142 0 -261 -150.5t-159 -381.5q-24 -157 -5 -275.5z" />
<glyph d="M96 0l35 199h363l174 989l-326 -225l-96 159l467 312h209l-220 -1235h363l-35 -199h-934z" />
<glyph d="M16 0l37 199q39 63 120 135t171 133.5t190.5 134.5t182 139t141 144.5t72.5 152.5q17 98 -46 154.5t-182 56.5q-203 0 -364 -174l-119 146q208 227 516 227q212 0 319.5 -109t73.5 -297q-16 -93 -66 -180t-115.5 -154t-154 -138t-168.5 -124.5t-174.5 -122.5t-156.5 -124 h696l-35 -199h-938z" />
<glyph d="M20 211l173 145q83 -172 286 -172q129 0 225 67.5t113 170.5q19 101 -49 166t-190 65h-93l33 187h105q103 0 180 57.5t94 146.5q15 93 -47.5 149t-179.5 56q-194 0 -336 -182l-119 145q197 236 498 236q207 0 316.5 -105.5t80.5 -275.5q-19 -102 -81 -184.5t-157 -134.5 q91 -53 131.5 -144t20.5 -201q-32 -181 -195.5 -299t-382.5 -118q-149 0 -258 58t-168 167z" />
<glyph d="M8 322l33 188l852 924h211l-164 -924h178l-33 -188h-180l-55 -322h-211l57 322h-688zM260 510h469l113 633z" />
<glyph d="M51 213l172 145q38 -82 106.5 -128t164.5 -46q129 0 224.5 75t115.5 190q22 117 -47 191.5t-197 74.5h-342l125 719h725l-37 -209h-539l-55 -324h160q216 0 333.5 -128t83.5 -327q-23 -130 -106 -235t-210 -165t-273 -60q-139 0 -243 58.5t-161 168.5z" />
<glyph d="M86 467q26 146 154 299l534 668h248l-412 -502q52 10 95 10q193 0 296 -134.5t66 -336.5q-38 -212 -201 -348.5t-374 -136.5q-139 0 -240 61.5t-145.5 172t-20.5 247.5zM297 465q-22 -121 43.5 -201t185.5 -80q121 0 215.5 80t114.5 201q22 120 -44.5 199t-186.5 79 q-119 0 -213.5 -79.5t-114.5 -198.5z" />
<glyph d="M213 0l739 1247h-710l32 187h926l-33 -187l-737 -1247h-217z" />
<glyph d="M72 403q20 112 93 203t183 146q-78 54 -112.5 137t-16.5 184q28 163 176.5 269t349.5 106q198 0 308.5 -107.5t81.5 -271.5q-18 -101 -81.5 -183t-160.5 -134q92 -55 133 -146.5t21 -202.5q-32 -183 -190 -300t-372 -117t-329.5 117t-83.5 300zM285 416 q-19 -101 48 -166.5t187 -65.5q122 0 212.5 65.5t107.5 166.5q19 99 -49 164t-189 65t-210.5 -64.5t-106.5 -164.5zM426 1053q-15 -88 45.5 -144.5t169.5 -56.5q105 0 185.5 57t95.5 144q13 85 -47 140.5t-164 55.5q-109 0 -190.5 -55.5t-94.5 -140.5z" />
<glyph d="M174 965q37 210 200 346.5t376 136.5q211 0 326.5 -136t78.5 -345q-25 -147 -158 -310l-551 -657h-249l426 500q-58 -8 -86 -8q-193 0 -296.5 135t-66.5 338zM385 971q-22 -121 44 -201t185 -80q121 0 215.5 80t114.5 201q22 120 -44 199t-185 79q-121 0 -215.5 -79.5 t-114.5 -198.5z" />
<glyph horiz-adv-x="665" d="M-20 358q29 160 130 264.5t226 104.5t187.5 -104.5t33.5 -264.5q-28 -160 -127.5 -264t-224.5 -104t-189 104.5t-36 263.5zM145 358q-17 -93 8.5 -153t79.5 -60t99.5 59.5t62.5 153.5q17 93 -8 154t-78 61q-54 0 -100.5 -60.5t-63.5 -154.5z" />
<glyph horiz-adv-x="497" d="M10 569l219 148h164l-127 -717h-164l93 524l-113 -78z" />
<glyph horiz-adv-x="536" d="M-98 0l26 154q26 42 92.5 94t129.5 92t116 88.5t60 85.5q4 27 -18.5 43t-61.5 16q-77 0 -158 -84l-94 115q123 123 278 123q111 0 167.5 -56.5t39.5 -152.5q-8 -48 -30.5 -88.5t-62.5 -77t-74.5 -62t-96 -67.5t-98.5 -69h295l-27 -154h-483z" />
<glyph horiz-adv-x="585" d="M-86 102l135 113q19 -31 54 -50.5t73 -19.5q45 0 78 22.5t39 57.5q6 32 -16.5 53t-61.5 21h-43l25 135h53q29 0 51 19.5t27 48.5q6 33 -14.5 52t-55.5 19q-38 0 -77 -22t-70 -57l-93 112q48 54 124 87.5t155 33.5q102 0 159 -56.5t40 -146.5q-15 -98 -105 -155 q80 -61 62 -164q-17 -93 -102 -154t-197 -61q-76 0 -141.5 31t-98.5 81z" />
<glyph horiz-adv-x="657" d="M-68 139l25 146l399 432h164l-76 -432h95l-27 -146h-92l-25 -139h-166l25 139h-322zM121 285h160l36 215z" />
<glyph horiz-adv-x="546" d="M-88 111l133 114q38 -80 117 -80q47 0 82 25t41 63q7 40 -18.5 66.5t-71.5 26.5h-172l69 391h373l-27 -158h-235l-17 -90h37q116 0 179 -67t44 -171q-19 -105 -108 -173t-209 -68q-150 0 -217 121z" />
<glyph horiz-adv-x="606" d="M-39 246q12 76 80 164l244 307h176l-178 -225q5 0 15.5 1t16.5 1q93 0 141 -70t29 -176q-19 -112 -106 -185t-201 -73q-113 0 -175 73t-42 183zM125 244q-7 -42 16.5 -70.5t65.5 -28.5q40 0 74 28.5t41 70.5t-16.5 71t-63.5 29q-42 0 -76 -29t-41 -71z" />
<glyph horiz-adv-x="507" d="M-29 0l332 573h-313l24 144h480l-27 -144l-330 -573h-166z" />
<glyph horiz-adv-x="585" d="M-47 207q22 111 127 170q-73 60 -55 160q14 83 90 136.5t182 53.5q103 0 159.5 -55t41.5 -140q-18 -100 -111 -155q84 -62 66 -170q-17 -94 -98 -155.5t-189 -61.5t-168 61.5t-45 155.5zM121 225q-6 -36 15 -58t57 -22q37 0 64.5 22t33.5 58q6 34 -13.5 55t-56.5 21 t-65.5 -21.5t-34.5 -54.5zM182 512q-4 -29 14.5 -46t51.5 -17q31 0 55.5 17.5t28.5 45.5q4 26 -14.5 43.5t-49.5 17.5q-32 0 -57 -17.5t-29 -43.5z" />
<glyph horiz-adv-x="600" d="M-10 471q20 111 107.5 183.5t201.5 72.5q111 0 173.5 -73t43.5 -181q-15 -77 -80 -166l-246 -307h-180l180 227q-10 -2 -28 -2q-94 0 -142.5 69.5t-29.5 176.5zM156 475q-7 -42 16.5 -71t65.5 -29q40 0 73.5 29t40.5 71q6 41 -17 69.5t-63 28.5q-41 0 -75 -28.5 t-41 -69.5z" />
<glyph horiz-adv-x="264" d="M-137 -125l137 315l139 -40l-170 -306z" />
<glyph horiz-adv-x="264" d="M-76 88q7 45 38.5 71.5t76.5 26.5t67 -26.5t13 -71.5q-7 -44 -39 -71t-76 -27q-45 0 -66.5 26.5t-13.5 71.5z" />
<glyph horiz-adv-x="348" d="M-34 239q1 47 9 95q15 83 50.5 163t75.5 136t77.5 99.5t62.5 65.5l25 21l76 -69l-16 -17q-16 -17 -43.5 -54t-56.5 -84t-55.5 -117t-39.5 -144q-14 -80 -11 -145.5t15 -116.5t27 -85.5t25 -52.5l10 -18l-103 -70q-2 2 -6 7t-15 20.5t-21.5 33t-24 45t-24 56.5t-20 67.5 t-14 77.5t-3.5 86z" />
<glyph horiz-adv-x="348" d="M-129 -84l16 17q16 17 44 54t56.5 84.5t56 118t40.5 144.5q14 79 11 144.5t-15 116t-27 85t-25 52.5l-10 18l101 69q2 -2 6 -6.5t15 -20.5t21.5 -33.5t24.5 -45t24.5 -56t20 -66.5t14 -77t3.5 -86t-10 -94q-15 -83 -50.5 -164t-75.5 -137t-77.5 -100t-62.5 -65l-25 -22z " />
<glyph horiz-adv-x="409" d="M-25 219l27 135h281l-25 -135h-283z" />
<glyph horiz-adv-x="614" d="M-2 240l22 135h158l29 157h135l-29 -157h158l-22 -135h-158l-29 -158h-135l29 158h-158z" />
<glyph horiz-adv-x="614" d="M-35 47l23 135h450l-22 -135h-451zM23 373l22 135h158l28 158h136l-29 -158h158l-23 -135h-158l-28 -158h-135l28 158h-157z" />
<glyph horiz-adv-x="614" d="M-23 127l25 135h451l-25 -135h-451zM18 352l23 135h451l-23 -135h-451z" />
<glyph horiz-adv-x="665" d="M106 1075q29 160 130 264.5t227 104.5q125 0 187.5 -104.5t33.5 -264.5q-28 -160 -127.5 -264t-224.5 -104t-189.5 104.5t-36.5 263.5zM270 1075q-15 -94 9.5 -153.5t78.5 -59.5t100.5 60t63.5 153t-8.5 154t-79.5 61t-100.5 -60.5t-63.5 -154.5z" />
<glyph horiz-adv-x="497" d="M135 1286l221 148h164l-127 -717h-164l93 524l-113 -78z" />
<glyph horiz-adv-x="536" d="M27 717l28 153q26 42 92 94t129 92.5t116 89t59 85.5q4 27 -17.5 43t-60.5 16q-77 0 -158 -84l-94 115q120 123 276 123q113 0 169.5 -56.5t39.5 -152.5q-9 -48 -31.5 -88.5t-62.5 -77.5t-74 -62.5t-96 -67.5t-98 -69h295l-27 -153h-485z" />
<glyph horiz-adv-x="585" d="M41 819l135 113q19 -31 53.5 -50.5t73.5 -19.5q45 0 78 22.5t39 57.5q6 32 -16.5 53t-61.5 21h-43l23 135h55q29 0 50.5 19t27.5 49q6 33 -14.5 52t-55.5 19q-78 0 -147 -80l-93 113q48 55 123 88t154 33q102 0 159 -56.5t42 -146.5q-18 -101 -105 -156q78 -62 60 -163 q-15 -92 -100 -153.5t-197 -61.5q-77 0 -142 31t-98 81z" />
<glyph horiz-adv-x="657" d="M57 856l27 145l399 433h164l-76 -433h95l-27 -145h-94l-25 -139h-164l25 139h-324zM248 1001h160l36 216z" />
<glyph horiz-adv-x="546" d="M39 827l133 115q38 -80 117 -80q47 0 81 24.5t42 63.5q6 40 -19 66t-71 26h-172l69 392h373l-27 -158h-235l-17 -90h35q117 0 180.5 -67t44.5 -171t-109 -172.5t-208 -68.5q-74 0 -130 31t-87 89z" />
<glyph horiz-adv-x="606" d="M88 963q11 69 80 163l244 308h176l-178 -226q5 0 15 1t15 1q94 0 142.5 -69.5t29.5 -175.5q-20 -113 -106.5 -185.5t-200.5 -72.5q-113 0 -175 73t-42 183zM252 961q-7 -43 16 -71t64 -28q42 0 76 28.5t41 70.5q6 43 -17 71.5t-63 28.5q-42 0 -76 -29t-41 -71z" />
<glyph horiz-adv-x="507" d="M98 717l332 573h-313l24 144h477l-24 -144l-330 -573h-166z" />
<glyph horiz-adv-x="585" d="M80 924q9 54 42.5 98t84.5 72q-72 57 -57 159q15 83 92 137t182 54q103 0 159.5 -55t41.5 -140q-18 -98 -111 -155q84 -62 66 -170q-17 -94 -98 -155.5t-189 -61.5q-110 0 -170 61.5t-43 155.5zM248 942q-6 -36 14 -58t57 -22t65 22t34 58q6 33 -14 54.5t-56 21.5 q-37 0 -65.5 -21.5t-34.5 -54.5zM307 1229q-3 -29 15.5 -46.5t50.5 -17.5t57 18t29 46q4 26 -14.5 43.5t-49.5 17.5q-33 0 -58.5 -17.5t-29.5 -43.5z" />
<glyph horiz-adv-x="600" d="M117 1188q19 110 107 183t202 73q111 0 173.5 -73t43.5 -181q-15 -77 -80 -166l-246 -307h-180l178 227q-8 -2 -26 -2q-94 0 -143 69.5t-29 176.5zM283 1192q-7 -43 15.5 -71.5t63.5 -28.5t75 29t40 71q7 41 -15.5 69.5t-62.5 28.5q-42 0 -76 -28.5t-40 -69.5z" />
<glyph horiz-adv-x="264" d="M-12 594l139 313l139 -41l-170 -305z" />
<glyph horiz-adv-x="264" d="M49 805q9 45 40.5 71.5t76.5 26.5t66 -26.5t12 -71.5q-7 -44 -38 -70t-75 -26q-45 0 -67 26t-15 70z" />
<glyph horiz-adv-x="348" d="M93 956q1 47 9 95q14 83 49.5 163t75.5 136t78 99.5t63 64.5l25 22l76 -70l-16 -17q-16 -17 -43.5 -53.5t-56.5 -83.5t-55.5 -117t-39.5 -144q-14 -80 -11 -145.5t15 -116.5t27 -85.5t25 -52.5l10 -18l-103 -70q-2 2 -6 7t-15 20.5t-21.5 33t-24 45t-24 56.5t-20 67.5 t-14 77.5t-3.5 86z" />
<glyph horiz-adv-x="348" d="M-2 633l16 17q16 17 44 54t56.5 84.5t56 118t40.5 144.5q13 79 10 144.5t-15 116t-27 84.5t-25 52l-9 18l101 70q2 -2 6 -6.5t15 -20.5t21.5 -33.5t24 -45t24 -56t20 -66.5t14 -77t3.5 -86t-9 -94q-15 -83 -50.5 -164t-75.5 -137t-77.5 -100t-62.5 -66l-25 -21z" />
<glyph horiz-adv-x="409" d="M102 936l25 135h281l-25 -135h-281z" />
<glyph horiz-adv-x="614" d="M125 956l22 136h158l29 157h135l-29 -157h158l-23 -136h-157l-29 -157h-135l29 157h-158z" />
<glyph horiz-adv-x="614" d="M90 764l25 135h450l-24 -135h-451zM147 1090l25 135h158l26 157h136l-27 -157h158l-25 -135h-158l-26 -158h-135l26 158h-158z" />
<glyph horiz-adv-x="614" d="M104 844l23 135h451l-23 -135h-451zM145 1069l23 135h450l-22 -135h-451z" />
<glyph horiz-adv-x="665" d="M-55 154q28 159 128.5 263.5t225.5 104.5t188 -104t35 -264t-127.5 -264.5t-224.5 -104.5q-126 0 -189.5 104.5t-35.5 264.5zM109 154q-17 -93 8.5 -153t79.5 -60t100 59.5t63 153.5q15 94 -9.5 154.5t-78.5 60.5t-100 -60.5t-63 -154.5z" />
<glyph horiz-adv-x="497" d="M-27 365l220 147h163l-125 -717h-163l92 524l-113 -77z" />
<glyph horiz-adv-x="536" d="M-135 -205l26 154q26 42 92.5 94t129.5 92t116 88.5t60 85.5q4 27 -17.5 43.5t-60.5 16.5q-77 0 -158 -84l-94 114q120 123 277 123q111 0 168 -56.5t38 -152.5q-7 -41 -26 -77t-42 -63t-60 -58t-68.5 -52t-80.5 -55t-83 -59h295l-27 -154h-485z" />
<glyph horiz-adv-x="585" d="M-121 -102l133 112q19 -31 54 -50t75 -19q44 0 77.5 22t39.5 57q4 32 -18 53t-60 21h-45l25 135h55q28 0 50 19.5t28 48.5q4 33 -16.5 52.5t-55.5 19.5q-78 0 -147 -80l-92 112q50 55 125 88t153 33q102 0 159 -56.5t42 -146.5q-18 -97 -105 -155q78 -62 60 -164 q-15 -92 -100.5 -153.5t-198.5 -61.5q-76 0 -141.5 31.5t-96.5 81.5z" />
<glyph horiz-adv-x="657" d="M-104 -66l26 146l400 432h163l-75 -432h92l-25 -146h-94l-25 -139h-163l24 139h-323zM84 80h160l39 215z" />
<glyph horiz-adv-x="546" d="M-125 -94l135 114q37 -79 115 -79q47 0 82 25t41 63q8 40 -17 66t-71 26h-172l67 391h375l-29 -158h-233l-16 -90h34q117 0 180 -66.5t44 -170.5t-108.5 -173t-207.5 -69q-152 0 -219 121z" />
<glyph horiz-adv-x="606" d="M-76 41q15 75 80 164l244 307h176l-178 -225q5 0 16.5 1t16.5 1q94 0 142.5 -70t29.5 -176q-20 -112 -107.5 -185t-200.5 -73q-114 0 -176 73t-43 183zM88 39q-7 -42 16.5 -70t65.5 -28q40 0 74 28t41 70t-16.5 71t-63.5 29q-42 0 -76 -29t-41 -71z" />
<glyph horiz-adv-x="507" d="M-66 -205l334 574h-315l24 143h480l-25 -143l-330 -574h-168z" />
<glyph horiz-adv-x="585" d="M-82 2q9 54 42.5 98t84.5 72q-75 59 -57 160q15 83 91.5 136.5t180.5 53.5q103 0 160 -54.5t43 -139.5q-18 -99 -111 -156q82 -60 64 -170q-15 -94 -96 -155.5t-191 -61.5q-109 0 -168.5 61.5t-42.5 155.5zM86 20q-6 -36 14.5 -57.5t57.5 -21.5t64.5 21.5t33.5 57.5 q6 33 -14.5 54.5t-57.5 21.5t-64.5 -21t-33.5 -55zM145 307q-4 -29 14.5 -46t51.5 -17q32 0 56 17t30 46q3 26 -15 44t-49 18q-32 0 -58 -18t-30 -44z" />
<glyph horiz-adv-x="600" d="M-47 266q20 111 107.5 183.5t201.5 72.5q113 0 175 -72.5t42 -181.5q-11 -72 -80 -166l-245 -307h-181l181 228q-15 -3 -29 -3q-94 0 -142.5 69.5t-29.5 176.5zM119 270q-7 -42 16.5 -71t65.5 -29q40 0 73.5 29t40.5 71q7 41 -16 70t-63 29q-41 0 -75.5 -29t-41.5 -70z " />
<glyph horiz-adv-x="264" d="M-174 -330l139 316l137 -41l-170 -305z" />
<glyph horiz-adv-x="264" d="M-113 -117q7 44 39 70.5t78 26.5q43 0 65 -26.5t13 -70.5q-8 -44 -38.5 -71t-74.5 -27q-45 0 -67.5 26.5t-14.5 71.5z" />
<glyph horiz-adv-x="348" d="M-70 34q1 47 9 95q15 83 50 163t75 136t78 99.5t62 64.5l25 22l76 -69q1 0 -15 -17t-44 -54t-56.5 -84t-55.5 -117t-40 -144q-14 -80 -11 -145.5t15 -116.5t27 -85.5t25 -52.5l10 -18l-103 -69q-2 2 -6 6.5t-15 20.5t-21 33.5t-23.5 45t-24.5 56.5t-20 67t-13.5 77 t-3.5 86z" />
<glyph horiz-adv-x="348" d="M-166 -289l16 17q16 17 44 54t56.5 84.5t56 118t40.5 144.5q14 79 11 144.5t-14.5 116t-26.5 85t-25 52.5l-10 18l100 69q2 -2 6 -6.5t15 -20.5t21.5 -33.5t24.5 -45t24.5 -56t20 -66.5t14 -77t3.5 -86t-10 -94q-14 -83 -49.5 -164t-75.5 -136.5t-78 -99.5t-63 -65 l-25 -22z" />
<glyph horiz-adv-x="409" d="M-59 14l24 136h281l-25 -136h-280z" />
<glyph horiz-adv-x="614" d="M-39 35l25 135h157l27 158h135l-26 -158h157l-24 -135h-158l-27 -158h-135l27 158h-158z" />
<glyph horiz-adv-x="614" d="M-72 -158l23 135h450l-22 -135h-451zM-14 168l22 135h158l29 158h135l-29 -158h158l-23 -135h-157l-29 -158h-135l28 158h-157z" />
<glyph horiz-adv-x="614" d="M-57 -78l22 135h451l-23 -135h-450zM-18 147l22 136h451l-23 -136h-450z" />
<glyph horiz-adv-x="665" d="M143 1280q28 159 129 264t226 105q124 0 187.5 -104.5t35.5 -264.5q-29 -160 -128.5 -264.5t-223.5 -104.5q-126 0 -190 104.5t-36 264.5zM307 1280q-17 -93 8.5 -153t79.5 -60t100.5 60t63.5 153q15 94 -9.5 154.5t-78.5 60.5t-100.5 -60.5t-63.5 -154.5z" />
<glyph horiz-adv-x="497" d="M172 1491l219 147h164l-125 -716h-166l92 524l-110 -78z" />
<glyph horiz-adv-x="536" d="M63 922l27 153q26 42 92.5 94t129 92.5t115.5 89t60 85.5q4 27 -17 43t-60 16q-77 0 -158 -84l-94 115q120 123 276 123q111 0 167.5 -56.5t39.5 -152.5q-8 -48 -30 -88.5t-62 -77.5t-74 -62.5t-96 -67.5t-98 -69h294l-28 -153h-484z" />
<glyph horiz-adv-x="585" d="M78 1024l133 113q19 -31 54 -50.5t73 -19.5q45 0 79 22.5t38 57.5q6 32 -16 53t-60 21h-45l24 135h54q29 0 50.5 19t26.5 48q6 33 -14 52.5t-55 19.5q-38 0 -77.5 -22.5t-70.5 -57.5l-92 113q50 55 125.5 88t153.5 33q102 0 158.5 -56.5t41.5 -146.5q-18 -99 -104 -156 q77 -61 59 -164q-15 -92 -100.5 -153.5t-198.5 -61.5q-76 0 -141 31.5t-96 81.5z" />
<glyph horiz-adv-x="657" d="M94 1061l27 145l397 432h166l-78 -432h94l-24 -145h-94l-25 -139h-164l25 139h-324zM283 1206h159l39 215z" />
<glyph horiz-adv-x="546" d="M76 1032l133 115q38 -80 115 -80q47 0 81.5 25t40.5 63q8 40 -17 66t-71 26h-172l68 391h375l-29 -157h-233l-17 -90h35q116 0 179 -67t44 -171q-19 -105 -108 -173.5t-207 -68.5q-153 0 -217 121z" />
<glyph horiz-adv-x="606" d="M123 1167q15 78 82 164l241 307h177l-179 -225q5 0 16.5 1t16.5 1q94 0 142.5 -70t29.5 -176q-20 -113 -106.5 -185.5t-200.5 -72.5q-113 0 -176 73t-43 183zM289 1165q-7 -42 15.5 -70t64.5 -28q41 0 75 28t41 70q6 43 -18 72t-64 29q-41 0 -73.5 -29t-40.5 -72z" />
<glyph horiz-adv-x="507" d="M133 922l334 573h-315l24 143h479l-24 -143l-332 -573h-166z" />
<glyph horiz-adv-x="585" d="M117 1128q9 54 42.5 98t84.5 72q-73 58 -58 160q14 83 90.5 137t182.5 54q103 0 159 -55t41 -140q-18 -101 -108 -156q81 -59 63 -170q-15 -94 -95 -155.5t-189 -61.5q-110 0 -170 61.5t-43 155.5zM285 1147q-6 -36 14 -58t57 -22t65 22t34 58q6 33 -14.5 54.5 t-57.5 21.5q-36 0 -64 -21.5t-34 -54.5zM344 1434q-4 -29 14.5 -46.5t51.5 -17.5q31 0 55.5 17.5t30.5 46.5q3 26 -16 43.5t-50 17.5q-32 0 -57 -17.5t-29 -43.5z" />
<glyph horiz-adv-x="600" d="M152 1393q20 111 107.5 183.5t201.5 72.5q111 0 174 -73t43 -181q-12 -78 -80 -166l-244 -307h-180l178 227q-10 -2 -28 -2q-94 0 -142.5 69.5t-29.5 176.5zM319 1397q-9 -42 14.5 -71.5t65.5 -29.5q40 0 74 29.5t41 71.5q6 41 -17 69.5t-63 28.5q-42 0 -76.5 -28.5 t-38.5 -69.5z" />
<glyph horiz-adv-x="264" d="M25 799l139 313l137 -41l-170 -305z" />
<glyph horiz-adv-x="264" d="M86 1010q7 45 39 71.5t78 26.5q43 0 65 -26.5t13 -71.5q-8 -44 -38.5 -70.5t-74.5 -26.5t-66.5 26.5t-15.5 70.5z" />
<glyph horiz-adv-x="348" d="M128 1160q1 47 9 95q15 83 50.5 163t75.5 136t77.5 100t62.5 66l25 21l76 -70q1 0 -15 -17t-44 -54t-56.5 -84t-55.5 -117t-40 -144q-14 -80 -11 -145.5t14.5 -116t26.5 -85t25 -52.5l10 -18l-102 -70q-2 2 -6 6.5t-15 20.5t-21 33.5t-23.5 45t-24 56.5t-20 67t-14.5 77 t-4 86z" />
<glyph horiz-adv-x="348" d="M33 838l16 17q16 17 44 53.5t56.5 84t56 118t40.5 144.5q14 79 11 144.5t-15 116t-27 85t-25 52.5l-10 18l101 70q2 -2 6 -7t15 -20.5t21.5 -33t24 -45t24 -56.5t20 -67t14 -77t3.5 -86t-10 -94q-14 -83 -49.5 -164t-75 -136.5t-77.5 -99.5t-63 -65l-25 -22z" />
<glyph horiz-adv-x="409" d="M139 1141l25 135h280l-24 -135h-281z" />
<glyph horiz-adv-x="614" d="M160 1161l24 135h158l27 158h135l-27 -158h158l-25 -135h-157l-27 -157h-135l26 157h-157z" />
<glyph horiz-adv-x="614" d="M127 969l23 135h450l-22 -135h-451zM184 1294l23 136h158l28 157h135l-28 -157h157l-22 -136h-158l-28 -157h-136l29 157h-158z" />
<glyph horiz-adv-x="614" d="M141 1049l23 135h450l-22 -135h-451zM180 1274l23 135h450l-22 -135h-451z" />
<glyph horiz-adv-x="1667" d="M76 711q38 212 165 379t319 260.5t415 93.5q159 0 288.5 -49.5t212 -136.5t117 -209.5t9.5 -264.5q-34 -189 -145.5 -312.5t-246.5 -123.5q-133 0 -186 119q-122 -119 -287 -119q-155 0 -237 104.5t-54 264.5t147.5 264t274.5 104q126 0 205 -73l10 59h164l-76 -420 q-11 -66 15.5 -109.5t77.5 -43.5q69 0 128 80t81 200q28 155 -29 279t-185 193t-303 69q-283 0 -494 -171t-257 -433q-23 -127 4 -238t93.5 -190t172 -124.5t234.5 -45.5q167 0 307 73l4 -120q-171 -80 -358 -80q-204 0 -350.5 93t-209 257.5t-26.5 370.5zM633 717 q-15 -85 26.5 -140t120.5 -55q80 0 142 55t77 140q14 85 -28 139.5t-121 54.5q-80 0 -142 -55t-75 -139z" />
<glyph horiz-adv-x="958" d="M160 717q26 146 128 232.5t247 86.5q146 0 218 -86.5t46 -232.5q-26 -147 -127.5 -233.5t-247.5 -86.5t-218 87t-46 233z" />
<glyph horiz-adv-x="514" d="M20 0l209 993h154l-141 -993h-222zM221 1309q10 63 55.5 101t110.5 38q63 0 94.5 -38t20.5 -101t-56.5 -102.5t-109.5 -39.5q-63 0 -94.5 39.5t-20.5 102.5z" />
<glyph horiz-adv-x="1036" d="M16 377q13 72 43 125t68.5 84.5t82.5 57.5t89 53.5t85.5 62.5t74.5 94t53 139h154q-4 -93 -28.5 -165.5t-61.5 -117t-81.5 -78.5t-90 -60t-84.5 -52t-67.5 -64t-37.5 -87q-15 -88 42.5 -137.5t176.5 -49.5t214.5 47t152.5 127l117 -143q-86 -109 -220 -168t-295 -59 q-214 0 -316.5 103t-70.5 288zM498 1309q10 63 55.5 101t110.5 38q63 0 94 -38t20 -101t-56.5 -102.5t-109.5 -39.5q-63 0 -94 39.5t-20 102.5z" />
<glyph horiz-adv-x="1120" d="M98 717l439 426l98 -82l-297 -344l176 -344l-125 -82zM526 717l439 426l96 -82l-295 -344l174 -344l-125 -82z" />
<glyph horiz-adv-x="1120" d="M57 373l297 344l-174 344l123 82l291 -426l-438 -426zM485 373l297 344l-176 344l125 82l291 -426l-438 -426z" />
<glyph horiz-adv-x="692" d="M98 717l439 426l98 -82l-297 -344l176 -344l-125 -82z" />
<glyph horiz-adv-x="692" d="M57 373l297 344l-174 344l123 82l291 -426l-438 -426z" />
<glyph horiz-adv-x="819" d="M145 629l31 176h500l-31 -176h-500z" />
<glyph d="M145 629l31 176h909l-30 -176h-910z" />
<glyph horiz-adv-x="2048" d="M145 629l31 176h1729l-31 -176h-1729z" />
<glyph horiz-adv-x="651" d="M238 -205v1843h176v-1843h-176z" />
<glyph horiz-adv-x="651" d="M238 -205v717h176v-717h-176zM238 922v716h176v-716h-176z" />
<glyph horiz-adv-x="823" d="M-154 -145l977 1790l154 -60l-973 -1790z" />
<glyph horiz-adv-x="823" d="M154 1585l176 60l342 -1790l-174 -60z" />
<glyph horiz-adv-x="704" d="M100 522.5q2 95.5 19 194.5q23 126 68 246t99 211t114 172t115.5 137t100.5 96.5t72 60.5l27 19l100 -94l-5 -5q-184 -152 -312 -385q-117 -213 -160 -458q-20 -117 -21 -227t13.5 -192t37 -154.5t48 -121.5t48.5 -84.5t36 -51.5l14 -17l-131 -94q-5 4 -13 12t-32.5 36 t-47.5 59.5t-52.5 82.5t-53.5 105.5t-45 128.5t-31 151t-8 172.5z" />
<glyph horiz-adv-x="704" d="M-111 -131q-1 0 11 10t35 31t53 51t65 73t71.5 93t73 115.5t68 136t58.5 158.5t43 180q20 117 21 227t-13.5 192t-37.5 154.5t-49 121.5t-49 84.5t-37 51.5l-14 17l134 94q5 -4 13 -12t32.5 -36t47.5 -59.5t52.5 -82.5t53.5 -105.5t45 -128.5t31 -151t8 -172.5 t-19 -194.5q-23 -126 -68 -246t-99 -211t-114 -172t-115.5 -137t-100.5 -96.5t-72 -60.5l-27 -19z" />
<glyph horiz-adv-x="745" d="M-2 -205l324 1843h528l-31 -174h-332l-262 -1495h332l-31 -174h-528z" />
<glyph horiz-adv-x="745" d="M-104 -205l30 174h332l262 1495h-332l31 174h529l-324 -1843h-528z" />
<glyph horiz-adv-x="907" d="M102 629l31 176q102 0 177.5 52.5t88.5 133.5l60 338q23 133 131.5 221t249.5 88h172l-31 -176h-168q-57 0 -101.5 -37t-54.5 -94l-59 -340q-15 -89 -82 -161.5t-168 -112.5q87 -40 128 -112.5t26 -162.5l-60 -340q-10 -57 21 -94t88 -37h168l-31 -176h-172 q-141 0 -218 87.5t-54 221.5l59 338q13 82 -43.5 134.5t-157.5 52.5z" />
<glyph horiz-adv-x="907" d="M-104 -205l30 176h170q57 0 101 37t53 94l61 340q15 89 82 162t168 113q-88 40 -129 112t-24 162l59 340q9 57 -21.5 94t-87.5 37h-170l31 176h172q142 0 220 -87.5t55 -221.5l-60 -338q-14 -82 42 -134t159 -52l-31 -176q-103 0 -178 -52.5t-88 -134.5l-61 -338 q-23 -134 -131 -221.5t-250 -87.5h-172z" />
</font>
</defs>
</svg>
