<svg width="11" height="11" viewBox="0 0 11 11" fill="none" xmlns="http://www.w3.org/2000/svg">
<path d="M4.82031 10.2071C4.82031 10.4087 4.89557 10.6021 5.02952 10.7447C5.16348 10.8873 5.34516 10.9674 5.5346 10.9674H6.24888C6.43832 10.9674 6.62001 10.8873 6.75396 10.7447C6.88791 10.6021 6.96317 10.4087 6.96317 10.2071V6.7854H4.82031V10.2071ZM6.24888 0.322266H5.5346C5.34516 0.322266 5.16348 0.402376 5.02952 0.544972C4.89557 0.687569 4.82031 0.880972 4.82031 1.08263V4.50429H6.96317V1.08263C6.96317 0.880972 6.88791 0.687569 6.75396 0.544972C6.62001 0.402376 6.43832 0.322266 6.24888 0.322266Z" fill="#627B97"/>
<path d="M10.8906 5.26427V6.02464C10.8906 6.22631 10.8154 6.41971 10.6814 6.56231C10.5475 6.7049 10.3658 6.78501 10.1763 6.78501H1.60491C1.41547 6.78501 1.23379 6.7049 1.09983 6.56231C0.96588 6.41971 0.890625 6.22631 0.890625 6.02464V5.26427C0.890625 5.06261 0.96588 4.86921 1.09983 4.72661C1.23379 4.58402 1.41547 4.50391 1.60491 4.50391H10.1763C10.3658 4.50391 10.5475 4.58402 10.6814 4.72661C10.8154 4.86921 10.8906 5.06261 10.8906 5.26427Z" fill="#627B97"/>
</svg>
