<svg width="24" height="23" viewBox="0 0 24 23" fill="none" xmlns="http://www.w3.org/2000/svg">
<path d="M2 10.5V19.5C2 20.2956 2.31607 21.0587 2.87868 21.6213C3.44129 22.1839 4.20435 22.5 5 22.5H19C19.7956 22.5 20.5587 22.1839 21.1213 21.6213C21.6839 21.0587 22 20.2956 22 19.5V10.5H2Z" fill="#192E46"/>
<path d="M23 6.5H19.58L15.868 0L14.132 1L17.277 6.5H6.723L9.868 1L8.132 0L4.42 6.5H1C0.734784 6.5 0.48043 6.60536 0.292893 6.79289C0.105357 6.98043 0 7.23478 0 7.5C0 7.76522 0.105357 8.01957 0.292893 8.20711C0.48043 8.39464 0.734784 8.5 1 8.5H23C23.2652 8.5 23.5196 8.39464 23.7071 8.20711C23.8946 8.01957 24 7.76522 24 7.5C24 7.23478 23.8946 6.98043 23.7071 6.79289C23.5196 6.60536 23.2652 6.5 23 6.5Z" fill="#192E46"/>
</svg>
