<svg width="144" height="39" viewBox="0 0 144 39" fill="none" xmlns="http://www.w3.org/2000/svg">
<path d="M79.5199 5.09742L77.9219 3.76921L76.3239 5.09742L69.3239 10.9156L68.4219 11.6653V12.8382V23.02V25.52H70.9219H77.9219H84.9219H87.4219V23.02V12.8382V11.6653L86.5199 10.9156L79.5199 5.09742Z" stroke="#192E46" stroke-width="5" stroke-miterlimit="10" stroke-linecap="square"/>
<path d="M77.9219 19.02V23.02" stroke="#192E46" stroke-width="5" stroke-miterlimit="10" stroke-linecap="square"/>
<path d="M10.116 7.68C12.708 7.68 14.88 8.4 16.632 9.84C18.384 11.256 19.488 13.212 19.944 15.708H13.428C13.236 14.844 12.84 14.172 12.24 13.692C11.64 13.212 10.884 12.972 9.972 12.972C8.892 12.972 8.004 13.404 7.308 14.268C6.612 15.108 6.264 16.344 6.264 17.976C6.264 19.608 6.612 20.856 7.308 21.72C8.004 22.56 8.892 22.98 9.972 22.98C10.884 22.98 11.64 22.74 12.24 22.26C12.84 21.78 13.236 21.108 13.428 20.244H19.944C19.488 22.74 18.384 24.708 16.632 26.148C14.88 27.564 12.708 28.272 10.116 28.272C8.148 28.272 6.396 27.864 4.86 27.048C3.348 26.208 2.16 25.008 1.296 23.448C0.432 21.888 0 20.064 0 17.976C0 15.864 0.42 14.04 1.26 12.504C2.124 10.944 3.324 9.756 4.86 8.94C6.396 8.1 8.148 7.68 10.116 7.68Z" fill="#192E46"/>
<path d="M30.0333 7.68C32.0253 7.68 33.8013 8.1 35.3613 8.94C36.9453 9.756 38.1813 10.944 39.0693 12.504C39.9813 14.064 40.4373 15.888 40.4373 17.976C40.4373 20.064 39.9813 21.888 39.0693 23.448C38.1813 25.008 36.9453 26.208 35.3613 27.048C33.8013 27.864 32.0253 28.272 30.0333 28.272C28.0413 28.272 26.2533 27.864 24.6693 27.048C23.0853 26.208 21.8373 25.008 20.9253 23.448C20.0373 21.888 19.5933 20.064 19.5933 17.976C19.5933 15.888 20.0373 14.064 20.9253 12.504C21.8373 10.944 23.0853 9.756 24.6693 8.94C26.2533 8.1 28.0413 7.68 30.0333 7.68ZM30.0333 13.008C28.8573 13.008 27.8613 13.44 27.0453 14.304C26.2533 15.144 25.8573 16.368 25.8573 17.976C25.8573 19.584 26.2533 20.808 27.0453 21.648C27.8613 22.488 28.8573 22.908 30.0333 22.908C31.2093 22.908 32.1933 22.488 32.9853 21.648C33.7773 20.808 34.1733 19.584 34.1733 17.976C34.1733 16.368 33.7773 15.144 32.9853 14.304C32.1933 13.44 31.2093 13.008 30.0333 13.008Z" fill="#192E46"/>
<path d="M52.4855 22.728V28.02H49.7135C47.3615 28.02 45.5255 27.444 44.2055 26.292C42.9095 25.116 42.2615 23.184 42.2615 20.496V13.116H39.5615V7.932H42.2615V3H48.4175V7.932H52.4495V13.116H48.4175V20.604C48.4175 21.396 48.5735 21.948 48.8855 22.26C49.2215 22.572 49.7735 22.728 50.5415 22.728H52.4855Z" fill="#192E46"/>
<path d="M64.8014 22.728V28.02H62.0294C59.6774 28.02 57.8414 27.444 56.5214 26.292C55.2254 25.116 54.5774 23.184 54.5774 20.496V13.116H51.8774V7.932H54.5774V3H60.7334V7.932H64.7654V13.116H60.7334V20.604C60.7334 21.396 60.8894 21.948 61.2014 22.26C61.5374 22.572 62.0894 22.728 62.8574 22.728H64.8014Z" fill="#192E46"/>
<path d="M136.455 4.36401V5.45201H134.919V10.02H133.543V5.45201H132.023V4.36401H136.455Z" fill="#192E46"/>
<path d="M143.712 4.40401V10.02H142.344V6.50801L141.128 10.02H139.944L138.72 6.50001V10.02H137.352V4.40401H139.024L140.552 8.31601L142.048 4.40401H143.712Z" fill="#192E46"/>
<path d="M99.5979 8.02002C101.134 8.02002 102.454 8.36802 103.558 9.06402C104.662 9.76002 105.478 10.708 106.006 11.908V8.27202H112.126V28.252C112.126 30.124 111.766 31.804 111.046 33.292C110.326 34.804 109.222 36.004 107.734 36.892C106.246 37.78 104.398 38.224 102.19 38.224C99.1659 38.224 96.7419 37.504 94.9179 36.064C93.1179 34.648 92.0379 32.716 91.6779 30.268H97.7619C97.9539 31.084 98.3859 31.72 99.0579 32.176C99.7539 32.632 100.654 32.86 101.758 32.86C103.03 32.86 104.05 32.488 104.818 31.744C105.61 31.024 106.006 29.86 106.006 28.252V24.724C105.478 25.924 104.662 26.872 103.558 27.568C102.454 28.264 101.134 28.612 99.5979 28.612C97.9419 28.612 96.4539 28.204 95.1339 27.388C93.8379 26.548 92.8059 25.348 92.0379 23.788C91.2939 22.228 90.9219 20.404 90.9219 18.316C90.9219 16.204 91.2939 14.38 92.0379 12.844C92.8059 11.284 93.8379 10.096 95.1339 9.28002C96.4539 8.44002 97.9419 8.02002 99.5979 8.02002ZM101.578 13.42C100.258 13.42 99.1899 13.852 98.3739 14.716C97.5819 15.58 97.1859 16.78 97.1859 18.316C97.1859 19.852 97.5819 21.052 98.3739 21.916C99.1899 22.78 100.258 23.212 101.578 23.212C102.874 23.212 103.93 22.768 104.746 21.88C105.586 20.992 106.006 19.804 106.006 18.316C106.006 16.804 105.586 15.616 104.746 14.752C103.93 13.864 102.874 13.42 101.578 13.42Z" fill="#192E46"/>
<path d="M132.924 17.776C132.924 18.28 132.864 18.832 132.744 19.432H118.812C118.884 20.944 119.268 22.036 119.964 22.708C120.66 23.356 121.548 23.68 122.628 23.68C123.54 23.68 124.296 23.452 124.896 22.996C125.496 22.54 125.892 21.952 126.084 21.232H132.6C132.336 22.648 131.76 23.92 130.872 25.048C129.984 26.152 128.856 27.028 127.488 27.676C126.12 28.3 124.596 28.612 122.916 28.612C120.948 28.612 119.196 28.204 117.66 27.388C116.148 26.548 114.96 25.348 114.096 23.788C113.232 22.228 112.8 20.404 112.8 18.316C112.8 16.204 113.22 14.38 114.06 12.844C114.924 11.284 116.124 10.096 117.66 9.28002C119.196 8.44002 120.948 8.02002 122.916 8.02002C124.908 8.02002 126.66 8.42802 128.172 9.24402C129.684 10.06 130.848 11.212 131.664 12.7C132.504 14.164 132.924 15.856 132.924 17.776ZM126.696 16.84C126.72 15.52 126.36 14.536 125.616 13.888C124.896 13.216 123.996 12.88 122.916 12.88C121.788 12.88 120.852 13.216 120.108 13.888C119.364 14.56 118.944 15.544 118.848 16.84H126.696Z" fill="#192E46"/>
</svg>
