<svg width="287" height="36" viewBox="0 0 287 36" fill="none" xmlns="http://www.w3.org/2000/svg">
<path fill-rule="evenodd" clip-rule="evenodd" d="M17.4544 3.87365L13.555 0L0 13.2669V36H34.8969L34.8968 13.3079L21.3418 0L17.4544 3.87365ZM18.8162 34.3125C23.3171 32.1878 27.4978 30.7935 33.1895 30.6659V29.2593C24.6021 29.4468 17.4811 32.4143 13.9367 34.3125H18.8162ZM8.86185 34.3125C7.81318 33.8471 6.7081 33.4625 5.6275 33.1588C4.17103 32.7496 2.79453 32.4973 1.70377 32.3876V34.3125H8.86185ZM1.70377 30.7129C2.94856 30.8256 4.48984 31.1065 6.08551 31.5549C7.88654 32.061 9.80595 32.7939 11.4831 33.777C11.8793 33.5268 12.3831 33.2299 12.9853 32.9038C11.7082 32.2315 10.1037 31.4967 8.37749 30.8624C6.15872 30.0472 3.79711 29.4199 1.70377 29.2795V30.7129ZM14.8121 31.9793C15.4037 31.6989 16.0486 31.4102 16.7425 31.1211V28.6059C16.7425 27.8749 16.4352 27.4231 15.7005 27.114C15.5805 27.0799 15.4795 27.0416 15.37 26.9968C15.343 26.9862 15.3171 26.9734 15.2915 26.9608L15.2606 26.9457L15.1974 26.918C14.4637 26.5943 13.8639 26.0225 13.5008 25.3004C13.298 24.8748 13.2053 24.404 13.2313 23.9322L13.2881 22.9476L13.4102 21.0018C13.4986 19.7032 13.5913 18.406 13.6881 17.1103C13.7849 15.8145 13.8944 14.5173 14.0165 13.2187L15.1385 13.272C15.1357 14.5749 15.1251 15.8785 15.1069 17.1827C15.0886 18.487 15.0613 19.7899 15.0248 21.0913L14.968 23.0456L14.9511 23.5486V23.5678C14.9869 24.4735 16.7004 24.3137 16.7699 23.5678V23.5827C16.7846 23.3696 16.7846 23.1565 16.7846 22.9434L17.0183 13.2422H18.1423L18.376 22.9433C18.3907 23.1564 18.3907 23.3696 18.3907 23.5827V23.5678C18.4602 24.3137 20.1737 24.4735 20.2095 23.5678C20.2103 23.5196 20.2167 23.4717 20.2284 23.425L20.2158 23.0435L20.1674 21.0892C20.1407 19.7863 20.119 18.4835 20.1021 17.1806C20.0853 15.8778 20.0811 14.5742 20.0895 13.2699L21.2115 13.223C21.3251 14.5216 21.429 15.8202 21.523 17.1188C21.617 18.4174 21.7033 19.7153 21.7819 21.0125L21.8935 22.9582L21.9461 23.9386C21.975 24.4129 21.8814 24.8866 21.6746 25.3132C21.4813 25.716 21.2067 26.0732 20.8683 26.3617C20.5535 26.6305 20.1982 26.8463 19.8158 27.0011C19.6979 27.0501 19.578 27.0906 19.4601 27.1268C18.7402 27.4358 18.4265 27.8962 18.4265 28.6187V30.4577C20.5814 29.6563 23.0981 28.899 25.8826 28.36V14.6349L17.4592 6.2671L9.01428 14.6822V29.25H8.88737L8.97007 29.2803C11.2505 30.1182 13.3399 31.1284 14.8121 31.9793ZM7.31706 28.7163V13.9752L16.254 5.06986L13.5462 2.37992L1.69722 13.977V27.5882C3.51344 27.696 5.45889 28.1326 7.31706 28.7163ZM23.2253 34.3125H33.1895V32.4024C29.3629 32.4922 26.2631 33.1816 23.2253 34.3125ZM33.1996 27.5712C31.246 27.6116 29.3653 27.7899 27.5798 28.065V13.9321L18.6596 5.0709L21.3507 2.38936L33.1996 14.0223V27.5712Z" fill="white"/>
<path d="M61.5175 26.55C59.8695 28.359 57.492 29.439 54.7363 29.439C49.3599 29.439 45.4695 25.389 45.4695 19.8C45.4695 14.211 49.3599 10.161 54.7363 10.161C57.492 10.161 59.8695 11.241 61.5175 13.05L59.4372 14.778C58.2755 13.536 56.6275 12.78 54.7363 12.78C50.9809 12.78 48.2522 15.723 48.2522 19.8C48.2522 23.877 50.9809 26.82 54.7363 26.82C56.6275 26.82 58.2755 26.064 59.4372 24.795L61.5175 26.55Z" fill="white"/>
<path fill-rule="evenodd" clip-rule="evenodd" d="M76.2629 22.5C76.2629 26.523 73.4531 29.439 69.5897 29.439C65.7263 29.439 62.9165 26.523 62.9165 22.5C62.9165 18.477 65.7263 15.561 69.5897 15.561C73.4531 15.561 76.2629 18.477 76.2629 22.5ZM69.5897 18.018C67.2392 18.018 65.5372 19.908 65.5372 22.473C65.5372 25.065 67.2392 26.982 69.5897 26.982C71.9402 26.982 73.6422 25.065 73.6422 22.473C73.6422 19.908 71.9402 18.018 69.5897 18.018Z" fill="white"/>
<path d="M82.7967 12.537V15.75H86.7412V18.072H82.7967V25.551C82.7967 26.55 83.5262 27.144 84.769 27.144C85.3634 27.144 86.2009 27.009 86.7412 26.82V29.115C86.2009 29.331 85.2823 29.466 84.4448 29.466C81.8241 29.466 80.1761 27.981 80.1761 25.605V18.072H77.7986V15.75H80.1761V12.537H82.7967Z" fill="white"/>
<path d="M93.2848 12.537V15.75H97.2293V18.072H93.2848V25.551C93.2848 26.55 94.0143 27.144 95.257 27.144C95.8514 27.144 96.6889 27.009 97.2293 26.82V29.115C96.6889 29.331 95.7704 29.466 94.9328 29.466C92.3122 29.466 90.6642 27.981 90.6642 25.605V18.072H88.2867V15.75H90.6642V12.537H93.2848Z" fill="white"/>
<path fill-rule="evenodd" clip-rule="evenodd" d="M104.899 29.439C101.198 29.439 98.5229 26.523 98.5229 22.5C98.5229 18.477 101.198 15.561 104.899 15.561C106.628 15.561 108.141 16.209 109.249 17.316V15.75H111.869V29.25H109.249V27.684C108.141 28.791 106.628 29.439 104.899 29.439ZM109.249 22.473C109.249 19.908 107.547 18.018 105.196 18.018C102.846 18.018 101.144 19.908 101.144 22.473C101.144 25.065 102.846 26.982 105.196 26.982C107.547 26.982 109.249 25.065 109.249 22.473Z" fill="white"/>
<path fill-rule="evenodd" clip-rule="evenodd" d="M121.086 29.439C117.385 29.439 114.71 26.523 114.71 22.5C114.71 18.477 117.385 15.561 121.086 15.561C122.815 15.561 124.328 16.209 125.436 17.316V15.75H128.056V28.71C128.056 32.76 125.003 35.649 120.708 35.649C118.6 35.649 116.763 34.893 115.655 33.597L117.466 31.788C118.141 32.652 119.357 33.192 120.654 33.192C123.436 33.192 125.436 31.302 125.436 28.683V27.684C124.328 28.791 122.815 29.439 121.086 29.439ZM121.383 18.018C119.033 18.018 117.33 19.935 117.33 22.527C117.33 25.092 119.033 26.982 121.383 26.982C123.734 26.982 125.436 25.092 125.436 22.527C125.436 19.935 123.734 18.018 121.383 18.018Z" fill="white"/>
<path fill-rule="evenodd" clip-rule="evenodd" d="M138.056 29.439C133.896 29.439 130.897 26.523 130.897 22.419C130.897 18.477 133.653 15.561 137.435 15.561C141.217 15.561 144 18.477 144 22.716C144 22.7699 143.973 23.066 143.946 23.3625L143.946 23.364H133.571C133.842 25.47 135.76 27.009 138.083 27.009C139.488 27.009 140.758 26.469 141.487 25.524L143.406 27.171C142.244 28.629 140.299 29.439 138.056 29.439ZM141.244 21.15C140.839 19.233 139.407 17.991 137.435 17.991C135.49 17.991 134.058 19.233 133.626 21.15H141.244Z" fill="white"/>
</svg>
