<svg width="26" height="26" viewBox="0 0 26 26" fill="none" xmlns="http://www.w3.org/2000/svg">
<path d="M12.9997 0C6.04143 0 0.399414 5.64202 0.399414 12.6003C0.399414 19.5586 6.04143 25.2006 12.9997 25.2006C19.958 25.2006 25.6 19.562 25.6 12.6003C25.6 5.63864 19.958 0 12.9997 0ZM12.9997 19.8005C12.6437 19.8005 12.2957 19.6949 11.9997 19.4971C11.7037 19.2993 11.4729 19.0182 11.3367 18.6893C11.2005 18.3604 11.1648 17.9985 11.2343 17.6493C11.3037 17.3001 11.4752 16.9794 11.7269 16.7276C11.9786 16.4759 12.2994 16.3044 12.6486 16.235C12.9977 16.1655 13.3597 16.2012 13.6886 16.3374C14.0175 16.4737 14.2986 16.7044 14.4964 17.0004C14.6942 17.2964 14.7998 17.6444 14.7998 18.0005C14.7998 18.4779 14.6101 18.9357 14.2726 19.2733C13.935 19.6108 13.4771 19.8005 12.9997 19.8005ZM15.1508 6.3896L14.4308 13.5898C14.4086 13.8119 14.3047 14.0178 14.1392 14.1676C13.9737 14.3174 13.7585 14.4003 13.5352 14.4004H12.4665C12.2433 14.4003 12.028 14.3174 11.8625 14.1676C11.697 14.0178 11.5931 13.8119 11.5709 13.5898L10.8509 6.3896C10.8384 6.26468 10.8522 6.13853 10.8914 6.01926C10.9306 5.89998 10.9943 5.79023 11.0784 5.69704C11.1626 5.60386 11.2653 5.5293 11.3799 5.47817C11.4946 5.42704 11.6187 5.40046 11.7442 5.40014H14.2553C14.381 5.40014 14.5053 5.42649 14.6203 5.47749C14.7352 5.52848 14.8381 5.60299 14.9225 5.69621C15.0069 5.78943 15.0708 5.8993 15.1101 6.01872C15.1494 6.13815 15.1633 6.26449 15.1508 6.3896Z" fill="#FB5A5A"/>
</svg>
