<svg width="21" height="21" viewBox="0 0 21 21" fill="none" xmlns="http://www.w3.org/2000/svg">
<path d="M19.5 0H1.125C0.6875 0 0.3125 0.375565 0.3125 0.813723V19.1538C0.3125 19.6545 0.6875 20.0301 1.125 20.0301H10.9375V12.5188H8.43751V9.38911H10.9375V6.88535C10.9375 4.31899 12.5625 3.00452 14.875 3.00452C16 3.00452 16.9375 3.1297 17.1875 3.1297V5.82125H15.5625C14.3125 5.82125 14 6.44719 14 7.32351V9.38911H17.125L16.5 12.5188H14L14.0625 20.0301H19.4375C19.875 20.0301 20.25 19.6545 20.25 19.2164V0.813723C20.3125 0.375565 19.9375 0 19.5 0Z" fill="#B2C2D6"/>
</svg>
