<svg width="14" height="17" viewBox="0 0 14 17" fill="none" xmlns="http://www.w3.org/2000/svg">
<path d="M7 9.10547C8.10457 9.10547 9 8.21004 9 7.10547C9 6.0009 8.10457 5.10547 7 5.10547C5.89543 5.10547 5 6.0009 5 7.10547C5 8.21004 5.89543 9.10547 7 9.10547Z" fill="#BCC6D3"/>
<path d="M6.3 15.8055C6.2 15.7055 2.1 12.1055 2.1 12.0055C0.7 10.8055 0 9.00547 0 7.10547C0 3.20547 3.1 0.105469 7 0.105469C10.9 0.105469 14 3.20547 14 7.10547C14 9.00547 13.3 10.8055 11.9 12.1055C11.8 12.2055 7.8 15.8055 7.7 15.9055C7.3 16.2055 6.7 16.2055 6.3 15.8055ZM3.6 10.8055L7 13.8055L10.4 10.8055C11.4 9.80547 12 8.60547 12 7.20547C12 4.40547 9.8 2.20547 7 2.20547C4.2 2.20547 2 4.30547 2 7.10547C2 8.50547 2.6 9.80547 3.6 10.8055C3.6 10.7055 3.6 10.7055 3.6 10.8055Z" fill="#BCC6D3"/>
</svg>
