<svg width="315" height="318" viewBox="0 0 315 318" fill="none" xmlns="http://www.w3.org/2000/svg">
<g filter="url(#filter0_dd)">
<path fill-rule="evenodd" clip-rule="evenodd" d="M168.278 108L206.564 145.611V186.212H206.563V209.743H162.499L162.499 209.743L162.499 209.743H152.512H138.81H108V185.897L108 145.495L146.285 108L157.299 118.948L168.278 108ZM161.145 204.973H152.512H147.363C157.374 199.609 177.487 191.222 201.741 190.692V194.668C185.665 195.028 173.857 198.969 161.145 204.973ZM123.895 201.713C126.947 202.571 130.068 203.658 133.029 204.973H112.812V199.533C115.893 199.843 119.781 200.556 123.895 201.713ZM125.188 197.18C120.681 195.913 116.328 195.119 112.812 194.8V190.749C118.725 191.146 125.395 192.919 131.662 195.223C136.537 197.015 141.069 199.092 144.676 200.992C142.975 201.914 141.552 202.753 140.433 203.46C135.696 200.682 130.275 198.61 125.188 197.18ZM155.288 195.954C153.328 196.771 151.507 197.587 149.836 198.379C145.677 195.975 139.776 193.12 133.335 190.751L133.102 190.666H133.46V149.495L157.312 125.712L181.103 149.361V188.151C173.239 189.674 166.131 191.814 160.044 194.079V188.882C160.044 186.84 160.93 185.539 162.964 184.666C163.297 184.563 163.635 184.449 163.968 184.31C165.048 183.873 166.052 183.263 166.941 182.503C167.897 181.688 168.672 180.678 169.218 179.54C169.802 178.334 170.067 176.995 169.985 175.655L169.837 172.884L169.521 167.385C169.299 163.719 169.056 160.051 168.79 156.381C168.525 152.711 168.231 149.041 167.91 145.371L164.741 145.503C164.717 149.189 164.729 152.874 164.777 156.556C164.824 160.238 164.886 163.92 164.961 167.602L165.098 173.125L165.134 174.203C165.101 174.335 165.083 174.471 165.08 174.607C164.979 177.167 160.139 176.715 159.943 174.607V174.649C159.943 174.047 159.943 173.444 159.902 172.842L159.688 163.705L159.242 145.425H156.067L155.621 163.705L155.407 172.842V172.842C155.407 173.445 155.407 174.047 155.365 174.649V174.607C155.169 176.715 150.329 177.167 150.228 174.607V174.553L150.276 173.131L150.436 167.608C150.54 163.93 150.617 160.248 150.668 156.562C150.72 152.876 150.75 149.191 150.758 145.509L147.589 145.359C147.244 149.029 146.935 152.695 146.661 156.357C146.388 160.019 146.126 163.685 145.876 167.355L145.531 172.854L145.371 175.637C145.297 176.97 145.559 178.301 146.132 179.504C147.158 181.545 148.852 183.161 150.924 184.075L151.102 184.154C151.131 184.167 151.16 184.182 151.19 184.196C151.262 184.232 151.335 184.268 151.412 184.298C151.721 184.425 152.006 184.533 152.345 184.629C154.42 185.503 155.288 186.78 155.288 188.846V195.954ZM128.667 147.497V189.158C123.418 187.508 117.924 186.274 112.794 185.969V147.502L146.26 114.726L153.908 122.328L128.667 147.497ZM201.741 204.973H173.598C182.178 201.777 190.933 199.829 201.741 199.575V204.973ZM185.897 187.317C190.94 186.539 196.252 186.035 201.77 185.921V147.63L168.303 114.753L160.703 122.331L185.897 147.375V187.317Z" fill="#235A47"/>
</g>
<defs>
<filter id="filter0_dd" x="0" y="0" width="314.564" height="317.743" filterUnits="userSpaceOnUse" color-interpolation-filters="sRGB">
<feFlood flood-opacity="0" result="BackgroundImageFix"/>
<feColorMatrix in="SourceAlpha" type="matrix" values="0 0 0 0 0 0 0 0 0 0 0 0 0 0 0 0 0 0 127 0"/>
<feOffset/>
<feGaussianBlur stdDeviation="54"/>
<feColorMatrix type="matrix" values="0 0 0 0 1 0 0 0 0 1 0 0 0 0 1 0 0 0 1 0"/>
<feBlend mode="color-dodge" in2="BackgroundImageFix" result="effect1_dropShadow"/>
<feColorMatrix in="SourceAlpha" type="matrix" values="0 0 0 0 0 0 0 0 0 0 0 0 0 0 0 0 0 0 127 0"/>
<feOffset/>
<feGaussianBlur stdDeviation="54"/>
<feColorMatrix type="matrix" values="0 0 0 0 1 0 0 0 0 1 0 0 0 0 1 0 0 0 1 0"/>
<feBlend mode="color-dodge" in2="effect1_dropShadow" result="effect2_dropShadow"/>
<feBlend mode="normal" in="SourceGraphic" in2="effect2_dropShadow" result="shape"/>
</filter>
</defs>
</svg>
