<svg width="9" height="8" viewBox="0 0 9 8" fill="none" xmlns="http://www.w3.org/2000/svg">
<path d="M4.5 8C3.70888 8 2.93552 7.7654 2.27772 7.32588C1.61992 6.88635 1.10723 6.26164 0.804484 5.53074C0.501733 4.79983 0.42252 3.99556 0.576861 3.21964C0.731201 2.44372 1.11216 1.73098 1.67157 1.17157C2.23098 0.612165 2.94372 0.231201 3.71964 0.0768607C4.49556 -0.0774802 5.29983 0.00173314 6.03074 0.304484C6.76164 0.607234 7.38635 1.11992 7.82588 1.77772C8.2654 2.43552 8.5 3.20888 8.5 4C8.49881 5.0605 8.077 6.07722 7.32711 6.82711C6.57722 7.577 5.5605 7.99881 4.5 8Z" fill="#4C6889"/>
</svg>
