<svg width="27" height="27" viewBox="0 0 27 27" fill="none" xmlns="http://www.w3.org/2000/svg">
<path opacity="0.4" d="M15.4126 8.42895L15.3911 8.42004L15.4126 8.42895ZM11.9208 8.32412C12.9598 7.97749 14.0832 7.97749 15.1222 8.32412L20.9925 2.45381C18.8048 0.917864 16.1967 0.09375 13.5236 0.09375C10.8505 0.09375 8.24241 0.917864 6.05466 2.45381L11.9208 8.32412ZM15.52 8.47717L15.5473 8.4887L15.52 8.47717ZM15.6505 8.53587L15.6746 8.54688L15.6505 8.53587ZM9.86564 16.553L9.85568 16.542L9.86564 16.553ZM9.57684 16.2197L9.58785 16.2333L9.57684 16.2197ZM9.66333 16.3245C9.66962 16.3319 9.67538 16.3392 9.68167 16.346C9.67538 16.3381 9.66962 16.3308 9.66333 16.3235V16.3245ZM9.75453 16.4293L9.7734 16.4503L9.75453 16.4293ZM16.8571 9.32679L16.878 9.34566L16.8571 9.32679ZM9.40755 15.9917L9.40231 15.9838L9.40755 15.9917ZM16.0468 8.74343L16.0646 8.75339L16.0468 8.74343ZM16.6453 9.15121L16.659 9.16221L16.6453 9.15121ZM16.9787 9.44L16.9677 9.43005L16.9787 9.44ZM16.7711 9.25394L16.7491 9.23559L16.7711 9.25394ZM16.1631 8.81209L16.1878 8.82729L16.1631 8.81209ZM16.4084 8.97405L16.4173 8.98034L16.4084 8.97405ZM16.3036 8.90329L16.2811 8.88809L16.3036 8.90329ZM15.7947 8.60558L15.7894 8.60296L15.7947 8.60558ZM9.31582 10.3305C9.32107 10.3232 9.32578 10.3158 9.3305 10.3085C9.3284 10.3158 9.32107 10.3232 9.31582 10.3305ZM9.23983 10.45L9.25503 10.4259L9.23983 10.45ZM9.17116 10.5679L9.18112 10.5512L9.17116 10.5679ZM9.57894 9.9699L9.58995 9.95628L9.57894 9.9699ZM9.68377 9.84254C9.67748 9.84935 9.67171 9.85669 9.66542 9.86403C9.66962 9.85669 9.67538 9.84935 9.68167 9.84411L9.68377 9.84254ZM9.4044 10.2037L9.40965 10.1958L9.4044 10.2037ZM8.97461 10.9411C8.97094 10.9485 8.9678 10.9563 8.96413 10.9637C8.9657 10.9563 8.96885 10.9485 8.97252 10.9411H8.97461ZM9.25712 15.7632L9.24192 15.7391L9.25712 15.7632ZM9.03332 15.3685V15.3711V15.3685ZM9.18112 15.6379L9.17116 15.6211L9.18112 15.6379ZM9.31792 15.8586C9.32316 15.8659 9.32788 15.8732 9.3326 15.8806C9.3284 15.8717 9.32107 15.8643 9.31582 15.857L9.31792 15.8586ZM8.96151 15.2238C8.96518 15.2312 8.96832 15.239 8.97199 15.2464C8.96885 15.239 8.9657 15.2312 8.96151 15.2238ZM8.85668 11.2037C8.85668 11.2105 8.85144 11.2168 8.8483 11.2236C8.85196 11.2168 8.85668 11.2105 8.85668 11.2037ZM8.91381 11.0685C8.91014 11.0774 8.90595 11.0863 8.90228 11.0947C8.9091 11.0863 8.9091 11.0774 8.91434 11.0685H8.91381ZM8.90228 15.0928C8.90595 15.1012 8.91014 15.1101 8.91381 15.119C8.9091 15.1101 8.9091 15.1012 8.90281 15.0928H8.90228ZM8.84987 14.9639C8.85301 14.9707 8.85563 14.977 8.85826 14.9838C8.85668 14.977 8.85197 14.9707 8.84882 14.9639H8.84987ZM17.865 10.5512L17.8749 10.5679L17.865 10.5512ZM17.2696 16.4482L17.2884 16.4272L17.2696 16.4482ZM17.1873 16.5378L17.1773 16.5488L17.1873 16.5378ZM17.1773 9.63446L17.1873 9.64547L17.1773 9.63446ZM17.3613 16.3434C17.3676 16.3366 17.3734 16.3292 17.3796 16.3219C17.3734 16.3308 17.3676 16.3381 17.3613 16.3434ZM17.4661 9.96833L17.4551 9.95471L17.4661 9.96833ZM17.4661 16.216L17.4551 16.2296L17.4661 16.216ZM17.3796 9.86246C17.3734 9.85512 17.3676 9.84778 17.3613 9.84097C17.3676 9.84935 17.3734 9.85669 17.3796 9.86403V9.86246ZM17.2884 9.75763L17.2696 9.73666L17.2884 9.75763ZM17.6354 10.1953L17.6407 10.2031L17.6354 10.1953ZM17.6407 15.9833L17.6354 15.9912L17.6407 15.9833ZM20.9899 2.45381C21.0598 2.50308 21.1297 2.55287 21.1995 2.60319C21.1297 2.55322 21.0598 2.50343 20.9899 2.45381ZM18.1286 15.119C18.1323 15.1101 18.1365 15.1012 18.1402 15.0928C18.1365 15.1012 18.1339 15.1101 18.1286 15.119ZM18.1858 14.9838C18.1884 14.977 18.191 14.9707 18.1941 14.9639C18.191 14.9707 18.1863 14.977 18.1863 14.9838H18.1858ZM18.0102 15.3695V15.3669V15.3695ZM17.7271 15.857L17.7125 15.879L17.7271 15.857ZM17.8031 15.7375L17.7879 15.7616L17.8031 15.7375ZM17.8739 15.6196L17.8639 15.6363L17.8739 15.6196ZM18.0705 15.2464C18.0741 15.239 18.0773 15.2312 18.0809 15.2238C18.0773 15.2312 18.0741 15.239 18.0705 15.2464ZM23.6373 4.92825C23.588 4.8671 23.5382 4.80665 23.4879 4.7469C23.5365 4.80665 23.5863 4.8671 23.6373 4.92825ZM23.4533 4.70759C23.4009 4.64574 23.3485 4.58442 23.2961 4.52362C23.3485 4.58599 23.4014 4.64731 23.4533 4.70759ZM23.8134 5.1531C23.7659 5.09231 23.7177 5.03116 23.6687 4.96966C23.7177 5.03116 23.7659 5.09283 23.8134 5.15468V5.1531ZM23.9895 5.38582C23.9418 5.32135 23.8936 5.25793 23.8454 5.19451C23.8936 5.2595 23.9418 5.32292 23.9895 5.38897V5.38582ZM17.7271 10.3305L17.7125 10.3085L17.7271 10.3305ZM21.2263 2.62573C21.2909 2.67325 21.3549 2.72147 21.4181 2.77039C21.3559 2.72182 21.292 2.6736 21.2263 2.62573ZM21.8673 3.12994C21.8072 3.07963 21.7466 3.02983 21.6854 2.98057C21.7473 3.02983 21.8084 3.07963 21.8689 3.12994H21.8673ZM21.6456 2.9465C21.5848 2.89758 21.5235 2.84918 21.4616 2.80131C21.5228 2.84918 21.5841 2.89758 21.6456 2.9465ZM22.0911 3.3202C22.0303 3.26674 21.969 3.21433 21.9071 3.16296C21.9683 3.21433 22.0292 3.26674 22.09 3.3202H22.0911ZM18.1402 11.0947C18.1365 11.0863 18.1323 11.0774 18.1286 11.0685C18.1339 11.0774 18.1365 11.0863 18.1402 11.0947ZM9.7734 9.73929L9.75453 9.76025L9.7734 9.73929ZM18.0815 10.9637C18.0778 10.9563 18.0746 10.9485 18.071 10.9411C18.0741 10.9485 18.0773 10.9563 18.0815 10.9637ZM24.0126 5.41832C24.065 5.48698 24.1122 5.55564 24.1614 5.62483C24.1116 5.55564 24.0624 5.48698 24.012 5.41832H24.0126ZM17.7879 10.4259L17.8031 10.45L17.7879 10.4259ZM22.1136 3.34065C22.5244 3.70288 22.912 4.09064 23.2741 4.50161C22.9119 4.09076 22.5243 3.70302 22.1136 3.34065ZM18.1941 11.2236C18.1911 11.2171 18.1883 11.2105 18.1858 11.2037C18.1863 11.2105 18.191 11.2168 18.1941 11.2236ZM24.1614 20.5621C25.6974 18.3744 26.5215 15.7663 26.5215 13.0932C26.5215 10.4201 25.6974 7.81205 24.1614 5.6243L18.2911 11.493C18.6377 12.532 18.6377 13.6555 18.2911 14.6945L24.1614 20.5621ZM11.6519 17.7664L11.6304 17.7575L11.6519 17.7664ZM11.523 17.714L11.4957 17.7025L11.523 17.714ZM11.2452 17.5835L11.2504 17.5861L11.2452 17.5835ZM16.9808 16.7496L16.9698 16.7596L16.9808 16.7496ZM16.3067 17.2868L16.2842 17.302L16.3067 17.2868ZM16.4116 17.2161L16.4205 17.2098L16.4116 17.2161ZM16.6464 17.041L16.66 17.03L16.6464 17.041ZM16.856 16.8633L16.877 16.8445L16.856 16.8633ZM16.7722 16.9362L16.7502 16.9545L16.7722 16.9362ZM11.3924 17.6537L11.3683 17.6427L11.3924 17.6537ZM10.3966 17.0384L10.383 17.0274L10.3966 17.0384ZM10.1869 16.8607L10.166 16.8418L10.1869 16.8607ZM9.85673 9.64756L9.86669 9.63655L9.85673 9.64756ZM10.0664 16.7496L10.0774 16.7596L10.0664 16.7496ZM10.8798 17.3754L10.8552 17.3602L10.8798 17.3754ZM10.9983 17.4462L10.9805 17.4362L10.9983 17.4462ZM15.1243 17.8655C14.0853 18.2121 12.9619 18.2121 11.9229 17.8655L6.05308 23.7337C8.24084 25.2696 10.8489 26.0938 13.522 26.0938C16.1951 26.0938 18.8032 25.2696 20.9909 23.7337L15.1243 17.8655ZM10.7362 17.2868L10.7588 17.302L10.7362 17.2868ZM10.6314 17.2161L10.6225 17.2098L10.6314 17.2161ZM21.9076 23.0256C21.9695 22.9735 22.0308 22.9211 22.0916 22.8683C22.0298 22.9211 21.9684 22.9735 21.9076 23.0256ZM24.1614 20.5621C24.1127 20.6319 24.0629 20.7005 24.0126 20.7692C24.0624 20.7005 24.1122 20.6319 24.1614 20.5621ZM21.687 23.2096C21.7478 23.1603 21.8084 23.1105 21.8689 23.0602C21.8088 23.1087 21.7481 23.1585 21.687 23.2096ZM21.4606 23.3888C21.5224 23.3406 21.5837 23.2922 21.6445 23.2436C21.5837 23.2908 21.5224 23.3383 21.4606 23.3862V23.3888ZM23.9895 20.7985C23.9416 20.8632 23.8934 20.9271 23.8448 20.9904C23.8938 20.9282 23.942 20.8642 23.9895 20.7985ZM23.4533 21.4799C23.4009 21.5418 23.3485 21.6031 23.2961 21.6639C23.3485 21.6015 23.4014 21.5402 23.4533 21.4799ZM23.6347 21.2608C23.5854 21.3216 23.5356 21.3822 23.4853 21.4427C23.5356 21.3815 23.5863 21.3204 23.6373 21.2592L23.6347 21.2608ZM23.6687 21.2184C23.7173 21.1576 23.7657 21.0962 23.8139 21.0344C23.7661 21.0952 23.7177 21.1563 23.6687 21.2178V21.2184ZM15.7978 17.5819C15.7962 17.5831 15.7945 17.584 15.7926 17.5845C15.7945 17.584 15.7962 17.5831 15.7978 17.5819ZM15.52 17.7124L15.5473 17.7009L15.52 17.7124ZM16.1652 17.3754L16.1899 17.3602L16.1652 17.3754ZM15.6505 17.6537L15.6746 17.6427L15.6505 17.6537ZM16.0468 17.4441L16.0646 17.4341L16.0468 17.4441ZM23.2746 21.6838C22.9124 22.0948 22.5246 22.4825 22.1136 22.8448C22.5245 22.4832 22.9123 22.0961 23.2746 21.6859V21.6838ZM21.1974 23.5817C21.1276 23.632 21.0577 23.6818 20.9878 23.7311C21.0591 23.6832 21.129 23.6341 21.1974 23.5838V23.5817ZM15.4126 17.7586L15.3911 17.7675L15.4126 17.7586ZM21.2263 23.5618C21.2909 23.5139 21.3549 23.4657 21.4181 23.4171C21.3559 23.466 21.292 23.5143 21.2263 23.5618ZM10.2718 16.9336L10.2939 16.9519L10.2718 16.9336ZM3.7689 4.50161C4.13095 4.09064 4.51853 3.70288 4.92934 3.34065C4.51866 3.70302 4.13109 4.09076 3.7689 4.50161ZM5.35599 2.98161C5.29519 3.03088 5.23456 3.08068 5.17411 3.13099C5.23456 3.07998 5.29519 3.02983 5.35599 2.98057V2.98161ZM10.0732 9.42847L10.0622 9.43843L10.0732 9.42847ZM10.2897 9.23612L10.2677 9.25446L10.2897 9.23612ZM5.84553 2.60371C5.91541 2.5534 5.9853 2.5036 6.05518 2.45433C5.98425 2.5036 5.91436 2.5534 5.84553 2.60371ZM10.384 9.16274L10.3976 9.15173L10.384 9.16274ZM5.58241 2.80131C5.52056 2.84918 5.45889 2.89758 5.39739 2.9465C5.45889 2.89758 5.52056 2.84918 5.58241 2.80131ZM5.62329 2.77039C5.68654 2.72147 5.75048 2.67325 5.81513 2.62573C5.75083 2.6736 5.68689 2.72112 5.62329 2.76829V2.77039ZM10.1859 9.32679L10.1649 9.34566L10.1859 9.32679ZM11.3683 8.54478L11.3924 8.53378L11.3683 8.54478ZM11.2504 8.60296L11.2452 8.60558L11.2504 8.60296ZM11.4957 8.4866L11.523 8.47507L11.4957 8.4866ZM11.6304 8.43L11.6519 8.42109L11.6304 8.43ZM10.7362 8.90172L10.7588 8.88652L10.7362 8.90172ZM10.9983 8.73976L10.9805 8.74972L10.9983 8.73976ZM10.6256 8.97877L10.6345 8.97248L10.6256 8.97877ZM10.8552 8.82572L10.8798 8.81052L10.8552 8.82572ZM5.17411 23.0576C5.23456 23.1079 5.29519 23.1577 5.35599 23.2069C5.29519 23.1577 5.23456 23.1079 5.17411 23.0576ZM3.4083 21.2592C3.45757 21.32 3.50736 21.3807 3.55768 21.4411C3.50736 21.381 3.45757 21.3204 3.4083 21.2592ZM3.58965 21.4799C3.64206 21.5418 3.69448 21.6031 3.74689 21.6639C3.69448 21.6015 3.64154 21.5402 3.58965 21.4799ZM3.05346 20.7985C3.10098 20.8632 3.1492 20.9271 3.19812 20.9904C3.14955 20.9282 3.10133 20.8642 3.05346 20.7985ZM3.22905 21.0312C3.27692 21.0941 3.32531 21.1563 3.37423 21.2178C3.32531 21.1563 3.27692 21.0947 3.22905 21.0328V21.0312ZM4.95293 22.8657C5.01372 22.9192 5.07505 22.9716 5.1369 23.023C5.07505 22.9726 5.01372 22.9208 4.95293 22.8673V22.8657ZM5.62329 23.4192C5.68654 23.4681 5.75048 23.5163 5.81513 23.5639C5.75083 23.515 5.68689 23.4667 5.62329 23.4192ZM6.05308 23.7337C5.9832 23.6844 5.91332 23.6346 5.84343 23.5843C5.91366 23.6343 5.98355 23.6841 6.05308 23.7337ZM5.39739 23.241C5.45819 23.2896 5.51952 23.338 5.58136 23.3862C5.52021 23.3383 5.45889 23.2899 5.39739 23.241ZM3.03092 20.7692C2.97851 20.7005 2.93134 20.6319 2.88207 20.5621C2.93396 20.6319 2.98061 20.7005 3.03092 20.7692ZM3.55768 4.7469C3.50736 4.80665 3.45757 4.8671 3.4083 4.92825C3.45757 4.8671 3.50736 4.80665 3.55768 4.7469ZM3.05398 5.38897C3.10116 5.3245 3.14938 5.26055 3.1976 5.19766C3.14938 5.25898 3.10116 5.32292 3.05398 5.38897ZM3.37423 4.96966C3.32531 5.03046 3.27709 5.09178 3.22957 5.15363C3.27709 5.09248 3.32531 5.03116 3.37423 4.96966ZM3.74741 4.52414C3.695 4.58494 3.64259 4.64627 3.59017 4.70811C3.64154 4.64731 3.69448 4.58599 3.74741 4.52519V4.52414ZM4.95293 3.31863C5.01372 3.26517 5.07505 3.21276 5.1369 3.16139C5.07505 3.21381 5.01372 3.26674 4.95293 3.3202V3.31863ZM4.92934 22.8453C4.51836 22.483 4.13061 22.0953 3.76838 21.6843C4.13056 22.0958 4.51832 22.4841 4.92934 22.8469V22.8453ZM8.75186 14.6945C8.40522 13.6555 8.40522 12.532 8.75186 11.493L2.88154 5.62535C1.3456 7.8131 0.521484 10.4212 0.521484 13.0943C0.521484 15.7674 1.3456 18.3754 2.88154 20.5632L8.75186 14.6945ZM3.03302 5.41727C2.9827 5.48715 2.93308 5.55582 2.88416 5.62325C2.93169 5.55512 2.98061 5.48698 3.03092 5.41884L3.03302 5.41727Z" fill="#A6B4C4"/>
<path d="M18.2943 11.4923L24.1646 5.62465C23.2981 4.39265 22.2251 3.31968 20.9931 2.45312L15.1254 8.32341C15.8621 8.57179 16.5313 8.98702 17.081 9.53671C17.6307 10.0864 18.046 10.7557 18.2943 11.4923ZM8.75508 14.6937L2.88477 20.564C3.75122 21.7958 4.824 22.8686 6.05578 23.735L11.924 17.8626C11.1874 17.6143 10.5181 17.199 9.96838 16.6493C9.41868 16.0996 9.00345 15.4304 8.75508 14.6937ZM2.88477 5.62623L8.75508 11.4965C9.00339 10.7593 9.41882 10.0894 9.96891 9.53934C10.519 8.98925 11.1888 8.57382 11.9261 8.32551L6.05631 2.45312C4.8243 3.31968 3.75133 4.39265 2.88477 5.62465V5.62623ZM15.1254 17.8626L20.9957 23.7329C22.2275 22.8665 23.3003 21.7937 24.1667 20.5619L18.2943 14.6937C18.046 15.4304 17.6307 16.0996 17.081 16.6493C16.5313 17.199 15.8621 17.6143 15.1254 17.8626Z" fill="#A6B4C4"/>
</svg>
