<svg width="17" height="16" viewBox="0 0 17 16" fill="none" xmlns="http://www.w3.org/2000/svg">
<path d="M11.4996 15.9992H13.4996C14.0996 15.9992 14.4996 15.5992 14.4996 14.9992V7.99922H15.4996C15.7996 7.99922 16.0996 7.89922 16.2996 7.69922C16.6996 7.29922 16.5996 6.69922 16.1996 6.29922L9.19956 0.299219C8.79956 -0.000781253 8.29956 -0.000781253 7.89956 0.299219L0.899562 6.29922C0.499562 6.69922 0.399562 7.29922 0.799562 7.69922C0.899562 7.89922 1.19956 7.99922 1.49956 7.99922C1.69956 7.99922 2.49956 7.99922 2.49956 7.99922V14.9992C2.49956 15.5992 2.89956 15.9992 3.49956 15.9992H5.49956C6.09956 15.9992 6.49956 15.5992 6.49956 14.9992V11.9992H10.4996V14.9992C10.4996 15.5992 10.8996 15.9992 11.4996 15.9992Z" fill="#BCC6D3"/>
</svg>
