<svg width="20" height="21" viewBox="0 0 20 21" fill="none" xmlns="http://www.w3.org/2000/svg">
<path d="M10 1.80654C12.67 1.80654 12.9862 1.81656 14.0406 1.86475C15.1788 1.91671 16.235 2.14517 17.0475 2.9589C17.86 3.77262 18.0881 4.83046 18.14 5.9703C18.1881 7.02626 18.1981 7.34299 18.1981 10.017C18.1981 12.691 18.1881 13.0078 18.14 14.0637C18.0881 15.2036 17.86 16.2614 17.0475 17.0751C16.235 17.8888 15.1788 18.1173 14.0406 18.1693C12.9862 18.2175 12.67 18.2275 10 18.2275C7.33 18.2275 7.01375 18.2175 5.95937 18.1693C4.82125 18.1173 3.765 17.8888 2.9525 17.0751C2.14 16.2614 1.91188 15.2036 1.86 14.0637C1.81187 13.0078 1.80187 12.691 1.80187 10.017C1.80187 7.34299 1.81187 7.02626 1.86 5.9703C1.91188 4.83046 2.14 3.77262 2.9525 2.9589C3.765 2.14517 4.82125 1.91671 5.95937 1.86475C7.01375 1.81656 7.33 1.80654 10 1.80654ZM10 0.00195312C7.28438 0.00195312 6.94375 0.0132201 5.87687 0.0620435C4.25187 0.13653 2.82437 0.535255 1.67812 1.6826C0.5325 2.82995 0.134375 4.2596 0.06 5.88768C0.01125 6.95616 0 7.29729 0 10.017C0 12.7367 0.01125 13.0779 0.06 14.1463C0.134375 15.7738 0.5325 17.2034 1.67812 18.3514C2.82375 19.4988 4.25125 19.8975 5.87687 19.972C6.94375 20.0208 7.28438 20.0321 10 20.0321C12.7156 20.0321 13.0562 20.0208 14.1231 19.972C15.7481 19.8975 17.1756 19.4988 18.3219 18.3514C19.4675 17.2041 19.8656 15.7744 19.94 14.1463C19.9888 13.0779 20 12.7367 20 10.017C20 7.29729 19.9888 6.95616 19.94 5.88768C19.8656 4.26023 19.4675 2.83058 18.3219 1.6826C17.1763 0.535255 15.7487 0.13653 14.1231 0.0620435C13.0562 0.0132201 12.7156 0.00195312 10 0.00195312Z" fill="#B2C2D6"/>
<path d="M10.0002 4.87305C7.16398 4.87305 4.86523 7.17588 4.86523 10.0158C4.86523 12.8563 7.1646 15.1585 10.0002 15.1585C12.8358 15.1585 15.1352 12.8557 15.1352 10.0158C15.1352 7.17525 12.8365 4.87305 10.0002 4.87305ZM10.0002 13.3539C8.15898 13.3539 6.66711 11.8592 6.66711 10.0158C6.66711 8.17175 8.1596 6.67763 10.0002 6.67763C11.8415 6.67763 13.3333 8.17237 13.3333 10.0158C13.3333 11.8598 11.8415 13.3539 10.0002 13.3539Z" fill="#B2C2D6"/>
<path d="M15.3387 5.86966C16.0014 5.86966 16.5387 5.33176 16.5387 4.66823C16.5387 4.0047 16.0014 3.4668 15.3387 3.4668C14.6759 3.4668 14.1387 4.0047 14.1387 4.66823C14.1387 5.33176 14.6759 5.86966 15.3387 5.86966Z" fill="#B2C2D6"/>
</svg>
