<svg width="15" height="17" viewBox="0 0 15 17" fill="none" xmlns="http://www.w3.org/2000/svg">
<path d="M7.5 9C8.60457 9 9.5 8.10457 9.5 7C9.5 5.89543 8.60457 5 7.5 5C6.39543 5 5.5 5.89543 5.5 7C5.5 8.10457 6.39543 9 7.5 9Z" fill="#BCC6D3"/>
<path d="M6.8 15.7C6.7 15.6 2.6 12 2.6 11.9C1.2 10.7 0.5 8.9 0.5 7C0.5 3.1 3.6 0 7.5 0C11.4 0 14.5 3.1 14.5 7C14.5 8.9 13.8 10.7 12.4 12C12.3 12.1 8.3 15.7 8.2 15.8C7.8 16.1 7.2 16.1 6.8 15.7ZM4.1 10.7L7.5 13.7L10.9 10.7C11.9 9.7 12.5 8.5 12.5 7.1C12.5 4.3 10.3 2.1 7.5 2.1C4.7 2.1 2.5 4.2 2.5 7C2.5 8.4 3.1 9.7 4.1 10.7C4.1 10.6 4.1 10.6 4.1 10.7Z" fill="#BCC6D3"/>
</svg>
