<svg width="26" height="26" viewBox="0 0 26 26" fill="none" xmlns="http://www.w3.org/2000/svg">
<path opacity="0.4" d="M14.8593 8.37285L14.8379 8.36396L14.8593 8.37285ZM11.375 8.26825C12.4118 7.92235 13.5328 7.92235 14.5696 8.26825L20.4274 2.41045C18.2443 0.877777 15.6418 0.0554199 12.9744 0.0554199C10.307 0.0554199 7.70447 0.877777 5.52138 2.41045L11.375 8.26825ZM14.9666 8.42097L14.9938 8.43248L14.9666 8.42097ZM15.0968 8.47955L15.1208 8.49053L15.0968 8.47955ZM9.32424 16.4796L9.3143 16.4686L9.32424 16.4796ZM9.03606 16.147L9.04704 16.1606L9.03606 16.147ZM9.12236 16.2516C9.12863 16.2589 9.13439 16.2662 9.14066 16.273C9.13439 16.2652 9.12863 16.2579 9.12236 16.2505V16.2516ZM9.21336 16.3562L9.23219 16.3771L9.21336 16.3562ZM16.3008 9.26878L16.3217 9.28761L16.3008 9.26878ZM8.86712 15.9195L8.86189 15.9116L8.86712 15.9195ZM15.4922 8.68666L15.51 8.6966L15.4922 8.68666ZM16.0895 9.09357L16.1031 9.10455L16.0895 9.09357ZM16.4221 9.38175L16.4111 9.37182L16.4221 9.38175ZM16.215 9.19608L16.193 9.17778L16.215 9.19608ZM15.6083 8.75518L15.6329 8.77035L15.6083 8.75518ZM15.8531 8.91679L15.862 8.92307L15.8531 8.91679ZM15.7485 8.84618L15.726 8.83101L15.7485 8.84618ZM15.2406 8.54911L15.2354 8.54649L15.2406 8.54911ZM8.77559 10.2704C8.78082 10.263 8.78553 10.2557 8.79024 10.2484C8.78815 10.2557 8.78082 10.263 8.77559 10.2704ZM8.69976 10.3896L8.71493 10.3655L8.69976 10.3896ZM8.63124 10.5073L8.64118 10.4906L8.63124 10.5073ZM9.03815 9.91052L9.04913 9.89692L9.03815 9.91052ZM9.14275 9.78343C9.13648 9.79023 9.13072 9.79755 9.12445 9.80487C9.12863 9.79755 9.13439 9.79023 9.14066 9.785L9.14275 9.78343ZM8.86399 10.1438L8.86922 10.1359L8.86399 10.1438ZM8.43511 10.8797C8.43145 10.887 8.42831 10.8948 8.42465 10.9022C8.42622 10.8948 8.42936 10.887 8.43302 10.8797H8.43511ZM8.71702 15.6914L8.70185 15.6674L8.71702 15.6914ZM8.49369 15.2976V15.3002V15.2976ZM8.64118 15.5664L8.63124 15.5497L8.64118 15.5664ZM8.77769 15.7866C8.78292 15.794 8.78762 15.8013 8.79233 15.8086C8.78815 15.7997 8.78082 15.7924 8.77559 15.7851L8.77769 15.7866ZM8.42204 15.1533C8.4257 15.1606 8.42883 15.1684 8.4325 15.1757C8.42936 15.1684 8.42622 15.1606 8.42204 15.1533ZM8.31743 11.1417C8.31743 11.1485 8.3122 11.1548 8.30906 11.1616C8.31272 11.1548 8.31743 11.1485 8.31743 11.1417ZM8.37444 11.0068C8.37078 11.0157 8.3666 11.0246 8.36293 11.0329C8.36973 11.0246 8.36973 11.0157 8.37496 11.0068H8.37444ZM8.36293 15.0225C8.3666 15.0309 8.37078 15.0398 8.37444 15.0487C8.36973 15.0398 8.36973 15.0309 8.36346 15.0225H8.36293ZM8.31063 14.8938C8.31377 14.9006 8.31639 14.9069 8.319 14.9137C8.31743 14.9069 8.31273 14.9006 8.30959 14.8938H8.31063ZM17.3065 10.4906L17.3165 10.5073L17.3065 10.4906ZM16.7124 16.375L16.7312 16.3541L16.7124 16.375ZM16.6303 16.4645L16.6203 16.4754L16.6303 16.4645ZM16.6203 9.57579L16.6303 9.58678L16.6203 9.57579ZM16.8039 16.2704C16.8102 16.2636 16.8159 16.2563 16.8222 16.249C16.8159 16.2579 16.8102 16.2652 16.8039 16.2704ZM16.9085 9.90895L16.8975 9.89536L16.9085 9.90895ZM16.9085 16.1433L16.8975 16.1569L16.9085 16.1433ZM16.8222 9.80331C16.8159 9.79598 16.8102 9.78866 16.8039 9.78186C16.8102 9.79023 16.8159 9.79755 16.8222 9.80487V9.80331ZM16.7312 9.6987L16.7124 9.67778L16.7312 9.6987ZM17.0775 10.1354L17.0827 10.1433L17.0775 10.1354ZM17.0827 15.9111L17.0775 15.919L17.0827 15.9111ZM20.4248 2.41045C20.4945 2.45961 20.5642 2.5093 20.634 2.55951C20.5642 2.50965 20.4945 2.45996 20.4248 2.41045ZM17.5696 15.0487C17.5733 15.0398 17.5775 15.0309 17.5811 15.0225C17.5775 15.0309 17.5748 15.0398 17.5696 15.0487ZM17.6266 14.9137C17.6292 14.9069 17.6319 14.9006 17.635 14.8938C17.6319 14.9006 17.6271 14.9069 17.6271 14.9137H17.6266ZM17.4514 15.2987V15.296V15.2987ZM17.169 15.7851L17.1543 15.807L17.169 15.7851ZM17.2448 15.6658L17.2297 15.6899L17.2448 15.6658ZM17.3154 15.5481L17.3055 15.5649L17.3154 15.5481ZM17.5116 15.1757C17.5152 15.1684 17.5184 15.1606 17.522 15.1533C17.5184 15.1606 17.5152 15.1684 17.5116 15.1757ZM23.0665 4.87962C23.0174 4.8186 22.9677 4.75828 22.9175 4.69865C22.9659 4.75828 23.0156 4.8186 23.0665 4.87962ZM22.883 4.65943C22.8307 4.59771 22.7783 4.53652 22.726 4.47585C22.7783 4.53809 22.8312 4.59928 22.883 4.65943ZM23.2423 5.10399C23.1948 5.04332 23.1467 4.9823 23.0979 4.92093C23.1467 4.9823 23.1948 5.04384 23.2423 5.10556V5.10399ZM23.418 5.33621C23.3704 5.27188 23.3223 5.20859 23.2742 5.14531C23.3223 5.21016 23.3704 5.27345 23.418 5.33935V5.33621ZM17.169 10.2704L17.1543 10.2484L17.169 10.2704ZM20.6607 2.582C20.7252 2.62942 20.789 2.67754 20.8521 2.72635C20.79 2.67789 20.7262 2.62977 20.6607 2.582ZM21.3003 3.08514C21.2403 3.03493 21.1798 2.98525 21.1188 2.93608C21.1805 2.98525 21.2416 3.03493 21.3019 3.08514H21.3003ZM21.0791 2.90209C21.0184 2.85327 20.9572 2.80498 20.8955 2.75721C20.9565 2.80498 21.0177 2.85327 21.0791 2.90209ZM21.5236 3.275C21.463 3.22165 21.4018 3.16935 21.34 3.11809C21.4011 3.16935 21.4619 3.22165 21.5226 3.275H21.5236ZM17.5811 11.0329C17.5775 11.0246 17.5733 11.0157 17.5696 11.0068C17.5748 11.0157 17.5775 11.0246 17.5811 11.0329ZM9.23219 9.6804L9.21336 9.70132L9.23219 9.6804ZM17.5225 10.9022C17.5189 10.8948 17.5157 10.887 17.5121 10.8797C17.5152 10.887 17.5184 10.8948 17.5225 10.9022ZM23.441 5.36864C23.4933 5.43715 23.5404 5.50567 23.5896 5.57471C23.5399 5.50567 23.4907 5.43715 23.4405 5.36864H23.441ZM17.2297 10.3655L17.2448 10.3896L17.2297 10.3655ZM21.5461 3.2954C21.956 3.65686 22.3428 4.04379 22.7041 4.45388C22.3427 4.04391 21.9559 3.65699 21.5461 3.2954ZM17.635 11.1616C17.632 11.1551 17.6292 11.1484 17.6266 11.1417C17.6271 11.1485 17.6319 11.1548 17.635 11.1616ZM23.5896 20.4802C25.1222 18.2971 25.9446 15.6946 25.9446 13.0272C25.9446 10.3598 25.1222 7.75727 23.5896 5.57418L17.7318 11.4304C18.0776 12.4672 18.0776 13.5882 17.7318 14.625L23.5896 20.4802ZM11.1067 17.6904L11.0852 17.6815L11.1067 17.6904ZM10.978 17.6381L10.9508 17.6266L10.978 17.6381ZM10.7008 17.5079L10.7061 17.5105L10.7008 17.5079ZM16.4242 16.6758L16.4132 16.6857L16.4242 16.6758ZM15.7516 17.2119L15.7291 17.227L15.7516 17.2119ZM15.8562 17.1412L15.8651 17.135L15.8562 17.1412ZM16.0905 16.9666L16.1041 16.9556L16.0905 16.9666ZM16.2997 16.7893L16.3206 16.7704L16.2997 16.7893ZM16.216 16.862L16.1941 16.8803L16.216 16.862ZM10.8478 17.578L10.8237 17.567L10.8478 17.578ZM9.85406 16.9639L9.84046 16.953L9.85406 16.9639ZM9.64485 16.7866L9.62393 16.7678L9.64485 16.7866ZM9.31535 9.58887L9.32529 9.57788L9.31535 9.58887ZM9.52456 16.6758L9.53554 16.6857L9.52456 16.6758ZM10.3363 17.3002L10.3117 17.2851L10.3363 17.3002ZM10.4545 17.3708L10.4367 17.3609L10.4545 17.3708ZM14.5717 17.7893C13.5349 18.1352 12.4139 18.1352 11.3771 17.7893L5.51981 23.645C7.7029 25.1776 10.3054 26 12.9728 26C15.6402 26 18.2427 25.1776 20.4258 23.645L14.5717 17.7893ZM10.193 17.2119L10.2155 17.227L10.193 17.2119ZM10.0884 17.1412L10.0795 17.135L10.0884 17.1412ZM21.3406 22.9384C21.4023 22.8864 21.4635 22.8341 21.5242 22.7815C21.4624 22.8341 21.4012 22.8864 21.3406 22.9384ZM23.5896 20.4802C23.5409 20.5498 23.4912 20.6183 23.441 20.6868C23.4907 20.6183 23.5404 20.5498 23.5896 20.4802ZM21.1204 23.122C21.1811 23.0728 21.2416 23.0231 21.3019 22.9729C21.2419 23.0214 21.1814 23.071 21.1204 23.122ZM20.8944 23.3008C20.9562 23.2527 21.0173 23.2044 21.078 23.1559C21.0173 23.203 20.9562 23.2504 20.8944 23.2982V23.3008ZM23.418 20.7161C23.3702 20.7806 23.3221 20.8444 23.2736 20.9075C23.3225 20.8454 23.3706 20.7816 23.418 20.7161ZM22.883 21.396C22.8307 21.4577 22.7783 21.5189 22.726 21.5796C22.7783 21.5173 22.8312 21.4561 22.883 21.396ZM23.0639 21.1774C23.0148 21.238 22.9651 21.2985 22.9149 21.3589C22.9651 21.2978 23.0156 21.2368 23.0665 21.1758L23.0639 21.1774ZM23.0979 21.135C23.1464 21.0743 23.1947 21.0131 23.2428 20.9514C23.195 21.0121 23.1467 21.0731 23.0979 21.1345V21.135ZM15.2438 17.5063C15.2422 17.5075 15.2404 17.5084 15.2385 17.5089C15.2404 17.5084 15.2422 17.5075 15.2438 17.5063ZM14.9666 17.6365L14.9938 17.625L14.9666 17.6365ZM15.6104 17.3002L15.635 17.2851L15.6104 17.3002ZM15.0968 17.578L15.1208 17.567L15.0968 17.578ZM15.4922 17.3688L15.51 17.3588L15.4922 17.3688ZM22.7046 21.5994C22.3431 22.0095 21.9562 22.3965 21.5461 22.7579C21.9562 22.3971 22.3431 22.0109 22.7046 21.6015V21.5994ZM20.6319 23.4933C20.5621 23.5435 20.4924 23.5932 20.4227 23.6424C20.4938 23.5946 20.5635 23.5456 20.6319 23.4954V23.4933ZM14.8593 17.6826L14.8379 17.6915L14.8593 17.6826ZM20.6607 23.4734C20.7252 23.4257 20.789 23.3775 20.8521 23.3291C20.79 23.3779 20.7262 23.426 20.6607 23.4734ZM9.72958 16.8593L9.75155 16.8776L9.72958 16.8593ZM3.2405 4.45388C3.60178 4.04379 3.98853 3.65686 4.39846 3.2954C3.98866 3.65699 3.60191 4.04391 3.2405 4.45388ZM4.8242 2.93713C4.76353 2.98629 4.70303 3.03598 4.64271 3.08619C4.70303 3.03528 4.76353 2.98525 4.8242 2.93608V2.93713ZM9.53136 9.37025L9.52037 9.38018L9.53136 9.37025ZM9.74736 9.1783L9.7254 9.1966L9.74736 9.1783ZM5.31269 2.56003C5.38243 2.50982 5.45217 2.46014 5.5219 2.41097C5.45112 2.46014 5.38138 2.50982 5.31269 2.56003ZM9.84151 9.10508L9.8551 9.09409L9.84151 9.10508ZM5.05014 2.75721C4.98842 2.80498 4.92688 2.85327 4.86551 2.90209C4.92688 2.85327 4.98842 2.80498 5.05014 2.75721ZM5.09093 2.72635C5.15405 2.67754 5.21785 2.62942 5.28236 2.582C5.2182 2.62977 5.15439 2.67719 5.09093 2.72426V2.72635ZM9.6438 9.26878L9.62288 9.28761L9.6438 9.26878ZM10.8237 8.48844L10.8478 8.47746L10.8237 8.48844ZM10.7061 8.54649L10.7008 8.54911L10.7061 8.54649ZM10.9508 8.43038L10.978 8.41888L10.9508 8.43038ZM11.0852 8.3739L11.1067 8.36501L11.0852 8.3739ZM10.193 8.84461L10.2155 8.82945L10.193 8.84461ZM10.4545 8.683L10.4367 8.69294L10.4545 8.683ZM10.0826 8.9215L10.0915 8.91522L10.0826 8.9215ZM10.3117 8.76878L10.3363 8.75361L10.3117 8.76878ZM4.64271 22.9703C4.70303 23.0205 4.76353 23.0702 4.8242 23.1193C4.76353 23.0702 4.70303 23.0205 4.64271 22.9703ZM2.88066 21.1758C2.92983 21.2365 2.97951 21.297 3.02972 21.3573C2.97951 21.2973 2.92983 21.2368 2.88066 21.1758ZM3.06163 21.396C3.11393 21.4577 3.16623 21.5189 3.21853 21.5796C3.16623 21.5173 3.1134 21.4561 3.06163 21.396ZM2.52658 20.7161C2.574 20.7806 2.62212 20.8444 2.67093 20.9075C2.62247 20.8454 2.57435 20.7816 2.52658 20.7161ZM2.70179 20.9483C2.74956 21.0111 2.79785 21.0731 2.84667 21.1345C2.79785 21.0731 2.74956 21.0116 2.70179 20.9499V20.9483ZM4.422 22.7789C4.48267 22.8322 4.54386 22.8845 4.60557 22.9358C4.54386 22.8855 4.48267 22.8338 4.422 22.7804V22.7789ZM5.09093 23.3312C5.15405 23.38 5.21785 23.4281 5.28236 23.4755C5.2182 23.4267 5.15439 23.3786 5.09093 23.3312ZM5.51981 23.645C5.45007 23.5958 5.38034 23.5461 5.3106 23.4959C5.38069 23.5458 5.45042 23.5955 5.51981 23.645ZM4.86551 23.1533C4.92618 23.2018 4.98738 23.2501 5.04909 23.2982C4.98808 23.2504 4.92688 23.2021 4.86551 23.1533ZM2.50409 20.6868C2.45179 20.6183 2.40472 20.5498 2.35555 20.4802C2.40733 20.5498 2.45388 20.6183 2.50409 20.6868ZM3.02972 4.69865C2.97951 4.75828 2.92983 4.8186 2.88066 4.87962C2.92983 4.8186 2.97951 4.75828 3.02972 4.69865ZM2.5271 5.33935C2.57417 5.27502 2.62229 5.21121 2.67041 5.14845C2.62229 5.20964 2.57417 5.27345 2.5271 5.33935ZM2.84667 4.92093C2.79785 4.9816 2.74973 5.0428 2.70231 5.10451C2.74973 5.0435 2.79785 4.9823 2.84667 4.92093ZM3.21905 4.47637C3.16675 4.53704 3.11445 4.59823 3.06215 4.65995C3.1134 4.59928 3.16623 4.53808 3.21905 4.47742V4.47637ZM4.422 3.27343C4.48267 3.22008 4.54386 3.16778 4.60557 3.11652C4.54386 3.16882 4.48267 3.22165 4.422 3.275V3.27343ZM4.39846 22.7585C3.98836 22.397 3.60143 22.0101 3.23998 21.6C3.60138 22.0106 3.98831 22.3981 4.39846 22.76V22.7585ZM8.21283 14.625C7.86693 13.5882 7.86693 12.4672 8.21283 11.4304L2.35503 5.57523C0.822357 7.75832 0 10.3608 0 13.0282C0 15.6956 0.822357 18.2981 2.35503 20.4812L8.21283 14.625ZM2.50618 5.36759C2.45597 5.43733 2.40646 5.50584 2.35764 5.57314C2.40506 5.50515 2.45388 5.43715 2.50409 5.36916L2.50618 5.36759Z" fill="#192E46"/>
<path d="M17.7317 11.4304L23.5895 5.57518C22.7248 4.3458 21.6541 3.27511 20.4247 2.4104L14.5695 8.2682C15.3046 8.51604 15.9725 8.93039 16.521 9.47892C17.0695 10.0274 17.4839 10.6953 17.7317 11.4304ZM8.21278 14.625L2.35498 20.4828C3.21958 21.7119 4.29009 22.7824 5.51924 23.647L11.3749 17.7871C10.6399 17.5393 9.97202 17.1249 9.4235 16.5764C8.87497 16.0279 8.46062 15.36 8.21278 14.625ZM2.35498 5.57675L8.21278 11.4345C8.46056 10.6989 8.87511 10.0305 9.42402 9.48154C9.97294 8.93262 10.6414 8.51807 11.377 8.27029L5.51976 2.4104C4.29038 3.27511 3.21969 4.3458 2.35498 5.57518V5.57675ZM14.5695 17.7871L20.4273 23.6449C21.6565 22.7803 22.727 21.7098 23.5916 20.4807L17.7317 14.625C17.4839 15.36 17.0695 16.0279 16.521 16.5764C15.9725 17.1249 15.3046 17.5393 14.5695 17.7871Z" fill="#192E46"/>
</svg>
