<svg width="15" height="15" viewBox="0 0 15 15" fill="none" xmlns="http://www.w3.org/2000/svg">
<path d="M9.81573 9.14166L8.31689 10.7245L4.49017 6.62352L5.96717 5.01726C6.05649 4.91988 6.11677 4.79623 6.14032 4.66204C6.16388 4.52785 6.14966 4.38918 6.09946 4.26367L4.56145 0.416616C4.50065 0.264914 4.39099 0.141691 4.25247 0.0694259C4.11395 -0.00283906 3.95581 -0.0193294 3.80689 0.0229633L0.981316 0.822656C0.840144 0.861801 0.715607 0.951271 0.628189 1.07635C0.540771 1.20143 0.495678 1.35467 0.500327 1.51086C0.680032 5.03026 2.04549 8.36016 4.34311 10.8821C6.69716 13.3448 9.80536 14.8079 13.0902 14.9996C13.2359 15.0046 13.3789 14.9563 13.4956 14.8626C13.6124 14.7689 13.6958 14.6355 13.7324 14.4842L14.4786 11.4561C14.518 11.2965 14.5026 11.127 14.4352 10.9786C14.3678 10.8301 14.2528 10.7126 14.1112 10.6475L10.5215 8.9992C10.404 8.94489 10.274 8.92944 10.1483 8.95482C10.0225 8.9802 9.90674 9.04527 9.81573 9.14166Z" fill="#BCC6D3"/>
</svg>
