<svg width="13" height="12" viewBox="0 0 13 12" fill="none" xmlns="http://www.w3.org/2000/svg">
<path d="M5.11719 11.1429C5.11719 11.3702 5.20933 11.5882 5.37333 11.7489C5.53734 11.9097 5.75978 12 5.99172 12H6.86626C7.0982 12 7.32064 11.9097 7.48464 11.7489C7.64865 11.5882 7.74079 11.3702 7.74079 11.1429V7.28571H5.11719V11.1429ZM6.86626 0H5.99172C5.75978 0 5.53734 0.0903058 5.37333 0.251051C5.20933 0.411797 5.11719 0.629814 5.11719 0.857143V4.71429H7.74079V0.857143C7.74079 0.629814 7.64865 0.411797 7.48464 0.251051C7.32064 0.0903058 7.0982 0 6.86626 0Z" fill="white"/>
<path d="M12.5482 5.57199V6.42913C12.5482 6.65646 12.456 6.87448 12.292 7.03522C12.128 7.19597 11.9056 7.28627 11.6736 7.28627H1.17922C0.947281 7.28627 0.72484 7.19597 0.560833 7.03522C0.396826 6.87448 0.304688 6.65646 0.304688 6.42913V5.57199C0.304688 5.34466 0.396826 5.12664 0.560833 4.9659C0.72484 4.80515 0.947281 4.71484 1.17922 4.71484H11.6736C11.9056 4.71484 12.128 4.80515 12.292 4.9659C12.456 5.12664 12.5482 5.34466 12.5482 5.57199Z" fill="white"/>
</svg>
