<svg width="18" height="26" viewBox="0 0 18 26" fill="none" xmlns="http://www.w3.org/2000/svg">
<path d="M16.8127 0.300053L15.0783 2.486L12.6212 0.300053C12.4964 0.197876 12.3442 0.142578 12.1876 0.142578C12.0311 0.142578 11.8788 0.197876 11.754 0.300053L9.29698 2.486L6.83992 0.300053C6.71512 0.197876 6.56286 0.142578 6.40632 0.142578C6.24977 0.142578 6.09751 0.197876 5.97272 0.300053L3.51566 2.486L1.78126 0.300053C1.67399 0.213079 1.54645 0.160084 1.4129 0.146998C1.27936 0.133912 1.14508 0.161251 1.02508 0.225957C0.905092 0.290662 0.80412 0.390182 0.733463 0.513383C0.662806 0.636583 0.625251 0.778606 0.625 0.923564L0.625 24.3601C0.625 24.5052 0.662372 24.6474 0.732929 24.7708C0.803486 24.8943 0.90444 24.994 1.02448 25.0589C1.14452 25.1238 1.2789 25.1512 1.41256 25.1382C1.54623 25.1252 1.6739 25.0722 1.78126 24.9851L3.51566 22.7977L5.97272 24.9851C6.09751 25.0873 6.24977 25.1426 6.40632 25.1426C6.56286 25.1426 6.71512 25.0873 6.83992 24.9851L9.29698 22.7977L11.754 24.9851C11.8788 25.0873 12.0311 25.1426 12.1876 25.1426C12.3442 25.1426 12.4964 25.0873 12.6212 24.9851L15.0783 22.7977L16.8127 24.9851C16.9201 25.0722 17.0477 25.1252 17.1814 25.1382C17.3151 25.1512 17.4494 25.1238 17.5695 25.0589C17.6895 24.994 17.7905 24.8943 17.861 24.7708C17.9316 24.6474 17.969 24.5052 17.969 24.3601V0.923564C17.9687 0.778606 17.9311 0.636583 17.8605 0.513383C17.7898 0.390182 17.6889 0.290662 17.5689 0.225957C17.4489 0.161251 17.3146 0.133912 17.181 0.146998C17.0475 0.160084 16.92 0.213079 16.8127 0.300053ZM15.0783 17.7198C15.0783 17.8234 15.0402 17.9227 14.9725 17.996C14.9047 18.0692 14.8128 18.1104 14.717 18.1104H3.87699C3.78116 18.1104 3.68925 18.0692 3.62149 17.996C3.55373 17.9227 3.51566 17.8234 3.51566 17.7198V16.9385C3.51566 16.835 3.55373 16.7356 3.62149 16.6623C3.68925 16.5891 3.78116 16.5479 3.87699 16.5479H14.717C14.8128 16.5479 14.9047 16.5891 14.9725 16.6623C15.0402 16.7356 15.0783 16.835 15.0783 16.9385V17.7198ZM15.0783 13.0325C15.0783 13.1361 15.0402 13.2354 14.9725 13.3087C14.9047 13.3819 14.8128 13.4231 14.717 13.4231H3.87699C3.78116 13.4231 3.68925 13.3819 3.62149 13.3087C3.55373 13.2354 3.51566 13.1361 3.51566 13.0325V12.2512C3.51566 12.1476 3.55373 12.0483 3.62149 11.975C3.68925 11.9018 3.78116 11.8606 3.87699 11.8606H14.717C14.8128 11.8606 14.9047 11.9018 14.9725 11.975C15.0402 12.0483 15.0783 12.1476 15.0783 12.2512V13.0325ZM15.0783 8.34514C15.0783 8.44874 15.0402 8.54809 14.9725 8.62135C14.9047 8.6946 14.8128 8.73575 14.717 8.73575H3.87699C3.78116 8.73575 3.68925 8.6946 3.62149 8.62135C3.55373 8.54809 3.51566 8.44874 3.51566 8.34514V7.56392C3.51566 7.46033 3.55373 7.36097 3.62149 7.28772C3.68925 7.21447 3.78116 7.17331 3.87699 7.17331H14.717C14.8128 7.17331 14.9047 7.21447 14.9725 7.28772C15.0402 7.36097 15.0783 7.46033 15.0783 7.56392V8.34514Z" fill="#A6B4C4"/>
<path d="M14.7169 7.17383H3.87696C3.78113 7.17383 3.68922 7.21498 3.62146 7.28823C3.55369 7.36149 3.51562 7.46084 3.51562 7.56444V8.34566C3.51562 8.44925 3.55369 8.5486 3.62146 8.62186C3.68922 8.69511 3.78113 8.73626 3.87696 8.73626H14.7169C14.8128 8.73626 14.9047 8.69511 14.9724 8.62186C15.0402 8.5486 15.0783 8.44925 15.0783 8.34566V7.56444C15.0783 7.46084 15.0402 7.36149 14.9724 7.28823C14.9047 7.21498 14.8128 7.17383 14.7169 7.17383ZM14.7169 11.8611H3.87696C3.78113 11.8611 3.68922 11.9023 3.62146 11.9755C3.55369 12.0488 3.51562 12.1482 3.51562 12.2517V13.033C3.51562 13.1366 3.55369 13.2359 3.62146 13.3092C3.68922 13.3824 3.78113 13.4236 3.87696 13.4236H14.7169C14.8128 13.4236 14.9047 13.3824 14.9724 13.3092C15.0402 13.2359 15.0783 13.1366 15.0783 13.033V12.2517C15.0783 12.1482 15.0402 12.0488 14.9724 11.9755C14.9047 11.9023 14.8128 11.8611 14.7169 11.8611ZM14.7169 16.5484H3.87696C3.78113 16.5484 3.68922 16.5896 3.62146 16.6629C3.55369 16.7361 3.51562 16.8355 3.51562 16.9391V17.7203C3.51562 17.8239 3.55369 17.9232 3.62146 17.9965C3.68922 18.0697 3.78113 18.1109 3.87696 18.1109H14.7169C14.8128 18.1109 14.9047 18.0697 14.9724 17.9965C15.0402 17.9232 15.0783 17.8239 15.0783 17.7203V16.9391C15.0783 16.8355 15.0402 16.7361 14.9724 16.6629C14.9047 16.5896 14.8128 16.5484 14.7169 16.5484Z" fill="white"/>
</svg>
