<svg width="32" height="33" viewBox="0 0 32 33" fill="none" xmlns="http://www.w3.org/2000/svg">
<path fill-rule="evenodd" clip-rule="evenodd" d="M19.4773 0.5L31.5839 12.3933V25.2322H30.068V13.0318L19.4852 2.63538L8.46703 13.6215V26.6408H6.95117V12.9897L19.4773 0.5Z" fill="#D3DEDA"/>
<path fill-rule="evenodd" clip-rule="evenodd" d="M12.5226 0.5L25.0487 12.9512V26.1381H23.5329V13.5792L12.5147 2.62694L1.93187 12.9913V25.5848H0.416016V12.3567L12.5226 0.5Z" fill="#D3DEDA"/>
<path fill-rule="evenodd" clip-rule="evenodd" d="M12.8637 31.1652H30.0591V26.6492C22.3894 26.8167 16.0294 29.4687 12.8637 31.1652ZM10.1725 31.0186C12.1075 29.6516 20.3691 25.1327 30.8216 25.1327H31.5841V32.6733H10.1591L9.71631 31.3408L10.1725 31.0186Z" fill="#D3DEDA"/>
<path fill-rule="evenodd" clip-rule="evenodd" d="M30.8298 29.4492C25.5425 29.4492 21.8218 30.6839 17.6498 32.6733L17.0054 31.2678C21.3093 29.2154 25.2538 27.8976 30.8298 27.8976V29.4492Z" fill="#D3DEDA"/>
<path fill-rule="evenodd" clip-rule="evenodd" d="M5.85149 28.7007C7.75626 29.2362 9.8093 30.0561 11.4758 31.1948L10.6247 32.422C9.13778 31.4059 7.25168 30.6428 5.44243 30.1341C3.63045 29.6247 1.95705 29.3874 0.918945 29.3874V27.8976C2.13391 27.8976 3.94944 28.1659 5.85149 28.7007Z" fill="#D3DEDA"/>
<path fill-rule="evenodd" clip-rule="evenodd" d="M0.416016 25.1327H1.17687C3.48362 25.1327 6.10068 25.8124 8.42758 26.6679C10.7631 27.5265 12.8741 28.5877 14.1871 29.4044L13.3782 30.6818C12.1615 29.925 10.1454 28.908 7.89832 28.0819C5.91664 27.3533 3.80738 26.7926 1.93773 26.6672V31.1652H14.4918V32.6733H0.416016V25.1327Z" fill="#D3DEDA"/>
<path d="M20.0169 21.8939L19.9699 21.0178L19.8702 19.2789C19.8 18.1196 19.723 16.9597 19.639 15.7991C19.555 14.6385 19.4623 13.478 19.3607 12.3174L18.3586 12.3593C18.3511 13.525 18.3549 14.69 18.3699 15.8543C18.385 17.0187 18.4044 18.1831 18.4282 19.3474L18.4715 21.094L18.4827 21.4349C18.4723 21.4767 18.4666 21.5195 18.4658 21.5625C18.4338 22.372 16.9035 22.2292 16.8414 21.5625V21.5759C16.8414 21.3854 16.8414 21.1949 16.8283 21.0045L16.7606 18.1151L16.6196 12.3345H15.6156L15.4746 18.1151L15.4069 21.0045C15.4069 21.1949 15.4069 21.3854 15.3937 21.5759V21.5625C15.3317 22.2292 13.8013 22.372 13.7693 21.5625V21.5454L13.7844 21.0959L13.8352 19.3493C13.8677 18.1862 13.8922 17.0219 13.9085 15.8562C13.9248 14.6906 13.9342 13.5256 13.9367 12.3612L12.9346 12.3136C12.8255 13.4742 12.7278 14.6335 12.6413 15.7915C12.5548 16.9495 12.4721 18.1088 12.3931 19.2693L12.2841 21.0083L12.2333 21.8882C12.2101 22.3099 12.2929 22.7306 12.474 23.111C12.7983 23.7564 13.334 24.2674 13.9893 24.5566L14.0457 24.5814C14.0777 24.5966 14.1096 24.6138 14.1435 24.6271C14.2413 24.6671 14.3315 24.7014 14.4387 24.7319C15.0948 25.008 15.3693 25.4118 15.3693 26.0651V28.6516H16.8734V26.0765C16.8734 25.4309 17.1535 25.0195 17.7965 24.7433C17.9018 24.7109 18.0089 24.6747 18.1142 24.6309C18.4557 24.4926 18.7731 24.2997 19.0543 24.0595C19.3564 23.8017 19.6018 23.4824 19.7744 23.1224C19.9591 22.7412 20.0427 22.3178 20.0169 21.8939Z" fill="#D3DEDA"/>
</svg>
