<svg width="21" height="18" viewBox="0 0 21 18" fill="none" xmlns="http://www.w3.org/2000/svg">
<path d="M20.6875 2.81736C19.9375 3.13033 19.1875 3.38071 18.3125 3.4433C19.1875 2.94255 19.8125 2.12883 20.125 1.18992C19.3125 1.69067 18.4375 2.00364 17.5 2.19142C16.75 1.3777 15.6875 0.876953 14.5625 0.876953C12.3125 0.876953 10.4375 2.69218 10.4375 5.00815C10.4375 5.32112 10.5 5.63409 10.5625 5.94706C7.12499 5.75928 4.12499 4.13184 2.0625 1.62808C1.6875 2.25402 1.5 2.94255 1.5 3.69368C1.5 5.13334 2.25 6.38522 3.31249 7.13634C2.625 7.13634 2 6.94856 1.4375 6.63559V6.69819C1.4375 8.70119 2.875 10.3286 4.74999 10.7042C4.37499 10.7668 4.06249 10.8294 3.68749 10.8294C3.43749 10.8294 3.18749 10.8294 2.9375 10.7668C3.43749 12.3942 4.99999 13.5835 6.74999 13.6461C5.37499 14.7728 3.56249 15.3987 1.625 15.3987C1.3125 15.3987 0.937499 15.3987 0.625 15.3361C2.5 16.4628 4.68749 17.1514 6.99999 17.1514C14.5625 17.1514 18.6875 10.892 18.6875 5.44631C18.6875 5.25853 18.6875 5.07074 18.6875 4.94556C19.4375 4.31962 20.125 3.63108 20.6875 2.81736Z" fill="#B2C2D6"/>
</svg>
