<svg width="23" height="22" viewBox="0 0 23 22" fill="none" xmlns="http://www.w3.org/2000/svg">
<path d="M19.5 1H3.5C2.39543 1 1.5 1.89543 1.5 3V7C1.5 8.10457 2.39543 9 3.5 9H19.5C20.6046 9 21.5 8.10457 21.5 7V3C21.5 1.89543 20.6046 1 19.5 1Z" stroke="#BFD8ED" stroke-width="2" stroke-linecap="round" stroke-linejoin="round"/>
<path d="M19.5 13H3.5C2.39543 13 1.5 13.8954 1.5 15V19C1.5 20.1046 2.39543 21 3.5 21H19.5C20.6046 21 21.5 20.1046 21.5 19V15C21.5 13.8954 20.6046 13 19.5 13Z" stroke="#BFD8ED" stroke-width="2" stroke-linecap="round" stroke-linejoin="round"/>
<path d="M5.5 5H5.51" stroke="#BFD8ED" stroke-width="2" stroke-linecap="round" stroke-linejoin="round"/>
<path d="M5.5 17H5.51" stroke="#BFD8ED" stroke-width="2" stroke-linecap="round" stroke-linejoin="round"/>
</svg>
