<svg width="25" height="25" viewBox="0 0 25 25" fill="none" xmlns="http://www.w3.org/2000/svg">
<path opacity="0.4" d="M12.25 0.644043C5.62097 0.644043 0.25 6.01335 0.25 12.6403C0.25 19.2673 5.62097 24.6366 12.25 24.6366C18.879 24.6366 24.25 19.2673 24.25 12.6403C24.25 6.01335 18.879 0.644043 12.25 0.644043ZM17.5842 8.85473L12.9415 18.9108C12.3995 20.0717 10.6973 19.6848 10.6973 18.4469V14.1902H6.44355C5.20532 14.1902 4.81871 12.4884 5.97952 11.9467L16.0387 7.30537C16.9653 6.92081 17.9713 7.92647 17.5842 8.85473Z" fill="#FB775A"/>
<path d="M5.977 11.9485L16.0362 7.30724C16.9652 6.92026 17.9716 7.9264 17.5846 8.85514L12.9413 18.9107C12.3994 20.0716 10.6971 19.6847 10.6971 18.4468V14.1901H6.44345C5.2028 14.192 4.81619 12.4903 5.977 11.9485Z" fill="#FB775A"/>
</svg>
