<svg width="37" height="27" viewBox="0 0 37 27" fill="none" xmlns="http://www.w3.org/2000/svg">
<path d="M1 23.7273V3.27273C1 2.02273 2.02273 1 3.27273 1H32.8182C34.0682 1 35.0909 2.02273 35.0909 3.27273V23.7273C35.0909 24.9773 34.0682 26 32.8182 26H3.27273C2.02273 26 1 24.9773 1 23.7273Z" stroke="#879BB0" stroke-width="2" stroke-miterlimit="10" stroke-linecap="square"/>
<path d="M17.1083 11.4453L15.575 14.8564L14.0483 11.4453H12.0912V16.3424L9.91184 11.4453H8.26078L6.03516 16.5306H7.3516L7.83921 15.3946H10.3323L10.8254 16.5306H13.3405V12.7541L15.0081 16.5306H16.144L17.8523 12.819V16.5306H19.1005V11.4453H17.1083ZM8.31031 14.2961L9.05549 12.5185L9.83039 14.2961H8.31031Z" fill="#879BB0"/>
<path d="M27.8229 13.9327L30.0585 11.4572H28.4701L27.0392 13.0356L25.6556 11.4473H20.7344V16.5325H25.4949L26.9941 14.8517L28.4569 16.5435H30.0397L27.8229 13.9327ZM24.8433 15.4648H21.965V14.4599H24.7189V13.4935H21.965V12.5414L25.0029 12.5491L26.2181 13.9338L24.8433 15.4648Z" fill="#879BB0"/>
</svg>
