<svg width="38" height="28" viewBox="0 0 38 28" fill="none" xmlns="http://www.w3.org/2000/svg">
<path d="M19.7701 12.2227C18.494 12.2227 17.457 13.2198 17.457 14.4511C17.457 15.7607 18.4479 16.738 19.7701 16.738C21.0599 16.738 22.0769 15.7465 22.0769 14.4761C22.0775 13.2141 21.0678 12.2227 19.7701 12.2227Z" fill="#879BB0"/>
<path d="M6.64219 12.3047H5.39844V16.6428H6.63423C7.29162 16.6428 7.76662 16.4859 8.18253 16.1411C8.67685 15.732 8.97003 15.1149 8.97003 14.4751C8.97003 13.1939 8.01321 12.3047 6.64219 12.3047ZM7.63139 15.5621C7.36207 15.8024 7.02003 15.9075 6.4723 15.9075H6.24503V13.0393H6.4723C7.02003 13.0393 7.34901 13.1376 7.63139 13.3899C7.9223 13.6507 8.0973 14.053 8.0973 14.4689C8.0973 14.8865 7.9223 15.303 7.63139 15.5621Z" fill="#879BB0"/>
<path d="M10.2065 12.3047H9.36328V16.6428H10.2065V12.3047Z" fill="#879BB0"/>
<path d="M12.2717 13.9657C11.7626 13.7793 11.6143 13.6549 11.6143 13.4202C11.6143 13.1475 11.8803 12.9407 12.2456 12.9407C12.499 12.9407 12.7075 13.0424 12.9303 13.2901L13.37 12.7129C13.0064 12.393 12.5712 12.2305 12.0967 12.2305C11.3291 12.2305 10.7439 12.7646 10.7439 13.4708C10.7439 14.0702 11.0161 14.3748 11.8098 14.6634C12.1416 14.7788 12.3104 14.8577 12.3956 14.9112C12.5649 15.0208 12.649 15.1771 12.649 15.3583C12.649 15.7112 12.3695 15.9708 11.9916 15.9708C11.5893 15.9708 11.2638 15.7691 11.0689 15.3913L10.5234 15.9197C10.9132 16.4907 11.3808 16.7464 12.0246 16.7464C12.903 16.7464 13.5217 16.1583 13.5217 15.3208C13.5212 14.6299 13.2342 14.3174 12.2717 13.9657Z" fill="#879BB0"/>
<path d="M13.7891 14.4733C13.7891 15.7488 14.7902 16.7375 16.0794 16.7375C16.443 16.7375 16.7544 16.6659 17.1379 16.4846V15.4875C16.7987 15.8284 16.501 15.9625 16.1163 15.9625C15.2646 15.9625 14.6612 15.346 14.6612 14.467C14.6612 13.6358 15.2839 12.9778 16.0794 12.9778C16.4805 12.9778 16.7874 13.1199 17.1379 13.4659V12.4699C16.7675 12.2829 16.4635 12.2051 16.097 12.2051C14.8152 12.2051 13.7891 13.213 13.7891 14.4733Z" fill="#879BB0"/>
<path d="M23.9936 15.2166L22.8368 12.3047H21.9141L23.7533 16.7518H24.2067L26.0811 12.3047H25.1663L23.9936 15.2166Z" fill="#879BB0"/>
<path d="M26.4648 16.6422H28.8637V15.9075H27.3114V14.7365H28.8052V14.0013H27.3114V13.0388H28.8637V12.3047H26.4648V16.6422Z" fill="#879BB0"/>
<path d="M32.2122 13.5828C32.2122 12.7703 31.6548 12.3027 30.6781 12.3027H29.4219V16.6408H30.2702V14.8965H30.3804L31.5491 16.6408H32.5901L31.2253 14.8124C31.8622 14.6823 32.2122 14.2465 32.2122 13.5828ZM30.5151 14.2976H30.2696V12.9857H30.5293C31.0577 12.9857 31.3412 13.2073 31.3412 13.63C31.3406 14.0641 31.0577 14.2976 30.5151 14.2976Z" fill="#879BB0"/>
<path d="M1.94922 24.7058V4.25124C1.94922 3.00124 2.97195 1.97852 4.22195 1.97852H33.7674C35.0174 1.97852 36.0401 3.00124 36.0401 4.25124V24.7058C36.0401 25.9558 35.0174 26.9785 33.7674 26.9785H4.22195C2.97195 26.9785 1.94922 25.9558 1.94922 24.7058Z" stroke="#879BB0" stroke-width="2" stroke-miterlimit="10" stroke-linecap="square"/>
</svg>
