<svg width="38" height="28" viewBox="0 0 38 28" fill="none" xmlns="http://www.w3.org/2000/svg">
<path d="M1.94922 24.7058V4.25124C1.95102 3.64903 2.19104 3.072 2.61687 2.64617C3.0427 2.22034 3.61973 1.98031 4.22195 1.97852H33.7674C34.3696 1.98031 34.9466 2.22034 35.3725 2.64617C35.7983 3.072 36.0383 3.64903 36.0401 4.25124V24.7058C36.0383 25.308 35.7983 25.885 35.3725 26.3109C34.9466 26.7367 34.3696 26.9767 33.7674 26.9785H4.22195C3.61973 26.9767 3.0427 26.7367 2.61687 26.3109C2.19104 25.885 1.95102 25.308 1.94922 24.7058V24.7058Z" stroke="#768CA5" stroke-width="2" stroke-miterlimit="10" stroke-linecap="square"/>
<path opacity="0.85" d="M15.0156 20.7285C18.4674 20.7285 21.2656 17.9303 21.2656 14.4785C21.2656 11.0267 18.4674 8.22852 15.0156 8.22852C11.5638 8.22852 8.76562 11.0267 8.76562 14.4785C8.76562 17.9303 11.5638 20.7285 15.0156 20.7285Z" fill="#768CA5"/>
<path opacity="0.5" d="M22.9727 20.7285C26.4244 20.7285 29.2227 17.9303 29.2227 14.4785C29.2227 11.0267 26.4244 8.22852 22.9727 8.22852C19.5209 8.22852 16.7227 11.0267 16.7227 14.4785C16.7227 17.9303 19.5209 20.7285 22.9727 20.7285Z" fill="#768CA5"/>
</svg>
