<svg width="38" height="28" viewBox="0 0 38 28" fill="none" xmlns="http://www.w3.org/2000/svg">
<path d="M15.7109 17.7893H17.5104L18.6371 11.1836H16.8365L15.7109 17.7893Z" fill="#768CA5"/>
<path d="M22.2696 13.8374C21.6401 13.5317 21.2548 13.3277 21.2588 13.0186C21.2588 12.7442 21.5849 12.4504 22.2901 12.4504C22.8668 12.4413 23.3315 12.5589 23.7991 12.78L24.0435 11.3482C23.6861 11.2141 23.127 11.0703 22.4293 11.0703C20.6503 11.0703 19.3969 11.9663 19.3866 13.2504C19.3764 14.1993 20.2815 14.7288 20.9645 15.0447C21.6651 15.3686 21.9009 15.5749 21.8974 15.8641C21.8929 16.3067 21.3378 16.5089 20.8202 16.5089C20.0213 16.5089 19.6185 16.3857 18.8935 16.0572L18.6406 17.5362C19.0611 17.7203 19.8389 17.8805 20.6463 17.8885C22.5389 17.8885 23.7673 17.0027 23.7815 15.6317C23.7878 14.8805 23.3082 14.3084 22.2696 13.8374Z" fill="#768CA5"/>
<path d="M28.6564 11.1914H27.2649C26.8337 11.1914 26.5115 11.309 26.3223 11.7391L23.6484 17.7925H25.5388C25.5388 17.7925 25.8479 16.9783 25.9178 16.7999C26.1246 16.7999 27.9609 16.8028 28.2234 16.8028C28.2774 17.034 28.4428 17.7925 28.4428 17.7925H30.1132L28.6564 11.1914ZM26.4359 15.4488C26.5104 15.2585 27.2456 13.3715 27.3922 12.9721C27.6354 14.1107 27.3984 13.0062 27.9308 15.4488H26.4359Z" fill="#768CA5"/>
<path d="M14.1989 11.189L12.4364 15.6935L12.2483 14.7782L11.617 11.7429C11.508 11.3248 11.192 11.1998 10.8011 11.1855H7.89773L7.875 11.323C8.58125 11.4941 9.2125 11.7407 9.76591 12.0475L11.3665 17.7844L13.2716 17.7821L16.1062 11.1895H14.1989V11.189Z" fill="#768CA5"/>
<path d="M1.94922 24.7058V4.25124C1.94922 3.00124 2.97195 1.97852 4.22195 1.97852H33.7674C35.0174 1.97852 36.0401 3.00124 36.0401 4.25124V24.7058C36.0401 25.9558 35.0174 26.9785 33.7674 26.9785H4.22195C2.97195 26.9785 1.94922 25.9558 1.94922 24.7058Z" stroke="#768CA5" stroke-width="2" stroke-miterlimit="10" stroke-linecap="square"/>
</svg>
