<svg width="19" height="19" viewBox="0 0 19 19" fill="none" xmlns="http://www.w3.org/2000/svg">
<path opacity="0.4" d="M18.9889 9.24414C18.989 8.61437 18.7968 7.9996 18.4381 7.48197C18.0794 6.96433 17.5713 6.5685 16.9816 6.34737C17.2417 5.7742 17.3208 5.13532 17.2083 4.51603C17.0958 3.89673 16.7971 3.32649 16.352 2.88141C15.9069 2.43634 15.3367 2.13762 14.7174 2.02512C14.0981 1.91262 13.4592 1.99171 12.886 2.25181C12.6649 1.66209 12.2691 1.15388 11.7515 0.795125C11.2339 0.436365 10.6191 0.244141 9.98926 0.244141C9.35945 0.244141 8.74465 0.436365 8.22701 0.795125C7.70938 1.15388 7.31357 1.66209 7.09249 2.25181C6.51932 1.99171 5.88044 1.91262 5.26115 2.02512C4.64185 2.13762 4.0716 2.43634 3.62653 2.88141C3.18146 3.32649 2.88273 3.89673 2.77024 4.51603C2.65774 5.13532 2.73682 5.7742 2.99693 6.34737C2.4072 6.56845 1.899 6.96426 1.54024 7.4819C1.18148 7.99953 0.989258 8.61434 0.989258 9.24414C0.989258 9.87395 1.18148 10.4888 1.54024 11.0064C1.899 11.524 2.4072 11.9198 2.99693 12.1409C2.73682 12.7141 2.65774 13.353 2.77024 13.9723C2.88273 14.5915 3.18146 15.1618 3.62653 15.6069C4.0716 16.0519 4.64185 16.3507 5.26115 16.4632C5.88044 16.5757 6.51932 16.4966 7.09249 16.2365C7.31357 16.8262 7.70938 17.3344 8.22701 17.6932C8.74465 18.0519 9.35945 18.2441 9.98926 18.2441C10.6191 18.2441 11.2339 18.0519 11.7515 17.6932C12.2691 17.3344 12.6649 16.8262 12.886 16.2365C13.4592 16.4966 14.0981 16.5757 14.7174 16.4632C15.3367 16.3507 15.9069 16.0519 16.352 15.6069C16.7971 15.1618 17.0958 14.5915 17.2083 13.9723C17.3208 13.353 17.2417 12.7141 16.9816 12.1409C17.5713 11.9198 18.0794 11.5239 18.4381 11.0063C18.7968 10.4887 18.989 9.87391 18.9889 9.24414ZM10.833 12.5642V13.1815C10.833 13.3307 10.7737 13.4737 10.6682 13.5792C10.5627 13.6847 10.4197 13.744 10.2705 13.744H9.70802C9.55884 13.744 9.41577 13.6847 9.31029 13.5792C9.2048 13.4737 9.14554 13.3307 9.14554 13.1815V12.5582C8.74675 12.5131 8.3641 12.3751 8.02831 12.1553C7.80965 12.0108 7.78856 11.6944 7.97382 11.5092L8.58974 10.8933C8.72122 10.7618 8.91703 10.7442 9.08578 10.823C9.19896 10.8747 9.32201 10.9013 9.44647 10.901H10.5988C10.6702 10.9009 10.7391 10.875 10.793 10.8281C10.8468 10.7812 10.8819 10.7165 10.8918 10.6458C10.9017 10.5752 10.8858 10.5033 10.8469 10.4434C10.8081 10.3835 10.749 10.3397 10.6804 10.3199L8.9202 9.81717C8.138 9.59393 7.514 8.94849 7.41169 8.14133C7.37866 7.88184 7.39742 7.61837 7.46688 7.36618C7.53635 7.11398 7.65514 6.87807 7.81639 6.67209C7.97764 6.46612 8.17814 6.29417 8.40629 6.1662C8.63444 6.03823 8.8857 5.95678 9.14554 5.92657V5.30678C9.14554 5.1576 9.2048 5.01453 9.31029 4.90905C9.41577 4.80356 9.55884 4.7443 9.70802 4.7443H10.2705C10.4197 4.7443 10.5627 4.80356 10.6682 4.90905C10.7737 5.01453 10.833 5.1576 10.833 5.30678V5.93008C11.2318 5.97517 11.6144 6.11315 11.9502 6.33296C12.1689 6.47744 12.19 6.79384 12.0047 6.97911L11.3888 7.59502C11.2573 7.7265 11.0615 7.74408 10.8927 7.66533C10.7795 7.6136 10.6565 7.58698 10.5321 7.58729H9.37967C9.3083 7.58742 9.23938 7.6133 9.18556 7.66018C9.13175 7.70705 9.09666 7.77178 9.08674 7.84245C9.07682 7.91313 9.09274 7.98501 9.13157 8.04489C9.1704 8.10477 9.22954 8.14863 9.29811 8.1684L11.0583 8.67111C11.8405 8.8947 12.4645 9.53979 12.5668 10.347C12.6002 10.6066 12.5817 10.8704 12.5124 11.1228C12.4431 11.3753 12.3244 11.6115 12.1631 11.8178C12.0018 12.024 11.8012 12.1962 11.5729 12.3243C11.3445 12.4524 11.093 12.534 10.833 12.5642Z" fill="#FB775A"/>
<path d="M10.8326 12.564V13.1813C10.8326 13.3305 10.7734 13.4736 10.6679 13.5791C10.5624 13.6846 10.4193 13.7438 10.2702 13.7438H9.70767C9.55849 13.7438 9.41542 13.6846 9.30994 13.5791C9.20445 13.4736 9.14519 13.3305 9.14519 13.1813V12.558C8.7464 12.513 8.36375 12.375 8.02797 12.1552C7.8093 12.0107 7.78821 11.6943 7.97348 11.509L8.58939 10.8931C8.72087 10.7616 8.91668 10.744 9.08543 10.8228C9.19861 10.8745 9.32166 10.9012 9.44612 10.9008H10.5985C10.6699 10.9007 10.7388 10.8748 10.7926 10.8279C10.8464 10.7811 10.8815 10.7163 10.8914 10.6457C10.9014 10.575 10.8854 10.5031 10.8466 10.4432C10.8078 10.3833 10.7486 10.3395 10.6801 10.3197L8.91985 9.817C8.13765 9.59377 7.51365 8.94833 7.41135 8.14117C7.37831 7.88167 7.39707 7.61821 7.46654 7.36601C7.536 7.11382 7.6548 6.87791 7.81605 6.67193C7.9773 6.46595 8.1778 6.29401 8.40595 6.16604C8.63409 6.03807 8.88536 5.95662 9.14519 5.9264V5.30662C9.14519 5.15744 9.20445 5.01437 9.30994 4.90889C9.41542 4.8034 9.55849 4.74414 9.70767 4.74414H10.2702C10.4193 4.74414 10.5624 4.8034 10.6679 4.90889C10.7734 5.01437 10.8326 5.15744 10.8326 5.30662V5.92992C11.2314 5.97501 11.6141 6.11299 11.9499 6.33279C12.1685 6.47728 12.1896 6.79368 12.0043 6.97894L11.3884 7.59486C11.257 7.72634 11.0611 7.74392 10.8924 7.66517C10.7792 7.61344 10.6562 7.58682 10.5317 7.58712H9.37932C9.30796 7.58726 9.23903 7.61314 9.18522 7.66001C9.1314 7.70689 9.09631 7.77161 9.08639 7.84229C9.07647 7.91297 9.09239 7.98485 9.13122 8.04473C9.17005 8.10461 9.22919 8.14846 9.29776 8.16824L11.058 8.67095C11.8402 8.89454 12.4642 9.53963 12.5665 10.3468C12.5995 10.6063 12.5808 10.8698 12.5113 11.1219C12.4418 11.3741 12.323 11.6101 12.1618 11.816C12.0005 12.022 11.8 12.194 11.5719 12.3219C11.3437 12.4499 11.0925 12.5313 10.8326 12.5616V12.564Z" fill="#FB775A"/>
</svg>
